<svg width="18" height="19" viewBox="0 0 18 19" fill="none" xmlns="http://www.w3.org/2000/svg">
<path d="M12.4104 3.03105C12.4406 3.04618 12.4708 3.06132 12.5019 3.07692C13.5113 3.58753 14.4664 4.23236 15.3284 4.96464C15.366 4.99614 15.4037 5.02764 15.4413 5.05912C15.7661 5.33255 16.0771 5.61959 16.3831 5.91386C16.4081 5.93784 16.4331 5.96182 16.4588 5.98653C17.3311 6.8278 17.3311 6.8278 17.3746 7.45881C17.3812 7.90825 17.2864 8.28324 16.9843 8.62639C16.5528 9.04345 15.8814 9.23592 15.3394 9.46464C15.2548 9.50049 15.1701 9.53636 15.0855 9.57225C14.9586 9.62606 14.8317 9.67986 14.7048 9.7336C14.3395 9.88828 13.9747 10.0442 13.6101 10.2007C13.5583 10.223 13.5065 10.2452 13.4547 10.2674C13.341 10.3162 13.2273 10.365 13.1136 10.4139C13.1132 10.4388 13.1129 10.4638 13.1126 10.4895C13.1107 10.6042 13.1077 10.7189 13.1048 10.8335C13.1043 10.8728 13.1038 10.9121 13.1033 10.9525C13.0949 11.2383 13.0561 11.4682 12.8687 11.6914C12.6236 11.8899 12.4478 11.9575 12.1292 11.9256C11.8932 11.8509 11.7094 11.7286 11.5909 11.5081C11.5281 11.3816 11.5151 11.2561 11.4964 11.117C11.4381 11.142 11.3798 11.1669 11.3215 11.1919C11.2675 11.2151 11.2136 11.2382 11.1596 11.2613C11.0006 11.3295 10.8415 11.3977 10.6824 11.4658C10.3438 11.611 10.0052 11.7561 9.66658 11.9011C8.86065 12.2461 8.05486 12.5915 7.24998 12.939C6.9575 13.0653 6.66498 13.1915 6.37246 13.3177C6.29411 13.3515 6.21576 13.3853 6.13741 13.4191C5.89347 13.5243 5.64947 13.6295 5.40539 13.7344C5.32832 13.7676 5.25127 13.8008 5.17424 13.8341C5.06825 13.8798 4.96218 13.9254 4.8561 13.971C4.82448 13.9847 4.79286 13.9983 4.76028 14.0124C4.73151 14.0248 4.70274 14.0371 4.6731 14.0498C4.63554 14.0659 4.63554 14.0659 4.59723 14.0824C4.53544 14.1053 4.53544 14.1053 4.46512 14.1053C4.46623 14.1552 4.46623 14.1552 4.46736 14.2062C4.46977 14.3313 4.47153 14.4565 4.47285 14.5816C4.47355 14.6355 4.47451 14.6894 4.47573 14.7432C4.48353 15.0946 4.48382 15.4111 4.25913 15.7014C4.00946 15.9042 3.79923 15.9914 3.47388 15.9806C3.21032 15.9483 3.0143 15.8424 2.8294 15.6548C2.67669 15.4397 2.65482 15.2433 2.64799 14.9864C2.64679 14.9556 2.64558 14.9249 2.64435 14.8932C2.64147 14.8181 2.63918 14.7429 2.637 14.6678C2.56858 14.647 2.56858 14.647 2.49637 14.6326C2.43743 14.6916 2.45653 14.7639 2.45623 14.8448C2.45598 14.8826 2.45574 14.9204 2.45548 14.9593C2.45534 15.0006 2.45519 15.0418 2.45504 15.0843C2.45422 15.171 2.45337 15.2577 2.4525 15.3445C2.45127 15.4816 2.45023 15.6188 2.44976 15.756C2.44921 15.888 2.4478 16.0201 2.44625 16.1522C2.44632 16.1929 2.44638 16.2336 2.44645 16.2756C2.44228 16.5531 2.40331 16.7427 2.22007 16.9602C1.97268 17.1703 1.76277 17.2575 1.43482 17.2461C1.15817 17.2126 0.970291 17.1068 0.790335 16.8963C0.661881 16.6878 0.617335 16.4912 0.619446 16.2489C0.619261 16.2222 0.619077 16.1955 0.618886 16.168C0.618425 16.0805 0.618729 15.9929 0.619086 15.9054C0.619015 15.8436 0.618912 15.7819 0.61878 15.7201C0.618625 15.5907 0.618849 15.4612 0.619343 15.3318C0.619939 15.168 0.619602 15.0042 0.618967 14.8404C0.61858 14.7127 0.618709 14.585 0.61898 14.4573C0.619049 14.397 0.618969 14.3368 0.618719 14.2765C0.616904 13.715 0.669046 13.1513 0.830847 12.6111C0.844116 12.5661 0.844116 12.5661 0.857652 12.5201C1.15555 11.5518 1.721 10.8064 2.40934 10.0823C2.48976 9.9968 2.56625 9.90818 2.64277 9.81923C2.7328 9.71694 2.82558 9.61727 2.91825 9.51738C3.03116 9.39564 3.14364 9.27387 3.25223 9.14824C3.37728 9.00367 3.50732 8.8639 3.63721 8.72371C3.79772 8.55035 3.95598 8.37504 4.11356 8.19902C4.2988 7.99242 4.48517 7.78693 4.67287 7.58258C4.82747 7.41413 4.98044 7.24424 5.13309 7.07402C5.31835 6.86744 5.5047 6.66193 5.6924 6.45758C5.84701 6.28913 5.99997 6.11924 6.15262 5.94902C6.33793 5.74238 6.52431 5.53681 6.71209 5.33243C6.83913 5.19403 6.96488 5.05452 7.09031 4.91465C7.15043 4.84807 7.21082 4.7818 7.27158 4.7158C7.28864 4.69727 7.30571 4.67873 7.32329 4.65963C7.37156 4.60727 7.4199 4.55497 7.46824 4.50267C7.49815 4.46949 7.52806 4.43632 7.55887 4.40214C7.57575 4.38362 7.59263 4.36509 7.61002 4.34601C7.6538 4.29629 7.69449 4.24388 7.73466 4.1912C7.71778 4.08512 7.67835 4.00624 7.62768 3.91229C7.45793 3.55869 7.4675 3.10481 7.57645 2.73222C7.73319 2.34037 7.99389 2.05123 8.37461 1.86897C9.58208 1.38506 11.3507 2.4991 12.4104 3.03105ZM8.28617 2.61577C8.08851 2.85381 8.02981 3.08539 8.03843 3.39264C8.06581 3.59948 8.15965 3.78896 8.29716 3.94511C8.38689 3.99014 8.38689 3.99014 8.49189 4.02215C8.53143 4.03556 8.57097 4.04896 8.61171 4.06277C8.67571 4.08393 8.67571 4.08393 8.741 4.10551C8.83134 4.13643 8.92147 4.1679 9.01154 4.19958C9.03436 4.20761 9.05719 4.21563 9.0807 4.2239C10.7914 4.83177 12.4351 5.83124 13.8167 7.0037C13.878 7.05573 13.9394 7.10775 14.0007 7.15975C14.0411 7.19405 14.0814 7.22841 14.1217 7.26287C14.2053 7.33419 14.2876 7.39967 14.3792 7.46074C14.3848 7.43436 14.3903 7.40798 14.3961 7.38081C14.5041 6.90699 14.6865 6.53938 15.1046 6.27545C15.2967 6.17113 15.4988 6.11738 15.7151 6.08964C15.421 5.72402 15.0565 5.43687 14.6865 5.15251C14.6281 5.10745 14.5701 5.06195 14.5121 5.01628C13.8026 4.45933 13.0317 3.97945 12.2347 3.55839C12.2039 3.54214 12.1732 3.52589 12.1415 3.50914C10.2175 2.40687 10.2175 2.40687 8.28617 2.61577ZM8.22684 4.47245C8.2519 4.5821 8.2519 4.5821 8.3389 4.63286C8.56666 4.83025 8.70548 5.12159 8.73084 5.42003C8.73704 5.71464 8.73112 5.96922 8.57841 6.23027C8.5639 6.25542 8.5494 6.28057 8.53446 6.30648C8.35685 6.57543 8.05477 6.74398 7.74344 6.81474C7.36844 6.85801 7.00399 6.81099 6.69315 6.57744C6.65342 6.54395 6.61385 6.51028 6.5745 6.47636C6.53969 6.45316 6.50489 6.42995 6.46903 6.40605C6.26068 6.63271 6.05307 6.85995 5.84748 7.08912C5.75498 7.19159 5.66161 7.29323 5.56815 7.39482C5.46348 7.50862 5.35952 7.62285 5.25834 7.73979C5.13246 7.88499 5.00176 8.02556 4.87117 8.1665C4.71066 8.33987 4.5524 8.51518 4.39481 8.6912C4.24216 8.86146 4.08918 9.03137 3.93453 9.19981C3.90167 9.2356 3.86884 9.27141 3.83605 9.30725C3.75754 9.39305 3.67874 9.47848 3.59926 9.56338C3.57103 9.59388 3.5428 9.62438 3.51371 9.6558C3.48865 9.68259 3.46359 9.70937 3.43777 9.73697C3.37294 9.81918 3.33855 9.89332 3.30497 9.99199C3.33687 10.0253 3.36878 10.0587 3.40165 10.0931C3.66794 10.4117 3.6925 10.7512 3.66453 11.1523C3.64754 11.3013 3.59841 11.4152 3.51591 11.5389C3.49354 11.5754 3.49354 11.5754 3.47072 11.6126C3.29305 11.8774 3.04034 12.0403 2.73299 12.1199C2.38844 12.1795 2.11108 12.1338 1.79325 11.9959C1.75844 11.9843 1.72364 11.9727 1.68778 11.9607C1.47565 12.3444 1.3501 12.7497 1.25712 13.1758C1.25138 13.2015 1.24565 13.2272 1.23974 13.2536C1.15188 13.6805 1.15447 14.1204 1.1533 14.5545C1.15315 14.5923 1.15315 14.5923 1.15299 14.6309C1.15247 14.7639 1.15215 14.8968 1.15199 15.0298C1.1518 15.1663 1.15095 15.3027 1.14995 15.4392C1.1493 15.5452 1.14912 15.6511 1.14906 15.7571C1.14896 15.8074 1.14868 15.8577 1.14821 15.9081C1.13893 16.2708 1.13893 16.2708 1.26591 16.6014C1.37964 16.6822 1.44505 16.7075 1.58451 16.7046C1.70416 16.6664 1.77374 16.6183 1.86356 16.531C1.89882 16.4253 1.90329 16.3543 1.90371 16.2438C1.90395 16.2067 1.9042 16.1696 1.90445 16.1314C1.9046 16.0913 1.90475 16.0512 1.9049 16.0099C1.90571 15.925 1.90656 15.8401 1.90744 15.7552C1.90867 15.6214 1.9097 15.4875 1.91018 15.3537C1.91072 15.2245 1.91214 15.0953 1.91369 14.9662C1.91362 14.9264 1.91355 14.8867 1.91348 14.8457C1.91696 14.6199 1.93518 14.431 2.0745 14.2459C2.23678 14.1077 2.42579 14.061 2.637 14.0701C2.83402 14.1101 2.96642 14.1937 3.09403 14.3514C3.19014 14.5341 3.17773 14.7267 3.18117 14.9281C3.18676 15.0919 3.19888 15.2029 3.30497 15.3357C3.41796 15.4111 3.48741 15.4412 3.62357 15.4412C3.75479 15.3965 3.81562 15.3372 3.90262 15.2303C3.93474 15.1328 3.94227 15.0438 3.94277 14.9416C3.94301 14.9127 3.94326 14.8838 3.94352 14.854C3.94374 14.8075 3.94374 14.8075 3.94396 14.7601C3.94478 14.6935 3.94562 14.627 3.9465 14.5605C3.94773 14.4563 3.94876 14.3521 3.94924 14.2479C3.95219 13.7062 3.99542 13.257 4.3245 12.8045C4.35858 12.774 4.39266 12.7436 4.42777 12.7122C4.51496 12.6313 4.51496 12.6313 4.49369 12.5035C4.48907 12.4794 4.48444 12.4552 4.47968 12.4304C4.41297 12.0503 4.48297 11.7062 4.70023 11.3872C4.90643 11.1338 5.20191 10.9736 5.52242 10.9247C5.92185 10.8839 6.21602 10.9397 6.53934 11.1873C6.60588 11.2616 6.6662 11.3362 6.72336 11.4179C6.7836 11.4788 6.7836 11.4788 6.87425 11.4627C7.03346 11.4245 7.1757 11.3623 7.325 11.2959C7.35706 11.2819 7.38912 11.2679 7.42216 11.2534C7.52715 11.2074 7.632 11.1611 7.73685 11.1148C7.81007 11.0827 7.8833 11.0506 7.95654 11.0185C8.10498 10.9535 8.25337 10.8884 8.40173 10.8232C8.75062 10.67 9.10022 10.5184 9.45031 10.368C9.50226 10.3456 9.55422 10.3233 9.60618 10.301C9.63152 10.2901 9.65687 10.2792 9.68298 10.268C9.84154 10.1997 9.99947 10.1301 10.1571 10.0596C10.2625 10.0126 10.3683 9.96614 10.474 9.91979C10.5233 9.89803 10.5724 9.876 10.6214 9.85367C10.9346 9.7111 11.2362 9.59864 11.5809 9.70057C11.7701 9.77634 11.89 9.92281 11.9886 10.0975C12.0278 10.219 12.0292 10.335 12.0311 10.4622C12.0321 10.5055 12.0331 10.5489 12.0342 10.5935C12.036 10.6847 12.0375 10.7759 12.0388 10.867C12.0405 10.932 12.0405 10.932 12.0421 10.9983C12.0428 11.0379 12.0435 11.0776 12.0442 11.1184C12.0603 11.2326 12.0846 11.2811 12.1643 11.3631C12.2469 11.4042 12.2469 11.4042 12.3401 11.3982C12.4683 11.3199 12.4683 11.3199 12.5381 11.1917C12.5515 11.1146 12.5557 11.0429 12.556 10.9646C12.5563 10.9348 12.5565 10.905 12.5568 10.8742C12.557 10.8262 12.557 10.8262 12.5572 10.7772C12.5581 10.7088 12.5589 10.6404 12.5598 10.5719C12.561 10.4646 12.562 10.3572 12.5625 10.2498C12.5631 10.1458 12.5645 10.0419 12.566 9.93788C12.566 9.9063 12.5659 9.87472 12.5658 9.84218C12.5724 9.49749 12.697 9.18684 12.9378 8.9373C13.1908 8.72883 13.4975 8.61359 13.7969 8.48906C13.8693 8.45873 13.9417 8.4283 14.0141 8.39768C14.079 8.37021 14.144 8.34306 14.2091 8.31592C14.3109 8.2753 14.3109 8.2753 14.3792 8.19902C14.127 7.96085 13.875 7.72534 13.604 7.50853C13.5265 7.44656 13.4498 7.38401 13.3735 7.32066C12.8446 6.88303 12.2895 6.48825 11.7073 6.1248C11.6859 6.11141 11.6645 6.09803 11.6425 6.08423C10.6228 5.45 9.41429 4.72999 8.22684 4.47245ZM7.80497 4.92949C7.5148 5.24354 7.5148 5.24354 7.23217 5.56436C7.18707 5.61565 7.14059 5.66572 7.09347 5.71515C7.05411 5.75695 7.05411 5.75695 7.01395 5.7996C6.98966 5.8248 6.96537 5.85 6.94034 5.87596C6.88352 5.94451 6.88352 5.94451 6.89338 6.02276C6.93264 6.1031 6.9707 6.13462 7.04471 6.18412C7.06601 6.19876 7.08731 6.2134 7.10926 6.22848C7.2819 6.32988 7.47085 6.32233 7.66434 6.30058C7.89869 6.22985 8.0447 6.12404 8.16216 5.90919C8.24443 5.72628 8.26472 5.53716 8.20157 5.34463C8.12928 5.19101 8.0412 5.07529 7.91044 4.96464C7.87563 4.95304 7.84083 4.94144 7.80497 4.92949ZM15.0989 6.9956C14.9398 7.23663 14.8597 7.48837 14.9065 7.77714C14.9527 7.91443 15.0173 8.03851 15.0862 8.16551C15.1175 8.23417 15.1175 8.23417 15.1307 8.35283C15.0576 8.54534 14.9096 8.57853 14.7283 8.661C14.4693 8.7763 14.2075 8.88537 13.9458 8.99422C13.8642 9.02819 13.7828 9.06251 13.7015 9.09687C13.6768 9.10702 13.6521 9.11717 13.6267 9.12762C13.4061 9.22119 13.2587 9.31974 13.1531 9.53715C13.138 9.56729 13.1228 9.59743 13.1072 9.62848C13.0677 9.71444 13.0677 9.71444 13.1136 9.8162C13.221 9.77021 13.3285 9.7242 13.436 9.67819C13.4871 9.65631 13.4871 9.65631 13.5393 9.63399C13.7302 9.55226 13.921 9.47044 14.1119 9.38848C14.1915 9.35427 14.2712 9.32005 14.3509 9.28584C14.3911 9.26857 14.4313 9.25129 14.4728 9.2335C14.7073 9.13291 14.942 9.03298 15.1771 8.93376C15.3186 8.87398 15.4599 8.81387 15.6012 8.7537C15.668 8.7254 15.7348 8.69725 15.8016 8.66926C15.895 8.63015 15.9881 8.5905 16.0812 8.55072C16.1083 8.53954 16.1354 8.52836 16.1634 8.51684C16.4518 8.39216 16.6415 8.22549 16.7719 7.93809C16.8616 7.69248 16.8578 7.46065 16.7698 7.21464C16.6498 6.9596 16.4465 6.73427 16.177 6.63374C15.7462 6.53766 15.374 6.649 15.0989 6.9956ZM11.0516 10.2396C11.0113 10.2567 10.9711 10.2738 10.9297 10.2914C10.8849 10.311 10.8402 10.3305 10.7954 10.3501C10.7476 10.3707 10.6998 10.3912 10.652 10.4116C10.5173 10.4694 10.383 10.5278 10.2487 10.5864C10.1578 10.626 10.0668 10.6654 9.9758 10.7048C9.63758 10.8514 9.29956 10.9984 8.96169 11.1457C8.59512 11.3055 8.22817 11.4644 7.861 11.6229C7.76576 11.664 7.67054 11.7051 7.57531 11.7462C7.2769 11.8751 6.97839 12.0037 6.67965 12.1318C6.53918 12.192 6.39877 12.2524 6.25835 12.3127C6.19197 12.3412 6.12557 12.3697 6.05914 12.3981C5.17444 12.7268 5.17444 12.7268 4.57059 13.4021C4.58219 13.4253 4.5938 13.4485 4.60575 13.4725C4.63271 13.4609 4.65968 13.4493 4.68746 13.4374C4.749 13.4111 4.81054 13.3847 4.87207 13.3583C5.00193 13.3027 5.13178 13.247 5.26163 13.1914C5.566 13.0609 5.87038 12.9305 6.17479 12.8001C6.37835 12.713 6.58189 12.6258 6.78544 12.5386C6.82743 12.5206 6.86943 12.5026 6.9127 12.4841C7.36315 12.2911 7.81349 12.0979 8.26337 11.9036C8.30022 11.8877 8.33706 11.8718 8.37502 11.8554C8.55775 11.7765 8.74045 11.6975 8.92308 11.6183C9.30212 11.4543 9.68191 11.2922 10.063 11.1331C10.1963 11.0774 10.3294 11.0214 10.4626 10.9655C10.57 10.9204 10.6774 10.8756 10.7851 10.8312C10.9038 10.7822 11.0223 10.7325 11.1407 10.6828C11.1763 10.6682 11.212 10.6537 11.2487 10.6388C11.281 10.6251 11.3133 10.6114 11.3466 10.5972C11.3748 10.5855 11.403 10.5738 11.4321 10.5617C11.5018 10.5242 11.5018 10.5242 11.5258 10.4501C11.5347 10.3394 11.4946 10.2875 11.4261 10.2029C11.2779 10.1524 11.1927 10.1787 11.0516 10.2396ZM2.88309 10.3787C2.6301 10.6248 2.4037 10.887 2.18436 11.1631C2.16718 11.1846 2.14999 11.2061 2.13228 11.2282C2.06047 11.3195 2.00605 11.3926 1.96903 11.5037C2.16487 11.6192 2.3543 11.6706 2.5796 11.6289C2.80041 11.5635 2.95281 11.4633 3.08744 11.273C3.18205 11.0788 3.20587 10.8566 3.13784 10.6497C3.07265 10.5093 3.02952 10.4399 2.88309 10.3787ZM5.09794 11.7498C4.97873 11.9031 4.96919 12.0541 4.95731 12.242C4.98052 12.2536 5.00372 12.2652 5.02762 12.2771C5.12173 12.2426 5.21208 12.2056 5.30366 12.1652C5.33087 12.1535 5.35808 12.1417 5.38612 12.1296C5.47328 12.0919 5.56026 12.0538 5.64725 12.0157C5.7062 11.9901 5.76516 11.9645 5.82413 11.939C5.96891 11.8762 6.11354 11.8131 6.25809 11.7498C6.25809 11.715 6.25809 11.6802 6.25809 11.6443C6.06203 11.4646 5.91608 11.417 5.65412 11.4223C5.41747 11.4488 5.25058 11.571 5.09794 11.7498Z" fill="#243E62"/>
<path d="M9.04614 7.83876C9.30681 8.05082 9.47207 8.32448 9.52734 8.65614C9.55841 9.07847 9.47996 9.41448 9.21094 9.74598C9.00171 9.98203 8.711 10.1212 8.39767 10.1497C7.99406 10.1702 7.66765 10.086 7.34985 9.82508C7.08163 9.56658 6.96422 9.26276 6.94775 8.89564C6.95657 8.52167 7.07825 8.18089 7.34766 7.91786C7.84093 7.50755 8.51374 7.4711 9.04614 7.83876ZM7.66406 8.37489C7.54159 8.5644 7.46261 8.75982 7.5038 8.98834C7.56154 9.20908 7.63881 9.38335 7.84012 9.50868C8.05615 9.61707 8.25269 9.64889 8.48639 9.58091C8.69686 9.49798 8.83038 9.38886 8.92969 9.17977C9.02262 8.93874 9.00963 8.74796 8.91211 8.51112C8.81379 8.32785 8.63201 8.20247 8.43475 8.14129C8.14716 8.0881 7.86916 8.16409 7.66406 8.37489Z" fill="#243E62"/>
<path d="M11.0742 6.96861C11.1962 7.05562 11.3227 7.14921 11.3906 7.28502C11.4065 7.53458 11.4065 7.53458 11.3555 7.63658C11.2366 7.69602 11.1304 7.70364 11.0039 7.67174C10.8509 7.57365 10.7187 7.45737 10.6523 7.28502C10.6569 7.1548 10.6614 7.07111 10.7446 6.96861C10.8731 6.91453 10.9406 6.92853 11.0742 6.96861Z" fill="#243E62"/>
<path d="M5.4841 8.72631C5.62753 8.82383 5.73958 8.93375 5.83566 9.07788C5.85735 9.22043 5.84693 9.27277 5.76315 9.39209C5.65988 9.46459 5.65988 9.46459 5.54123 9.47119C5.34086 9.40555 5.21337 9.28701 5.09738 9.11303C5.08253 8.97686 5.07746 8.89802 5.15231 8.78125C5.27648 8.70165 5.3386 8.69964 5.4841 8.72631Z" fill="#243E62"/>
<path d="M10.7226 8.48023C10.8123 8.53901 10.8268 8.58198 10.861 8.68457C10.864 8.83512 10.8175 8.89269 10.7226 9.00757C10.5999 9.12698 10.5081 9.17602 10.3359 9.18335C10.2432 9.15504 10.207 9.12874 10.1491 9.05152C10.1142 8.93727 10.1241 8.87606 10.1601 8.76148C10.3094 8.54147 10.4466 8.4039 10.7226 8.48023Z" fill="#243E62"/>
<path d="M6.6796 7.46109C6.74992 7.49624 6.74992 7.49624 6.78507 7.56656C6.8063 7.70807 6.81707 7.79459 6.74264 7.91839C6.65113 8.02914 6.56893 8.11078 6.43351 8.16421C6.21915 8.15669 6.21915 8.15669 6.1193 8.06973C6.06701 7.95593 6.05796 7.90225 6.08195 7.77749C6.25086 7.53777 6.37698 7.42891 6.6796 7.46109Z" fill="#243E62"/>
<path d="M3.90259 12.2771C3.99425 12.3565 4.00707 12.413 4.03223 12.5319C3.99622 12.7284 3.88555 12.8297 3.72681 12.945C3.59717 12.989 3.59717 12.989 3.48071 12.9802C3.37744 12.9274 3.37744 12.9274 3.30493 12.8396C3.27856 12.7253 3.27856 12.7253 3.30493 12.5935C3.45707 12.3648 3.61592 12.1917 3.90259 12.2771Z" fill="#243E62"/>
<path d="M4.88681 9.99208C4.99461 10.0622 5.02058 10.1053 5.0516 10.2294C5.00774 10.4367 4.8481 10.5804 4.67587 10.6952C4.55143 10.7111 4.48837 10.71 4.38143 10.6425C4.31763 10.5443 4.29559 10.4674 4.30178 10.3497C4.38294 10.0745 4.61713 9.93815 4.88681 9.99208Z" fill="#243E62"/>
<path d="M9.94923 6.1954C10.057 6.26547 10.083 6.30864 10.114 6.43271C10.0702 6.64006 9.91053 6.78371 9.7383 6.89853C9.62106 6.89225 9.52785 6.88292 9.42409 6.82602C9.35945 6.70815 9.35196 6.60341 9.38673 6.47665C9.53376 6.25289 9.68188 6.14193 9.94923 6.1954Z" fill="#243E62"/>
<path d="M6.45557 10.0166C6.62471 10.0187 6.71886 10.0699 6.85547 10.1682C6.93329 10.2622 6.92576 10.3098 6.92358 10.4341C6.89062 10.5549 6.89062 10.5549 6.81592 10.6252C6.68083 10.6722 6.60672 10.6633 6.46875 10.6252C6.32755 10.5549 6.23938 10.4941 6.18311 10.344C6.19119 10.15 6.26453 10.0331 6.45557 10.0166Z" fill="#243E62"/>
<path d="M2.19287 13.0488C2.33832 13.0915 2.44008 13.1434 2.56641 13.2268C2.62075 13.3355 2.61188 13.4235 2.60156 13.5432C2.54663 13.6289 2.54663 13.6289 2.46094 13.6838C2.26296 13.7181 2.1501 13.6591 1.9899 13.5534C1.90738 13.487 1.89929 13.4441 1.88525 13.3389C1.89844 13.2268 1.89844 13.2268 1.97095 13.1235C2.07422 13.051 2.07422 13.051 2.19287 13.0488Z" fill="#243E62"/>
<path d="M12.4102 7.7424C12.5221 7.79969 12.6371 7.86384 12.7266 7.95333C12.747 8.20309 12.747 8.20309 12.6694 8.32248C12.5569 8.39353 12.5067 8.398 12.375 8.37521C12.2257 8.30221 12.1163 8.23332 12.0234 8.09396C12.0311 7.87943 12.0311 7.87943 12.1179 7.77975C12.2289 7.72876 12.2884 7.72367 12.4102 7.7424Z" fill="#243E62"/>
</svg>
