<svg width="47" height="46" viewBox="0 0 47 46" fill="none" xmlns="http://www.w3.org/2000/svg">
<g clip-path="url(#clip0_358_1139)">
<path d="M11.7896 0.680731C12.136 1.20034 12.2847 1.80867 12.4406 2.40753C12.4595 2.47897 12.4784 2.55041 12.4979 2.62401C12.5597 2.85766 12.621 3.09144 12.6823 3.32522C12.7254 3.48854 12.7685 3.65185 12.8117 3.81515C12.9247 4.24326 13.0374 4.67148 13.1499 5.09974C13.3306 5.78673 13.5119 6.47354 13.6931 7.16037C13.7564 7.40013 13.8194 7.63992 13.8824 7.87972C13.921 8.02618 13.9596 8.17265 13.9981 8.31911C14.0156 8.38583 14.0331 8.45256 14.0512 8.52131C14.1185 8.77673 14.1881 9.02871 14.2717 9.27939C16.0268 9.32327 16.0268 9.32327 17.8175 9.36803C17.8175 9.83608 17.8175 10.3041 17.8175 10.7864C16.7644 10.7864 15.7113 10.7864 14.6262 10.7864C14.7608 11.2416 14.7608 11.2416 14.8981 11.7061C15.2397 12.8716 15.5531 14.044 15.8617 15.2187C15.9144 15.4182 15.9671 15.6178 16.0198 15.8174C16.1466 16.2973 16.273 16.7774 16.3992 17.2575C17.1234 17.1699 17.8026 17.0613 18.4879 16.8087C18.6209 16.7613 18.754 16.7141 18.8871 16.6671C18.9438 16.6464 19.0004 16.6257 19.0587 16.6044C20.2559 16.2254 21.8657 16.3312 23.0476 16.7256C23.1574 16.762 23.2672 16.7983 23.3804 16.8358C23.6015 16.9093 23.8209 16.9856 24.0404 17.064C24.4399 17.1884 24.8534 17.2641 25.2638 17.3462C25.2638 15.1814 25.2638 13.0167 25.2638 10.7864C23.8011 10.7864 22.3384 10.7864 20.8315 10.7864C20.8315 10.3183 20.8315 9.85027 20.8315 9.36803C21.5288 9.36001 22.2262 9.35351 22.9236 9.34966C23.2475 9.34781 23.5713 9.34531 23.8951 9.34128C24.2078 9.33742 24.5205 9.33531 24.8332 9.33439C25.0102 9.33342 25.1872 9.33065 25.3642 9.32786C25.4724 9.32783 25.5806 9.3278 25.6922 9.32778C25.8348 9.3266 25.8348 9.3266 25.9803 9.32539C26.3119 9.38007 26.4453 9.486 26.6821 9.72262C26.7366 9.97252 26.7366 9.97252 26.7354 10.2667C26.736 10.3783 26.7366 10.4899 26.7372 10.6049C26.7357 10.7284 26.7341 10.8519 26.7324 10.9753C26.7323 11.1055 26.7323 11.2357 26.7326 11.3659C26.7327 11.7192 26.7301 12.0724 26.727 12.4257C26.7243 12.7949 26.724 13.1642 26.7235 13.5334C26.7221 14.2326 26.7185 14.9317 26.714 15.6309C26.7091 16.4269 26.7066 17.2228 26.7044 18.0188C26.6998 19.6562 26.692 21.2935 26.6821 22.9309C26.7947 22.9023 26.9073 22.8738 27.0234 22.8445C28.6474 22.4333 30.4836 22.6067 32.0895 23.0195C32.1187 22.8732 32.148 22.727 32.1781 22.5763C32.1127 22.574 32.0472 22.5717 31.9797 22.5693C30.7334 22.4997 29.7347 22.0562 28.8705 21.1358C27.7675 19.7418 27.7348 18.061 27.9243 16.3798C28.1261 14.7623 28.5047 12.9311 29.8276 11.8584C30.2554 11.5497 30.7888 11.6169 31.2917 11.6728C32.0806 11.9271 32.6628 12.4267 33.2419 13.0025C33.3205 13.0793 33.3991 13.1561 33.4801 13.2352C33.5478 13.3047 33.6154 13.3742 33.6851 13.4457C33.728 13.4846 33.7708 13.5234 33.815 13.5635C35.1152 14.775 36.204 16.5628 36.2891 18.3656C36.2382 19.5238 35.8073 20.5846 35.0207 21.4363C34.6333 21.7849 34.1333 22.2217 33.5965 22.2217C33.598 22.3019 33.598 22.3019 33.5996 22.3837C33.6008 22.49 33.6008 22.49 33.602 22.5984C33.603 22.6684 33.6041 22.7383 33.6051 22.8104C33.5968 23.0113 33.5639 23.1816 33.5078 23.3741C33.5948 23.3344 33.6817 23.2948 33.7713 23.2539C35.5831 22.4377 38.1808 21.4343 40.195 22.0444C40.6958 22.2695 41.1098 22.7798 41.3087 23.2854C41.3886 23.9358 41.3595 24.5258 40.9541 25.0584C40.5242 25.5246 40.1145 25.7385 39.4738 25.798C39.2988 25.8049 39.2988 25.8049 39.1202 25.8118C38.5379 25.8393 37.9789 25.9089 37.4082 26.0335C37.4777 26.1121 37.5472 26.1907 37.6188 26.2717C39.5715 28.569 40.7304 31.1721 40.7214 34.2332C40.7213 34.3264 40.7213 34.3264 40.7212 34.4215C40.7175 35.4696 40.6289 36.4595 40.3336 37.4688C40.3058 37.5654 40.3058 37.5654 40.2774 37.6639C39.8937 38.9529 39.205 40.8137 38.0696 41.6171C37.7797 41.7589 37.6247 41.728 37.3196 41.6351C37.1534 41.541 37.1534 41.541 37.0537 41.3692C36.9964 40.7764 37.1038 40.4995 37.4581 40.034C38.9952 37.8685 39.513 35.1594 39.1171 32.5413C38.968 31.7293 38.7229 30.9527 38.3833 30.1998C38.315 30.0469 38.315 30.0469 38.2452 29.8909C37.6548 28.642 36.7898 27.6202 35.8126 26.654C34.9254 26.9239 34.2313 27.4814 33.5603 28.1038C33.254 28.3781 33.0349 28.5034 32.6214 28.5156C31.8074 28.342 31.1298 27.7768 30.6712 27.0972C30.447 26.6729 30.259 26.2435 30.4052 25.7675C30.6436 25.4165 30.9198 25.1075 31.203 24.7924C31.2932 24.6754 31.3825 24.5576 31.469 24.4378C28.6949 23.8411 26.0044 24.2699 23.5795 25.7675C23.2076 26.012 22.8586 26.2817 22.5157 26.5653C22.4562 26.6125 22.3967 26.6597 22.3353 26.7084C20.4213 28.2691 19.2638 30.8109 18.9945 33.2301C18.7804 36.1763 19.6283 38.8042 21.5282 41.0628C22.4079 42.0726 23.4686 42.7852 24.6432 43.4081C24.7212 43.45 24.7991 43.4919 24.8794 43.5351C27.0491 44.6133 29.863 44.7159 32.1449 43.9895C33.1609 43.6475 34.1829 43.2029 35.0377 42.5448C35.2745 42.3732 35.4396 42.3923 35.724 42.433C35.9788 42.5659 35.9788 42.5659 36.1672 42.7875C36.2255 43.0887 36.2492 43.2159 36.1672 43.4967C35.2543 44.5401 33.5911 45.1241 32.3056 45.5134C32.2482 45.531 32.1908 45.5486 32.1316 45.5668C31.1249 45.8565 30.1183 45.9187 29.0755 45.9123C28.9635 45.913 28.8516 45.9137 28.7362 45.9144C28.0816 45.913 27.4672 45.8616 26.8247 45.7335C26.5726 45.6866 26.5726 45.6866 26.3275 45.8901C26.0579 45.9076 25.7963 45.9144 25.5266 45.9133C25.4437 45.9136 25.3608 45.9139 25.2753 45.9143C24.9962 45.9152 24.7172 45.9148 24.4381 45.9145C24.2385 45.9149 24.0389 45.9153 23.8392 45.9159C23.2962 45.9171 22.7532 45.9171 22.2102 45.9169C21.7574 45.9168 21.3047 45.9172 20.8519 45.9176C19.7232 45.9187 18.5944 45.9186 17.4657 45.918C16.4848 45.9176 15.5039 45.9186 14.523 45.9203C13.5164 45.922 12.5098 45.9227 11.5031 45.9224C10.9378 45.9222 10.3724 45.9225 9.80704 45.9237C9.2756 45.9248 8.74418 45.9246 8.21274 45.9235C8.0173 45.9233 7.82186 45.9235 7.62642 45.9242C7.36041 45.9252 7.09445 45.9244 6.82844 45.9233C6.75041 45.924 6.67238 45.9246 6.59199 45.9253C6.0751 45.9207 6.0751 45.9207 5.87493 45.7921C5.70494 45.5401 5.72807 45.3338 5.72769 45.0318C5.72725 44.971 5.72681 44.9102 5.72635 44.8475C5.7252 44.6422 5.72595 44.437 5.72669 44.2317C5.72625 44.0836 5.7257 43.9355 5.72505 43.7875C5.72359 43.3794 5.7238 42.9714 5.72428 42.5633C5.72452 42.1237 5.72323 41.6841 5.72215 41.2445C5.72028 40.3828 5.71988 39.5211 5.72004 38.6594C5.72015 37.9593 5.71982 37.2592 5.71916 36.5591C5.71897 36.3577 5.71879 36.1563 5.7186 35.9549C5.71851 35.8547 5.71842 35.7545 5.71832 35.6512C5.71664 33.7542 5.71674 31.8572 5.71734 29.9602C5.71784 28.2233 5.71599 26.4864 5.71306 24.7494C5.71007 22.9676 5.70872 21.1857 5.70913 19.4039C5.70933 18.4028 5.70886 17.4018 5.70666 16.4008C5.7048 15.5487 5.70447 14.6965 5.70615 13.8444C5.70697 13.4093 5.70706 12.9743 5.70523 12.5392C5.70359 12.1413 5.70396 11.7434 5.70599 11.3455C5.70637 11.2012 5.70598 11.0569 5.70479 10.9126C5.70328 10.7171 5.70447 10.5217 5.70637 10.3262C5.70634 10.2174 5.70632 10.1086 5.70629 9.99655C5.76165 9.72262 5.76165 9.72262 5.96781 9.51012C6.27817 9.32411 6.48897 9.32747 6.84929 9.3334C6.93984 9.33416 6.93984 9.33416 7.03223 9.33492C7.22375 9.3369 7.41512 9.34135 7.60659 9.34587C7.73696 9.34765 7.86733 9.34927 7.99771 9.35072C8.31615 9.35461 8.63451 9.36073 8.9529 9.36803C8.92267 9.26322 8.89244 9.1584 8.86129 9.05041C8.50142 7.799 8.14995 6.54535 7.80793 5.28893C7.74701 5.06619 7.68554 4.84359 7.62354 4.62115C7.53262 4.29468 7.44355 3.96775 7.35485 3.64067C7.32698 3.54205 7.2991 3.44342 7.27038 3.3418C7.12623 2.8018 6.99804 2.29 7.17998 1.74448C7.47216 1.34072 7.80363 1.20459 8.27213 1.08345C8.33412 1.06637 8.39611 1.04928 8.45998 1.03169C8.59076 0.996046 8.72175 0.961147 8.85292 0.926953C9.05076 0.875133 9.24765 0.820468 9.44461 0.765395C11.1995 0.287352 11.1995 0.287352 11.7896 0.680731ZM10.018 2.12677C9.89377 2.16276 9.89377 2.16276 9.76699 2.19949C9.63826 2.23754 9.63826 2.23754 9.50694 2.27636C9.37616 2.31441 9.37616 2.31441 9.24273 2.35323C9.0278 2.41583 8.81301 2.47887 8.59832 2.5423C8.85589 3.52748 9.11377 4.51259 9.37211 5.49758C9.48038 5.91039 9.58857 6.32323 9.69648 6.73614C9.78936 7.09155 9.88253 7.44689 9.97592 7.80217C10.0104 7.93371 10.0449 8.06527 10.0792 8.19687C10.1266 8.37876 10.1744 8.56055 10.2223 8.74232C10.2491 8.84442 10.2758 8.94653 10.3034 9.05173C10.3492 9.27141 10.3492 9.27141 10.4599 9.36803C10.6307 9.37579 10.8017 9.37751 10.9727 9.37669C11.0764 9.3764 11.1801 9.37612 11.287 9.37582C11.4507 9.37471 11.4507 9.37471 11.6178 9.37357C11.7273 9.37317 11.8369 9.37277 11.9497 9.37236C12.2214 9.37131 12.493 9.36985 12.7647 9.36803C12.4542 7.96144 12.0695 6.57398 11.6923 5.18422C11.6219 4.92439 11.5517 4.66448 11.4815 4.40458C11.3974 4.09336 11.3132 3.78218 11.229 3.471C11.213 3.41215 11.1971 3.35331 11.1807 3.29268C11.1359 3.12686 11.0909 2.96107 11.0459 2.79529C11.0204 2.70122 10.9949 2.60714 10.9686 2.51021C10.9216 2.34233 10.8696 2.17581 10.8145 2.01042C10.5028 2.01042 10.3106 2.04114 10.018 2.12677ZM7.09134 10.7864C7.09134 12.9511 7.09134 15.1158 7.09134 17.3462C7.85976 17.2929 7.85976 17.2929 8.56023 17.1194C8.64147 17.0924 8.72272 17.0655 8.80643 17.0378C8.9283 16.9957 8.9283 16.9957 9.05263 16.9528C9.63685 16.7552 10.2097 16.5828 10.8145 16.4597C10.7563 15.8177 10.5957 15.2163 10.4263 14.5954C10.3969 14.4862 10.3675 14.377 10.3372 14.2645C10.2596 13.9765 10.1816 13.6885 10.1033 13.4006C10.0234 13.106 9.94394 12.8112 9.86447 12.5163C9.70893 11.9395 9.55251 11.363 9.39613 10.7864C8.63555 10.7864 7.87497 10.7864 7.09134 10.7864ZM10.8145 10.7864C11.2954 12.6837 11.7785 14.579 12.3214 16.4597C12.422 16.4822 12.5226 16.5047 12.6262 16.5279C12.761 16.5587 12.8958 16.5895 13.0306 16.6204C13.0965 16.6351 13.1625 16.6497 13.2304 16.6649C13.5694 16.743 13.8918 16.833 14.2163 16.9594C14.5219 17.0958 14.5219 17.0958 14.8035 17.0802C14.672 16.3592 14.4912 15.6546 14.3018 14.9468C14.2704 14.8291 14.2391 14.7113 14.2078 14.5935C14.1426 14.3488 14.0773 14.104 14.0118 13.8593C13.9277 13.5453 13.8442 13.2311 13.7608 12.9168C13.6964 12.6745 13.6318 12.4324 13.5671 12.1902C13.5361 12.0743 13.5053 11.9583 13.4745 11.8423C13.4318 11.6812 13.3886 11.5202 13.3454 11.3593C13.3087 11.2218 13.3087 11.2218 13.2712 11.0816C13.2273 10.8805 13.2273 10.8805 13.1193 10.7864C12.9485 10.7786 12.7774 10.7769 12.6064 10.7777C12.5027 10.778 12.399 10.7783 12.2922 10.7786C12.183 10.7793 12.0738 10.7801 11.9613 10.7808C11.8518 10.7812 11.7423 10.7816 11.6294 10.782C11.3578 10.7831 11.0861 10.7845 10.8145 10.7864ZM30.4471 13.1995C29.5767 14.3351 29.3231 16.0426 29.2528 17.4348C29.2492 17.5018 29.2455 17.5687 29.2417 17.6377C29.2189 18.4439 29.3465 19.2304 29.7847 19.9169C29.819 19.9706 29.8533 20.0243 29.8886 20.0796C30.2985 20.6318 30.9432 20.9677 31.6068 21.1219C31.8164 21.1517 31.8164 21.1517 32.0895 21.1579C32.0258 20.7653 31.9413 20.4584 31.6285 20.1974C31.3841 20.0501 31.1368 19.9175 30.8817 19.7895C30.7104 19.6994 30.5394 19.6091 30.3685 19.5183C30.2927 19.4798 30.2168 19.4412 30.1387 19.4015C29.962 19.2964 29.962 19.2964 29.8733 19.1191C29.8421 18.5455 29.8421 18.5455 30.0506 18.2326C30.5355 18.071 30.8432 18.2166 31.2917 18.4099C31.2263 17.6594 31.0063 16.9568 30.7988 16.2351C30.5295 15.2712 30.5295 15.2712 30.5825 14.7754C30.7099 14.5538 30.7099 14.5538 30.9371 14.4208C31.2097 14.419 31.4679 14.457 31.7349 14.5095C31.7737 14.6517 31.8125 14.7939 31.8512 14.9361C31.8755 15.0242 31.8997 15.1123 31.9247 15.2031C31.9751 15.3894 32.0241 15.5762 32.0715 15.7633C32.0939 15.8505 32.1163 15.9377 32.1393 16.0276C32.1697 16.1486 32.1697 16.1486 32.2006 16.272C32.2481 16.476 32.2481 16.476 32.4441 16.5484C32.4989 16.4624 32.5538 16.3765 32.6103 16.288C32.7987 16.0165 32.7987 16.0165 32.9759 15.9278C33.2935 15.8933 33.4513 15.8892 33.7184 16.0719C33.9127 16.3559 33.9072 16.4712 33.8624 16.8143C33.6813 17.1846 33.4504 17.526 33.2261 17.8713C32.9537 18.308 32.9537 18.308 32.8873 18.8095C32.9312 18.9628 32.9312 18.9628 32.9759 19.1191C32.9927 19.1843 33.0094 19.2494 33.0267 19.3166C33.0821 19.5307 33.142 19.7431 33.2031 19.9557C33.2238 20.029 33.2446 20.1023 33.2659 20.1778C33.3167 20.3569 33.3679 20.5358 33.4192 20.7147C34.0493 20.4189 34.4874 19.8517 34.7274 19.2036C35.0242 18.1249 34.6602 17.2501 34.1339 16.3136C33.407 15.1324 32.2701 13.6154 30.9371 13.0912C30.5997 13.0542 30.5997 13.0542 30.4471 13.1995ZM9.95017 18.083C9.82451 18.124 9.69881 18.1649 9.57308 18.2056C9.51239 18.2255 9.45169 18.2454 9.38916 18.266C8.62603 18.5138 7.89311 18.6411 7.09134 18.7645C7.09134 26.2533 7.09134 33.7421 7.09134 41.4579C7.53013 41.4871 7.96893 41.5164 8.42103 41.5465C8.77561 41.8124 8.77561 41.8124 8.8227 41.9842C8.82179 42.0445 8.82087 42.1049 8.81993 42.167C8.82085 42.2274 8.82176 42.2877 8.8227 42.3499C8.77561 42.5216 8.77561 42.5216 8.63849 42.6729C8.34292 42.8287 8.0608 42.8376 7.73402 42.8485C7.52193 42.8576 7.30985 42.8668 7.09134 42.8762C7.09134 43.432 7.09134 43.9878 7.09134 44.5605C12.5324 44.5605 17.9735 44.5605 23.5795 44.5605C23.2185 44.2897 22.8466 44.0455 22.4679 43.8004C22.2873 43.6815 22.1332 43.5595 21.9738 43.4122C21.3987 42.8932 20.9983 42.7741 20.2343 42.7918C20.1343 42.7912 20.0343 42.7907 19.9313 42.7901C19.6035 42.7891 19.2759 42.793 18.9481 42.7969C18.7194 42.7969 18.4908 42.7966 18.2621 42.7959C17.7234 42.795 17.1848 42.797 16.646 42.8007C15.6226 42.8075 14.5991 42.8081 13.5756 42.8075C13.2394 42.808 12.9032 42.8104 12.5669 42.813C12.3619 42.8136 12.1569 42.8141 11.9518 42.8146C11.858 42.8159 11.7642 42.8171 11.6676 42.8184C11.582 42.8183 11.4964 42.8182 11.4082 42.8181C11.3337 42.8186 11.2593 42.8191 11.1826 42.8197C10.9452 42.7797 10.8696 42.7117 10.7258 42.5216C10.6477 42.2392 10.6113 42.0635 10.7092 41.7847C10.8145 41.6351 10.8145 41.6351 10.9918 41.5465C11.1119 41.5374 11.2325 41.5335 11.353 41.5325C11.4663 41.5312 11.4663 41.5312 11.582 41.5298C11.6651 41.5293 11.7482 41.5288 11.8338 41.5283C11.9211 41.5274 12.0085 41.5265 12.0985 41.5256C12.3882 41.5228 12.6779 41.5206 12.9676 41.5185C13.1681 41.5166 13.3686 41.5148 13.569 41.5129C14.0975 41.508 14.6259 41.5036 15.1543 41.4993C15.6932 41.4949 16.2321 41.4899 16.7711 41.485C17.829 41.4755 18.887 41.4665 19.945 41.4579C19.8907 41.3768 19.8907 41.3768 19.8353 41.2941C19.7876 41.2228 19.7399 41.1515 19.6908 41.0781C19.6437 41.0076 19.5965 40.9371 19.5479 40.8644C18.9863 40.0126 18.5513 39.1232 18.1721 38.178C18.1004 38.1821 18.0288 38.1862 17.955 38.1904C17.8602 38.1936 17.7655 38.1968 17.6679 38.2001C17.5743 38.2042 17.4807 38.2083 17.3843 38.2126C17.0335 38.1686 16.9159 38.0705 16.6651 37.8234C16.5464 37.5389 16.5464 37.5389 16.4567 37.1986C16.4399 37.1366 16.4231 37.0747 16.4058 37.0109C16.3508 36.8068 16.2981 36.6021 16.2454 36.3974C16.207 36.253 16.1684 36.1085 16.1296 35.9642C16.0499 35.6661 15.9711 35.3678 15.8931 35.0693C15.788 34.667 15.6807 34.2654 15.5724 33.864C15.3842 33.165 15.1982 32.4654 15.0125 31.7657C14.8605 31.1931 14.7081 30.6207 14.5557 30.0482C14.5159 29.8986 14.4761 29.7491 14.4363 29.5995C13.8877 27.538 13.3342 25.4779 12.7809 23.4177C12.7026 23.1262 12.6244 22.8347 12.5461 22.5431C12.4898 22.3337 12.4335 22.1242 12.3773 21.9148C12.1986 21.2499 12.0208 20.5847 11.8445 19.9192C11.8112 19.7937 11.7779 19.6682 11.7446 19.5427C11.6828 19.3099 11.6213 19.077 11.56 18.844C11.533 18.7422 11.506 18.6403 11.4782 18.5354C11.4547 18.4464 11.4313 18.3575 11.4071 18.2659C11.3535 18.0563 11.3535 18.0563 11.2577 17.878C10.783 17.8553 10.3952 17.9306 9.95017 18.083ZM18.438 18.3213C18.2615 18.3754 18.0842 18.4274 17.9061 18.4764C17.8019 18.5059 17.8019 18.5059 17.6956 18.536C17.3835 18.6047 17.0711 18.6375 16.7537 18.6759C17.003 19.7632 17.2767 20.8427 17.5633 21.9208C17.6061 22.0823 17.6489 22.2438 17.6917 22.4054C17.7805 22.7406 17.8695 23.0757 17.9586 23.4108C18.0725 23.8394 18.186 24.2682 18.2995 24.6969C18.3875 25.029 18.4756 25.3611 18.5637 25.6932C18.6057 25.8513 18.6476 26.0095 18.6895 26.1677C18.7478 26.388 18.8064 26.6083 18.865 26.8286C18.8821 26.8931 18.8991 26.9576 18.9167 27.0241C19.0112 27.3781 19.1161 27.726 19.2358 28.0723C19.2864 28.0089 19.3371 27.9455 19.3892 27.8801C19.719 27.4687 20.0527 27.0607 20.3882 26.654C20.4395 26.5903 20.4908 26.5267 20.5437 26.4611C20.9671 25.9521 21.4613 25.551 21.9839 25.147C22.099 25.0563 22.099 25.0563 22.2165 24.9638C22.6654 24.6225 23.1288 24.3292 23.6238 24.0611C23.6753 24.033 23.7267 24.0049 23.7797 23.9759C24.2662 23.7208 24.734 23.5667 25.2638 23.3741C25.2638 21.8529 25.2638 20.3318 25.2638 18.7645C25.0221 18.6437 24.802 18.646 24.5324 18.6204C24.0155 18.5641 23.5545 18.4383 23.065 18.2641C21.4454 17.6889 20.0358 17.7219 18.438 18.3213ZM12.7647 17.9667C13.0281 19.1228 13.3247 20.2685 13.6314 21.4138C13.6815 21.6017 13.7316 21.7895 13.7817 21.9774C13.9153 22.4782 14.0492 22.9789 14.1832 23.4796C14.2943 23.8949 14.4052 24.3102 14.5161 24.7255C15.493 28.3837 16.4758 32.0404 17.4629 35.6959C17.4922 35.6959 17.5214 35.6959 17.5516 35.6959C17.5502 35.6353 17.5488 35.5748 17.5473 35.5124C17.5129 33.7768 17.5696 32.1633 18.1818 30.5257C18.3836 29.6928 18.0318 28.8154 17.813 28.01C17.7762 27.8728 17.7395 27.7356 17.7028 27.5984C17.5848 27.1578 17.4657 26.7175 17.3466 26.2772C17.2039 25.7498 17.0614 25.2222 16.919 24.6947C16.8785 24.5446 16.838 24.3945 16.7974 24.2445C16.5452 23.3108 16.302 22.376 16.073 21.4363C16.0048 21.1617 15.9365 20.8872 15.8681 20.6127C15.8272 20.4454 15.7875 20.2778 15.7491 20.1099C15.6019 19.2845 15.6019 19.2845 15.1582 18.6186C14.9474 18.5453 14.7593 18.5203 14.5376 18.4986C14.3962 18.4546 14.2559 18.4071 14.1169 18.3562C14.0483 18.3331 13.9796 18.31 13.9089 18.2861C13.7678 18.2385 13.6268 18.1907 13.4858 18.1428C13.418 18.12 13.3502 18.0972 13.2803 18.0737C13.2194 18.0531 13.1586 18.0325 13.0959 18.0113C12.9403 17.9585 12.9403 17.9585 12.7647 17.9667ZM31.9122 26.2994C32.0877 26.5042 32.2632 26.7089 32.4441 26.9199C32.8091 26.7947 33.064 26.6179 33.3638 26.377C35.0592 25.0698 37.1529 24.4445 39.2795 24.3852C39.5634 24.3453 39.6882 24.2839 39.8903 24.0833C39.942 23.8616 39.942 23.8616 39.8903 23.64C39.7457 23.4456 39.6657 23.3814 39.4249 23.3388C36.63 23.3626 33.9665 24.4062 31.9122 26.2994Z" fill="black"/>
<path d="M34.3943 33.6574C34.6204 33.8544 34.6543 33.9773 34.7046 34.2724C34.6437 34.6454 34.5208 34.7673 34.217 34.9871C33.9012 35.0425 33.9012 35.0425 33.5965 34.9871C33.3331 34.7575 33.2525 34.6183 33.2031 34.2724C33.246 33.9845 33.3034 33.8618 33.5078 33.6574C33.8442 33.5453 34.0507 33.5777 34.3943 33.6574Z" fill="black"/>
<path d="M36.6094 36.9363C36.8594 37.1459 36.8735 37.2756 36.9141 37.6011C36.8754 37.9114 36.8754 37.9114 36.7369 38.1275C36.4336 38.3218 36.254 38.3218 35.9003 38.266C35.6343 38.0831 35.6343 38.0831 35.457 37.8227C35.457 37.4985 35.4736 37.2962 35.6731 37.036C36.0016 36.7995 36.2192 36.8473 36.6094 36.9363Z" fill="black"/>
<path d="M33.6847 39.507C33.8564 39.6566 33.8564 39.6566 33.9506 39.8615C33.94 40.1627 33.9135 40.3881 33.7678 40.6538C33.4839 40.8095 33.1974 40.803 32.8868 40.748C32.6652 40.6095 32.6652 40.6095 32.5323 40.3934C32.4879 40.0832 32.4879 40.0832 32.5323 39.7729C32.881 39.3159 33.1703 39.2819 33.6847 39.507Z" fill="black"/>
</g>
<defs>
<clipPath id="clip0_358_1139">
<rect width="45.3867" height="45.3867" fill="white" transform="translate(0.796875 0.50293)"/>
</clipPath>
</defs>
</svg>
