<svg width="47" height="46" viewBox="0 0 47 46" fill="none" xmlns="http://www.w3.org/2000/svg">
<g clip-path="url(#clip0_358_1144)">
<path d="M14.9753 5.44104C15.0789 5.44054 15.1825 5.44005 15.2892 5.43953C15.6251 5.43848 15.9608 5.43904 16.2966 5.44C16.4124 5.44016 16.5282 5.44032 16.6475 5.44049C20.9708 5.44885 25.2983 5.81792 29.5492 6.6201C29.6544 6.63984 29.7595 6.65958 29.8679 6.67992C33.0422 7.28507 36.2134 8.11237 39.123 9.54541C39.1935 9.57965 39.264 9.61389 39.3367 9.64917C40.8477 10.3888 42.1739 11.2952 43.378 12.4707C43.4487 12.536 43.5194 12.6012 43.5923 12.6685C44.7603 13.7721 45.6451 15.3437 46.0373 16.903C46.0521 16.9597 46.0668 17.0163 46.0819 17.0747C46.2822 17.9817 46.2438 18.9103 46.2444 19.8339C46.245 20.0252 46.2456 20.2165 46.2462 20.4079C46.2473 20.8081 46.2476 21.2084 46.2475 21.6087C46.2475 22.117 46.2499 22.6252 46.2529 23.1335C46.2549 23.5287 46.2553 23.9239 46.2552 24.3191C46.2554 24.5063 46.2562 24.6934 46.2575 24.8805C46.2762 27.6563 45.5149 30.0932 43.7326 32.2388C43.6733 32.3117 43.6139 32.3846 43.5528 32.4597C43.1063 32.9875 42.5964 33.4152 42.0483 33.8344C41.9781 33.8882 41.908 33.942 41.8357 33.9975C40.1187 35.2553 38.0874 35.9105 35.9632 35.9969C35.8317 36.0027 35.7003 36.0086 35.5688 36.0146C35.5006 36.0177 35.4323 36.0208 35.362 36.024C31.6248 36.2001 28.3468 37.2233 24.9053 38.6284C19.3002 40.916 19.3002 40.916 16.4206 40.9472C16.3541 40.9481 16.2875 40.9489 16.2189 40.9498C14.7508 40.965 13.3374 40.9536 11.9087 40.5715C11.8441 40.5544 11.7795 40.5373 11.7129 40.5198C11.2983 40.4067 10.8947 40.2736 10.4903 40.1283C10.4073 40.0985 10.4073 40.0985 10.3227 40.0681C8.05499 39.2412 5.91931 37.8252 4.37377 35.9619C4.31183 35.89 4.2499 35.8181 4.18609 35.7441C2.14396 33.331 0.821423 30.1738 0.81224 26.9931C0.811658 26.9044 0.811075 26.8158 0.810475 26.7246C0.808733 26.4322 0.807693 26.1399 0.806808 25.8476C0.806447 25.7469 0.806086 25.6463 0.805714 25.5426C0.803867 25.0087 0.802598 24.4747 0.801766 23.9408C0.800791 23.3946 0.797747 22.8484 0.794215 22.3021C0.791874 21.8778 0.791154 21.4535 0.790838 21.0291C0.790411 20.8281 0.789395 20.6271 0.787731 20.4261C0.773483 18.5891 1.00285 16.8626 1.62574 15.1301C1.64561 15.0748 1.66548 15.0194 1.68595 14.9624C2.51284 12.6948 3.92875 10.5591 5.7921 9.01354C5.86398 8.9516 5.93585 8.88967 6.00991 8.82586C8.4948 6.72298 11.7079 5.43872 14.9753 5.44104ZM10.0471 8.48166C9.96392 8.51857 9.88073 8.55548 9.79502 8.59351C8.63781 9.13634 7.59255 9.8969 6.67856 10.7865C6.58673 10.8718 6.49485 10.9571 6.40293 11.0424C5.3999 11.9896 4.62963 13.0952 4.01918 14.3323C3.97485 14.4211 3.93051 14.5099 3.88483 14.6013C3.04787 16.3408 2.66895 18.1183 2.66733 20.0389C2.66727 20.1026 2.66721 20.1662 2.66715 20.2319C2.66858 21.1882 2.71321 22.0898 2.95543 23.0196C2.97017 23.0794 2.98491 23.1391 3.0001 23.2007C3.49757 25.1943 4.45663 26.9576 5.7921 28.5156C5.86958 28.6092 5.86958 28.6092 5.94862 28.7047C6.30661 29.1288 6.6918 29.495 7.12179 29.8453C7.20578 29.9139 7.28977 29.9825 7.3763 30.0531C9.29134 31.5863 11.5838 32.6033 14.0362 32.8593C14.1444 32.8712 14.2526 32.8831 14.3641 32.8953C17.9818 33.2309 21.3363 31.8915 24.6037 30.5225C25.7203 30.0558 26.838 29.6103 27.9861 29.2265C28.0811 29.1948 28.176 29.163 28.2738 29.1303C30.7606 28.3183 33.3085 27.9835 35.9151 27.9727C35.9993 27.9723 36.0835 27.9718 36.1703 27.9714C36.2494 27.9716 36.3284 27.9718 36.4099 27.972C36.4802 27.9721 36.5504 27.9722 36.6228 27.9723C36.821 27.9839 36.9861 28.0042 37.1728 28.0724C37.3752 28.4773 37.3661 28.7899 37.2614 29.2248C37.1445 29.4363 37.0786 29.5505 36.8481 29.6305C36.5691 29.681 36.2951 29.6912 36.0117 29.703C35.8838 29.7088 35.756 29.7148 35.6281 29.7208C35.5276 29.7254 35.5276 29.7254 35.425 29.7301C33.2902 29.8322 31.2422 30.1003 29.1946 30.7318C29.1257 30.7521 29.0568 30.7725 28.9858 30.7935C27.5253 31.2264 26.1302 31.8386 24.7246 32.4202C19.9374 34.401 14.9613 35.6674 9.94045 33.6637C8.38117 33.0073 6.96159 32.1612 5.72389 31.0043C5.54287 30.836 5.35645 30.6787 5.16604 30.5213C4.21169 29.6876 3.42417 28.5355 2.77814 27.4519C2.42872 28.1507 3.08431 29.7486 3.31002 30.4659C3.92745 32.261 4.93135 33.787 6.23533 35.1641C6.30355 35.237 6.37177 35.3099 6.44206 35.385C8.57584 37.5981 11.6322 39.0036 14.7138 39.0943C14.9552 39.0979 15.1965 39.0985 15.4379 39.0977C15.5335 39.0976 15.5335 39.0976 15.631 39.0974C18.6347 39.0838 21.3083 38.0711 24.0597 36.9508C27.5297 35.5382 30.9042 34.3595 34.685 34.2089C36.4706 34.1341 38.0453 33.9482 39.6548 33.1252C39.7516 33.0758 39.8484 33.0263 39.9481 32.9753C40.5783 32.6293 41.0918 32.2078 41.6051 31.7069C41.6818 31.6338 41.7586 31.5606 41.8377 31.4853C41.942 31.3756 41.942 31.3756 42.0483 31.2637C42.0997 31.2118 42.1511 31.1599 42.2041 31.1065C43.7488 29.4769 44.3525 27.345 44.4417 25.1471C44.1505 25.4342 43.8711 25.7277 43.5996 26.0336C42.7403 26.9929 42.7403 26.9929 42.2422 27.0419C41.9418 27.0364 41.8695 27.0077 41.6051 26.8314C41.4243 26.5602 41.3516 26.3768 41.3737 26.0484C41.5064 25.5764 41.8905 25.2255 42.2193 24.8773C43.1251 23.908 43.6952 22.7715 44.0871 21.5126C44.1173 21.4178 44.1475 21.3229 44.1786 21.2252C44.7038 19.236 44.394 17.1404 43.3817 15.372C43.1511 14.9894 42.8831 14.6595 42.5802 14.3323C42.5211 14.2671 42.5211 14.2671 42.4609 14.2006C37.6893 8.97785 28.8014 8.10663 22.1584 7.53426C22.0653 7.52618 22.0653 7.52618 21.9704 7.51794C21.542 7.48115 21.1135 7.44795 20.6846 7.41791C20.6227 7.41356 20.5607 7.4092 20.4968 7.40472C19.2771 7.32235 18.0574 7.30992 16.8351 7.30797C16.5071 7.3071 16.179 7.30434 15.851 7.30156C13.7661 7.29223 11.9563 7.61359 10.0471 8.48166Z" fill="black"/>
<path d="M15.2492 8.99535C15.3571 8.99485 15.4649 8.99434 15.576 8.99382C15.8034 8.99299 16.0308 8.99241 16.2582 8.99206C16.6054 8.9912 16.9526 8.98845 17.2999 8.98566C17.5212 8.98508 17.7426 8.98461 17.964 8.98427C18.1192 8.98263 18.1192 8.98263 18.2775 8.98096C18.8217 8.98244 19.2342 9.0023 19.7092 9.2793C19.9289 9.58135 19.9752 9.7536 19.9752 10.127C19.8618 10.5168 19.7751 10.6362 19.4433 10.8749C19.0699 10.94 18.7002 10.9325 18.3221 10.9283C18.2117 10.929 18.1014 10.9297 17.9877 10.9304C17.6941 10.9321 17.4006 10.9321 17.107 10.931C15.0183 10.8816 15.0183 10.8816 12.9721 11.2295C12.903 11.2489 12.8338 11.2683 12.7626 11.2883C10.4394 12.0013 8.58516 13.5648 7.38745 15.6618C6.28725 17.7427 5.92445 20.2813 6.5609 22.57C7.34202 25.076 8.99842 27.0932 11.3166 28.3164C13.5765 29.4041 15.9295 29.5036 18.3463 28.9421C18.4126 28.9269 18.479 28.9116 18.5473 28.896C20.1214 28.5011 21.6305 27.8448 23.1276 27.2301C27.1727 25.5721 31.114 24.455 35.5104 24.3048C37.0613 24.2476 38.3989 23.7243 39.4773 22.5762C40.5125 21.4061 40.8257 20.0368 40.7378 18.5104C40.6966 18.1102 40.5653 17.7791 40.3637 17.4347C40.3125 17.3451 40.2613 17.2555 40.2086 17.1632C40.1428 17.0773 40.077 16.9914 40.0092 16.9028C39.9641 16.844 39.9191 16.7851 39.8727 16.7245C37.0121 13.2371 30.9891 12.3607 26.7625 11.7334C26.6589 11.7175 26.5552 11.7016 26.4484 11.6852C26.3578 11.672 26.2673 11.6588 26.1739 11.6451C25.8081 11.5591 25.4968 11.4209 25.2164 11.1686C25.0693 10.8663 25.0566 10.5798 25.1166 10.2544C25.2756 10.0053 25.3842 9.85466 25.6485 9.72253C26.4865 9.65298 27.2993 9.79765 28.1195 9.94968C28.1847 9.96151 28.2499 9.97334 28.3171 9.98553C32.8701 10.8126 39.019 11.987 41.8617 16.0815C42.7475 17.4943 42.9033 19.1359 42.577 20.7588C42.2942 21.9315 41.7091 23.0193 40.8956 23.9059C40.8073 24.0063 40.8073 24.0063 40.7173 24.1088C39.2592 25.6774 37.3332 26.1949 35.2631 26.2795C33.1428 26.3693 31.068 26.6231 29.0171 27.1858C28.9411 27.2062 28.8651 27.2265 28.7868 27.2475C26.9782 27.74 25.2553 28.4697 23.522 29.1745C19.5061 30.8066 15.326 32.1639 11.0995 30.3936C8.31257 29.1673 6.11567 26.9031 4.99557 24.0684C3.92088 21.1797 4.1764 18.0331 5.40088 15.2532C6.59683 12.7206 8.80692 10.6748 11.4246 9.68132C12.6907 9.22957 13.9076 9.00024 15.2492 8.99535Z" fill="black"/>
<path d="M19.503 13.6454C20.0044 14.118 20.3388 14.5802 20.5962 15.2182C20.6279 15.295 20.6597 15.3718 20.6924 15.4509C21.057 16.3981 20.8633 17.4033 20.5075 18.3208C19.8872 19.5006 18.8742 20.165 17.6504 20.6087C16.4839 20.9358 15.1279 20.7581 14.0533 20.2395C13.0441 19.6665 12.235 18.8436 11.8642 17.7197C11.6068 16.5685 11.7573 15.5108 12.3736 14.507C13.1284 13.428 14.1592 12.7734 15.4488 12.5259C16.9192 12.3074 18.3687 12.6855 19.503 13.6454ZM14.2303 15.1573C13.8112 15.605 13.6139 16.1127 13.5931 16.7252C13.6955 17.3892 13.9632 17.8889 14.4796 18.3208C15.3197 18.8404 16.1616 19.0057 17.1404 18.7952C17.8444 18.5651 18.4111 18.1872 18.7734 17.5286C19.0241 16.9464 19.0622 16.4578 18.8361 15.8599C18.5616 15.3231 18.1177 14.8705 17.5822 14.5977C16.3747 14.2223 15.1931 14.2589 14.2303 15.1573Z" fill="black"/>
<path d="M22.1916 9.27895C22.4977 9.51022 22.616 9.65718 22.7235 10.0269C22.7235 10.3898 22.6544 10.5724 22.4576 10.8746C22.099 11.1137 21.8147 11.1096 21.3938 11.0519C21.0617 10.8823 20.9287 10.7045 20.8121 10.3593C20.7566 10.0764 20.7775 9.90279 20.9063 9.64462C21.0563 9.42407 21.1369 9.36291 21.3828 9.23463C21.6954 9.1846 21.8893 9.18245 22.1916 9.27895Z" fill="black"/>
<path d="M40.4525 26.8311C40.7129 27.0472 40.7129 27.0472 40.8957 27.2743C40.925 27.3036 40.9542 27.3328 40.9843 27.363C41.0236 28.161 41.0236 28.161 40.8071 28.4267C40.5059 28.6299 40.3242 28.6927 39.9594 28.6927C39.5897 28.5851 39.4427 28.4669 39.2114 28.1608C39.1201 27.8685 39.1074 27.6933 39.1782 27.3962C39.4737 26.8858 39.8812 26.6926 40.4525 26.8311Z" fill="black"/>
</g>
<defs>
<clipPath id="clip0_358_1144">
<rect width="45.3867" height="45.3867" fill="white" transform="translate(0.828125 0.50293)"/>
</clipPath>
</defs>
</svg>
