<svg width="47" height="46" viewBox="0 0 47 46" fill="none" xmlns="http://www.w3.org/2000/svg">
<g clip-path="url(#clip0_358_1153)">
<path d="M25.1036 0.641466C25.6912 1.00259 25.9817 1.46657 26.1668 2.12061C26.242 2.52954 26.1822 2.90026 26.1119 3.30638C26.1003 3.38352 26.0886 3.46065 26.0766 3.54012C25.9625 4.27411 25.8187 5.00345 25.6798 5.73307C25.7326 5.73247 25.7855 5.73188 25.8399 5.73128C26.3921 5.72537 26.9444 5.72137 27.4966 5.71846C27.7025 5.71712 27.9083 5.71531 28.1141 5.713C28.4107 5.70976 28.7073 5.70826 29.004 5.7071C29.0953 5.70572 29.1867 5.70435 29.2808 5.70294C30.0402 5.70276 30.6387 5.84562 31.2108 6.37055C31.6516 6.86718 31.8557 7.39898 31.9072 8.05448C31.8504 8.91975 31.5574 9.49546 30.9099 10.0767C30.6081 10.2646 30.4642 10.3427 30.1121 10.3427C30.2066 10.4943 30.3012 10.6459 30.3958 10.7975C30.4768 10.9272 30.5576 11.0569 30.6384 11.1867C30.8703 11.5585 31.1069 11.9266 31.3476 12.2929C31.8053 13.0112 31.9864 13.6996 31.9823 14.5526C31.982 14.6589 31.9817 14.7652 31.9814 14.8747C31.9807 14.9844 31.9799 15.0941 31.9792 15.2071C31.9788 15.3189 31.9784 15.4306 31.978 15.5458C31.9769 15.8207 31.9755 16.0956 31.9736 16.3706C32.0244 16.37 32.0751 16.3694 32.1274 16.3688C32.661 16.3629 33.1946 16.3589 33.7283 16.356C33.9268 16.3546 34.1253 16.3528 34.3238 16.3505C36.1058 16.3302 37.6511 16.3847 39.0154 17.6836C39.9673 18.705 40.4042 19.8874 40.4074 21.2774C40.4078 21.3714 40.4078 21.3714 40.4082 21.4672C40.409 21.6756 40.4091 21.8839 40.4093 22.0922C40.4097 22.2423 40.4101 22.3923 40.4106 22.5424C40.4118 22.949 40.4123 23.3556 40.4127 23.7623C40.413 24.0168 40.4134 24.2713 40.4138 24.5259C40.415 25.3237 40.4158 26.1215 40.4162 26.9193C40.4166 27.8376 40.4181 28.7559 40.4207 29.6742C40.4226 30.3857 40.4235 31.0972 40.4236 31.8088C40.4237 32.2329 40.4242 32.657 40.4258 33.0812C40.4273 33.4807 40.4275 33.8802 40.4267 34.2798C40.4266 34.4255 40.427 34.5712 40.4279 34.7169C40.4376 36.4108 40.1589 37.8504 38.9386 39.1162C38.1579 39.8482 37.151 40.3174 36.071 40.315C35.9681 40.315 35.8652 40.315 35.7592 40.315C35.5932 40.3143 35.5932 40.3143 35.4239 40.3136C35.2535 40.3134 35.2535 40.3134 35.0796 40.3132C34.7782 40.3129 34.4769 40.312 34.1755 40.3111C33.8677 40.3102 33.5599 40.3097 33.2521 40.3093C32.6486 40.3083 32.0452 40.3068 31.4418 40.305C31.4147 40.3745 31.3877 40.444 31.3599 40.5155C30.9674 41.4724 30.1187 42.0594 29.228 42.5066C28.9311 42.6208 28.6547 42.6645 28.3392 42.6984C28.341 42.7538 28.3429 42.8091 28.3448 42.8662C28.3522 43.1205 28.3568 43.3748 28.3613 43.6292C28.3658 43.7598 28.3658 43.7598 28.3703 43.8931C28.3779 44.4619 28.3385 44.8992 27.9846 45.3578C27.4142 45.8758 26.9088 45.9666 26.1579 45.9557C26.0081 45.9566 26.0081 45.9566 25.8553 45.9576C25.5275 45.9591 25.1998 45.9567 24.8719 45.9541C24.6434 45.954 24.4148 45.9541 24.1863 45.9543C23.7084 45.9543 23.2306 45.9525 22.7527 45.9493C22.2006 45.9455 21.6486 45.9449 21.0966 45.946C20.5642 45.947 20.0319 45.946 19.4996 45.944C19.2735 45.9433 19.0474 45.9431 18.8213 45.9434C18.5059 45.9435 18.1907 45.9412 17.8754 45.9384C17.7349 45.939 17.7349 45.939 17.5917 45.9397C16.9635 45.9305 16.9635 45.9305 16.6686 45.7287C16.4917 45.4417 16.5021 45.2443 16.5492 44.9146C16.6698 44.7209 16.6698 44.7209 16.9038 44.56C17.2205 44.5055 17.5348 44.51 17.8555 44.5116C17.9524 44.5107 18.0492 44.5098 18.1491 44.5088C18.4695 44.5062 18.7899 44.5061 19.1103 44.506C19.3324 44.5046 19.5545 44.5031 19.7765 44.5015C20.3015 44.498 20.8264 44.4961 21.3513 44.495C22.0076 44.4934 22.6639 44.4894 23.3203 44.4855C24.4909 44.4788 25.6615 44.4744 26.8322 44.4713C26.8614 43.9155 26.8907 43.3597 26.9208 42.7871C21.9185 42.7871 16.9162 42.7871 11.7624 42.7871C11.8062 43.533 11.8062 43.533 11.851 44.294C12.1563 44.4976 12.2751 44.4935 12.6346 44.4956C12.7362 44.4974 12.8377 44.4992 12.9423 44.5011C13.1563 44.5034 13.3703 44.505 13.5843 44.506C13.6859 44.508 13.7876 44.5101 13.8923 44.5122C13.9853 44.5129 14.0783 44.5136 14.1741 44.5144C14.4832 44.5713 14.5882 44.6666 14.7763 44.9146C14.8249 45.2548 14.841 45.4454 14.6369 45.7286C14.3416 45.9496 14.1387 45.9368 13.7721 45.9399C13.7094 45.9404 13.6466 45.941 13.582 45.9415C13.4494 45.9422 13.3167 45.9419 13.1841 45.9408C12.983 45.9395 12.7823 45.9425 12.5813 45.9459C11.8989 45.9497 11.306 45.9471 10.7873 45.4464C10.2848 44.9273 10.3113 44.2523 10.3163 43.5738C10.322 43.2818 10.3309 42.9902 10.344 42.6984C10.2523 42.6884 10.1605 42.6783 10.066 42.6679C9.0568 42.4965 8.21241 41.8414 7.59289 41.0495C6.88861 40.0117 6.69609 38.9459 6.6971 37.717C6.69683 37.6166 6.69657 37.5163 6.6963 37.4129C6.69553 37.0765 6.69539 36.7401 6.69526 36.4036C6.6949 36.1625 6.69441 35.9214 6.69393 35.6802C6.69273 35.0249 6.69219 34.3695 6.6918 33.7142C6.69155 33.3047 6.69118 32.8952 6.69078 32.4856C6.6897 31.3509 6.68879 30.2162 6.68849 29.0814C6.68847 29.0088 6.68845 28.9363 6.68843 28.8615C6.68841 28.7887 6.68839 28.716 6.68837 28.641C6.68833 28.4936 6.68829 28.3462 6.68825 28.1988C6.68823 28.1257 6.68821 28.0525 6.68819 27.9772C6.68784 26.7931 6.68629 25.609 6.68423 24.4249C6.68212 23.208 6.68102 21.9911 6.68092 20.7742C6.68084 20.0914 6.68033 19.4086 6.67872 18.7259C6.67735 18.1444 6.6769 17.5628 6.67763 16.9813C6.67798 16.6849 6.67776 16.3886 6.67665 16.0922C6.67552 15.77 6.67605 15.4479 6.67697 15.1257C6.67625 15.0333 6.67554 14.9408 6.6748 14.8456C6.68594 13.1747 7.47027 12.0035 8.38179 10.6725C8.48704 10.5196 8.48704 10.5196 8.57111 10.3427C8.50895 10.3353 8.44678 10.328 8.38274 10.3205C7.73011 10.1502 7.34719 9.67305 6.99764 9.12377C6.74943 8.47841 6.7277 7.80041 6.97548 7.1514C7.29924 6.52142 7.70344 6.07243 8.37009 5.81787C8.66526 5.73145 8.9017 5.70999 9.20833 5.70838C9.31646 5.70739 9.4246 5.7064 9.53602 5.70538C9.65465 5.70517 9.77329 5.70498 9.89193 5.7048C10.0178 5.70398 10.1436 5.70307 10.2694 5.7021C10.6101 5.69969 10.9507 5.69834 11.2913 5.69719C11.6477 5.6958 12.004 5.69343 12.3603 5.69116C13.0347 5.68701 13.709 5.68376 14.3834 5.68082C15.1513 5.67742 15.9192 5.67305 16.6871 5.66858C18.2663 5.65943 19.8455 5.65152 21.4248 5.64442C21.4412 5.53896 21.4577 5.43351 21.4747 5.32485C21.5368 4.92975 21.6009 4.53499 21.6655 4.1403C21.6931 3.97016 21.7202 3.79994 21.7467 3.62963C22.0923 1.41682 22.0923 1.41682 22.8542 0.807677C23.4747 0.38154 24.4153 0.328734 25.1036 0.641466ZM23.6299 2.05792C23.4146 2.34013 23.3662 2.612 23.3127 2.95422C23.3013 3.01957 23.29 3.08491 23.2784 3.15224C23.2548 3.29004 23.2319 3.42796 23.2096 3.56598C23.1757 3.77652 23.1398 3.98667 23.1035 4.19682C23.0808 4.3311 23.0581 4.4654 23.0356 4.59971C23.0251 4.66224 23.0146 4.72477 23.0037 4.78919C22.9518 5.11248 22.9318 5.40297 22.9318 5.73307C23.3705 5.73307 23.8093 5.73307 24.2614 5.73307C24.3442 5.27442 24.4247 4.81547 24.5033 4.35609C24.5303 4.19993 24.5579 4.04387 24.5861 3.88793C24.6266 3.6635 24.665 3.4388 24.7029 3.21393C24.7159 3.14447 24.729 3.07502 24.7424 3.00346C24.7947 2.68141 24.8101 2.48946 24.6715 2.18954C24.5414 2.02078 24.5414 2.02078 24.4387 1.92129C24.007 1.87585 24.007 1.87585 23.6299 2.05792ZM8.48246 7.41734C8.27292 7.76883 8.20554 7.95684 8.26085 8.36474C8.40969 8.69342 8.53247 8.82441 8.83705 9.01296C9.07947 9.08823 9.29745 9.1128 9.55056 9.11326C9.6216 9.1136 9.69263 9.11394 9.76582 9.11429C9.88212 9.11418 9.88212 9.11418 10.0008 9.11406C10.0835 9.11432 10.1663 9.11459 10.2516 9.11486C10.5295 9.11563 10.8075 9.11576 11.0855 9.11589C11.2845 9.1163 11.4836 9.11675 11.6826 9.11723C12.2239 9.11839 12.7651 9.11896 13.3063 9.11936C13.6443 9.11962 13.9824 9.11998 14.3204 9.12038C15.2566 9.12145 16.1928 9.12237 17.1289 9.12267C17.2188 9.1227 17.2188 9.1227 17.3104 9.12273C17.4005 9.12276 17.4005 9.12276 17.4924 9.12279C17.614 9.12283 17.7357 9.12287 17.8574 9.12291C17.9177 9.12292 17.978 9.12294 18.0402 9.12296C19.018 9.12331 19.9958 9.12486 20.9736 9.12693C21.9778 9.12903 22.982 9.13011 23.9862 9.13024C24.5499 9.13033 25.1136 9.13085 25.6773 9.13244C26.2075 9.1339 26.7377 9.13409 27.2679 9.13331C27.4625 9.13324 27.6571 9.13363 27.8516 9.1345C28.1173 9.13563 28.383 9.13511 28.6487 9.13419C28.7256 9.1349 28.8025 9.13562 28.8818 9.13635C29.3582 9.13247 29.6904 9.06273 30.1121 8.83567C30.3812 8.53958 30.4651 8.38967 30.4722 7.988C30.3615 7.62972 30.2209 7.4773 29.9348 7.24005C29.6311 7.08821 29.2825 7.13863 28.9483 7.13895C28.8634 7.13869 28.7785 7.13842 28.691 7.13815C28.4047 7.13738 28.1184 7.13725 27.8321 7.13712C27.6276 7.13671 27.423 7.13626 27.2185 7.13578C26.6615 7.13462 26.1045 7.13405 25.5476 7.13365C25.1999 7.13339 24.8522 7.13303 24.5045 7.13263C23.5422 7.13156 22.5798 7.13064 21.6175 7.13034C21.5559 7.13032 21.4943 7.1303 21.4308 7.13028C21.369 7.13026 21.3073 7.13024 21.2436 7.13022C21.1185 7.13018 20.9933 7.13014 20.8682 7.1301C20.8061 7.13008 20.744 7.13006 20.68 7.13004C19.674 7.12969 18.668 7.12815 17.662 7.12608C16.6296 7.12398 15.5971 7.1229 14.5646 7.12277C13.9848 7.12268 13.4049 7.12215 12.8251 7.12057C12.2798 7.11912 11.7345 7.11892 11.1891 7.1197C10.9887 7.11977 10.7884 7.11938 10.588 7.11851C10.3149 7.11738 10.0418 7.1179 9.76866 7.11882C9.68901 7.11811 9.60937 7.11739 9.52731 7.11666C9.10782 7.12 8.8191 7.13827 8.48246 7.41734ZM8.94982 12.0251C8.7649 12.4007 8.62107 12.7842 8.48246 13.1793C8.4487 13.2449 8.41493 13.3105 8.38014 13.3781C8.28595 13.545 8.28595 13.545 8.30517 13.7998C8.37366 13.81 8.44215 13.8202 8.51272 13.8307C11.1093 14.2231 13.5393 14.936 16.0298 15.7623C16.8898 16.0476 17.7505 16.3305 18.6165 16.5974C18.6906 16.6208 18.7647 16.6442 18.841 16.6683C19.2441 16.7979 19.2441 16.7979 19.6519 16.7252C19.7793 15.9685 19.9065 15.2118 20.0333 14.455C20.0921 14.1037 20.1511 13.7523 20.2103 13.4009C20.2675 13.0619 20.3244 12.7227 20.3811 12.3836C20.4027 12.2542 20.4245 12.1249 20.4464 11.9955C20.477 11.8143 20.5073 11.6331 20.5374 11.4519C20.5548 11.3487 20.5721 11.2456 20.5899 11.1393C20.6351 10.8606 20.6351 10.8606 20.627 10.5199C19.3056 10.4574 17.9844 10.4107 16.662 10.3822C16.0476 10.3685 15.4341 10.3499 14.8203 10.3193C11.3687 9.99047 11.3687 9.99047 8.94982 12.0251ZM22.0453 10.5199C21.9064 11.3475 21.7676 12.1751 21.6292 13.0027C21.5649 13.387 21.5006 13.7712 21.436 14.1555C21.3738 14.5262 21.3117 14.8969 21.2498 15.2677C21.2261 15.4092 21.2024 15.5508 21.1785 15.6923C21.1452 15.8903 21.1122 16.0883 21.0792 16.2864C21.0603 16.3992 21.0414 16.512 21.0219 16.6282C20.9751 16.9001 20.9751 16.9001 20.9815 17.1684C21.5942 17.3217 21.5942 17.3217 22.2226 17.3457C22.3432 16.9426 22.4389 16.5483 22.5095 16.1328C22.529 16.0189 22.5485 15.9051 22.5686 15.7877C22.5893 15.6651 22.6099 15.5424 22.6305 15.4197C22.6521 15.2925 22.6737 15.1652 22.6953 15.038C22.7404 14.7723 22.7852 14.5066 22.8299 14.2409C22.887 13.9009 22.9448 13.5611 23.0028 13.2212C23.0474 12.9589 23.0918 12.6965 23.136 12.4341C23.1571 12.3088 23.1784 12.1835 23.1998 12.0582C23.2297 11.883 23.259 11.7078 23.2883 11.5326C23.3051 11.4331 23.3219 11.3336 23.3392 11.231C23.3848 10.935 23.3848 10.935 23.375 10.5199C22.9362 10.5199 22.4974 10.5199 22.0453 10.5199ZM24.882 10.5199C24.7539 10.944 24.6592 11.3589 24.5869 11.7968C24.5765 11.8591 24.5661 11.9215 24.5554 11.9857C24.5215 12.1895 24.4881 12.3934 24.4547 12.5972C24.4311 12.7395 24.4075 12.8817 24.3839 13.0239C24.3221 13.3964 24.2607 13.7691 24.1994 14.1418C24.1366 14.5227 24.0735 14.9036 24.0104 15.2845C23.8868 16.0306 23.7637 16.7768 23.6409 17.523C23.9194 17.5259 24.1979 17.5277 24.4765 17.5292C24.5542 17.53 24.6319 17.5309 24.712 17.5317C26.5491 17.5394 28.2145 16.9944 29.7575 16.016C29.8414 15.971 29.9252 15.9259 30.0117 15.8796C30.2511 15.7341 30.3973 15.6276 30.5553 15.3955C30.7681 14.2608 30.4043 13.3921 29.7835 12.4719C29.72 12.3799 29.6566 12.2879 29.5913 12.1931C29.5285 12.1005 29.4658 12.0078 29.4012 11.9123C29.2258 11.654 29.0495 11.3966 28.871 11.1405C28.8409 11.0854 28.8108 11.0303 28.7797 10.9735C28.5839 10.64 28.5839 10.64 28.2519 10.4664C28.0348 10.448 27.8265 10.4501 27.6089 10.4593C27.4917 10.4607 27.4917 10.4607 27.3723 10.462C27.1238 10.4655 26.8756 10.4733 26.6272 10.4812C26.4584 10.4843 26.2896 10.4871 26.1208 10.4896C25.7077 10.4965 25.2949 10.5072 24.882 10.5199ZM8.12788 15.2182C8.11976 18.1799 8.11351 21.1416 8.10977 24.1034C8.10933 24.4534 8.10887 24.8035 8.1084 25.1535C8.10831 25.2232 8.10822 25.2929 8.10812 25.3647C8.10658 26.4915 8.10379 27.6182 8.10052 28.745C8.0972 29.9021 8.09524 31.0591 8.09452 32.2162C8.09403 32.9296 8.0925 33.643 8.08961 34.3563C8.08751 34.9043 8.0873 35.4523 8.08777 36.0003C8.08768 36.2244 8.08698 36.4485 8.08561 36.6725C8.03983 38.6666 8.03983 38.6666 8.92708 40.3995C9.61076 41.0657 10.4031 41.4108 11.3523 41.4031C11.4235 41.4036 11.4948 41.404 11.5683 41.4045C11.8054 41.4058 12.0424 41.4052 12.2795 41.4045C12.4502 41.405 12.6209 41.4057 12.7916 41.4064C13.2541 41.408 13.7165 41.4079 14.179 41.4074C14.5656 41.4071 14.9522 41.4076 15.3388 41.4082C16.2512 41.4094 17.1635 41.4093 18.0759 41.4083C19.0159 41.4072 19.9559 41.4085 20.8959 41.4109C21.7041 41.4128 22.5123 41.4134 23.3205 41.4129C23.8027 41.4126 24.2848 41.4128 24.767 41.4143C25.2206 41.4157 25.6742 41.4154 26.1278 41.4137C26.2938 41.4134 26.4598 41.4136 26.6259 41.4146C27.8102 41.4207 28.7629 41.3298 29.6688 40.4823C30.2745 39.8079 30.5652 39.1031 30.5675 38.1934C30.568 38.0903 30.5685 37.9871 30.569 37.8808C30.5691 37.7684 30.5692 37.6561 30.5693 37.5403C30.5697 37.4201 30.5702 37.3 30.5706 37.1798C30.5716 36.9216 30.5724 36.6633 30.573 36.4051C30.5739 35.9969 30.5757 35.5886 30.5777 35.1804C30.5832 34.0198 30.588 32.8591 30.5909 31.6985C30.5925 31.0571 30.5951 30.4157 30.5987 29.7743C30.6006 29.435 30.6019 29.0957 30.6021 28.7563C30.6023 28.4375 30.6037 28.1186 30.6061 27.7998C30.607 27.6268 30.6066 27.4537 30.6062 27.2807C30.6077 27.1267 30.6077 27.1267 30.6092 26.9696C30.6095 26.8802 30.6098 26.7908 30.6101 26.6987C30.6492 26.4415 30.7052 26.3649 30.9099 26.2103C31.1464 26.1078 31.2466 26.1165 31.4972 26.1881C31.7077 26.2989 31.7077 26.2989 31.885 26.5649C31.9082 26.7402 31.9082 26.7402 31.9097 26.9435C31.9112 27.0592 31.9112 27.0592 31.9127 27.1774C31.9129 27.2618 31.9131 27.3462 31.9133 27.4332C31.9141 27.5223 31.915 27.6114 31.916 27.7032C31.9187 27.9982 31.9202 28.2931 31.9217 28.5881C31.9234 28.7925 31.9251 28.9968 31.9269 29.2011C31.9315 29.7393 31.935 30.2775 31.9383 30.8157C31.9418 31.3647 31.9463 31.9137 31.9508 32.4627C31.9594 33.5403 31.9668 34.6178 31.9736 35.6954C32.431 35.702 32.8883 35.7068 33.3457 35.71C33.5012 35.7113 33.6566 35.7131 33.8121 35.7154C34.0361 35.7187 34.2601 35.7202 34.4841 35.7214C34.5876 35.7234 34.5876 35.7234 34.6932 35.7255C35.1198 35.7256 35.4252 35.6823 35.7854 35.4294C36.0111 35.055 36.0846 34.7766 36.0845 34.3419C36.0851 34.2322 36.0858 34.1224 36.0864 34.0094C36.0857 33.8889 36.0851 33.7685 36.0844 33.648C36.0846 33.5203 36.0849 33.3925 36.0853 33.2648C36.0862 32.9188 36.0853 32.5729 36.0842 32.2269C36.0831 31.8645 36.0835 31.5021 36.0837 31.1397C36.0838 30.5312 36.0828 29.9228 36.0811 29.3144C36.0793 28.6112 36.079 27.9081 36.0795 27.2049C36.08 26.528 36.0795 25.8511 36.0785 25.1741C36.0781 24.8863 36.078 24.5984 36.0782 24.3105C36.0784 23.9715 36.0777 23.6325 36.0763 23.2935C36.0759 23.1692 36.0758 23.0449 36.0761 22.9206C36.0763 22.7507 36.0754 22.5809 36.0745 22.411C36.0743 22.3161 36.0741 22.2211 36.0739 22.1232C36.0406 21.7447 35.9453 21.5024 35.6913 21.2206C35.3307 21.0105 35.0411 21.024 34.6313 21.0342C34.5552 21.0347 34.4791 21.0352 34.4006 21.0357C34.1586 21.0377 33.9166 21.0421 33.6745 21.0466C33.51 21.0484 33.3455 21.05 33.1809 21.0515C32.7784 21.0554 32.3761 21.0615 31.9736 21.0688C31.9723 21.1529 31.9711 21.237 31.9697 21.3236C31.9643 21.6362 31.9577 21.9487 31.9504 22.2613C31.9474 22.3964 31.9449 22.5316 31.9429 22.6668C31.9399 22.8613 31.9353 23.0558 31.9304 23.2503C31.928 23.3673 31.9257 23.4843 31.9233 23.6048C31.8838 23.9145 31.8387 24.0432 31.6191 24.2601C31.4473 24.304 31.4473 24.304 31.2645 24.2988C31.174 24.2987 31.174 24.2987 31.0816 24.2985C30.8489 24.2464 30.785 24.1883 30.6439 23.9941C30.6165 23.7682 30.6052 23.5635 30.6056 23.3374C30.6043 23.2374 30.6043 23.2374 30.6029 23.1355C30.6002 22.9153 30.5994 22.6952 30.5986 22.475C30.5971 22.3224 30.5955 22.1697 30.5938 22.0171C30.5895 21.6153 30.5869 21.2135 30.5846 20.8117C30.582 20.4017 30.5778 19.9917 30.5738 19.5817C30.5662 18.7773 30.5602 17.9729 30.5553 17.1684C30.4668 17.2162 30.3784 17.2641 30.2872 17.3134C30.1685 17.3773 30.0497 17.4411 29.931 17.505C29.873 17.5364 29.815 17.5678 29.7552 17.6001C26.2626 19.4741 22.1473 19.038 18.4718 17.9421C17.2664 17.5769 16.0695 17.1838 14.8733 16.7896C11.7339 15.6622 11.7339 15.6622 8.46221 15.2157C8.35188 15.2165 8.24155 15.2173 8.12788 15.2182ZM31.9736 17.7889C31.9736 18.4032 31.9736 19.0175 31.9736 19.6505C32.3548 19.6554 32.3548 19.6554 32.7437 19.6605C32.9917 19.6646 33.2396 19.6692 33.4875 19.6737C33.6589 19.6767 33.8304 19.6792 34.0018 19.6812C34.2492 19.6842 34.4965 19.6888 34.7438 19.6938C34.8197 19.6943 34.8955 19.6949 34.9736 19.6955C35.6207 19.7111 36.2409 19.8638 36.7605 20.271C37.4316 21.0962 37.4072 22.0526 37.404 23.0684C37.4042 23.1973 37.4045 23.3263 37.4049 23.4552C37.4057 23.8034 37.4054 24.1516 37.4049 24.4997C37.4044 24.8653 37.4048 25.2308 37.4051 25.5964C37.4054 26.2101 37.405 26.8238 37.4042 27.4375C37.4032 28.1455 37.4035 28.8536 37.4045 29.5616C37.4053 30.1711 37.4054 30.7806 37.4049 31.3901C37.4047 31.7535 37.4046 32.1168 37.4052 32.4801C37.4057 32.8218 37.4054 33.1635 37.4043 33.5052C37.4041 33.6301 37.4042 33.755 37.4046 33.8799C37.4074 34.8836 37.3967 35.7358 36.6719 36.4932C36.3067 36.7977 35.9614 36.9451 35.4858 36.9546C35.4077 36.9564 35.3297 36.9582 35.2492 36.96C35.1233 36.9622 35.1233 36.9622 34.9949 36.9645C34.9087 36.9663 34.8225 36.9682 34.7337 36.9701C34.4582 36.9759 34.1827 36.9811 33.9072 36.9863C33.7205 36.9901 33.5338 36.994 33.3471 36.9979C32.8893 37.0075 32.4315 37.0162 31.9736 37.0251C31.9444 37.6686 31.9151 38.3122 31.885 38.9753C32.4084 38.9794 32.9317 38.9829 33.4551 38.985C33.6327 38.9859 33.8103 38.9871 33.9879 38.9887C36.114 39.0476 36.114 39.0476 37.9417 38.0788C38.9338 37.0169 39.0034 35.8773 39.0024 34.4894C39.0029 34.3409 39.0036 34.1925 39.0042 34.044C39.0058 33.6425 39.0062 33.241 39.0063 32.8395C39.0064 32.5882 39.0068 32.3368 39.0073 32.0855C39.0089 31.207 39.0097 30.3286 39.0095 29.4502C39.0094 28.6338 39.0113 27.8174 39.0141 27.001C39.0164 26.2981 39.0173 25.5951 39.0172 24.8922C39.0172 24.4732 39.0177 24.0543 39.0196 23.6354C39.0213 23.241 39.0213 22.8467 39.02 22.4523C39.0198 22.3084 39.0202 22.1645 39.0213 22.0206C39.0304 20.7277 38.8545 19.638 37.9264 18.6844C37.295 18.0894 36.5785 17.7765 35.7072 17.7788C35.5821 17.7789 35.5821 17.7789 35.4546 17.7789C35.3213 17.7796 35.3213 17.7796 35.1853 17.7803C35.0475 17.7804 35.0475 17.7804 34.907 17.7806C34.6144 17.7811 34.3217 17.7822 34.0291 17.7834C33.8304 17.7838 33.6317 17.7842 33.433 17.7846C32.9465 17.7855 32.4601 17.7872 31.9736 17.7889Z" fill="black"/>
<path d="M22.5769 21.6889C22.8556 21.9258 22.9202 22.09 23.0146 22.4424C23.0209 22.7959 22.9736 22.9235 22.7542 23.1959C22.5305 23.4276 22.4202 23.4596 22.0949 23.4951C21.7608 23.4599 21.5995 23.3992 21.3359 23.1959C21.0994 22.8411 21.0847 22.5494 21.1586 22.1321C21.5849 21.5937 21.9312 21.5234 22.5769 21.6889Z" fill="black"/>
<path d="M18.4829 33.8564C18.7942 34.1054 18.8419 34.2716 18.8929 34.6653C18.8415 35.0917 18.7111 35.2184 18.4109 35.5185C18.1318 35.6581 17.9216 35.638 17.6131 35.6072C17.3492 35.45 17.1319 35.2653 16.9926 34.9867C16.9593 34.546 16.9785 34.2729 17.2585 33.9229C17.6273 33.6463 18.0757 33.6754 18.4829 33.8564Z" fill="black"/>
<path d="M20.006 31.3522C20.2698 31.5094 20.4871 31.694 20.6265 31.9727C20.6597 32.4134 20.6406 32.6865 20.3606 33.0365C20.0572 33.264 19.7536 33.2461 19.3854 33.2138C19.1352 33.1026 18.9898 33.0113 18.8259 32.7927C18.7358 32.4981 18.7279 32.2797 18.7649 31.9727C19.0843 31.4409 19.393 31.2909 20.006 31.3522Z" fill="black"/>
<path d="M11.9396 19.8278C12.2034 19.985 12.4207 20.1696 12.5601 20.4483C12.5933 20.889 12.5742 21.1621 12.2941 21.5121C11.9908 21.7396 11.6872 21.7217 11.319 21.6894C11.0688 21.5782 10.9234 21.4869 10.7595 21.2683C10.6694 20.9736 10.6615 20.7553 10.6985 20.4483C11.0179 19.9165 11.3266 19.7665 11.9396 19.8278Z" fill="black"/>
<path d="M27.6304 35.8725C27.8631 36.031 27.9266 36.1483 28.0736 36.4043C28.1226 36.7534 28.1057 36.9526 27.9628 37.2742C27.7936 37.4856 27.7107 37.5667 27.4531 37.6454C27.0123 37.6855 26.7392 37.6593 26.3893 37.3794C26.1613 37.0755 26.1675 36.7732 26.212 36.4043C26.5768 35.7968 26.9703 35.6892 27.6304 35.8725Z" fill="black"/>
<path d="M25.769 27.1855C26.0132 27.3788 26.1622 27.5287 26.3008 27.806C26.3118 28.2117 26.29 28.5148 26.0183 28.8254C25.7384 28.9746 25.5548 29.0405 25.2371 29.047C24.8763 28.9126 24.6144 28.7768 24.4393 28.4265C24.391 27.9841 24.432 27.7168 24.7052 27.3627C25.06 27.1262 25.3517 27.1115 25.769 27.1855Z" fill="black"/>
<path d="M15.1307 22.4878C15.6253 22.7677 15.6253 22.7677 15.7512 23.0197C15.8004 23.4303 15.8077 23.7272 15.585 24.0834C15.2951 24.3563 15.0896 24.3809 14.6906 24.3736C14.3936 24.3337 14.261 24.2174 14.067 23.9948C13.8964 23.6182 13.8705 23.4418 13.9839 23.0418C14.2682 22.5648 14.5772 22.4087 15.1307 22.4878Z" fill="black"/>
<path d="M12.2065 30.1106C12.4843 30.3598 12.5535 30.4925 12.5999 30.8641C12.5589 31.1917 12.4954 31.3581 12.2952 31.6175C11.9404 31.8541 11.6487 31.8688 11.2314 31.7948C10.9871 31.6015 10.8382 31.4516 10.6996 31.1743C10.6884 30.762 10.7078 30.4634 10.9932 30.1549C11.4576 29.8957 11.698 29.9108 12.2065 30.1106Z" fill="black"/>
</g>
<defs>
<clipPath id="clip0_358_1153">
<rect width="45.3867" height="45.3867" fill="white" transform="translate(0.859375 0.50293)"/>
</clipPath>
</defs>
</svg>
