<svg width="47" height="46" viewBox="0 0 47 46" fill="none" xmlns="http://www.w3.org/2000/svg">
<path d="M3.37198 2.09871C3.57518 2.23553 3.74201 2.38574 3.91632 2.55752C4.07977 2.71788 4.25004 2.85166 4.43573 2.98517C4.51298 2.94346 4.59022 2.90175 4.66981 2.85878C6.13389 2.08467 7.7299 1.81343 9.36112 2.23722C10.9093 2.76865 12.1475 3.73315 12.9042 5.1982C13.2117 5.8482 13.2117 5.8482 13.2117 6.17642C13.2958 6.1618 13.3799 6.14717 13.4665 6.1321C15.0679 5.91562 16.5199 6.35305 17.8362 7.25541C19.1184 8.25293 19.899 9.62175 20.1261 11.2292C20.2238 12.4522 20.2238 12.4522 20.0374 12.8249C20.1152 12.8474 20.193 12.8699 20.2732 12.8931C21.5295 13.3559 22.3919 14.5037 22.9627 15.6615C23.0287 15.6597 23.0947 15.6578 23.1627 15.6559C25.6405 15.5954 25.6405 15.5954 26.5972 16.0161C26.6937 16.0582 26.7901 16.1002 26.8895 16.1435C28.291 16.8279 29.2695 17.961 29.8771 19.3847C30.1844 20.2899 30.393 21.3202 30.1534 22.2636C30.1077 22.5935 30.1077 22.5935 30.3647 22.8412C30.4666 22.9281 30.5702 23.0132 30.6749 23.0967C30.7825 23.1894 30.8898 23.2826 30.9966 23.3762C31.0485 23.4212 31.1004 23.4662 31.1539 23.5125C31.7253 24.0257 32.0352 24.6427 32.336 25.3399C32.4443 25.6005 32.4443 25.6005 32.6251 25.8558C32.8109 25.8869 32.8109 25.8869 33.0254 25.8693C33.1065 25.8666 33.1876 25.8639 33.2712 25.8611C33.3578 25.8575 33.4445 25.8539 33.5338 25.8503C35.2606 25.8165 36.5917 26.4233 37.8462 27.6107C38.922 28.7498 39.4188 30.177 39.3747 31.7251C39.3706 31.8067 39.3665 31.8883 39.3622 31.9724C39.4246 31.9844 39.487 31.9964 39.5513 32.0087C41.1689 32.3614 42.3631 33.2068 43.291 34.566C44.1137 35.9091 44.378 37.4612 44.0487 39.0005C43.9022 39.6047 43.6822 40.1531 43.3838 40.6995C43.2665 40.9184 43.1756 41.1378 43.0854 41.3689C43.1359 41.4189 43.1865 41.469 43.2386 41.5206C43.4666 41.7468 43.6943 41.9734 43.9219 42.1999C44.0015 42.2788 44.0811 42.3576 44.1631 42.4388C44.2767 42.552 44.2767 42.552 44.3925 42.6674C44.4977 42.7718 44.4977 42.7718 44.6049 42.8784C44.8719 43.1616 44.8748 43.3714 44.896 43.7561C44.8392 44.0321 44.7258 44.1227 44.5037 44.2942C44.2598 44.3289 44.0514 44.3419 43.8076 44.3388C43.7012 44.3396 43.7012 44.3396 43.5926 44.3404C43.3534 44.3417 43.1142 44.3404 42.875 44.3392C42.7024 44.3396 42.5297 44.3402 42.3571 44.3409C41.8815 44.3424 41.406 44.3416 40.9304 44.3405C40.418 44.3397 39.9055 44.341 39.3931 44.3419C38.3888 44.3435 37.3845 44.3432 36.3802 44.3421C35.5643 44.3413 34.7483 44.3412 33.9323 44.3416C33.8164 44.3417 33.7004 44.3417 33.5809 44.3418C33.3453 44.3419 33.1098 44.342 32.8742 44.3421C30.7264 44.3431 28.5787 44.3421 26.431 44.3402C24.4695 44.3386 22.5079 44.3387 20.5464 44.3404C18.3437 44.3423 16.141 44.343 13.9383 44.3419C13.7036 44.3418 13.4689 44.3417 13.2342 44.3416C13.0609 44.3415 13.0609 44.3415 12.8842 44.3414C12.0689 44.3411 11.2535 44.3417 10.4382 44.3425C9.44511 44.3435 8.45201 44.3432 7.45889 44.3413C6.95184 44.3404 6.44481 44.34 5.93776 44.3412C5.47408 44.3423 5.01043 44.3417 4.54675 44.3398C4.37853 44.3394 4.21031 44.3396 4.0421 44.3405C3.81432 44.3415 3.58666 44.3404 3.3589 44.3388C3.25975 44.34 3.25975 44.34 3.15861 44.3413C2.85972 44.3369 2.69139 44.3151 2.44755 44.1362C2.17399 43.7501 2.20681 43.3661 2.20793 42.9063C2.20775 42.8372 2.20757 42.7681 2.20738 42.697C2.20688 42.4641 2.20701 42.2313 2.20713 41.9985C2.2069 41.8304 2.20664 41.6624 2.20633 41.4943C2.20562 41.0314 2.20546 40.5684 2.20539 40.1055C2.20523 39.6067 2.20456 39.1079 2.20396 38.609C2.20276 37.5178 2.20223 36.4266 2.20184 35.3354C2.20159 34.6544 2.20122 33.9733 2.20082 33.2923C2.19973 31.4075 2.19882 29.5228 2.19852 27.638C2.1985 27.5161 2.19848 27.3942 2.19846 27.2723C2.19844 27.1502 2.19842 27.028 2.1984 26.9058C2.19837 26.6607 2.19833 26.4156 2.19829 26.1705C2.19828 26.1097 2.19827 26.0489 2.19826 25.9863C2.19793 24.0152 2.19652 22.0442 2.19446 20.0731C2.19228 17.9895 2.19106 15.9059 2.19095 13.8222C2.19087 12.6863 2.19036 11.5503 2.18875 10.4144C2.18739 9.44729 2.18693 8.48018 2.18767 7.51306C2.18801 7.01944 2.18793 6.52584 2.18669 6.03222C2.18556 5.58051 2.18566 5.12881 2.18674 4.6771C2.18691 4.51352 2.18664 4.34995 2.18587 4.18638C2.18489 3.96426 2.18554 3.7422 2.18661 3.52007C2.18594 3.45638 2.18526 3.3927 2.18457 3.32708C2.18921 2.87997 2.2814 2.57736 2.48552 2.18736C2.77826 2.04099 3.05814 2.02989 3.37198 2.09871ZM5.49948 4.22621C6.30759 5.03638 7.11593 5.8463 7.92459 6.65591C8.30012 7.0319 8.67556 7.40797 9.05081 7.78423C9.4133 8.14769 9.776 8.51092 10.1389 8.874C10.2769 9.01221 10.4149 9.1505 10.5528 9.28887C10.7467 9.48341 10.9408 9.67767 11.1351 9.87187C11.2195 9.9568 11.2195 9.9568 11.3057 10.0435C11.5737 10.3109 11.8456 10.5684 12.1329 10.8152C12.577 11.1993 12.9879 11.615 13.4018 12.0312C13.4898 12.1194 13.5778 12.2076 13.6659 12.2957C13.8542 12.4843 14.0423 12.673 14.2303 12.8618C14.5282 13.1609 14.8265 13.4596 15.1248 13.7583C15.8117 14.4463 16.4981 15.1347 17.1846 15.8231C17.8142 16.4545 18.4439 17.0858 19.0739 17.7168C19.3699 18.0132 19.6656 18.3097 19.9612 18.6065C20.1457 18.7917 20.3304 18.9767 20.5151 19.1616C20.6403 19.287 20.7653 19.4127 20.8902 19.5384C21.2185 19.8667 21.5468 20.19 21.899 20.4927C22.3389 20.8708 22.744 21.2825 23.1528 21.6936C23.2408 21.7818 23.3289 21.87 23.4169 21.9581C23.6052 22.1467 23.7934 22.3354 23.9814 22.5242C24.2793 22.8233 24.5775 23.122 24.8758 23.4207C25.5627 24.1087 26.2492 24.7971 26.9356 25.4855C27.5652 26.1169 28.1949 26.7482 28.825 27.3792C29.1209 27.6756 29.4167 27.9722 29.7122 28.2689C29.8967 28.4541 30.0814 28.6391 30.2661 28.824C30.3913 28.9494 30.5163 29.0751 30.6413 29.2008C30.9694 29.5289 31.2974 29.852 31.6494 30.1545C32.093 30.5358 32.5012 30.9511 32.9134 31.3656C33.0025 31.4548 33.0915 31.5439 33.1806 31.6331C33.371 31.8238 33.5614 32.0147 33.7516 32.2057C34.0528 32.5081 34.3544 32.8102 34.656 33.1123C35.2961 33.7533 35.9358 34.3947 36.5754 35.0362C37.2665 35.7292 37.9576 36.4222 38.6492 37.1147C38.9486 37.4145 39.2477 37.7146 39.5467 38.0148C39.7332 38.2019 39.9198 38.3888 40.1064 38.5756C40.2332 38.7027 40.3598 38.8299 40.4864 38.9572C40.8953 39.3661 41.3022 39.7682 41.7557 40.1278C41.8142 40.1278 41.8727 40.1278 41.933 40.1278C42.5742 38.918 42.8892 37.8815 42.4925 36.5099C42.0315 35.1817 41.2835 34.3587 40.0295 33.7228C39.5164 33.4967 39.0227 33.4194 38.4654 33.3717C38.2098 33.3021 38.2098 33.3021 37.9989 33.1338C37.7863 32.727 37.8277 32.3622 37.8497 31.9114C37.9037 30.7316 37.6251 29.7247 36.8538 28.804C36.4061 28.3354 35.9652 27.9804 35.3732 27.7174C35.3037 27.6828 35.2342 27.6481 35.1626 27.6125C34.2294 27.2013 33.1413 27.2478 32.1819 27.5401C31.897 27.5673 31.76 27.5328 31.4727 27.4514C31.3296 27.2266 31.2741 27.0832 31.2068 26.8309C30.8218 25.4243 30.2061 24.423 28.9408 23.6452C28.884 23.6133 28.8272 23.5814 28.7687 23.5486C28.6361 23.4624 28.6361 23.4624 28.5474 23.2851C28.5241 22.9119 28.5567 22.5922 28.6361 22.2269C28.8622 21.1436 28.6365 20.1131 28.0737 19.1627C27.3852 18.125 26.3996 17.4398 25.1789 17.1685C24.9283 17.1554 24.6815 17.1475 24.4309 17.1464C24.3602 17.1459 24.2895 17.1455 24.2167 17.1451C23.6752 17.15 23.1896 17.2347 22.6701 17.3936C22.3662 17.4455 22.2458 17.4278 21.9876 17.2572C21.8711 17.033 21.7808 16.8273 21.694 16.5923C21.1946 15.3616 20.4172 14.6173 19.2181 14.0517C18.9758 13.936 18.7217 13.8139 18.5304 13.6227C18.5101 13.0133 18.5101 13.0133 18.5741 12.6992C18.7962 11.5696 18.5101 10.4903 17.9109 9.52939C17.1 8.39086 16.0669 7.85581 14.7187 7.59476C14.2238 7.53628 13.7988 7.61528 13.3183 7.73119C12.9999 7.79781 12.7393 7.80515 12.4139 7.77205C12.0454 7.49902 11.9601 7.16116 11.8487 6.736C11.6799 6.1472 11.4708 5.68353 11.0842 5.20132C10.9854 5.06419 10.9854 5.06419 10.8847 4.9243C10.111 4.11537 9.09176 3.60666 7.9688 3.57983C7.05217 3.57176 6.24906 3.64836 5.49948 4.22621ZM3.72656 4.66944C3.72656 17.2483 3.72656 29.8272 3.72656 42.7872C16.4224 42.7872 29.1183 42.7872 42.1989 42.7872C41.7925 42.3078 41.7925 42.3078 41.3655 41.8539C41.3121 41.8003 41.2587 41.7466 41.2037 41.6913C41.147 41.6348 41.0904 41.5784 41.032 41.5202C40.9708 41.4588 40.9096 41.3975 40.8466 41.3343C40.6459 41.1332 40.4449 40.9324 40.2438 40.7317C40.1032 40.591 39.9625 40.4503 39.8219 40.3095C39.5277 40.0152 39.2334 39.7211 38.9389 39.427C38.5629 39.0515 38.1873 38.6756 37.8117 38.2995C37.5215 38.009 37.2311 37.7187 36.9406 37.4284C36.8021 37.29 36.6636 37.1514 36.5252 37.0128C36.3312 36.8185 36.1369 36.6246 35.9425 36.4307C35.858 36.3459 35.858 36.3459 35.7719 36.2595C35.5038 35.9927 35.2319 35.7356 34.945 35.4892C34.5009 35.105 34.09 34.6892 33.6761 34.273C33.5881 34.1848 33.5 34.0967 33.412 34.0085C33.2237 33.82 33.0355 33.6313 32.8475 33.4425C32.5496 33.1434 32.2514 32.8446 31.9531 32.5459C31.2662 31.8579 30.5797 31.1695 29.8933 30.4811C29.2637 29.8497 28.634 29.2184 28.0039 28.5875C27.708 28.2911 27.4122 27.9945 27.1167 27.6977C26.9322 27.5126 26.7475 27.3276 26.5628 27.1427C26.4376 27.0172 26.3126 26.8916 26.1876 26.7659C25.8593 26.4375 25.5311 26.1142 25.1789 25.8115C24.739 25.4334 24.3338 25.0218 23.925 24.6106C23.837 24.5224 23.749 24.4343 23.6609 24.3461C23.4726 24.1576 23.2845 23.9689 23.0965 23.7801C22.7986 23.481 22.5003 23.1822 22.202 22.8835C21.5151 22.1955 20.8287 21.5071 20.1422 20.8187C19.5126 20.1873 18.8829 19.556 18.2529 18.9251C17.9569 18.6287 17.6612 18.3321 17.3656 18.0353C17.1811 17.8501 16.9964 17.6652 16.8117 17.4803C16.6865 17.3548 16.5615 17.2291 16.4366 17.1035C16.1084 16.7753 15.7804 16.4521 15.4283 16.1496C14.9853 15.7688 14.5775 15.3541 14.1658 14.9401C14.0769 14.851 13.988 14.762 13.8991 14.673C13.7089 14.4825 13.5189 14.2919 13.329 14.1013C13.0281 13.7992 12.7269 13.4974 12.4256 13.1957C11.7319 12.5009 11.0386 11.8056 10.3452 11.1104C9.70935 10.4727 9.07336 9.83509 8.43701 9.19786C8.13809 8.89851 7.8394 8.59894 7.54088 8.29921C7.35454 8.11221 7.16802 7.9254 6.98145 7.73863C6.85498 7.61192 6.72874 7.48499 6.6025 7.35805C6.20559 6.9611 5.80412 6.57617 5.37721 6.21151C5.19521 6.05477 5.02537 5.88828 4.85714 5.71692C4.79584 5.65493 4.73453 5.59294 4.67137 5.52907C4.61006 5.46662 4.54876 5.40417 4.48559 5.33983C4.36033 5.21232 4.23487 5.08499 4.10919 4.95789C4.05475 4.90242 4.00031 4.84695 3.94422 4.78979C3.83381 4.65936 3.83381 4.65936 3.72656 4.66944Z" fill="black"/>
<path d="M6.06722 35.6711C6.12505 35.6706 6.18289 35.6701 6.24247 35.6697C6.43663 35.6683 6.63076 35.6683 6.82491 35.6682C6.96397 35.6675 7.10303 35.6668 7.24208 35.666C7.62011 35.664 7.99813 35.6632 8.37617 35.6628C8.61229 35.6625 8.84841 35.6619 9.08453 35.6613C9.90811 35.6591 10.7317 35.658 11.5553 35.6576C12.3232 35.6573 13.0912 35.6547 13.8591 35.651C14.5182 35.6479 15.1773 35.6465 15.8364 35.6465C16.2302 35.6464 16.6239 35.6456 17.0177 35.6431C17.388 35.6408 17.7584 35.6406 18.1287 35.642C18.2646 35.6422 18.4005 35.6416 18.5364 35.6402C18.7221 35.6383 18.9075 35.6393 19.0932 35.6409C19.197 35.6407 19.3008 35.6405 19.4078 35.6403C19.7667 35.7121 19.8995 35.8577 20.1263 36.1386C20.1808 36.3746 20.1808 36.3746 20.1795 36.6308C20.18 36.7273 20.1806 36.8237 20.1811 36.9231C20.1785 37.0779 20.1785 37.0779 20.1759 37.2359C20.1757 37.3427 20.1755 37.4494 20.1752 37.5594C20.1744 37.7848 20.1724 38.0102 20.1695 38.2356C20.1651 38.5809 20.1641 38.9262 20.1636 39.2715C20.1623 39.4905 20.1609 39.7095 20.1592 39.9286C20.1588 40.032 20.1583 40.1354 20.1578 40.242C20.1564 40.3381 20.155 40.4343 20.1535 40.5333C20.1526 40.6178 20.1516 40.7023 20.1506 40.7894C20.1246 41.0299 20.0861 41.1698 19.9491 41.3687C19.6441 41.5682 19.3821 41.5687 19.0231 41.5697C18.9659 41.5701 18.9087 41.5705 18.8498 41.5709C18.6584 41.572 18.467 41.5719 18.2755 41.5718C18.1382 41.5723 18.0009 41.5729 17.8636 41.5736C17.4907 41.5751 17.1178 41.5755 16.7449 41.5757C16.4336 41.5758 16.1223 41.5765 15.811 41.5771C15.0767 41.5785 14.3424 41.579 13.608 41.5789C12.8504 41.5787 12.0928 41.5806 11.3352 41.5834C10.6847 41.5857 10.0342 41.5867 9.38379 41.5866C8.99529 41.5865 8.6068 41.587 8.2183 41.5889C7.85297 41.5906 7.48767 41.5906 7.12233 41.5894C6.98828 41.5892 6.85424 41.5896 6.7202 41.5907C6.53711 41.592 6.35415 41.5912 6.17105 41.5898C6.06864 41.5899 5.96622 41.59 5.8607 41.5901C5.52991 41.5365 5.38298 41.4228 5.14519 41.1914C5.03313 40.9673 5.04468 40.8111 5.04366 40.5602C5.0431 40.4655 5.04253 40.3708 5.04195 40.2733C5.04185 40.1706 5.04175 40.0679 5.04165 39.9621C5.04136 39.857 5.04106 39.7518 5.04076 39.6435C5.04031 39.4207 5.0401 39.1979 5.04011 38.9751C5.03992 38.6338 5.03831 38.2926 5.03663 37.9513C5.03637 37.7352 5.03619 37.519 5.03611 37.3028C5.03547 37.2005 5.03484 37.0981 5.03418 36.9927C5.03445 36.8975 5.03473 36.8022 5.03501 36.7041C5.03488 36.6204 5.03475 36.5367 5.03462 36.4504C5.05806 36.2118 5.10284 36.0725 5.23383 35.8727C5.55103 35.6612 5.69037 35.6726 6.06722 35.6711ZM6.56352 37.2024C6.56352 38.1385 6.56352 39.0746 6.56352 40.039C10.5419 40.039 14.5204 40.039 18.6194 40.039C18.6194 39.1029 18.6194 38.1668 18.6194 37.2024C14.6409 37.2024 10.6625 37.2024 6.56352 37.2024Z" fill="black"/>
</svg>
