<svg width="46" height="46" viewBox="0 0 46 46" fill="none" xmlns="http://www.w3.org/2000/svg">
<g clip-path="url(#clip0_358_881)">
<path d="M44.2021 1.71644C44.8045 2.22929 45.3558 2.89624 45.4364 3.71772C45.5048 5.63202 45.0556 8.10189 43.7855 9.6357C43.6463 9.74859 43.6463 9.74859 43.3472 9.79291C43.0258 9.74859 43.0258 9.74859 42.7654 9.56022C42.5435 9.25084 42.5424 9.14751 42.5826 8.77349C42.6822 8.53585 42.7859 8.31433 42.9039 8.08648C43.5269 6.82037 44.2756 5.16596 43.9012 3.73625C43.5965 2.97866 42.884 2.61252 42.1771 2.28537C39.0172 1.06378 35.1947 2.4655 32.2775 3.73175C30.4459 4.54594 28.6759 5.48777 26.9809 6.55734C26.8591 6.63415 26.8591 6.63415 26.7349 6.71251C26.4857 6.87042 26.2373 7.02936 25.9892 7.18894C25.9122 7.23831 25.8352 7.28768 25.7558 7.33855C25.6853 7.38448 25.6148 7.43041 25.5421 7.47773C25.4796 7.51831 25.4171 7.55889 25.3527 7.6007C25.1951 7.70261 25.1951 7.70261 25.1193 7.88703C25.1995 7.90869 25.1995 7.90869 25.2813 7.93079C25.8532 8.09277 26.3797 8.3046 26.9144 8.56295C26.9952 8.60185 27.0761 8.64074 27.1593 8.68081C28.2128 9.1975 29.4265 9.81188 30.0835 10.8179C30.2362 11.2663 30.3034 11.5666 30.1555 12.0257C29.8685 12.5503 29.58 12.7334 29.0198 12.9398C26.7697 13.5184 24.0571 12.6409 21.8536 12.1334C21.7917 12.1193 21.7298 12.1053 21.666 12.0908C21.3738 12.0238 21.0854 11.9522 20.7964 11.8717C20.6442 11.8305 20.6442 11.8305 20.489 11.7885C20.4011 11.763 20.3133 11.7374 20.2228 11.7112C19.883 11.694 19.7567 11.8217 19.5069 12.0423C19.3665 12.192 19.2279 12.3433 19.0914 12.4966C18.9787 12.5984 18.8643 12.6983 18.7479 12.7958C18.3115 13.1761 17.8869 13.5691 17.4611 13.9611C17.3143 14.0961 17.1672 14.2308 17.02 14.3654C16.9716 14.4097 16.9233 14.454 16.8734 14.4995C16.7805 14.5846 16.6875 14.6696 16.5945 14.7546C16.4191 14.9152 16.2457 15.0764 16.0775 15.2446C16.1392 15.2703 16.201 15.2959 16.2646 15.3223C22.1286 17.7606 22.1286 17.7606 22.7259 19.1451C22.848 19.6091 22.8257 19.9436 22.6373 20.3861C22.0477 21.0037 21.3556 21.1423 20.5267 21.1836C17.834 21.2193 14.9467 20.5011 12.3813 19.7159C12.1547 19.6727 12.0356 19.6794 11.8225 19.7656C11.6867 19.8766 11.6867 19.8766 11.57 20.0215C11.5242 20.0748 11.4783 20.1281 11.4311 20.183C11.3829 20.2409 11.3347 20.2988 11.285 20.3584C11.2091 20.448 11.2091 20.448 11.1315 20.5395C10.3079 21.5173 9.54195 22.5305 8.80849 23.5774C8.92576 23.5938 8.92576 23.5938 9.04541 23.6106C9.32126 23.6624 9.54675 23.7355 9.80472 23.8436C9.89129 23.8797 9.97787 23.9158 10.0671 23.9529C10.1582 23.9917 10.2493 24.0305 10.3432 24.0704C10.4377 24.1104 10.5323 24.1504 10.6297 24.1916C10.9096 24.3108 11.1889 24.4312 11.4679 24.5525C11.5799 24.6011 11.5799 24.6011 11.6942 24.6508C12.9616 25.208 14.6091 25.9344 15.2796 27.2118C15.4013 27.7506 15.3793 28.0448 15.1024 28.5415C14.749 28.9958 14.2363 29.1597 13.684 29.2507C12.5763 29.3477 12.5763 29.3477 12.1992 29.0679C11.9606 28.7563 11.8968 28.579 11.9111 28.1869C12.1112 27.9095 12.2221 27.8398 12.5624 27.7815C12.6711 27.7781 12.7798 27.7748 12.8917 27.7714C13.3402 27.7581 13.3402 27.7581 13.7727 27.6551C13.2119 27.1859 12.6344 26.8272 11.9831 26.4971C11.8493 26.4284 11.8493 26.4284 11.7127 26.3584C10.577 25.7173 10.577 25.7173 9.34037 25.4389C9.21354 25.5559 9.21354 25.5559 9.11806 25.7204C9.08001 25.7792 9.04195 25.838 9.00275 25.8986C8.94499 25.9919 8.94499 25.9919 8.88606 26.0871C8.82726 26.1789 8.82726 26.1789 8.76728 26.2726C8.69422 26.3868 8.62166 26.5014 8.54978 26.6164C8.46106 26.7572 8.36897 26.896 8.27662 27.0345C8.62567 27.1809 8.98014 27.2968 9.3414 27.4085C9.51766 27.4778 9.51766 27.4778 9.69495 27.6551C9.74536 28.2801 9.74536 28.2801 9.58334 28.5504C9.42901 28.7188 9.42901 28.7188 9.25743 28.7643C8.53959 28.7502 7.86138 28.5817 7.16854 28.4086C6.98669 28.364 6.80477 28.3198 6.6228 28.2758C6.45953 28.2361 6.29644 28.1957 6.13336 28.1553C5.89713 28.0917 5.89713 28.0917 5.70588 28.0983C4.12263 30.8722 2.67604 33.6682 1.89411 36.7856C1.87434 36.862 1.85457 36.9384 1.8342 37.0171C1.32405 39.0464 1.18538 41.4561 2.28055 43.3118C2.70444 43.9264 3.09308 44.2346 3.82216 44.3925C7.66285 44.721 11.9906 41.0923 14.8364 38.9131C14.9528 38.825 15.0693 38.7369 15.1858 38.6489C16.0061 38.0274 16.8109 37.3892 17.6061 36.7359C17.7448 36.6222 17.8841 36.509 18.0235 36.396C18.6314 35.9028 19.2256 35.3946 19.8185 34.8836C19.9748 34.7494 20.1319 34.616 20.2892 34.4829C20.8794 33.9825 21.4563 33.4714 22.0195 32.9408C22.2771 32.6984 22.5378 32.4612 22.8048 32.2293C23.1823 31.9009 23.5478 31.561 23.9115 31.2175C23.9774 31.1555 24.0432 31.0936 24.111 31.0297C24.5331 30.6308 24.9479 30.2267 25.3524 29.8099C25.5216 29.6452 25.6928 29.4925 25.8721 29.3393C26.3491 28.9252 26.7925 28.4773 27.238 28.0301C27.3851 27.8825 27.5326 27.7354 27.6802 27.5884C28.1253 27.1436 28.5614 26.6958 28.9702 26.217C29.2571 25.89 29.5732 25.5911 29.8841 25.2872C30.209 24.9667 30.5138 24.6351 30.8121 24.2896C31.1318 23.9244 31.469 23.5751 31.8028 23.2228C32.3605 22.6315 32.8911 22.018 33.4188 21.4C33.7538 21.0081 34.0904 20.6177 34.429 20.2289C34.9418 19.6398 35.4429 19.0432 35.9341 18.4359C36.0233 18.3273 36.1125 18.2188 36.2018 18.1104C36.8262 17.3503 37.4282 16.577 38.0123 15.7856C38.154 15.5943 38.2968 15.4038 38.4398 15.2135C39.1214 14.302 39.7695 13.3705 40.4022 12.4246C40.4933 12.2888 40.4933 12.2888 40.5863 12.1503C40.6402 12.0696 40.694 11.9889 40.7495 11.9057C40.9907 11.5703 40.9907 11.5703 41.1642 11.4329C41.7664 11.366 41.7664 11.366 42.095 11.5714C42.2721 11.8591 42.297 12.0835 42.228 12.408C42.0688 12.7258 41.868 13.0102 41.6629 13.3C41.6058 13.3828 41.5488 13.4655 41.49 13.5508C41.3237 13.7914 41.1556 14.0306 40.987 14.2695C40.9102 14.3802 40.8336 14.4908 40.757 14.6016C39.2451 16.7582 37.5894 18.8429 35.8664 20.8349C35.604 21.1387 35.3487 21.4468 35.0975 21.7601C34.6898 22.2629 34.2493 22.732 33.8066 23.2037C33.5574 23.4696 33.3167 23.7417 33.0784 24.0175C32.7513 24.3904 32.4131 24.7536 32.0769 25.1184C31.9443 25.2625 31.8122 25.4071 31.6802 25.5518C31.1808 26.0979 30.6726 26.6304 30.1427 27.1471C29.961 27.3331 29.7913 27.5201 29.6222 27.7171C29.3048 28.0811 28.9715 28.4254 28.6295 28.7663C28.5691 28.8267 28.5087 28.8872 28.4465 28.9495C28.3197 29.0764 28.1929 29.2031 28.0659 29.3297C27.8734 29.5217 27.6814 29.7142 27.4894 29.9067C27.3653 30.0308 27.2412 30.1548 27.117 30.2788C27.0323 30.3637 27.0323 30.3637 26.946 30.4504C26.6075 30.7871 26.259 31.1072 25.8967 31.4182C25.6704 31.6163 25.4624 31.8278 25.2523 32.043C24.9341 32.3655 24.6093 32.6732 24.2647 32.9672C23.9672 33.2288 23.6796 33.5006 23.3907 33.7716C22.9398 34.1941 22.4858 34.6103 22.0167 35.0127C21.9186 35.0978 21.8205 35.183 21.7224 35.2682C21.4351 35.5179 21.1474 35.767 20.8594 36.0159C20.6957 36.1576 20.5322 36.2996 20.3688 36.4417C19.8173 36.9197 19.2581 37.3836 18.6816 37.8311C18.3515 38.0877 18.0261 38.3491 17.7033 38.6148C14.2117 41.4844 10.0759 44.6504 5.61724 45.7388C5.51131 45.7663 5.51131 45.7663 5.40324 45.7942C4.4022 45.9394 3.23938 45.9707 2.33734 45.4729C2.281 45.4428 2.22467 45.4128 2.16663 45.3818C0.968172 44.6351 0.428565 43.1404 0.121191 41.8384C-0.173975 40.304 -0.0656824 38.4771 0.298483 36.9629C0.316095 36.8863 0.333707 36.8096 0.351852 36.7307C1.02073 33.8548 2.57277 28.5155 4.99672 26.5913C5.57736 26.4144 6.08921 26.5616 6.68099 26.68C7.2953 25.7585 7.2953 25.7585 7.92203 24.8184C7.52711 24.5112 7.52711 24.5112 7.12422 24.1979C6.98575 23.9209 7.00898 23.7065 7.03557 23.4001C7.1537 23.1847 7.26328 23.0146 7.41232 22.8239C7.45179 22.7711 7.49126 22.7183 7.53193 22.6639C7.66009 22.4941 7.79063 22.3264 7.92203 22.159C7.9661 22.1026 8.01016 22.0463 8.05556 21.9882C8.36142 21.5984 8.67273 21.2133 8.98578 20.8293C9.05526 20.7435 9.12473 20.6577 9.19632 20.5693C9.59847 20.0745 10.008 19.5862 10.4215 19.1009C10.6028 18.8877 10.7812 18.6733 10.9547 18.4536C11.1241 18.2453 11.2134 18.1613 11.4679 18.0813C11.9224 18.047 12.2755 18.1302 12.7089 18.2586C12.9829 18.2898 13.1038 18.2942 13.3287 18.1284C13.3838 18.069 13.4389 18.0096 13.4956 17.9483C13.5562 17.8839 13.6168 17.8194 13.6792 17.753C13.9032 17.5027 14.126 17.2515 14.3451 16.9968C14.5012 16.8182 14.6653 16.6499 14.8364 16.4857C14.7523 16.4199 14.6682 16.354 14.5816 16.2862C14.1972 15.9601 14.1972 15.9601 14.1272 15.6879C14.1123 15.2924 14.1364 15.0835 14.3782 14.7647C14.5998 14.5304 14.8287 14.3076 15.0636 14.0867C15.1418 14.0105 15.22 13.9344 15.3006 13.8559C15.7019 13.4677 16.1124 13.0926 16.535 12.7277C16.797 12.4987 17.0488 12.2589 17.3019 12.0201C17.8213 11.5338 18.3561 11.077 18.9141 10.635C18.9926 10.5712 19.0711 10.5073 19.152 10.4415C19.5059 10.164 19.8044 10.1459 20.2438 10.1918C20.4452 10.2542 20.6375 10.3257 20.8314 10.4082C21.1382 10.4805 21.3563 10.4436 21.6621 10.3691C21.8701 10.2362 22.0459 10.1104 22.2328 9.95358C22.333 9.87312 22.4332 9.79266 22.5334 9.71223C22.5813 9.67302 22.6292 9.63381 22.6786 9.59342C22.8598 9.4458 23.0441 9.30281 23.2301 9.16131C23.3101 9.09926 23.3101 9.09926 23.3918 9.03596C23.5237 8.95078 23.5237 8.95078 23.701 8.95078C23.701 8.89227 23.701 8.83376 23.701 8.77349C23.648 8.75337 23.595 8.73326 23.5403 8.71254C23.2837 8.55858 23.2019 8.42614 23.0805 8.15296C23.0358 7.79545 23.0264 7.61101 23.233 7.311C23.4334 7.09108 23.622 6.93959 23.8696 6.77618C23.9975 6.69121 23.9975 6.69121 24.128 6.60452C24.2193 6.54507 24.3106 6.48562 24.4046 6.42437C24.4996 6.36195 24.5945 6.29953 24.6923 6.23522C26.2168 5.23751 27.7615 4.30296 29.3743 3.45473C29.4521 3.41338 29.5298 3.37203 29.6099 3.32942C33.5482 1.24464 40.113 -1.39785 44.2021 1.71644ZM24.9254 9.71362C24.8562 9.7643 24.7869 9.81497 24.7156 9.86719C24.6441 9.9213 24.5725 9.9754 24.4988 10.0311C24.4273 10.0835 24.3558 10.1359 24.2821 10.1899C23.9457 10.4388 23.638 10.6884 23.3464 10.9896C25.5095 11.4625 25.5095 11.4625 27.7122 11.6323C27.8217 11.6336 27.8217 11.6336 27.9334 11.6348C28.2813 11.6329 28.4582 11.6299 28.7538 11.4329C28.2323 10.9091 27.6434 10.5695 26.988 10.2402C26.8243 10.1578 26.6614 10.074 26.4985 9.98994C25.7124 9.49892 25.7124 9.49892 24.9254 9.71362ZM15.9398 17.3969C15.8883 17.4491 15.8369 17.5012 15.7838 17.555C15.7334 17.6047 15.6829 17.6545 15.6309 17.7058C15.2941 18.0442 15.016 18.3954 14.7478 18.7905C16.1017 19.2817 17.556 19.4921 18.9806 19.6659C19.0722 19.6776 19.1638 19.6893 19.2581 19.7013C19.9227 19.776 20.5547 19.748 21.2189 19.6769C20.9056 18.9316 20.0189 18.5542 19.3297 18.2198C19.2461 18.1786 19.1625 18.1375 19.0764 18.095C17.4641 17.1476 17.4641 17.1476 15.9398 17.3969Z" fill="black"/>
<path d="M15.8989 21.5391C16.194 21.7572 16.3238 21.8845 16.392 22.2483C16.3288 22.5856 16.2467 22.7315 15.9876 22.9574C15.6601 23.0042 15.4564 22.9997 15.1565 22.8577C14.9535 22.6235 14.9299 22.4682 14.9238 22.1596C15.1395 21.6154 15.3075 21.4695 15.8989 21.5391Z" fill="black"/>
<path d="M32.1216 8.50785C32.4167 8.72596 32.5465 8.85323 32.6147 9.21702C32.5514 9.55431 32.4694 9.70025 32.2102 9.92619C31.8828 9.97297 31.679 9.96849 31.3792 9.82646C31.1762 9.59224 31.1525 9.43699 31.1465 9.12838C31.3621 8.58411 31.5302 8.43827 32.1216 8.50785Z" fill="black"/>
<path d="M10.0656 30.8456C10.4035 30.9343 10.4035 30.9343 10.5808 31.2002C10.6394 31.8156 10.6394 31.8156 10.4423 32.131C10.1421 32.3157 9.95199 32.3134 9.60572 32.264C9.38965 32.1255 9.38965 32.1255 9.25114 31.9094C9.18743 31.5201 9.20849 31.3528 9.42843 31.0229C9.70364 30.8395 9.75559 30.8185 10.0656 30.8456Z" fill="black"/>
<path d="M16.714 24.4633C17.052 24.552 17.052 24.552 17.2293 24.8179C17.2879 25.4333 17.2879 25.4333 17.0908 25.7487C16.7906 25.9334 16.6004 25.9311 16.2542 25.8816C16.0381 25.7431 16.0381 25.7431 15.8996 25.5271C15.8359 25.1377 15.8569 24.9705 16.0769 24.6406C16.3521 24.4571 16.404 24.4362 16.714 24.4633Z" fill="black"/>
<path d="M12.1925 22.3359C12.5305 22.4245 12.5305 22.4245 12.7078 22.6905C12.7664 23.3058 12.7664 23.3058 12.5693 23.6212C12.2691 23.806 12.0789 23.8037 11.7327 23.7542C11.5166 23.6157 11.5166 23.6157 11.3781 23.3996C11.3144 23.0103 11.3354 22.8431 11.5554 22.5132C11.8306 22.3297 11.8825 22.3088 12.1925 22.3359Z" fill="black"/>
<path d="M23.0958 13.56C23.4338 13.6486 23.4338 13.6486 23.6111 13.9146C23.6697 14.53 23.6697 14.53 23.4726 14.8454C23.1724 15.0301 22.9823 15.0278 22.636 14.9783C22.4199 14.8398 22.4199 14.8398 22.2814 14.6237C22.2177 14.2344 22.2388 14.0672 22.4587 13.7373C22.7339 13.5538 22.7859 13.5329 23.0958 13.56Z" fill="black"/>
<path d="M28.8476 6.86182C29.108 6.91168 29.108 6.91168 29.3185 7.04465C29.5208 7.35586 29.5344 7.61417 29.4626 7.97543C29.3241 8.19705 29.3241 8.19705 29.108 8.33001C28.7977 8.37988 28.7977 8.37988 28.4875 8.33001C28.2283 8.10407 28.1462 7.95813 28.083 7.62085C28.1671 7.17224 28.3995 6.94411 28.8476 6.86182Z" fill="black"/>
<path d="M32.5702 5.26611C32.8306 5.31598 32.8306 5.31598 33.0412 5.44895C33.2435 5.76016 33.257 6.01847 33.1852 6.37973C33.0467 6.60134 33.0467 6.60134 32.8306 6.73431C32.5204 6.78417 32.5204 6.78417 32.2101 6.73431C31.9509 6.50837 31.8689 6.36243 31.8057 6.02514C31.8898 5.57653 32.1222 5.34841 32.5702 5.26611Z" fill="black"/>
<path d="M6.85758 30.4919C7.05266 30.633 7.11483 30.7108 7.15884 30.9489C7.15816 31.0175 7.15747 31.0861 7.15676 31.1567C7.15745 31.2253 7.15813 31.2938 7.15884 31.3645C7.1154 31.5996 7.04387 31.676 6.85758 31.8215C6.5903 31.913 6.44948 31.92 6.17612 31.8437C5.97112 31.7329 5.97112 31.7329 5.79383 31.467C5.75673 31.1268 5.74539 30.9252 5.9268 30.6304C6.25913 30.4227 6.46846 30.4486 6.85758 30.4919Z" fill="black"/>
<path d="M23.966 16.2199C24.1611 16.361 24.2232 16.4388 24.2672 16.677C24.2666 16.7455 24.2659 16.8141 24.2652 16.8847C24.2658 16.9533 24.2665 17.0219 24.2672 17.0925C24.2238 17.3276 24.1523 17.404 23.966 17.5496C23.6987 17.641 23.5579 17.648 23.2845 17.5717C23.0795 17.4609 23.0795 17.4609 22.9022 17.195C22.8651 16.8549 22.8538 16.6532 23.0352 16.3584C23.3675 16.1507 23.5769 16.1766 23.966 16.2199Z" fill="black"/>
<path d="M19.8888 14.2697C20.0839 14.4108 20.1461 14.4886 20.1901 14.7268C20.1894 14.7953 20.1887 14.8639 20.188 14.9345C20.1887 15.0031 20.1894 15.0717 20.1901 15.1423C20.1466 15.3774 20.0751 15.4538 19.8888 15.5994C19.6215 15.6908 19.4807 15.6978 19.2074 15.6215C19.0024 15.5107 19.0024 15.5107 18.8251 15.2448C18.788 14.9047 18.7766 14.703 18.9581 14.4082C19.2904 14.2005 19.4997 14.2265 19.8888 14.2697Z" fill="black"/>
<path d="M5.61607 33.9482C5.78782 34.0424 5.78782 34.0424 5.882 34.2142C5.95188 34.5098 5.99088 34.7412 5.92633 35.0397C5.70798 35.2853 5.49078 35.3181 5.17284 35.3666C4.90988 35.2614 4.77794 35.1644 4.60772 34.94C4.53028 34.6689 4.56632 34.484 4.64096 34.2142C4.8493 33.8465 5.24039 33.8926 5.61607 33.9482Z" fill="black"/>
</g>
<defs>
<clipPath id="clip0_358_881">
<rect width="45.3867" height="45.3867" fill="white" transform="translate(0.03125 0.44043)"/>
</clipPath>
</defs>
</svg>
