<svg width="46" height="46" viewBox="0 0 46 46" fill="none" xmlns="http://www.w3.org/2000/svg">
<g clip-path="url(#clip0_358_895)">
<path d="M22.7226 0.679098C22.8163 0.67926 22.91 0.679422 23.0066 0.679588C24.3889 0.683599 25.7363 0.724447 27.0995 0.972738C27.1898 0.988422 27.2802 1.00411 27.3733 1.02026C28.6644 1.24751 29.9291 1.54652 31.1772 1.94784C31.2535 1.97235 31.3299 1.99686 31.4085 2.02212C34.6151 3.07418 37.4814 4.77548 39.8975 7.12644C40.0274 7.25257 40.1588 7.37708 40.2904 7.50137C42.3872 9.51976 44.4367 12.8986 44.4963 15.8874C44.4741 16.2198 44.4741 16.2198 44.4409 16.4345C44.3682 16.934 44.3944 17.1925 44.6459 17.6281C45.0194 18.3711 44.9878 19.3197 44.7556 20.0998C44.3838 21.0801 43.7922 21.7683 42.8712 22.2613C42.7012 22.3364 42.7012 22.3364 42.5239 22.3364C42.5531 23.0677 42.5824 23.7991 42.6125 24.5525C42.9051 24.6988 43.1976 24.8451 43.499 24.9958C43.767 25.198 43.767 25.198 43.9755 25.3947C44.0456 25.4596 44.1158 25.5245 44.1881 25.5914C44.5386 25.9505 44.794 26.308 45.0171 26.7576C45.0612 26.8451 45.1053 26.9327 45.1507 27.0229C45.595 28.0409 45.6381 29.4057 45.3052 30.4697C45.1378 30.8841 44.9182 31.2645 44.6753 31.639C44.5495 31.8274 44.5495 31.8274 44.4741 32.0875C44.5394 32.2743 44.5394 32.2743 44.6403 32.4753C45.0171 33.3729 45.0045 34.3387 44.651 35.2396C44.381 35.8252 44.381 35.8252 44.1454 36.0324C43.791 36.3591 43.6422 36.6147 43.6083 37.104C43.5982 37.4284 43.5995 37.752 43.6043 38.0766C43.605 38.3371 43.6041 38.5976 43.6025 38.8581C43.6021 38.9541 43.6021 38.9541 43.6017 39.0519C43.5816 40.9365 43.0334 42.5076 41.7538 43.8995C40.3667 45.2013 38.6942 45.6784 36.8301 45.674C36.7039 45.6743 36.5776 45.6747 36.4513 45.6752C36.1064 45.6763 35.7614 45.6763 35.4164 45.6761C35.0436 45.676 34.6707 45.677 34.2979 45.6778C33.5681 45.6793 32.8384 45.6798 32.1086 45.6799C31.515 45.68 30.9215 45.6803 30.3279 45.6809C28.6431 45.6825 26.9582 45.6833 25.2733 45.6832C25.1372 45.6831 25.1372 45.6831 24.9984 45.6831C24.9075 45.6831 24.8167 45.6831 24.723 45.6831C23.2514 45.683 21.7798 45.6847 20.3082 45.6872C18.7952 45.6898 17.2822 45.691 15.7691 45.6908C14.9205 45.6908 14.0719 45.6913 13.2232 45.6932C12.5005 45.6948 11.7778 45.6952 11.0551 45.694C10.6869 45.6934 10.3187 45.6934 9.95047 45.6949C9.6124 45.6963 9.27437 45.6961 8.93631 45.6945C8.75815 45.6941 8.57998 45.6955 8.40183 45.6969C6.58202 45.6833 4.96057 45.0417 3.66131 43.7551C2.32471 42.334 1.91946 40.6744 1.90606 38.7674C1.90547 38.6939 1.90489 38.6204 1.90429 38.5446C1.90247 38.2417 1.90134 37.9389 1.90368 37.6361C1.9092 36.6926 1.88196 36.0601 1.30354 35.2787C0.9586 34.3665 0.956347 33.5788 1.25402 32.6619C1.30817 32.4215 1.30803 32.3136 1.2149 32.0875C1.08534 31.9103 1.08534 31.9103 0.926796 31.7329C0.0161401 30.603 -0.0324061 29.3082 0.0624983 27.9211C0.132674 27.5345 0.24284 27.2085 0.417082 26.8573C0.454677 26.7807 0.492272 26.704 0.531006 26.625C1.04515 25.6841 1.87001 24.8956 2.89917 24.5525C2.9146 24.1611 2.92406 23.7697 2.93241 23.378C2.93687 23.2668 2.94132 23.1556 2.94591 23.0411C2.95077 22.7386 2.9494 22.4576 2.89917 22.1591C2.66809 21.912 2.66809 21.912 2.36729 21.8045C1.57309 21.1468 1.12118 20.3059 1.0151 19.2826C0.992075 18.7739 1.07557 18.3668 1.23152 17.8819C1.38315 17.426 1.38315 17.426 1.28692 16.9678C1.20739 16.8169 1.20739 16.8169 1.12625 16.6631C0.608993 14.4985 2.09468 11.8726 3.16164 10.0766C4.23827 8.39806 5.65486 6.8741 7.24282 5.67097C7.28964 5.63463 7.33646 5.5983 7.3847 5.56086C10.7058 2.98771 14.7925 1.43459 18.9441 0.884092C19.0013 0.876457 19.0585 0.868821 19.1174 0.860954C20.3196 0.705154 21.5114 0.674754 22.7226 0.679098ZM18.5895 2.8343C18.5027 2.84999 18.4159 2.86567 18.3264 2.88183C15.9146 3.3236 13.5714 4.06087 11.4092 5.22774C11.3203 5.27522 11.3203 5.27522 11.2295 5.32366C9.67506 6.15802 8.29945 7.17613 7.01566 8.38761C6.89821 8.49825 6.77969 8.60775 6.66108 8.71714C4.77954 10.5112 3.32419 13.1136 2.89917 15.688C2.90582 16.0871 2.93825 16.2482 3.19281 16.5578C3.61338 16.9001 3.87333 16.9512 4.42005 16.9518C4.48434 16.9521 4.54862 16.9524 4.61485 16.9528C4.83139 16.9536 5.04791 16.9531 5.26446 16.9527C5.42082 16.953 5.57718 16.9534 5.73354 16.9539C6.16412 16.955 6.5947 16.955 7.02528 16.9548C7.48931 16.9547 7.95334 16.9557 8.41736 16.9566C9.32683 16.958 10.2363 16.9585 11.1458 16.9586C11.8848 16.9587 12.6239 16.9591 13.363 16.9596C15.4573 16.9612 17.5516 16.962 19.6459 16.9619C19.8153 16.9619 19.8153 16.9619 19.9882 16.9619C20.1013 16.9618 20.2144 16.9618 20.3309 16.9618C22.1643 16.9618 23.9976 16.9635 25.8309 16.966C27.7122 16.9685 29.5936 16.9697 31.4749 16.9696C32.5316 16.9695 33.5882 16.97 34.6449 16.9719C35.5445 16.9735 36.4442 16.9739 37.3438 16.9727C37.8029 16.9721 38.2621 16.9721 38.7212 16.9737C39.1414 16.975 39.5616 16.9748 39.9819 16.9733C40.134 16.973 40.2861 16.9733 40.4382 16.9743C40.6449 16.9755 40.8515 16.9746 41.0582 16.9731C41.2304 16.9732 41.2304 16.9732 41.4061 16.9732C41.8069 16.9178 42.0127 16.8006 42.3466 16.5744C42.576 16.2662 42.6125 16.089 42.6125 15.7046C42.282 13.6086 41.2516 11.6619 39.9532 10.0146C39.8733 9.90749 39.8733 9.90749 39.7918 9.7982C38.9147 8.64578 37.8355 7.67868 36.6733 6.82337C36.5981 6.76738 36.5229 6.71138 36.4454 6.65369C35.8098 6.1943 35.1355 5.79709 34.4571 5.40503C34.4054 5.37474 34.3537 5.34444 34.3004 5.31323C31.2602 3.54678 27.4014 2.56793 23.8909 2.55036C23.8074 2.54974 23.7239 2.54911 23.6378 2.54847C23.3697 2.54693 23.1016 2.54636 22.8334 2.5462C22.7418 2.54614 22.6502 2.54608 22.5558 2.54602C21.2137 2.54742 19.9116 2.58365 18.5895 2.8343ZM42.4325 18.5669C41.7515 18.7733 41.0552 18.7381 40.3511 18.7345C40.1932 18.7347 40.0354 18.735 39.8775 18.7354C39.4453 18.7361 39.013 18.7353 38.5808 18.7341C38.1141 18.7331 37.6473 18.7337 37.1806 18.7341C36.2669 18.7346 35.3532 18.7337 34.4395 18.7323C33.3755 18.7307 32.3114 18.7306 31.2473 18.7305C29.3488 18.7304 27.4504 18.729 25.5519 18.7269C23.7097 18.7248 21.8675 18.7235 20.0253 18.7232C19.8551 18.7232 19.8551 18.7232 19.6814 18.7232C19.4528 18.7231 19.2242 18.7231 18.9955 18.723C18.8828 18.723 18.77 18.723 18.6538 18.723C18.5413 18.723 18.4288 18.7229 18.3129 18.7229C16.5572 18.7226 14.8015 18.7216 13.0458 18.7205C12.4095 18.7201 11.7732 18.7198 11.1368 18.7195C10.1276 18.7192 9.11843 18.7185 8.10922 18.7172C7.64808 18.7166 7.18695 18.7161 6.72582 18.7161C6.30371 18.716 5.8816 18.7155 5.45949 18.7147C5.30679 18.7145 5.15409 18.7144 5.00139 18.7145C4.79374 18.7146 4.5861 18.7142 4.37845 18.7136C4.26314 18.7135 4.14783 18.7134 4.02902 18.7132C3.67577 18.7012 3.33765 18.6622 2.98781 18.6133C2.84817 19.1084 2.92467 19.4977 3.16511 19.943C3.54339 20.3744 3.96034 20.6985 4.54293 20.7674C5.0608 20.7697 5.48855 20.7026 5.97961 20.5399C7.06301 20.1863 8.41117 20.3064 9.44442 20.7633C9.98383 21.0469 10.4837 21.389 10.9815 21.7394C11.7012 22.1814 12.5887 22.2499 13.4013 22.0573C14.0159 21.8502 14.5507 21.484 15.088 21.1286C16.2233 20.3934 17.4757 20.2549 18.7955 20.4239C19.7885 20.64 20.6404 21.2053 21.476 21.7619C22.1963 22.1994 23.0233 22.2354 23.8359 22.0632C24.4113 21.8756 24.9041 21.5235 25.4052 21.192C26.6476 20.3758 28.0185 20.1895 29.4763 20.4859C30.3582 20.7194 31.075 21.2197 31.8133 21.7394C32.533 22.1814 33.4205 22.2499 34.2331 22.0573C34.8477 21.8502 35.3825 21.484 35.9198 21.1286C36.9595 20.4553 38.2073 20.1929 39.4327 20.4214C39.6166 20.4652 39.7987 20.5128 39.9809 20.5635C40.676 20.7561 41.3345 20.9004 42.0197 20.6023C42.4565 20.3449 42.7885 20.0311 42.9536 19.5441C43.044 19.1418 43.0655 18.8397 42.9671 18.436C42.7591 18.436 42.628 18.4949 42.4325 18.5669ZM5.86188 22.4275C5.55855 22.5137 5.55854 22.5137 4.84938 22.6023C4.84938 23.1582 4.84938 23.714 4.84938 24.2866C16.6677 24.2866 28.4859 24.2866 40.6623 24.2866C40.6623 23.7308 40.6623 23.175 40.6623 22.6023C39.0544 22.0722 39.0544 22.0722 37.4087 22.3208C37.0585 22.5001 36.7414 22.7273 36.4184 22.951C35.2203 23.7433 33.9123 24.076 32.4847 23.8766C31.5984 23.6939 30.8522 23.3039 30.1119 22.7983C29.3147 22.2577 28.5894 22.0807 27.6314 22.1591C26.9236 22.3032 26.3481 22.6933 25.7494 23.0763C24.4386 23.9148 23.1497 24.0445 21.6291 23.8056C20.8263 23.6096 20.1161 23.0822 19.4323 22.6352C18.6623 22.1334 17.8625 22.0463 16.9568 22.1941C16.4373 22.3408 16.0262 22.6466 15.5866 22.951C14.3885 23.7433 13.0805 24.076 11.653 23.8766C10.8032 23.7005 10.1102 23.3469 9.40356 22.8572C8.24359 22.0571 7.2052 21.9876 5.86188 22.4275ZM2.10135 27.6552C1.75869 28.4667 1.8009 29.237 2.07573 30.06C2.35531 30.7154 2.8938 31.1791 3.53214 31.4747C4.17695 31.7257 4.83904 31.691 5.51929 31.6845C5.66614 31.6844 5.81299 31.6844 5.95985 31.6846C6.35614 31.6847 6.75239 31.6827 7.14868 31.6802C7.5637 31.678 7.97872 31.6777 8.39375 31.6773C9.1786 31.6762 9.96343 31.6733 10.7483 31.6698C11.6422 31.6658 12.5362 31.6638 13.4302 31.6621C15.2681 31.6584 17.1061 31.6521 18.9441 31.6442C18.5429 31.169 18.5429 31.169 18.1158 30.7173C18.0644 30.6658 18.013 30.6144 17.96 30.5615C17.9065 30.5084 17.853 30.4554 17.7979 30.4008C17.7416 30.3446 17.6853 30.2884 17.6273 30.2305C17.4496 30.0533 17.2716 29.8764 17.0936 29.6996C16.9721 29.5786 16.8507 29.4575 16.7293 29.3365C16.4336 29.0417 16.1376 28.7473 15.8415 28.453C15.4508 28.7801 15.0789 29.1168 14.7206 29.4797C14.6766 29.524 14.6327 29.5683 14.5874 29.6139C14.4493 29.753 14.3115 29.8925 14.1738 30.032C13.9907 30.2175 13.8072 30.4027 13.6236 30.5877C13.5431 30.6693 13.4625 30.7509 13.3795 30.8349C13.0958 31.1062 12.8865 31.1606 12.4896 31.1529C11.8087 31.0106 11.238 30.114 10.8042 29.6219C8.79704 27.1255 8.79704 27.1255 6.05594 25.8309C4.55509 25.8023 2.8678 26.2697 2.10135 27.6552ZM9.90219 26.1482C10.2365 26.5475 10.5813 26.9284 10.9514 27.2947C11.0211 27.3642 11.0211 27.3642 11.0922 27.4351C11.2383 27.5807 11.3847 27.726 11.5311 27.8712C11.6312 27.9709 11.7312 28.0705 11.8313 28.1702C12.0745 28.4125 12.3179 28.6544 12.5616 28.8962C12.8597 28.767 13.0531 28.6027 13.2804 28.3719C13.3473 28.3045 13.4141 28.2371 13.483 28.1676C13.5864 28.0621 13.5864 28.0621 13.6918 27.9543C13.7621 27.8833 13.8324 27.8122 13.9048 27.739C14.078 27.5637 14.2507 27.388 14.4231 27.2119C14.2034 26.749 13.9961 26.4025 13.5367 26.1482C12.9281 26.0274 12.2913 26.0817 11.6751 26.1039C11.5033 26.1074 11.3314 26.1106 11.1595 26.1136C10.7402 26.1213 10.3213 26.1335 9.90219 26.1482ZM16.1961 26.1482C16.6047 26.63 16.6047 26.63 17.0342 27.0856C17.0886 27.1402 17.1431 27.1947 17.1991 27.2509C17.2858 27.3371 17.2858 27.3371 17.3742 27.425C17.4365 27.4874 17.4989 27.5497 17.5631 27.614C17.7672 27.818 17.9716 28.0217 18.176 28.2255C18.3184 28.3677 18.4607 28.5099 18.6031 28.6521C18.9762 29.0249 19.3497 29.3975 19.7231 29.77C20.1048 30.1507 20.4862 30.5317 20.8676 30.9127C21.615 31.6591 22.3626 32.4053 23.1104 33.1512C23.5331 32.7987 23.9318 32.4307 24.3191 32.0399C24.3742 31.9846 24.4294 31.9293 24.4862 31.8723C24.6049 31.7533 24.7235 31.6342 24.842 31.515C25.0301 31.3257 25.2184 31.1368 25.4069 30.948C25.8747 30.4789 26.342 30.0095 26.8094 29.54C27.205 29.1426 27.6007 28.7455 27.9968 28.3486C28.1814 28.1634 28.3657 27.978 28.55 27.7925C29.567 26.7717 29.567 26.7717 30.093 26.3354C30.129 26.3029 30.165 26.2703 30.2021 26.2368C30.2021 26.2076 30.2021 26.1783 30.2021 26.1482C25.5801 26.1482 20.9581 26.1482 16.1961 26.1482ZM29.4242 29.4591C29.1897 29.8213 28.9276 30.0872 28.5934 30.3585C28.329 30.5732 28.0927 30.8154 27.853 31.0569C27.8055 31.1041 27.7579 31.1513 27.7089 31.2C27.4727 31.3902 27.4727 31.3902 27.3654 31.6442C29.1878 31.6525 31.0103 31.6588 32.8327 31.6626C33.6789 31.6644 34.5251 31.6669 35.3714 31.671C36.1092 31.6745 36.847 31.6768 37.5848 31.6776C37.9753 31.678 38.3657 31.6791 38.7561 31.6817C39.1242 31.6841 39.4921 31.6849 39.8602 31.6843C39.9947 31.6844 40.1293 31.6851 40.2639 31.6865C41.3072 31.6966 42.1262 31.5687 42.9062 30.8343C43.1294 30.5878 43.2658 30.3488 43.4104 30.0486C43.4625 29.9444 43.4625 29.9444 43.5156 29.8381C43.7588 29.0522 43.6849 28.299 43.3494 27.5499C43.0019 26.9151 42.4863 26.4944 41.8147 26.2368C41.4442 26.1341 41.0717 26.1078 40.6896 26.079C40.6116 26.0731 40.5336 26.0672 40.4533 26.0611C39.427 25.9869 38.3998 25.9408 37.3713 25.9099C37.2728 25.907 37.1742 25.904 37.0727 25.9009C33.4717 25.8058 31.4176 26.3046 29.4242 29.4591ZM42.1626 33.2834C41.4337 33.4688 40.7175 33.4438 39.9723 33.4301C39.8158 33.4283 39.6593 33.4267 39.5028 33.4251C39.1676 33.4217 38.8324 33.4175 38.4972 33.4129C37.9657 33.4059 37.4342 33.4024 36.9027 33.3998C36.7675 33.3991 36.7675 33.3991 36.6297 33.3983C36.4456 33.3974 36.2615 33.3965 36.0774 33.3955C34.8416 33.3892 33.6059 33.3807 32.3702 33.3621C31.5343 33.3496 30.6985 33.3429 29.8626 33.3426C29.4213 33.3423 28.9805 33.3391 28.5393 33.3288C26.4302 33.1993 26.4303 33.1993 24.6108 34.0796C24.3619 34.351 24.1394 34.6288 23.9384 34.9374C23.7859 35.1479 23.6338 35.2608 23.3781 35.3178C22.9791 35.3397 22.7311 35.3044 22.4234 35.0405C22.2054 34.8286 22.0065 34.6103 21.8166 34.3736C21.3894 33.8645 21.0072 33.4584 20.3239 33.3763C19.9562 33.3561 19.5913 33.3607 19.2233 33.3696C19.0577 33.3694 18.8922 33.3686 18.7267 33.3674C18.2802 33.3654 17.8341 33.3705 17.3877 33.3769C16.919 33.3823 16.4504 33.381 15.9817 33.3803C15.0946 33.3801 14.2076 33.3856 13.3205 33.3933C12.0193 33.4044 10.7181 33.4066 9.41688 33.4091C9.2244 33.4095 9.03192 33.4099 8.83944 33.4103C8.69842 33.4105 8.69842 33.4105 8.55455 33.4108C7.99767 33.4121 7.44082 33.4149 6.88395 33.4192C6.53718 33.4218 6.1904 33.4237 5.84363 33.4255C5.68347 33.4266 5.52331 33.4279 5.36315 33.4296C4.58086 33.4378 3.84005 33.437 3.07646 33.2398C2.85697 33.6529 2.88529 33.9408 2.98781 34.3922C3.22314 34.9708 3.59098 35.2565 4.14021 35.5446C4.72175 35.7257 5.18761 35.6456 5.75246 35.456C6.92169 35.104 8.3479 35.0968 9.45897 35.6333C9.82879 35.8415 10.1851 36.0686 10.5383 36.3037C11.473 36.9176 12.4064 37.1336 13.5145 36.9148C14.059 36.7189 14.5219 36.3721 14.995 36.0459C16.2042 35.2209 17.5913 35.0955 19.0192 35.3362C19.7064 35.5316 20.2939 35.8736 20.8943 36.2538C21.0528 36.3522 21.2116 36.4501 21.3708 36.5475C21.4373 36.5892 21.5038 36.6309 21.5723 36.6738C22.2772 37.052 23.1014 37.0752 23.876 36.9145C24.4353 36.7132 24.9261 36.3656 25.4235 36.0459C26.6811 35.2445 28.0023 35.1123 29.467 35.3268C30.1763 35.5169 30.7649 35.9008 31.3701 36.3037C32.3048 36.9176 33.2381 37.1336 34.3463 36.9148C34.8899 36.7193 35.349 36.3726 35.8203 36.0459C36.2854 35.729 36.7492 35.5164 37.2938 35.3674C37.3482 35.352 37.4027 35.3367 37.4588 35.3209C38.4489 35.1005 39.5478 35.2388 40.4958 35.5533C41.0944 35.7409 41.6171 35.6492 42.1693 35.3674C42.6223 35.0799 42.8225 34.7821 43.0073 34.2783C43.0875 33.88 42.9988 33.5333 42.8785 33.1512C42.6045 33.1512 42.4235 33.2046 42.1626 33.2834ZM6.06272 37.2289C5.302 37.4583 4.57383 37.4387 3.78563 37.4062C3.75407 39.4072 3.73236 41.1076 5.20396 42.6363C6.2307 43.596 7.47301 43.8156 8.82587 43.8124C8.95072 43.8128 9.07556 43.8132 9.2004 43.8136C9.54223 43.8147 9.88406 43.8147 10.2259 43.8145C10.5951 43.8145 10.9642 43.8154 11.3334 43.8163C12.0562 43.8177 12.779 43.8182 13.5019 43.8183C14.0896 43.8184 14.6774 43.8188 15.2652 43.8193C16.9328 43.8209 18.6005 43.8217 20.2681 43.8216C20.3579 43.8216 20.4478 43.8216 20.5404 43.8216C20.6303 43.8216 20.7203 43.8216 20.813 43.8215C22.2705 43.8215 23.7279 43.8232 25.1854 43.8257C26.6831 43.8282 28.1808 43.8294 29.6785 43.8293C30.5188 43.8292 31.3592 43.8297 32.1996 43.8316C32.9152 43.8332 33.6308 43.8336 34.3464 43.8324C34.7111 43.8318 35.0759 43.8318 35.4407 43.8334C35.7753 43.8348 36.1099 43.8345 36.4445 43.833C36.6215 43.8326 36.7984 43.8339 36.9754 43.8353C38.2698 43.8255 39.4467 43.4327 40.4044 42.5473C41.5345 41.3664 41.7444 40.0281 41.7316 38.4644C41.731 38.324 41.731 38.324 41.7304 38.1806C41.7294 37.952 41.7279 37.7234 41.7261 37.4949C41.6509 37.4926 41.5757 37.4903 41.4982 37.4879C40.9167 37.4598 40.4251 37.4029 39.8701 37.2234C39.0093 36.9596 38.0907 36.8888 37.2567 37.276C36.9145 37.4707 36.587 37.6872 36.2595 37.9055C35.0095 38.7272 33.6346 38.9379 32.1686 38.6753C31.3612 38.4412 30.6527 38.0414 29.9639 37.5669C29.1546 37.0259 28.4114 36.9698 27.4541 37.0516C26.7964 37.1843 26.2774 37.5937 25.7363 37.9687C25.2712 38.2856 24.8075 38.4982 24.2628 38.6473C24.2085 38.6626 24.1541 38.6779 24.098 38.6937C22.6878 39.0073 21.2815 38.6595 20.0778 37.9211C19.7883 37.7334 19.5023 37.5415 19.2218 37.3408C18.5303 36.9317 17.6148 36.9439 16.8429 37.1001C16.2865 37.3007 15.7964 37.6505 15.3013 37.9687C14.0799 38.7471 12.7616 38.9305 11.3368 38.6753C10.5295 38.4412 9.82094 38.0414 9.13208 37.5669C8.16848 36.9216 7.16409 36.8969 6.06272 37.2289Z" fill="black"/>
<path d="M27.8035 4.77845C27.94 4.80746 27.94 4.80746 28.0793 4.83706C32.3842 5.80017 36.8127 8.15558 39.2443 11.9643C40.3638 13.7936 40.3638 13.7936 40.2194 14.6237C39.9957 14.9491 39.8497 15.0455 39.4715 15.1556C39.0878 15.1556 38.9429 15.1042 38.6238 14.8896C38.4349 14.6241 38.293 14.3384 38.1473 14.0475C37.5943 12.9952 36.9604 12.122 36.1417 11.2551C36.0536 11.1585 36.0536 11.1585 35.9637 11.0598C34.9075 9.94339 33.5871 9.13765 32.2413 8.41847C32.1809 8.38605 32.1206 8.35363 32.0584 8.32022C30.3944 7.44269 28.5564 6.91107 26.7159 6.55929C25.8357 6.38448 25.8357 6.38448 25.5042 6.02503C25.3623 5.74121 25.3713 5.44655 25.4156 5.13857C25.9568 4.29062 26.9476 4.59585 27.8035 4.77845Z" fill="black"/>
<path d="M19.0329 11.7876C19.2772 11.9809 19.4261 12.1308 19.5648 12.4081C19.5979 12.7594 19.5993 12.9665 19.4262 13.2779C19.1484 13.5273 18.9597 13.5989 18.5896 13.6491C18.235 13.5486 18.0349 13.4617 17.7974 13.1782C17.6835 12.8901 17.6592 12.7156 17.7032 12.4081C18.046 11.8024 18.3541 11.6797 19.0329 11.7876Z" fill="black"/>
<path d="M10.1686 11.7876C10.4129 11.9809 10.5618 12.1308 10.7005 12.4081C10.7336 12.7594 10.735 12.9665 10.562 13.2779C10.2841 13.5273 10.0955 13.5989 9.72539 13.6491C9.37071 13.5486 9.17067 13.4617 8.93311 13.1782C8.81923 12.8901 8.79499 12.7156 8.83893 12.4081C9.18178 11.8024 9.48982 11.6797 10.1686 11.7876Z" fill="black"/>
<path d="M25.3257 12.4086C25.6511 12.6323 25.7475 12.7783 25.8575 13.1565C25.8575 13.5194 25.7884 13.702 25.5916 14.0042C25.2354 14.2417 24.9466 14.2432 24.5278 14.1815C24.2734 14.0225 24.1297 13.9171 23.996 13.6496C23.9445 13.0212 23.9445 13.0212 24.1622 12.6801C24.5079 12.3446 24.8617 12.3389 25.3257 12.4086Z" fill="black"/>
<path d="M22.7563 4.07483C23.0242 4.25721 23.1721 4.38504 23.239 4.7092C23.2572 5.0731 23.2294 5.26809 23.0333 5.58181C22.7431 5.85491 22.5381 5.87734 22.1392 5.87372C21.8582 5.83334 21.7086 5.69233 21.5152 5.49316C21.3612 5.18509 21.3738 4.85413 21.4266 4.51806C21.8184 4.00982 22.1405 3.92619 22.7563 4.07483Z" fill="black"/>
<path d="M14.6001 8.59602C14.8189 8.78676 14.9318 8.9226 14.9883 9.21031C15.0083 9.55195 14.9765 9.71436 14.7885 10.0088C14.5042 10.2848 14.2981 10.3166 13.9003 10.3108C13.5554 10.2545 13.413 10.0965 13.1818 9.83707C13.0562 9.49705 13.0867 9.32903 13.1818 8.97831C13.5316 8.3989 14.0037 8.32591 14.6001 8.59602Z" fill="black"/>
<path d="M21.515 8.5961C21.79 8.85277 21.8469 9.11228 21.8696 9.48256C21.8005 9.77278 21.7061 9.91072 21.5039 10.1308C21.1723 10.3254 20.9159 10.3579 20.5399 10.2804C20.2908 10.1214 20.1401 10.0128 20.008 9.74849C19.9572 9.12914 19.9572 9.12914 20.1521 8.78447C20.6023 8.38161 20.964 8.36737 21.515 8.5961Z" fill="black"/>
</g>
<defs>
<clipPath id="clip0_358_895">
<rect width="45.3867" height="45.3867" fill="white" transform="translate(0.0625 0.44043)"/>
</clipPath>
</defs>
</svg>
