<svg width="46" height="46" viewBox="0 0 46 46" fill="none" xmlns="http://www.w3.org/2000/svg">
<g clip-path="url(#clip0_358_904)">
<path d="M7.98217 0.440614C8.35089 0.625495 8.51615 0.803427 8.71592 1.1619C8.76808 1.25406 8.82025 1.34622 8.87399 1.44117C8.9289 1.54064 8.98381 1.64011 9.04038 1.7426C9.09906 1.84696 9.15787 1.95124 9.2168 2.05546C9.33786 2.26968 9.45847 2.48415 9.57879 2.69879C9.8386 3.16093 10.1073 3.61787 10.3756 4.0751C11.391 5.81226 12.3932 7.55704 13.3896 9.30521C13.4123 9.2459 13.435 9.18659 13.4585 9.12549C13.9304 7.94165 14.4851 6.80336 15.3398 5.84802C15.4026 5.77363 15.4655 5.69924 15.5302 5.62259C17.2089 3.67595 19.6553 2.61715 22.1866 2.41333C24.732 2.25312 27.1007 3.11386 29.0799 4.69562C29.1839 4.77738 29.1839 4.77738 29.2901 4.86079C31.16 6.41741 32.2612 8.85443 32.5149 11.2388C32.5631 11.9835 32.5854 12.7356 32.4484 13.4716C32.5508 13.488 32.6532 13.5045 32.7587 13.5214C34.9389 14.0169 36.9103 15.6182 38.1218 17.4606C38.726 18.4424 39.1663 19.4477 39.4515 20.5632C39.472 20.6377 39.4926 20.7122 39.5138 20.789C39.8526 22.1928 39.7044 23.6687 39.5401 25.0842C39.6001 25.1066 39.6601 25.1289 39.7219 25.152C39.8011 25.1824 39.8803 25.2128 39.9619 25.2442C40.0402 25.2739 40.1185 25.3036 40.1991 25.3341C40.7207 25.574 41.0286 25.9655 41.2632 26.4804C41.4833 27.1083 41.5089 27.7201 41.2576 28.3419C40.8925 29.0531 40.4773 29.4357 39.7174 29.6938C39.3343 29.8059 38.9615 29.7891 38.565 29.7824C38.5612 29.8332 38.5574 29.884 38.5534 29.9364C38.4988 30.57 38.3835 31.1825 38.2536 31.8046C38.2197 31.97 38.2197 31.97 38.185 32.1387C38.1233 32.439 38.061 32.7393 37.9987 33.0395C37.9329 33.3564 37.8676 33.6734 37.8023 33.9904C37.6923 34.5237 37.582 35.0569 37.4714 35.5901C37.3447 36.2012 37.2184 36.8124 37.0924 37.4236C36.9571 38.0802 36.8214 38.7368 36.6856 39.3933C36.6472 39.5794 36.6087 39.7656 36.5703 39.9518C36.4308 40.6277 36.2898 41.3033 36.1467 41.9784C36.1049 42.1773 36.0635 42.3763 36.0227 42.5754C35.9677 42.8442 35.9109 43.1126 35.8538 43.381C35.8309 43.4961 35.8309 43.4961 35.8075 43.6135C35.6634 44.274 35.3737 44.8348 34.853 45.2788C34.7983 45.3269 34.7437 45.375 34.6874 45.4246C34.1148 45.8159 33.634 45.8661 32.9568 45.8623C32.8212 45.8631 32.8212 45.8631 32.6828 45.8639C32.3806 45.8654 32.0783 45.865 31.776 45.8645C31.559 45.8652 31.3421 45.866 31.1251 45.8668C30.5972 45.8686 30.0693 45.8691 29.5415 45.8689C29.1122 45.8688 28.683 45.8692 28.2537 45.8698C28.1299 45.87 28.0061 45.8702 27.8823 45.8704C27.8206 45.8705 27.759 45.8706 27.6955 45.8707C26.5307 45.8723 25.366 45.8722 24.2012 45.8716C23.1367 45.8711 22.0723 45.873 21.0079 45.8759C19.9138 45.8789 18.8197 45.8803 17.7256 45.8798C17.1118 45.8796 16.4981 45.8801 15.8843 45.8823C15.3069 45.8844 14.7296 45.8841 14.1522 45.8823C13.9406 45.882 13.729 45.8825 13.5174 45.8837C13.2279 45.8854 12.9385 45.8842 12.6491 45.8824C12.5658 45.8835 12.4826 45.8846 12.3969 45.8858C11.6385 45.8757 11.0389 45.6007 10.4753 45.096C9.88843 44.455 9.74627 43.6228 9.58126 42.7952C9.5574 42.6791 9.53347 42.5629 9.50946 42.4467C9.44491 42.1333 9.38148 41.8196 9.31825 41.5059C9.25141 41.1753 9.18352 40.8449 9.11573 40.5145C8.98735 39.8878 8.85988 39.261 8.73276 38.6341C8.57523 37.8574 8.41652 37.0809 8.2578 36.3045C8.09526 35.5092 7.93282 34.7139 7.77116 33.9184C7.74626 33.7959 7.72136 33.6735 7.69647 33.5511C7.64903 33.3178 7.60167 33.0845 7.55435 32.8512C7.45447 32.36 7.35365 31.8692 7.24781 31.3792C7.2309 31.3007 7.21399 31.2223 7.19657 31.1414C7.16625 31.0015 7.13554 30.8617 7.10433 30.7221C7.03513 30.4034 6.9908 30.1088 7.00706 29.7824C6.85897 29.7906 6.85897 29.7906 6.70788 29.799C6.04175 29.7979 5.3912 29.5921 4.87956 29.1619C4.33856 28.5546 4.12417 28.0172 4.14304 27.2006C4.21218 26.5564 4.47051 26.0138 4.95386 25.5793C5.16539 25.4242 5.36534 25.337 5.6102 25.2442C5.68937 25.2137 5.76855 25.1833 5.85012 25.152C5.94013 25.1184 5.94013 25.1184 6.03196 25.0842C6.02612 25.0339 6.02029 24.9837 6.01427 24.9319C5.76448 22.7132 5.77224 20.4401 6.91842 18.4357C7.23806 18.2463 7.41989 18.1433 7.78825 18.2252C7.98217 18.3471 7.98217 18.3471 8.15946 18.613C8.23641 19.2067 8.05415 19.625 7.83223 20.1719C7.29 21.5866 7.30763 22.995 7.53894 24.4637C7.56867 24.6705 7.59824 24.8773 7.62758 25.0842C7.7222 25.0838 7.81682 25.0834 7.9143 25.0829C10.2151 25.0731 12.516 25.0658 14.8168 25.0612C15.9295 25.0589 17.0421 25.0558 18.1548 25.0507C19.1244 25.0463 20.0941 25.0435 21.0637 25.0425C21.5773 25.0419 22.0908 25.0405 22.6044 25.0373C23.0876 25.0343 23.5707 25.0334 24.0539 25.034C24.2314 25.0339 24.4089 25.033 24.5864 25.0313C24.8285 25.0291 25.0705 25.0297 25.3126 25.0309C25.3831 25.0296 25.4535 25.0283 25.5261 25.027C25.8828 25.0318 26.047 25.0694 26.3312 25.2921C26.5532 25.5856 26.5637 25.7437 26.562 26.1092C26.5626 26.2251 26.5632 26.3411 26.5638 26.4606C26.5627 26.5528 26.5627 26.5528 26.5616 26.6469C26.5593 26.8404 26.5598 27.0337 26.5609 27.2271C26.5627 27.6375 26.561 28.0479 26.559 28.4583C26.5572 28.9343 26.5568 29.4102 26.5591 29.8862C26.5594 30.0766 26.5575 30.2669 26.5555 30.4572C26.5558 30.5729 26.5561 30.6886 26.5564 30.8078C26.5556 30.9605 26.5556 30.9605 26.5548 31.1163C26.6073 31.4357 26.6946 31.542 26.9524 31.7326C27.2314 31.7551 27.2314 31.7551 27.4843 31.644C27.687 31.2797 27.6854 30.9146 27.6948 30.5082C27.7292 29.7584 27.8504 29.2857 28.4095 28.7741C28.8846 28.3794 29.3513 28.3182 29.9542 28.3315C30.4969 28.3951 30.9297 28.5874 31.2888 29.005C31.5785 29.4269 31.7497 29.7686 31.7518 30.2862C31.7525 30.3702 31.7531 30.4543 31.7537 30.5408C31.7541 30.6314 31.7545 30.722 31.7549 30.8153C31.7569 31.0068 31.759 31.1982 31.7613 31.3896C31.7644 31.6918 31.767 31.9939 31.7682 32.296C31.7695 32.5874 31.7731 32.8787 31.777 33.17C31.7768 33.3056 31.7768 33.3056 31.7765 33.444C31.7792 33.9339 31.7792 33.9339 31.9911 34.3628C32.1844 34.5041 32.1844 34.5041 32.4595 34.4862C32.7286 34.4192 32.7286 34.4192 32.8176 34.1929C32.8928 33.9452 32.9137 33.7521 32.9134 33.494C32.9137 33.4044 32.9141 33.3148 32.9144 33.2225C32.9139 33.1252 32.9134 33.0279 32.9129 32.9276C32.9132 32.7727 32.9132 32.7727 32.9134 32.6147C32.9138 32.3907 32.9137 32.1667 32.9133 31.9427C32.9128 31.5885 32.9136 31.2342 32.9148 30.88C32.9181 29.8728 32.9198 28.8657 32.9187 27.8585C32.9182 27.3018 32.9192 26.7451 32.922 26.1884C32.9234 25.894 32.9236 25.5997 32.9225 25.3052C32.9212 24.9771 32.9226 24.6491 32.9247 24.321C32.9236 24.2235 32.9226 24.126 32.9215 24.0255C32.9296 23.3709 32.9296 23.3709 33.1853 23.0705C33.5106 22.9151 33.7007 22.9499 34.0441 23.0453C34.1318 23.1331 34.2196 23.2208 34.31 23.3113C34.31 23.8963 34.31 24.4814 34.31 25.0842C35.5094 25.0842 36.7088 25.0842 37.9445 25.0842C38.3976 22.5923 38.1871 20.3328 36.7921 18.1698C35.4523 16.2866 33.5209 15.1166 31.2676 14.6853C29.0607 14.3224 26.8249 14.9318 25.0181 16.2206C23.2201 17.62 22.1074 19.5316 21.7534 21.7814C21.7296 22.002 21.7149 22.2153 21.7077 22.4366C21.7054 22.4998 21.703 22.563 21.7005 22.6281C21.6949 22.8095 21.6924 22.991 21.6901 23.1724C21.6206 23.5614 21.4987 23.6922 21.1904 23.9318C20.8798 23.9825 20.7273 23.9708 20.4535 23.8154C20.157 23.5189 20.1979 23.1712 20.1931 22.7738C20.1959 21.0566 20.645 19.456 21.4971 17.9687C21.6809 17.6477 21.6809 17.6477 21.7223 17.2833C20.4965 15.706 18.4141 14.8812 16.4922 14.624C14.0706 14.4736 11.876 15.1907 10.021 16.7515C9.89135 16.8729 9.76201 16.9948 9.6332 17.1171C9.38943 17.3347 9.31812 17.3708 8.97943 17.4329C8.69133 17.372 8.69133 17.372 8.47526 17.2335C8.27456 16.9204 8.26949 16.7637 8.33675 16.3969C8.79234 15.654 9.70438 14.9415 10.4643 14.5353C10.5228 14.5353 10.5813 14.5353 10.6415 14.5353C10.1234 13.5737 9.60342 12.6144 9.04516 11.6754C8.70998 11.1116 8.38159 10.544 8.05419 9.97559C7.99765 9.87746 7.94111 9.77933 7.88285 9.67823C7.76688 9.47692 7.65093 9.27561 7.535 9.07428C7.3108 8.68507 7.08634 8.296 6.86184 7.90695C6.75202 7.71663 6.64222 7.5263 6.53245 7.33595C6.27599 6.89126 6.01939 6.44666 5.76223 6.00238C5.67204 5.84655 5.5819 5.69068 5.49177 5.53481C5.37933 5.34038 5.2668 5.146 5.15415 4.95169C5.00262 4.68954 4.85213 4.42684 4.70227 4.16374C4.65127 4.07469 4.60028 3.98564 4.54774 3.89389C4.47528 3.76487 4.47528 3.76487 4.40136 3.63325C4.35818 3.55683 4.31501 3.48042 4.27053 3.40168C4.10969 3.05949 4.10708 2.85304 4.17039 2.47947C4.40233 2.06629 4.62737 1.84689 5.03469 1.60963C5.0842 1.58078 5.13372 1.55193 5.18473 1.5222C5.29178 1.46006 5.39911 1.39843 5.5067 1.33724C5.68582 1.23354 5.86141 1.12509 6.03715 1.01577C7.30146 0.244328 7.30146 0.244328 7.98217 0.440614ZM7.36165 1.94759C6.83509 2.24013 6.30853 2.53266 5.76602 2.83405C5.76602 3.15802 5.85741 3.29229 6.01811 3.57196C6.0701 3.66309 6.12209 3.75422 6.17566 3.84811C6.23062 3.94313 6.28559 4.03815 6.34222 4.13604C6.39718 4.23208 6.45214 4.32813 6.50877 4.42708C6.64482 4.66463 6.78138 4.90187 6.91842 5.13885C7.45564 4.63098 7.92978 3.8908 8.15946 3.18864C8.0796 2.62782 7.74825 2.3342 7.36165 1.94759ZM17.3786 5.84802C17.3268 5.88732 17.2749 5.92663 17.2214 5.96713C15.6743 7.15838 14.7892 9.18226 14.5143 11.067C14.4321 11.8036 14.4309 12.4732 14.542 13.2056C14.5958 13.2042 14.6497 13.2028 14.7052 13.2014C17.5749 13.1373 20.1368 13.7974 22.2857 15.793C22.4261 15.932 22.5624 16.0752 22.6974 16.2196C22.9561 16.1041 23.1193 15.9872 23.3068 15.7764C24.5095 14.5534 26.1759 13.7478 27.8389 13.3829C27.9249 13.3631 28.0109 13.3434 28.0996 13.323C29.063 13.1384 30.0536 13.1894 31.0301 13.2056C31.3466 11.0923 30.7523 8.91938 29.4961 7.19636C28.1516 5.4384 26.2209 4.24056 24.0202 3.91408C21.6123 3.60984 19.2175 4.22264 17.3786 5.84802ZM8.95727 4.60697C8.84254 4.778 8.73265 4.95229 8.62485 5.12777C8.56497 5.22444 8.50509 5.32111 8.4434 5.42071C8.3981 5.50074 8.3981 5.50074 8.35188 5.58238C8.2481 5.75937 8.2481 5.75937 8.10641 5.95887C7.95716 6.19294 7.8625 6.37353 7.80487 6.64583C7.91715 7.04888 8.12582 7.37235 8.35337 7.72066C8.41034 7.8139 8.4673 7.90715 8.52599 8.00322C8.6667 8.23253 8.81037 8.4593 8.95727 8.68468C9.50487 8.15803 9.97868 7.46852 10.1983 6.73447C10.1412 6.29066 9.9324 6.02179 9.66644 5.67072C9.55195 5.47231 9.43925 5.27287 9.32848 5.07236C9.23733 4.91543 9.14414 4.75958 9.04592 4.60697C9.01666 4.60697 8.98741 4.60697 8.95727 4.60697ZM10.9961 8.15281C10.9281 8.25412 10.8646 8.35845 10.8029 8.46376C10.7644 8.52935 10.7259 8.59494 10.6862 8.66252C10.6459 8.732 10.6055 8.80148 10.564 8.87306C10.5243 8.94048 10.4847 9.0079 10.4438 9.07736C10.3308 9.27073 10.2183 9.46389 10.1097 9.65979C10.0567 9.74515 10.0036 9.83051 9.94902 9.91846C9.81397 10.1852 9.81397 10.1852 9.91933 10.4392C9.969 10.5218 10.0187 10.6045 10.0698 10.6896C10.1227 10.7799 10.1755 10.8702 10.23 10.9632C10.2872 11.0559 10.3444 11.1487 10.4033 11.2443C10.4876 11.3866 10.4876 11.3866 10.5735 11.5317C10.7125 11.7659 10.8534 11.9986 10.9961 12.2305C11.3445 11.8969 11.5795 11.5442 11.8272 11.1335C11.8693 11.0677 11.9115 11.0019 11.955 10.9341C12.1912 10.5488 12.1912 10.5488 12.205 10.1099C11.9991 9.72272 11.7891 9.33977 11.5668 8.9617C11.5218 8.88377 11.4769 8.80584 11.4305 8.72554C11.263 8.43583 11.263 8.43583 11.0848 8.15281C11.0555 8.15281 11.0263 8.15281 10.9961 8.15281ZM12.9463 11.8759C12.8773 11.9793 12.8127 12.0857 12.75 12.1931C12.7111 12.2595 12.6722 12.3259 12.6321 12.3943C12.5914 12.4646 12.5506 12.5349 12.5086 12.6073C12.4683 12.6762 12.4279 12.7451 12.3862 12.8161C12.2091 13.1195 12.0371 13.4218 11.8826 13.7375C12.0667 13.8543 12.0667 13.8543 12.3099 13.7572C12.4066 13.7233 12.5032 13.6894 12.6028 13.6544C12.7 13.6207 12.7971 13.587 12.8972 13.5522C12.9719 13.5256 13.0466 13.499 13.1236 13.4716C13.1336 12.9299 13.1144 12.4121 13.035 11.8759C13.0057 11.8759 12.9765 11.8759 12.9463 11.8759ZM5.68845 26.9679C5.55227 27.3008 5.57902 27.488 5.67737 27.8322C5.9223 28.1367 6.09343 28.2949 6.47519 28.3641C6.72573 28.3723 6.97403 28.3756 7.22455 28.3747C7.33903 28.3749 7.33903 28.3749 7.45582 28.375C7.71198 28.3751 7.96814 28.3746 8.2243 28.3741C8.40775 28.3741 8.59121 28.3741 8.77466 28.3742C9.27317 28.3742 9.77167 28.3737 10.2702 28.3731C10.791 28.3725 11.3118 28.3725 11.8326 28.3724C12.819 28.3721 13.8054 28.3714 14.7918 28.3705C15.9147 28.3695 17.0376 28.369 18.1605 28.3685C20.4706 28.3676 22.7807 28.366 25.0908 28.3641C25.0908 27.7498 25.0908 27.1354 25.0908 26.5025C22.6482 26.4964 20.2056 26.4916 17.7629 26.4887C16.6288 26.4874 15.4947 26.4855 14.3605 26.4825C13.3722 26.4798 12.3839 26.4781 11.3955 26.4775C10.872 26.4771 10.3486 26.4763 9.82513 26.4744C9.33262 26.4726 8.84013 26.472 8.34762 26.4724C8.16669 26.4724 7.98577 26.4718 7.80484 26.4708C7.55809 26.4695 7.3114 26.4698 7.06465 26.4705C6.99282 26.4698 6.92098 26.469 6.84698 26.4682C6.32756 26.4723 6.02254 26.567 5.68845 26.9679ZM34.31 26.5025C34.31 27.1168 34.31 27.7311 34.31 28.3641C34.9804 28.3707 35.6507 28.3755 36.3211 28.3787C36.549 28.38 36.777 28.3818 37.0049 28.3841C37.333 28.3874 37.661 28.3889 37.9892 28.3901C38.0907 28.3914 38.1922 28.3928 38.2967 28.3942C38.8396 28.3943 39.2415 28.3689 39.7174 28.0981C39.9051 27.8929 39.9785 27.7601 39.9913 27.4811C39.9682 27.1627 39.9259 26.9863 39.7285 26.7297C39.417 26.5006 39.1633 26.4916 38.7883 26.4925C38.6392 26.4925 38.6392 26.4925 38.4872 26.4925C38.38 26.4929 38.2728 26.4934 38.1623 26.4939C38.0525 26.494 37.9427 26.4941 37.8295 26.4942C37.5379 26.4947 37.2463 26.4954 36.9547 26.4964C36.657 26.4973 36.3593 26.4977 36.0616 26.4982C35.4777 26.4992 34.8939 26.5007 34.31 26.5025ZM8.4254 29.7824C8.56026 30.6835 8.56026 30.6835 8.73635 31.5709C8.75977 31.6752 8.7832 31.7795 8.80734 31.8869C8.83122 31.9914 8.8551 32.0959 8.87971 32.2036C8.90427 32.3125 8.92884 32.4215 8.95415 32.5337C9.01394 32.7986 9.07408 33.0635 9.13456 33.3283C9.23429 33.3284 9.33401 33.3285 9.43676 33.3286C11.8611 33.3319 14.2855 33.3372 16.7098 33.3446C17.8822 33.3481 19.0546 33.351 20.2269 33.3523C21.2486 33.3534 22.2702 33.3558 23.2918 33.3597C23.8329 33.3617 24.3741 33.3631 24.9152 33.363C25.4243 33.3629 25.9333 33.3645 26.4423 33.3674C26.6294 33.3681 26.8165 33.3683 27.0036 33.3678C27.2586 33.3672 27.5134 33.3688 27.7684 33.3709C27.8801 33.3699 27.8801 33.3699 27.9941 33.3688C28.3154 33.3736 28.5084 33.3879 28.7713 33.5804C28.9511 33.8421 28.9544 33.9923 28.9026 34.3034C28.7704 34.4944 28.7704 34.4944 28.548 34.6579C28.2818 34.6931 28.048 34.7065 27.7818 34.7039C27.7037 34.7046 27.6256 34.7053 27.5451 34.706C27.2828 34.7078 27.0205 34.707 26.7582 34.7063C26.5704 34.7071 26.3826 34.708 26.1948 34.7091C25.6843 34.7116 25.1739 34.7119 24.6635 34.7118C24.1303 34.7121 23.5971 34.7143 23.0639 34.7164C22.0539 34.72 21.044 34.7218 20.034 34.723C18.8843 34.7244 17.7346 34.7278 16.5849 34.7313C14.2196 34.7387 11.8544 34.7434 9.48915 34.7466C9.53743 35.3171 9.61316 35.8715 9.73011 36.4318C9.74526 36.5061 9.76041 36.5805 9.77602 36.6571C9.8256 36.8998 9.87584 37.1423 9.92614 37.3848C9.96117 37.555 9.99618 37.7252 10.0312 37.8953C10.1043 38.2505 10.1779 38.6057 10.2516 38.9608C10.3458 39.4149 10.4391 39.8692 10.532 40.3236C10.604 40.6745 10.6765 41.0253 10.7493 41.376C10.7839 41.5434 10.8183 41.7109 10.8525 41.8785C10.9004 42.1127 10.9492 42.3468 10.9982 42.5809C11.012 42.6494 11.0258 42.7179 11.0401 42.7885C11.1875 43.4841 11.3674 43.9984 11.9712 44.409C12.3884 44.5327 12.8199 44.5102 13.2511 44.5095C13.378 44.5098 13.378 44.5098 13.5076 44.5101C13.7914 44.5107 14.0753 44.5106 14.3591 44.5105C14.5625 44.5108 14.7659 44.5111 14.9694 44.5114C15.5221 44.5122 16.0749 44.5124 16.6276 44.5125C17.0889 44.5126 17.5502 44.5129 18.0115 44.5132C19.0376 44.5139 20.0637 44.5141 21.0897 44.5141C21.1513 44.5141 21.2128 44.5141 21.2762 44.5141C21.3379 44.5141 21.3995 44.5141 21.463 44.5141C22.4617 44.514 23.4604 44.5149 24.4591 44.5161C25.4849 44.5174 26.5108 44.518 27.5367 44.5179C28.1124 44.5179 28.6882 44.5182 29.264 44.5191C29.8055 44.52 30.3469 44.52 30.8884 44.5193C31.0871 44.5192 31.2859 44.5194 31.4846 44.52C31.7559 44.5206 32.0272 44.5202 32.2985 44.5196C32.3771 44.52 32.4557 44.5205 32.5367 44.5209C33.0978 44.5178 33.5695 44.4823 34.0271 44.1271C34.2562 43.8323 34.3239 43.6094 34.4042 43.2455C34.4179 43.185 34.4317 43.1244 34.4458 43.0621C34.4909 42.8613 34.5334 42.6601 34.5759 42.4588C34.6094 42.3071 34.643 42.1554 34.6767 42.0038C34.7097 41.8526 34.7426 41.7014 34.7754 41.5502C34.7909 41.4784 34.8065 41.4066 34.8225 41.3327C34.8367 41.265 34.8508 41.1974 34.8654 41.1277C34.878 41.068 34.8906 41.0084 34.9036 40.9469C34.9396 40.7452 34.9396 40.7452 34.9305 40.4199C34.8144 40.4196 34.6982 40.4193 34.5785 40.419C31.8222 40.412 29.0658 40.4041 26.3095 40.3951C25.9704 40.394 25.6313 40.3929 25.2922 40.3918C25.2247 40.3916 25.1572 40.3914 25.0877 40.3911C23.9939 40.3876 22.9001 40.3847 21.8063 40.382C20.6844 40.3793 19.5625 40.3759 18.4406 40.3718C17.748 40.3693 17.0555 40.3674 16.363 40.3661C15.8323 40.3651 15.3017 40.3631 14.7711 40.3608C14.5531 40.36 14.3351 40.3595 14.1171 40.3593C13.8203 40.359 13.5235 40.3576 13.2266 40.356C13.0962 40.3562 13.0962 40.3562 12.9632 40.3565C12.8441 40.3555 12.8441 40.3555 12.7225 40.3545C12.6539 40.3543 12.5854 40.3541 12.5148 40.3539C12.2981 40.328 12.1561 40.2689 11.9712 40.154C11.8453 39.9022 11.8547 39.7236 11.8826 39.4448C12.0043 39.2531 12.0043 39.2531 12.2372 39.0902C12.5425 39.0362 12.8454 39.0418 13.1548 39.0442C13.2964 39.0432 13.2964 39.0432 13.4409 39.0422C13.7583 39.0404 14.0757 39.0411 14.3932 39.0418C14.6203 39.0411 14.8474 39.0401 15.0745 39.0391C15.564 39.0371 16.0535 39.0362 16.543 39.0363C17.2508 39.0365 17.9585 39.0347 18.6663 39.0324C19.8145 39.0288 20.9628 39.0267 22.1111 39.0256C23.2265 39.0246 24.342 39.0228 25.4574 39.02C25.5262 39.0198 25.5949 39.0196 25.6658 39.0195C26.0107 39.0186 26.3556 39.0177 26.7005 39.0168C29.562 39.0095 32.4236 39.0047 35.2851 39.0016C35.3993 38.467 35.5129 37.9322 35.626 37.3974C35.6645 37.2155 35.7032 37.0336 35.7421 36.8518C35.7979 36.5903 35.8532 36.3286 35.9084 36.0669C35.9258 35.9858 35.9433 35.9047 35.9613 35.8212C35.9773 35.7449 35.9932 35.6686 36.0097 35.59C36.0309 35.4899 36.0309 35.4899 36.0526 35.3878C36.0857 35.1714 36.088 34.9651 36.0829 34.7466C35.782 34.7285 35.4812 34.7175 35.1798 34.7078C35.0948 34.7026 35.0097 34.6974 34.922 34.692C34.4615 34.6676 34.4615 34.6676 34.0752 34.8785C33.9603 35.0414 33.9603 35.0414 33.8657 35.2141C33.7512 35.4142 33.6159 35.5079 33.418 35.622C33.3603 35.6565 33.3026 35.691 33.2431 35.7265C32.7616 35.9582 32.2186 35.9815 31.706 35.8415C31.135 35.6158 30.7392 35.2754 30.4931 34.7076C30.3789 34.276 30.3849 33.8664 30.3853 33.4217C30.3835 33.2312 30.3817 33.0406 30.3798 32.85C30.3778 32.5508 30.3763 32.2517 30.3758 31.9525C30.375 31.6628 30.372 31.3733 30.3687 31.0837C30.3694 30.9493 30.3694 30.9493 30.3701 30.8123C30.3694 30.3267 30.3694 30.3267 30.1576 29.903C29.898 29.7393 29.7356 29.7376 29.4345 29.7824C29.1847 29.9547 29.1343 30.1126 29.0799 30.4029C29.0718 30.5694 29.0639 30.7359 29.0588 30.9025C29.0166 32.1052 29.0166 32.1052 28.6367 32.5304C28.0914 32.9771 27.6312 33.1855 26.9254 33.1752C26.2985 33.1116 25.8592 32.8282 25.4624 32.3511C24.9838 31.557 25.1353 30.7169 25.0908 29.7824C19.5912 29.7824 14.0916 29.7824 8.4254 29.7824ZM34.31 29.7824C34.31 30.9525 34.31 32.1227 34.31 33.3283C35.0121 33.3283 35.7142 33.3283 36.4375 33.3283C36.5246 32.9373 36.6114 32.5463 36.6978 32.1553C36.7271 32.0225 36.7566 31.8897 36.7862 31.757C36.829 31.5652 36.8714 31.3733 36.9136 31.1814C36.9267 31.123 36.9399 31.0646 36.9534 31.0044C37.043 30.5949 37.0942 30.2023 37.1467 29.7824C36.2106 29.7824 35.2745 29.7824 34.31 29.7824Z" fill="black"/>
<path d="M25.0031 10.1918C25.261 10.3897 25.3481 10.4942 25.4079 10.8175C25.407 11.6219 25.407 11.6219 25.1693 11.9924C24.8703 12.1679 24.7235 12.2 24.3826 12.142C24.1046 11.9842 24.0421 11.9183 23.9394 11.6101C23.9288 11.4497 23.9238 11.2889 23.9228 11.1281C23.9215 11.0441 23.9202 10.9601 23.9189 10.8736C23.94 10.628 23.9858 10.4872 24.1167 10.2804C24.4172 10.055 24.6519 10.0893 25.0031 10.1918Z" fill="black"/>
<path d="M21.2801 10.1915C21.4568 10.3316 21.5342 10.4336 21.6347 10.6347C21.6717 11.0759 21.6928 11.4778 21.5128 11.8869C21.3231 12.1058 21.2304 12.1365 20.9422 12.175C20.6596 12.1417 20.6596 12.1417 20.4048 11.9921C20.1178 11.5448 20.1206 11.0636 20.2164 10.5461C20.5561 10.13 20.7605 10.0642 21.2801 10.1915Z" fill="black"/>
<path d="M27.0421 7.00066C27.2575 7.32369 27.2486 7.49698 27.2526 7.88158C27.2552 7.99025 27.2577 8.09893 27.2603 8.21089C27.2194 8.50765 27.2194 8.50765 27.0594 8.72164C26.7777 8.92518 26.5834 8.90462 26.2443 8.86223C25.962 8.7062 25.9045 8.64071 25.8011 8.33035C25.7651 7.92196 25.7529 7.55955 25.9119 7.17796C26.2804 6.75683 26.527 6.80033 27.0421 7.00066Z" fill="black"/>
<path d="M23.3183 7.00044C23.6032 7.41463 23.559 7.93975 23.4956 8.41877C23.3072 8.70687 23.3072 8.70687 23.0524 8.862C22.7037 8.93464 22.5694 8.89178 22.2656 8.70687C21.9851 8.27776 22.012 7.85486 22.0773 7.35502C22.175 7.10439 22.2185 7.02311 22.4485 6.87855C22.7904 6.80257 22.9976 6.86733 23.3183 7.00044Z" fill="black"/>
<path d="M19.5071 7.00096C19.8178 7.33235 19.8123 7.6865 19.7994 8.11977C19.7654 8.39159 19.6827 8.56449 19.5071 8.77388C19.233 8.91091 19.0112 8.88855 18.7093 8.86252C18.5147 8.72228 18.5147 8.72228 18.3547 8.50794C18.3076 8.2143 18.3076 8.2143 18.3104 7.88742C18.3095 7.77955 18.3086 7.67168 18.3076 7.56054C18.3623 7.21955 18.4371 7.11743 18.7093 6.91231C19.0513 6.7983 19.183 6.8524 19.5071 7.00096Z" fill="black"/>
</g>
<defs>
<clipPath id="clip0_358_904">
<rect width="45.3867" height="45.3867" fill="white" transform="translate(0.09375 0.44043)"/>
</clipPath>
</defs>
</svg>
