<svg width="46" height="46" viewBox="0 0 46 46" fill="none" xmlns="http://www.w3.org/2000/svg">
<path d="M26.499 2.10219C26.5847 2.15739 26.5847 2.15739 26.6721 2.21369C26.766 2.27163 26.766 2.27163 26.8618 2.33073C27.4719 2.74419 27.8108 3.27796 28.0018 3.98661C28.016 4.23233 28.0227 4.46735 28.0184 4.7124C28.0183 4.77542 28.0183 4.83844 28.0182 4.90337C28.0159 5.18206 28.0018 5.40478 27.9131 5.67088C28.016 5.71385 28.1188 5.75682 28.2248 5.80108C30.0785 6.58989 31.6005 7.68267 32.6391 9.44388C32.9257 9.90971 33.2718 10.2128 33.7063 10.5402C33.9411 10.7237 33.9411 10.7237 34.1647 10.9737C34.3632 11.1921 34.3632 11.1921 34.6056 11.1635C34.836 11.075 35.0553 10.9777 35.2763 10.8678C36.7212 10.2101 38.497 10.1131 40.0182 10.6015C41.8075 11.3176 43.0901 12.504 43.9099 14.2605C44.2878 15.207 44.3537 16.1334 44.3511 17.1412C44.3515 17.2796 44.3519 17.418 44.3525 17.5564C44.3533 17.8449 44.3531 18.1334 44.3522 18.422C44.3512 18.7879 44.3529 19.1538 44.3555 19.5198C44.3572 19.8052 44.3571 20.0906 44.3566 20.3761C44.3566 20.5108 44.3571 20.6456 44.3582 20.7803C44.3708 22.5401 43.8848 24.1406 42.6461 25.4321C41.3233 26.7565 39.8332 27.4048 37.9578 27.4279C37.05 27.4273 36.2259 27.2983 35.3594 27.0345C35.309 27.0977 35.2586 27.1609 35.2067 27.226C34.5483 28.0427 33.8483 28.8435 32.966 29.428C32.617 29.3117 32.538 29.1447 32.3288 28.8462C32.2654 28.7565 32.202 28.6668 32.1366 28.5744C32.0885 28.5051 32.0404 28.4357 31.9908 28.3642C32.1302 28.0036 32.3891 27.7876 32.6723 27.5387C32.7696 27.451 32.8667 27.3631 32.9639 27.2752C33.1108 27.143 33.2581 27.0112 33.4057 26.8798C35.1282 25.2623 36.273 22.6607 36.3625 20.3189C36.4055 18.4591 36.1471 17.1697 35.448 15.4219C25.2241 15.3781 25.2241 15.3781 14.7935 15.3333C14.7643 15.4796 14.735 15.6258 14.7049 15.7765C14.6375 15.9549 14.5671 16.1321 14.4944 16.3084C14.0826 17.3593 13.8891 18.4294 13.896 19.555C13.8962 19.6236 13.8963 19.6921 13.8965 19.7628C13.9011 20.3868 13.9398 21.0055 13.9957 21.6271C13.8113 21.6743 13.6266 21.7203 13.4417 21.7657C13.3388 21.7914 13.236 21.8171 13.13 21.8436C12.8681 21.8888 12.733 21.8957 12.4887 21.8044C12.362 21.0574 12.2941 20.3295 12.2948 19.5717C12.2949 19.4958 12.295 19.4199 12.295 19.3417C12.2991 18.9257 12.3301 18.5269 12.389 18.1146C12.427 17.7329 12.3798 17.5575 12.1601 17.2454C11.8062 16.6878 11.6432 16.0975 11.4638 15.4663C11.1004 14.2013 10.7556 13.1191 9.61814 12.3546C8.67171 11.8343 7.58106 11.8461 6.5273 11.8207C6.4083 11.8173 6.2893 11.8138 6.1703 11.8103C5.88302 11.802 5.59573 11.7947 5.30842 11.7875C5.30842 12.2555 5.30842 12.7236 5.30842 13.2058C5.40898 13.2017 5.50954 13.1976 5.61314 13.1933C7.08418 13.1504 7.08418 13.1504 7.67485 13.7003C8.14648 14.2061 8.34157 14.751 8.41627 15.4316C8.42649 15.5211 8.42649 15.5211 8.43691 15.6123C8.45898 15.8073 8.47968 16.0024 8.50037 16.1976C8.51559 16.3343 8.5309 16.4711 8.54629 16.6078C8.58645 16.9666 8.62547 17.3254 8.66422 17.6844C8.70372 18.0485 8.74421 18.4126 8.78466 18.7766C8.83019 19.1864 8.87565 19.5962 8.92021 20.0062C8.92704 20.0687 8.93387 20.1313 8.9409 20.1958C8.95926 20.364 8.97751 20.5323 8.99576 20.7006C9.03199 21.0103 9.07477 21.3186 9.1202 21.6271C8.93564 21.672 8.75093 21.7162 8.56616 21.7601C8.4119 21.7971 8.4119 21.7971 8.25452 21.8349C7.9678 21.8931 7.9678 21.8931 7.61322 21.8931C7.42598 21.2436 7.35911 20.5921 7.28911 19.9211C7.27593 19.7988 7.26269 19.6765 7.2494 19.5542C7.20761 19.1686 7.16659 18.7828 7.12566 18.3971C7.07817 17.9499 7.03035 17.5028 6.98181 17.0557C6.96268 16.8781 6.94411 16.7005 6.92555 16.5229C6.86223 15.9374 6.78041 15.3731 6.63811 14.8014C6.33342 14.733 6.04947 14.7012 5.73746 14.6972C5.6525 14.6951 5.56754 14.693 5.48 14.6908C5.3025 14.687 5.12497 14.6842 4.94743 14.6825C4.82017 14.6788 4.82017 14.6788 4.69033 14.675C4.6133 14.6737 4.53628 14.6724 4.45692 14.6711C4.15807 14.605 4.06287 14.5235 3.89009 14.2695C3.83838 14.0034 3.84039 13.7422 3.843 13.4717C3.84266 13.3944 3.84232 13.317 3.84197 13.2373C3.84173 13.074 3.84238 12.9106 3.84386 12.7473C3.84576 12.4975 3.84388 12.2478 3.84161 11.998C3.84184 11.8392 3.8423 11.6803 3.843 11.5215C3.84228 11.4469 3.84156 11.3723 3.84082 11.2954C3.84578 10.9854 3.86244 10.7759 4.00888 10.4995C4.39724 10.2848 4.79149 10.3187 5.22774 10.322C5.37341 10.3215 5.37341 10.3215 5.52202 10.321C5.72791 10.3208 5.93379 10.3214 6.13967 10.3229C6.45138 10.3248 6.76289 10.3229 7.07459 10.3206C8.84581 10.3184 10.1569 10.5835 11.4856 11.8352C12.3943 12.8007 12.7448 14.0903 13.1093 15.3333C13.1332 15.2843 13.1572 15.2354 13.1819 15.1849C14.1215 13.2836 15.2912 11.673 16.8985 10.2805C17.2845 9.93797 17.5913 9.60657 17.8629 9.16686C18.9708 7.4738 20.5447 6.38416 22.4171 5.67088C22.3878 5.58312 22.3586 5.49537 22.3284 5.40495C22.274 4.61047 22.2374 3.8807 22.683 3.1888C22.741 3.09487 22.741 3.09487 22.8001 2.99904C23.5751 1.8555 25.2679 1.4303 26.499 2.10219ZM23.9795 3.95337C23.7848 4.35766 23.7621 4.6977 23.8354 5.13901C23.99 5.43747 23.99 5.43747 24.19 5.67088C24.3617 5.92427 24.3673 6.02488 24.3618 6.34127C24.2787 6.64599 24.2787 6.64599 24.0892 6.789C23.806 6.92619 23.5446 6.9895 23.2371 7.05598C21.7413 7.42097 20.3267 8.33566 19.4031 9.5713C19.4031 9.60056 19.4031 9.62981 19.4031 9.65995C23.206 9.65995 27.0089 9.65995 30.9271 9.65995C29.6825 8.20793 28.3702 7.30453 26.4927 6.91054C26.196 6.81241 26.1029 6.74518 25.9629 6.4687C25.9711 5.95169 26.0445 5.70055 26.4062 5.3163C26.5708 4.98702 26.5341 4.61193 26.4948 4.25255C26.2883 3.82363 26.0373 3.57261 25.6083 3.36609C24.8918 3.25172 24.4688 3.41257 23.9795 3.95337ZM17.2756 12.0534C17.177 12.1488 17.0777 12.2436 16.9771 12.337C16.3128 12.9874 16.3128 12.9874 15.7686 13.7377C15.7686 13.7962 15.7686 13.8547 15.7686 13.915C21.9703 13.915 28.172 13.915 34.5616 13.915C34.1817 13.1552 33.583 12.5659 32.9881 11.9703C32.9305 11.9126 32.8729 11.8549 32.8135 11.7955C32.5824 11.5668 32.5824 11.5668 32.3454 11.3442C32.2952 11.2983 32.245 11.2524 32.1933 11.205C31.9285 11.0393 31.7487 11.043 31.4371 11.0397C31.3233 11.038 31.2095 11.0362 31.0922 11.0344C30.9662 11.0338 30.8403 11.0332 30.7143 11.0326C30.5815 11.0311 30.4487 11.0295 30.3158 11.0278C29.955 11.0235 29.5942 11.0211 29.2333 11.0192C29.0075 11.018 28.7817 11.0166 28.556 11.0151C27.8486 11.0105 27.1413 11.0071 26.434 11.0053C25.6193 11.0032 24.8047 10.997 23.99 10.9872C23.3592 10.9799 22.7285 10.9764 22.0977 10.9757C21.7215 10.9752 21.3454 10.9731 20.9692 10.9671C20.6146 10.9614 20.2603 10.9605 19.9057 10.9631C19.7764 10.9633 19.647 10.9618 19.5177 10.9585C18.4314 10.9321 17.9666 11.2874 17.2756 12.0534ZM35.5367 12.408C35.5929 12.7181 35.7186 12.9257 35.8968 13.1836C35.9454 13.2545 35.9939 13.3253 36.044 13.3983C36.0813 13.4518 36.1187 13.5053 36.1572 13.5604C36.2091 13.5412 36.261 13.522 36.3144 13.5022C37.3083 13.1799 38.518 13.1045 39.4915 13.5323C40.383 14.0241 41.0139 14.7287 41.3302 15.7033C41.448 16.2201 41.4272 16.7497 41.4258 17.2773C41.4262 17.405 41.4266 17.5327 41.4272 17.6604C41.4279 17.9269 41.4277 18.1935 41.4269 18.4601C41.4258 18.7992 41.4276 19.1381 41.4302 19.4772C41.4319 19.7407 41.4318 20.0041 41.4313 20.2676C41.4313 20.3925 41.4318 20.5173 41.4329 20.6422C41.441 21.6998 41.287 22.5671 40.5937 23.3938C39.9395 24.0554 39.1813 24.4703 38.2428 24.4898C38.0776 24.488 37.9124 24.4849 37.7473 24.4804C37.6621 24.4792 37.5769 24.478 37.4891 24.4768C37.2815 24.4737 37.074 24.4694 36.8664 24.4638C36.7773 24.6372 36.6887 24.8108 36.6004 24.9846C36.5511 25.0813 36.5017 25.178 36.4508 25.2776C36.322 25.5084 36.322 25.5084 36.3345 25.7049C37.7232 26.0979 39.0181 25.9908 40.3236 25.3503C41.5156 24.6347 42.3778 23.5757 42.7502 22.2255C42.872 21.4951 42.9083 20.7725 42.9092 20.0329C42.9095 19.9427 42.9098 19.8524 42.9101 19.7594C42.9105 19.5696 42.9107 19.3798 42.9107 19.19C42.9109 18.9033 42.9125 18.6166 42.9142 18.3299C42.9196 16.4023 42.7847 14.6611 41.3873 13.2058C39.7278 11.6732 37.5416 11.4459 35.5367 12.408ZM36.955 14.8901C36.9898 14.9906 37.0245 15.0912 37.0603 15.1948C37.1963 15.6046 37.3238 16.0168 37.4481 16.4303C37.4667 16.4908 37.4853 16.5513 37.5044 16.6136C37.7938 17.5872 37.8769 18.5241 37.8747 19.5384C37.8748 19.6004 37.875 19.6623 37.8751 19.7262C37.8749 20.6643 37.7912 21.5527 37.5645 22.4655C37.4763 22.7687 37.4763 22.7687 37.4869 23.0455C38.126 23.0878 38.6461 23.0886 39.1712 22.6909C39.7575 22.1358 40.0313 21.6148 40.0665 20.8002C40.0708 20.5508 40.0722 20.3014 40.0725 20.052C40.0728 19.9602 40.0731 19.8684 40.0734 19.7738C40.0739 19.58 40.0741 19.3862 40.0741 19.1924C40.0742 18.8977 40.0759 18.603 40.0775 18.3083C40.0778 18.1194 40.078 17.9305 40.0781 17.7416C40.0787 17.6543 40.0793 17.567 40.08 17.4771C40.0773 16.659 39.9924 15.8819 39.4371 15.2446C38.9628 14.8713 38.5479 14.6999 37.9412 14.6961C37.85 14.6949 37.7588 14.6936 37.6649 14.6923C37.3934 14.7131 37.2003 14.7755 36.955 14.8901Z" fill="black"/>
<path d="M11.3149 23.1165C11.4365 23.1158 11.4365 23.1158 11.5605 23.115C11.7315 23.1141 11.9026 23.1136 12.0736 23.1132C12.3286 23.1124 12.5835 23.1096 12.8385 23.1068C15.5575 23.0912 18.8663 23.5599 20.9095 25.528C21.3844 26.116 21.6487 26.6218 21.6186 27.3895C21.7279 27.3864 21.8371 27.3834 21.9497 27.3802C23.1841 27.3556 24.159 27.4863 25.2531 28.0987C25.2018 28.4588 25.0855 28.7057 24.893 29.0129C24.8201 29.1303 24.8201 29.1303 24.7458 29.25C24.6898 29.3383 24.6898 29.3383 24.6326 29.4284C24.3125 29.3725 24.0274 29.2828 23.724 29.168C23.037 28.9319 22.3379 28.8726 21.6186 28.8079C21.6196 28.8583 21.6207 28.9086 21.6217 28.9606C21.6225 29.029 21.6233 29.0975 21.6242 29.168C21.6252 29.2348 21.6262 29.3017 21.6273 29.3706C21.6166 29.6599 21.5744 29.9403 21.53 30.2262C21.6285 30.2221 21.727 30.218 21.8285 30.2137C22.8299 30.1842 23.641 30.2452 24.4082 30.9617C25.0636 31.6907 25.216 32.4631 25.1922 33.4185C25.1501 34.1618 24.8298 34.7829 24.278 35.279C23.6924 35.7194 23.141 35.9173 22.4033 35.9362C22.3159 35.9388 22.3159 35.9388 22.2267 35.9414C22.0425 35.9467 21.8583 35.9508 21.674 35.9549C21.5483 35.9583 21.4226 35.9618 21.2969 35.9653C20.9905 35.9739 20.6841 35.981 20.3776 35.9882C20.1582 36.6025 20.1582 36.6025 19.9343 37.2292C20.1509 37.2282 20.3674 37.2272 20.5905 37.2261C20.7994 37.2254 21.0083 37.2249 21.2172 37.2244C21.3628 37.2239 21.5083 37.2233 21.6539 37.2225C21.8627 37.2215 22.0715 37.221 22.2803 37.2206C22.3458 37.2201 22.4113 37.2196 22.4787 37.2192C22.6353 37.2192 22.7918 37.2237 22.9483 37.2292C23.309 37.5899 23.151 38.2301 23.2142 38.7362C21.8979 38.7362 20.5815 38.7362 19.2252 38.7362C19.1959 38.8825 19.1667 39.0287 19.1365 39.1794C19.0656 39.3386 18.9898 39.4957 18.9094 39.6504C18.869 39.7286 18.8287 39.8069 18.7871 39.8876C18.7562 39.9464 18.7252 40.0053 18.6933 40.0659C18.7425 40.0662 18.7917 40.0665 18.8424 40.0669C19.3543 40.0706 19.8662 40.0767 20.3781 40.0843C20.5692 40.0868 20.7602 40.0887 20.9513 40.0899C21.226 40.0918 21.5005 40.0959 21.7751 40.1005C21.9033 40.1007 21.9033 40.1007 22.034 40.1008C22.6253 40.1138 22.6253 40.1138 22.9134 40.3194C23.1742 40.7199 23.0871 41.2049 23.037 41.6615C22.8272 42.6084 22.2748 43.3539 21.4886 43.9119C20.6266 44.4612 19.7312 44.4606 18.7452 44.4554C18.5912 44.4559 18.4372 44.4565 18.2832 44.4573C17.8674 44.4589 17.4517 44.4583 17.0359 44.4572C16.5994 44.4563 16.1628 44.4571 15.7262 44.4577C14.9933 44.4583 14.2604 44.4575 13.5274 44.4558C12.6819 44.4538 11.8364 44.4545 10.9909 44.4564C10.263 44.458 9.53506 44.4582 8.80711 44.4573C8.37322 44.4568 7.93934 44.4567 7.50546 44.4579C7.0974 44.4589 6.68937 44.4582 6.28132 44.4561C6.13221 44.4557 5.98309 44.4558 5.83398 44.4566C4.61966 44.4624 3.64686 44.303 2.73704 43.4344C1.98851 42.6503 1.72527 41.8346 1.71484 40.7616C1.77656 40.4307 1.84156 40.3508 2.11652 40.1545C2.41828 40.0992 2.71761 40.1009 3.02376 40.1005C3.1118 40.0991 3.19984 40.0976 3.29054 40.0961C3.57144 40.0918 3.85229 40.0899 4.13321 40.0881C4.32378 40.0856 4.51435 40.0829 4.70491 40.0801C5.1718 40.0735 5.63867 40.069 6.10559 40.0659C6.08357 40.0203 6.06154 39.9746 6.03886 39.9276C5.21751 38.2217 5.21751 38.2217 4.89779 37.3511C4.84889 37.2188 4.84889 37.2188 4.79901 37.0838C3.78303 34.2727 3.17689 31.2841 3.13845 28.2925C3.13681 28.1688 3.13452 28.0451 3.13152 27.9214C3.11048 26.9375 3.29587 26.1563 3.97497 25.4199C5.90275 23.7326 8.81218 23.129 11.3149 23.1165ZM4.94107 26.6845C4.67411 26.9643 4.65848 27.1776 4.66059 27.563C4.70136 27.8399 4.84859 27.9941 5.04184 28.1873C5.38597 28.077 5.71454 27.9517 6.04464 27.8051C7.70724 27.1092 9.51462 26.76 11.3149 26.751C11.4365 26.7502 11.4365 26.7502 11.5605 26.7495C11.7315 26.7486 11.9026 26.7481 12.0736 26.7477C12.3286 26.7469 12.5835 26.7441 12.8385 26.7413C15.0294 26.7287 17.3665 27.0388 19.3329 28.071C19.5671 28.2142 19.5671 28.2142 19.7792 28.1319C20.0497 27.9194 20.11 27.7545 20.1615 27.4172C20.1479 27.004 19.9718 26.7862 19.6885 26.4979C18.2111 25.2097 16.0704 24.8061 14.1724 24.6415C14.1053 24.6354 14.0382 24.6294 13.9691 24.6231C11.0575 24.3767 7.19143 24.5741 4.94107 26.6845ZM6.72611 29.0738C6.72611 29.1323 6.72611 29.1908 6.72611 29.2511C9.09944 30.1285 11.6574 30.3839 14.1724 30.1375C14.2483 30.1301 14.3241 30.1227 14.4023 30.115C15.6101 29.9876 16.9754 29.7998 18.0728 29.2511C18.0728 29.1926 18.0728 29.1341 18.0728 29.0738C14.7687 27.8523 9.98032 27.4467 6.72611 29.0738ZM4.7759 29.9603C4.82189 30.7921 4.93242 31.5972 5.0917 32.4146C5.10322 32.4738 5.11475 32.5331 5.12662 32.5941C5.62188 35.1106 6.50184 37.5335 7.70121 39.8C7.75972 39.917 7.81823 40.034 7.8785 40.1545C10.8623 40.1545 13.8461 40.1545 16.9204 40.1545C18.42 37.1552 20.1469 33.4086 20.023 29.9603C19.701 30.0841 19.3957 30.2283 19.0867 30.3813C15.4021 32.0711 10.3709 32.1078 6.57479 30.7495C6.10639 30.565 5.66094 30.3357 5.21844 30.0967C4.97663 29.9467 4.97663 29.9467 4.7759 29.9603ZM21.3527 31.6445C21.1964 32.2465 21.068 32.8527 20.9427 33.4618C20.9224 33.56 20.902 33.6583 20.8811 33.7596C20.8313 34.0001 20.7817 34.2406 20.7322 34.4812C22.0818 34.5927 22.0818 34.5927 23.2679 34.0854C23.6316 33.6687 23.689 33.3807 23.6821 32.8447C23.6456 32.5111 23.526 32.3344 23.3029 32.0878C22.8129 31.702 22.4239 31.6316 21.8125 31.639C21.726 31.6398 21.6395 31.6406 21.5504 31.6414C21.4852 31.6424 21.4199 31.6435 21.3527 31.6445ZM3.35756 41.5729C3.65486 42.1675 3.97553 42.5382 4.56536 42.8472C5.01337 42.9651 5.44239 43.0024 5.90482 43.0031C5.99153 43.0034 5.99153 43.0034 6.08 43.0037C6.2725 43.0042 6.46499 43.0042 6.65748 43.0041C6.796 43.0043 6.93452 43.0046 7.07304 43.005C7.44851 43.0058 7.82399 43.006 8.19946 43.006C8.43429 43.0061 8.66912 43.0063 8.90396 43.0065C9.72392 43.0073 10.5439 43.0077 11.3639 43.0076C12.127 43.0076 12.8902 43.0085 13.6533 43.0099C14.3095 43.0111 14.9657 43.0115 15.6219 43.0115C16.0134 43.0115 16.4048 43.0117 16.7963 43.0127C17.1647 43.0135 17.5331 43.0135 17.9015 43.0129C18.0362 43.0128 18.171 43.013 18.3057 43.0135C19.6474 43.0386 19.6474 43.0386 20.8208 42.4593C21.0917 42.1809 21.3174 41.9448 21.4413 41.5729C15.4737 41.5729 9.50604 41.5729 3.35756 41.5729Z" fill="black"/>
<path d="M31.2399 30.1588C31.5984 30.5068 31.9218 30.8532 32.1669 31.2901C32.1669 31.3486 32.1669 31.4071 32.1669 31.4673C32.2254 31.4673 32.2839 31.4673 32.3441 31.4673C32.3662 31.403 32.3883 31.3387 32.411 31.2724C32.8737 30.2323 34.0311 29.4967 35.0437 29.0704C36.0139 28.7044 37.3121 28.5057 38.289 28.9243C38.5251 29.13 38.6235 29.3164 38.6638 29.6281C38.6986 31.5126 38.4101 32.958 37.0639 34.3767C35.8953 35.5127 34.5755 35.8996 32.9647 35.8996C32.9939 36.6602 33.0232 37.4208 33.0533 38.2044C33.174 38.0746 33.2947 37.9448 33.419 37.8111C34.7442 36.4914 36.4257 35.8651 38.2834 35.811C39.4254 35.8313 39.4254 35.8313 39.8791 36.1656C40.3699 37.1539 40.1609 38.8179 39.8295 39.8409C39.0325 41.798 37.7805 43.2188 35.8013 44.0551C34.7319 44.4548 33.6812 44.4645 32.5507 44.4559C32.256 44.454 31.9615 44.4559 31.6668 44.4581C29.4912 44.4611 27.8812 43.9364 26.2643 42.422C24.9757 41.1137 24.4316 39.4756 24.4159 37.667C24.415 37.571 24.414 37.4749 24.4131 37.376C24.4232 36.481 24.4232 36.481 24.7206 36.0769C24.9024 35.9755 24.9024 35.9755 25.1029 35.9163C25.6989 35.6792 25.9157 35.2361 26.1614 34.6673C26.4622 33.853 26.5319 33.2443 26.1943 32.4369C25.7772 31.428 25.6284 30.2193 25.9616 29.1626C26.1641 28.9028 26.3591 28.8323 26.6829 28.7737C28.3414 28.5781 29.9786 29.0486 31.2399 30.1588ZM27.38 30.315C27.2917 31.4455 27.7228 32.2947 28.4146 33.1596C28.9425 33.7473 29.7832 34.2635 30.5712 34.3927C30.7263 34.3985 30.8815 34.4002 31.0366 34.3982C31.1157 34.3974 31.1948 34.3966 31.2762 34.3958C31.3661 34.3942 31.3661 34.3942 31.4577 34.3927C31.546 33.2621 31.1149 32.4129 30.423 31.548C29.8951 30.9604 29.0545 30.4441 28.2664 30.315C28.1114 30.3091 27.9562 30.3074 27.801 30.3094C27.6824 30.3106 27.6824 30.3106 27.5614 30.3118C27.5015 30.3129 27.4417 30.3139 27.38 30.315ZM33.9332 31.6903C33.4259 32.3447 33.0368 33.1363 33.0478 33.9716C33.0486 34.0507 33.0494 34.1297 33.0502 34.2112C33.0512 34.2711 33.0523 34.331 33.0533 34.3927C34.1839 34.481 35.0331 34.0499 35.8979 33.358C36.4856 32.8301 37.0018 31.9894 37.131 31.2014C37.1369 31.0464 37.1386 30.8911 37.1366 30.736C37.1358 30.6569 37.135 30.5779 37.1341 30.4964C37.1331 30.4365 37.1321 30.3766 37.131 30.315C35.8618 30.2158 34.8021 30.7919 33.9332 31.6903ZM27.8232 34.6586C27.5599 35.2729 27.5599 35.2729 27.2913 35.8996C27.5683 35.992 27.8456 36.0835 28.1255 36.1663C29.5198 36.5928 30.5219 37.3573 31.5463 38.3817C31.5463 37.5626 31.5463 36.7436 31.5463 35.8996C31.369 35.8942 31.1916 35.8887 31.0089 35.883C29.9328 35.8047 28.9834 35.4457 28.0891 34.8359C28.0014 34.7774 27.9136 34.7189 27.8232 34.6586ZM25.9616 37.4066C25.8817 38.8885 26.2876 40.0721 27.2138 41.235C27.9412 42.0144 28.8547 42.4967 29.8621 42.814C29.9182 42.8322 29.9743 42.8504 30.0321 42.8691C30.3085 42.9194 30.5788 42.9108 30.8593 42.9082C30.9713 42.9074 31.0833 42.9066 31.1987 42.9058C31.3269 42.9042 31.3269 42.9042 31.4577 42.9027C31.5377 41.4208 31.1317 40.2372 30.2056 39.0743C29.4781 38.2949 28.5646 37.8126 27.5573 37.4953C27.5012 37.4771 27.4451 37.4589 27.3872 37.4402C27.1109 37.3899 26.8405 37.3985 26.56 37.4011C26.392 37.4023 26.392 37.4023 26.2207 37.4035C26.1352 37.4045 26.0497 37.4056 25.9616 37.4066ZM34.4716 38.9136C33.9396 39.5429 33.518 40.1785 33.2306 40.9525C33.198 41.039 33.198 41.039 33.1648 41.1273C32.9872 41.7003 33.0383 42.3098 33.0533 42.9027C33.9812 43.1406 35.0663 42.77 35.8796 42.3171C36.1257 42.1652 36.3632 42.0061 36.5992 41.8389C36.6556 41.8001 36.7121 41.7612 36.7702 41.7212C37.628 41.065 38.2807 39.9007 38.5224 38.8599C38.5836 38.3787 38.5616 37.8906 38.5494 37.4066C37.028 37.3245 35.5379 37.7672 34.4716 38.9136Z" fill="black"/>
<path d="M15.147 19.5884C15.6443 19.5884 16.1416 19.5884 16.654 19.5884C16.6987 19.8617 16.7429 20.135 16.787 20.4084C16.7997 20.4857 16.8123 20.5631 16.8254 20.6428C16.8374 20.7176 16.8494 20.7925 16.8618 20.8696C16.8729 20.9383 16.8841 21.007 16.8955 21.0778C16.9199 21.2727 16.9199 21.2727 16.9199 21.6272C16.4519 21.7442 15.9838 21.8613 15.5016 21.9818C15.1936 21.2118 15.1191 20.4133 15.147 19.5884Z" fill="black"/>
<path d="M15.7674 16.3975C16.2355 16.573 16.7035 16.7485 17.1858 16.9293C17.1205 17.2556 17.0472 17.568 16.9586 17.8878C16.9347 17.9743 16.9109 18.0608 16.8863 18.1499C16.8681 18.2152 16.8499 18.2804 16.8312 18.3477C16.3124 18.302 15.8269 18.2188 15.3242 18.0817C15.3704 17.4704 15.5459 16.9693 15.7674 16.3975Z" fill="black"/>
</svg>
