<svg width="46" height="46" viewBox="0 0 46 46" fill="none" xmlns="http://www.w3.org/2000/svg">
<g clip-path="url(#clip0_358_964)">
<path d="M13.4217 20.5032C13.9006 20.788 14.3354 21.1322 14.7711 21.4783C15.3748 21.943 15.9393 21.9631 16.686 21.8931C17.2629 21.7431 17.682 21.3045 18.1265 20.9291C19.0165 20.2414 20.0379 20.2208 21.1183 20.2975C21.8756 20.4142 22.4332 20.8752 23.0182 21.3398C23.5956 21.7983 24.032 21.9142 24.7584 21.9707C25.8266 22.0703 26.6999 22.3425 27.5895 22.9568C27.6439 22.9938 27.6983 23.0307 27.7543 23.0687C28.5714 23.6928 29.1556 24.7111 29.3624 25.7049C29.4102 26.089 29.4386 26.4704 29.451 26.8573C29.5345 26.8542 29.6179 26.8511 29.7038 26.8479C29.8694 26.8443 29.8694 26.8443 30.0383 26.8406C30.1473 26.8376 30.2564 26.8345 30.3687 26.8313C30.7925 26.8653 31.0763 26.987 31.3891 27.2756C31.4315 27.3277 31.4739 27.3798 31.5176 27.4335C31.5611 27.4856 31.6047 27.5377 31.6495 27.5914C31.8811 27.9232 31.8567 28.2428 31.8588 28.6344C31.8592 28.6977 31.8597 28.761 31.8601 28.8263C31.8614 29.0363 31.862 29.2463 31.8625 29.4564C31.8627 29.5286 31.863 29.6008 31.8633 29.6752C31.8646 30.0586 31.8654 30.4419 31.8658 30.8253C31.8663 31.2174 31.8684 31.6095 31.8709 32.0015C31.8726 32.3061 31.873 32.6106 31.8732 32.9152C31.8734 33.0594 31.8741 33.2036 31.8753 33.3479C31.892 35.542 31.4138 37.7709 29.8943 39.445C29.585 39.6512 29.4602 39.6594 29.0965 39.6223C28.8915 39.5281 28.8915 39.5281 28.7419 39.3563C28.6625 39.0753 28.6048 38.8516 28.721 38.5737C28.8266 38.4006 28.9398 38.236 29.0577 38.071C30.9988 35.1561 30.3375 31.9065 30.3375 28.3642C16.2082 28.3204 16.2082 28.3204 1.79352 28.2756C1.46909 34.1646 1.46909 34.1646 3.96492 39.1368C5.68596 40.826 7.89779 41.3352 10.2461 41.3309C10.388 41.3313 10.5298 41.3317 10.6716 41.3323C11.0535 41.3334 11.4354 41.3335 11.8173 41.3333C12.1378 41.3332 12.4582 41.3336 12.7787 41.334C13.5358 41.335 14.2928 41.3351 15.0499 41.3345C15.827 41.334 16.6041 41.3351 17.3812 41.337C18.0518 41.3385 18.7225 41.3391 19.3932 41.3388C19.7922 41.3386 20.1912 41.3388 20.5902 41.3401C20.966 41.3412 21.3417 41.341 21.7175 41.3399C21.8541 41.3397 21.9907 41.3399 22.1273 41.3406C23.8973 41.3495 25.4316 41.01 26.9714 40.097C27.2651 39.9631 27.4477 39.939 27.7668 39.9769C28.0613 40.1946 28.1902 40.3248 28.2654 40.686C28.1632 41.1764 27.7979 41.3878 27.4011 41.65C26.1824 42.3553 24.825 42.7403 23.4231 42.7249C23.4262 42.8393 23.4293 42.9536 23.4325 43.0715C23.435 43.2237 23.4374 43.376 23.4397 43.5282C23.442 43.6034 23.4442 43.6785 23.4465 43.7559C23.4539 44.3956 23.3281 44.7895 22.9522 45.3178C22.5529 45.7264 22.2255 45.8423 21.6607 45.8613C21.4455 45.8628 21.2304 45.8629 21.0153 45.8619C20.8965 45.8623 20.7776 45.8627 20.6587 45.8633C20.3369 45.8645 20.0151 45.8641 19.6933 45.8632C19.3561 45.8625 19.0188 45.8632 18.6815 45.8636C18.1152 45.8641 17.5488 45.8634 16.9825 45.8622C16.3284 45.8607 15.6743 45.8612 15.0202 45.8626C14.4579 45.8639 13.8956 45.864 13.3333 45.8633C12.9977 45.8629 12.6622 45.8629 12.3267 45.8637C12.0112 45.8645 11.6957 45.864 11.3802 45.8624C11.2097 45.8619 11.0391 45.8627 10.8686 45.8635C10.2017 45.8586 9.78598 45.8027 9.26748 45.3566C8.78518 44.796 8.76116 44.3326 8.77993 43.6224C8.78113 43.536 8.78233 43.4496 8.78357 43.3606C8.78668 43.1487 8.79105 42.9368 8.79655 42.7249C8.7131 42.7273 8.7131 42.7273 8.62796 42.7297C8.12823 42.738 7.67484 42.706 7.18984 42.5864C7.12601 42.5709 7.06218 42.5554 6.99641 42.5394C4.58332 41.9152 2.69377 40.3257 1.41124 38.2261C1.02275 37.5177 0.764809 36.7658 0.55248 35.9878C0.528545 35.9013 0.528545 35.9013 0.504126 35.8131C0.321136 35.041 0.34608 34.2542 0.345409 33.4659C0.344838 33.3077 0.344242 33.1494 0.343621 32.9912C0.342564 32.661 0.34223 32.3309 0.342336 32.0008C0.342354 31.5787 0.339925 31.1567 0.336881 30.7346C0.334906 30.4085 0.33455 30.0823 0.334643 29.7561C0.334435 29.6005 0.333654 29.4449 0.332279 29.2893C0.330534 29.0717 0.331054 28.8541 0.332121 28.6365C0.331124 28.573 0.330128 28.5095 0.329102 28.444C0.335778 27.9054 0.512064 27.5403 0.872783 27.1429C1.45344 26.7465 2.09669 26.8179 2.76863 26.8573C2.76451 26.7992 2.7604 26.7412 2.75616 26.6814C2.70869 25.481 3.18218 24.4434 3.95981 23.5497C4.63881 22.8268 4.63881 22.8268 5.16761 22.7297C5.52748 22.7986 5.6554 22.9308 5.87124 23.2228C5.92664 23.4887 5.92664 23.4887 5.87124 23.7547C5.69394 23.9596 5.69394 23.9596 5.5724 24.068C4.63787 24.9084 4.39739 25.5947 4.18696 26.8573C12.0561 26.8573 19.9252 26.8573 28.0327 26.8573C27.7271 25.431 27.4672 24.8278 26.38 23.97C25.7984 23.6171 25.2509 23.5373 24.5866 23.4943C23.5526 23.4087 22.8722 23.133 22.0342 22.5171C21.9477 22.4538 21.8612 22.3905 21.7721 22.3252C21.6905 22.2647 21.6089 22.2041 21.5249 22.1417C20.9341 21.7294 20.412 21.7426 19.7 21.8044C19.1225 21.95 18.7035 22.3936 18.2595 22.7685C17.3771 23.4503 16.3418 23.4902 15.2677 23.4001C14.4166 23.2118 13.7102 22.6225 13.036 22.0967C12.4877 21.7069 11.934 21.7482 11.2786 21.8044C10.8316 21.9137 10.5141 22.2008 10.1597 22.4832C9.32121 23.1495 8.63387 23.4366 7.542 23.4472C7.23008 23.389 7.12447 23.2963 6.93499 23.0455C6.89066 22.7352 6.89066 22.7352 6.93499 22.425C7.20542 22.0679 7.43804 22.0196 7.87131 21.9596C8.56059 21.8287 8.97151 21.5319 9.50572 21.0953C9.64273 20.9953 9.78117 20.8973 9.92125 20.8016C9.97827 20.7618 10.0353 20.7219 10.094 20.6808C11.0538 20.143 12.403 20.065 13.4217 20.5032ZM10.2149 42.8135C10.2149 43.2816 10.2149 43.7496 10.2149 44.2319C10.5736 44.5009 10.6158 44.531 11.027 44.531C11.1657 44.5319 11.1657 44.5319 11.3072 44.5329C11.4082 44.5322 11.5091 44.5315 11.6131 44.5308C11.7198 44.5311 11.8265 44.5315 11.9365 44.5318C12.2288 44.5324 12.521 44.5318 12.8134 44.5306C13.1194 44.5296 13.4254 44.53 13.7314 44.5301C14.2453 44.5302 14.7592 44.5292 15.2731 44.5276C15.8671 44.5257 16.461 44.5254 17.055 44.526C17.6266 44.5265 18.1981 44.526 18.7697 44.525C19.0129 44.5246 19.2561 44.5245 19.4992 44.5247C19.8388 44.5249 20.1783 44.5236 20.5179 44.5221C20.6693 44.5225 20.6693 44.5225 20.8238 44.5228C20.9163 44.5222 21.0087 44.5216 21.104 44.5209C21.1843 44.5207 21.2646 44.5205 21.3473 44.5204C21.578 44.4961 21.7212 44.4448 21.9161 44.3205C22.1412 43.8704 22.0048 43.3167 22.0048 42.8135C18.1141 42.8135 14.2235 42.8135 10.2149 42.8135Z" fill="black"/>
<path d="M32.378 0.795461C33.125 1.38292 33.7872 2.08683 34.4614 2.75428C34.6059 2.89684 34.7509 3.03884 34.8965 3.18029C35.1081 3.38596 35.3179 3.59331 35.5274 3.80111C35.5926 3.86383 35.6577 3.92654 35.7249 3.99116C36.0142 4.28164 36.1723 4.45608 36.2845 4.85776C36.2784 5.13911 36.2784 5.13911 36.1344 5.39397C35.8974 5.60604 35.7975 5.67099 35.4806 5.67099C34.9352 5.46774 34.5887 5.07606 34.1918 4.66783C34.1206 4.59583 34.0494 4.52383 33.976 4.44964C33.7493 4.22024 33.5234 3.98998 33.2977 3.75956C33.0713 3.5289 32.8447 3.29845 32.6175 3.06853C32.4764 2.92563 32.3357 2.7823 32.1955 2.63849C32.1315 2.57369 32.0676 2.5089 32.0017 2.44214C31.9459 2.38507 31.89 2.328 31.8324 2.2692C31.4879 1.96577 31.1501 1.88166 30.6937 1.85921C30.1666 1.95958 29.7871 2.13563 29.4527 2.56838C29.2481 2.99312 29.1382 3.36759 29.0671 3.8371C29.0527 3.92932 29.0527 3.92932 29.0381 4.0234C29.0071 4.22425 28.9773 4.42525 28.9475 4.62628C28.9261 4.76651 28.9046 4.90674 28.883 5.04695C28.8268 5.41423 28.7715 5.78164 28.7165 6.1491C28.66 6.52476 28.6026 6.90027 28.5453 7.27579C28.4332 8.01131 28.3221 8.74698 28.2117 9.48276C28.3013 9.49085 28.3013 9.49085 28.3927 9.4991C28.4717 9.50654 28.5507 9.51398 28.632 9.52165C28.7491 9.53248 28.7491 9.53248 28.8685 9.54353C29.1939 9.58303 29.4961 9.66461 29.8073 9.76532C29.8683 9.78494 29.9292 9.80457 29.9921 9.82479C31.2672 10.2541 32.2995 11.1154 32.9099 12.3194C33.3059 13.184 33.6178 14.0809 33.9215 14.9811C34.2267 15.8859 34.5203 16.7407 35.0374 17.5495C35.0692 17.6119 35.1009 17.6743 35.1337 17.7386C35.2287 17.9206 35.2287 17.9206 35.4806 18.0814C36.3534 18.1061 37.2511 17.9135 38.1137 17.7833C38.2532 17.7624 38.3928 17.7415 38.5323 17.7206C38.8226 17.677 39.1128 17.6331 39.403 17.5889C39.7729 17.5328 40.143 17.478 40.5132 17.4236C40.8006 17.3811 41.0879 17.3376 41.3751 17.2938C41.5115 17.2731 41.6479 17.2529 41.7844 17.233C43.0737 17.083 43.0737 17.083 44.0848 16.3528C44.3302 15.8978 44.3536 15.3921 44.2566 14.8902C43.9778 14.4073 43.6069 14.0398 43.2121 13.6497C43.1431 13.5808 43.074 13.5118 43.0028 13.4407C42.7753 13.2138 42.5473 12.9876 42.3192 12.7613C42.1608 12.6035 42.0026 12.4457 41.8443 12.2878C41.4709 11.9154 41.097 11.5434 40.723 11.1715C40.0125 10.4652 39.3027 9.75836 38.5933 9.05112C38.3599 8.81863 38.1262 8.58645 37.8925 8.35429C37.7502 8.21264 37.608 8.07097 37.4657 7.92929C37.4003 7.86445 37.3349 7.79961 37.2674 7.73281C37.1785 7.64409 37.1785 7.64409 37.0878 7.55358C37.0361 7.50214 36.9843 7.4507 36.931 7.3977C36.7574 7.20916 36.7227 7.0969 36.6884 6.84C36.7217 6.55745 36.7217 6.55745 36.9045 6.30259C37.243 6.05773 37.373 6.04859 37.7854 6.11422C38.0706 6.30764 38.3019 6.54865 38.5419 6.79464C38.6149 6.867 38.6879 6.93935 38.7632 7.01389C39.0043 7.25361 39.243 7.4955 39.4818 7.73754C39.6489 7.90489 39.8161 8.07213 39.9834 8.23925C40.334 8.58995 40.6834 8.94184 41.032 9.29452C41.4341 9.70122 41.8378 10.1062 42.2425 10.5102C42.6327 10.8999 43.022 11.2905 43.4107 11.6817C43.5757 11.8476 43.7409 12.0133 43.9064 12.1787C44.1379 12.4106 44.3682 12.6436 44.5982 12.8769C44.6664 12.9448 44.7346 13.0127 44.8049 13.0827C45.576 13.8708 45.7896 14.5553 45.7916 15.6436C45.7825 16.1718 45.7023 16.5699 45.409 17.0177C45.3714 17.0791 45.3338 17.1406 45.295 17.204C44.7739 17.9791 44.0734 18.3025 43.1928 18.5246C42.735 18.6123 42.2748 18.6815 41.8138 18.7501C41.6764 18.7711 41.539 18.7921 41.4016 18.8131C41.0308 18.8698 40.6599 18.9256 40.2889 18.9812C39.9783 19.0279 39.6677 19.075 39.3571 19.122C38.624 19.2332 37.8909 19.3436 37.1576 19.4537C36.4032 19.5669 35.6489 19.6811 34.8947 19.7958C34.2451 19.8946 33.5955 19.9928 32.9457 20.0906C32.5586 20.1488 32.1715 20.2073 31.7844 20.2663C31.4203 20.3217 31.0562 20.3764 30.6919 20.4306C30.5589 20.4505 30.4259 20.4707 30.293 20.4911C27.8766 20.8617 27.8766 20.8617 26.8653 20.148C26.1673 19.5771 25.7041 18.9832 25.5523 18.0814C25.496 17.2511 25.6166 16.443 25.7434 15.6253C25.764 15.4886 25.7845 15.3518 25.8049 15.2151C25.8603 14.8469 25.9166 14.4788 25.9731 14.1108C26.0324 13.7239 26.0909 13.3369 26.1495 12.95C26.248 12.3006 26.3471 11.6513 26.4466 11.0021C26.5614 10.2533 26.6751 9.50444 26.7883 8.75546C26.8976 8.03234 27.0077 7.30933 27.118 6.58637C27.1648 6.27984 27.2113 5.97328 27.2577 5.66668C27.3123 5.30526 27.3676 4.94393 27.4233 4.58268C27.4436 4.45072 27.4637 4.31872 27.4835 4.18669C27.6703 2.9437 27.8486 1.82011 28.8654 0.983834C29.8717 0.268175 31.2925 0.15301 32.378 0.795461ZM27.9457 10.9011C27.8179 11.7094 27.6908 12.5177 27.5643 13.3262C27.5056 13.7017 27.4466 14.0771 27.3872 14.4524C27.3298 14.815 27.273 15.1777 27.2165 15.5405C27.1949 15.6785 27.1732 15.8164 27.1512 15.9544C27.1203 16.1484 27.0902 16.3425 27.0601 16.5367C27.0341 16.702 27.0341 16.702 27.0076 16.8707C26.9317 17.5355 26.9339 18.051 27.3252 18.6133C27.6891 19.0071 28.0638 19.2232 28.6009 19.2473C29.1089 19.2424 29.6055 19.1571 30.1065 19.0787C30.2097 19.0629 30.313 19.0472 30.4194 19.031C30.7473 18.9809 31.0751 18.9301 31.4029 18.8792C31.626 18.845 31.8491 18.8108 32.0723 18.7767C32.6175 18.6933 33.1626 18.6092 33.7077 18.5246C33.7077 18.1027 33.5578 17.8473 33.3697 17.4831C32.9174 16.5747 32.6004 15.629 32.2879 14.666C31.8583 13.3546 31.3862 12.1574 30.1397 11.4441C29.4247 11.0861 28.7446 10.8939 27.9457 10.9011Z" fill="black"/>
<path d="M12.8412 30.4762C12.9192 30.4756 12.9973 30.475 13.0776 30.4744C13.3359 30.4727 13.5943 30.4716 13.8526 30.4708C13.9849 30.4702 13.9849 30.4702 14.1198 30.4697C14.5865 30.4678 15.0531 30.4665 15.5198 30.4657C16.002 30.4647 16.4842 30.4617 16.9664 30.4582C17.3371 30.4558 17.7077 30.4551 18.0784 30.4548C18.2561 30.4544 18.4339 30.4533 18.6117 30.4517C18.8604 30.4495 19.109 30.4496 19.3578 30.4502C19.4312 30.4491 19.5046 30.4479 19.5802 30.4468C19.9303 30.4499 20.1047 30.4674 20.4096 30.6555C20.6384 30.9009 20.6762 31.0442 20.6762 31.3783C20.4874 31.783 20.4874 31.783 20.233 31.9102C19.9725 31.9203 19.7141 31.9251 19.4536 31.9259C19.3325 31.9268 19.3325 31.9268 19.2089 31.9277C18.9411 31.9294 18.6732 31.9305 18.4054 31.9313C18.2684 31.9319 18.2684 31.9319 18.1286 31.9324C17.6454 31.9343 17.1622 31.9355 16.679 31.9364C16.1792 31.9374 15.6794 31.9404 15.1796 31.9439C14.7958 31.9462 14.4121 31.947 14.0284 31.9473C13.8441 31.9477 13.6598 31.9488 13.4755 31.9504C13.2179 31.9526 12.9603 31.9525 12.7026 31.9519C12.5881 31.9536 12.5881 31.9536 12.4712 31.9553C12.1324 31.9524 11.9568 31.9505 11.6753 31.7497C11.4863 31.4666 11.5041 31.2678 11.5457 30.9351C11.8381 30.4059 12.2974 30.4779 12.8412 30.4762Z" fill="black"/>
<path d="M33.618 8.77397C33.7676 8.86504 33.7676 8.86504 33.8839 9.03991C33.9128 9.29751 33.9251 9.53062 33.9227 9.78786C33.9254 9.88942 33.9254 9.88942 33.9281 9.99303C33.9278 10.3243 33.9217 10.4946 33.7236 10.7689C33.4385 10.9635 33.2456 10.9496 32.9088 10.9015C32.6511 10.7048 32.5684 10.5895 32.4656 10.281C32.4323 9.82404 32.3985 9.35449 32.6429 8.95127C32.9449 8.61569 33.1995 8.66744 33.618 8.77397Z" fill="black"/>
<path d="M32.9471 5.8646C33.0475 5.88597 33.1479 5.90733 33.2514 5.92935C33.5543 6.0341 33.6912 6.12546 33.8834 6.37985C33.9574 6.68365 33.9434 6.98569 33.7836 7.26077C33.3738 7.49299 33.0309 7.44807 32.5869 7.34388C32.2819 7.25163 32.1164 7.1825 31.8667 6.97821C31.7173 6.64958 31.7488 6.45832 31.8445 6.11391C32.149 5.69865 32.4846 5.76119 32.9471 5.8646Z" fill="black"/>
<path d="M37.0651 12.8184C37.3291 12.8265 37.4216 12.8459 37.6524 12.9901C37.844 13.3016 37.8381 13.4633 37.7853 13.8267C37.6275 14.2153 37.4635 14.5918 37.1648 14.8905C36.5507 14.9499 36.5507 14.9499 36.234 14.7519C36.0424 14.4405 36.0483 14.2788 36.1011 13.9154C36.5256 12.8706 36.5256 12.8706 37.0651 12.8184Z" fill="black"/>
<path d="M40.2669 14.4853C40.5195 14.6826 40.6141 14.8317 40.6548 15.1501C40.6215 15.4216 40.6215 15.4216 40.4719 15.6266C40.2407 15.7954 40.1059 15.831 39.8237 15.8649C39.4189 15.7981 39.0497 15.6712 38.7046 15.4493C38.5136 15.1282 38.5415 14.9061 38.5827 14.5352C38.9723 13.9601 39.7453 14.2353 40.2669 14.4853Z" fill="black"/>
<path d="M37.3407 10.2805C37.5949 10.4419 37.5949 10.4419 37.7839 10.6351C37.8518 11.0086 37.8234 11.1869 37.6344 11.516C37.1732 11.8031 36.7164 11.7827 36.1883 11.6988C35.8947 11.5105 35.8947 11.5105 35.7451 11.2556C35.6731 10.9099 35.7163 10.7728 35.8947 10.4689C36.3439 10.1807 36.8212 10.1873 37.3407 10.2805Z" fill="black"/>
<path d="M31.3128 3.89786C31.5585 4.08824 31.6474 4.22573 31.7006 4.53258C31.7191 4.87784 31.6879 5.09712 31.5344 5.41039C31.2649 5.61923 31.1069 5.64365 30.7726 5.61746C30.6036 5.58214 30.6036 5.58214 30.382 5.46579C30.165 5.07703 30.1859 4.68622 30.2491 4.25245C30.4837 3.83214 30.8694 3.79609 31.3128 3.89786Z" fill="black"/>
</g>
<defs>
<clipPath id="clip0_358_964">
<rect width="45.3867" height="45.3867" fill="white" transform="translate(0.375 0.44043)"/>
</clipPath>
</defs>
</svg>
