<svg width="46" height="46" viewBox="0 0 46 46" fill="none" xmlns="http://www.w3.org/2000/svg">
<g clip-path="url(#clip0_358_974)">
<path d="M13.7833 13.0341C17.1047 14.2302 19.4671 14.2793 22.8192 13.1507C22.9075 13.121 22.9075 13.121 22.9976 13.0908C23.2861 12.9935 23.5741 12.8952 23.8617 12.7953C25.8913 12.1004 27.802 12.1479 29.7401 13.0868C31.2555 13.8658 32.4912 15.1378 33.3837 16.5736C33.4735 16.7168 33.4735 16.7168 33.5651 16.8628C34.2678 18.0353 34.8348 19.2986 35.068 20.6514C35.1406 20.6472 35.2133 20.6431 35.2882 20.6389C35.3837 20.6357 35.4793 20.6325 35.5777 20.6292C35.6723 20.6251 35.7669 20.621 35.8644 20.6167C36.1317 20.6514 36.1317 20.6514 36.3381 20.8134C36.5475 21.0855 36.586 21.3025 36.585 21.6357C36.585 21.7084 36.585 21.7812 36.585 21.8561C36.5845 21.9343 36.5841 22.0124 36.5836 22.0929C36.5834 22.2133 36.5834 22.2133 36.5832 22.3362C36.5827 22.5927 36.5816 22.8492 36.5805 23.1057C36.58 23.2796 36.5796 23.4535 36.5793 23.6274C36.5783 24.0537 36.5768 24.48 36.5749 24.9064C36.6828 24.9058 36.7906 24.9052 36.9018 24.9046C37.9179 24.8992 38.9339 24.8952 39.95 24.8926C40.4724 24.8912 40.9948 24.8893 41.5172 24.8863C42.0213 24.8834 42.5253 24.8818 43.0294 24.8811C43.2218 24.8806 43.4142 24.8797 43.6065 24.8782C43.8759 24.8763 44.1451 24.876 44.4145 24.8762C44.4941 24.8752 44.5737 24.8743 44.6558 24.8733C45.0777 24.8754 45.3646 24.894 45.7055 25.1723C45.8077 25.3767 45.8061 25.4944 45.8078 25.7219C45.8085 25.7999 45.8093 25.878 45.8101 25.9584C45.8106 26.0872 45.8106 26.0872 45.8112 26.2185C45.8119 26.3088 45.8127 26.399 45.8134 26.492C45.8156 26.7915 45.8171 27.091 45.8184 27.3905C45.8191 27.5436 45.8191 27.5436 45.8198 27.6999C45.8222 28.24 45.8239 28.7801 45.8252 29.3202C45.8266 29.8791 45.8306 30.4379 45.8351 30.9967C45.8381 31.4256 45.8391 31.8545 45.8396 32.2834C45.8402 32.4895 45.8416 32.6955 45.8437 32.9016C45.8465 33.1896 45.8465 33.4775 45.8458 33.7655C45.8473 33.851 45.8487 33.9365 45.8502 34.0246C45.8448 34.5995 45.8449 34.5995 45.5923 34.8876C45.3628 35.0058 45.2361 35.0567 44.9821 35.0579C44.9126 35.059 44.8431 35.0601 44.7714 35.0613C44.6606 35.0602 44.6606 35.0602 44.5475 35.0591C44.4705 35.0594 44.3935 35.0598 44.3141 35.0601C44.1517 35.0604 43.9893 35.0597 43.8269 35.0582C43.5788 35.0563 43.3309 35.0582 43.0828 35.0605C42.9247 35.0602 42.7665 35.0598 42.6084 35.0591C42.5345 35.0598 42.4606 35.0605 42.3845 35.0613C42.0305 35.0556 41.8468 35.0377 41.5388 34.848C41.311 34.6027 41.2732 34.4589 41.2732 34.1255C41.4154 33.8127 41.5162 33.6976 41.805 33.505C42.6241 33.505 43.4432 33.505 44.2871 33.505C44.2871 31.1648 44.2871 28.8245 44.2871 26.4133C43.7606 26.4133 43.234 26.4133 42.6915 26.4133C42.6961 26.6072 42.6961 26.6072 42.7009 26.805C42.7034 26.9755 42.7058 27.1459 42.7081 27.3164C42.7115 27.444 42.7115 27.444 42.7149 27.5742C42.7231 28.3701 42.7231 28.3701 42.4256 28.7181C42.1482 28.8568 41.8396 28.8686 41.5391 28.8068C41.3092 28.6224 41.1964 28.5192 41.1443 28.2248C41.1471 28.0994 41.1471 28.0994 41.1499 27.9716C41.1516 27.8353 41.1516 27.8353 41.1534 27.6963C41.1578 27.5549 41.1578 27.5549 41.1624 27.4106C41.164 27.315 41.1656 27.2193 41.1672 27.1208C41.1714 26.8849 41.1777 26.6491 41.1845 26.4133C40.6287 26.4133 40.0729 26.4133 39.5003 26.4133C39.5033 26.6322 39.5064 26.851 39.5096 27.0765C39.5117 27.2892 39.5133 27.5019 39.5149 27.7146C39.5162 27.862 39.518 28.0095 39.5203 28.1569C39.5236 28.3693 39.5251 28.5816 39.5262 28.794C39.5276 28.8595 39.529 28.9251 39.5304 28.9927C39.5305 29.3913 39.4829 29.6441 39.2343 29.9592C38.9684 30.1365 38.9684 30.1365 38.6637 30.1254C38.3066 30.0377 38.2071 29.9871 37.9933 29.6932C37.9623 29.4309 37.9518 29.2026 37.9586 28.9411C37.9592 28.8688 37.9597 28.7965 37.9602 28.722C37.9622 28.4917 37.9666 28.2614 37.9711 28.0311C37.9729 27.8747 37.9745 27.7183 37.976 27.5619C37.9796 27.179 37.9865 26.7963 37.9933 26.4133C37.5252 26.4133 37.0572 26.4133 36.5749 26.4133C36.5763 26.5207 36.5777 26.628 36.5792 26.7385C36.584 27.138 36.587 27.5375 36.5896 27.9369C36.5909 28.1096 36.5927 28.2822 36.595 28.4549C36.5982 28.7035 36.5997 28.9522 36.6009 29.2008C36.6023 29.2776 36.6037 29.3543 36.6051 29.4334C36.6052 29.882 36.5612 30.1922 36.309 30.5797C35.9539 30.8005 35.5793 30.7782 35.1732 30.7681C35.1118 30.7673 35.0504 30.7665 34.9871 30.7656C34.8368 30.7636 34.6864 30.7604 34.5361 30.757C34.5289 30.8366 34.5217 30.9163 34.5143 30.9983C34.4411 31.5105 34.2548 31.9926 34.0873 32.48C34.0539 32.5787 34.0205 32.6774 33.986 32.779C33.9039 33.0212 33.8213 33.2632 33.7383 33.505C33.8172 33.504 33.8962 33.503 33.9776 33.502C34.7223 33.4931 35.4671 33.4864 36.2118 33.482C36.5947 33.4797 36.9776 33.4766 37.3604 33.4716C37.73 33.4668 38.0996 33.4641 38.4692 33.463C38.6101 33.4621 38.751 33.4605 38.8919 33.4581C39.0895 33.4549 39.2869 33.4545 39.4846 33.4547C39.597 33.4537 39.7094 33.4527 39.8252 33.4517C40.2017 33.5196 40.3317 33.65 40.564 33.9482C40.6194 34.2585 40.6194 34.2585 40.564 34.5688C40.3235 34.8844 40.1942 34.9999 39.7982 35.0653C39.672 35.0666 39.5457 35.0654 39.4195 35.0623C39.3156 35.0624 39.3156 35.0624 39.2097 35.0625C38.9818 35.0622 38.7541 35.0588 38.5262 35.0553C38.3678 35.0544 38.2095 35.0538 38.0511 35.0534C37.635 35.0517 37.219 35.0473 36.8029 35.0424C36.3781 35.0379 35.9532 35.0359 35.5283 35.0336C34.6952 35.0289 33.8622 35.0213 33.0291 35.012C33.0117 35.0657 32.9943 35.1194 32.9763 35.1747C32.953 35.2458 32.9297 35.3168 32.9057 35.3899C32.8828 35.4601 32.8599 35.5303 32.8363 35.6026C32.7291 35.9065 32.5897 36.1888 32.4418 36.4746C32.4109 36.5351 32.3801 36.5955 32.3482 36.6577C32.2831 36.7847 32.2177 36.9115 32.152 37.0382C32.057 37.2223 31.9638 37.4073 31.8708 37.5924C31.17 38.9709 30.3518 40.3374 29.306 41.4831C29.2673 41.526 29.2287 41.5689 29.1889 41.6131C27.9912 42.9272 26.5083 43.8606 24.6945 43.9614C23.5896 43.9854 22.5487 43.6009 21.5716 43.1176C19.7288 42.2711 17.5114 42.3132 15.632 43.0081C15.3712 43.1156 15.1138 43.2286 14.8567 43.3447C13.4289 43.9858 12.0539 44.1333 10.5518 43.6383C9.51069 43.2249 8.73028 42.6143 7.94231 41.8377C7.86749 41.7666 7.86749 41.7666 7.79116 41.694C7.41205 41.3278 7.09986 40.9416 6.80099 40.508C6.75511 40.442 6.70923 40.376 6.66196 40.3079C4.97868 37.8605 2.35762 33.8045 2.35762 30.757C2.2678 30.7601 2.17798 30.7632 2.08545 30.7663C1.96564 30.7688 1.84583 30.7713 1.72601 30.7736C1.66705 30.7758 1.60809 30.7781 1.54734 30.7804C1.12883 30.7865 0.850184 30.7133 0.496053 30.4911C0.39378 30.2865 0.395628 30.1691 0.394361 29.9415C0.393726 29.8634 0.393092 29.7854 0.392439 29.705C0.3922 29.6191 0.391962 29.5333 0.391716 29.4448C0.391134 29.3546 0.390551 29.2643 0.389951 29.1714C0.388199 28.8719 0.387168 28.5723 0.386284 28.2728C0.385923 28.1707 0.385562 28.0687 0.38519 27.9635C0.38334 27.4234 0.382072 26.8832 0.381241 26.3431C0.38026 25.7843 0.377209 25.2255 0.373691 24.6666C0.371378 24.2377 0.370632 23.8088 0.370314 23.3799C0.369881 23.1739 0.368846 22.9678 0.367207 22.7618C0.365057 22.4738 0.365128 22.1858 0.365746 21.8978C0.364042 21.7696 0.364042 21.7696 0.362305 21.6388C0.366814 21.0634 0.366814 21.0634 0.570595 20.7751C0.830217 20.6073 1.00974 20.6159 1.31603 20.6292C1.41156 20.6324 1.50709 20.6356 1.60551 20.6389C1.67819 20.643 1.75086 20.6471 1.82574 20.6514C1.83671 20.5951 1.84768 20.5389 1.85898 20.481C2.46842 17.7233 4.12379 15.0582 6.50181 13.4987C8.88693 11.9905 11.232 12.1119 13.7833 13.0341ZM6.43533 15.5099C6.36197 15.5666 6.28861 15.6232 6.21302 15.6816C5.211 16.5109 4.47933 17.8189 3.95878 18.9948C3.92285 19.0757 3.92285 19.0757 3.8862 19.1583C3.67857 19.6515 3.56545 20.123 3.42137 20.6514C13.3382 20.6514 23.255 20.6514 33.4723 20.6514C33.2907 19.9248 33.1228 19.3251 32.8019 18.6679C32.7633 18.5879 32.7247 18.508 32.685 18.4256C32.3354 17.7215 31.9225 17.0985 31.4335 16.485C31.3593 16.3866 31.3593 16.3866 31.2835 16.2862C30.2277 14.9685 28.5798 14.0356 26.9125 13.8256C25.7187 13.7001 24.5437 14.1547 23.4336 14.541C19.2714 15.9858 16.4002 15.5853 12.2823 14.1742C12.1386 14.1254 12.1386 14.1254 11.992 14.0756C11.9075 14.0466 11.823 14.0176 11.7359 13.9877C9.80337 13.4147 7.87965 14.2391 6.43533 15.5099ZM1.91439 22.1583C1.91439 24.4986 1.91439 26.8388 1.91439 29.25C2.6998 29.2513 3.48522 29.2526 4.29443 29.2539C6.8054 29.2582 9.31636 29.2639 11.8273 29.2703C12.2171 29.2713 12.6069 29.2723 12.9968 29.2733C13.0744 29.2735 13.152 29.2737 13.2319 29.2739C14.4897 29.277 15.7475 29.2792 17.0052 29.2811C18.2952 29.283 19.5851 29.2859 20.875 29.2898C21.6714 29.2921 22.4678 29.2937 23.2642 29.2943C23.8097 29.2947 24.3553 29.2962 24.9009 29.2984C25.216 29.2996 25.5311 29.3004 25.8462 29.3001C26.1874 29.2997 26.5285 29.3014 26.8696 29.3033C27.02 29.3027 27.02 29.3027 27.1735 29.302C27.2645 29.3028 27.3555 29.3037 27.4493 29.3045C27.5281 29.3047 27.6069 29.3049 27.6881 29.3051C27.9288 29.3456 28.0077 29.4123 28.1536 29.6046C28.1827 29.7763 28.1827 29.7763 28.1757 29.9592C28.1744 30.0195 28.173 30.0798 28.1716 30.142C28.1536 30.3138 28.1536 30.3138 28.0649 30.5797C27.7709 30.6453 27.4986 30.6796 27.1975 30.6806C27.1142 30.6811 27.0309 30.6816 26.945 30.6821C26.8542 30.6822 26.7634 30.6823 26.6699 30.6824C26.5728 30.6828 26.4758 30.6832 26.3758 30.6837C26.0501 30.6851 25.7244 30.6858 25.3987 30.6865C25.1654 30.6874 24.9322 30.6883 24.6989 30.6892C24.1965 30.6911 23.694 30.6927 23.1915 30.6941C22.4651 30.6961 21.7386 30.6986 21.0121 30.7013C19.8334 30.7055 18.6547 30.7093 17.476 30.7129C16.3311 30.7164 15.1861 30.7201 14.0412 30.724C13.9353 30.7243 13.9353 30.7243 13.8273 30.7247C13.4732 30.7259 13.1191 30.7271 12.765 30.7284C9.82776 30.7385 6.8905 30.7479 3.95324 30.757C3.98136 30.8853 4.00959 31.0136 4.03786 31.1419C4.06142 31.2491 4.06142 31.2491 4.08546 31.3584C4.16533 31.7064 4.28288 32.0387 4.40201 32.3748C4.42907 32.4512 4.45613 32.5276 4.48402 32.6063C5.45691 35.3052 6.7485 38.0038 8.56283 40.2421C8.61414 40.3069 8.66545 40.3717 8.71831 40.4384C9.42312 41.2904 10.5373 42.1867 11.6654 42.3696C12.7278 42.4475 13.5513 42.2632 14.5076 41.7989C16.7708 40.7363 19.343 40.7275 21.689 41.507C21.9575 41.609 22.2187 41.7194 22.4802 41.8377C22.674 41.9194 22.8679 42.0007 23.062 42.0815C23.1462 42.1176 23.2304 42.1537 23.3172 42.1909C24.1491 42.5212 25.153 42.479 25.9717 42.1321C29.565 40.3166 31.301 35.6526 32.597 32.1088C32.6316 32.0143 32.6663 31.9198 32.702 31.8224C32.7334 31.7346 32.7648 31.6467 32.7971 31.5562C32.8249 31.4787 32.8527 31.4013 32.8813 31.3215C32.9565 31.091 32.9565 31.091 32.9405 30.757C32.8488 30.7548 32.7571 30.7525 32.6627 30.7503C32.3215 30.7419 31.9804 30.733 31.6392 30.724C31.4918 30.7202 31.3443 30.7165 31.1969 30.7129C30.9845 30.7078 30.7722 30.7021 30.5598 30.6964C30.4943 30.6949 30.4287 30.6934 30.3611 30.6919C30.0296 30.6825 29.7173 30.6575 29.3946 30.5797C29.3174 30.348 29.2892 30.1979 29.2838 29.9592C29.2815 29.8988 29.2792 29.8385 29.2769 29.7763C29.3163 29.5438 29.3846 29.481 29.5719 29.3387C29.8092 29.3033 29.8092 29.3033 30.0985 29.3003C30.2082 29.2986 30.318 29.2968 30.4311 29.295C30.5465 29.2944 30.6619 29.2939 30.7808 29.2933C30.9398 29.2911 30.9398 29.2911 31.1021 29.2888C31.4988 29.2837 31.8955 29.2808 32.2922 29.2777C33.179 29.2686 34.0657 29.2594 34.9793 29.25C34.9793 26.9098 34.9793 24.5695 34.9793 22.1583C34.482 22.1583 33.9847 22.1583 33.4723 22.1583C33.4701 22.2822 33.4678 22.4061 33.4654 22.5337C33.4604 22.6967 33.4553 22.8597 33.4502 23.0226C33.4489 23.1042 33.4477 23.1858 33.4464 23.2699C33.4245 23.8726 33.4245 23.8726 33.222 24.1636C32.9441 24.3397 32.7307 24.3151 32.4086 24.2858C32.3208 24.2566 32.2331 24.2273 32.1426 24.1972C32.0602 23.9498 32.0374 23.7748 32.026 23.5175C32.0222 23.4383 32.0185 23.3592 32.0147 23.2777C32.0112 23.1953 32.0077 23.113 32.0041 23.0282C32.0003 22.9448 31.9965 22.8615 31.9925 22.7756C31.9831 22.5698 31.9742 22.3641 31.9654 22.1583C31.4095 22.1583 30.8537 22.1583 30.2811 22.1583C30.2778 22.3718 30.2745 22.5852 30.271 22.8052C30.2669 23.0123 30.2624 23.2194 30.2578 23.4266C30.2549 23.5703 30.2524 23.7141 30.2504 23.8578C30.2474 24.0647 30.2428 24.2715 30.2378 24.4784C30.2372 24.5425 30.2367 24.6066 30.2361 24.6726C30.2255 25.0379 30.194 25.2678 29.9265 25.5269C29.6589 25.6255 29.5203 25.6259 29.245 25.549C29.04 25.4382 29.04 25.4382 28.8627 25.1723C28.8415 24.9411 28.8297 24.7185 28.826 24.487C28.8235 24.3872 28.8235 24.3872 28.8208 24.2854C28.8155 24.0732 28.8114 23.861 28.8073 23.6487C28.804 23.5047 28.8005 23.3607 28.797 23.2167C28.7883 22.8639 28.7812 22.5112 28.7741 22.1583C28.2183 22.1583 27.6625 22.1583 27.0898 22.1583C27.0643 22.6966 27.0643 22.6966 27.0395 23.235C27.0361 23.3025 27.0327 23.37 27.0292 23.4395C27.026 23.5082 27.0227 23.577 27.0194 23.6477C27.0011 23.8436 26.9818 24.0127 26.9125 24.1972C26.5941 24.3033 26.3605 24.3152 26.0261 24.2858C25.8332 24.1636 25.8332 24.1636 25.6715 23.9313C25.6153 23.629 25.6097 23.3295 25.605 23.0226C25.6011 22.8982 25.6011 22.8982 25.597 22.7712C25.5908 22.567 25.5866 22.3627 25.5828 22.1583C25.027 22.1583 24.4712 22.1583 23.8986 22.1583C23.8953 22.3644 23.8919 22.5704 23.8885 22.7827C23.8844 22.9831 23.8799 23.1834 23.8753 23.3838C23.8724 23.5227 23.8699 23.6615 23.8679 23.8004C23.8649 24.0005 23.8602 24.2004 23.8553 24.4005C23.8547 24.4622 23.8542 24.5239 23.8536 24.5874C23.8421 24.9714 23.7812 25.222 23.544 25.5269C23.2734 25.6337 23.141 25.6277 22.8625 25.5435C22.6575 25.4382 22.6575 25.4382 22.4802 25.2609C22.4585 25.0262 22.4471 24.8001 22.4435 24.5649C22.441 24.462 22.441 24.462 22.4383 24.357C22.433 24.1375 22.4289 23.9181 22.4248 23.6986C22.4215 23.5499 22.418 23.4012 22.4144 23.2526C22.4058 22.8878 22.3987 22.5231 22.3916 22.1583C21.8358 22.1583 21.28 22.1583 20.7073 22.1583C20.6818 22.6635 20.6818 22.6635 20.657 23.1687C20.6384 23.5192 20.6131 23.8546 20.53 24.1972C20.2116 24.3033 19.978 24.3152 19.6436 24.2858C19.4507 24.1636 19.4507 24.1636 19.289 23.9313C19.2328 23.629 19.2272 23.3295 19.2225 23.0226C19.2199 22.9397 19.2172 22.8567 19.2145 22.7712C19.2083 22.567 19.2041 22.3627 19.2003 22.1583C18.6445 22.1583 18.0887 22.1583 17.5161 22.1583C17.5096 22.4689 17.5096 22.4689 17.5029 22.7858C17.4981 22.9868 17.493 23.1877 17.4879 23.3887C17.4845 23.5281 17.4815 23.6676 17.4787 23.8071C17.4746 24.0078 17.4695 24.2084 17.4641 24.4091C17.4631 24.4713 17.4621 24.5334 17.461 24.5975C17.4514 24.916 17.4426 25.1764 17.2501 25.4382C16.8643 25.5911 16.5864 25.6481 16.1864 25.5269C16.0779 25.2016 16.0772 24.8954 16.0697 24.5563C16.0678 24.4878 16.066 24.4193 16.0641 24.3487C16.0583 24.1302 16.0531 23.9116 16.0479 23.693C16.044 23.5448 16.0402 23.3965 16.0363 23.2482C16.0267 22.8849 16.0179 22.5216 16.0091 22.1583C15.4533 22.1583 14.8975 22.1583 14.3248 22.1583C14.3063 22.6634 14.3063 22.6634 14.2904 23.1687C14.2697 23.6181 14.2146 23.9528 13.8816 24.2858C13.3357 24.327 13.3357 24.327 13.0667 24.1786C12.8613 23.9752 12.8594 23.8722 12.8525 23.5867C12.8496 23.5036 12.8467 23.4204 12.8438 23.3348C12.8425 23.2482 12.8413 23.1617 12.84 23.0725C12.8374 22.9849 12.8347 22.8973 12.832 22.8071C12.8258 22.5909 12.8216 22.3746 12.8178 22.1583C12.262 22.1583 11.7062 22.1583 11.1336 22.1583C11.127 22.4578 11.127 22.4578 11.1204 22.7633C11.1156 22.9575 11.1105 23.1517 11.1054 23.3459C11.102 23.4805 11.099 23.615 11.0962 23.7496C11.0921 23.9435 11.087 24.1373 11.0816 24.3312C11.0774 24.506 11.0774 24.506 11.0732 24.6843C11.0464 24.9785 11.0108 25.181 10.8676 25.4382C10.5479 25.577 10.3416 25.6344 9.99779 25.5657C9.74435 25.3991 9.71578 25.2837 9.62658 24.995C9.60651 24.7743 9.59517 24.5527 9.58988 24.3312C9.58816 24.2689 9.58644 24.2065 9.58467 24.1423C9.5794 23.9445 9.57528 23.7468 9.57118 23.549C9.56779 23.4143 9.56433 23.2797 9.56079 23.145C9.55217 22.8161 9.54509 22.4873 9.53794 22.1583C9.01138 22.1583 8.48482 22.1583 7.94231 22.1583C7.92026 22.6343 7.92026 22.6343 7.89993 23.1103C7.88087 23.4731 7.85599 23.7841 7.67637 24.1085C7.34884 24.3269 7.17704 24.3204 6.78991 24.2858C6.55802 24.1235 6.52664 24.0279 6.43533 23.754C6.42248 23.6293 6.4135 23.5041 6.40728 23.3789C6.40221 23.2828 6.40221 23.2828 6.39704 23.1846C6.39322 23.1037 6.3894 23.0229 6.38547 22.9395C6.37267 22.6817 6.35987 22.4239 6.34668 22.1583C5.79087 22.1583 5.23506 22.1583 4.66241 22.1583C4.65436 22.4897 4.65436 22.4897 4.64614 22.8277C4.64066 23.0416 4.63504 23.2554 4.62941 23.4693C4.62557 23.618 4.62187 23.7666 4.61833 23.9153C4.6132 24.129 4.60756 24.3426 4.60181 24.5563C4.59959 24.656 4.59959 24.656 4.59732 24.7578C4.58942 25.0355 4.57356 25.2616 4.48512 25.5269C3.78179 25.6648 3.78179 25.6648 3.42137 25.4382C3.22936 25.0722 3.21715 24.7401 3.20737 24.3312C3.20565 24.2689 3.20394 24.2065 3.20217 24.1423C3.1969 23.9445 3.19277 23.7468 3.18867 23.549C3.18529 23.4143 3.18182 23.2797 3.17828 23.145C3.16966 22.8161 3.16259 22.4873 3.15543 22.1583C2.74589 22.1583 2.33634 22.1583 1.91439 22.1583Z" fill="black"/>
<path d="M30.7886 2.78275C31.1803 3.27513 31.027 4.18838 30.9726 4.78996C30.719 6.89859 29.5112 8.66427 27.9253 10.0264C26.2128 11.341 24.1782 11.9802 22.0303 11.7159C20.9289 11.554 20.9289 11.554 20.6286 11.2838C20.147 10.2937 20.4985 8.80898 20.8319 7.81202C21.1669 6.89301 21.6607 6.05516 22.3018 5.31677C22.3608 5.24512 22.4197 5.17348 22.4805 5.09966C22.978 4.51532 23.5316 4.06565 24.1634 3.6325C24.2343 3.58325 24.3053 3.534 24.3784 3.48326C25.2517 2.91818 26.3222 2.52218 27.3546 2.39146C27.436 2.38072 27.5173 2.36997 27.6012 2.35891C28.5331 2.25836 30.0119 2.15091 30.7886 2.78275ZM24.1634 5.58271C24.0941 5.64476 24.0249 5.70681 23.9535 5.77074C23.4516 6.2448 23.0853 6.75667 22.745 7.35563C22.703 7.42876 22.6609 7.50189 22.6176 7.57724C22.161 8.42526 22.0157 9.23895 22.0359 10.1923C24.0261 10.2468 25.6373 9.93735 27.1773 8.59667C27.2293 8.55725 27.2813 8.51783 27.3349 8.47721C28.5248 7.55172 29.2742 5.99032 29.4821 4.51896C29.4974 4.23475 29.4974 4.23475 29.4821 3.98708C29.2657 3.77066 28.6453 3.87078 28.3411 3.87054C26.7582 3.89413 25.3318 4.52322 24.1634 5.58271Z" fill="black"/>
<path d="M14.3303 5.23852C16.1841 5.93683 17.5037 7.34366 18.3325 9.11332C18.8222 10.2157 19.3219 11.636 19.1117 12.851C18.9484 13.0646 18.8419 13.183 18.5798 13.2527C18.5213 13.2518 18.4628 13.2508 18.4025 13.2499C18.3147 13.2513 18.3147 13.2513 18.2252 13.2527C17.9483 13.1791 17.8634 13.0852 17.6933 12.851C17.5935 12.5459 17.5333 12.235 17.4717 11.9202C17.434 11.743 17.3959 11.5658 17.3574 11.3887C17.3391 11.3039 17.3208 11.2191 17.302 11.1318C16.9431 9.53314 16.1277 8.13821 14.7514 7.22752C13.7329 6.65118 12.719 6.42569 11.5613 6.35495C11.1261 6.32545 10.7988 6.27161 10.4244 6.02526C10.2859 5.73162 10.2859 5.73162 10.2471 5.40473C10.731 4.09824 13.3363 4.91934 14.3303 5.23852Z" fill="black"/>
</g>
<defs>
<clipPath id="clip0_358_974">
<rect width="45.3867" height="45.3867" fill="white" transform="translate(0.40625 0.44043)"/>
</clipPath>
</defs>
</svg>
