<svg width="46" height="46" viewBox="0 0 46 46" fill="none" xmlns="http://www.w3.org/2000/svg">
<path d="M11.9478 9.74978C12.3508 10.1154 12.7069 10.5204 13.0624 10.932C13.1151 10.8859 13.1678 10.8399 13.2221 10.7924C14.4826 9.73186 15.633 9.59148 17.2288 9.69091C18.7022 9.86733 20.0242 10.6971 21.1292 11.6411C21.189 11.6919 21.2488 11.7426 21.3103 11.7949C22.443 12.842 23.188 14.3898 23.434 15.8961C23.434 15.9546 23.434 16.0131 23.434 16.0734C23.5211 16.0688 23.5211 16.0688 23.6099 16.0641C25.1099 16.0196 26.4285 16.6251 27.5099 17.6429C27.9916 18.1236 28.4215 18.6824 28.5755 19.3533C28.8174 19.4107 29.0593 19.4679 29.3013 19.5251C29.3694 19.5412 29.4376 19.5574 29.5078 19.5741C30.2192 19.7484 30.2192 19.7484 30.9468 19.8076C31.0158 19.8079 31.0848 19.8081 31.1559 19.8083C31.3245 19.8149 31.3245 19.8149 31.4122 19.7079C31.4563 19.0313 31.3211 18.4435 31.1518 17.7909C30.784 16.3439 30.5291 14.9246 31.2515 13.5359C32.0833 12.1726 33.3142 11.2081 34.8583 10.7657C36.0292 10.5108 37.1886 10.624 38.2213 11.2588C39.3199 12.0672 39.7608 13.1408 39.9665 14.4587C40.198 16.2067 39.9527 17.9687 38.9471 19.442C38.8303 19.5908 38.7124 19.7389 38.5925 19.8852C38.7038 19.9003 38.8151 19.9154 38.9297 19.9309C40.4905 20.1525 40.4905 20.1525 41.1632 20.5057C41.2343 20.5419 41.3054 20.5782 41.3786 20.6155C42.3214 21.1368 43.1002 21.8812 43.6453 22.8105C43.6763 22.8599 43.7074 22.9092 43.7393 22.9601C44.0359 23.4756 44.0548 23.9363 44.0442 24.5225C44.0431 24.6187 44.042 24.7149 44.0409 24.814C43.9235 29.7873 41.7497 34.6265 38.2988 38.1698C38.1574 38.3152 38.0175 38.4619 37.8778 38.6089C37.2918 39.218 36.6636 39.7483 35.9875 40.2549C35.8612 40.3498 35.7362 40.4465 35.6114 40.5435C33.4708 42.1682 30.9552 43.2953 28.3539 43.9359C28.2312 43.9666 28.2312 43.9666 28.1061 43.9978C26.4425 44.3847 24.7868 44.4856 23.0833 44.4797C22.7544 44.4789 22.4257 44.4815 22.0969 44.4843C16.6646 44.5002 11.5553 42.4619 7.65505 38.6781C7.60708 38.6325 7.55912 38.5868 7.5097 38.5397C6.81881 37.8812 6.20459 37.1911 5.63359 36.4263C5.53938 36.3005 5.44322 36.1761 5.34679 36.052C2.80259 32.7016 1.53773 28.581 1.37781 24.4117C1.37073 24.2415 1.37073 24.2415 1.3635 24.068C1.32886 22.8588 1.37935 21.5602 2.16454 20.5777C2.9301 19.7735 4.00108 19.359 4.99567 18.9101C4.96633 18.8652 4.93699 18.8203 4.90676 18.7741C4.55096 18.2293 4.19663 17.6835 3.84327 17.1372C3.79552 17.0634 3.74777 16.9896 3.69857 16.9136C1.15888 12.9782 1.15888 12.9782 1.41105 11.2865C1.64401 10.3022 2.33535 9.52854 3.15627 8.97067C5.84239 7.44113 9.589 7.81683 11.9478 9.74978ZM3.15073 11.0261C2.86713 11.4556 2.86339 11.8534 2.95681 12.3503C3.30697 13.3974 3.88201 14.3433 4.4638 15.2756C4.51515 15.358 4.5665 15.4405 4.6194 15.5254C6.05922 17.8262 7.5885 20.0946 9.35213 22.1626C9.51661 22.3673 9.51661 22.3673 9.6617 22.6024C9.80791 22.8322 9.9208 22.9989 10.1371 23.1651C10.5301 23.2307 10.8952 23.2131 11.2895 23.1651C11.2389 22.5865 11.136 22.0546 10.9737 21.4974C10.9503 21.4168 10.9268 21.3362 10.9026 21.2531C10.324 19.321 9.46385 17.4429 8.27557 15.8075C8.21603 15.7238 8.1565 15.6402 8.09516 15.554C6.84419 13.8295 6.84419 13.8295 5.26161 12.4389C5.38964 12.1518 5.55039 11.9408 5.76024 11.7076C5.81623 11.645 5.87223 11.5824 5.92992 11.5179C5.97265 11.4708 6.01539 11.4237 6.05942 11.3752C6.38795 11.4263 6.54236 11.557 6.77655 11.7879C6.84552 11.8559 6.91449 11.9239 6.98555 11.9939C7.05839 12.0676 7.13123 12.1414 7.20628 12.2173C7.28146 12.2931 7.35664 12.3689 7.4341 12.447C8.10748 13.1374 8.6972 13.8666 9.25067 14.6551C9.29024 14.7108 9.32981 14.7665 9.37057 14.8238C10.6588 16.6488 11.6013 18.6413 12.2646 20.7717C12.3178 20.9325 12.3713 21.0931 12.4253 21.2537C12.46 21.3579 12.4948 21.4621 12.5306 21.5695C12.7991 21.2634 12.9092 20.9278 13.0237 20.5445C13.0429 20.4808 13.0621 20.4172 13.0819 20.3516C13.8571 17.7268 13.5323 14.9815 12.2813 12.5608C11.4992 11.1777 10.3467 10.2227 8.80851 9.79402C6.95318 9.32685 4.47778 9.47423 3.15073 11.0261ZM14.1428 11.9902C13.9184 12.2443 13.9184 12.2443 13.9652 12.5425C14.0452 12.9181 14.1619 13.2643 14.2924 13.6246C15.0413 15.7924 15.1563 18.2538 14.5241 20.468C14.4778 20.6978 14.5059 20.8164 14.5694 21.0376C15.8125 19.0839 16.9629 16.9421 16.9629 14.5664C17.4602 14.5957 17.9575 14.6249 18.4698 14.6551C18.0968 17.5609 17.1346 20.1629 15.2786 22.4559C15.1031 22.69 14.9276 22.924 14.7467 23.1651C15.7706 23.1651 16.7944 23.1651 17.8493 23.1651C17.8201 22.6678 17.7908 22.1705 17.7607 21.6581C17.9109 19.9507 18.4398 18.5909 19.7109 17.4031C20.3757 16.8971 21.1349 16.5147 21.927 16.2507C21.7074 14.769 20.9571 13.4845 19.7995 12.5276C19.0473 11.9765 18.2981 11.5712 17.4061 11.2865C17.3515 11.2691 17.2969 11.2516 17.2406 11.2336C16.0727 11.0132 15.0607 11.2127 14.1428 11.9902ZM32.9191 13.7686C32.3943 14.4628 32.25 15.1255 32.2986 15.9848C32.3378 16.2472 32.3964 16.5027 32.4593 16.7604C32.4753 16.8298 32.4912 16.8991 32.5077 16.9705C32.5792 17.2795 32.6548 17.5865 32.736 17.8931C32.9462 18.7071 33.1261 19.6702 32.7862 20.4725C32.5177 20.9142 32.067 21.1443 31.5894 21.3035C30.7131 21.3657 29.9552 21.2452 29.1074 21.0376C29.0781 21.7397 29.0489 22.4417 29.0187 23.1651C30.4814 23.1651 31.944 23.1651 33.451 23.1651C33.5516 22.6861 33.6521 22.2071 33.7557 21.7135C34.227 19.511 34.7712 17.3232 35.4899 15.187C35.5551 15.2051 35.6204 15.2233 35.6876 15.242C35.7741 15.2659 35.8606 15.2898 35.9497 15.3144C36.0351 15.338 36.1204 15.3617 36.2084 15.3861C36.4408 15.4466 36.6726 15.4955 36.9082 15.5415C36.8904 15.5948 36.8727 15.648 36.8544 15.7028C35.5337 19.349 35.5337 19.349 34.958 23.1651C37.269 23.1651 39.58 23.1651 41.961 23.1651C40.9099 21.9388 40.0553 21.5624 38.4809 21.3989C37.8989 21.3353 37.4568 21.2571 37.0522 20.7994C36.851 20.3892 36.8253 20.0534 36.9636 19.6248C37.1302 19.2559 37.3583 18.9645 37.6174 18.6552C38.4856 17.5966 38.5896 16.2482 38.5038 14.921C38.3897 14.0092 38.141 13.252 37.501 12.5774C35.9095 11.6522 34.0269 12.4266 32.9191 13.7686ZM20.3425 18.8713C19.8733 19.3522 19.8733 19.3522 19.7109 19.9738C20.0619 20.0909 20.413 20.2079 20.7746 20.3284C20.7083 20.5679 20.6419 20.8074 20.5755 21.0469C20.5153 21.2782 20.4669 21.5124 20.4201 21.7468C20.0398 21.6297 19.6595 21.5127 19.2677 21.3922C19.264 21.5695 19.2603 21.7469 19.2566 21.9296C19.2545 22.0293 19.2525 22.1291 19.2503 22.2319C19.2593 22.6018 19.2593 22.6018 19.445 23.1651C22.0777 23.1651 24.7105 23.1651 27.4231 23.1651C27.6207 22.5811 27.6207 22.5811 27.6004 22.1013C27.0299 22.2769 27.0299 22.2769 26.448 22.4559C26.3169 21.9829 26.1897 21.519 26.0934 21.0376C26.5322 20.8913 26.971 20.7451 27.4231 20.5944C27.2573 19.5996 26.6004 18.815 25.797 18.2259C25.268 17.8843 24.755 17.7216 24.1432 17.5804C24.1432 18.0192 24.1432 18.458 24.1432 18.9101C23.6751 18.9101 23.2071 18.9101 22.7249 18.9101C22.7249 18.4713 22.7249 18.0325 22.7249 17.5804C21.8278 17.5804 20.9528 18.2856 20.3425 18.8713ZM3.41493 21.5539C2.91829 22.1087 2.95681 22.3312 2.95681 23.1651C4.68275 23.1651 6.40869 23.1651 8.18692 23.1651C7.97757 22.8511 7.77867 22.5548 7.54805 22.2603C7.496 22.1936 7.44395 22.1269 7.39032 22.0582C7.3369 21.9902 7.28348 21.9221 7.22844 21.852C7.06967 21.6489 7.06967 21.6489 6.91091 21.4458C6.85873 21.3794 6.80655 21.3129 6.75279 21.2444C6.63989 21.0998 6.52779 20.9546 6.4163 20.8089C6.36035 20.7359 6.3044 20.663 6.24676 20.5878C6.19594 20.5211 6.14513 20.4544 6.09277 20.3857C6.05251 20.3375 6.01225 20.2894 5.97078 20.2398C5.17761 20.2398 3.95414 21.017 3.41493 21.5539ZM2.95681 24.5834C2.95681 29.6175 5.35344 34.248 8.85484 37.7505C12.3545 41.1835 17.1003 42.8263 21.927 43.0218C22.0381 43.0264 22.0381 43.0264 22.1515 43.0311C22.6096 43.0471 23.0647 43.0408 23.5227 43.0218C23.6126 43.0181 23.7026 43.0145 23.7952 43.0107C28.2887 42.8068 32.523 41.2981 35.9331 38.3235C35.9845 38.2788 36.0359 38.234 36.0888 38.1878C39.6703 35.0353 42.1483 30.4453 42.4929 25.6472C42.4929 25.2961 42.4929 24.9451 42.4929 24.5834C29.446 24.5834 16.3991 24.5834 2.95681 24.5834Z" fill="black"/>
<path d="M31.3407 3.97767C31.6356 3.97843 31.9303 3.97585 32.2252 3.97306C32.4131 3.97292 32.6011 3.97297 32.789 3.97323C32.8769 3.97224 32.9648 3.97124 33.0554 3.97021C33.65 3.97627 33.65 3.97627 33.9493 4.15922C34.1137 4.44501 34.1174 4.65092 34.1187 4.98019C34.1192 5.06916 34.1192 5.06916 34.1197 5.15991C34.1199 5.28576 34.1193 5.41162 34.1178 5.53746C34.1159 5.72527 34.1178 5.91276 34.12 6.10056C34.1237 7.78977 33.5851 9.33984 32.405 10.5702C31.6366 11.3395 30.8414 11.891 29.8166 12.2613C29.7162 12.2985 29.7162 12.2985 29.6137 12.3366C28.7249 12.6117 27.7951 12.5704 26.8741 12.5668C26.5792 12.566 26.2844 12.5686 25.9896 12.5714C25.8016 12.5715 25.6137 12.5715 25.4258 12.5712C25.3379 12.5722 25.25 12.5732 25.1594 12.5742C24.5648 12.5682 24.5648 12.5682 24.2655 12.3852C24.1011 12.0994 24.0973 11.8935 24.0961 11.5642C24.0958 11.5049 24.0955 11.4456 24.0951 11.3845C24.0949 11.2587 24.0955 11.1328 24.097 11.007C24.0989 10.8192 24.097 10.6317 24.0947 10.4439C24.0911 8.75466 24.6297 7.20459 25.8098 5.97422C26.5782 5.20489 27.3734 4.65347 28.3982 4.28315C28.4652 4.2583 28.5321 4.23345 28.6011 4.20785C29.4899 3.93272 30.4197 3.97403 31.3407 3.97767ZM26.9799 6.94252C26.168 7.82168 25.6801 8.84037 25.6502 10.0451C25.9558 9.91216 26.1664 9.73451 26.4092 9.50772C26.7249 9.21805 27.0454 8.94018 27.3788 8.67112C27.7059 8.40688 28.0216 8.13501 28.3317 7.85115C28.6638 7.5483 29.0009 7.28219 29.3733 7.03117C29.5216 7.18952 29.6693 7.34839 29.8166 7.50764C29.88 7.57518 29.88 7.57518 29.9447 7.64407C30.2598 7.98619 30.2598 7.98619 30.2598 8.18357C30.1204 8.30895 29.9751 8.42788 29.8276 8.54369C29.4896 8.81386 29.1608 9.0882 28.8415 9.38029C28.3833 9.79761 27.9052 10.1877 27.4231 10.577C27.2434 10.7225 27.0662 10.8689 26.8912 11.0202C26.8912 11.0495 26.8912 11.0787 26.8912 11.1089C28.4808 11.1637 29.9097 10.798 31.1045 9.72708C32.1233 8.74888 32.5463 7.52778 32.6532 6.14471C32.6576 5.90804 32.6561 5.67229 32.6532 5.43554C30.5447 5.40176 28.5913 5.39533 26.9799 6.94252Z" fill="black"/>
<path d="M7.65533 31.2319C7.96435 31.525 8.20406 31.814 8.43098 32.1738C9.34102 33.5625 10.501 34.8347 11.8217 35.8415C11.9107 35.9132 11.9997 35.9848 12.0914 36.0586C13.0796 36.8496 14.1623 37.4657 15.2789 38.0577C15.133 38.5616 14.8986 39.0121 14.6584 39.476C12.7251 38.5556 11.0629 37.41 9.51689 35.9302C9.4728 35.8885 9.4287 35.8468 9.38327 35.8039C8.25226 34.7306 7.36531 33.5006 6.50293 32.207C6.50293 32.1193 6.50293 32.0315 6.50293 31.9411C6.69332 31.8043 6.87687 31.6862 7.07913 31.5699C7.13409 31.5373 7.18906 31.5046 7.24569 31.471C7.38172 31.3905 7.51846 31.3111 7.65533 31.2319Z" fill="black"/>
<path d="M20.9023 4.15C21.4186 4.46203 21.837 4.94689 22.0159 5.52401C22.0873 6.21865 22.1156 6.90859 21.6613 7.47422C21.2354 7.92146 20.8492 8.23708 20.2191 8.30181C19.4642 8.31014 18.942 8.28247 18.3845 7.75159C17.8188 7.13959 17.7183 6.65853 17.7339 5.82942C17.7955 5.13248 18.1197 4.76613 18.6387 4.32244C19.2649 3.89096 20.207 3.84187 20.9023 4.15ZM19.4119 5.66806C19.2247 5.9417 19.2136 6.08499 19.2679 6.41047C19.4009 6.63209 19.4009 6.63209 19.6225 6.76505C19.948 6.8193 20.0912 6.80823 20.3649 6.621C20.5521 6.34737 20.5632 6.20408 20.5089 5.87859C20.376 5.65698 20.376 5.65698 20.1543 5.52401C19.8289 5.46976 19.6856 5.48083 19.4119 5.66806Z" fill="black"/>
<path d="M11.6826 2.02256C12.1989 2.33459 12.6173 2.81945 12.7962 3.39657C12.8676 4.09121 12.8959 4.78115 12.4416 5.34678C12.0157 5.79402 11.6294 6.10963 10.9994 6.17437C10.2444 6.1827 9.7223 6.15503 9.16482 5.62415C8.5991 5.01215 8.49859 4.53109 8.51417 3.70198C8.57581 3.00504 8.89998 2.63868 9.41898 2.195C10.0452 1.76352 10.9872 1.71443 11.6826 2.02256ZM10.1922 3.54062C10.005 3.81426 9.99391 3.95755 10.0482 4.28303C10.1811 4.50464 10.1811 4.50464 10.4027 4.63761C10.7282 4.69186 10.8715 4.68079 11.1452 4.49356C11.3324 4.21993 11.3435 4.07664 11.2892 3.75115C11.1562 3.52954 11.1562 3.52954 10.9346 3.39657C10.6091 3.34232 10.4658 3.35339 10.1922 3.54062Z" fill="black"/>
<path d="M16.3428 38.7666C16.8108 38.7666 17.2789 38.7666 17.7611 38.7666C17.7611 39.2347 17.7611 39.7027 17.7611 40.1849C17.2931 40.1849 16.825 40.1849 16.3428 40.1849C16.3428 39.7169 16.3428 39.2488 16.3428 38.7666Z" fill="black"/>
<path d="M22.7246 20.3281C23.1927 20.3281 23.6607 20.3281 24.1429 20.3281C24.1429 20.7962 24.1429 21.2642 24.1429 21.7465C23.6749 21.7465 23.2068 21.7465 22.7246 21.7465C22.7246 21.2784 22.7246 20.8104 22.7246 20.3281Z" fill="black"/>
</svg>
