<svg width="46" height="46" viewBox="0 0 46 46" fill="none" xmlns="http://www.w3.org/2000/svg">
<path d="M29.5353 2.53253C29.6123 2.59515 29.6893 2.65777 29.7687 2.72229C29.9626 2.8908 29.9626 2.8908 30.2334 2.86495C30.3741 2.79944 30.5124 2.72853 30.6489 2.65442C31.5774 2.18008 32.4468 2.11889 33.4492 2.42484C34.613 2.83728 35.3803 3.51235 35.9794 4.5932C36.084 4.81516 36.084 4.81516 36.084 4.99245C36.2156 4.94858 36.2156 4.94858 36.3499 4.90381C37.6743 4.82564 38.6994 5.01625 39.7555 5.87614C40.4416 6.51049 40.9823 7.41152 41.0633 8.36156C41.0686 8.54641 41.0681 8.73015 41.0648 8.91504C41.0647 8.97766 41.0647 9.04028 41.0646 9.10479C41.0622 9.38218 41.0478 9.60309 40.9595 9.86798C41.0308 9.88626 41.1021 9.90455 41.1756 9.92338C42.16 10.3034 42.8435 11.009 43.2975 11.9512C43.7532 13.0148 43.8296 13.9107 43.4416 15.0094C43.3059 15.312 43.1579 15.6053 42.9984 15.8959C43.039 15.9453 43.0797 15.9946 43.1216 16.0455C43.945 17.0694 44.2725 18.026 44.1508 19.3531C43.9424 20.3857 43.4662 21.2556 42.6438 21.9238C41.9615 22.3671 41.9615 22.3671 41.6687 22.3671C41.6898 22.4533 41.6898 22.4533 41.7113 22.5412C41.9225 23.7755 41.7832 24.945 41.0703 25.9905C40.445 26.7953 39.6388 27.2666 38.6547 27.5085C38.4057 27.5389 38.1573 27.5529 37.9068 27.5639C37.8419 27.5674 37.7771 27.5708 37.7103 27.5743C37.5523 27.5826 37.3944 27.59 37.2364 27.5972C37.1992 27.6985 37.1992 27.6985 37.1612 27.8018C36.7153 28.9504 36.0632 29.7496 34.9354 30.2732C33.9048 30.683 32.8281 30.6114 31.7975 30.2455C31.5621 30.154 31.5621 30.154 31.2971 30.1679C31.1148 30.2757 31.1148 30.2757 30.9259 30.4172C30.1733 30.9352 29.3691 31.124 28.4604 31.0544C28.294 31.0148 28.1278 30.9741 27.9618 30.9325C27.6238 30.8598 27.6238 30.8598 27.3105 30.9712C27.208 31.0647 27.1085 31.1616 27.0123 31.2614C26.4647 31.8091 25.6194 31.938 24.8758 31.9685C24.397 31.9591 23.9502 31.8174 23.4963 31.6749C23.4816 31.7462 23.467 31.8175 23.4519 31.891C23.1213 32.6763 22.5427 33.0877 21.7884 33.4395C21.4155 33.5887 21.1172 33.6373 20.715 33.6362C20.6287 33.6362 20.5424 33.6362 20.4536 33.6362C20.2164 33.6251 20.2164 33.6251 19.9338 33.5475C19.5766 33.5316 19.4327 33.7103 19.163 33.9291C18.6753 34.2909 18.2215 34.3436 17.6284 34.2944C17.17 34.2916 16.9318 34.345 16.5811 34.6432C16.4396 34.7831 16.3012 34.9262 16.1657 35.0718C16.0912 35.1473 16.0167 35.2228 15.94 35.3005C15.7042 35.541 15.4728 35.7852 15.2411 36.0296C15.0823 36.1919 14.9233 36.354 14.7639 36.5158C14.6123 36.6714 14.4608 36.8272 14.3096 36.9832C14.239 37.0561 14.1684 37.129 14.0956 37.2041C13.4751 37.8465 13.4751 37.8465 13.2687 38.689C13.2789 39.0259 13.3481 39.3279 13.435 39.653C13.7014 40.6592 13.5842 41.6809 13.0693 42.6005C12.4306 43.5648 11.5894 44.2163 10.4487 44.4731C9.39145 44.6362 8.39232 44.4829 7.48494 43.8886C6.48896 43.1429 5.98239 42.283 5.80032 41.0603C5.79262 40.994 5.78492 40.9278 5.77699 40.8596C5.73967 40.5049 5.73967 40.5049 5.52953 40.2341C5.26919 40.1718 5.0142 40.1436 4.74765 40.1184C3.80396 39.9936 2.93585 39.5862 2.33032 38.8389C1.62101 37.8817 1.34362 36.9381 1.42343 35.7526C1.59153 34.7665 2.05563 33.8462 2.84453 33.2151C3.77303 32.5612 4.72642 32.3012 5.85572 32.384C6.11023 32.4421 6.35683 32.5144 6.60679 32.5894C7.1465 32.7354 7.55041 32.6799 8.05322 32.4178C8.42943 32.1828 8.73813 31.8753 9.05529 31.5675C9.12905 31.4962 9.20282 31.4249 9.27882 31.3514C9.43367 31.2007 9.58801 31.0494 9.74186 30.8976C9.97684 30.6674 10.2157 30.4418 10.4549 30.216C11.2672 29.5002 11.2672 29.5002 11.7164 28.5566C11.7142 28.2513 11.6744 27.9845 11.6177 27.6858C11.7086 27.1361 11.9525 26.7547 12.3172 26.3405C12.4351 26.1862 12.4351 26.1862 12.3882 26.0147C12.3578 25.9204 12.3578 25.9204 12.3269 25.8242C12.2531 24.9424 12.3283 24.1794 12.8608 23.4516C13.2299 23.0208 13.5809 22.6887 14.0998 22.4557C14.1583 22.4557 14.2168 22.4557 14.2771 22.4557C14.2579 22.404 14.2387 22.3524 14.2189 22.2992C13.8719 21.2775 13.9403 20.3454 14.3657 19.3531C14.4912 19.1518 14.622 18.9728 14.7764 18.7932C14.9092 18.6297 14.9998 18.4864 15.0749 18.2893C15.0336 18.121 14.9915 17.9528 14.9447 17.7859C14.7465 16.9202 14.9326 15.9698 15.3973 15.2179C15.4908 15.0866 15.5876 14.9576 15.6888 14.8322C15.8046 14.6558 15.8046 14.6558 15.7633 14.435C15.701 14.2299 15.6309 14.0304 15.5569 13.8293C15.2546 12.8235 15.3498 11.7049 15.7841 10.7544C16.405 9.67654 17.2062 9.13733 18.3548 8.71558C18.3571 8.61811 18.3594 8.52064 18.3617 8.42021C18.4054 7.13207 18.6742 6.26865 19.5349 5.29163C20.5877 4.36121 21.599 4.12241 22.9712 4.18161C23.1805 4.19761 23.3811 4.23336 23.5849 4.28329C23.5886 4.22478 23.5922 4.16628 23.596 4.106C23.711 3.71171 23.9438 3.44244 24.2054 3.13089C24.2726 3.0493 24.2726 3.0493 24.3412 2.96606C25.6563 1.50907 27.9992 1.39411 29.5353 2.53253ZM25.2692 4.106C25.2107 4.17147 25.1522 4.23695 25.0919 4.30441C24.8921 4.58028 24.8151 4.81444 24.7262 5.14204C24.5777 5.68392 24.5777 5.68392 24.3827 5.87891C23.9171 5.91837 23.6531 5.88126 23.2276 5.67911C22.6328 5.4537 21.9985 5.48066 21.4058 5.68985C20.5607 6.08579 20.1703 6.66889 19.8285 7.50778C19.7398 8.02234 19.8133 8.5197 19.9006 9.03173C19.917 9.13577 19.917 9.13577 19.9338 9.24192C19.9453 9.30305 19.9569 9.36419 19.9688 9.42717C19.9504 9.60204 19.9504 9.60204 19.8053 9.79699C19.5558 9.98715 19.4072 10.0072 19.0972 10.0342C18.3242 10.1426 17.6961 10.5011 17.2187 11.1246C16.7952 11.7774 16.7535 12.4704 16.8478 13.2365C16.9967 13.6627 17.2193 14.0153 17.4683 14.3889C17.5071 14.6881 17.5071 14.6881 17.4683 15.0094C17.2744 15.2366 17.2744 15.2366 17.0251 15.4527C16.4912 16.0374 16.2654 16.5387 16.2827 17.3281C16.328 17.672 16.4565 17.9548 16.595 18.2703C16.7062 18.5593 16.7048 18.7138 16.5819 18.9985C16.437 19.1384 16.2841 19.2609 16.1255 19.385C15.6971 19.7646 15.4681 20.2492 15.4052 20.8109C15.3806 21.4614 15.5275 21.9056 15.8727 22.4557C15.902 22.485 15.9312 22.5142 15.9614 22.5443C16.0033 23.1948 16.0033 23.1948 15.8537 23.4041C15.6568 23.5476 15.5093 23.5697 15.2688 23.6026C14.5997 23.7222 14.2292 24.0523 13.8339 24.5832C13.6713 25.071 13.6838 25.5436 13.8837 26.0182C14.019 26.3528 14.0675 26.5401 13.9225 26.888C13.7261 27.0874 13.5215 27.2665 13.3048 27.4434C13.0402 27.6693 13.0381 27.7501 13.0083 28.1069C13.0155 28.5019 13.1285 28.7131 13.3906 29.0155C13.4981 29.0897 13.6072 29.1617 13.7175 29.2316C13.9727 29.4039 14.0055 29.4422 14.1109 29.7524C14.0993 30.0953 14.0214 30.3083 13.892 30.6191C13.8 30.8869 13.8304 31.0555 13.9225 31.3203C14.1539 31.6455 14.3454 31.8853 14.7203 32.0295C14.9185 32.0386 14.9185 32.0386 15.1192 32.0073C15.186 31.9995 15.2527 31.9918 15.3214 31.9838C15.5214 31.9494 15.5214 31.9494 15.6968 31.8459C15.9977 31.705 16.2609 31.7987 16.5819 31.8522C16.5983 31.929 16.6148 32.0057 16.6317 32.0849C16.7992 32.4781 17.0047 32.7085 17.3797 32.9159C17.7949 33.0111 18.0911 32.9583 18.4711 32.7719C18.7244 32.5705 18.7244 32.5705 18.8756 32.2732C18.9378 32.1928 18.9999 32.1123 19.064 32.0295C19.4324 31.9827 19.6472 31.9776 19.9882 32.1181C20.3872 32.2731 20.7713 32.2728 21.1915 32.2068C21.6829 31.9868 22.012 31.7152 22.2552 31.2316C22.3075 31.0505 22.3537 30.8674 22.3937 30.6831C22.502 30.187 22.502 30.187 22.6984 29.9906C23.2025 29.92 23.4697 30.048 23.8689 30.3282C24.3302 30.6341 24.9181 30.5743 25.4465 30.5225C25.9725 30.3672 26.3165 30.1252 26.6543 29.697C26.9047 29.3854 26.9047 29.3854 27.1273 29.3154C27.5042 29.3024 27.7577 29.4132 28.0962 29.5754C28.6305 29.7486 29.3029 29.732 29.8178 29.5031C30.0915 29.3438 30.2887 29.14 30.5048 28.9102C30.7266 28.6811 30.8476 28.5749 31.1475 28.4504C31.5713 28.4935 31.8467 28.6687 32.2106 28.8818C32.802 29.2127 33.3892 29.2542 34.0451 29.1041C34.793 28.8514 35.3493 28.3812 35.7374 27.6914C35.9489 27.1861 36.0077 26.6289 36.084 26.0902C36.604 25.999 36.9023 26.0289 37.4137 26.1788C38.1544 26.2678 38.7634 26.1036 39.3843 25.6937C39.9389 25.2536 40.2864 24.6576 40.4276 23.9627C40.4766 23.4045 40.3551 23.0293 40.153 22.5108C40.045 22.1969 40.0252 21.9859 40.073 21.6579C40.2674 21.406 40.4448 21.3466 40.749 21.2756C41.5389 21.0522 42.1504 20.6069 42.5551 19.885C42.8343 19.1828 42.8466 18.4215 42.5773 17.7131C42.348 17.2196 42.0995 16.9208 41.6465 16.6217C41.3624 16.4118 41.3214 16.3664 41.2254 16.0067C41.2687 15.5631 41.5678 15.2794 41.8477 14.9533C42.2433 14.4805 42.3483 14.015 42.3325 13.4121C42.2174 12.7096 41.7932 11.9696 41.2473 11.51C40.7621 11.2019 40.2741 11.0646 39.7185 10.9317C39.6307 10.9025 39.5429 10.8732 39.4525 10.8431C39.4316 10.4027 39.4314 10.056 39.5855 9.64082C39.8259 8.97475 39.7432 8.4539 39.4865 7.80662C39.1158 7.07055 38.5452 6.58703 37.7683 6.32214C37.1733 6.17175 36.7118 6.25837 36.1328 6.43607C35.8276 6.52159 35.6007 6.53875 35.2862 6.49944C35.0172 6.29784 34.9712 6.10061 34.9039 5.77919C34.7001 4.98789 34.3301 4.45972 33.6275 4.03674C32.9975 3.70131 32.4506 3.55822 31.7376 3.69809C31.2569 3.84496 30.9586 4.14441 30.5973 4.48274C30.3585 4.68121 30.1893 4.74096 29.8788 4.72652C29.5815 4.6118 29.4597 4.48304 29.2915 4.2168C28.9312 3.71226 28.3696 3.32762 27.7513 3.21954C26.7359 3.12323 25.9484 3.3069 25.2692 4.106ZM12.279 30.2855C12.2254 30.3406 12.1718 30.3956 12.1165 30.4524C12.0555 30.5146 11.9945 30.5768 11.9316 30.6408C11.8655 30.7089 11.7994 30.7771 11.7313 30.8473C11.5905 30.9903 11.4497 31.1333 11.3088 31.2763C11.0871 31.5024 10.8657 31.7287 10.6449 31.9556C10.4316 32.1742 10.2172 32.3917 10.0027 32.6091C9.90568 32.7097 9.90568 32.7097 9.80671 32.8123C9.04097 33.5853 8.28557 34.0072 7.20203 34.096C6.89006 34.0892 6.61069 34.0164 6.31003 33.9353C5.45962 33.7121 4.77575 33.7227 3.99416 34.157C3.41672 34.5592 2.98032 35.0446 2.84176 35.7526C2.76818 36.5284 2.81558 37.1517 3.28499 37.7914C3.86407 38.4366 4.4081 38.7502 5.26844 38.7998C5.78587 38.8372 6.24314 38.9722 6.65354 39.2984C6.97982 39.7621 7.067 40.1503 7.13001 40.7057C7.25506 41.5896 7.55586 42.1783 8.27029 42.7362C8.8835 43.1604 9.46565 43.1894 10.1994 43.1102C10.8315 42.9417 11.3858 42.5692 11.7514 42.0246C12.1367 41.3542 12.2802 40.7117 12.09 39.9446C12.0537 39.8249 12.0537 39.8249 12.0166 39.7029C11.7653 38.848 11.8119 38.0523 12.2382 37.2596C12.6377 36.6996 13.0896 36.2064 13.5787 35.7245C13.6447 35.6588 13.7107 35.593 13.7787 35.5252C13.9869 35.318 14.1957 35.1115 14.4045 34.9049C14.5469 34.7634 14.6893 34.6218 14.8316 34.4802C15.1782 34.1356 15.5253 33.7915 15.8727 33.4478C15.8142 33.3893 15.7557 33.3308 15.6954 33.2705C15.4878 33.2791 15.4878 33.2791 15.2522 33.3204C14.6044 33.3917 14.1178 33.2406 13.5458 32.9436C13.112 32.5789 12.7583 32.1338 12.5928 31.5862C12.5806 31.3371 12.576 31.0978 12.5817 30.8494C12.5825 30.7837 12.5833 30.7181 12.5842 30.6504C12.5862 30.4896 12.5894 30.3287 12.5928 30.1679C12.4079 30.1486 12.4079 30.1486 12.279 30.2855Z" fill="black"/>
<path d="M21.3681 16.2508C21.5767 16.3899 21.6231 16.4878 21.7116 16.7218C21.7305 17.1287 21.5351 17.3989 21.2795 17.7024C20.8151 18.3119 20.7477 18.9627 20.8362 19.708C20.9593 20.1355 21.1661 20.4828 21.429 20.8383C21.7227 21.2509 21.7227 21.2509 21.7227 21.5696C21.5789 21.8786 21.4776 21.9989 21.1908 22.1901C20.8721 22.2024 20.661 22.1741 20.4075 21.9713C19.648 21.1619 19.2797 20.0703 19.3071 18.9698C19.4059 17.9134 19.8128 16.9972 20.5703 16.2508C20.8495 16.1112 21.0698 16.188 21.3681 16.2508Z" fill="black"/>
<path d="M37.4524 16.6605C37.5218 16.6579 37.5912 16.6554 37.6626 16.6528C37.8569 16.6937 37.8569 16.6937 38.0127 16.8426C38.3021 17.3831 38.1552 18.0859 37.9899 18.6494C37.589 19.7178 36.862 20.4749 35.8433 20.9792C35.4576 21.1416 35.0846 21.2668 34.6656 21.3033C34.6082 21.3099 34.5507 21.3165 34.4915 21.3234C34.1426 21.3481 33.9779 21.3184 33.6905 21.1149C33.4822 20.8155 33.4525 20.6851 33.5132 20.3282C33.6119 20.1429 33.6119 20.1429 33.7792 19.9736C34.0517 19.8933 34.0517 19.8933 34.372 19.8406C35.2785 19.6644 35.8058 19.4071 36.3499 18.6439C36.6145 18.162 36.7063 17.6554 36.8156 17.1186C36.9216 16.7217 37.0659 16.6668 37.4524 16.6605Z" fill="black"/>
<path d="M32.1782 9.71045C32.4794 9.97107 32.6153 10.1326 32.6654 10.5332C32.6266 10.8435 32.6266 10.8435 32.4881 11.0595C32.1733 11.2613 32.0213 11.2647 31.6515 11.198C31.4457 11.0542 31.2581 10.895 31.066 10.7333C30.5766 10.3741 29.9447 10.2381 29.3467 10.3116C28.8353 10.4479 28.4027 10.6201 27.9893 10.9543C27.7625 11.1367 27.6744 11.1957 27.3799 11.2534C27.0558 11.1814 26.9062 11.0945 26.6874 10.8435C26.6163 10.4596 26.6496 10.2847 26.8536 9.95146C28.2719 8.45726 30.6117 8.57867 32.1782 9.71045Z" fill="black"/>
</svg>
