<svg width="46" height="46" viewBox="0 0 46 46" fill="none" xmlns="http://www.w3.org/2000/svg">
<g clip-path="url(#clip0_358_986)">
<path d="M6.76178 8.53381C7.46997 9.13542 8.05602 9.87773 8.63547 10.5997C8.85669 10.8664 9.08889 11.1214 9.3249 11.375C9.70476 11.7832 10.0603 12.2054 10.4101 12.6399C10.6929 12.9819 10.992 13.3077 11.2942 13.6327C11.4695 13.8269 11.6267 14.0258 11.7848 14.2338C11.8653 14.3143 11.9457 14.3947 12.0286 14.4776C12.4487 14.4606 12.8355 14.2997 13.2284 14.1605C15.3389 13.4147 17.5209 12.9687 19.7408 12.7047C19.8244 12.6943 19.9081 12.6839 19.9943 12.6732C22.9117 12.3265 25.9628 12.4102 28.8713 12.7933C28.9697 12.8061 29.0682 12.8189 29.1695 12.8321C33.8907 13.469 33.8907 13.469 34.6333 14.2116C34.6569 14.3779 34.6569 14.3779 34.6555 14.5662C34.6559 14.6284 34.6564 14.6906 34.6569 14.7546C34.6333 14.9208 34.6333 14.9208 34.456 15.0981C33.7932 15.1533 33.2481 15.004 32.6166 14.8155C28.3147 13.6028 23.6293 13.4301 19.2089 14.0344C19.0698 14.0529 19.0698 14.0529 18.9279 14.0718C16.9095 14.3493 14.9195 14.8495 13.0037 15.5413C13.1792 15.7754 13.3547 16.0094 13.5356 16.2505C13.6068 16.2287 13.6779 16.2068 13.7513 16.1843C17.0867 15.1682 20.4053 14.6348 23.8961 14.6327C23.9858 14.6327 24.0755 14.6326 24.1679 14.6325C27.3769 14.6359 30.4978 15.027 33.5696 15.9846C33.6462 16.0081 33.7229 16.0316 33.8019 16.0558C36.6438 16.9397 39.8377 18.5115 41.3316 21.2261C41.873 22.3075 41.9112 23.3877 41.5702 24.541C40.9016 26.4251 39.1316 27.7025 37.47 28.6609C37.3752 28.7171 37.2805 28.7734 37.1829 28.8313C33.2772 31.0429 28.4775 31.6979 24.0512 31.6915C23.9476 31.6914 23.9476 31.6914 23.8418 31.6913C18.5785 31.6804 12.5124 30.7161 8.39411 27.1539C8.3027 27.0845 8.21128 27.015 8.1171 26.9434C7.21273 26.1177 6.32235 24.8764 6.24549 23.6164C6.20555 21.9762 6.72065 20.8514 7.83709 19.6453C8.22542 19.2397 8.65149 18.8885 9.10328 18.5553C8.97541 18.2569 8.80786 18.0668 8.57141 17.8461C7.10582 19.0338 5.68354 20.4119 5.38015 22.3671C5.26366 24.3073 5.87517 25.7843 7.15307 27.2426C9.35779 29.5632 12.6351 30.8088 15.6631 31.5862C15.7428 31.607 15.8226 31.6278 15.9047 31.6491C22.9677 33.4571 31.7992 33.0179 38.1801 29.2824C40.0712 28.1442 41.9124 26.6312 42.538 24.4191C42.8986 22.9378 42.572 21.5792 41.8025 20.2839C40.9522 19.0029 39.7891 18.0631 38.5115 17.2373C38.2998 17.1003 38.0898 16.9609 37.88 16.8212C37.8189 16.7808 37.7579 16.7405 37.6951 16.6989C37.5586 16.6051 37.5586 16.6051 37.47 16.5164C37.4184 15.9594 37.4184 15.9594 37.614 15.7186C37.9005 15.598 38.055 15.6468 38.3564 15.7186C40.5914 16.7664 42.7663 18.7829 43.6198 21.1205C44.7156 24.8464 43.3359 29.431 41.5477 32.7386C41.5194 32.7917 41.4911 32.8448 41.4619 32.8994C40.1417 35.3582 38.1982 37.5482 35.963 39.2098C35.9136 39.2474 35.8641 39.2849 35.8132 39.3236C32.5773 41.7805 32.5773 41.7805 31.2648 41.7805C31.243 41.8566 31.2213 41.9327 31.199 42.0111C30.7142 43.3208 29.5584 44.3497 28.3394 44.9718C27.6146 45.2825 26.8569 45.5113 26.0653 45.5193C25.9667 45.5205 25.8681 45.5216 25.7665 45.5228C25.6605 45.5234 25.5545 45.5241 25.4453 45.5248C25.335 45.5255 25.2246 45.5262 25.1109 45.5269C24.8771 45.5282 24.6433 45.5291 24.4095 45.5298C24.1722 45.5306 23.935 45.5326 23.6977 45.5353C21.3714 45.561 19.6236 45.314 17.8692 43.6407C17.5461 43.302 17.325 42.9845 17.127 42.5591C16.7099 41.6939 16.1239 41.4875 15.2571 41.1587C13.6359 40.4989 12.176 39.387 10.8762 38.2347C10.7969 38.1652 10.7176 38.0957 10.6359 38.0242C9.81258 37.2946 9.07288 36.5304 8.39411 35.664C8.29693 35.5409 8.29693 35.5409 8.19778 35.4153C6.01927 32.5898 4.74415 29.344 4.22776 25.8243C4.21868 25.7637 4.2096 25.703 4.20025 25.6406C4.1215 25.0388 4.11641 24.4335 4.11294 23.8273C4.11193 23.7043 4.11012 23.5812 4.10749 23.4582C4.06106 21.2746 4.9658 19.5839 6.45291 18.013C6.83281 17.6253 7.25435 17.2895 7.68495 16.9597C7.13676 16.2316 6.39729 15.9588 5.56853 15.6411C4.00402 15.0332 2.60695 13.9704 1.83605 12.4439C1.47571 11.6065 1.50889 10.7073 1.81181 9.86038C2.22688 8.92693 2.93393 8.36917 3.87317 8.00643C4.88884 7.75017 5.90917 7.92673 6.76178 8.53381ZM3.25819 9.75165C2.8862 10.2265 2.68847 10.7171 2.71523 11.3251C2.89646 12.4436 3.8842 13.3155 4.75132 13.9433C5.14982 14.2044 5.55997 14.3883 6.00067 14.5662C7.6722 15.2446 8.83477 16.1804 9.96793 17.6024C10.174 17.8546 10.3895 18.0942 10.6103 18.3337C10.9005 18.649 11.1782 18.9694 11.4469 19.3032C11.7707 19.7047 12.1113 20.0842 12.4628 20.4611C12.8113 20.8373 13.1325 21.23 13.4494 21.6333C13.7203 21.9461 13.8645 22.0841 14.2832 22.1465C14.4014 22.153 14.5198 22.1582 14.6381 22.1621C14.7005 22.165 14.7629 22.1679 14.8271 22.1709C15.9167 22.2328 15.9167 22.2328 16.9928 22.1011C16.632 21.5901 16.2319 21.1376 15.805 20.6824C15.4505 20.3024 15.1207 19.9073 14.7953 19.502C14.5896 19.2527 14.375 19.0147 14.1561 18.7769C13.8659 18.4616 13.5882 18.1412 13.3195 17.8073C13.0339 17.4532 12.7372 17.1152 12.4275 16.7824C12.0473 16.3737 11.6914 15.9511 11.3412 15.5161C11.1343 15.2659 10.9188 15.0267 10.6989 14.7878C10.336 14.3936 9.99644 13.9858 9.66009 13.569C9.38146 13.2331 9.08541 12.9145 8.7899 12.5935C8.57787 12.3573 8.37705 12.1153 8.17804 11.8681C7.84948 11.461 7.50521 11.0736 7.14883 10.6911C6.91458 10.4395 6.69034 10.1829 6.47161 9.91786C6.02357 9.40089 5.51665 9.11043 4.8372 9.04248C4.20981 9.09308 3.69525 9.28872 3.25819 9.75165ZM14.422 17.2256C14.5549 17.5175 14.7187 17.7578 14.9207 18.0068C14.9767 18.0787 15.0327 18.1505 15.0903 18.2246C15.3081 18.4101 15.3081 18.4101 15.6312 18.3697C15.7606 18.3456 15.8894 18.3186 16.0177 18.2894C16.0854 18.2746 16.1532 18.2599 16.223 18.2448C16.3721 18.2113 16.5211 18.177 16.6699 18.1419C17.5842 17.9274 18.4996 17.7704 19.4305 17.6467C19.5382 17.6322 19.6458 17.6178 19.7568 17.6029C21.0928 17.4324 22.4129 17.3884 23.7577 17.3913C24.0163 17.3918 24.2749 17.3913 24.5336 17.3908C24.7038 17.3908 24.8741 17.3909 25.0443 17.3911C25.1277 17.3912 25.211 17.3913 25.2969 17.3914C25.7766 17.3941 26.2507 17.4158 26.7289 17.453C27.443 17.5069 27.9756 17.4985 28.622 17.148C29.1774 16.8696 29.6656 16.6299 30.3063 16.7214C30.5088 16.7983 30.7098 16.8773 30.9102 16.9597C31.027 17.0034 31.1438 17.0472 31.2606 17.0909C32.4429 17.5513 32.4429 17.5513 32.6987 18.1301C32.8217 18.3982 32.9721 18.5278 33.2443 18.6418C33.3253 18.6671 33.4064 18.6924 33.4899 18.7184C33.5817 18.748 33.6735 18.7777 33.768 18.8082C33.8671 18.8399 33.9661 18.8717 34.0682 18.9043C36.4144 19.6881 38.9019 20.8285 40.4839 22.8103C40.6074 22.4399 40.4929 22.2578 40.344 21.9076C39.6654 20.5634 38.5319 19.697 37.2927 18.9099C37.2375 18.8747 37.1824 18.8395 37.1255 18.8032C34.6184 17.2317 31.5923 16.4881 28.694 16.0732C28.5939 16.0587 28.4938 16.0442 28.3907 16.0292C24.2056 15.4517 18.2842 15.2945 14.422 17.2256ZM28.2508 18.4666C27.814 18.9952 27.5725 19.7361 27.6303 20.4169C27.7359 20.7095 27.7359 20.7095 27.8962 20.9487C28.1405 21.0302 28.2827 21.0482 28.5341 21.0474C28.6459 21.0474 28.6459 21.0474 28.7599 21.0474C28.84 21.047 28.9201 21.0465 29.0026 21.046C29.0848 21.0459 29.1671 21.0458 29.2518 21.0457C29.5147 21.0452 29.7775 21.044 30.0403 21.0429C30.2185 21.0425 30.3967 21.0421 30.5748 21.0417C31.0116 21.0407 31.4485 21.0392 31.8853 21.0374C31.943 20.9404 32.0008 20.8434 32.0603 20.7435C32.0927 20.689 32.1252 20.6344 32.1587 20.5782C32.3408 20.2162 32.2517 19.9242 32.1391 19.5515C32.0942 19.4351 32.0484 19.3191 32.0016 19.2035C31.9691 19.1153 31.9691 19.1153 31.936 19.0254C31.7808 18.6351 31.6456 18.4619 31.2648 18.2894C31.1629 18.2424 31.0611 18.1954 30.9562 18.147C30.8468 18.1 30.7373 18.0532 30.6276 18.0068C30.5719 17.9826 30.5162 17.9585 30.4588 17.9336C29.7073 17.6129 28.8898 17.9976 28.2508 18.4666ZM16.195 19.4418C16.2561 19.5072 16.3172 19.5727 16.3802 19.6402C16.8652 20.1627 17.3319 20.6929 17.7778 21.2496C18.0197 21.5435 18.278 21.8201 18.5413 22.0949C18.6986 22.3076 18.7391 22.4601 18.7657 22.7217C18.7103 22.9211 18.7103 22.9211 18.5884 23.0762C18.0381 23.2242 17.4533 23.2018 16.8875 23.2203C16.828 23.2223 16.7685 23.2243 16.7072 23.2263C15.764 23.2569 14.8299 23.2575 13.8902 23.1649C13.7323 23.1579 13.7323 23.1579 13.5712 23.1507C13.1638 23.0501 13.0008 22.8528 12.7378 22.5388C12.6922 22.4869 12.6466 22.435 12.5997 22.3815C12.4671 22.2301 12.3365 22.0771 12.2059 21.9238C12.0804 21.7815 11.9549 21.6393 11.8291 21.4972C11.7477 21.4032 11.6664 21.3091 11.5854 21.2147C10.285 21.4028 8.80023 22.8738 8.03953 23.8851C7.81439 24.1842 7.81439 24.1842 7.78675 24.5448C7.91456 24.91 8.1515 25.1729 8.39411 25.4697C8.43788 25.5265 8.48164 25.5833 8.52674 25.6418C9.29286 26.5875 10.3504 27.2068 11.4081 27.7745C11.4477 27.6772 11.4874 27.58 11.5282 27.4798C11.5823 27.3508 11.6364 27.2219 11.6906 27.093C11.7165 27.0291 11.7424 26.9651 11.7691 26.8993C12.0927 26.1371 12.5493 25.8389 13.2973 25.5362C13.3697 25.5051 13.4421 25.474 13.5167 25.442C14.3059 25.115 14.8701 25.0551 15.6631 25.381C15.7799 25.4248 15.8967 25.4685 16.0135 25.5123C17.1977 25.9723 17.1977 25.9723 17.4471 26.5064C17.4727 26.5738 17.4983 26.6413 17.5246 26.7107C17.563 26.7964 17.6014 26.8821 17.641 26.9704C18.298 28.4674 18.298 28.4674 17.9907 29.2776C17.9247 29.427 17.8577 29.5758 17.7906 29.7247C17.7906 29.8124 17.7906 29.9002 17.7906 29.9906C24.2901 31.03 32.3033 31.0074 37.8931 27.012C37.9887 26.9415 38.0841 26.8706 38.1791 26.7994C38.268 26.7329 38.3569 26.6664 38.4485 26.5978C39.1093 26.079 39.86 25.4492 40.218 24.6719C40.1995 24.0514 39.8127 23.6973 39.4202 23.2535C39.3691 23.194 39.318 23.1345 39.2654 23.0731C38.6999 22.4598 37.9883 22.0201 37.2927 21.5693C37.206 21.5125 37.1192 21.4557 37.0299 21.3972C36.1941 20.8804 35.2758 20.5191 34.3674 20.1509C34.2997 20.1226 34.232 20.0944 34.1622 20.0652C33.7854 19.9037 33.7854 19.9037 33.3923 19.9736C33.3886 20.065 33.385 20.1565 33.3812 20.2506C33.3308 20.6293 33.2172 20.9807 33.082 21.3366C33.0427 21.4433 33.0034 21.55 32.9629 21.66C32.7214 21.9933 32.5863 21.9948 32.1995 22.0696C31.8291 22.1214 31.4638 22.1247 31.0902 22.1216C31.0087 22.1215 30.9271 22.1215 30.843 22.1214C30.6717 22.1212 30.5003 22.1205 30.329 22.1194C30.0688 22.1178 29.8085 22.1176 29.5483 22.1176C29.3808 22.1171 29.2133 22.1166 29.0458 22.116C28.9691 22.1159 28.8923 22.1158 28.8132 22.1157C27.5472 22.106 27.5472 22.106 27.1524 21.9041C26.655 21.3548 26.4981 20.5907 26.5274 19.8704C26.5785 19.5424 26.6873 19.2757 26.8435 18.9843C26.9401 18.8113 26.9401 18.8113 26.9211 18.5553C26.3292 18.4871 25.7453 18.4517 25.1496 18.4486C25.0675 18.448 24.9855 18.4474 24.901 18.4467C20.4258 18.28 20.4258 18.28 16.195 19.4418ZM9.90109 19.4418C9.70253 19.581 9.52777 19.7195 9.34706 19.8794C9.29534 19.9245 9.24363 19.9695 9.19035 20.0159C8.31238 20.7913 7.61005 21.6258 7.41901 22.8103C7.47386 22.7536 7.52871 22.6969 7.58522 22.6385C8.30535 21.9245 9.05842 21.3311 9.90109 20.7714C9.98383 20.7159 10.0666 20.6604 10.1518 20.6032C10.3337 20.4813 10.5161 20.3601 10.6989 20.2396C10.6166 20.1226 10.5333 20.0064 10.4496 19.8905C10.3802 19.7933 10.3802 19.7933 10.3094 19.6942C10.1707 19.5066 10.1707 19.5066 9.90109 19.4418ZM13.9899 26.4337C13.9068 26.4695 13.9068 26.4695 13.8219 26.5061C13.6669 26.5733 13.5126 26.6419 13.3583 26.7107C13.2928 26.733 13.2273 26.7553 13.1599 26.7782C12.9066 26.9562 12.8222 27.2251 12.7101 27.503C12.6856 27.5592 12.661 27.6153 12.6358 27.6732C12.4851 28.0256 12.4851 28.0256 12.5605 28.395C12.7474 28.4995 12.7474 28.4995 12.9815 28.5799C13.1136 28.6293 13.1136 28.6293 13.2484 28.6796C13.3906 28.7307 13.3906 28.7307 13.5356 28.7828C13.6315 28.8179 13.7275 28.8531 13.8264 28.8893C14.3955 29.095 14.9669 29.2908 15.5467 29.4643C15.6066 29.4823 15.6664 29.5004 15.728 29.519C16.0388 29.6077 16.3149 29.6552 16.6382 29.636C16.6985 29.5148 16.7573 29.3927 16.8155 29.2704C16.8484 29.2025 16.8813 29.1346 16.9152 29.0647C17.0942 28.542 16.9546 28.1193 16.7545 27.6249C16.7221 27.5367 16.7221 27.5367 16.6889 27.4467C16.5337 27.0564 16.3985 26.8833 16.0177 26.7107C15.9158 26.6638 15.814 26.6168 15.7091 26.5684C15.5997 26.5213 15.4902 26.4746 15.3805 26.4282C15.3248 26.404 15.2691 26.3798 15.2117 26.3549C14.6955 26.1346 14.488 26.2156 13.9899 26.4337ZM42.1682 27.5085C42.1153 27.572 42.0624 27.6354 42.0079 27.7007C38.7768 31.4565 33.2269 32.8951 28.5112 33.47C28.451 33.4773 28.3908 33.4847 28.3288 33.4923C26.9206 33.6624 25.5234 33.7325 24.1066 33.7304C24.0355 33.7303 23.9644 33.7302 23.8912 33.7301C18.0534 33.7155 11.5138 32.597 6.97578 28.6609C6.9159 28.6118 6.85602 28.5627 6.79433 28.512C6.45714 28.2339 6.18219 27.941 5.91203 27.5972C5.73469 28.0929 5.99474 28.5686 6.1558 29.0432C6.19181 29.1498 6.22781 29.2564 6.2649 29.3662C6.97698 31.4148 7.99471 33.2794 9.36922 34.9548C9.41058 35.0053 9.45195 35.0558 9.49457 35.1078C10.4707 36.2904 11.5081 37.3177 12.7378 38.2347C12.7873 38.2724 12.8369 38.3101 12.888 38.3489C13.7353 38.9922 14.632 39.5161 15.5744 40.0076C15.6777 40.0622 15.781 40.1168 15.8875 40.1731C18.064 41.2564 20.6208 41.9609 23.0609 41.9758C23.1295 41.9764 23.1981 41.9771 23.2688 41.9777C25.4183 41.994 25.4183 41.994 27.5416 41.6919C27.6665 41.6655 27.6665 41.6655 27.7938 41.6385C32.2707 40.668 36.3505 38.1401 39.0656 34.4229C39.1326 34.3323 39.1995 34.2417 39.2685 34.1483C40.6554 32.2101 41.7174 30.0147 42.2569 27.6858C42.2276 27.6273 42.1983 27.5688 42.1682 27.5085ZM18.4997 42.401C18.821 43.1645 19.6263 43.6248 20.3392 43.971C21.1215 44.2814 21.803 44.3919 22.6457 44.3897C22.7519 44.3902 22.8581 44.3906 22.9675 44.3911C23.1911 44.3917 23.4146 44.3916 23.6382 44.3908C23.9773 44.39 24.3162 44.3926 24.6553 44.3954C24.8737 44.3955 25.0922 44.3955 25.3106 44.3952C25.4105 44.3962 25.5103 44.3972 25.6132 44.3983C27.0051 44.3862 28.2179 43.8745 29.2037 42.8941C29.3305 42.7604 29.4565 42.626 29.5805 42.4897C29.2812 42.3899 29.1747 42.4145 28.8731 42.4831C28.7843 42.5026 28.6956 42.5221 28.6042 42.5422C28.5113 42.5632 28.4185 42.5843 28.3228 42.606C26.895 42.93 25.5163 43.0578 24.0567 43.0548C23.9798 43.0548 23.9029 43.0549 23.8237 43.0549C22.1718 43.0524 20.5881 42.8779 18.9877 42.4524C18.7605 42.3911 18.7605 42.3911 18.4997 42.401Z" fill="black"/>
<path d="M25.327 0.826028C25.5763 1.14199 25.6242 1.37225 25.6057 1.76858C25.5996 1.90862 25.5996 1.90862 25.5934 2.05149C25.5878 2.14805 25.5821 2.24461 25.5763 2.34409C25.5704 2.48996 25.5704 2.48996 25.5643 2.63877C25.5285 3.36043 25.5285 3.36044 25.327 3.6627C25.0363 3.75957 24.8136 3.76527 24.5077 3.77004C24.3985 3.77256 24.2894 3.77507 24.177 3.77766C23.9471 3.78226 23.7171 3.78619 23.4872 3.78943C23.3779 3.79218 23.2685 3.79492 23.1558 3.79774C23.0559 3.7995 22.9559 3.80126 22.8529 3.80307C22.5481 3.84415 22.3811 3.92331 22.1357 4.10593C21.88 4.49382 21.8122 4.79745 21.8698 5.25832C22.0902 5.69929 22.3028 5.87601 22.7562 6.05614C23.0168 6.09152 23.2737 6.09107 23.5364 6.08903C23.6886 6.09057 23.8408 6.09213 23.9929 6.09371C24.2304 6.0946 24.4679 6.09492 24.7054 6.09477C26.5473 6.09731 26.5473 6.09731 27.2605 6.71544C27.3565 6.82788 27.3565 6.82788 27.4545 6.9426C27.5184 7.0139 27.5824 7.0852 27.6484 7.15867C28.0597 7.74014 28.04 8.38504 27.9863 9.0701C27.8684 9.63874 27.572 10.0938 27.1033 10.4393C26.6841 10.712 26.3478 10.851 25.8437 10.8601C25.7719 10.8615 25.7 10.863 25.6259 10.8644C25.3001 10.8684 24.9743 10.872 24.6485 10.8741C24.4764 10.8755 24.3044 10.8779 24.1323 10.8813C23.884 10.8862 23.6358 10.8881 23.3875 10.8894C23.3105 10.8914 23.2335 10.8934 23.1541 10.8955C22.9528 10.8948 22.7747 10.8901 22.5789 10.843C22.3923 10.6362 22.3923 10.6362 22.313 10.3998C22.3623 10.1202 22.3954 9.93719 22.6309 9.7652C22.9378 9.65823 23.2378 9.66595 23.5589 9.66638C23.7007 9.66458 23.8426 9.66273 23.9845 9.66084C24.207 9.65884 24.4295 9.65738 24.652 9.65686C24.8676 9.65601 25.083 9.65301 25.2986 9.64976C25.3975 9.65043 25.3975 9.65043 25.4984 9.65111C25.9553 9.64255 26.2154 9.53469 26.568 9.24739C26.8121 8.89218 26.7929 8.5108 26.7453 8.09499C26.589 7.71655 26.4018 7.56054 26.0361 7.38583C25.7802 7.36056 25.5428 7.34881 25.2871 7.34981C25.2151 7.34885 25.1431 7.34789 25.0688 7.3469C24.8391 7.34387 24.6093 7.34249 24.3796 7.3415C22.0055 7.33124 22.0055 7.33124 21.2219 6.58559C20.7417 6.02551 20.5851 5.39296 20.5931 4.66793C20.6734 4.00096 20.9869 3.40533 21.5152 2.98677C22.1157 2.57393 22.7069 2.57607 23.41 2.58787C23.5459 2.58907 23.5459 2.58907 23.6846 2.59029C23.907 2.59237 24.1294 2.59528 24.3519 2.59895C24.351 2.54016 24.3501 2.48138 24.3491 2.42081C24.3421 1.63387 24.3421 1.63387 24.4294 1.26372C24.4438 1.1987 24.4582 1.13368 24.473 1.06669C24.6053 0.708429 25.0088 0.792537 25.327 0.826028Z" fill="black"/>
<path d="M29.5822 26.1783C29.6375 26.2128 29.6928 26.2473 29.7498 26.2829C30.2953 26.6837 30.6408 27.3316 30.78 27.9879C30.7954 28.2727 30.7557 28.4519 30.5961 28.6881C30.007 29.096 29.4024 29.2386 28.6958 29.1923C27.8748 29.034 27.2848 28.6871 26.801 28.0011C26.5291 27.5589 26.3979 27.1773 26.3799 26.6548C26.5063 26.2756 26.6645 26.1875 27.0021 25.9962C27.8111 25.633 28.8394 25.7059 29.5822 26.1783ZM27.7207 26.9761C27.7401 27.3161 27.804 27.4142 28.0531 27.6576C28.4506 27.9404 28.6815 28.0646 29.1667 28.0066C29.2746 27.9884 29.3824 27.9701 29.4936 27.9512C29.3661 27.505 29.1476 27.3316 28.7844 27.0648C28.5289 26.9796 28.3679 26.9667 28.1029 26.9706C28.0313 26.9714 27.9596 26.9722 27.8858 26.973C27.8313 26.974 27.7768 26.9751 27.7207 26.9761Z" fill="black"/>
<path d="M36.6122 22.6991C37.0557 23.0704 37.2751 23.387 37.3823 23.9623C37.3913 24.4661 37.2634 24.9025 36.9391 25.292C36.5666 25.6474 36.2096 25.7667 35.6981 25.7906C35.1845 25.7666 34.8325 25.6458 34.457 25.292C34.0844 24.8356 34.047 24.4461 34.0682 23.8626C34.1318 23.3897 34.324 23.1202 34.662 22.7822C35.2953 22.3845 35.9566 22.3527 36.6122 22.6991ZM35.4044 23.6963C35.2301 23.8701 35.2301 23.8701 35.2216 24.1451C35.2292 24.416 35.2292 24.416 35.4321 24.5828C35.6943 24.6271 35.6943 24.6271 35.964 24.5828C36.1544 24.4447 36.1544 24.4447 36.2299 24.2282C36.1989 23.9881 36.1989 23.9881 36.0527 23.785C35.7935 23.6213 35.6899 23.5729 35.4044 23.6963Z" fill="black"/>
<path d="M23.8476 22.1678C24.2911 22.5391 24.5104 22.8557 24.6177 23.431C24.6266 23.9349 24.4987 24.3712 24.1745 24.7607C23.802 25.1162 23.4449 25.2355 22.9334 25.2593C22.4198 25.2354 22.0679 25.1145 21.6924 24.7607C21.3198 24.3043 21.2824 23.9148 21.3035 23.3313C21.3671 22.8585 21.5594 22.5889 21.8974 22.2509C22.5307 21.8533 23.192 21.8215 23.8476 22.1678ZM22.6398 23.1651C22.4655 23.3388 22.4655 23.3388 22.4569 23.6139C22.4645 23.8848 22.4645 23.8848 22.6675 24.0515C22.9297 24.0959 22.9297 24.0959 23.1994 24.0515C23.3898 23.9134 23.3898 23.9134 23.4653 23.697C23.4343 23.4569 23.4343 23.4569 23.288 23.2537C23.0289 23.0901 22.9252 23.0417 22.6398 23.1651Z" fill="black"/>
<path d="M36.0918 14.7153C36.4076 14.743 36.4076 14.743 36.5793 14.8428C36.7205 15.0919 36.7137 15.2596 36.6735 15.5408C36.535 15.7569 36.535 15.7569 36.3189 15.8954C35.9976 15.8899 35.9976 15.8899 35.6984 15.8068C35.5211 15.5408 35.5211 15.5408 35.5433 15.225C35.6316 14.8203 35.6758 14.7532 36.0918 14.7153Z" fill="black"/>
<path d="M22.152 27.5475C22.4013 27.686 22.4013 27.686 22.5398 27.9353C22.5786 28.2179 22.5786 28.2179 22.4955 28.4727C22.3127 28.6611 22.3127 28.6611 22.0024 28.7054C21.6922 28.6611 21.6922 28.6611 21.5204 28.5669C21.3683 28.2895 21.3821 28.0833 21.4262 27.7746C21.681 27.5273 21.8005 27.4992 22.152 27.5475Z" fill="black"/>
<path d="M11.9577 23.5582C12.207 23.6967 12.207 23.6967 12.3455 23.9461C12.3843 24.2286 12.3843 24.2286 12.3012 24.4835C12.1183 24.6718 12.1183 24.6718 11.8081 24.7162C11.4978 24.6718 11.4978 24.6718 11.3261 24.5777C11.174 24.3003 11.1878 24.0941 11.2319 23.7854C11.4867 23.5381 11.6061 23.51 11.9577 23.5582Z" fill="black"/>
<path d="M29.3317 23.027C29.581 23.1655 29.581 23.1655 29.7195 23.4148C29.7583 23.6974 29.7583 23.6974 29.6752 23.9522C29.4924 24.1406 29.4924 24.1406 29.1821 24.1849C28.8718 24.1406 28.8718 24.1406 28.7001 24.0464C28.548 23.769 28.5618 23.5628 28.6059 23.2541C28.8607 23.0068 28.9802 22.9787 29.3317 23.027Z" fill="black"/>
<path d="M22.0631 19.3033C22.3125 19.4419 22.3125 19.4419 22.451 19.6912C22.4898 19.9737 22.4898 19.9737 22.4066 20.2286C22.2238 20.417 22.2238 20.417 21.9136 20.4613C21.6033 20.417 21.6033 20.417 21.4315 20.3228C21.2794 20.0454 21.2933 19.8392 21.3374 19.5305C21.5922 19.2832 21.7116 19.2551 22.0631 19.3033Z" fill="black"/>
</g>
<defs>
<clipPath id="clip0_358_986">
<rect width="45.3867" height="45.3867" fill="white" transform="translate(0.0625 0.47168)"/>
</clipPath>
</defs>
</svg>
