<svg width="46" height="46" viewBox="0 0 46 46" fill="none" xmlns="http://www.w3.org/2000/svg">
<g clip-path="url(#clip0_358_1002)">
<path d="M40.547 3.57419C41.0342 3.96027 41.2973 4.50895 41.5996 5.04239C41.6516 5.13295 41.7036 5.22351 41.7572 5.31681C41.8623 5.49982 41.9669 5.68306 42.0712 5.86652C42.1809 6.0573 42.2924 6.24701 42.4054 6.43579C42.4892 6.57583 42.4892 6.57583 42.5747 6.7187C42.6255 6.80246 42.6762 6.88623 42.7285 6.97254C42.9019 7.30474 42.9966 7.63242 42.9404 8.00649C42.7657 8.48468 42.5029 8.69532 42.0761 8.94281C42.0144 8.97997 41.9527 9.01714 41.8891 9.05543C41.1853 9.47545 40.4685 9.87381 39.7536 10.2746C39.2225 10.5731 38.6959 10.8788 38.1701 11.1867C37.1412 11.7889 36.109 12.3852 35.0759 12.9803C34.5947 13.2576 34.1136 13.5352 33.6326 13.8128C33.4405 13.9236 33.2484 14.0344 33.0564 14.1452C32.9613 14.2001 32.8662 14.2549 32.7683 14.3114C24.9896 18.7991 24.9896 18.7991 24.7013 18.9655C24.51 19.0758 24.3187 19.1862 24.1274 19.2966C23.5341 19.639 22.9405 19.9808 22.3466 20.3222C22.0561 20.4896 21.7662 20.658 21.4763 20.8266C21.1598 21.0102 20.8418 21.1892 20.5192 21.3619C20.4561 21.3967 20.393 21.4315 20.328 21.4674C20.1679 21.5555 20.0065 21.6413 19.845 21.7269C19.6049 21.9434 19.5891 21.9958 19.5493 22.301C19.5455 22.4106 19.5418 22.5202 19.5379 22.6331C19.6323 22.6139 19.7267 22.5947 19.8239 22.5749C22.1226 22.1259 24.2795 22.4717 26.275 23.6968C26.4945 23.8538 26.7046 24.0147 26.9104 24.1892C27.0751 24.3192 27.237 24.4077 27.4274 24.4946C27.4813 24.4453 27.5352 24.3959 27.5908 24.345C29.2752 22.8786 31.5041 22.2258 33.7212 22.3671C35.0489 22.5084 36.8343 22.8682 37.7868 23.8706C37.9338 24.1343 37.9058 24.3076 37.855 24.5971C37.7989 24.7606 37.7989 24.7606 37.6106 24.9434C37.1887 25.081 36.8441 24.9877 36.4467 24.8059C36.3499 24.7526 36.2532 24.6992 36.1534 24.6442C34.5018 23.7707 32.6655 23.6615 30.8878 24.192C30.1292 24.4406 28.8873 24.9015 28.4866 25.6418C28.4934 25.9179 28.6189 26.0697 28.7737 26.2952C28.8308 26.3805 28.8879 26.4657 28.9468 26.5536C29.0284 26.6753 29.0284 26.6753 29.1116 26.7994C29.2341 27.0042 29.3503 27.2113 29.4662 27.4199C29.5115 27.3749 29.5567 27.3299 29.6033 27.2835C30.5734 26.365 31.7121 25.9361 33.0453 25.8742C34.4788 25.9248 35.728 26.489 36.7123 27.5318C37.6627 28.6844 37.9012 29.9027 37.9153 31.3591C37.9191 31.4919 37.9191 31.4919 37.9231 31.6273C37.9277 32.1642 37.9057 32.6756 37.533 33.0933C37.082 33.3957 36.7458 33.5001 36.1992 33.4963C36.1308 33.4972 36.0624 33.4981 35.9919 33.499C35.7679 33.5016 35.544 33.5018 35.32 33.5019C35.1638 33.5032 35.0077 33.5047 34.8516 33.5063C34.4422 33.5102 34.0329 33.512 33.6235 33.5133C33.2052 33.515 32.7868 33.5188 32.3685 33.5223C31.5488 33.529 30.7291 33.5334 29.9094 33.5365C29.8795 33.6102 29.8496 33.6839 29.8187 33.7599C29.7792 33.8562 29.7396 33.9525 29.6989 34.0518C29.6598 34.1474 29.6208 34.2431 29.5805 34.3416C29.4662 34.6003 29.4662 34.6003 29.2889 34.8662C30.5018 34.8731 31.7147 34.8757 32.9276 34.8729C33.4909 34.8717 34.054 34.872 34.6173 34.8756C35.1611 34.8791 35.7047 34.8787 36.2485 34.8756C36.4557 34.8751 36.663 34.876 36.8702 34.8783C37.9608 34.9331 37.9608 34.9331 38.9668 34.6057C39.1515 34.4033 39.274 34.2246 39.3946 33.9797C39.4325 33.9172 39.4705 33.8547 39.5096 33.7904C39.9448 33.0629 39.9587 32.1771 39.9541 31.3536C39.9537 31.2605 39.9533 31.1674 39.9528 31.0715C39.9323 29.6968 39.6741 28.3847 38.9236 27.2094C38.6989 26.8518 38.5993 26.6094 38.6854 26.1789C38.87 25.9091 38.9923 25.8382 39.3059 25.7468C39.6004 25.7345 39.6862 25.7504 39.9264 25.913C41.3633 27.9199 41.7011 30.5476 41.3926 32.9499C41.2948 33.4639 41.1299 33.9031 40.8912 34.3683C40.8433 34.4621 40.7954 34.5559 40.7461 34.6526C40.7096 34.7231 40.6732 34.7936 40.6356 34.8662C40.6844 34.8656 40.7332 34.865 40.7835 34.8644C41.2925 34.8585 41.8016 34.8545 42.3107 34.8516C42.5005 34.8503 42.6904 34.8484 42.8802 34.8461C43.1535 34.8429 43.4268 34.8414 43.7001 34.8402C43.8269 34.8382 43.8269 34.8382 43.9562 34.8361C44.5443 34.8359 44.9206 34.9118 45.3643 35.3262C45.5531 35.6467 45.5607 35.9202 45.5551 36.2818C45.5552 36.349 45.5554 36.4161 45.5555 36.4854C45.5553 36.6269 45.5543 36.7685 45.5525 36.91C45.5499 37.126 45.5507 37.3418 45.5518 37.5578C45.5513 37.6957 45.5505 37.8336 45.5496 37.9716C45.5498 38.0358 45.5501 38.1 45.5504 38.1661C45.5431 38.5584 45.5007 38.8185 45.2452 39.1212C44.7764 39.4566 44.3029 39.4217 43.75 39.4131C43.6583 39.4127 43.5665 39.4124 43.472 39.412C43.1803 39.4105 42.8886 39.4072 42.5969 39.4038C42.3986 39.4024 42.2003 39.4012 42.002 39.4001C41.517 39.3972 41.032 39.3928 40.547 39.3871C40.5493 39.4676 40.5516 39.5481 40.554 39.631C40.5616 39.9313 40.5671 40.2316 40.5713 40.532C40.5735 40.6617 40.5765 40.7913 40.5804 40.921C40.5858 41.108 40.5883 41.295 40.5902 41.4821C40.5926 41.5944 40.5949 41.7068 40.5973 41.8225C40.5301 42.2399 40.404 42.3729 40.1037 42.667C39.8447 42.8247 39.6538 42.8666 39.3523 42.8669C39.2729 42.8674 39.1934 42.8679 39.1115 42.8685C39.0245 42.8681 38.9376 42.8678 38.848 42.8674C38.709 42.868 38.709 42.868 38.5672 42.8685C38.2557 42.8694 37.9442 42.869 37.6327 42.8687C37.4098 42.8691 37.1869 42.8695 36.964 42.8701C36.4208 42.8711 35.8776 42.8713 35.3344 42.8711C34.8929 42.871 34.4514 42.8711 34.0099 42.8715C33.9157 42.8716 33.9157 42.8716 33.8196 42.8717C33.692 42.8718 33.5644 42.8719 33.4368 42.872C32.24 42.873 31.0432 42.8728 29.8464 42.8722C28.7513 42.8718 27.6562 42.8728 26.561 42.8744C25.4368 42.8762 24.3126 42.8769 23.1883 42.8766C22.5571 42.8764 21.9258 42.8766 21.2945 42.8779C20.701 42.879 20.1075 42.8788 19.514 42.8777C19.2959 42.8774 19.0779 42.8777 18.8598 42.8784C18.5626 42.8793 18.2654 42.8786 17.9682 42.8775C17.8815 42.8782 17.7947 42.8788 17.7053 42.8795C17.2712 42.876 16.961 42.8692 16.6126 42.5784C16.4845 42.3223 16.4905 42.1532 16.5239 41.8692C16.702 41.6188 16.8447 41.4524 17.1538 41.3857C17.3909 41.3699 17.6242 41.3691 17.8618 41.3727C17.9527 41.3723 18.0435 41.3719 18.1372 41.3715C18.4421 41.3708 18.7469 41.3733 19.0518 41.3757C19.2702 41.3758 19.4886 41.3757 19.707 41.3755C20.1774 41.3754 20.6478 41.3766 21.1182 41.3791C21.7983 41.3827 22.4784 41.3839 23.1586 41.3844C24.2621 41.3854 25.3655 41.3884 26.469 41.3926C27.5408 41.3966 28.6127 41.3998 29.6846 41.4016C29.7506 41.4018 29.8167 41.4019 29.8848 41.402C30.2163 41.4026 30.5478 41.4031 30.8793 41.4037C33.6291 41.4083 36.3789 41.4162 39.1286 41.426C39.1286 40.7532 39.1286 40.0804 39.1286 39.3871C38.9671 39.3895 38.8057 39.3918 38.6393 39.3942C38.105 39.4013 37.5708 39.4064 37.0365 39.4101C36.7126 39.4124 36.3888 39.4156 36.0649 39.4206C35.7523 39.4254 35.4396 39.428 35.1269 39.4292C34.9499 39.4304 34.7729 39.4339 34.5959 39.4374C33.7005 39.4376 33.7005 39.4376 33.4264 39.1794C33.242 38.8869 33.2073 38.7513 33.278 38.412C33.4605 38.1471 33.6055 37.991 33.929 37.929C34.1976 37.9141 34.4628 37.914 34.7318 37.9185C34.8338 37.9184 34.9359 37.9184 35.0411 37.9183C35.3783 37.9186 35.7155 37.9221 36.0527 37.9255C36.2866 37.9263 36.5205 37.927 36.7543 37.9274C37.3069 37.9288 37.8594 37.9324 38.4119 37.9369C39.0411 37.9418 39.6703 37.9443 40.2995 37.9465C41.5935 37.9511 42.8875 37.959 44.1814 37.9688C44.1814 37.413 44.1814 36.8572 44.1814 36.2845C30.0814 36.2845 15.9814 36.2845 1.45411 36.2845C1.45411 36.8403 1.45411 37.3962 1.45411 37.9688C1.60675 37.9684 1.75939 37.968 1.91665 37.9676C5.53807 37.958 9.15948 37.9507 12.7809 37.9462C13.2264 37.9456 13.6719 37.945 14.1174 37.9445C14.2061 37.9443 14.2948 37.9442 14.3862 37.9441C15.8233 37.9422 17.2603 37.9387 18.6974 37.9346C20.1714 37.9305 21.6455 37.928 23.1195 37.9271C24.0294 37.9265 24.9393 37.9246 25.8492 37.921C26.4728 37.9186 27.0963 37.9179 27.7198 37.9185C28.0799 37.9188 28.4399 37.9183 28.7999 37.916C29.1294 37.9138 29.4588 37.9137 29.7882 37.9152C29.9642 37.9155 30.1401 37.9136 30.316 37.9116C31.1671 37.9188 31.1671 37.9188 31.4424 38.1771C31.6305 38.4691 31.6647 38.6033 31.5937 38.9439C31.4121 39.2052 31.2675 39.3639 30.9476 39.4275C30.6847 39.4433 30.425 39.444 30.1616 39.4404C30.0606 39.4408 29.9596 39.4412 29.8555 39.4416C29.5163 39.4423 29.1772 39.4399 28.838 39.4375C28.5951 39.4371 28.3523 39.4374 28.1094 39.4377C27.5862 39.4379 27.063 39.4365 26.5397 39.434C25.7832 39.4304 25.0268 39.4292 24.2703 39.4287C23.0429 39.4277 21.8155 39.4248 20.5882 39.4206C19.3959 39.4165 18.2037 39.4134 17.0114 39.4115C16.9012 39.4113 16.9012 39.4113 16.7887 39.4111C16.42 39.4106 16.0513 39.41 15.6826 39.4094C12.6241 39.4049 9.5655 39.3969 6.50693 39.3871C6.50693 40.06 6.50693 40.7328 6.50693 41.426C6.7436 41.4237 6.98028 41.4214 7.22412 41.419C8.00605 41.4116 8.78799 41.4067 9.56994 41.403C10.0441 41.4007 10.5181 41.3976 10.9922 41.3926C11.4497 41.3877 11.9072 41.3851 12.3648 41.3839C12.5393 41.3831 12.7139 41.3815 12.8884 41.3791C13.133 41.3759 13.3773 41.3755 13.6219 41.3757C13.694 41.3741 13.7662 41.3725 13.8406 41.3708C14.2166 41.3743 14.3562 41.3947 14.6637 41.6338C14.8396 41.8692 14.8396 41.8692 14.884 42.1407C14.8354 42.4258 14.7769 42.5525 14.5737 42.7557C14.2206 42.8734 13.8812 42.8589 13.513 42.86C13.4316 42.8606 13.3503 42.8612 13.2665 42.8618C12.9971 42.8635 12.7277 42.8646 12.4583 42.8655C12.3663 42.8658 12.2743 42.8662 12.1795 42.8666C11.6927 42.8684 11.2058 42.8697 10.7189 42.8705C10.216 42.8715 9.7132 42.8745 9.21034 42.878C8.82363 42.8804 8.43694 42.8811 8.05023 42.8814C7.86485 42.8819 7.67948 42.8829 7.49411 42.8845C7.23459 42.8867 6.97515 42.8866 6.71562 42.886C6.601 42.8877 6.601 42.8877 6.48406 42.8894C5.92049 42.8846 5.60082 42.7288 5.18994 42.33C5.04332 42.0481 5.05873 41.8157 5.06262 41.4994C5.063 41.4389 5.06337 41.3784 5.06376 41.3161C5.06525 41.1237 5.06858 40.9314 5.07197 40.739C5.07331 40.6082 5.07452 40.4774 5.07561 40.3467C5.07853 40.0268 5.08312 39.707 5.08859 39.3871C5.01207 39.388 5.01207 39.388 4.934 39.3889C4.40192 39.3948 3.86985 39.3988 3.33775 39.4017C3.1393 39.4031 2.94086 39.4049 2.74242 39.4072C2.45679 39.4104 2.1712 39.4119 1.88557 39.4131C1.75298 39.4152 1.75298 39.4152 1.61772 39.4173C1.14585 39.4174 0.787941 39.4056 0.390358 39.1212C0.0934025 38.7686 0.0829917 38.4184 0.0828677 37.9747C0.0821928 37.9077 0.0815179 37.8407 0.0808225 37.7717C0.0798678 37.6306 0.079611 37.4894 0.080011 37.3482C0.0800972 37.1331 0.076405 36.9184 0.0724795 36.7034C0.0720179 36.5657 0.0717796 36.4281 0.071787 36.2904C0.0703336 36.2267 0.0688802 36.163 0.0673828 36.0973C0.0719223 35.7636 0.119908 35.537 0.321623 35.2758C0.710762 34.9083 1.032 34.8442 1.55889 34.8415C1.66914 34.8405 1.77939 34.8395 1.89299 34.8385C2.01446 34.8383 2.13593 34.8381 2.2574 34.8379C2.38585 34.8371 2.51429 34.8362 2.64274 34.8352C2.99088 34.8328 3.33901 34.8315 3.68715 34.8303C4.05119 34.8289 4.41522 34.8266 4.77925 34.8243C5.46835 34.8201 6.15745 34.8169 6.84656 34.814C7.63119 34.8106 8.41581 34.8062 9.20043 34.8017C10.8142 34.7926 12.428 34.7846 14.0418 34.7776C14.0048 34.7051 13.9678 34.6327 13.9297 34.558C13.8814 34.4627 13.8331 34.3673 13.7834 34.2691C13.7354 34.1747 13.6874 34.0803 13.638 33.983C13.3688 33.4171 13.3048 32.8718 13.3029 32.2515C13.3023 32.1813 13.3017 32.1111 13.3011 32.0388C13.3002 31.8908 13.2998 31.7427 13.2998 31.5947C13.2994 31.3735 13.2962 31.1525 13.2928 30.9313C13.284 29.6831 13.5009 28.5845 13.9532 27.4199C13.8251 27.4208 13.8251 27.4208 13.6945 27.4217C12.886 27.4271 12.0775 27.4311 11.2691 27.4337C10.8535 27.4351 10.438 27.437 10.0224 27.44C9.62065 27.4429 9.2189 27.4445 8.81712 27.4452C8.6646 27.4457 8.51207 27.4466 8.35956 27.4481C6.73027 27.4629 5.44711 27.1919 4.22741 26.0321C3.05499 24.8296 2.74872 23.4964 2.76164 21.8574C2.7623 21.747 2.76296 21.6366 2.76365 21.5228C2.79357 18.9719 3.61134 16.8761 5.39574 15.0521C6.58552 13.9202 8.17172 13.1563 9.78683 12.882C9.85447 12.8705 9.92212 12.8589 9.99182 12.847C12.1722 12.5464 14.3534 13.1002 16.1347 14.3776C17.4809 15.4165 17.4809 15.4165 17.765 15.9846C18.1292 15.8731 18.4435 15.7382 18.7719 15.5459C18.9075 15.467 18.9075 15.467 19.0459 15.3866C19.1424 15.3298 19.239 15.273 19.3384 15.2145C19.4409 15.1547 19.5434 15.095 19.6459 15.0353C19.8588 14.9114 20.0715 14.7872 20.2842 14.6628C20.7765 14.3753 21.271 14.0916 21.7651 13.8073C22.4979 13.3849 23.2291 12.96 23.9591 12.533C24.7809 12.0523 25.6065 11.5786 26.4337 11.1073C27.1514 10.6982 27.8669 10.2855 28.5798 9.86805C29.3452 9.41983 30.1139 8.97751 30.8846 8.53836C31.7463 8.04728 32.6051 7.5514 33.4612 7.05058C34.2955 6.56273 35.1324 6.07969 35.9699 5.59746C36.3227 5.39429 36.6752 5.19059 37.0271 4.98605C37.1835 4.8952 37.3399 4.80446 37.4963 4.71375C37.6918 4.60034 37.8872 4.48673 38.0825 4.37289C38.4997 4.13118 38.9186 3.89354 39.3457 3.66976C39.4135 3.63425 39.4812 3.59874 39.551 3.56216C39.8851 3.43299 40.217 3.43583 40.547 3.57419ZM39.2637 5.3478C39.1632 5.40539 39.0628 5.46299 38.9593 5.52232C38.8495 5.58579 38.7397 5.64928 38.63 5.71277C38.5168 5.7779 38.4035 5.843 38.2903 5.90807C37.5064 6.35903 36.7252 6.81448 35.9448 7.27139C35.2653 7.66873 34.5824 8.06002 33.8985 8.44972C33.0368 8.9408 32.178 9.43668 31.3219 9.9375C30.3889 10.483 29.4526 11.0225 28.5161 11.562C28.0349 11.8393 27.5538 12.1169 27.0728 12.3945C26.8807 12.5053 26.6886 12.6161 26.4966 12.7269C26.4015 12.7817 26.3064 12.8366 26.2085 12.8931C23.0394 14.7214 23.0394 14.7214 22.7508 14.8879C22.5603 14.9978 22.3698 15.1077 22.1794 15.2177C21.7294 15.4775 21.2793 15.7369 20.8286 15.9953C20.6158 16.1173 20.403 16.2395 20.1903 16.3618C20.0401 16.448 19.8897 16.5339 19.7394 16.6199C19.603 16.6983 19.603 16.6983 19.4638 16.7783C19.3837 16.8241 19.3037 16.87 19.2213 16.9172C19.021 17.0392 18.8361 17.1701 18.6514 17.3143C18.764 17.7057 18.764 17.7057 19.006 18.0235C20.1244 17.3958 21.238 16.761 22.3446 16.1127C23.0316 15.7108 23.7218 15.3148 24.4134 14.9209C25.1841 14.4817 25.9527 14.0394 26.7182 13.5912C27.4837 13.143 28.2523 12.7006 29.023 12.2615C29.8847 11.7704 30.7435 11.2745 31.5996 10.7737C32.5326 10.2282 33.4689 9.68866 34.4054 9.14923C34.9816 8.81721 35.5576 8.48473 36.1337 8.15231C36.5789 7.89542 37.0241 7.63861 37.4696 7.38217C37.6261 7.29205 37.7826 7.20189 37.9392 7.11172C38.1347 6.99911 38.3302 6.88657 38.5258 6.7741C38.702 6.67255 38.878 6.57063 39.0538 6.4683C39.2248 6.36922 39.3966 6.27152 39.5691 6.17509C39.6911 6.10548 39.6911 6.10548 39.8156 6.03446C39.8883 5.99373 39.961 5.953 40.0359 5.91104C40.0875 5.87121 40.1392 5.83138 40.1924 5.79034C40.1924 5.47134 40.1074 5.33873 39.9264 5.08117C39.6591 5.08117 39.4944 5.21502 39.2637 5.3478ZM40.325 7.29489C40.2257 7.35204 40.1265 7.40918 40.0242 7.46805C39.9159 7.53117 39.8076 7.5943 39.6993 7.65744C39.5871 7.7223 39.4748 7.7871 39.3626 7.85185C39.1313 7.98539 38.9001 8.11924 38.6692 8.25338C38.3581 8.43399 38.0466 8.61375 37.7349 8.79322C37.2601 9.0666 36.7856 9.34052 36.3113 9.61462C35.8322 9.89139 35.3529 10.1678 34.8736 10.4442C34.6816 10.5551 34.4895 10.6659 34.2974 10.7767C26.2306 15.4306 26.2306 15.4306 25.9425 15.5968C25.7506 15.7075 25.5587 15.8183 25.3667 15.929C24.8845 16.2073 24.4021 16.4855 23.9196 16.7634C22.9931 17.2972 22.0676 17.8326 21.1446 18.3725C20.3228 18.8531 19.4972 19.3268 18.6702 19.7981C17.8625 20.2585 17.0579 20.7237 16.2557 21.1936C15.7841 21.4697 15.3115 21.7438 14.8372 22.0153C14.7321 22.0756 14.6271 22.1358 14.522 22.196C14.3219 22.3107 14.1216 22.425 13.9211 22.5391C13.4397 22.815 12.9788 23.0978 12.5348 23.4309C12.5641 23.6064 12.5934 23.7819 12.6235 23.9628C12.9303 24.066 12.9683 24.0559 13.287 23.9098C13.4137 23.8381 13.5396 23.7651 13.6651 23.6913C13.7347 23.6514 13.8044 23.6115 13.8762 23.5705C14.1094 23.4365 14.3416 23.3009 14.5737 23.1649C14.7374 23.0697 14.901 22.9745 15.0647 22.8793C15.327 22.7265 15.5891 22.5735 15.851 22.4201C16.5454 22.0134 17.2431 21.613 17.9422 21.2147C18.804 20.7237 19.6628 20.2278 20.5189 19.7269C21.4518 19.1814 22.3882 18.6419 23.3246 18.1025C23.8059 17.8252 24.2869 17.5476 24.768 17.27C24.96 17.1592 25.1521 17.0484 25.3442 16.9376C25.4393 16.8827 25.5343 16.8279 25.6323 16.7714C35.7158 10.954 35.7158 10.954 36.004 10.7876C36.1955 10.6772 36.3869 10.5668 36.5783 10.4563C37.1686 10.1157 37.7591 9.77537 38.3497 9.43532C38.639 9.26853 38.928 9.10119 39.2169 8.93381C39.5527 8.73946 39.8898 8.5478 40.2287 8.35899C40.3001 8.31863 40.3716 8.27827 40.4451 8.23669C40.5754 8.16312 40.7062 8.09054 40.8377 8.01919C41.0258 7.91614 41.0258 7.91614 41.2561 7.74055C41.2561 7.40663 41.2353 7.30513 41.0788 7.03138C40.7485 7.03138 40.6101 7.12963 40.325 7.29489ZM5.97505 16.5165C4.68485 18.0531 4.18669 19.7984 4.18551 21.7854C4.18443 21.8812 4.18334 21.977 4.18222 22.0757C4.18012 23.2338 4.43122 24.1793 5.23264 25.0542C5.97812 25.7536 6.82606 26.0141 7.82036 26.0173C7.9387 26.0182 7.9387 26.0182 8.05944 26.0191C8.32047 26.0208 8.5815 26.0218 8.84254 26.0227C8.93195 26.0231 9.02136 26.0235 9.11348 26.0238C9.58706 26.0257 10.0606 26.0269 10.5342 26.0278C11.0217 26.0288 11.5091 26.0318 11.9965 26.0353C12.3727 26.0376 12.7489 26.0384 13.1252 26.0387C13.3047 26.0391 13.4843 26.0402 13.6638 26.0418C14.9449 26.0529 16.0351 25.9834 17.0558 25.1151C17.7247 24.4131 18.0584 23.684 18.1195 22.7217C16.7013 23.4536 15.325 24.2641 13.9637 25.0964C13.4099 25.4131 12.8781 25.4373 12.2689 25.2924C11.7542 25.0876 11.4855 24.8104 11.2664 24.3056C11.2136 24.1628 11.1647 24.0185 11.1165 23.8741C11.0038 23.8728 10.8911 23.8715 10.775 23.8702C10.3557 23.865 9.93645 23.8582 9.51717 23.8508C9.33593 23.8479 9.15468 23.8454 8.97343 23.8434C8.71242 23.8404 8.45148 23.8358 8.19051 23.8308C8.10987 23.8303 8.02924 23.8297 7.94616 23.8291C7.49236 23.8187 7.16169 23.7793 6.77286 23.5195C6.34632 23.0353 6.36276 22.4014 6.37396 21.7909C6.37509 21.6971 6.37623 21.6032 6.3774 21.5065C6.41393 20.0795 6.77095 18.8434 7.76459 17.7742C8.70924 16.8963 9.88475 16.4346 11.1719 16.3891C12.5203 16.4537 13.8242 16.9221 14.751 17.9348C15.2176 18.5051 15.5347 19.1175 15.8147 19.7964C16.2345 19.6457 16.6092 19.4297 16.9948 19.2091C17.0605 19.1719 17.1261 19.1346 17.1938 19.0962C17.3548 19.0048 17.5156 18.9131 17.6763 18.8213C17.2347 17.2367 15.9682 15.8468 14.5481 15.0428C11.6764 13.5862 8.17336 14.0954 5.97505 16.5165ZM8.81172 18.7326C8.72048 18.8488 8.631 18.9665 8.54578 19.0872C8.70622 19.1018 8.70622 19.1018 8.86989 19.1167C9.01303 19.1308 9.15615 19.145 9.29927 19.1593C9.36943 19.1655 9.4396 19.1717 9.51188 19.1781C9.87461 19.2153 10.1878 19.2716 10.5265 19.4096C10.8773 19.5429 10.8773 19.5429 11.2052 19.4418C11.395 19.3373 11.395 19.3373 11.5857 19.2067C11.6562 19.1598 11.7266 19.1129 11.7992 19.0645C11.8719 19.0154 11.9447 18.9662 12.0196 18.9155C12.0934 18.8666 12.1671 18.8178 12.2431 18.7674C12.6239 18.5379 12.6239 18.5379 12.8894 18.2008C12.7511 18.143 12.6126 18.0859 12.4739 18.029C12.3968 17.9971 12.3196 17.9653 12.2402 17.9324C11.0314 17.493 9.71977 17.8364 8.81172 18.7326ZM13.5373 19.536C13.4536 19.592 13.3699 19.648 13.2837 19.7057C13.1956 19.7649 13.1076 19.8241 13.0169 19.885C12.9285 19.9442 12.8401 20.0034 12.749 20.0644C12.5298 20.2113 12.3107 20.3584 12.0916 20.5056C12.2671 20.8859 12.4427 21.2661 12.6235 21.658C13.2784 21.3418 13.8926 21.0161 14.4851 20.5942C14.4424 20.0824 14.2914 19.7114 14.0418 19.2645C13.8597 19.2645 13.681 19.4396 13.5373 19.536ZM7.83662 20.5056C7.63083 21.1229 7.74797 21.805 7.74797 22.4558C8.91809 22.4558 10.0882 22.4558 11.2938 22.4558C11.1805 21.6628 10.9124 21.3369 10.3447 20.8172C9.81663 20.4682 9.24812 20.4825 8.63997 20.4945C8.56244 20.4953 8.4849 20.4961 8.40502 20.4969C8.21554 20.499 8.02608 20.5022 7.83662 20.5056ZM19.1833 24.3173C19.0318 24.5473 19.0318 24.5473 18.9284 24.816C18.5237 25.6852 17.9057 26.3455 17.0558 26.7994C16.8767 26.8638 16.6961 26.9206 16.5145 26.9773C15.9662 27.1514 15.5884 27.2721 15.305 27.8078C14.9082 28.9133 14.6906 29.9463 14.7048 31.1166C14.7067 31.3053 14.7048 31.4937 14.7025 31.6824C14.7001 32.8629 15.0122 33.8047 15.8011 34.6967C16.2349 34.9597 16.6565 34.9178 17.1546 34.9163C17.2635 34.9174 17.3724 34.9184 17.4845 34.9195C17.7826 34.9219 18.0805 34.9227 18.3785 34.9226C18.6277 34.9227 18.8768 34.9237 19.1259 34.9248C19.714 34.9272 20.302 34.9277 20.89 34.927C21.4957 34.9264 22.1014 34.9294 22.7071 34.934C23.2279 34.9379 23.7487 34.9394 24.2696 34.939C24.5803 34.9388 24.891 34.9395 25.2017 34.9426C25.5485 34.946 25.8951 34.9444 26.2419 34.9423C26.3954 34.9448 26.3954 34.9448 26.552 34.9473C27.0446 34.9403 27.3476 34.9181 27.7083 34.5637C27.7953 34.4605 27.8795 34.3547 27.9592 34.2457C28.0081 34.1794 28.0571 34.1131 28.1074 34.0448C28.5715 33.1907 28.7146 32.3576 28.7016 31.3924C28.7004 31.2471 28.7004 31.2471 28.6991 31.0988C28.6594 28.9557 27.9334 27.1054 26.3917 25.5906C24.6263 24.0264 21.3482 22.9388 19.1833 24.3173ZM30.4413 28.4837C30.4413 28.5422 30.4413 28.6007 30.4413 28.661C30.5922 28.6756 30.5922 28.6756 30.746 28.6904C30.8809 28.7046 31.0157 28.7188 31.1505 28.733C31.2494 28.7424 31.2494 28.7424 31.3503 28.7519C31.6998 28.7899 31.9992 28.8488 32.325 28.9834C32.6729 29.1098 32.7607 29.1166 33.1007 29.0156C33.3012 28.91 33.3012 28.91 33.493 28.7742C33.5636 28.7265 33.6342 28.6788 33.7069 28.6296C33.8154 28.5547 33.8154 28.5547 33.9262 28.4782C34.0003 28.4278 34.0744 28.3775 34.1508 28.3256C34.3331 28.2017 34.5149 28.077 34.6963 27.9518C34.6524 27.8202 34.6524 27.8202 34.6077 27.6859C33.1705 27.0464 31.5179 27.2698 30.4413 28.4837ZM35.3442 29.1098C35.2605 29.1657 35.1768 29.2217 35.0906 29.2794C35.0025 29.3386 34.9145 29.3978 34.8238 29.4588C34.7354 29.518 34.647 29.5772 34.5559 29.6382C34.3367 29.785 34.1175 29.9321 33.8985 30.0793C33.9286 30.1433 33.9588 30.2074 33.9898 30.2733C34.2596 30.8549 34.454 31.4069 34.6077 32.0295C35.222 32.0295 35.8363 32.0295 36.4692 32.0295C36.496 30.8443 36.5095 29.8637 35.8487 28.8383C35.6666 28.8383 35.4879 29.0134 35.3442 29.1098ZM29.9981 30.0793C30.0273 30.7229 30.0566 31.3665 30.0867 32.0295C31.1106 32.0295 32.1345 32.0295 33.1893 32.0295C32.9452 31.2156 32.7781 30.7374 32.0702 30.312C31.5981 30.0847 31.2041 30.0679 30.6851 30.0738C30.345 30.0765 30.345 30.0765 29.9981 30.0793Z" fill="black"/>
<path d="M24.6804 26.8879C25.7751 27.7968 26.3811 28.9406 26.5419 30.3451C26.5606 30.6831 26.5664 31.0205 26.5696 31.359C26.5735 31.4917 26.5735 31.4917 26.5774 31.6272C26.582 32.1641 26.5601 32.6755 26.1874 33.0931C25.7051 33.4216 25.3658 33.4995 24.7887 33.4936C24.7134 33.4942 24.6381 33.4948 24.5605 33.4955C24.3131 33.497 24.0659 33.496 23.8185 33.4948C23.6458 33.495 23.473 33.4954 23.3003 33.4958C22.939 33.4963 22.5777 33.4956 22.2164 33.4939C21.7538 33.4919 21.2914 33.4931 20.8288 33.4952C20.4724 33.4965 20.116 33.4961 19.7595 33.4951C19.589 33.4949 19.4185 33.4952 19.2479 33.496C19.0095 33.4969 18.7711 33.4955 18.5326 33.4936C18.4275 33.4946 18.4275 33.4946 18.3203 33.4957C17.8599 33.4887 17.6006 33.3947 17.2341 33.0931C16.9213 32.7148 16.8344 32.4557 16.8324 31.9681C16.832 31.855 16.8315 31.7419 16.8311 31.6254C16.8318 31.5669 16.8325 31.5085 16.8333 31.4482C16.8352 31.273 16.8331 31.0977 16.8311 30.9225C16.8368 29.4822 17.2967 28.3075 18.2743 27.2515C20.046 25.6081 22.7413 25.4508 24.6804 26.8879ZM19.0957 28.4835C19.0957 28.542 19.0957 28.6005 19.0957 28.6608C19.2465 28.6754 19.2465 28.6754 19.4004 28.6902C19.5352 28.7044 19.67 28.7186 19.8048 28.7328C19.9037 28.7422 19.9037 28.7422 20.0046 28.7517C20.3542 28.7897 20.6535 28.8486 20.9794 28.9832C21.3272 29.1096 21.415 29.1164 21.7551 29.0154C21.9556 28.9098 21.9556 28.9098 22.1474 28.774C22.2179 28.7263 22.2885 28.6786 22.3612 28.6295C22.4698 28.5545 22.4698 28.5545 22.5806 28.478C22.6547 28.4276 22.7288 28.3773 22.8051 28.3254C22.9874 28.2015 23.1693 28.0769 23.3507 27.9516C23.3068 27.82 23.3068 27.82 23.262 27.6857C21.8249 27.0462 20.1722 27.2697 19.0957 28.4835ZM24.4144 28.8381C23.8001 29.2476 23.1858 29.6572 22.5529 30.0791C22.6991 30.3717 22.8454 30.6642 22.9961 30.9656C23.1083 31.3187 23.1819 31.6668 23.262 32.0294C23.8764 32.0294 24.4907 32.0294 25.1236 32.0294C25.1798 30.4076 25.1798 30.4076 24.5917 28.9267C24.5332 28.8975 24.4747 28.8682 24.4144 28.8381ZM18.2979 30.0791C18.2979 30.7227 18.2979 31.3663 18.2979 32.0294C19.468 32.0294 20.6381 32.0294 21.8437 32.0294C21.5995 31.2154 21.4324 30.7372 20.7245 30.3118C20.3468 30.13 20.0655 30.0678 19.6483 30.0705C19.5772 30.0707 19.5061 30.0709 19.4329 30.0712C19.3435 30.072 19.2542 30.0728 19.1622 30.0736C18.8769 30.0754 18.5917 30.0773 18.2979 30.0791Z" fill="black"/>
</g>
<defs>
<clipPath id="clip0_358_1002">
<rect width="45.3867" height="45.3867" fill="white" transform="translate(0.125 0.47168)"/>
</clipPath>
</defs>
</svg>
