<svg width="46" height="46" viewBox="0 0 46 46" fill="none" xmlns="http://www.w3.org/2000/svg">
<g clip-path="url(#clip0_358_1005)">
<path d="M24.9667 0.427948C25.1389 0.428889 25.1389 0.428889 25.3147 0.429848C25.6169 0.431524 25.9191 0.435864 26.2214 0.440798C26.531 0.445368 26.8406 0.447364 27.1503 0.44959C27.7556 0.454314 28.3609 0.462097 28.9661 0.471232C28.9661 0.997789 28.9661 1.52435 28.9661 2.06686C28.7467 2.0688 28.7467 2.0688 28.5228 2.07078C27.9811 2.07591 27.4394 2.08275 26.8977 2.09012C26.663 2.09308 26.4284 2.09556 26.1937 2.09757C25.8568 2.10053 25.52 2.10517 25.1831 2.11014C25.0252 2.11099 25.0252 2.11099 24.8641 2.11186C24.7665 2.11361 24.6689 2.11537 24.5684 2.11718C24.4823 2.11816 24.3963 2.11914 24.3077 2.12016C24.0545 2.16138 23.9786 2.22075 23.8247 2.42144C23.7034 2.66405 23.7168 2.86845 23.708 3.13961C23.7043 3.24703 23.7006 3.35444 23.6967 3.46511C23.6932 3.57778 23.6898 3.69045 23.6862 3.80653C23.6804 3.97657 23.6804 3.97657 23.6746 4.15004C23.6651 4.43074 23.6561 4.71145 23.6474 4.99217C23.7093 4.99684 23.7712 5.0015 23.835 5.00631C24.3516 5.04865 24.8499 5.10877 25.3538 5.23041C25.4175 5.24568 25.4811 5.26095 25.5467 5.27668C28.3569 5.98495 30.6298 7.83991 32.1241 10.2888C33.1973 12.1808 33.5204 14.1918 33.4871 16.3389C33.9844 16.3389 34.4817 16.3389 34.9941 16.3389C34.9941 16.8654 34.9941 17.392 34.9941 17.9345C34.4675 17.9345 33.9409 17.9345 33.3984 17.9345C33.3845 18.1655 33.3845 18.1655 33.3703 18.4011C33.297 19.4224 33.18 20.4396 33.0698 21.4575C33.0363 21.7669 33.0031 22.0765 32.9699 22.386C32.9049 22.9906 32.8397 23.5952 32.7744 24.1999C32.7213 24.6914 32.6683 25.183 32.6153 25.6746C32.4485 27.2224 32.2814 28.7702 32.1141 30.3179C31.9824 31.5373 31.851 32.7568 31.7199 33.9762C31.5849 35.2307 31.4497 36.485 31.3141 37.7394C31.2381 38.4427 31.1623 39.1461 31.0867 39.8495C31.0224 40.4478 30.9579 41.0462 30.893 41.6445C30.8599 41.9494 30.8269 42.2544 30.7943 42.5594C30.7589 42.8906 30.7229 43.2217 30.6868 43.5528C30.6767 43.6484 30.6666 43.7439 30.6562 43.8424C30.491 45.342 30.491 45.342 30.2327 45.7332C29.9581 45.9021 29.7663 45.9026 29.4444 45.903C29.3858 45.9035 29.3271 45.9041 29.2666 45.9046C29.07 45.9061 28.8736 45.9049 28.677 45.9038C28.536 45.9043 28.3951 45.9049 28.2541 45.9057C27.8713 45.9073 27.4886 45.9067 27.1058 45.9056C26.7054 45.9047 26.3049 45.9055 25.9045 45.9061C25.232 45.9067 24.5596 45.9059 23.8871 45.9042C23.1094 45.9022 22.3318 45.9029 21.5541 45.9048C20.8866 45.9064 20.2191 45.9067 19.5517 45.9057C19.1529 45.9052 18.7542 45.9051 18.3554 45.9063C17.9806 45.9073 17.6057 45.9066 17.2309 45.9045C17.0932 45.9041 16.9556 45.9042 16.8179 45.905C16.6301 45.9059 16.4425 45.9047 16.2547 45.903C16.1496 45.9028 16.0445 45.9027 15.9362 45.9026C15.6692 45.8579 15.6692 45.8579 15.4664 45.7332C15.0617 45.1202 15.084 44.23 15.0084 43.5171C14.9966 43.4095 14.9849 43.3019 14.9728 43.1911C14.9406 42.8948 14.9087 42.5985 14.877 42.3022C14.8426 41.9817 14.8077 41.6613 14.7729 41.3409C14.705 40.7142 14.6374 40.0875 14.57 39.4608C14.4915 38.7307 14.4125 38.0007 14.3336 37.2707C14.1927 35.9685 14.0523 34.6661 13.912 33.3638C13.776 32.1002 13.6396 30.8366 13.5029 29.573C13.3302 27.9766 13.1578 26.38 12.9856 24.7835C12.9307 24.2746 12.8757 23.7657 12.8206 23.2569C12.7536 22.6371 12.6868 22.0173 12.6201 21.3975C12.5861 21.0813 12.5521 20.7651 12.5178 20.4489C12.4807 20.1063 12.4439 19.7638 12.4072 19.4212C12.3963 19.321 12.3854 19.2208 12.3741 19.1175C12.3644 19.0258 12.3546 18.9341 12.3445 18.8396C12.336 18.7605 12.3275 18.6814 12.3187 18.6C12.3008 18.3788 12.3007 18.1564 12.3007 17.9345C11.7741 17.9345 11.2476 17.9345 10.7051 17.9345C10.7051 17.4079 10.7051 16.8814 10.7051 16.3389C11.2024 16.3389 11.6997 16.3389 12.2121 16.3389C12.2066 16.1103 12.2011 15.8818 12.1954 15.6463C12.1775 12.8197 13.2762 10.183 15.1955 8.12179C15.5663 7.75718 15.9651 7.43455 16.3784 7.11968C16.4485 7.06597 16.5185 7.01226 16.5907 6.95693C18.1186 5.83695 20.128 4.9688 22.0518 4.99217C22.049 4.87357 22.049 4.87357 22.0461 4.75257C22.04 4.45568 22.0356 4.15885 22.0323 3.86192C22.0305 3.73407 22.0281 3.60624 22.025 3.47842C22.0037 2.57271 22.0906 1.92922 22.5947 1.15824C23.3004 0.483228 24.0222 0.408276 24.9667 0.427948ZM23.6474 6.5878C23.6474 7.55315 23.6474 8.51851 23.6474 9.51312C24.2617 9.64475 24.2617 9.64475 24.8884 9.77905C26.1098 10.282 26.6832 10.9899 27.1932 12.1725C27.217 12.2537 27.2408 12.335 27.2652 12.4187C27.4195 12.7074 27.601 12.7308 27.9079 12.8263C28.7992 13.1427 29.4451 13.6671 29.9412 14.4773C30.2212 15.0747 30.3606 15.6917 30.4731 16.3389C30.9412 16.3389 31.4092 16.3389 31.8915 16.3389C31.9601 13.8223 31.3311 11.6269 29.6753 9.69041C29.636 9.6383 29.5967 9.58619 29.5562 9.53251C28.2481 7.84151 25.972 6.89219 23.9133 6.5878C23.8256 6.5878 23.7378 6.5878 23.6474 6.5878ZM16.9103 8.80395C16.8582 8.84326 16.8061 8.88257 16.7524 8.92307C15.0685 10.2257 14.1338 12.472 13.8482 14.524C13.7774 15.1305 13.7911 15.729 13.8077 16.3389C14.2757 16.3389 14.7438 16.3389 15.226 16.3389C15.3028 16.0098 15.3028 16.0098 15.3812 15.674C15.6513 14.5801 16.0936 13.7354 17.082 13.1144C17.3757 12.945 17.615 12.8627 17.9463 12.8041C18.1522 12.7567 18.1522 12.7567 18.3286 12.6157C18.4819 12.33 18.6024 12.0476 18.7199 11.7463C19.0736 10.8491 19.6664 10.27 20.5448 9.8677C21.0418 9.69525 21.5327 9.59962 22.0518 9.51312C22.0518 8.54776 22.0518 7.58241 22.0518 6.5878C20.1774 6.5878 18.2942 7.62058 16.9103 8.80395ZM20.4118 11.8567C20.356 11.9224 20.3003 11.9881 20.2428 12.0558C19.9186 12.527 19.8457 13.0507 19.7362 13.6029C19.6583 13.8568 19.6583 13.8568 19.3924 14.0341C19.1921 14.0793 18.9906 14.1194 18.7885 14.1559C18.0901 14.3009 17.6577 14.5434 17.205 15.0912C16.9748 15.4518 16.8216 15.9083 16.8216 16.3389C20.8001 16.3389 24.7785 16.3389 28.8775 16.3389C28.6969 15.4358 28.5685 15.1434 27.9633 14.5382C27.5357 14.2697 27.0891 14.1413 26.5893 14.0839C26.2464 14.0234 26.1658 13.9497 25.9522 13.6795C25.8781 13.3983 25.8781 13.3983 25.8303 13.0811C25.6962 12.3799 25.4445 12.0118 24.9438 11.5243C24.2678 11.0897 23.6454 11.065 22.8606 11.07C22.7613 11.0682 22.662 11.0664 22.5597 11.0646C21.7339 11.0651 20.9614 11.1849 20.4118 11.8567ZM13.8963 17.9345C14.1947 20.9218 14.1947 20.9218 14.5095 23.9074C14.533 24.1252 14.5565 24.3431 14.5799 24.5609C14.6359 25.0796 14.6919 25.5983 14.748 26.1169C14.8137 26.7235 14.8792 27.3302 14.9447 27.9368C15.0615 29.0186 15.1784 30.1004 15.2954 31.1821C15.4086 32.2285 15.5216 33.2749 15.6346 34.3214C15.7585 35.4694 15.8824 36.6174 16.0065 37.7654C16.0197 37.8877 16.033 38.01 16.0462 38.1323C16.0527 38.1924 16.0592 38.2525 16.0659 38.3145C16.1115 38.7364 16.157 39.1584 16.2026 39.5803C16.2637 40.1464 16.3249 40.7124 16.3861 41.2785C16.4086 41.4859 16.431 41.6933 16.4534 41.9008C16.4839 42.1838 16.5145 42.4667 16.5452 42.7497C16.554 42.8317 16.5628 42.9137 16.5719 42.9982C16.5802 43.0744 16.5885 43.1507 16.5971 43.2292C16.6041 43.2944 16.6111 43.3596 16.6184 43.4267C16.6521 43.7058 16.6932 43.984 16.733 44.2623C20.7699 44.2623 24.8069 44.2623 28.9661 44.2623C29.2434 41.7818 29.2434 41.7818 29.5191 39.3012C29.5286 39.2151 29.5382 39.129 29.548 39.0403C29.9489 35.4177 30.3385 31.794 30.7295 28.1703C30.8232 27.3015 30.9172 26.4327 31.0112 25.5639C31.1031 24.7137 31.195 23.8634 31.2867 23.0132C31.341 22.5107 31.3952 22.0083 31.4496 21.5059C31.5 21.04 31.5503 20.5741 31.6005 20.1082C31.6189 19.9376 31.6373 19.767 31.6558 19.5965C31.6809 19.3646 31.7059 19.1328 31.7308 18.9009C31.7382 18.8331 31.7455 18.7653 31.7532 18.6955C31.7804 18.4402 31.8028 18.1914 31.8028 17.9345C25.8937 17.9345 19.9845 17.9345 13.8963 17.9345Z" fill="black"/>
<path d="M25.803 26.4172C26.2465 26.779 26.5508 27.1936 26.8387 27.6852C26.8724 27.7396 26.9061 27.794 26.9409 27.85C27.5431 28.9136 27.5537 30.105 27.292 31.2598C26.9241 32.4746 26.2183 33.3179 25.1544 33.9791C23.9851 34.5511 22.6457 34.7664 21.3759 34.3669C20.1003 33.8581 19.2065 33.0462 18.6057 31.8073C18.0894 30.5886 18.1447 29.332 18.6172 28.1059C19.159 26.95 20.0449 26.1103 21.2301 25.6266C22.8615 25.0678 24.4343 25.4154 25.803 26.4172ZM20.5559 28.0176C20.0301 28.6687 19.7813 29.4646 19.8551 30.2975C19.9784 31.066 20.3116 31.6918 20.8994 32.2062C20.9634 32.2665 21.0274 32.3268 21.0934 32.389C21.8385 32.9023 22.5749 33.0171 23.4702 32.9153C23.7903 32.8339 24.0671 32.7188 24.3566 32.5607C24.4139 32.5297 24.4711 32.4986 24.5301 32.4666C25.1546 32.0747 25.5428 31.3835 25.775 30.6992C25.9654 29.8535 25.7915 29.035 25.3317 28.3057C24.8942 27.6577 24.2546 27.2153 23.4923 27.0315C22.3604 26.8375 21.3497 27.1798 20.5559 28.0176Z" fill="black"/>
</g>
<defs>
<clipPath id="clip0_358_1005">
<rect width="45.3867" height="45.3867" fill="white" transform="translate(0.15625 0.47168)"/>
</clipPath>
</defs>
</svg>
