<svg width="46" height="46" viewBox="0 0 46 46" fill="none" xmlns="http://www.w3.org/2000/svg">
<g clip-path="url(#clip0_358_1016)">
<path d="M21.9363 2.95369C22.4899 3.30374 22.9577 3.77393 23.4139 4.23975C23.4745 4.30078 23.535 4.36181 23.5974 4.4247C23.7884 4.61725 23.9788 4.81039 24.1691 5.00362C24.3604 5.19741 24.5519 5.39106 24.7436 5.58445C24.8622 5.70408 24.9805 5.82394 25.0985 5.94408C25.7442 6.62463 25.7442 6.62463 26.5802 7.0082C26.7147 7.04255 26.7147 7.04255 26.8519 7.07758C26.9465 7.10074 27.0412 7.12389 27.1387 7.14775C31.482 8.29027 35.0428 11.1255 37.3246 14.9697C38.5657 17.1294 39.3941 19.7082 39.4207 22.212C39.4216 22.28 39.4224 22.3481 39.4233 22.4181C39.4632 26.3494 38.5099 29.8088 36.2264 33.0311C35.8192 33.6061 35.8192 33.6061 35.4649 34.2142C35.0672 34.9625 34.5469 35.5172 33.961 36.1232C33.5593 36.5393 33.2004 36.9853 32.8398 37.4369C31.9206 38.5737 30.9721 39.5232 29.6485 40.185C29.0155 40.2462 29.0155 40.2462 28.7122 40.0021C28.5436 39.6576 28.5608 39.4856 28.6734 39.1212C28.9701 38.8551 29.2974 38.644 29.6319 38.4287C30.3673 37.9396 30.9174 37.4258 31.4679 36.7354C31.7094 36.4345 31.9572 36.1399 32.2082 35.8469C32.2752 35.7685 32.2752 35.7685 32.3435 35.6885C32.6063 35.3832 32.8751 35.085 33.1506 34.7912C34.0751 33.8039 34.5479 32.8817 34.5241 31.4977C34.3578 30.1047 33.6022 29.285 32.6348 28.3563C32.4406 28.1687 32.247 27.9804 32.0541 27.7915C32.0072 27.7457 31.9604 27.6998 31.9121 27.6526C31.5378 27.2813 31.2092 26.8868 30.8809 26.474C29.7582 25.0994 27.8577 24.2295 26.1276 23.9877C25.7699 23.957 25.4145 23.9408 25.0556 23.9351C24.9947 23.9335 24.9339 23.9319 24.8712 23.9303C23.5534 23.9323 22.2591 24.4043 21.0138 24.7877C20.723 24.8769 20.4317 24.9645 20.1404 25.052C18.0534 25.6561 18.0534 25.6561 16.5452 27.1478C16.0615 28.0639 15.855 28.9483 16.0857 29.9685C16.2589 30.7825 16.2965 31.5468 15.8662 32.2827C15.4205 32.91 14.8641 33.1171 14.1635 33.4046C13.3781 33.7571 13.0099 34.3357 12.7071 35.1228C12.472 35.9461 12.6031 36.7703 12.9831 37.5256C13.5151 38.428 14.3234 39.0852 15.3329 39.3588C16.0837 39.5264 16.728 39.4969 17.4653 39.3041C19.2769 38.8426 20.938 38.9957 22.7137 39.5094C23.7824 39.8056 24.7623 39.8678 25.8725 39.8218C26.0305 39.8166 26.0305 39.8166 26.1917 39.8113C26.2857 39.8067 26.3797 39.802 26.4765 39.7972C26.7232 39.8304 26.7232 39.8304 26.9306 39.9898C27.0778 40.185 27.0778 40.185 27.1277 40.4897C27.0778 40.8055 27.0778 40.8055 26.895 41.0603C26.1456 41.6024 24.6285 41.42 23.7533 41.3093C23.2157 41.2153 22.6909 41.0707 22.1661 40.9225C20.6294 40.49 19.3063 40.3786 17.7551 40.8079C16.3151 41.1734 14.9377 40.9721 13.6272 40.2757C13.1818 39.9997 12.8152 39.6733 12.4512 39.2985C12.4015 39.2506 12.3518 39.2028 12.3006 39.1534C11.6702 38.4966 11.1235 37.418 11.1209 36.5017C11.1286 36.3386 11.1372 36.1755 11.1467 36.0125C11.204 35.2358 11.204 35.2358 10.9758 34.5137C10.7804 34.3246 10.7804 34.3246 10.5581 34.1622C10.2732 33.9405 10.0785 33.6914 9.86387 33.4036C9.80705 33.3295 9.80705 33.3295 9.74908 33.2539C9.53693 32.9742 9.35561 32.6889 9.18241 32.3841C8.91406 31.9657 8.56975 31.8714 8.11623 31.7061C7.19088 31.3024 6.59899 30.4191 6.20757 29.5222C4.49955 25.0266 5.98183 19.5777 7.84164 15.3641C9.03952 12.7352 10.7506 9.68637 13.3377 8.1838C13.4192 8.13592 13.5006 8.08804 13.5846 8.03871C14.6864 7.43916 15.7268 7.29949 16.9452 7.53904C17.402 7.59527 17.7845 7.45456 18.2132 7.30842C18.3645 7.25823 18.5159 7.20859 18.6675 7.15952C18.7336 7.13714 18.7996 7.11476 18.8677 7.09169C19.1797 7.01059 19.4884 6.97828 19.8088 6.94275C19.8065 6.85517 19.8042 6.76758 19.8018 6.67734C19.7937 6.34958 19.7887 6.02183 19.7845 5.69401C19.7823 5.55265 19.7793 5.41131 19.7754 5.27C19.7372 3.83318 19.7372 3.83318 20.1314 3.33758C20.6331 2.84726 21.278 2.75638 21.9363 2.95369ZM21.2272 4.37202C21.2272 9.60834 21.2272 14.8447 21.2272 20.2396C26.6098 20.2396 31.9923 20.2396 37.538 20.2396C37.3687 19.901 37.2253 19.7279 36.9611 19.465C36.8809 19.385 36.8007 19.3049 36.718 19.2225C36.6761 19.1811 36.6342 19.1397 36.591 19.097C36.465 18.9727 36.3398 18.8476 36.2146 18.7224C35.8699 18.38 35.5246 18.0436 35.1567 17.726C34.797 17.4134 34.4599 17.0828 34.1252 16.7437C34.0347 16.6527 34.0347 16.6527 33.9425 16.56C33.6879 16.304 33.4339 16.0475 33.1798 15.791C32.9928 15.6023 32.8055 15.414 32.6182 15.2256C32.562 15.1687 32.5058 15.1118 32.448 15.0532C32.1167 14.7201 31.7742 14.4074 31.4187 14.1004C31.1333 13.8476 30.8664 13.5772 30.5987 13.3059C30.5112 13.2179 30.5112 13.2179 30.422 13.1282C30.1759 12.8806 29.9304 12.6326 29.6848 12.3846C29.5039 12.2021 29.3227 12.0199 29.1416 11.8377C29.0874 11.7827 29.0331 11.7278 28.9773 11.6711C28.7069 11.3992 28.4318 11.1382 28.1416 10.8875C27.7922 10.5856 27.4657 10.2659 27.1415 9.93732C27.0832 9.87868 27.0249 9.82003 26.9648 9.75961C26.7187 9.51209 26.4732 9.26403 26.2276 9.01602C26.0467 8.83354 25.8656 8.65133 25.6844 8.46913C25.6302 8.41417 25.5759 8.35921 25.5201 8.30258C25.25 8.03097 24.9752 7.77039 24.6851 7.52012C24.3297 7.21303 24 6.88589 23.6719 6.55008C23.5506 6.42724 23.4293 6.30443 23.3079 6.18165C23.1195 5.9905 22.9314 5.79915 22.7436 5.60735C22.5605 5.42052 22.3766 5.23453 22.1926 5.04864C22.1365 4.99093 22.0805 4.93323 22.0227 4.87378C21.97 4.82077 21.9173 4.76776 21.863 4.71315C21.8171 4.6664 21.7712 4.61965 21.7239 4.57148C21.5629 4.43051 21.5629 4.43051 21.2272 4.37202ZM19.0498 8.53838C18.9868 8.55529 18.9238 8.57221 18.8588 8.58963C18.7027 8.63155 18.5466 8.6736 18.3905 8.71567C18.4225 8.78343 18.4545 8.8512 18.4875 8.92101C18.8814 9.83038 19.0123 10.7164 18.7118 11.6853C18.5242 12.1335 18.2529 12.517 17.9769 12.9135C16.3716 15.2708 15.297 18.0818 14.4014 20.7715C14.3666 20.876 14.3317 20.9804 14.2958 21.088C13.4768 23.5695 12.8325 26.12 12.5866 28.7275C12.4914 29.7275 12.2267 30.5881 11.4654 31.2847C11.1905 31.4899 10.9034 31.626 10.5897 31.7636C10.7258 32.2141 11.004 32.5104 11.3099 32.8551C11.3598 32.9123 11.4098 32.9694 11.4612 33.0284C11.5839 33.1687 11.7072 33.3083 11.8307 33.4479C12.128 33.1521 12.128 33.1521 12.4194 32.8506C12.8718 32.408 13.389 32.174 13.9668 31.9346C14.358 31.766 14.5861 31.6461 14.756 31.2317C14.7917 30.868 14.7468 30.554 14.6674 30.2012C14.3937 28.8845 14.641 27.4046 15.3765 26.2676C16.3027 24.9481 17.5156 24.367 19.0214 23.9039C19.1117 23.8756 19.2021 23.8474 19.2951 23.8183C19.4847 23.7591 19.6744 23.7003 19.8641 23.6418C20.1512 23.5531 20.438 23.4633 20.7247 23.3734C23.7524 22.4291 26.6021 22.1162 29.5211 23.6193C30.6731 24.2357 31.6715 25.0631 32.48 26.0885C32.7845 26.4624 33.1022 26.8054 33.4499 27.1391C33.495 27.1826 33.5401 27.2261 33.5865 27.2709C33.7713 27.4485 33.9566 27.6257 34.144 27.8006C35.0151 28.617 35.6367 29.4942 35.8537 30.6999C35.9123 30.6999 35.9708 30.6999 36.031 30.6999C36.7588 29.2942 37.3429 27.8977 37.7153 26.3562C37.7439 26.2427 37.7724 26.1293 37.8019 26.0124C38.0148 25.0511 37.9939 24.0875 37.9878 23.1089C37.9873 22.9592 37.9868 22.8096 37.9864 22.6599C37.9852 22.2964 37.9834 21.9329 37.9812 21.5693C37.8936 21.5697 37.806 21.57 37.7158 21.5703C35.5843 21.5782 33.4528 21.584 31.3213 21.5877C30.2905 21.5895 29.2598 21.592 28.229 21.5961C27.3306 21.5996 26.4322 21.6019 25.5338 21.6027C25.0581 21.6032 24.5824 21.6042 24.1066 21.6068C23.6588 21.6092 23.211 21.61 22.7632 21.6094C22.5989 21.6095 22.4346 21.6102 22.2703 21.6116C22.0458 21.6134 21.8213 21.6129 21.5967 21.612C21.532 21.613 21.4672 21.614 21.4005 21.6151C20.9138 21.6095 20.6453 21.4804 20.2521 21.2147C19.9343 20.8652 19.8864 20.5601 19.8835 20.0978C19.8826 19.9945 19.8817 19.8912 19.8808 19.7848C19.8803 19.6714 19.8798 19.5579 19.8793 19.4411C19.8784 19.3205 19.8775 19.1999 19.8766 19.0794C19.8742 18.7519 19.8724 18.4245 19.8706 18.097C19.8687 17.7549 19.8662 17.4127 19.8639 17.0706C19.8594 16.4226 19.8554 15.7746 19.8516 15.1266C19.8472 14.389 19.8424 13.6513 19.8375 12.9136C19.8274 11.3961 19.8179 9.87861 19.8088 8.36109C19.5593 8.36109 19.2918 8.47308 19.0498 8.53838ZM13.4956 9.83483C13.2273 10.0736 12.9723 10.3246 12.7172 10.5772C12.6556 10.6335 12.594 10.6897 12.5305 10.7476C11.5428 11.6682 10.7995 12.8626 10.1464 14.0344C10.1091 14.1002 10.0718 14.1661 10.0333 14.2339C7.77408 18.2459 6.04372 23.7944 7.31565 28.4058C7.57845 29.2115 7.98983 29.9725 8.7281 30.4339C9.1918 30.6177 9.58074 30.6559 10.0578 30.5226C10.5471 30.2635 10.9272 29.91 11.1293 29.3864C11.2085 29.1102 11.2534 28.8521 11.2857 28.5668C11.2971 28.4669 11.3085 28.3671 11.3203 28.2642C11.3315 28.1611 11.3427 28.058 11.3542 27.9518C11.3661 27.8488 11.378 27.7457 11.3902 27.6395C11.4419 27.179 11.4826 26.7314 11.4761 26.2676C11.3981 26.2397 11.32 26.2118 11.2396 26.1831C11.1367 26.1451 11.0337 26.1072 10.9276 26.0681C10.8258 26.0311 10.724 25.9941 10.6191 25.9559C10.2336 25.7842 9.96754 25.5898 9.71982 25.2481C9.52408 24.6712 9.50637 24.0388 9.7586 23.4752C9.99549 23.0697 10.3265 22.8685 10.767 22.7217C11.3058 22.6926 11.8317 22.716 12.3626 22.8104C12.4098 22.6556 12.4557 22.5004 12.5011 22.345C12.5268 22.2586 12.5525 22.1722 12.579 22.0832C12.6522 21.7667 12.6522 21.7667 12.5399 21.4807C12.3106 21.3773 12.0967 21.2956 11.8584 21.2203C11.2312 21.02 10.7671 20.8131 10.4234 20.2175C10.2627 19.6818 10.2347 19.2284 10.4678 18.7105C10.7043 18.2887 11.0108 18.0013 11.4761 17.8462C12.1694 17.78 12.734 17.8752 13.3824 18.1232C13.6064 18.2154 13.6064 18.2154 13.8696 18.2008C13.9438 18.0274 14.0176 17.8537 14.0912 17.68C14.1323 17.5833 14.1734 17.4866 14.2158 17.387C14.3235 17.1542 14.3235 17.1542 14.3128 16.9597C14.2341 16.9275 14.2341 16.9275 14.1538 16.8946C13.6465 16.6794 13.2423 16.4859 12.9111 16.029C12.7159 15.4536 12.6991 14.8205 12.9443 14.256C13.1981 13.8201 13.5777 13.6589 14.0469 13.5026C14.5638 13.4486 14.9874 13.5235 15.47 13.7103C15.6541 13.7827 15.6541 13.7827 15.9084 13.7685C15.932 13.7253 15.9556 13.682 15.9799 13.6375C16.3996 12.8707 16.8178 12.1092 17.3022 11.3809C17.548 10.9832 17.5562 10.5874 17.504 10.134C17.3445 9.62246 17.0741 9.26908 16.6176 8.98161C15.4709 8.57333 14.3866 9.07921 13.4956 9.83483ZM28.3188 9.07026C28.6274 9.45597 28.9535 9.79016 29.3216 10.1198C29.9783 10.7145 30.5991 11.3438 31.222 11.9734C31.4447 12.1985 31.6678 12.4233 31.891 12.648C31.9402 12.6979 31.9895 12.7479 32.0402 12.7994C32.297 13.0578 32.5595 13.3042 32.8354 13.5423C33.1937 13.8522 33.5273 14.1817 33.8592 14.5196C33.9829 14.6444 34.1067 14.7692 34.2304 14.8941C34.422 15.0878 34.6134 15.2817 34.8045 15.4758C34.9914 15.6653 35.1787 15.8543 35.3662 16.0432C35.4224 16.1005 35.4785 16.1579 35.5364 16.217C35.9114 16.594 36.3066 16.918 36.7402 17.2257C36.5283 15.5934 34.966 13.8795 33.8546 12.7472C33.7294 12.6193 33.6063 12.4894 33.4832 12.3595C32.0868 10.9126 30.3477 9.83952 28.4961 9.07026C28.4376 9.07026 28.3791 9.07026 28.3188 9.07026ZM14.3128 14.8322C14.2543 14.8907 14.1958 14.9493 14.1355 15.0095C14.1291 15.236 14.1291 15.236 14.2241 15.4528C14.4621 15.5943 14.5977 15.6413 14.8724 15.5968C14.9217 15.5785 14.9711 15.5602 15.022 15.5414C15.0512 15.3659 15.0805 15.1904 15.1106 15.0095C14.9817 14.975 14.8523 14.9421 14.7228 14.9098C14.6508 14.8913 14.5788 14.8728 14.5046 14.8537C14.4097 14.8431 14.4097 14.8431 14.3128 14.8322ZM11.6534 19.3532C11.6421 19.5339 11.6421 19.5339 11.7421 19.7078C11.9744 19.8488 11.9744 19.8488 12.2573 19.9515C12.3511 19.9895 12.4449 20.0274 12.5416 20.0665C12.8159 20.169 12.8159 20.169 13.1604 20.151C13.2189 19.9755 13.2774 19.8 13.3377 19.6191C13.1701 19.5443 13.0019 19.4706 12.8335 19.3975C12.7399 19.3564 12.6463 19.3152 12.5499 19.2728C12.1818 19.1435 11.9422 19.0644 11.6534 19.3532ZM11.1215 24.0514C11.063 24.1099 11.0045 24.1684 10.9442 24.2287C10.9726 24.4594 10.9726 24.4594 11.0329 24.6719C11.2962 24.7597 11.5594 24.8475 11.8307 24.9379C11.86 24.7038 11.8892 24.4698 11.9193 24.2287C11.6205 24.0959 11.458 24.0514 11.1215 24.0514Z" fill="black"/>
<path d="M22.9222 0.443552C23.0103 0.443743 23.0984 0.443934 23.1892 0.44413C24.4718 0.448593 25.7289 0.474931 26.9888 0.737191C27.0753 0.754803 27.1619 0.772415 27.251 0.790561C31.5099 1.68157 35.4274 3.59603 38.5571 6.64074C38.74 6.81184 38.9376 6.96349 39.1333 7.1197C39.2306 7.22205 39.325 7.32735 39.4158 7.4355C39.5899 7.64027 39.765 7.84067 39.9501 8.03559C41.0692 9.21634 41.961 10.5876 42.7678 11.9952C42.8058 12.0616 42.8438 12.1279 42.883 12.1962C44.0386 14.2387 44.8076 16.475 45.2775 18.7711C45.2906 18.8348 45.3037 18.8986 45.3171 18.9642C45.5807 20.3512 45.6375 21.7228 45.6321 23.1314C45.6319 23.2216 45.6317 23.3118 45.6315 23.4048C45.6271 24.6998 45.6049 25.9703 45.3385 27.2423C45.3121 27.3719 45.3121 27.3719 45.2851 27.5042C44.4118 31.6793 42.5514 35.5003 39.6215 38.6139C39.4644 38.7843 39.3159 38.9539 39.1696 39.133C38.9969 39.3382 38.8334 39.509 38.6291 39.6805C38.3623 39.9071 38.1041 40.14 37.8479 40.3785C34.8998 43.026 31.1667 44.7405 27.3046 45.5311C27.2409 45.5441 27.1771 45.5572 27.1115 45.5707C25.8105 45.8179 24.5229 45.8889 23.2012 45.886C22.9406 45.8857 22.6801 45.8878 22.4195 45.89C21.2341 45.894 20.0909 45.7871 18.922 45.592C18.7708 45.567 18.7708 45.567 18.6166 45.5415C18.3865 45.5002 18.1585 45.4542 17.9303 45.4037C17.8072 45.3764 17.8072 45.3764 17.6815 45.3487C14.7407 44.6649 11.9593 43.3855 9.52554 41.603C9.47475 41.5661 9.42395 41.5292 9.37162 41.4912C8.70131 41.0015 8.08623 40.4681 7.48426 39.8976C7.30786 39.7309 7.12715 39.5733 6.93922 39.4197C6.73684 39.2498 6.56935 39.0896 6.40077 38.8882C6.22869 38.6853 6.05561 38.4869 5.87236 38.294C2.4307 34.663 0.240234 29.3161 0.196595 24.309C0.195298 24.1848 0.195298 24.1848 0.193976 24.0581C0.178997 22.2513 0.195346 20.5071 0.572301 18.7323C0.588427 18.6518 0.604554 18.5714 0.621169 18.4884C1.29216 15.1797 2.71892 12.1192 4.73866 9.42449C4.80574 9.33479 4.87281 9.24509 4.94192 9.15267C5.35198 8.64585 5.35198 8.64585 5.78025 8.56019C6.23146 8.66432 6.23146 8.66432 6.42293 8.89262C6.52266 9.16963 6.52266 9.16963 6.51158 9.51314C6.37227 9.80632 6.1758 10.0534 5.9797 10.311C3.88498 13.153 2.45087 16.3835 1.90199 19.8847C1.88581 19.9877 1.86962 20.0906 1.85295 20.1967C1.71371 21.1807 1.68919 22.1551 1.69146 23.148C1.69153 23.2316 1.69161 23.3152 1.69169 23.4014C1.69595 24.7976 1.77705 26.1403 2.07928 27.5083C2.10021 27.603 2.12113 27.6977 2.14269 27.7954C2.7879 30.6037 3.97322 33.3573 5.71376 35.6637C5.75326 35.7167 5.79275 35.7697 5.83345 35.8244C6.42479 36.6142 7.06898 37.3463 7.75262 38.0571C7.79423 38.1007 7.83584 38.1442 7.87871 38.1891C9.13005 39.493 10.6094 40.6264 12.1849 41.5143C12.2548 41.5537 12.3246 41.5931 12.3966 41.6337C17.3941 44.4176 23.1794 45.171 28.7056 43.6397C31.0924 42.9413 33.4209 41.8631 35.4101 40.3619C35.4632 40.3224 35.5162 40.2829 35.5708 40.2422C36.3607 39.6509 37.0928 39.0067 37.8036 38.3231C37.8689 38.2606 37.8689 38.2606 37.9356 38.197C39.2395 36.9456 40.3729 35.4663 41.2608 33.8908C41.3002 33.8209 41.3396 33.751 41.3802 33.6791C42.9946 30.7808 44.087 27.5328 44.1186 24.1899C44.1194 24.113 44.1203 24.0362 44.1212 23.957C44.1369 22.2164 44.1202 20.5287 43.7429 18.821C43.7219 18.7262 43.701 18.6315 43.6795 18.5339C43.0342 15.7255 41.8489 12.9719 40.1084 10.6655C40.0689 10.6125 40.0294 10.5595 39.9887 10.5049C39.3974 9.71498 38.7532 8.98293 38.0695 8.27209C38.0279 8.22854 37.9863 8.18499 37.9434 8.14012C34.1791 4.21759 28.706 2.00826 23.3069 1.89236C20.4115 1.8637 17.5262 2.38611 14.8443 3.48521C14.7783 3.51193 14.7124 3.53864 14.6444 3.56616C12.5456 4.42589 10.6087 5.66115 8.91644 7.16921C8.83223 7.24246 8.74801 7.31571 8.66124 7.39118C8.54948 7.49145 8.54948 7.49145 8.43547 7.59375C8.12884 7.78118 7.92881 7.77636 7.57533 7.74022C7.35925 7.60725 7.35925 7.60725 7.22074 7.38563C7.16067 7.08528 7.13888 6.95887 7.22074 6.67647C7.41538 6.39151 7.6649 6.18594 7.92991 5.9673C7.97459 5.93038 8.01927 5.89345 8.0653 5.85541C9.22408 4.9054 10.438 4.04684 11.7417 3.30792C11.8336 3.25515 11.8336 3.25515 11.9274 3.20131C15.2865 1.28974 19.0812 0.428563 22.9222 0.443552Z" fill="black"/>
<path d="M28.2149 28.1318C29.1552 28.9264 29.8148 30.0074 30.0031 31.2313C30.1227 32.8855 29.8329 34.2225 28.7343 35.5085C27.838 36.4647 26.651 37.0207 25.3457 37.1014C23.9865 37.1346 22.7736 36.8054 21.7313 35.9019C20.6452 34.8593 20.076 33.689 19.9896 32.1787C19.9746 30.763 20.506 29.4937 21.4709 28.4667C23.3562 26.6705 26.1506 26.6463 28.2149 28.1318ZM22.089 29.9591C21.5285 30.7242 21.3309 31.6448 21.4456 32.579C21.6548 33.6722 22.1994 34.4735 23.0887 35.1318C23.9414 35.6551 24.8713 35.8143 25.8537 35.6027C26.8488 35.2977 27.6869 34.7517 28.1865 33.8183C28.6222 32.8836 28.782 31.8891 28.4407 30.8878C28.0128 29.8848 27.3656 29.135 26.3409 28.7105C24.7472 28.123 23.159 28.687 22.089 29.9591Z" fill="black"/>
<path d="M28.0534 13.1478C28.3381 13.3582 28.4714 13.4965 28.5631 13.8403C28.3853 14.5961 27.4962 15.2452 26.9593 15.7945C26.8645 15.8922 26.7704 15.9905 26.677 16.0895C26.5401 16.2345 26.4011 16.3769 26.2614 16.5191C26.2205 16.5634 26.1796 16.6077 26.1374 16.6534C25.8926 16.8967 25.7134 16.9881 25.3758 16.9957C25.0394 16.9595 25.0394 16.9595 24.8178 16.821C24.6245 16.5069 24.6181 16.3487 24.6848 15.9844C25.1054 15.3814 25.6932 14.8737 26.2135 14.3555C26.3541 14.2155 26.4941 14.0749 26.6342 13.9343C26.7237 13.8449 26.8132 13.7555 26.9027 13.6661C27.0235 13.5455 27.0235 13.5455 27.1468 13.4224C27.4496 13.1372 27.6393 13.099 28.0534 13.1478Z" fill="black"/>
<path d="M30.2696 15.3641C30.5543 15.5745 30.6877 15.7128 30.7793 16.0566C30.6017 16.8116 29.725 17.4295 29.1842 17.9681C29.0436 18.1081 28.9035 18.2487 28.7635 18.3893C28.674 18.4787 28.5845 18.5681 28.495 18.6575C28.4144 18.7379 28.3339 18.8184 28.2509 18.9012C27.9995 19.138 27.9249 19.1713 27.577 19.2036C27.2557 19.1758 27.2557 19.1758 27.0396 19.0373C26.8389 18.7242 26.8338 18.5676 26.9011 18.2007C27.3216 17.5977 27.9095 17.09 28.4298 16.5719C28.5703 16.4318 28.7104 16.2912 28.8504 16.1506C28.9399 16.0612 29.0294 15.9718 29.119 15.8824C29.2398 15.7618 29.2398 15.7618 29.363 15.6387C29.6658 15.3535 29.8555 15.3154 30.2696 15.3641Z" fill="black"/>
<path d="M26.0139 11.021C26.2313 11.2104 26.2716 11.3395 26.3352 11.6193C26.2506 12.0593 25.9595 12.294 25.6593 12.6166C25.5804 12.7014 25.5015 12.7861 25.4203 12.8735C25.197 13.1113 24.9705 13.3458 24.7425 13.5791C24.6477 13.6767 24.5536 13.7751 24.4602 13.8741C24.3233 14.019 24.1843 14.1615 24.0446 14.3037C24.0037 14.348 23.9628 14.3923 23.9206 14.4379C23.6758 14.6813 23.4966 14.7726 23.159 14.7803C22.8226 14.7441 22.8226 14.7441 22.601 14.6056C22.4077 14.2915 22.4013 14.1333 22.468 13.769C22.8884 13.1674 23.4734 12.6585 23.9919 12.1401C24.1316 12.0002 24.2706 11.8596 24.4096 11.7189C24.4988 11.6295 24.588 11.5401 24.6773 11.4507C24.7573 11.3703 24.8374 11.2898 24.9199 11.207C25.2827 10.8818 25.5551 10.9145 26.0139 11.021Z" fill="black"/>
</g>
<defs>
<clipPath id="clip0_358_1016">
<rect width="45.3867" height="45.3867" fill="white" transform="translate(0.21875 0.47168)"/>
</clipPath>
</defs>
</svg>
