<svg width="46" height="46" viewBox="0 0 46 46" fill="none" xmlns="http://www.w3.org/2000/svg">
<g clip-path="url(#clip0_358_1008)">
<path d="M23.9492 16.0282C24.0216 16.0276 24.0941 16.0271 24.1687 16.0265C24.4118 16.0251 24.6548 16.0262 24.8979 16.0273C25.0721 16.0268 25.2462 16.0262 25.4204 16.0254C25.8937 16.0238 26.3669 16.0245 26.8402 16.0256C27.335 16.0265 27.8298 16.0256 28.3247 16.0251C29.1557 16.0244 29.9868 16.0253 30.8178 16.027C31.7792 16.0289 32.7406 16.0283 33.7019 16.0263C34.5267 16.0247 35.3515 16.0245 36.1763 16.0254C36.6692 16.026 37.1621 16.026 37.655 16.0249C38.1183 16.0239 38.5816 16.0246 39.045 16.0266C39.2152 16.0271 39.3855 16.0269 39.5557 16.0262C39.7878 16.0252 40.0197 16.0264 40.2517 16.0282C40.3194 16.0274 40.3871 16.0266 40.4569 16.0258C40.7613 16.0303 40.9351 16.0515 41.1844 16.2325C41.3879 16.5264 41.3635 16.8164 41.3542 17.1605C41.3537 17.2308 41.3532 17.3012 41.3527 17.3736C41.3507 17.5977 41.3463 17.8216 41.3418 18.0456C41.34 18.1977 41.3384 18.3498 41.3369 18.502C41.333 18.8744 41.3269 19.2467 41.3196 19.619C41.4222 19.6174 41.5248 19.6158 41.6306 19.6142C41.767 19.6129 41.9034 19.6116 42.0399 19.6104C42.1073 19.6092 42.1747 19.6081 42.2442 19.6069C43.1941 19.6005 43.9149 19.9406 44.5995 20.5941C45.4159 21.4493 45.6286 22.3634 45.6205 23.5202C45.6214 23.6866 45.6214 23.6866 45.6224 23.8564C45.6237 24.1579 45.6234 24.4594 45.6222 24.7608C45.6213 25.0782 45.6222 25.3955 45.6227 25.7128C45.6234 26.2454 45.6225 26.778 45.6208 27.3106C45.6189 27.9241 45.6195 28.5376 45.6215 29.151C45.6231 29.6802 45.6233 30.2094 45.6224 30.7386C45.6218 31.0536 45.6218 31.3686 45.6229 31.6835C45.6242 32.035 45.6225 32.3865 45.6205 32.7379C45.6212 32.8407 45.6219 32.9434 45.6227 33.0492C45.612 34.0844 45.3191 34.9102 44.5995 35.664C43.7657 36.4599 42.9301 36.679 41.8059 36.6572C41.6438 36.6524 41.4817 36.6459 41.3196 36.6391C41.3224 36.7321 41.3224 36.7321 41.3252 36.827C41.3327 37.1134 41.3372 37.3998 41.3418 37.6862C41.3447 37.7837 41.3477 37.8812 41.3508 37.9817C41.36 38.768 41.2287 39.4347 40.7877 40.0962C40.8425 40.0966 40.8972 40.0969 40.9536 40.0972C41.5231 40.1009 42.0925 40.1071 42.6619 40.1146C42.8745 40.1171 43.087 40.119 43.2996 40.1203C43.605 40.1222 43.9104 40.1263 44.2158 40.1309C44.3585 40.131 44.3585 40.131 44.5041 40.1312C44.5928 40.133 44.6815 40.1347 44.7729 40.1365C44.8509 40.1373 44.9288 40.1381 45.0091 40.1389C45.2904 40.2002 45.3979 40.3164 45.5746 40.5395C45.786 41.8327 45.2863 43.0275 44.5701 44.0819C43.8408 45.0107 42.7104 45.5757 41.5855 45.8582C41.3668 45.8738 41.1473 45.8808 40.9279 45.881C40.8644 45.8813 40.8008 45.8817 40.7353 45.882C40.5229 45.8828 40.3104 45.8824 40.0979 45.8819C39.9438 45.8823 39.7897 45.8827 39.6357 45.8832C39.2126 45.8842 38.7895 45.8842 38.3665 45.884C37.9101 45.884 37.4537 45.885 36.9972 45.8858C36.1031 45.8873 35.209 45.8878 34.3149 45.8878C33.588 45.8879 32.8612 45.8883 32.1343 45.8889C30.0733 45.8904 28.0122 45.8912 25.9512 45.8911C25.7845 45.8911 25.7845 45.8911 25.6145 45.8911C25.5033 45.8911 25.392 45.8911 25.2774 45.8911C23.4748 45.891 21.6721 45.8927 19.8695 45.8952C18.0183 45.8977 16.1671 45.899 14.316 45.8988C13.2768 45.8987 12.2376 45.8992 11.1984 45.9011C10.3135 45.9028 9.42868 45.9031 8.54382 45.9019C8.09251 45.9014 7.64123 45.9013 7.18992 45.9029C6.77635 45.9043 6.36282 45.904 5.94925 45.9025C5.80006 45.9022 5.65086 45.9025 5.50167 45.9035C4.08752 45.9123 2.73927 45.5881 1.66683 44.6006C0.79104 43.6577 0.16784 42.4917 0.154655 41.1877C0.150884 41.0172 0.150884 41.0172 0.147037 40.8432C0.187897 40.5395 0.187897 40.5395 0.311863 40.3272C0.662388 40.1109 1.02379 40.1117 1.42894 40.0962C1.39135 40.0489 1.35375 40.0016 1.31502 39.9529C1.14435 39.7361 0.976397 39.5173 0.808419 39.2984C0.719631 39.1868 0.719631 39.1868 0.629049 39.073C0.148585 38.4406 0.148585 38.4406 0.126953 38.0242C0.187897 37.7028 0.187897 37.7028 0.330562 37.4826C0.603586 37.3095 0.775761 37.3121 1.09652 37.3261C1.19205 37.3293 1.28758 37.3325 1.386 37.3358C1.45868 37.3399 1.53135 37.344 1.60623 37.3482C1.6016 37.1748 1.6016 37.1748 1.59688 36.9978C1.58244 36.208 1.57107 35.4844 1.82265 34.7252C1.93621 34.2353 1.689 33.8678 1.46218 33.4478C0.565953 31.7149 0.171637 29.9399 0.154655 28.0016C0.15278 27.844 0.15278 27.844 0.150868 27.6832C0.159153 26.1941 0.741561 25.0968 1.78352 24.0513C1.84249 23.9903 1.90145 23.9293 1.9622 23.8664C3.65718 22.2297 6.07965 21.7671 8.34332 21.6579C8.0575 21.3144 7.85644 21.1661 7.40568 21.1141C7.3403 21.1089 7.27491 21.1037 7.20755 21.0983C6.89216 21.0682 6.89216 21.0682 6.5704 21.0374C6.5704 20.5693 6.5704 20.1013 6.5704 19.619C8.25508 19.57 8.25508 19.57 8.96384 19.885C8.99504 19.841 9.02623 19.797 9.05838 19.7517C9.20027 19.5564 9.34671 19.3657 9.49572 19.1758C9.53651 19.1229 9.57731 19.07 9.61934 19.0155C10.4412 18.0765 11.8526 17.67 13.0416 17.4915C14.8633 17.3783 16.7917 17.4265 18.449 18.2894C18.6738 18.6266 18.6958 18.8753 18.6262 19.2645C18.1199 20.6633 16.7741 21.6095 15.4942 22.2486C15.2692 22.352 15.0438 22.4512 14.8145 22.5444C14.8874 22.5809 14.9603 22.6175 15.0354 22.6552C16.6286 23.4794 17.9149 24.635 18.5376 26.3561C18.6425 26.7473 18.6365 27.1343 18.6318 27.5362C18.6314 27.6019 18.631 27.6675 18.6306 27.7352C18.6295 27.896 18.6279 28.0569 18.6262 28.2177C18.1141 28.2284 17.6264 28.2028 17.1193 28.1291C17.118 28.0582 17.1168 27.9874 17.1155 27.9144C17.0581 26.5941 16.5861 25.7676 15.6303 24.8782C13.3901 23.0345 10.0988 23.0836 7.36822 23.3145C5.47775 23.504 3.6435 24.2158 2.38569 25.6896C1.58503 26.8147 1.6185 28.0891 1.81434 29.3989C2.00537 30.5242 2.31324 31.6353 2.84727 32.65C2.91275 32.5804 2.97823 32.5108 3.04569 32.4391C4.42104 31.0039 5.9954 30.2704 7.98874 30.1679C8.00714 30.1068 8.02553 30.0456 8.04449 29.9826C8.38172 28.954 8.98844 28.1721 9.9631 27.6709C10.652 27.3912 11.3127 27.3653 12.0445 27.3737C12.2435 27.3756 12.4422 27.3737 12.6413 27.3714C13.7799 27.3691 14.682 27.5915 15.5236 28.395C16.0347 28.9304 16.2765 29.4655 16.4987 30.1679C16.8498 30.1972 17.2008 30.2264 17.5625 30.2566C17.621 30.1395 17.6795 30.0225 17.7398 29.902C18.8466 28.4425 20.3354 27.6415 22.1302 27.3731C23.7384 27.2121 25.4482 27.5996 26.7473 28.5929C27.7742 29.4391 28.5446 30.4184 28.9978 31.6749C29.0229 31.7436 29.048 31.8124 29.0739 31.8832C29.3601 32.8166 29.2927 33.7901 29.2804 34.7553C29.279 34.9384 29.2778 35.1215 29.2767 35.3045C29.2738 35.7494 29.2693 36.1942 29.2638 36.6391C28.7957 36.6391 28.3277 36.6391 27.8454 36.6391C27.8411 36.4487 27.8367 36.2583 27.8323 36.0622C27.8274 35.8732 27.8224 35.6842 27.8173 35.4953C27.8139 35.3662 27.8108 35.2371 27.808 35.108C27.7673 33.2652 27.5737 31.5823 26.2082 30.2147C25.1731 29.3028 23.8926 28.8624 22.5188 28.9369C21.3154 29.0535 20.2724 29.5498 19.3777 30.3632C19.2186 30.5224 19.2186 30.5224 19.2468 30.7884C19.3048 30.8155 19.3629 30.8426 19.4227 30.8705C21.0649 31.6939 22.079 33.0872 22.713 34.7709C22.8873 35.3468 22.893 35.9009 22.8871 36.4967C22.8865 36.6198 22.8865 36.6198 22.8859 36.7453C22.8847 36.9463 22.8832 37.1473 22.8813 37.3482C22.9738 37.3474 23.0663 37.3467 23.1616 37.3458C24.0329 37.3387 24.9042 37.3333 25.7755 37.3299C26.2235 37.328 26.6714 37.3255 27.1194 37.3215C27.5516 37.3176 27.9838 37.3155 28.4161 37.3146C28.581 37.3139 28.746 37.3126 28.911 37.3107C29.1419 37.3082 29.3728 37.3078 29.6037 37.308C29.6721 37.3067 29.7404 37.3054 29.8108 37.3041C30.1244 37.3065 30.2939 37.3222 30.5454 37.5171C30.6877 37.7104 30.7523 37.8189 30.7707 38.0574C30.6336 38.5957 30.3414 39.101 30.092 39.5955C30.0634 39.6525 30.0349 39.7094 30.0054 39.7681C29.9356 39.9071 29.8656 40.046 29.7956 40.1849C30.8221 40.1774 31.8485 40.169 32.875 40.1594C33.3516 40.155 33.8283 40.1509 34.305 40.1475C34.7654 40.1442 35.2257 40.1401 35.6861 40.1354C35.8614 40.1338 36.0366 40.1324 36.2119 40.1314C36.4582 40.1299 36.7045 40.1273 36.9508 40.1245C37.0226 40.1243 37.0943 40.1241 37.1682 40.1239C37.9472 40.1126 38.6567 40.0149 39.2281 39.4387C39.8121 38.7783 39.8257 38.0521 39.8266 37.2127C39.8273 37.086 39.8273 37.086 39.828 36.9568C39.8293 36.6742 39.8301 36.3917 39.8308 36.1091C39.8317 35.9064 39.8326 35.7037 39.8335 35.501C39.8359 34.9509 39.8377 34.4008 39.8395 33.8506C39.8415 33.2756 39.8439 32.7007 39.8463 32.1257C39.8502 31.1606 39.8538 30.1956 39.8572 29.2306C39.8607 28.2367 39.8643 27.2429 39.8683 26.249C39.8686 26.1561 39.8686 26.1561 39.869 26.0614C39.8711 25.5228 39.8733 24.9842 39.8754 24.4456C39.8846 22.1276 39.8928 19.8096 39.9013 17.4915C34.7527 17.4915 29.6042 17.4915 24.2996 17.4915C24.2996 20.2998 24.2996 23.1081 24.2996 26.0015C23.8315 26.0015 23.3635 26.0015 22.8813 26.0015C22.873 24.7594 22.8667 23.5173 22.8629 22.2751C22.861 21.6984 22.8585 21.1216 22.8545 20.5449C22.8507 19.9885 22.8485 19.4322 22.8476 18.8758C22.847 18.6633 22.8457 18.4508 22.8438 18.2383C22.8412 17.9411 22.8408 17.6441 22.841 17.3469C22.8397 17.2586 22.8384 17.1704 22.8371 17.0795C22.8376 16.9984 22.8381 16.9174 22.8386 16.8339C22.8383 16.7636 22.838 16.6933 22.8376 16.6209C22.9707 16.032 23.4329 16.0221 23.9492 16.0282ZM11.5346 19.4736C11.0491 19.7489 10.719 20.0623 10.3822 20.5055C10.4114 20.564 10.4407 20.6225 10.4708 20.6828C10.5409 20.6345 10.6109 20.5861 10.6831 20.5363C11.5445 19.9558 12.4497 19.5121 13.3961 19.0872C12.8319 18.8991 12.0676 19.2321 11.5346 19.4736ZM15.2355 19.9958C15.1138 20.0304 15.1138 20.0304 14.9896 20.0657C13.3003 20.5742 13.3003 20.5742 11.8892 21.5693C13.5077 21.5349 15.1001 20.9525 16.3215 19.885C15.9264 19.7533 15.6282 19.8842 15.2355 19.9958ZM41.3196 21.0374C41.3196 25.7179 41.3196 30.3984 41.3196 35.2207C42.1163 35.2207 42.7268 35.2082 43.3585 34.6888C44.1162 33.9257 44.1696 33.1721 44.1692 32.1341C44.1694 32.0385 44.1697 31.9428 44.1701 31.8443C44.1709 31.5287 44.1711 31.2131 44.1712 30.8975C44.1714 30.6776 44.1717 30.4577 44.1721 30.2377C44.1726 29.7768 44.1728 29.316 44.1727 28.8551C44.1727 28.2655 44.1739 27.6759 44.1754 27.0863C44.1764 26.6321 44.1766 26.1779 44.1765 25.7236C44.1767 25.5063 44.177 25.289 44.1777 25.0717C44.1786 24.7672 44.1783 24.4628 44.1778 24.1584C44.1783 24.0693 44.1788 23.9801 44.1793 23.8883C44.1757 23.0796 44.0982 22.2805 43.5358 21.6579C42.8086 21.091 42.2349 21.0374 41.3196 21.0374ZM10.0574 29.5218C9.83928 29.7667 9.68925 29.9419 9.58436 30.2566C11.3396 30.2566 13.0947 30.2566 14.9031 30.2566C14.6058 29.662 14.2852 29.2912 13.6953 28.9823C12.5409 28.6785 10.9454 28.6087 10.0574 29.5218ZM8.34678 33.0759C7.71133 33.7601 7.35554 34.6093 7.3516 35.5421C7.35708 35.67 7.36257 35.798 7.36822 35.9299C6.87091 35.9299 6.37361 35.9299 5.86124 35.9299C6.02107 34.2734 6.48567 33.0689 7.54551 31.7635C6.19937 31.832 5.10712 32.4626 4.20882 33.4353C3.72723 34.0381 3.43041 34.6634 3.20186 35.398C3.17478 35.4799 3.17478 35.4799 3.14715 35.5635C3.09301 35.8651 3.10049 36.1675 3.10213 36.4728C3.10179 36.5374 3.10145 36.602 3.10109 36.6685C3.0948 37.0198 3.0948 37.0198 3.20186 37.3482C9.1695 37.3482 15.1371 37.3482 21.2856 37.3482C21.5788 36.7619 21.4052 35.7512 21.2358 35.1487C21.0379 34.5843 20.7503 34.1067 20.3992 33.6251C20.3603 33.5689 20.3215 33.5127 20.2814 33.4547C19.6712 32.6534 18.6915 32.1189 17.7398 31.8522C17.6484 31.8211 17.557 31.79 17.4628 31.758C16.6939 31.7747 16.0243 32.484 15.5236 33.0046C14.779 33.897 14.4599 34.7743 14.4599 35.9299C13.9626 35.9299 13.4653 35.9299 12.9529 35.9299C13.1032 34.3587 13.5449 32.9551 14.6372 31.7635C14.3783 31.6341 14.2438 31.7242 13.9723 31.8134C12.8519 32.2056 11.8691 32.8735 11.288 33.9291C10.968 34.6041 10.8822 35.1862 10.9141 35.9299C10.4167 35.9299 9.91945 35.9299 9.40707 35.9299C9.56905 34.2513 10.0423 32.9548 11.18 31.6749C10.1263 31.6749 9.09048 32.3848 8.34678 33.0759ZM2.40405 38.7666C2.57956 39.0298 2.75508 39.2931 2.93592 39.5644C2.99956 39.6817 3.0632 39.799 3.12876 39.9198C3.27144 40.1149 3.34531 40.1757 3.58073 40.2397C3.84637 40.2636 4.1047 40.2646 4.37138 40.2595C4.47275 40.26 4.57413 40.2606 4.67858 40.2611C5.01905 40.2621 5.35935 40.2587 5.69981 40.2553C5.94354 40.2548 6.18727 40.2552 6.431 40.2556C6.95612 40.2559 7.4812 40.254 8.00632 40.2505C8.76554 40.2455 9.52473 40.2438 10.284 40.2431C11.5158 40.2417 12.7475 40.2376 13.9793 40.2317C15.1759 40.226 16.3724 40.2216 17.569 40.219C17.6427 40.2188 17.7165 40.2187 17.7925 40.2185C18.1625 40.2177 18.5325 40.2169 18.9026 40.2161C21.9722 40.2097 25.0418 40.1988 28.1114 40.1849C28.2152 39.982 28.3186 39.7788 28.4216 39.5755C28.466 39.4889 28.466 39.4889 28.5113 39.4006C28.6759 39.0988 28.6759 39.0988 28.7319 38.7666C20.0437 38.7666 11.3555 38.7666 2.40405 38.7666ZM1.78352 41.6032C1.91956 42.5555 2.33351 43.1223 3.063 43.7387C4.09673 44.5081 5.38347 44.4662 6.61897 44.4624C6.76539 44.4626 6.91181 44.4629 7.05822 44.4632C7.45805 44.464 7.85787 44.4636 8.2577 44.4631C8.68987 44.4627 9.12205 44.4633 9.55423 44.4638C10.3999 44.4646 11.2455 44.4644 12.0912 44.4639C12.7786 44.4635 13.4661 44.4634 14.1535 44.4636C14.2515 44.4636 14.3495 44.4637 14.4504 44.4637C14.6494 44.4638 14.8484 44.4638 15.0474 44.4639C16.9123 44.4644 18.7771 44.4638 20.642 44.4628C22.2411 44.4621 23.8401 44.4622 25.4392 44.463C27.2975 44.464 29.1558 44.4643 31.0141 44.4638C31.2124 44.4637 31.4107 44.4637 31.609 44.4636C31.7065 44.4636 31.8041 44.4636 31.9046 44.4635C32.591 44.4634 33.2773 44.4636 33.9637 44.4641C34.8006 44.4646 35.6374 44.4644 36.4742 44.4635C36.9009 44.463 37.3276 44.4628 37.7543 44.4634C38.1454 44.4639 38.5365 44.4637 38.9275 44.4627C39.0686 44.4625 39.2096 44.4626 39.3506 44.463C40.8796 44.4674 42.0938 44.3356 43.2456 43.2529C43.6548 42.7831 43.979 42.2335 43.979 41.6032C30.0545 41.6032 16.13 41.6032 1.78352 41.6032Z" fill="black"/>
<path d="M34.8488 1.18066C35.3461 1.18066 35.8434 1.18066 36.3558 1.18066C36.427 2.26645 35.9974 3.01501 35.3741 3.8622C35.0195 4.36858 35.065 4.92739 35.1148 5.52431C35.2399 5.96465 35.5199 6.30477 35.7851 6.67117C36.4096 7.55962 36.457 8.4513 36.3558 9.51338C36.2282 10.1923 35.8639 10.7178 35.4834 11.2792C35.2072 11.6955 35.0855 12.0349 35.0261 12.5273C34.5288 12.5273 34.0315 12.5273 33.5191 12.5273C33.4479 11.4416 33.8775 10.693 34.5008 9.8458C34.8554 9.33943 34.8099 8.78061 34.7602 8.18369C34.6144 7.6708 34.2552 7.25156 33.9343 6.83496C33.5777 6.245 33.4693 5.64674 33.4748 4.96474C33.4753 4.89133 33.4758 4.81791 33.4763 4.74228C33.5039 3.79083 33.8812 3.09747 34.4454 2.34691C34.7438 1.93201 34.7706 1.72839 34.8488 1.18066Z" fill="black"/>
<path d="M30.5939 1.18066C31.0912 1.18066 31.5885 1.18066 32.1009 1.18066C32.1721 2.26645 31.7426 3.01501 31.1192 3.8622C30.7646 4.36858 30.8101 4.92739 30.8599 5.52431C30.985 5.96465 31.265 6.30477 31.5303 6.67117C32.1547 7.55962 32.2021 8.4513 32.1009 9.51338C31.9733 10.1923 31.609 10.7178 31.2285 11.2792C30.9523 11.6955 30.8307 12.0349 30.7712 12.5273C30.2739 12.5273 29.7766 12.5273 29.2642 12.5273C29.1931 11.4416 29.6226 10.693 30.2459 9.8458C30.6005 9.33943 30.555 8.78061 30.5053 8.18369C30.3595 7.6708 30.0003 7.25156 29.6794 6.83496C29.3228 6.245 29.2144 5.64674 29.2199 4.96474C29.2204 4.89133 29.2209 4.81791 29.2215 4.74228C29.249 3.79083 29.6264 3.09747 30.1905 2.34691C30.4889 1.93201 30.5157 1.72839 30.5939 1.18066Z" fill="black"/>
<path d="M23.5908 29.5469C24.0589 29.5469 24.5269 29.5469 25.0092 29.5469C25.0092 30.0149 25.0092 30.483 25.0092 30.9652C24.5411 30.9652 24.0731 30.9652 23.5908 30.9652C23.5908 30.4972 23.5908 30.0291 23.5908 29.5469Z" fill="black"/>
<path d="M20.7539 29.5469C21.222 29.5469 21.69 29.5469 22.1722 29.5469C22.1722 30.0149 22.1722 30.483 22.1722 30.9652C21.7042 30.9652 21.2361 30.9652 20.7539 30.9652C20.7539 30.4972 20.7539 30.0291 20.7539 29.5469Z" fill="black"/>
<path d="M37.0645 21.7466C37.5325 21.7466 38.0006 21.7466 38.4828 21.7466C38.4828 22.2146 38.4828 22.6827 38.4828 23.1649C38.0147 23.1649 37.5467 23.1649 37.0645 23.1649C37.0645 22.6969 37.0645 22.2288 37.0645 21.7466Z" fill="black"/>
<path d="M37.0645 18.9097C37.5325 18.9097 38.0006 18.9097 38.4828 18.9097C38.4828 19.3777 38.4828 19.8458 38.4828 20.328C38.0147 20.328 37.5467 20.328 37.0645 20.328C37.0645 19.86 37.0645 19.3919 37.0645 18.9097Z" fill="black"/>
</g>
<defs>
<clipPath id="clip0_358_1008">
<rect width="45.3867" height="45.3867" fill="white" transform="translate(0.1875 0.47168)"/>
</clipPath>
</defs>
</svg>
