<svg width="46" height="46" viewBox="0 0 46 46" fill="none" xmlns="http://www.w3.org/2000/svg">
<g clip-path="url(#clip0_358_1023)">
<path d="M21.3157 15.08C21.4372 15.0793 21.5586 15.0787 21.6801 15.0781C22.0659 15.0764 22.4517 15.0759 22.8376 15.0758C22.9361 15.0758 22.9361 15.0758 23.0366 15.0757C24.9687 15.0751 26.8759 15.096 28.7935 15.3639C28.9075 15.3787 29.0215 15.3934 29.139 15.4086C32.8058 15.8837 37.4907 16.6962 39.9937 19.6754C40.4585 20.3402 40.6848 21.0243 40.6807 21.8313C40.6804 21.9298 40.6801 22.0284 40.6798 22.1299C40.6791 22.2319 40.6783 22.3339 40.6776 22.439C40.6772 22.5427 40.6768 22.6464 40.6763 22.7532C40.6753 23.0086 40.6738 23.264 40.672 23.5193C40.7447 23.5006 40.8174 23.4818 40.8923 23.4625C41.6678 23.2776 42.3901 23.2089 43.1846 23.2139C43.3723 23.2146 43.5597 23.212 43.7474 23.2093C44.8891 23.203 44.8891 23.203 45.3703 23.608C45.7219 24.0296 45.6761 24.4846 45.6746 25.0066C45.6751 25.0991 45.6756 25.1917 45.676 25.2871C45.6766 25.4825 45.6765 25.6779 45.6757 25.8734C45.675 26.1718 45.6775 26.4701 45.6803 26.7686C45.6805 26.9588 45.6804 27.1489 45.6802 27.3391C45.6812 27.428 45.6822 27.517 45.6832 27.6086C45.6779 28.1362 45.6293 28.4344 45.2816 28.8381C44.8971 29.1866 44.5411 29.2031 44.0354 29.2114C43.9297 29.2139 43.8241 29.2164 43.7152 29.219C43.4957 29.2235 43.2762 29.2275 43.0566 29.2308C42.4015 29.2476 41.8051 29.3247 41.1706 29.491C40.938 29.5473 40.938 29.5473 40.672 29.5473C40.6728 29.6147 40.6736 29.6821 40.6744 29.7515C40.6816 30.3917 40.6869 31.0318 40.6904 31.672C40.6922 32.001 40.6947 32.33 40.6988 32.659C40.7027 32.9774 40.7048 33.2958 40.7057 33.6143C40.7066 33.7928 40.7094 33.9714 40.7122 34.1499C40.7125 35.2972 40.4864 36.2308 39.6969 37.0822C39.6461 37.141 39.5952 37.1999 39.5428 37.2605C38.8099 38.0593 37.8414 38.5615 36.8769 39.0268C36.8081 39.0603 36.7393 39.0938 36.6685 39.1283C36.2197 39.3377 35.7615 39.5167 35.2646 39.5642C34.9916 39.4597 34.8741 39.3678 34.6995 39.1376C34.6189 38.8556 34.6399 38.6904 34.7327 38.4119C35.1302 38.1046 35.5567 37.9222 36.0181 37.7304C37.2304 37.2069 38.5366 36.5483 39.0877 35.2821C39.2305 34.8413 39.2185 34.3974 39.2191 33.9377C39.2205 33.8345 39.222 33.7314 39.2235 33.6251C39.2278 33.2982 39.2297 32.9713 39.2315 32.6443C39.234 32.4216 39.2367 32.1989 39.2395 31.9762C39.246 31.4325 39.2506 30.8888 39.2537 30.3451C39.0971 30.4575 38.9408 30.5702 38.7845 30.683C38.6974 30.7458 38.6103 30.8085 38.5206 30.8731C38.3307 31.0152 38.1581 31.1593 37.9849 31.3202C37.7467 31.4975 37.7467 31.4975 37.4752 31.5529C37.118 31.4769 36.9871 31.3458 36.7716 31.0542C36.7051 30.8049 36.7051 30.8049 36.7716 30.5224C37.2815 29.7093 38.2307 29.0837 39.0764 28.6608C39.1349 28.6608 39.1934 28.6608 39.2537 28.6608C39.2537 27.2567 39.2537 25.8525 39.2537 24.4058C38.6394 24.8446 38.6394 24.8446 38.0126 25.2923C37.6906 25.4721 37.3815 25.6372 37.0486 25.7909C36.9623 25.8312 36.8759 25.8716 36.7869 25.9132C34.2614 27.0633 31.5268 27.5755 28.7935 27.9516C28.6902 27.9664 28.587 27.9812 28.4806 27.9964C24.832 28.4945 20.7344 28.4845 17.0922 27.9516C17.0292 27.9426 16.9663 27.9336 16.9014 27.9243C15.1709 27.6756 13.4544 27.3762 11.7734 26.8879C11.6563 26.8542 11.6563 26.8542 11.5369 26.8198C9.89717 26.3379 8.22709 25.6788 6.89792 24.5831C6.76628 24.4953 6.76628 24.4953 6.63198 24.4058C6.63198 25.8099 6.63198 27.2141 6.63198 28.6608C6.77825 28.7193 6.92452 28.7778 7.07521 28.8381C7.74964 29.2079 8.75623 29.8067 9.11407 30.5224C9.16197 30.8816 9.14439 31.0132 8.9257 31.3091C8.62007 31.535 8.51085 31.5443 8.13897 31.4975C7.89242 31.3354 7.89242 31.3354 7.65141 31.1207C7.32439 30.8332 6.99618 30.5838 6.63198 30.3451C6.63343 30.998 6.63831 31.6508 6.64551 32.3037C6.64756 32.5255 6.64884 32.7473 6.64932 32.9691C6.65015 33.2891 6.65379 33.609 6.65795 33.929C6.65761 34.0272 6.65726 34.1254 6.6569 34.2266C6.67189 35.036 6.89445 35.6525 7.44088 36.2566C7.84116 36.6235 8.28978 36.9016 8.75949 37.1708C8.85342 37.2254 8.94735 37.2801 9.04412 37.3363C13.0948 39.5749 18.2935 39.9416 22.832 39.9355C22.9062 39.9354 22.9803 39.9353 23.0567 39.9353C25.8592 39.9299 28.6691 39.7185 31.416 39.1405C31.7878 39.0629 32.1346 38.9971 32.5166 39.0324C32.8111 39.2501 32.94 39.3804 33.0152 39.7415C32.9381 40.1118 32.8144 40.216 32.5166 40.4507C32.2037 40.5633 31.8851 40.6203 31.5581 40.6779C31.4613 40.6959 31.3644 40.7139 31.2647 40.7325C24.0651 42.0246 15.4101 42.0778 7.43672 38.1549C6.30536 37.3642 5.47643 36.5133 5.21365 35.132C5.18021 34.6927 5.18242 34.2552 5.18768 33.8151C5.18818 33.6913 5.18855 33.5674 5.18882 33.4436C5.18982 33.1211 5.19243 32.7986 5.19539 32.4761C5.19813 32.1457 5.19933 31.8153 5.20066 31.4848C5.2035 30.839 5.20802 30.1931 5.21365 29.5473C5.1484 29.5355 5.08315 29.5237 5.01593 29.5116C4.88617 29.4881 4.88617 29.4881 4.7538 29.4642C4.66844 29.4487 4.58308 29.4333 4.49513 29.4174C4.33025 29.3869 4.16566 29.3548 4.0015 29.3206C3.74274 29.2713 3.49422 29.2668 3.23089 29.2626C3.06925 29.2589 3.06925 29.2589 2.90435 29.255C2.67906 29.2504 2.45375 29.2465 2.22843 29.2432C1.18755 29.2168 1.18755 29.2168 0.692708 28.9267C0.375518 28.5845 0.239259 28.3653 0.233788 27.9039C0.23265 27.8205 0.231512 27.737 0.23034 27.651C0.229685 27.5605 0.22903 27.4701 0.228355 27.3768C0.22764 27.2839 0.226924 27.191 0.226187 27.0952C0.22496 26.8982 0.224009 26.7012 0.223313 26.5041C0.221789 26.2033 0.217899 25.9026 0.213985 25.6018C0.213087 25.4105 0.212332 25.2191 0.211734 25.0277C0.210182 24.9379 0.20863 24.8482 0.207031 24.7557C0.208602 24.2433 0.236831 23.9101 0.604062 23.5193C0.993539 23.2626 1.30327 23.2194 1.76477 23.2181C1.85367 23.2177 1.85367 23.2177 1.94437 23.2173C2.06953 23.2171 2.19469 23.2176 2.31985 23.2187C2.50701 23.2201 2.694 23.2188 2.88115 23.217C3.69262 23.216 4.4247 23.315 5.21365 23.5193C5.21226 23.4568 5.21086 23.3944 5.20943 23.33C5.20384 23.0422 5.20042 22.7545 5.19703 22.4667C5.1948 22.3684 5.19257 22.2701 5.19028 22.1689C5.17982 20.9843 5.5181 20.0249 6.34388 19.1591C6.73293 18.7915 7.15715 18.4889 7.60709 18.2006C7.67599 18.1553 7.7449 18.1101 7.81589 18.0635C8.26704 17.787 8.58461 17.6676 9.11407 17.7574C9.34123 17.9402 9.34123 17.9402 9.46865 18.2006C9.47419 18.5164 9.47419 18.5164 9.38001 18.8211C9.09868 19.074 8.79462 19.2691 8.47139 19.4638C7.74953 19.9197 6.98296 20.4377 6.76288 21.3098C6.70332 21.6678 6.72024 21.8791 6.89792 22.1897C6.94626 22.1265 6.99459 22.0633 7.0444 21.9982C7.77223 21.0737 8.36898 20.5062 9.5573 20.3281C9.73436 20.3177 9.91142 20.3072 10.0885 20.2969C10.974 20.2354 11.5588 19.9124 12.2859 19.4174C12.6045 19.2014 12.9298 19.0489 13.2836 18.8995C13.4881 18.8074 13.652 18.6938 13.8234 18.5496C14.4645 18.0531 15.0494 17.9253 15.8512 18.0233C16.0705 18.0965 16.2651 18.1823 16.4686 18.2917C16.7613 18.4316 16.9892 18.4916 17.3083 18.4139C17.3832 18.3874 17.4582 18.3609 17.5354 18.3336C18.2196 18.1313 18.9026 18.1907 19.5854 18.3834C20.3152 18.56 20.8904 18.4883 21.5965 18.2449C22.6226 17.8988 23.4596 17.962 24.4718 18.3072C25.2443 18.5656 25.8364 18.498 26.6216 18.328C27.4205 18.1557 28.0255 18.2105 28.7935 18.4665C29.0266 18.4539 29.1969 18.3982 29.4043 18.2923C29.9708 18.006 30.4669 17.9284 31.0983 18.0233C31.6415 18.2075 32.0676 18.5237 32.5131 18.8751C32.7695 19.05 33.0425 19.1372 33.3335 19.2408C33.5762 19.3511 33.7694 19.4887 33.9816 19.6487C34.6614 20.1506 35.2913 20.2668 36.1281 20.3316C37.1187 20.4118 37.769 20.7653 38.4559 21.4805C38.6451 21.7094 38.8211 21.9439 38.9877 22.1897C39.1597 21.8854 39.1924 21.6726 39.1339 21.3212C38.8262 20.276 37.7985 19.6264 36.8935 19.1314C29.8737 15.4683 19.7617 15.8261 12.3053 17.846C12.2176 17.8753 12.1298 17.9045 12.0394 17.9346C11.4131 17.9844 11.4131 17.9844 11.1086 17.8017C10.9493 17.5363 10.93 17.3523 10.9199 17.0482C11.0061 16.7739 11.1877 16.6794 11.4189 16.5163C11.6576 16.4261 11.6576 16.4261 11.9178 16.3615C12.0156 16.3369 12.1134 16.3123 12.2141 16.287C12.3192 16.2621 12.4242 16.2372 12.5325 16.2116C12.6974 16.1717 12.6974 16.1717 12.8656 16.131C15.6338 15.476 18.469 15.0898 21.3157 15.08ZM14.2666 20.0843C13.7406 20.8219 13.1031 21.8918 13.1031 22.8102C13.7635 23.0024 14.44 22.9307 15.0977 22.7658C15.9043 22.5728 16.7109 22.6105 17.5354 22.6329C17.308 21.4935 16.741 20.2598 15.8068 19.5358C15.1463 19.2551 14.6891 19.5682 14.2666 20.0843ZM21.9234 19.6632C20.8616 20.0243 19.8766 19.9612 18.7927 19.6684C18.4693 19.6117 18.2109 19.6465 17.89 19.7076C18.0107 20.0195 18.146 20.3227 18.2855 20.6267C18.5885 21.2919 18.7928 21.9213 18.9261 22.6405C18.9645 22.7257 19.0029 22.811 19.0424 22.8988C19.3482 23.0204 19.3482 23.0204 19.6629 23.0761C19.8916 23.3048 19.8682 23.4752 19.8811 23.7877C19.8402 23.9626 19.8402 23.9626 19.6847 24.116C19.1627 24.411 18.5152 24.2173 17.962 24.0955C17.059 23.9048 16.2198 23.8828 15.3193 24.0955C14.2977 24.3369 13.3624 24.2557 12.3462 24.0266C12.0079 23.956 11.6794 23.9242 11.3347 23.9099C11.0953 23.8625 10.9722 23.778 10.7983 23.608C10.7209 23.3055 10.7422 23.0011 10.8925 22.7271C11.147 22.5875 11.3989 22.5712 11.6848 22.5442C11.7296 22.4022 11.7738 22.2599 11.8178 22.1176C11.8425 22.0384 11.8671 21.9592 11.8926 21.8777C11.9621 21.6528 11.9621 21.6528 11.9507 21.3918C11.8776 21.409 11.8045 21.4261 11.7291 21.4438C11.0207 21.6035 10.3327 21.7081 9.60993 21.771C9.00754 21.8921 8.65392 22.2669 8.27747 22.7215C8.21654 22.7908 8.21654 22.7908 8.15437 22.8614C7.99679 23.0497 7.87845 23.1911 7.85675 23.4404C8.02142 23.7034 8.26404 23.8336 8.52679 23.9847C8.58573 24.0192 8.64466 24.0536 8.70538 24.0891C11.8471 25.8718 15.6685 26.4618 19.2197 26.7106C19.2519 26.6387 19.2842 26.5668 19.3174 26.4928C20.6657 23.523 20.6657 23.523 21.9934 22.8909C22.7186 22.6204 23.2887 22.668 23.9879 22.9757C24.2296 23.0996 24.3896 23.2006 24.5385 23.4307C24.5927 23.7562 24.5816 23.8995 24.3944 24.1731C24.1192 24.3614 23.9806 24.3632 23.652 24.3172C23.5642 24.2714 23.4765 24.2257 23.3861 24.1786C23.0536 24.0193 22.9362 24.0216 22.5882 24.1399C21.6054 24.6865 21.1385 25.7104 20.7267 26.7106C20.7267 26.7398 20.7267 26.7691 20.7267 26.7992C22.1893 26.7992 23.652 26.7992 25.159 26.7992C25.1297 26.5067 25.1005 26.2142 25.0703 25.9128C25.2476 25.6468 25.2476 25.6468 25.5468 25.5748C25.8725 25.558 25.965 25.5549 26.2227 25.7355C26.3543 25.9661 26.3543 25.9661 26.4665 26.2341C26.5044 26.323 26.5424 26.4119 26.5815 26.5035C26.6094 26.5719 26.6372 26.6402 26.666 26.7106C30.5627 26.4541 34.7221 25.7502 38.0126 23.5193C37.9613 23.1621 37.778 22.9519 37.5528 22.6772C37.4857 22.594 37.4186 22.5108 37.3495 22.4251C36.9106 21.9623 36.5634 21.796 35.9295 21.7409C35.2501 21.6736 34.6002 21.5478 33.9349 21.3918C33.9626 21.5174 33.9903 21.643 34.018 21.7686C34.0335 21.8385 34.0489 21.9084 34.0648 21.9805C34.1076 22.1692 34.1531 22.3568 34.2009 22.5442C34.2978 22.5534 34.3947 22.5625 34.4945 22.5719C34.8214 22.6329 34.8214 22.6329 34.9931 22.7271C35.1434 23.0011 35.1648 23.3055 35.0873 23.608C34.8034 23.9102 34.5008 23.9258 34.1011 23.9681C33.7153 24.0113 33.3378 24.0599 32.9598 24.1509C32.1615 24.3162 31.3562 24.2841 30.5664 24.0955C29.5393 23.8529 28.6145 23.9435 27.5933 24.1683C26.6278 24.3579 26.6278 24.3579 26.2013 24.1156C26.0454 23.9626 26.0454 23.9626 26.0015 23.7908C26.0153 23.3054 26.0153 23.3054 26.1452 23.0816C26.3695 22.9545 26.5901 22.9369 26.8433 22.8988C26.867 22.8001 26.8908 22.7014 26.9153 22.5996C27.1366 21.7239 27.428 20.9517 27.8561 20.1563C28.0092 19.9094 28.0092 19.9094 27.9956 19.7076C27.5521 19.6231 27.2389 19.629 26.8045 19.7463C25.7356 19.9895 24.8131 19.9824 23.7919 19.5994C23.1021 19.3451 22.6022 19.4086 21.9234 19.6632ZM29.4237 20.1917C28.9178 20.9592 28.5603 21.7404 28.3502 22.6329C28.4638 22.6298 28.5774 22.6267 28.6944 22.6235C29.5285 22.608 30.2699 22.636 31.0809 22.8393C31.6387 22.9565 32.2321 22.9704 32.7825 22.8102C32.7336 22.332 32.6176 21.9408 32.4224 21.5026C32.3951 21.4411 32.3678 21.3795 32.3397 21.3161C32.0071 20.5935 31.5844 19.785 30.8323 19.4416C30.2123 19.3068 29.78 19.7278 29.4237 20.1917ZM1.57917 24.6717C1.57917 25.6956 1.57917 26.7195 1.57917 27.7743C1.95946 27.7743 2.33975 27.7743 2.73156 27.7743C2.73156 26.7505 2.73156 25.7266 2.73156 24.6717C2.35127 24.6717 1.97098 24.6717 1.57917 24.6717ZM43.1541 24.6717C43.1541 25.6956 43.1541 26.7195 43.1541 27.7743C43.5344 27.7743 43.9147 27.7743 44.3065 27.7743C44.3065 26.7505 44.3065 25.7266 44.3065 24.6717C43.9262 24.6717 43.5459 24.6717 43.1541 24.6717ZM4.1499 24.7604C4.1499 25.7842 4.1499 26.8081 4.1499 27.863C4.79457 28.0546 4.79457 28.0546 5.21365 28.0403C5.21365 27.0457 5.21365 26.0511 5.21365 25.0263C4.68709 24.8947 4.68709 24.8947 4.1499 24.7604ZM40.672 25.0263C40.672 26.0209 40.672 27.0155 40.672 28.0403C41.3893 27.9888 41.3893 27.9888 41.7358 27.863C41.7358 26.8391 41.7358 25.8153 41.7358 24.7604C41.3703 24.7604 41.0221 24.9213 40.672 25.0263Z" fill="black"/>
<path d="M28.3506 4.99255C28.5002 5.09436 28.5002 5.09436 28.6166 5.25849C28.7804 6.36704 28.4165 7.28276 27.9167 8.24544C27.5568 8.9959 27.5632 9.73657 27.8136 10.5139C27.9566 10.8808 28.1393 11.2256 28.3184 11.5759C28.6402 12.2214 28.7062 12.878 28.6166 13.5912C28.4337 13.8904 28.4337 13.8904 28.1733 14.0344C27.8491 14.0344 27.6468 14.0179 27.3866 13.8184C27.1919 13.548 27.1808 13.3375 27.1484 13.0095C27.0724 12.4785 26.9051 12.0585 26.6664 11.5801C26.1195 10.4795 25.914 9.29343 26.3118 8.09516C26.4536 7.77998 26.6097 7.47173 26.764 7.16254C27.0019 6.6703 27.118 6.21729 27.1671 5.66952C27.2079 5.36339 27.2787 5.15654 27.5251 4.96485C27.8251 4.87567 28.0489 4.92125 28.3506 4.99255Z" fill="black"/>
<path d="M19.0976 4.90994C19.3833 4.98931 19.4936 5.02416 19.6627 5.25898C19.9043 5.74216 19.7162 6.49592 19.5702 6.99069C19.3676 7.52379 19.1272 8.03297 18.8649 8.53888C18.624 9.26158 18.7058 10.1317 19.0231 10.8149C19.0974 10.9571 19.172 11.099 19.2468 11.2408C19.631 11.9762 19.8087 12.6705 19.7513 13.503C19.677 13.7384 19.6176 13.8238 19.4244 13.974C19.1213 14.0641 18.9029 14.0237 18.5989 13.9463C18.3146 13.6626 18.2836 13.3876 18.2277 12.9989C18.1224 12.3658 17.8943 11.8324 17.6044 11.2624C17.1493 10.3665 17.0949 9.13561 17.3634 8.16213C17.4755 7.85227 17.6224 7.56102 17.7668 7.26514C17.7946 7.20828 17.8224 7.15142 17.851 7.09284C17.8789 7.0365 17.9068 6.98016 17.9356 6.92211C18.1579 6.45486 18.2401 6.01739 18.2727 5.49895C18.3843 5.05461 18.6569 4.90234 19.0976 4.90994Z" fill="black"/>
<path d="M23.7407 4.90429C23.9956 5.06496 23.9956 5.06496 24.184 5.34752C24.3878 6.40212 23.86 7.45962 23.41 8.38122C23.1397 8.97261 23.1024 9.65224 23.2726 10.2812C23.4217 10.6614 23.6081 11.0189 23.7961 11.381C24.1432 12.0667 24.2966 12.8227 24.184 13.5916C24.0136 13.8866 23.9569 13.9354 23.6188 14.0293C23.2642 14.0354 23.1284 13.9866 22.8543 13.7689C22.7413 13.5429 22.7407 13.3505 22.7158 13.0985C22.6299 12.4988 22.4169 12.0148 22.138 11.4798C21.6431 10.5149 21.5104 9.32169 21.7961 8.2673C21.9481 7.83167 22.1637 7.42334 22.3682 7.01052C22.5908 6.54217 22.6611 6.1017 22.7206 5.5868C22.7652 5.34957 22.8063 5.23208 22.9651 5.05388C23.2625 4.87134 23.3983 4.83295 23.7407 4.90429Z" fill="black"/>
<path d="M25.6019 21.2139C25.7737 21.3081 25.7737 21.3081 25.8678 21.4798C25.9347 22.082 25.9347 22.082 25.7293 22.4106C25.4314 22.594 25.2367 22.5866 24.8927 22.5436C24.6822 22.4494 24.6822 22.4494 24.5382 22.2777C24.4608 21.9737 24.4203 21.7553 24.5105 21.4521C24.8178 21.0569 25.1394 21.1046 25.6019 21.2139Z" fill="black"/>
<path d="M21.5247 20.5052C21.741 20.6646 21.8468 20.7879 21.9568 21.0315C21.9724 21.2894 21.9174 21.4327 21.7906 21.6576C21.5332 21.8721 21.4071 21.9259 21.0703 21.9124C20.68 21.7936 20.68 21.7936 20.5496 21.5689C20.4826 20.9668 20.4826 20.9668 20.6881 20.6381C20.9882 20.4534 21.1784 20.4557 21.5247 20.5052Z" fill="black"/>
</g>
<defs>
<clipPath id="clip0_358_1023">
<rect width="45.3867" height="45.3867" fill="white" transform="translate(0.25 0.47168)"/>
</clipPath>
</defs>
</svg>
