<svg width="46" height="46" viewBox="0 0 46 46" fill="none" xmlns="http://www.w3.org/2000/svg">
<g clip-path="url(#clip0_358_1030)">
<path d="M14.0558 0.457679C14.1315 0.45729 14.2072 0.456902 14.2852 0.456502C14.5393 0.455316 14.7934 0.454767 15.0475 0.454224C15.2295 0.453524 15.4115 0.452791 15.5935 0.452027C16.1917 0.449704 16.7899 0.448346 17.3881 0.447082C17.5941 0.446607 17.8001 0.44613 18.0061 0.445652C18.8631 0.443735 19.7202 0.442074 20.5772 0.441076C21.8049 0.439637 23.0326 0.436696 24.2604 0.431644C25.1239 0.428212 25.9874 0.426482 26.8509 0.426013C27.3665 0.42569 27.8821 0.424626 28.3977 0.421749C28.883 0.41908 29.3683 0.418524 29.8536 0.419567C30.0313 0.419587 30.2091 0.418852 30.3868 0.417293C32.2493 0.401846 32.2493 0.401846 33.0306 1.11054C33.5968 1.89463 33.6381 2.53354 33.6124 3.48528C33.6617 3.48654 33.7111 3.4878 33.762 3.48909C34.4755 3.53369 34.942 3.79897 35.4185 4.32742C36.0162 5.07896 35.9333 5.99396 35.9338 6.90923C35.9349 7.01687 35.936 7.12452 35.9371 7.23542C35.9372 7.33918 35.9374 7.44293 35.9376 7.54984C35.938 7.64384 35.9383 7.73784 35.9387 7.83469C35.902 8.27859 35.7895 8.48844 35.4739 8.80404C35.0936 8.83329 34.7133 8.86254 34.3215 8.89268C33.9997 11.6132 33.678 14.3338 33.3464 17.1368C33.4927 17.1953 33.639 17.2538 33.7897 17.314C34.196 17.6834 34.196 17.6834 34.3215 17.9346C34.3251 18.1414 34.3254 18.3483 34.3215 18.5551C34.459 18.5537 34.459 18.5537 34.5993 18.5523C34.9405 18.5491 35.2816 18.547 35.6228 18.5454C35.7702 18.5445 35.9177 18.5433 36.0651 18.5417C36.2775 18.5396 36.4898 18.5386 36.7022 18.5378C36.8005 18.5364 36.8005 18.5364 36.9009 18.535C37.2618 18.5349 37.5507 18.5524 37.8674 18.7324C38.0507 18.9191 38.1249 19.0306 38.1635 19.29C38.1621 19.3624 38.1607 19.4348 38.1593 19.5094C38.1584 19.5883 38.1576 19.6671 38.1567 19.7483C38.1545 19.8299 38.1522 19.9115 38.1499 19.9956C38.1487 20.0785 38.1475 20.1615 38.1463 20.247C38.1432 20.4513 38.1388 20.6556 38.1333 20.8599C38.2138 20.8585 38.2942 20.8571 38.3771 20.8557C38.6775 20.8511 38.9778 20.8478 39.2782 20.8453C39.4078 20.8439 39.5375 20.8421 39.6671 20.8398C39.8542 20.8366 40.0412 20.8351 40.2283 20.8339C40.3968 20.8318 40.3968 20.8318 40.5687 20.8297C40.9656 20.868 41.2631 20.9889 41.559 21.2588C41.9095 21.709 41.956 21.9876 41.9537 22.5507C41.9536 22.6417 41.9535 22.6417 41.9534 22.7344C41.9529 22.9277 41.9518 23.121 41.9506 23.3143C41.9502 23.4454 41.9498 23.5766 41.9494 23.7078C41.9484 24.0291 41.9469 24.3504 41.9451 24.6717C42.0349 24.6675 42.1247 24.6634 42.2173 24.6592C42.3371 24.6559 42.4569 24.6526 42.5767 24.6495C42.6356 24.6465 42.6946 24.6436 42.7554 24.6405C43.2121 24.6315 43.4545 24.743 43.8066 25.0262C44.1247 25.3526 44.1828 25.6065 44.1854 26.047C44.1744 26.8499 44.0432 27.6325 43.9185 28.4239C43.8924 28.5939 43.8663 28.764 43.8403 28.934C43.7701 29.3925 43.6987 29.8508 43.6271 30.3091C43.5523 30.7896 43.4784 31.2702 43.4044 31.7508C43.2801 32.5567 43.1552 33.3625 43.0299 34.1682C42.8689 35.203 42.709 36.2379 42.5494 37.2729C42.412 38.1633 42.2743 39.0535 42.1365 39.9438C42.0922 40.23 42.048 40.5161 42.0037 40.8023C41.9343 41.251 41.8647 41.6996 41.7948 42.1482C41.7692 42.3131 41.7437 42.4779 41.7182 42.6428C41.6835 42.8672 41.6485 43.0916 41.6135 43.316C41.6034 43.3817 41.5933 43.4474 41.5829 43.5151C41.5422 43.774 41.4963 44.0132 41.4132 44.2624C41.5183 44.2615 41.6234 44.2605 41.7317 44.2596C42.1224 44.2564 42.5131 44.2543 42.9038 44.2527C43.0728 44.2518 43.2417 44.2506 43.4107 44.249C43.6538 44.2469 43.8969 44.2459 44.1401 44.2451C44.253 44.2437 44.253 44.2437 44.3682 44.2423C44.8275 44.2422 45.1819 44.2733 45.5605 44.5592C45.6993 44.748 45.7066 44.8661 45.707 45.099C45.7087 45.1665 45.7104 45.2341 45.7122 45.3036C45.649 45.5906 45.5477 45.6803 45.3136 45.858C45.0556 45.8928 44.8312 45.9057 44.5732 45.9027C44.4975 45.9032 44.4218 45.9037 44.3437 45.9042C44.0882 45.9055 43.8328 45.9043 43.5772 45.9031C43.3929 45.9035 43.2086 45.904 43.0242 45.9047C42.5163 45.9062 42.0084 45.9055 41.5005 45.9044C40.9533 45.9036 40.406 45.9048 39.8588 45.9058C38.8483 45.9073 37.8378 45.9072 36.8273 45.9062C35.8938 45.9053 34.9604 45.9051 34.0269 45.9055C33.9651 45.9055 33.9032 45.9055 33.8395 45.9056C33.5884 45.9057 33.3372 45.9058 33.0861 45.9059C30.7295 45.907 28.3728 45.906 26.0161 45.9041C23.9213 45.9024 21.8265 45.9026 19.7317 45.9043C17.3794 45.9062 15.0271 45.9069 12.6748 45.9058C12.4241 45.9057 12.1734 45.9056 11.9228 45.9055C11.8611 45.9055 11.7994 45.9054 11.7358 45.9054C10.8028 45.905 9.86981 45.9055 8.93684 45.9064C7.87624 45.9074 6.81566 45.9071 5.75507 45.9052C5.21355 45.9043 4.67205 45.9039 4.13053 45.9051C3.63535 45.9061 3.14021 45.9056 2.64504 45.9037C2.46536 45.9033 2.28569 45.9035 2.10602 45.9043C1.8628 45.9054 1.61969 45.9043 1.37647 45.9027C1.27051 45.9039 1.27051 45.9039 1.1624 45.9052C0.84656 45.9008 0.670459 45.8842 0.415465 45.6902C0.219222 45.4166 0.23182 45.221 0.246876 44.894C0.281504 44.7056 0.281504 44.7056 0.436634 44.484C0.773264 44.2596 1.09223 44.2492 1.49069 44.2344C1.58553 44.2306 1.68038 44.2269 1.7781 44.2231C1.8766 44.2196 1.9751 44.2161 2.07658 44.2125C2.17646 44.2087 2.27633 44.2049 2.37923 44.2009C2.62553 44.1915 2.87184 44.1825 3.11817 44.1738C3.05609 44.0975 3.05609 44.0975 2.99276 44.0197C2.67907 43.6269 2.40939 43.2564 2.20401 42.7942C2.14145 42.6569 2.14145 42.6569 2.07762 42.5168C1.83762 41.8875 1.75979 41.3234 1.75559 40.6556C1.75479 40.5757 1.75399 40.4957 1.75316 40.4133C1.75188 40.2453 1.75109 40.0772 1.75076 39.9091C1.7497 39.6535 1.74534 39.398 1.74087 39.1424C1.74003 38.9783 1.73939 38.8141 1.73897 38.65C1.73724 38.5745 1.7355 38.4989 1.73372 38.4211C1.73778 37.8776 1.87455 37.4974 2.23171 37.0821C2.78198 36.6285 3.27216 36.7275 4.00463 36.7275C3.97538 35.9669 3.94613 35.2063 3.91599 34.4227C3.62345 34.2764 3.33092 34.1302 3.02953 33.9795C2.39415 33.5347 2.03348 32.9416 1.78848 32.2066C1.73112 31.3781 1.72505 30.644 2.14307 29.9018C2.18815 29.8178 2.18815 29.8178 2.23414 29.7321C2.52886 29.2559 2.98304 28.9214 3.47276 28.6607C3.64828 28.6315 3.82379 28.6022 4.00463 28.5721C4.00463 27.8115 4.00463 27.0509 4.00463 26.2673C3.74135 26.2673 3.47808 26.2673 3.20682 26.2673C2.65022 26.1807 2.31692 25.9674 1.97409 25.5245C1.48771 24.8036 1.71845 23.2625 1.82934 22.4254C1.88766 22.1314 1.96198 21.8541 2.05442 21.5691C2.07943 21.4876 2.07943 21.4876 2.10493 21.4044C2.77059 19.2708 4.20532 17.5536 6.16538 16.483C7.93833 15.5606 9.75892 15.5111 11.7168 15.5411C11.6876 15.4826 11.6583 15.4241 11.6282 15.3638C11.5995 15.1728 11.5753 14.9811 11.553 14.7893C11.5461 14.7303 11.5392 14.6713 11.532 14.6106C11.5091 14.4151 11.4868 14.2196 11.4644 14.0241C11.4486 13.8883 11.4329 13.7525 11.4171 13.6166C11.384 13.3316 11.3512 13.0466 11.3185 12.7615C11.2767 12.3966 11.2343 12.0318 11.1918 11.667C11.1591 11.3863 11.1267 11.1056 11.0944 10.8249C11.0789 10.6904 11.0633 10.5559 11.0476 10.4215C11.0257 10.2331 11.0042 10.0447 10.9827 9.85625C10.9642 9.69554 10.9642 9.69554 10.9453 9.53158C10.9227 9.28663 10.9137 9.04975 10.919 8.80404C10.841 8.80918 10.7629 8.81432 10.6825 8.81962C10.5281 8.82562 10.5281 8.82562 10.3705 8.83174C10.2687 8.83688 10.1669 8.84202 10.062 8.84732C9.67084 8.79 9.56609 8.66887 9.32339 8.36081C9.28003 8.11091 9.263 7.9158 9.26764 7.66688C9.26742 7.60053 9.26721 7.53418 9.26699 7.46583C9.26708 7.32575 9.26826 7.18568 9.27047 7.04562C9.2735 6.83349 9.27231 6.6217 9.27058 6.40956C9.27145 5.53443 9.38379 4.9103 9.86634 4.17229C10.2925 3.76467 10.7499 3.49424 11.3463 3.47351C11.4393 3.47739 11.5323 3.48128 11.6282 3.48528C11.6236 3.3521 11.6236 3.3521 11.6188 3.21623C11.5948 2.25437 11.6884 1.70785 12.3578 0.979304C12.8684 0.479944 13.3734 0.458104 14.0558 0.457679ZM13.2238 2.42153C13.2238 2.77257 13.2238 3.12361 13.2238 3.48528C19.4255 3.48528 25.6271 3.48528 32.0167 3.48528C32.0719 2.71023 32.0719 2.71023 31.7508 2.15559C31.473 2.01668 31.1765 2.05383 30.8714 2.0539C30.7613 2.05341 30.7613 2.05341 30.649 2.05291C30.4017 2.05193 30.1544 2.05159 29.9071 2.05126C29.7304 2.0507 29.5536 2.05011 29.3769 2.04949C28.8958 2.04795 28.4146 2.04701 27.9335 2.04628C27.6331 2.04583 27.3328 2.04529 27.0325 2.04473C26.0935 2.04304 25.1545 2.04178 24.2156 2.04104C23.1303 2.04017 22.045 2.03784 20.9598 2.03426C20.1218 2.03159 19.2838 2.03027 18.4458 2.02998C17.9449 2.02977 17.444 2.02897 16.9431 2.02675C16.472 2.02469 16.001 2.02431 15.53 2.02522C15.3569 2.02526 15.1838 2.0247 15.0107 2.02349C14.7747 2.02193 14.5389 2.02254 14.303 2.02371C14.2341 2.02274 14.1653 2.02177 14.0943 2.02076C13.6247 2.02641 13.5827 2.06265 13.2238 2.42153ZM10.919 5.52414C10.919 6.07995 10.919 6.63576 10.919 7.20841C18.6418 7.20841 26.3647 7.20841 34.3215 7.20841C34.4134 6.09475 34.4134 6.09475 34.0241 5.1883C33.8366 5.05018 33.727 5.04742 33.4952 5.04695C33.3771 5.04574 33.3771 5.04574 33.2567 5.04452C33.1702 5.04499 33.0837 5.04546 32.9945 5.04595C32.9026 5.04541 32.8108 5.04487 32.7161 5.04431C32.4068 5.04283 32.0976 5.04326 31.7882 5.04368C31.5671 5.04303 31.3459 5.04227 31.1248 5.04141C30.5855 5.03964 30.0463 5.03914 29.507 5.0393C29.0687 5.03941 28.6305 5.03908 28.1922 5.03842C28.066 5.03823 27.9399 5.03805 27.8137 5.03786C27.7196 5.03772 27.7196 5.03772 27.6235 5.03758C26.4355 5.0359 25.2475 5.036 24.0594 5.0366C22.9723 5.0371 21.8852 5.03525 20.7981 5.03232C19.6823 5.02933 18.5665 5.02798 17.4507 5.02839C16.8241 5.02859 16.1975 5.02812 15.5709 5.02592C14.9816 5.02386 14.3925 5.02411 13.8033 5.02591C13.5867 5.02622 13.3702 5.02576 13.1537 5.02449C12.8586 5.02289 12.5636 5.02401 12.2685 5.02582C12.1393 5.02415 12.1393 5.02415 12.0075 5.02246C11.8888 5.02403 11.8888 5.02403 11.7677 5.02563C11.6996 5.0256 11.6315 5.02558 11.5614 5.02555C11.2859 5.08454 11.2859 5.08453 10.919 5.52414ZM12.5146 8.80404C12.7739 11.2213 12.7739 11.2213 13.0426 13.6375C13.0644 13.8292 13.0858 14.0209 13.1073 14.2127C13.1215 14.3379 13.1358 14.4632 13.1501 14.5885C13.1683 14.7494 13.1683 14.7494 13.1868 14.9135C13.2162 15.1306 13.2571 15.3301 13.3125 15.5411C13.3679 15.5414 13.4233 15.5417 13.4804 15.542C14.8347 15.5492 16.1889 15.5574 17.5431 15.5666C18.1981 15.571 18.853 15.5752 19.5079 15.5785C20.0793 15.5815 20.6508 15.585 21.2222 15.5892C21.5242 15.5915 21.8262 15.5934 22.1283 15.5946C24.5712 15.6055 26.9979 15.7096 28.9065 17.4553C29.0808 17.601 29.0808 17.601 29.2819 17.5634C29.4559 17.4944 29.4559 17.4944 29.6233 17.3584C29.9061 17.1463 30.1926 17.126 30.5388 17.1087C30.6097 17.105 30.6805 17.1013 30.7535 17.0975C30.8267 17.094 30.8998 17.0905 30.9752 17.0869C31.0497 17.0831 31.1242 17.0792 31.2009 17.0753C31.3842 17.0659 31.5675 17.057 31.7508 17.0481C31.8668 16.0649 31.9824 15.0816 32.0975 14.0983C32.151 13.6417 32.2046 13.1851 32.2585 12.7285C32.3106 12.2877 32.3623 11.8468 32.4137 11.406C32.4334 11.238 32.4532 11.07 32.4731 10.902C32.501 10.6663 32.5285 10.4306 32.5559 10.1948C32.5642 10.1258 32.5725 10.0567 32.581 9.98557C32.5885 9.92057 32.5959 9.85557 32.6036 9.7886C32.6101 9.73295 32.6167 9.67731 32.6234 9.61997C32.6426 9.34864 32.6373 9.07606 32.6373 8.80404C25.9968 8.80404 19.3563 8.80404 12.5146 8.80404ZM5.77755 18.7324C5.72167 18.7739 5.66579 18.8153 5.60822 18.8581C4.33064 19.8505 3.67371 21.4467 3.38411 22.9874C3.38411 23.5432 3.38411 24.099 3.38411 24.6717C9.3225 24.6717 15.2609 24.6717 21.3792 24.6717C21.4085 24.0866 21.4377 23.5015 21.4679 22.8987C21.6814 22.1516 21.6814 22.1516 22.0884 21.835C22.6989 21.5934 23.34 21.618 23.9887 21.6023C24.1621 21.5972 24.1621 21.5972 24.339 21.5919C24.623 21.5836 24.907 21.576 25.191 21.5691C25.1923 21.5128 25.1936 21.4565 25.1949 21.3985C25.2016 21.1413 25.2101 20.8843 25.2187 20.6272C25.2217 20.4943 25.2217 20.4943 25.2248 20.3588C25.2424 19.8749 25.2667 19.5006 25.5456 19.087C26.0617 18.6806 26.4794 18.6308 27.1191 18.5939C27.1809 18.59 27.2427 18.5862 27.3064 18.5823C27.4582 18.5729 27.6099 18.564 27.7617 18.5551C27.4137 18.2553 27.0564 18.0438 26.6481 17.8404C26.5857 17.8093 26.5233 17.7782 26.4591 17.7462C25.2629 17.1689 24.0483 17.1234 22.7443 17.1225C22.6042 17.1221 22.4642 17.1216 22.3242 17.1211C21.9452 17.12 21.5662 17.1194 21.1872 17.119C20.9498 17.1187 20.7123 17.1184 20.4748 17.118C19.7298 17.1168 18.9847 17.1159 18.2397 17.1156C17.3834 17.1152 16.5272 17.1136 15.671 17.1111C15.0068 17.1091 14.3425 17.1082 13.6783 17.1081C13.2827 17.108 12.8871 17.1075 12.4916 17.1059C12.1187 17.1045 11.7458 17.1043 11.3729 17.1051C11.2373 17.1051 11.1017 17.1047 10.9661 17.1039C9.02119 17.0919 7.31308 17.4817 5.77755 18.7324ZM30.5984 18.6437C30.5984 22.7392 30.5984 26.8346 30.5984 31.0542C31.8985 31.2758 31.8985 31.2758 32.7259 31.1428C32.7259 27.0181 32.7259 22.8934 32.7259 18.6437C32.0238 18.6437 31.3218 18.6437 30.5984 18.6437ZM26.7866 20.1507C26.7646 21.3028 26.7467 22.4547 26.7361 23.6069C26.731 24.1419 26.7241 24.6769 26.7131 25.2118C26.7024 25.7286 26.6966 26.2452 26.6941 26.762C26.6923 26.9587 26.6888 27.1555 26.6835 27.3521C26.6303 28.4203 26.6303 28.4203 26.9666 29.4056C27.5431 29.9689 28.2872 30.2531 29.0028 30.6109C29.0028 27.1591 29.0028 23.7072 29.0028 20.1507C28.2715 20.1507 27.5401 20.1507 26.7866 20.1507ZM34.3215 20.1507C34.3215 23.6903 34.3215 27.23 34.3215 30.8769C34.9196 30.6975 35.3656 30.5567 35.8784 30.2453C35.9601 30.1974 35.9601 30.1974 36.0434 30.1487C36.3056 30.0014 36.3056 30.0014 36.5377 29.8131C36.5461 29.6875 36.5485 29.5615 36.5483 29.4356C36.5485 29.3542 36.5486 29.2728 36.5487 29.1889C36.5484 29.0989 36.5481 29.0088 36.5477 28.9161C36.5478 28.8218 36.5478 28.7276 36.5478 28.6305C36.5477 28.3172 36.547 28.004 36.5463 27.6908C36.5462 27.4743 36.546 27.2578 36.546 27.0413C36.5456 26.4702 36.5447 25.899 36.5438 25.3279C36.5429 24.7456 36.5425 24.1633 36.542 23.5811C36.5411 22.4376 36.5395 21.2942 36.5377 20.1507C35.8064 20.1507 35.075 20.1507 34.3215 20.1507ZM38.1333 22.4555C38.1333 24.24 38.1333 26.0244 38.1333 27.8629C38.4149 27.4875 38.6204 27.0974 38.8304 26.6807C39.1273 26.1077 39.3956 25.7252 39.9751 25.4328C40.1913 25.3086 40.1913 25.3086 40.3495 25.1149C40.45 24.6582 40.4249 24.2148 40.3993 23.752C40.3953 23.6263 40.3917 23.5006 40.3884 23.3749C40.3803 23.0679 40.3648 22.7626 40.3495 22.4555C39.6181 22.4555 38.8868 22.4555 38.1333 22.4555ZM22.9749 23.1647C22.9749 23.6912 22.9749 24.2178 22.9749 24.7603C23.1321 24.8316 23.2893 24.9029 23.4513 24.9764C24.1467 25.322 24.6475 25.8124 25.191 26.3559C25.191 25.3028 25.191 24.2497 25.191 23.1647C24.4597 23.1647 23.7283 23.1647 22.9749 23.1647ZM5.60026 26.2673C5.60026 26.9694 5.60026 27.6714 5.60026 28.3948C5.8032 28.3981 6.00615 28.4014 6.21524 28.4048C6.41388 28.4089 6.6125 28.4135 6.81113 28.4181C6.94816 28.421 7.0852 28.4235 7.22225 28.4255C7.42034 28.4285 7.61835 28.4331 7.81641 28.4381C7.87673 28.4386 7.93706 28.4392 7.99922 28.4398C9.00189 28.4699 9.46868 28.9208 10.1378 29.6092C10.2222 29.6943 10.3066 29.7794 10.3912 29.8644C10.6119 30.0868 10.8313 30.3106 11.0504 30.5346C11.2749 30.7636 11.5006 30.9913 11.7262 31.2192C12.1675 31.6653 12.6075 32.1127 13.0465 32.5611C13.346 32.4318 13.537 32.2674 13.7637 32.0343C13.8694 31.9265 13.8694 31.9265 13.9772 31.8165C14.0527 31.7387 14.1281 31.661 14.2058 31.5808C14.367 31.417 14.5283 31.2531 14.6896 31.0893C14.9432 30.8309 15.1964 30.5721 15.4487 30.3125C15.6925 30.0619 15.9381 29.813 16.1837 29.5641C16.2585 29.4866 16.3332 29.409 16.4102 29.3291C17.0131 28.721 17.4798 28.4584 18.357 28.4381C18.4667 28.4349 18.5764 28.4318 18.6894 28.4285C18.8018 28.4265 18.9143 28.4245 19.0301 28.4225C19.2029 28.4179 19.2029 28.4179 19.3792 28.4133C19.6617 28.406 19.9442 28.3999 20.2268 28.3948C20.1722 27.6771 20.0707 26.9813 19.9609 26.2673C15.2219 26.2673 10.4829 26.2673 5.60026 26.2673ZM21.5565 26.2673C21.674 27.3257 21.8185 28.3778 21.9804 29.4303C22.0047 29.5899 22.0291 29.7495 22.0534 29.9091C22.1187 30.3375 22.1844 30.7658 22.2501 31.194C22.319 31.6438 22.3878 32.0936 22.4565 32.5434C22.5718 33.2971 22.6872 34.0506 22.8028 34.8042C22.9364 35.6756 23.0697 36.547 23.2028 37.4184C23.3311 38.2586 23.4597 39.0988 23.5885 39.939C23.6432 40.296 23.6978 40.6531 23.7523 41.0101C23.8163 41.4294 23.8806 41.8487 23.945 42.2679C23.9687 42.4219 23.9922 42.5759 24.0157 42.7299C24.0476 42.9395 24.0799 43.1492 24.1122 43.3588C24.1215 43.4201 24.1308 43.4814 24.1403 43.5446C24.1791 43.7941 24.2245 44.0222 24.3045 44.2624C29.4238 44.2624 34.5431 44.2624 39.8176 44.2624C40.4591 40.2052 40.4591 40.2052 41.0901 36.1463C41.121 35.9455 41.1519 35.7446 41.1829 35.5438C41.2916 34.8382 41.4003 34.1327 41.5088 33.4271C41.6091 32.7751 41.7096 32.1232 41.8102 31.4713C41.8981 30.9019 41.9858 30.3325 42.0734 29.7631C42.1251 29.4269 42.1769 29.0907 42.2288 28.7545C42.2858 28.3853 42.3426 28.0161 42.3992 27.6469C42.4162 27.5372 42.4332 27.4276 42.4507 27.3146C42.4736 27.1651 42.4736 27.1651 42.4969 27.0124C42.5103 26.9258 42.5236 26.8391 42.5374 26.7498C42.5713 26.5257 42.5713 26.5257 42.5656 26.2673C41.8627 26.2071 41.2735 26.2631 40.704 26.7105C40.2694 27.1966 39.9877 27.7531 39.7012 28.3338C38.9191 29.867 37.8717 30.9217 36.3604 31.7633C36.2862 31.8053 36.2121 31.8472 36.1357 31.8904C34.1161 32.9178 31.4089 33.0206 29.2576 32.3728C28.0289 31.97 26.9701 31.3591 25.9888 30.5223C25.9301 30.4736 25.8713 30.4249 25.8108 30.3748C25.0583 29.6922 24.5419 28.7258 24.1106 27.8186C23.7965 27.1625 23.4906 26.735 22.864 26.3615C22.4211 26.236 22.0129 26.2488 21.5565 26.2673ZM3.5614 30.6996C3.33727 31.0802 3.32709 31.4199 3.38411 31.852C3.52398 32.2973 3.80897 32.588 4.20378 32.8242C4.75898 33.0324 5.38644 32.9686 5.97146 32.959C6.11951 32.9582 6.26755 32.9576 6.4156 32.9571C6.80328 32.9554 7.19088 32.9511 7.57852 32.9462C7.97488 32.9416 8.37124 32.9396 8.76762 32.9374C9.54388 32.9326 10.3201 32.9251 11.0963 32.9157C11.0629 32.8775 11.0295 32.8392 10.995 32.7998C10.7338 32.4985 10.4848 32.1929 10.2456 31.8735C9.61587 31.0505 8.87352 30.0853 7.8061 29.8797C6.48773 29.7111 4.50077 29.5992 3.5614 30.6996ZM15.174 32.8271C15.174 32.8563 15.174 32.8856 15.174 32.9157C17.0755 32.9157 18.9769 32.9157 20.936 32.9157C20.8053 31.7513 20.8053 31.7513 20.6147 30.6054C20.5968 30.5141 20.5968 30.5141 20.5786 30.421C20.5505 30.2774 20.5217 30.1339 20.4928 29.9904C17.9328 29.3601 16.6786 30.9859 15.174 32.8271ZM5.60026 34.5114C5.60026 35.2427 5.60026 35.974 5.60026 36.7275C5.96537 36.7288 6.33047 36.7301 6.70664 36.7314C7.91212 36.7359 9.11757 36.7418 10.323 36.7484C11.054 36.7524 11.785 36.7559 12.5159 36.7582C13.1531 36.7603 13.7903 36.7632 14.4274 36.7673C14.7648 36.7694 15.1021 36.7711 15.4394 36.7716C15.7571 36.7722 16.0747 36.7739 16.3924 36.7766C16.5642 36.7778 16.736 36.7776 16.9079 36.7774C18.4428 36.794 19.3113 38.0148 20.3266 39.0378C20.4293 39.141 20.532 39.2441 20.6347 39.3472C20.8831 39.5966 21.1313 39.8462 21.3792 40.096C21.6793 39.9719 21.8332 39.844 21.9998 39.5642C22.0122 39.3398 22.0122 39.3398 21.9662 39.0983C21.9523 39.0054 21.9384 38.9125 21.924 38.8168C21.9074 38.7169 21.8908 38.6171 21.8737 38.5143C21.8578 38.4113 21.8419 38.3084 21.8255 38.2023C21.7742 37.873 21.7208 37.544 21.6673 37.2151C21.6326 36.9933 21.5979 36.7716 21.5634 36.5499C21.4998 36.1437 21.4357 35.7377 21.37 35.3318C21.3568 35.2502 21.3436 35.1686 21.33 35.0846C21.2953 34.8919 21.2494 34.7013 21.2019 34.5114C16.0534 34.5114 10.9048 34.5114 5.60026 34.5114ZM3.38411 38.3231C3.37302 38.7329 3.36505 39.1425 3.35976 39.5524C3.35756 39.6913 3.35455 39.8302 3.35067 39.9691C3.31764 41.1847 3.50924 42.1795 4.35922 43.11C4.93026 43.7112 5.74836 44.2412 6.59827 44.2733C6.72017 44.2737 6.84209 44.2736 6.96399 44.2731C7.03119 44.2731 7.09839 44.2732 7.16762 44.2733C7.39343 44.2734 7.61923 44.273 7.84504 44.2725C8.00665 44.2724 8.16826 44.2725 8.32986 44.2725C8.76922 44.2725 9.20857 44.272 9.64793 44.2714C10.1068 44.2708 10.5658 44.2708 11.0247 44.2707C11.894 44.2704 12.7633 44.2697 13.6326 44.2688C14.6222 44.2678 15.6118 44.2673 16.6013 44.2669C18.6372 44.2659 20.6731 44.2644 22.7089 44.2624C22.6547 43.867 22.5989 43.4719 22.5427 43.0768C22.5273 42.9641 22.5119 42.8514 22.496 42.7353C22.4805 42.6279 22.4651 42.5205 22.4492 42.4098C22.4353 42.3105 22.4214 42.2112 22.407 42.1088C22.3743 41.8571 22.3743 41.8571 22.177 41.6917C22.146 41.7337 22.1149 41.7758 22.0829 41.8191C21.8264 42.026 21.6156 42.035 21.2906 42.0463C20.8755 41.8786 20.6953 41.586 20.4543 41.2287C19.5759 39.9458 18.4195 38.5191 16.828 38.1716C14.8946 37.8237 12.8539 37.9791 10.9031 38.0741C10.0816 38.1134 9.25999 38.1319 8.43779 38.1492C6.75216 38.1849 5.06829 38.2453 3.38411 38.3231Z" fill="black"/>
<path d="M34.3958 35.4275C35.2832 36.1289 35.746 37.1985 35.8997 38.2998C35.9763 39.5534 35.5773 40.6293 34.7927 41.5974C34.011 42.4092 32.9943 42.8372 31.8833 42.8794C30.6521 42.8989 29.6789 42.572 28.7592 41.7359C28.6605 41.6262 28.6605 41.6262 28.5597 41.5143C28.4866 41.4357 28.4135 41.357 28.3381 41.276C27.5554 40.318 27.3864 39.1651 27.496 37.9684C27.6361 37.2187 27.918 36.6183 28.3824 36.0182C28.4464 35.9268 28.5104 35.8354 28.5764 35.7412C30.0763 33.9986 32.6986 34.1925 34.3958 35.4275ZM30.1554 36.5501C30.0731 36.6031 29.9908 36.6562 29.906 36.7108C29.3594 37.2574 29.0888 37.8867 29.0584 38.6555C29.0706 39.3614 29.2856 40.0379 29.8008 40.5392C30.5705 41.1264 31.2207 41.3466 32.1942 41.2483C32.9016 41.0718 33.4444 40.7355 33.8574 40.1347C34.2806 39.3928 34.3924 38.6555 34.1707 37.823C34.0891 37.6197 33.996 37.444 33.8785 37.2593C33.844 37.204 33.8095 37.1487 33.7739 37.0917C33.3427 36.5048 32.6799 36.1682 31.9691 36.0584C31.2606 36.0306 30.746 36.1612 30.1554 36.5501Z" fill="black"/>
<path d="M15.0418 20.8158C15.1561 20.8148 15.2704 20.8139 15.3881 20.813C15.7504 20.8665 15.8967 20.9548 16.1499 21.2147C16.2662 21.5489 16.2551 21.7013 16.1333 22.0346C15.9612 22.2957 15.9025 22.3504 15.618 22.4557C15.3469 22.4824 15.3469 22.4824 15.0474 22.4834C14.8995 22.4856 14.8995 22.4856 14.7485 22.4879C14.4373 22.4525 14.2734 22.3732 14.0224 22.1898C13.8375 21.9544 13.8452 21.8292 13.8507 21.5249C14.0194 20.8948 14.4385 20.8109 15.0418 20.8158Z" fill="black"/>
<path d="M10.4648 19.3137C10.5275 19.3108 10.5903 19.3079 10.6549 19.3049C11.0055 19.3013 11.1676 19.3392 11.4486 19.5541C11.7175 19.9157 11.6913 20.0639 11.6283 20.5049C11.4625 20.7204 11.3374 20.8277 11.0964 20.9481C10.9102 20.9614 10.7235 20.9678 10.5368 20.9703C10.4366 20.9726 10.3364 20.9749 10.2331 20.9772C9.9138 20.9451 9.75482 20.8747 9.50078 20.6822C9.29465 20.373 9.29383 20.2477 9.32349 19.8844C9.52506 19.3262 9.93395 19.318 10.4648 19.3137Z" fill="black"/>
<path d="M19.5563 19.3143C19.6714 19.3126 19.7864 19.3108 19.905 19.3091C20.2719 19.3592 20.4163 19.4422 20.6699 19.7076C20.771 20.0551 20.7948 20.2423 20.6533 20.5775C20.4165 20.8632 20.2371 20.9389 19.8669 20.9753C19.7681 20.9757 19.6692 20.976 19.5674 20.9764C19.4194 20.9786 19.4194 20.9786 19.2685 20.9809C18.9545 20.9451 18.7909 20.8756 18.5424 20.6827C18.4059 20.3622 18.3427 20.1608 18.4205 19.8184C18.7094 19.3458 19.021 19.3148 19.5563 19.3143Z" fill="black"/>
</g>
<defs>
<clipPath id="clip0_358_1030">
<rect width="45.3867" height="45.3867" fill="white" transform="translate(0.28125 0.47168)"/>
</clipPath>
</defs>
</svg>
