<svg width="46" height="46" viewBox="0 0 46 46" fill="none" xmlns="http://www.w3.org/2000/svg">
<g clip-path="url(#clip0_358_1043)">
<path d="M11.7828 17.9999C11.8552 17.9995 11.9277 17.9991 12.0023 17.9987C12.2454 17.9976 12.4885 17.9977 12.7316 17.9979C12.9057 17.9974 13.0799 17.9968 13.254 17.9961C13.7273 17.9945 14.2005 17.9941 14.6738 17.994C15.0686 17.9938 15.4633 17.9932 15.8581 17.9925C16.7892 17.9911 17.7203 17.9907 18.6514 17.9908C19.6128 17.9909 20.5742 17.989 21.5355 17.9862C22.3603 17.9839 23.1852 17.983 24.01 17.9831C24.5029 17.9831 24.9957 17.9826 25.4886 17.9807C25.952 17.979 26.4153 17.979 26.8786 17.9803C27.0489 17.9805 27.2191 17.9801 27.3893 17.979C27.6214 17.9776 27.8533 17.9784 28.0853 17.9798C28.153 17.9789 28.2207 17.978 28.2905 17.9771C28.6013 17.9811 28.767 17.999 29.0157 18.1929C29.1604 18.3879 29.2272 18.4911 29.2419 18.7328C29.175 18.9821 29.1042 19.1354 28.9237 19.3205C28.6244 19.4907 28.3461 19.4779 28.0111 19.474C27.9402 19.4742 27.8693 19.4744 27.7963 19.4747C27.5585 19.4751 27.3207 19.4736 27.0829 19.4722C26.9126 19.4721 26.7422 19.4721 26.5719 19.4723C26.1091 19.4724 25.6463 19.4708 25.1835 19.4689C24.7 19.4673 24.2164 19.4671 23.7329 19.4668C22.8171 19.466 21.9014 19.4638 20.9856 19.4611C19.9431 19.4582 18.9006 19.4567 17.858 19.4554C15.7134 19.4526 13.5687 19.4479 11.424 19.442C11.3948 19.8515 11.3655 20.2611 11.3354 20.683C18.912 20.683 26.4885 20.683 34.2947 20.683C34.2654 20.3027 34.2362 19.9224 34.206 19.5306C34.1036 19.5298 34.0012 19.529 33.8957 19.5281C33.5149 19.5246 33.1341 19.5187 32.7533 19.5122C32.5887 19.5097 32.424 19.5079 32.2594 19.5066C32.0223 19.5047 31.7854 19.5006 31.5484 19.496C31.4751 19.4959 31.4017 19.4958 31.3262 19.4957C30.9717 19.4867 30.7895 19.4675 30.4825 19.2748C30.2747 19.0546 30.2243 18.9456 30.217 18.6442C30.3113 18.3062 30.361 18.2231 30.6602 18.0236C30.8361 17.9999 30.8361 17.9999 31.0386 17.9979C31.1147 17.9968 31.1907 17.9956 31.2691 17.9945C31.3921 17.9942 31.3921 17.9942 31.5176 17.9939C31.6023 17.9933 31.687 17.9927 31.7743 17.9921C31.9538 17.9912 32.1332 17.9908 32.3126 17.9908C32.586 17.9904 32.8592 17.9872 33.1326 17.9838C33.3071 17.9833 33.4816 17.983 33.6562 17.9828C33.7781 17.9809 33.7781 17.9809 33.9025 17.9789C34.435 17.9827 34.7441 18.0696 35.1811 18.3782C35.5424 18.759 35.7068 19.0765 35.7241 19.6027C35.7204 19.6959 35.7168 19.7891 35.713 19.8852C35.8117 19.8706 35.9105 19.856 36.0122 19.8409C37.9748 19.6041 39.8423 20.1846 41.403 21.3756C42.9632 22.6786 43.8225 24.4002 44.0236 26.4062C44.1462 28.4558 43.4497 30.3189 42.0955 31.8524C40.7346 33.2862 38.9846 33.9577 37.0431 34.0654C36.0585 34.0884 35.1226 33.8943 34.206 33.5367C34.1743 33.649 34.1743 33.649 34.142 33.7635C34.0145 34.1068 33.8398 34.3938 33.6354 34.6946C33.5966 34.7522 33.5578 34.8097 33.5179 34.869C33.1082 35.4654 32.6506 36.013 32.1672 36.5506C32.1158 36.6085 32.0643 36.6663 32.0114 36.7259C31.4397 37.3319 30.731 37.8627 30.0397 38.3236C30.0909 38.3239 30.1421 38.3242 30.1949 38.3245C30.7284 38.3283 31.2619 38.3344 31.7954 38.342C31.9944 38.3445 32.1935 38.3463 32.3925 38.3476C32.6789 38.3495 32.9651 38.3536 33.2514 38.3582C33.3402 38.3583 33.4291 38.3584 33.5206 38.3585C33.9128 38.3667 34.1435 38.3741 34.4838 38.5818C34.6627 38.7818 34.7079 38.8572 34.6991 39.1214C34.6992 39.1799 34.6994 39.2384 34.6995 39.2987C34.6263 39.5569 34.5014 39.6618 34.2947 39.8305C34.0528 39.8746 34.0528 39.8746 33.7693 39.8742C33.6611 39.8749 33.5529 39.8756 33.4415 39.8763C33.3213 39.8753 33.2011 39.8743 33.0809 39.8732C32.9534 39.8733 32.8258 39.8736 32.6983 39.8741C32.3473 39.8749 31.9964 39.8735 31.6455 39.8717C31.2672 39.8702 30.8889 39.8707 30.5107 39.871C29.8552 39.8711 29.1996 39.87 28.5441 39.868C27.5964 39.8652 26.6486 39.8642 25.7008 39.8638C24.1632 39.863 22.6255 39.8606 21.0879 39.8573C19.5941 39.854 18.1003 39.8515 16.6064 39.85C16.5144 39.8499 16.4223 39.8498 16.3275 39.8497C15.8657 39.8493 15.4039 39.8488 14.9421 39.8484C11.1101 39.8447 7.27798 39.8385 3.4459 39.8305C3.47516 39.9183 3.50441 40.0061 3.53455 40.0965C9.70188 41.4967 15.6036 42.1619 21.9253 42.0973C22.6564 42.0907 23.387 42.0931 24.118 42.1005C30.2983 42.1621 36.0714 41.4799 42.0955 40.0965C42.1248 40.0087 42.154 39.921 42.1842 39.8305C42.1094 39.8313 42.0347 39.8321 41.9577 39.8329C41.2534 39.84 40.5491 39.8454 39.8447 39.8489C39.4826 39.8508 39.1205 39.8533 38.7584 39.8573C38.4089 39.8611 38.0595 39.8633 37.71 39.8642C37.5767 39.8648 37.4434 39.8661 37.3101 39.868C37.1233 39.8706 36.9366 39.871 36.7498 39.8708C36.6436 39.8716 36.5373 39.8724 36.4277 39.8732C36.1016 39.822 36.0005 39.7341 35.8017 39.476C35.7057 39.2087 35.7035 39.07 35.774 38.7945C35.9146 38.5467 35.9796 38.5092 36.2449 38.4122C36.4686 38.3954 36.6825 38.388 36.9061 38.3893C37.0052 38.3888 37.0052 38.3888 37.1063 38.3883C37.3243 38.3875 37.5422 38.3881 37.7602 38.3887C37.9119 38.3885 38.0635 38.3884 38.2152 38.3881C38.533 38.3879 38.8507 38.3883 39.1684 38.3891C39.5756 38.3901 39.9828 38.3895 40.39 38.3885C40.7031 38.3878 41.0163 38.388 41.3295 38.3885C41.4796 38.3886 41.6297 38.3885 41.7799 38.388C41.9897 38.3876 42.1996 38.3883 42.4094 38.3893C42.4714 38.3889 42.5334 38.3885 42.5973 38.3882C42.9161 38.391 43.1585 38.4062 43.4252 38.5895C43.6821 39.0005 43.6318 39.4952 43.6302 39.9635C43.6316 40.0466 43.6331 40.1297 43.6345 40.2153C43.6346 40.2958 43.6347 40.3764 43.6347 40.4594C43.6351 40.5686 43.6351 40.5686 43.6355 40.6801C43.5915 40.9658 43.5173 41.1096 43.3366 41.3375C43.097 41.4217 42.8925 41.4748 42.6454 41.5185C42.5751 41.5325 42.5048 41.5465 42.4323 41.5609C42.2806 41.5908 42.1287 41.6199 41.9766 41.6482C41.7431 41.6917 41.5101 41.7375 41.2771 41.784C40.7747 41.8838 40.2717 41.9799 39.7686 42.0758C39.5844 42.111 39.4003 42.1463 39.2162 42.1816C38.8342 42.2547 38.4522 42.3277 38.0702 42.4006C37.5799 42.4941 37.0897 42.588 36.5995 42.682C36.2211 42.7545 35.8427 42.8268 35.4643 42.8992C35.2833 42.9337 35.1023 42.9684 34.9214 43.0031C34.6703 43.0512 34.4191 43.0991 34.1679 43.1469C34.0932 43.1612 34.0184 43.1756 33.9414 43.1904C33.4285 43.2877 33.4285 43.2877 33.2309 43.2877C33.2328 43.353 33.2346 43.4183 33.2366 43.4855C33.2439 43.7816 33.2485 44.0776 33.2531 44.3736C33.2561 44.4764 33.259 44.5791 33.2621 44.6849C33.2632 44.7838 33.2644 44.8826 33.2656 44.9845C33.2674 45.0755 33.2693 45.1664 33.2712 45.2602C33.2177 45.584 33.1412 45.6644 32.8764 45.8585C32.6086 45.9115 32.3444 45.9063 32.0722 45.9035C31.9488 45.9043 31.9488 45.9043 31.823 45.9052C31.5468 45.9066 31.2707 45.9055 30.9945 45.9043C30.7968 45.9048 30.5991 45.9055 30.4013 45.9062C29.8638 45.9078 29.3263 45.9072 28.7887 45.9061C28.2268 45.9052 27.6649 45.906 27.103 45.9066C26.0987 45.9073 25.0945 45.9062 24.0903 45.9044C23.1796 45.9028 22.269 45.9031 21.3583 45.9047C20.301 45.9066 19.2437 45.9073 18.1863 45.9062C17.6265 45.9057 17.0668 45.9056 16.507 45.9068C15.9808 45.9078 15.4546 45.9071 14.9284 45.9051C14.735 45.9046 14.5416 45.9047 14.3482 45.9055C14.0847 45.9065 13.8214 45.9053 13.5579 45.9035C13.4424 45.9047 13.4424 45.9047 13.3245 45.9059C12.8092 45.8991 12.8092 45.8991 12.5287 45.6936C12.3581 45.4437 12.3584 45.2855 12.3645 44.9845C12.3654 44.8954 12.3663 44.8063 12.3672 44.7145C12.3704 44.602 12.3737 44.4895 12.377 44.3736C12.3811 44.1799 12.385 43.9862 12.3888 43.7925C12.3923 43.6243 12.3957 43.456 12.3991 43.2877C12.3429 43.2778 12.2867 43.268 12.2287 43.2578C10.4074 42.9368 8.58915 42.6005 6.77188 42.2576C6.4535 42.1975 6.13504 42.1379 5.81651 42.0786C5.42498 42.0058 5.03359 41.9322 4.64229 41.8581C4.49514 41.8304 4.34795 41.8029 4.2007 41.7756C3.99632 41.7378 3.79212 41.699 3.58794 41.66C3.52859 41.6493 3.46924 41.6385 3.40808 41.6274C2.94121 41.5367 2.45562 41.4236 2.12383 41.066C1.98219 40.6829 1.98904 40.3244 1.99433 39.9192C1.9933 39.8403 1.99227 39.7615 1.99121 39.6803C1.99315 39.2471 2.00492 38.9363 2.29351 38.5895C2.57753 38.4001 2.64774 38.3907 2.97324 38.3949C3.05237 38.3955 3.13151 38.396 3.21304 38.3966C3.33653 38.3989 3.33653 38.3989 3.46253 38.4011C3.54589 38.4019 3.62925 38.4027 3.71513 38.4036C3.9209 38.4056 4.12662 38.4086 4.33236 38.4122C4.26929 38.2723 4.26929 38.2723 4.20494 38.1296C3.7072 36.9543 3.89083 35.4093 4.33236 34.2458C4.77022 33.2683 4.77022 33.2683 5.21882 33.0048C5.52272 33.0155 5.74602 33.0343 6.00556 33.1987C6.15217 33.4349 6.17543 33.6129 6.19393 33.8913C6.10504 34.1233 6.01236 34.3308 5.90029 34.5506C5.45133 35.5071 5.28117 36.4104 5.5457 37.4565C5.71262 37.8102 5.86831 38.0953 6.19393 38.3236C6.55819 38.4126 6.90659 38.4063 7.27984 38.3956C7.37571 38.3972 7.47159 38.3989 7.57036 38.4006C8.46391 38.3904 9.03134 38.0527 9.67328 37.4537C10.0125 37.0947 10.286 36.709 10.5376 36.2847C10.5713 36.2284 10.605 36.172 10.6397 36.114C11.2262 35.0451 11.2849 33.898 10.9808 32.7389C10.6299 33.0541 10.3954 33.4238 10.1418 33.8168C10.048 33.9599 9.95425 34.103 9.86044 34.246C9.7138 34.4707 9.56745 34.6955 9.42165 34.9207C9.28023 35.1387 9.13766 35.3559 8.99493 35.5731C8.95179 35.6404 8.90866 35.7078 8.86421 35.7771C8.63503 36.1242 8.45171 36.3833 8.05549 36.5506C7.78019 36.5396 7.59691 36.5035 7.35741 36.3678C7.19192 36.0828 7.20295 35.8022 7.25768 35.4869C7.39981 35.1764 7.5876 34.9031 7.78124 34.6226C7.83437 34.5429 7.88749 34.4633 7.94223 34.3812C8.11144 34.1282 8.28287 33.8768 8.4544 33.6253C8.56986 33.4536 8.68517 33.2817 8.80033 33.1097C9.08222 32.6895 9.36595 32.2705 9.65112 31.8524C9.04698 31.9355 8.51925 32.0216 7.97793 32.3067C7.59736 32.5061 7.33588 32.6099 6.9031 32.5616C6.60855 32.3439 6.47971 32.2136 6.40446 31.8524C6.47807 31.4991 6.61464 31.3417 6.9031 31.1432C7.97466 30.5237 8.87789 30.3742 10.0943 30.4341C10.1529 30.4633 10.2114 30.4926 10.2716 30.5227C10.2535 30.4496 10.2353 30.3765 10.2166 30.3011C10.1927 30.1987 10.1688 30.0963 10.1442 29.9908C10.1206 29.8921 10.0969 29.7934 10.0725 29.6917C9.8406 28.4608 9.90141 27.1578 9.89905 25.9107C9.89867 25.7748 9.89867 25.7748 9.89829 25.6361C9.89697 25.1581 9.89615 24.6802 9.89576 24.2022C9.89527 23.7108 9.89313 23.2194 9.89062 22.728C9.88897 22.3474 9.88851 21.9668 9.88837 21.5862C9.88811 21.405 9.8874 21.2238 9.88623 21.0426C9.88471 20.7894 9.88489 20.5363 9.88546 20.2831C9.88464 20.2095 9.88383 20.1358 9.88298 20.0599C9.88676 19.5257 9.94215 18.9224 10.3054 18.5027C10.7878 18.0868 11.1583 17.9974 11.7828 17.9999ZM35.713 21.3922C35.713 21.9187 35.713 22.4453 35.713 22.9878C35.8885 22.9586 36.0641 22.9293 36.2449 22.8992C37.5123 22.8136 38.6109 23.0737 39.6328 23.8455C40.4464 24.5761 40.8754 25.6618 40.9587 26.7341C40.9957 27.8504 40.6142 28.8555 39.9015 29.7138C39.1092 30.5485 38.0642 30.9506 36.9264 30.9826C36.5468 30.9793 36.1939 30.913 35.8249 30.8274C35.6004 30.7774 35.6004 30.7774 35.2698 30.7887C35.2101 30.9731 35.1511 31.1579 35.0925 31.3427C35.0596 31.4455 35.0267 31.5484 34.9928 31.6543C34.8998 31.9486 34.8998 31.9486 34.9152 32.2956C36.606 32.8443 38.1695 32.6763 39.7464 31.8857C41.1068 31.1122 42.0482 29.8038 42.4778 28.3066C42.8142 26.6487 42.4975 25.0179 41.5636 23.6083C40.6291 22.393 39.3746 21.5195 37.8354 21.2745C37.1037 21.1829 36.4275 21.2024 35.713 21.3922ZM11.3354 22.1014C11.1822 25.9376 11.1822 25.9376 11.5736 29.9354C11.5888 30.0059 11.6039 30.0763 11.6195 30.1489C11.8456 31.1445 12.2361 32.0807 12.6651 33.0048C12.7628 32.9908 12.8605 32.9767 12.9611 32.9622C14.6381 32.7548 16.3183 32.8514 17.7179 33.8913C18.3957 34.49 18.747 35.1683 18.8592 36.0631C18.9045 36.8289 18.6853 37.5221 18.4271 38.2349C18.8207 38.4305 19.1917 38.4401 19.6223 38.4422C19.6971 38.4432 19.7718 38.4442 19.8488 38.4453C20.0957 38.4483 20.3426 38.45 20.5895 38.4513C20.6744 38.4519 20.7593 38.4526 20.8467 38.4532C21.2967 38.4564 21.7466 38.4585 22.1966 38.4597C22.6579 38.4611 23.119 38.4663 23.5803 38.4724C23.9378 38.4764 24.2953 38.4775 24.6529 38.478C24.8227 38.4787 24.9925 38.4804 25.1623 38.4832C26.3139 38.5012 27.1623 38.3425 28.1781 37.7917C28.2918 37.7318 28.2918 37.7318 28.4078 37.6708C28.5745 37.5807 28.7336 37.4844 28.8928 37.3817C28.9503 37.3451 29.0077 37.3086 29.0669 37.2709C31.6895 35.5494 33.4544 32.8714 34.1008 29.8191C34.5807 27.3321 34.2947 24.4381 34.2947 22.1014C26.7181 22.1014 19.1416 22.1014 11.3354 22.1014ZM35.713 24.4948C35.6838 26.0745 35.6545 27.6541 35.6244 29.2817C36.3899 29.6644 36.9757 29.7662 37.8017 29.4978C38.5586 29.1961 39.0785 28.6802 39.4361 27.952C39.7254 27.1945 39.6732 26.5379 39.3762 25.793C39.0065 25.0547 38.4092 24.6253 37.6743 24.2898C36.9256 24.1251 36.4582 24.2464 35.713 24.4948ZM12.5764 34.6004C12.5372 34.7865 12.5008 34.9731 12.4656 35.16C12.1898 36.4577 11.5871 37.3685 10.8035 38.4122C11.5109 38.4225 12.2183 38.4304 12.9257 38.4352C13.2543 38.4375 13.5828 38.4406 13.9113 38.4456C14.2286 38.4505 14.5458 38.4531 14.8631 38.4543C14.9839 38.4551 15.1047 38.4567 15.2255 38.4591C15.976 38.5001 15.976 38.5001 16.6336 38.2007C16.8106 37.9933 16.9773 37.7936 17.1251 37.5645C17.1686 37.4986 17.2122 37.4327 17.257 37.3647C17.3592 37.1786 17.4051 37.022 17.452 36.8166C16.5469 36.881 15.6726 37.0787 14.7866 37.2655C14.5815 37.3086 14.3763 37.3509 14.171 37.3931C14.1091 37.4064 14.0473 37.4197 13.9835 37.4334C13.5973 37.5126 13.2363 37.5527 12.8424 37.5257C12.5764 37.3485 12.5764 37.3485 12.5044 37.0493C12.4878 36.729 12.4909 36.6293 12.6651 36.3734C12.8234 36.3008 12.8234 36.3008 13.0186 36.2605C13.0929 36.2443 13.1673 36.2282 13.2438 36.2115C13.366 36.1874 13.366 36.1874 13.4906 36.1628C13.6169 36.136 13.6169 36.136 13.7457 36.1087C14.0353 36.0477 14.3253 35.989 14.6153 35.9301C14.8491 35.8814 15.0828 35.8326 15.3165 35.7836C15.9393 35.6535 16.5626 35.5253 17.186 35.3982C16.9032 35.0239 16.6377 34.8205 16.2165 34.6226C16.1626 34.5957 16.1087 34.5689 16.0532 34.5412C15.4702 34.2582 14.9631 34.2277 14.3272 34.2237C14.2555 34.2219 14.1839 34.22 14.1101 34.2181C13.6296 34.2151 12.9396 34.2373 12.5764 34.6004ZM13.8175 43.3764C13.8175 43.7567 13.8175 44.137 13.8175 44.5288C19.7559 44.5288 25.6943 44.5288 31.8126 44.5288C31.8126 44.1485 31.8126 43.7682 31.8126 43.3764C25.8742 43.3764 19.9358 43.3764 13.8175 43.3764Z" fill="black"/>
<path d="M25.0635 0.423692C25.8304 0.616816 26.4614 1.4519 26.8478 2.09411C27.1837 2.71123 27.4102 3.31199 27.4694 4.01731C27.4766 4.08576 27.4838 4.15421 27.4912 4.22473C27.5613 5.50105 27.0511 6.70241 26.2283 7.6518C26.3622 7.93802 26.5271 8.18878 26.7048 8.44961C27.4042 9.53802 27.6057 10.7198 27.3697 11.9788C27.0933 13.1632 26.4972 14.1275 25.5116 14.8574C25.1903 15.0464 24.9999 15.057 24.6327 15.0094C24.4222 14.9152 24.4222 14.9152 24.2781 14.7435C24.1784 14.4554 24.1784 14.4554 24.1895 14.1229C24.3925 13.776 24.6812 13.5344 24.9928 13.2864C25.6721 12.6938 25.9023 11.9073 26.0012 11.0314C25.9578 10.1514 25.6124 9.33278 24.9873 8.71555C24.8768 8.63492 24.7642 8.55706 24.6493 8.48285C24.3668 8.27232 24.3668 8.27232 24.2283 7.96206C24.1852 7.61778 24.1809 7.49854 24.3668 7.20857C24.5606 7.01334 24.7603 6.83252 24.9873 6.67669C25.0458 6.67669 25.1043 6.67669 25.1646 6.67669C25.1883 6.62904 25.2119 6.58139 25.2363 6.5323C25.3139 6.37777 25.3928 6.22389 25.4724 6.07037C25.5189 5.97975 25.5655 5.88914 25.6134 5.79577C25.6601 5.70539 25.7068 5.615 25.755 5.52187C26.1114 4.73115 25.9937 3.92091 25.6965 3.13086C25.4466 2.62691 25.1211 2.28453 24.6937 1.92305C24.4048 1.67298 24.2903 1.56827 24.1562 1.20281C24.2212 0.640217 24.4779 0.382482 25.0635 0.423692Z" fill="black"/>
<path d="M19.8235 6.97021C20.5894 7.13223 21.1734 7.74601 21.6186 8.36085C22.3023 9.52521 22.5792 10.7494 22.3084 12.0895C21.9834 13.3115 21.2965 14.3447 20.2003 15.0093C19.8623 15.0813 19.8623 15.0813 19.5797 15.0093C19.3138 14.832 19.3138 14.832 19.1365 14.5661C19.0871 14.1356 19.0871 14.1356 19.2252 13.8569C19.433 13.6649 19.6537 13.5039 19.8827 13.3378C20.4536 12.8637 20.8136 12.0914 20.8873 11.3582C20.9574 10.3902 20.6669 9.63195 20.0784 8.87056C19.885 8.66795 19.7448 8.55894 19.5132 8.41625C19.264 8.2468 19.1724 8.12697 19.1143 7.82897C19.1024 7.52886 19.1382 7.4719 19.3193 7.20845C19.5797 7.03116 19.5797 7.03116 19.8235 6.97021Z" fill="black"/>
<path d="M29.8625 7.0318C30.8171 7.5118 31.5158 8.44195 31.9014 9.42524C32.2798 10.64 32.2628 11.9393 31.6832 13.0898C31.2264 13.8795 30.6968 14.5928 29.8625 15.0099C29.5033 15.0578 29.3717 15.0402 29.0758 14.8216C28.8874 14.5667 28.8874 14.5667 28.832 14.3008C28.9253 13.853 29.2369 13.6614 29.5911 13.3977C30.1737 12.922 30.5301 12.1409 30.6046 11.4052C30.6215 10.3986 30.4648 9.58593 29.7739 8.80471C29.6389 8.69147 29.5003 8.58225 29.3584 8.47783C28.9852 8.20236 28.9852 8.20236 28.8874 8.0069C28.8395 7.64765 28.8571 7.51604 29.0758 7.22017C29.3809 6.99463 29.4914 6.99183 29.8625 7.0318Z" fill="black"/>
</g>
<defs>
<clipPath id="clip0_358_1043">
<rect width="45.3867" height="45.3867" fill="white" transform="translate(0.34375 0.47168)"/>
</clipPath>
</defs>
</svg>
