<svg width="46" height="46" viewBox="0 0 46 46" fill="none" xmlns="http://www.w3.org/2000/svg">
<g clip-path="url(#clip0_358_1036)">
<path d="M27.2613 0.427355C27.3728 0.425984 27.4843 0.424613 27.5993 0.4232C28.6302 0.427569 28.6302 0.427568 29.0342 0.826262C29.4297 1.29614 29.4381 1.66217 29.429 2.24854C29.4291 2.3368 29.4292 2.42507 29.4292 2.51602C29.429 2.80671 29.4262 3.09731 29.4234 3.38799C29.4228 3.58995 29.4223 3.79191 29.4219 3.99387C29.4205 4.52464 29.4171 5.05538 29.4131 5.58613C29.4095 6.12804 29.4079 6.66996 29.4061 7.21188C29.4023 8.27461 29.3963 9.33731 29.3888 10.4C29.4923 10.3991 29.4923 10.3991 29.5978 10.3982C30.2486 10.3929 30.8995 10.3889 31.5503 10.3862C31.8849 10.3849 32.2194 10.383 32.554 10.38C32.877 10.3771 33.2 10.3755 33.5231 10.3748C33.6462 10.3743 33.7693 10.3733 33.8924 10.3719C34.0651 10.37 34.2378 10.3699 34.4105 10.3698C34.5087 10.3692 34.607 10.3686 34.7082 10.368C35.1536 10.4217 35.4814 10.6613 35.7579 11.0124C35.9954 11.4439 36.0635 11.9439 36.1591 12.4223C36.1832 12.5316 36.2073 12.6409 36.2322 12.7535C36.3809 13.4679 36.4972 14.0969 36.1536 14.7714C35.9278 15.0338 35.721 15.1994 35.4167 15.3642C35.2997 15.3642 35.1827 15.3642 35.0621 15.3642C35.0556 15.5197 35.0556 15.5197 35.049 15.6784C34.9904 17.0153 34.902 18.3497 34.8097 19.6846C34.7873 20.0089 34.7652 20.3332 34.743 20.6575C34.6897 21.436 34.636 22.2145 34.5822 22.993C34.567 23.2132 34.5518 23.4334 34.5366 23.6536C34.4419 25.0256 34.347 26.3976 34.2518 27.7696C34.2299 28.0855 34.208 28.4015 34.1861 28.7175C34.1779 28.8352 34.1779 28.8352 34.1696 28.9554C34.0811 30.2309 33.9934 31.5065 33.9061 32.7821C33.8162 34.0955 33.7256 35.4088 33.6342 36.722C33.583 37.4579 33.5321 38.1939 33.4821 38.9299C33.4396 39.5555 33.3964 40.1811 33.3523 40.8066C33.3298 41.1254 33.3077 41.4442 33.2865 41.763C33.2634 42.1091 33.2388 42.4551 33.214 42.8011C33.2044 42.9511 33.2044 42.9511 33.1946 43.1041C33.1414 43.8194 33.0701 44.6312 32.5634 45.1825C32.493 45.263 32.493 45.263 32.4211 45.3452C31.9212 45.7504 31.434 45.9114 30.7896 45.9034C30.72 45.904 30.6504 45.9045 30.5787 45.9051C30.3473 45.9065 30.116 45.9054 29.8847 45.9043C29.718 45.9047 29.5514 45.9054 29.3847 45.9061C28.9335 45.9078 28.4822 45.9071 28.0309 45.906C27.558 45.9051 27.0851 45.9059 26.6122 45.9065C25.8181 45.9072 25.0241 45.9063 24.23 45.9046C23.3128 45.9027 22.3955 45.9033 21.4783 45.9053C20.6899 45.9069 19.9015 45.9071 19.1131 45.9062C18.6426 45.9056 18.1721 45.9055 17.7016 45.9067C17.2592 45.9077 16.8169 45.907 16.3745 45.905C16.2124 45.9045 16.0503 45.9046 15.8882 45.9054C15.6664 45.9064 15.4447 45.9052 15.2229 45.9034C15.1593 45.9042 15.0956 45.905 15.03 45.9058C14.4642 45.8971 14.0249 45.6966 13.5915 45.3452C13.5445 45.2915 13.4975 45.2378 13.4492 45.1825C13.401 45.1301 13.3529 45.0778 13.3034 45.0239C12.8901 44.3312 12.8454 43.5327 12.7946 42.7457C12.7864 42.6313 12.7783 42.517 12.7698 42.3992C12.7473 42.0841 12.726 41.7689 12.7049 41.4537C12.6819 41.1129 12.6577 40.7721 12.6337 40.4314C12.5868 39.7649 12.5411 39.0983 12.4957 38.4317C12.4427 37.6551 12.3887 36.8785 12.3345 36.102C12.238 34.7164 12.1424 33.3308 12.0474 31.9452C11.9552 30.6011 11.8625 29.257 11.7691 27.913C11.7633 27.8302 11.7575 27.7474 11.7516 27.662C11.7285 27.3291 11.7053 26.9962 11.6822 26.6632C11.5877 25.3041 11.4937 23.945 11.3997 22.5858C11.3783 22.2762 11.3569 21.9666 11.3355 21.657C11.2792 20.8435 11.223 20.0299 11.1672 19.2164C11.1442 18.88 11.1211 18.5437 11.0978 18.2073C11.0725 17.8427 11.0476 17.4781 11.0227 17.1135C11.0153 17.0072 11.0079 16.901 11.0002 16.7915C10.968 16.3146 10.9414 15.8423 10.9504 15.3642C10.8755 15.3605 10.8005 15.3569 10.7233 15.3531C10.3147 15.2491 10.077 15.0549 9.79805 14.7437C9.39988 14.0303 9.74236 12.959 9.89777 12.2006C9.91331 12.1137 9.92886 12.0268 9.94487 11.9373C10.0715 11.3234 10.2877 10.8972 10.7732 10.4887C11.0705 10.3895 11.2927 10.3891 11.6062 10.3894C11.6639 10.3893 11.7217 10.3892 11.7813 10.3891C11.9752 10.389 12.1692 10.3895 12.3631 10.39C12.502 10.39 12.6409 10.39 12.7798 10.3899C13.1573 10.3899 13.5347 10.3904 13.9122 10.391C14.3065 10.3916 14.7008 10.3916 15.0952 10.3917C15.842 10.392 16.5889 10.3927 17.3358 10.3936C18.186 10.3946 19.0362 10.3951 19.8864 10.3956C21.6356 10.3965 23.3847 10.398 25.1338 10.4C25.133 10.2879 25.1322 10.1758 25.1314 10.0603C25.1242 9.00384 25.1189 7.94735 25.1154 6.89083C25.1136 6.34767 25.1111 5.80452 25.107 5.26137C25.1032 4.73718 25.1011 4.21301 25.1001 3.6888C25.0995 3.48883 25.0982 3.28886 25.0963 3.08889C25.0937 2.80875 25.0934 2.52869 25.0935 2.24854C25.0923 2.1659 25.091 2.08326 25.0897 1.99812C25.0928 1.50232 25.1573 1.21959 25.4884 0.826262C25.986 0.335171 26.6061 0.4193 27.2613 0.427355ZM26.5521 1.89001C26.5521 4.69832 26.5521 7.50662 26.5521 10.4C27.0202 10.4 27.4882 10.4 27.9705 10.4C27.9705 7.59172 27.9705 4.78342 27.9705 1.89001C27.5024 1.89001 27.0344 1.89001 26.5521 1.89001ZM11.571 11.8184C11.4247 12.5204 11.2784 13.2225 11.1277 13.9459C11.3159 13.9464 11.5041 13.9469 11.6981 13.9474C13.4682 13.9525 15.2384 13.9589 17.0085 13.9668C17.9187 13.9707 18.8288 13.9742 19.739 13.9766C20.5321 13.9786 21.3252 13.9816 22.1182 13.9856C22.5384 13.9878 22.9584 13.9894 23.3786 13.99C23.7737 13.9905 24.1689 13.9923 24.564 13.995C24.7093 13.9958 24.8545 13.9961 24.9998 13.9959C25.1977 13.9958 25.3956 13.9973 25.5935 13.9992C25.7598 13.9998 25.7598 13.9998 25.9295 14.0004C26.1975 14.0345 26.1975 14.0345 26.3661 14.1589C26.4875 14.3354 26.4991 14.442 26.4967 14.655C26.4974 14.7154 26.4981 14.7757 26.4988 14.8379C26.452 15.0655 26.3806 15.1335 26.1975 15.2755C25.9835 15.3097 25.9835 15.3097 25.7247 15.3109C25.6266 15.312 25.5286 15.3131 25.4275 15.3143C25.2661 15.3141 25.2661 15.3141 25.1013 15.3139C24.988 15.3148 24.8747 15.3157 24.758 15.3166C24.4472 15.3191 24.1364 15.3199 23.8257 15.3204C23.5009 15.3212 23.1761 15.3236 22.8514 15.3257C22.2364 15.3296 21.6214 15.3321 21.0063 15.3342C20.3062 15.3366 19.606 15.3405 18.9059 15.3445C17.4656 15.3527 16.0252 15.3591 14.5849 15.3642C14.5974 15.6246 14.6104 15.885 14.6237 16.1454C14.6272 16.2193 14.6307 16.2931 14.6343 16.3693C14.638 16.4404 14.6417 16.5115 14.6455 16.5848C14.6488 16.6503 14.652 16.7157 14.6554 16.7832C14.669 16.9782 14.669 16.9782 14.7622 17.2258C14.8477 17.2133 14.9332 17.2009 15.0213 17.1881C15.8959 17.0666 16.755 17.0127 17.6377 17.0152C17.7334 17.0153 17.7334 17.0153 17.831 17.0154C19.1898 17.0201 20.312 17.2841 21.5854 17.7501C23.6532 18.4972 25.71 17.9769 27.726 17.3343C28.683 17.032 29.6055 16.8567 30.6077 16.8158C30.679 16.8123 30.7503 16.8089 30.8238 16.8054C30.9955 16.7972 31.1672 16.7898 31.339 16.7825C31.3683 16.3145 31.3975 15.8464 31.4277 15.3642C31.0963 15.3592 31.0963 15.3592 30.7583 15.3542C30.5444 15.3501 30.3306 15.3455 30.1167 15.3409C29.968 15.338 29.8194 15.3355 29.6707 15.3335C29.457 15.3305 29.2434 15.3259 29.0297 15.3209C28.9632 15.3203 28.8967 15.3198 28.8282 15.3192C28.3679 15.3062 28.3679 15.3062 28.1502 15.1505C28.0364 14.9745 28.0235 14.8638 28.0259 14.655C28.0252 14.5947 28.0245 14.5344 28.0238 14.4722C28.0718 14.2388 28.132 14.1758 28.325 14.0345C28.6061 13.9992 28.6061 13.9992 28.9574 13.9962C29.0214 13.9953 29.0854 13.9944 29.1514 13.9934C29.3629 13.9908 29.5744 13.9899 29.786 13.9891C29.9327 13.9876 30.0794 13.986 30.226 13.9843C30.6121 13.9801 30.9981 13.9775 31.3842 13.9752C31.7781 13.9725 32.1721 13.9684 32.566 13.9644C33.339 13.9568 34.1119 13.9509 34.8848 13.9459C34.7386 13.2438 34.5923 12.5417 34.4416 11.8184C26.8943 11.8184 19.347 11.8184 11.571 11.8184ZM12.4574 15.3642C12.5205 16.775 12.6129 18.1834 12.7098 19.5922C12.7276 19.8504 12.7452 20.1087 12.7628 20.367C12.8257 21.2885 12.8891 22.21 12.9526 23.1314C12.9576 23.2042 12.9626 23.277 12.9678 23.352C13.0675 24.8002 13.1674 26.2484 13.2677 27.6966C13.2897 28.0132 13.3116 28.3299 13.3335 28.6465C13.3389 28.7251 13.3444 28.8038 13.35 28.8849C13.4385 30.1642 13.5262 31.4435 13.6134 32.7229C13.7032 34.0391 13.7939 35.3553 13.8854 36.6715C13.9367 37.4094 13.9876 38.1474 14.0375 38.8854C14.0799 39.5125 14.1231 40.1396 14.1673 40.7666C14.1898 41.0863 14.212 41.4061 14.2331 41.726C14.256 42.0725 14.2807 42.4188 14.3056 42.7652C14.312 42.8665 14.3184 42.9678 14.325 43.0722C14.332 43.165 14.3389 43.2577 14.3461 43.3532C14.3516 43.4332 14.3571 43.5131 14.3628 43.5954C14.4165 43.8639 14.5159 44.0402 14.6736 44.2628C15.0282 44.469 15.3622 44.4623 15.7662 44.4626C15.8629 44.463 15.8629 44.463 15.9616 44.4634C16.1773 44.4641 16.3929 44.4636 16.6085 44.463C16.7633 44.4632 16.9182 44.4635 17.073 44.4639C17.4931 44.4647 17.9132 44.4644 18.3334 44.4639C18.773 44.4634 19.2127 44.4638 19.6524 44.4641C20.3907 44.4644 21.1291 44.464 21.8674 44.4632C22.7211 44.4622 23.5747 44.4625 24.4284 44.4635C25.1613 44.4643 25.8941 44.4644 26.627 44.4639C27.0648 44.4637 27.5025 44.4636 27.9403 44.4642C28.3518 44.4647 28.7633 44.4644 29.1748 44.4633C29.3259 44.4631 29.4769 44.4632 29.628 44.4636C29.8342 44.4641 30.0403 44.4634 30.2464 44.4626C30.3618 44.4625 30.4772 44.4624 30.596 44.4624C30.8931 44.4403 31.0822 44.4121 31.339 44.2628C31.5626 43.9493 31.6418 43.7122 31.6681 43.3304C31.6791 43.1837 31.6791 43.1837 31.6903 43.034C31.6971 42.927 31.7039 42.82 31.711 42.7097C31.7232 42.5387 31.7232 42.5387 31.7358 42.3642C31.7585 42.0479 31.7797 41.7315 31.8007 41.4151C31.8236 41.0739 31.8478 40.7327 31.8719 40.3914C31.9189 39.7231 31.9646 39.0546 32.0099 38.3861C32.0628 37.6078 32.1169 36.8295 32.1711 36.0512C32.2677 34.6626 32.3633 33.2739 32.4582 31.8851C32.5504 30.5374 32.6431 29.1897 32.7365 27.842C32.7423 27.759 32.7481 27.6761 32.754 27.5905C32.7771 27.257 32.8003 26.9234 32.8234 26.5898C32.9232 25.1509 33.0226 23.7119 33.1219 22.273C33.1326 22.1177 33.1433 21.9625 33.154 21.8073C33.2204 20.8446 33.2867 19.8819 33.3525 18.9192C33.3709 18.6508 33.3893 18.3825 33.4078 18.1141C33.4331 17.7485 33.458 17.3828 33.4829 17.0171C33.4903 16.9103 33.4977 16.8035 33.5054 16.6935C33.512 16.5954 33.5186 16.4974 33.5254 16.3964C33.5312 16.312 33.537 16.2276 33.543 16.1407C33.5559 15.8815 33.5572 15.6237 33.5552 15.3642C33.3504 15.3642 33.1456 15.3642 32.9346 15.3642C32.7772 16.7421 32.6711 18.1224 32.5705 19.5055C32.5527 19.749 32.5347 19.9925 32.5167 20.236C32.4783 20.7569 32.4401 21.2779 32.402 21.7989C32.3416 22.6229 32.2807 23.447 32.2196 24.271C32.1987 24.5538 32.1777 24.8367 32.1568 25.1196C32.1489 25.2255 32.1489 25.2255 32.1409 25.3337C32.0816 26.1345 32.0224 26.9354 31.9632 27.7363C31.9578 27.8094 31.9524 27.8824 31.9469 27.9577C31.8592 29.1448 31.7721 30.3319 31.6852 31.519C31.5957 32.7411 31.5054 33.9631 31.4144 35.1851C31.3584 35.9373 31.3031 36.6895 31.2486 37.4417C31.2112 37.9566 31.1731 38.4715 31.1344 38.9863C31.1121 39.2829 31.0903 39.5796 31.0691 39.8764C31.0461 40.1985 31.0218 40.5204 30.9972 40.8424C30.9877 40.9821 30.9877 40.9821 30.978 41.1245C30.923 41.8173 30.8235 42.5214 30.3417 43.055C30.2937 43.1105 30.2458 43.166 30.1963 43.2232C29.5786 43.7289 28.9224 43.6807 28.1578 43.6781C28.0331 43.6786 27.9084 43.6792 27.7837 43.6799C27.4463 43.6815 27.109 43.6814 26.7716 43.6809C26.4894 43.6806 26.2072 43.6811 25.925 43.6817C25.2591 43.6829 24.5931 43.6828 23.9271 43.6818C23.2413 43.6808 22.5554 43.682 21.8695 43.6844C21.2795 43.6864 20.6895 43.6869 20.0995 43.6864C19.7476 43.6861 19.3957 43.6863 19.0438 43.6879C18.7128 43.6892 18.3819 43.6889 18.0509 43.6872C17.8723 43.6867 17.6938 43.688 17.5152 43.6893C16.7951 43.6835 16.3111 43.6078 15.7384 43.1453C15.0899 42.3707 15.0572 41.469 14.989 40.4979C14.9785 40.3602 14.968 40.2225 14.9574 40.0848C14.929 39.7126 14.9019 39.3404 14.875 38.9682C14.8466 38.5769 14.8171 38.1857 14.7877 37.7945C14.7385 37.1372 14.6901 36.4798 14.6423 35.8224C14.5871 35.0654 14.5309 34.3084 14.4741 33.5515C14.4134 32.7421 14.3534 31.9327 14.2936 31.1233C14.2765 30.8918 14.2592 30.6603 14.2419 30.4289C14.2146 30.0629 14.1878 29.6969 14.1614 29.3309C14.1517 29.1977 14.1418 29.0644 14.1318 28.9312C13.9593 26.6375 13.9593 26.6375 14.1417 26.0903C14.2839 26.0855 14.4261 26.0821 14.5683 26.0793C14.6475 26.0772 14.7267 26.0752 14.8083 26.073C15.0282 26.0903 15.0282 26.0903 15.2941 26.2676C15.3936 26.5662 15.4125 26.8238 15.4354 27.138C15.4423 27.2308 15.4423 27.2308 15.4493 27.3254C15.4646 27.533 15.4795 27.7406 15.4944 27.9482C15.5053 28.0969 15.5162 28.2456 15.5272 28.3942C15.5508 28.7146 15.5742 29.035 15.5974 29.3554C15.6342 29.862 15.6717 30.3686 15.7094 30.8751C15.8163 32.3156 15.9228 33.7561 16.0276 35.1968C16.0854 35.9923 16.1441 36.7877 16.2037 37.583C16.2352 38.004 16.2663 38.4249 16.2963 38.846C16.3246 39.242 16.3539 39.638 16.3841 40.0339C16.3949 40.1792 16.4054 40.3245 16.4155 40.4699C16.4292 40.6684 16.4444 40.8667 16.46 41.065C16.4681 41.1761 16.4763 41.2871 16.4847 41.4015C16.5388 41.713 16.603 41.8895 16.8011 42.1353C17.1126 42.3075 17.3793 42.3349 17.7315 42.3357C17.8283 42.3363 17.9251 42.3369 18.0249 42.3376C18.1829 42.3372 18.1829 42.3372 18.344 42.3369C18.4557 42.3373 18.5673 42.3378 18.6823 42.3383C18.9878 42.3395 19.2933 42.3395 19.5988 42.3393C19.8541 42.3392 20.1094 42.3396 20.3647 42.34C20.9672 42.341 21.5696 42.3411 22.1721 42.3405C22.793 42.34 23.4139 42.3411 24.0348 42.343C24.5685 42.3445 25.1022 42.3451 25.6359 42.3448C25.9544 42.3446 26.2729 42.3449 26.5914 42.3461C26.9466 42.3474 27.3018 42.3466 27.6571 42.3456C27.7622 42.3462 27.8674 42.3469 27.9757 42.3476C28.6785 42.3492 28.6785 42.3492 29.3001 42.0466C29.4516 41.7971 29.5038 41.5917 29.5256 41.3025C29.5318 41.2246 29.538 41.1468 29.5444 41.0665C29.5504 40.9814 29.5565 40.8962 29.5627 40.8085C29.5732 40.6723 29.5732 40.6723 29.584 40.5334C29.6074 40.2283 29.6298 39.9232 29.6522 39.618C29.6687 39.3996 29.6854 39.1812 29.702 38.9628C29.7425 38.4304 29.7823 37.898 29.8218 37.3656C29.8678 36.745 29.9146 36.1244 29.9615 35.5039C30.0451 34.3958 30.1279 33.2877 30.2104 32.1796C30.2903 31.1057 30.3708 30.0319 30.4519 28.9582C30.4568 28.8922 30.4618 28.8261 30.467 28.7581C30.4744 28.6592 30.4744 28.6592 30.482 28.5583C30.5744 27.3347 30.6662 26.1111 30.7578 24.8875C30.7902 24.4556 30.8227 24.0238 30.8552 23.5919C30.8991 23.0093 30.9426 22.4267 30.9857 21.844C31.0016 21.6306 31.0176 21.4172 31.0338 21.2038C31.0559 20.9115 31.0775 20.6192 31.099 20.3269C31.1054 20.2433 31.1118 20.1597 31.1185 20.0736C31.1615 19.4782 31.1683 18.8863 31.1617 18.2895C29.7497 18.2155 28.5399 18.5735 27.2014 18.9851C24.9317 19.6741 22.7655 19.7176 20.5242 18.91C20.3305 18.8429 20.1366 18.7763 19.9425 18.7106C19.8619 18.6827 19.7813 18.6548 19.6983 18.6261C19.0266 18.4266 18.3488 18.4463 17.6543 18.4446C17.5949 18.4444 17.5356 18.4442 17.4744 18.444C16.5733 18.4428 15.7238 18.4985 14.8509 18.7327C14.8897 19.6295 14.9388 20.5244 15.0093 21.4194C15.1347 23.015 15.1347 23.015 15.1445 23.6969C15.146 23.7956 15.1475 23.8944 15.149 23.9961C15.1168 24.2288 15.1168 24.2288 15.0043 24.3933C14.8195 24.5154 14.7163 24.5278 14.4963 24.5224C14.4058 24.5219 14.4058 24.5219 14.3134 24.5214C14.1417 24.4947 14.1417 24.4947 13.8758 24.3174C13.7618 23.9755 13.7471 23.6381 13.7215 23.2811C13.7156 23.2024 13.7096 23.1236 13.7035 23.0425C13.6907 22.8715 13.6781 22.7004 13.6655 22.5293C13.6457 22.2584 13.6255 21.9875 13.6051 21.7166C13.5693 21.239 13.5339 20.7614 13.4985 20.2837C13.4421 19.52 13.3853 18.7564 13.328 17.9928C13.3081 17.7262 13.2885 17.4596 13.269 17.1929C13.2567 17.0289 13.2445 16.8649 13.2322 16.7009C13.2242 16.59 13.2242 16.59 13.216 16.4768C13.1876 16.1015 13.1471 15.7348 13.0779 15.3642C12.8732 15.3642 12.6684 15.3642 12.4574 15.3642Z" fill="black"/>
<path d="M19.9252 19.475C20.1535 19.6432 20.3751 19.8178 20.5958 19.9958C20.7609 20.1255 20.9262 20.255 21.0916 20.3843C21.1744 20.4494 21.2571 20.5144 21.3423 20.5814C21.7075 20.8645 22.0814 21.1346 22.4573 21.4031C22.6403 21.5338 22.8233 21.6646 23.0057 21.7962C23.1298 21.8855 23.2545 21.974 23.3796 22.0619C23.4748 22.1304 23.4748 22.1304 23.572 22.2002C23.6292 22.2407 23.6864 22.2813 23.7454 22.3231C23.9132 22.4746 23.9883 22.6001 24.0696 22.8103C24.0855 23.4485 23.7244 23.822 23.3382 24.3007C23.2086 24.4658 23.0791 24.6311 22.9497 24.7965C22.8522 24.9206 22.8522 24.9206 22.7526 25.0472C22.4696 25.4124 22.1995 25.7863 21.931 26.1622C21.8002 26.3452 21.6694 26.5282 21.5379 26.7106C21.4486 26.8347 21.36 26.9594 21.2721 27.0845C21.2037 27.1797 21.2037 27.1797 21.1339 27.2769C21.0933 27.3341 21.0528 27.3913 21.011 27.4503C20.8594 27.6181 20.734 27.6933 20.5237 27.7745C19.8878 27.7895 19.5165 27.4335 19.0389 27.0487C18.874 26.9193 18.7089 26.79 18.5438 26.6609C18.4605 26.5953 18.3772 26.5297 18.2914 26.4621C17.907 26.1626 17.515 25.8739 17.122 25.586C17.0541 25.5361 16.9863 25.4862 16.9164 25.4348C16.6153 25.2138 16.3132 24.995 16.0076 24.7803C15.6236 24.5008 15.6236 24.5008 15.5596 24.2286C15.5637 23.5881 15.8952 23.228 16.2854 22.7438C16.4148 22.5789 16.544 22.4138 16.6732 22.2487C16.7388 22.1654 16.8044 22.0821 16.8719 21.9963C17.1714 21.612 17.4601 21.22 17.748 20.8269C17.7979 20.759 17.8478 20.6912 17.8992 20.6213C18.1203 20.3203 18.339 20.0181 18.5538 19.7126C18.9304 19.195 19.3795 19.1412 19.9252 19.475ZM19.46 21.126C18.7353 21.9791 18.0794 22.8809 17.4211 23.7854C17.7973 24.1834 18.2127 24.5146 18.6456 24.8492C18.7137 24.9026 18.7819 24.9561 18.8521 25.0112C19.2766 25.3408 19.7087 25.6357 20.1692 25.9129C20.8938 25.0598 21.5497 24.1581 22.208 23.2535C21.8319 22.8555 21.4164 22.5243 20.9836 22.1898C20.9154 22.1363 20.8473 22.0828 20.777 22.0277C20.3526 21.6982 19.9204 21.4032 19.46 21.126Z" fill="black"/>
<path d="M25.0448 25.6467C25.5846 26.0362 26.0492 26.5494 26.5181 27.0196C26.5878 27.0892 26.6574 27.1587 26.7291 27.2303C26.8749 27.376 27.0205 27.5218 27.166 27.6677C27.3895 27.8917 27.6136 28.1153 27.8376 28.3388C27.9796 28.4808 28.1215 28.6228 28.2634 28.7648C28.3305 28.8318 28.3976 28.8987 28.4668 28.9677C28.5284 29.0296 28.59 29.0915 28.6534 29.1552C28.7078 29.2096 28.7621 29.2641 28.8181 29.3201C28.9863 29.5032 29.0314 29.6228 29.0781 29.8684C28.9746 30.567 28.1454 31.1577 27.6609 31.641C27.5913 31.7106 27.5218 31.7802 27.4501 31.852C27.3045 31.9977 27.1587 32.1433 27.0128 32.2888C26.7888 32.5124 26.5652 32.7364 26.3417 32.9605C26.1997 33.1024 26.0577 33.2443 25.9156 33.3862C25.8487 33.4533 25.7817 33.5205 25.7128 33.5896C25.6509 33.6512 25.589 33.7128 25.5253 33.7763C25.4708 33.8306 25.4164 33.885 25.3603 33.941C25.1773 34.1092 25.0577 34.1542 24.8121 34.201C24.1135 34.0975 23.5227 33.2683 23.0395 32.7837C22.9699 32.7142 22.9003 32.6446 22.8285 32.573C22.6828 32.4273 22.5372 32.2815 22.3916 32.1356C22.1681 31.9116 21.9441 31.6881 21.72 31.4646C21.5781 31.3226 21.4362 31.1805 21.2943 31.0385C21.2272 30.9715 21.16 30.9046 21.0909 30.8356C21.0293 30.7737 20.9677 30.7119 20.9042 30.6481C20.8499 30.5937 20.7955 30.5393 20.7395 30.4832C20.5713 30.3001 20.5263 30.1806 20.4795 29.9349C20.583 29.2363 21.4122 28.6456 21.8968 28.1623C22.0011 28.0579 22.0011 28.0579 22.1075 27.9514C22.2532 27.8056 22.399 27.66 22.5449 27.5145C22.7689 27.2909 22.9924 27.0669 23.2159 26.8429C23.3579 26.7009 23.4999 26.559 23.642 26.4171C23.7089 26.35 23.7759 26.2829 23.8449 26.2137C23.9067 26.1521 23.9686 26.0905 24.0324 26.0271C24.0868 25.9727 24.1412 25.9184 24.1973 25.8623C24.4701 25.6117 24.682 25.5929 25.0448 25.6467ZM24.4585 27.7198C24.3614 27.8169 24.2649 27.9144 24.1687 28.0124C24.1178 28.0636 24.0669 28.1147 24.0144 28.1674C23.8514 28.3314 23.6891 28.496 23.5267 28.6606C23.4165 28.7717 23.3063 28.8827 23.196 28.9937C22.9253 29.2664 22.6552 29.5395 22.3854 29.813C22.5275 30.1681 22.7773 30.4049 23.0454 30.6676C23.0923 30.7143 23.1393 30.7611 23.1877 30.8092C23.3372 30.9577 23.4874 31.1056 23.6375 31.2535C23.7392 31.3544 23.8409 31.4552 23.9426 31.5562C24.1913 31.8029 24.4406 32.0492 24.6902 32.2951C25.0452 32.1529 25.2821 31.9032 25.5448 31.6351C25.5915 31.5881 25.6382 31.5412 25.6864 31.4928C25.8349 31.3433 25.9828 31.1931 26.1307 31.043C26.2315 30.9413 26.3324 30.8396 26.4333 30.7379C26.6801 30.4892 26.9263 30.2399 27.1723 29.9903C27.0301 29.6375 26.7838 29.3989 26.5185 29.1357C26.4719 29.089 26.4254 29.0423 26.3774 28.9941C26.2793 28.8959 26.1809 28.7978 26.0824 28.7C25.9311 28.5497 25.7809 28.3985 25.6307 28.2472C25.5351 28.1518 25.4396 28.0564 25.3439 27.9611C25.2989 27.9157 25.2538 27.8703 25.2074 27.8235C24.854 27.4502 24.854 27.4502 24.4585 27.7198Z" fill="black"/>
<path d="M24.9555 34.6001C25.2909 34.724 25.6063 34.8821 25.9251 35.0433C26.0145 35.0875 26.104 35.1317 26.1961 35.1772C26.3769 35.2666 26.5575 35.3566 26.7379 35.4471C26.9699 35.563 27.203 35.6764 27.4369 35.7885C27.5646 35.8503 27.6923 35.9122 27.8199 35.9741C27.8781 36.0019 27.9363 36.0296 27.9963 36.0583C28.2815 36.1992 28.4091 36.2789 28.59 36.5503C28.679 37.1611 28.4178 37.6046 28.1468 38.1404C28.1026 38.2298 28.0584 38.3193 28.0129 38.4114C27.9235 38.5923 27.8335 38.7728 27.743 38.9532C27.6271 39.1853 27.5137 39.4183 27.4016 39.6522C27.3398 39.7799 27.2779 39.9076 27.216 40.0352C27.1882 40.0934 27.1605 40.1516 27.1318 40.2116C26.9909 40.4968 26.9112 40.6244 26.6398 40.8053C26.0314 40.893 25.5896 40.6369 25.0552 40.3676C24.9215 40.3018 24.9215 40.3018 24.7851 40.2347C24.516 40.1015 24.2481 39.9663 23.9804 39.8302C23.8615 39.77 23.8615 39.77 23.7401 39.7086C23.5278 39.6006 23.3162 39.4915 23.105 39.3814C23.0419 39.3487 22.9787 39.316 22.9136 39.2822C22.4841 39.0538 22.4841 39.0538 22.3848 38.8551C22.3064 38.2402 22.5549 37.805 22.828 37.265C22.8722 37.1756 22.9163 37.0861 22.9619 36.994C23.0513 36.8132 23.1413 36.6326 23.2318 36.4522C23.3477 36.2202 23.4611 35.9871 23.5732 35.7532C23.635 35.6255 23.6969 35.4978 23.7588 35.3702C23.7866 35.312 23.8143 35.2538 23.8429 35.1938C24.0985 34.6766 24.3836 34.4985 24.9555 34.6001ZM24.9555 36.373C24.822 36.6498 24.6892 36.9269 24.5566 37.2041C24.5186 37.2829 24.4805 37.3618 24.4413 37.443C24.4053 37.5184 24.3693 37.5938 24.3322 37.6715C24.2988 37.7412 24.2654 37.8108 24.2309 37.8825C24.1463 38.053 24.1463 38.053 24.1577 38.2346C24.4345 38.3681 24.7116 38.5009 24.9888 38.6335C25.0676 38.6715 25.1465 38.7096 25.2277 38.7488C25.3031 38.7848 25.3785 38.8208 25.4562 38.8579C25.5259 38.8913 25.5955 38.9247 25.6672 38.9592C25.8377 39.0438 25.8377 39.0438 26.0193 39.0324C26.1528 38.7556 26.2856 38.4785 26.4182 38.2013C26.4562 38.1225 26.4943 38.0436 26.5335 37.9624C26.5695 37.887 26.6055 37.8116 26.6426 37.7339C26.676 37.6642 26.7094 37.5946 26.7438 37.5229C26.8285 37.3524 26.8285 37.3524 26.8171 37.1708C26.5403 37.0373 26.2632 36.9045 25.986 36.7719C25.9072 36.7339 25.8283 36.6958 25.7471 36.6566C25.6717 36.6206 25.5963 36.5846 25.5186 36.5475C25.4489 36.5141 25.3793 36.4807 25.3075 36.4463C25.1371 36.3616 25.1371 36.3616 24.9555 36.373Z" fill="black"/>
<path d="M27.4617 19.9938C27.5906 20.0383 27.7192 20.0838 27.8474 20.1302C27.9162 20.1546 27.9851 20.179 28.0561 20.2041C28.2002 20.2555 28.3442 20.3074 28.488 20.3597C28.7076 20.4392 28.928 20.5162 29.1485 20.5932C29.2892 20.6437 29.4298 20.6943 29.5704 20.7452C29.6359 20.7678 29.7014 20.7905 29.7688 20.8138C30.1626 20.9599 30.4322 21.0891 30.6297 21.4807C30.659 22.0228 30.4779 22.5388 30.2959 23.042C30.2715 23.1109 30.2471 23.1797 30.2219 23.2507C30.1705 23.3948 30.1187 23.5388 30.0663 23.6826C29.9868 23.9022 29.9098 24.1226 29.8329 24.3431C29.7824 24.4838 29.7317 24.6245 29.6809 24.7651C29.6583 24.8305 29.6356 24.896 29.6123 24.9635C29.4661 25.3572 29.3369 25.6268 28.9454 25.8243C28.4033 25.8536 27.8873 25.6725 27.3841 25.4905C27.3152 25.4661 27.2463 25.4417 27.1754 25.4166C27.0312 25.3651 26.8873 25.3133 26.7434 25.261C26.5238 25.1815 26.3035 25.1044 26.0829 25.0275C25.9423 24.977 25.8016 24.9263 25.661 24.8755C25.5955 24.8529 25.5301 24.8302 25.4626 24.8069C25.0689 24.6607 24.7992 24.5316 24.6018 24.14C24.5725 23.5979 24.7536 23.0819 24.9356 22.5787C24.96 22.5098 24.9844 22.441 25.0095 22.37C25.0609 22.2259 25.1128 22.0819 25.1651 21.9381C25.2446 21.7185 25.3216 21.4981 25.3985 21.2776C25.4491 21.1369 25.4997 20.9962 25.5506 20.8556C25.5845 20.7574 25.5845 20.7574 25.6192 20.6572C25.9793 19.687 26.572 19.7186 27.4617 19.9938ZM26.9952 21.5693C26.7223 22.1849 26.4963 22.7676 26.3747 23.4309C26.9902 23.7037 27.573 23.9298 28.2362 24.0514C28.5091 23.4358 28.7352 22.8531 28.8568 22.1898C28.2412 21.9169 27.6585 21.6909 26.9952 21.5693Z" fill="black"/>
<path d="M21.2595 31.636C21.4536 31.915 21.4894 32.1723 21.5219 32.5022C21.5293 32.5657 21.5367 32.6291 21.5443 32.6945C21.5596 32.829 21.5741 32.9635 21.588 33.0982C21.6088 33.2999 21.632 33.5013 21.6556 33.7027C21.9046 35.9001 21.9046 35.9001 21.6257 36.3113C21.3466 36.5054 21.0894 36.5412 20.7594 36.5737C20.696 36.5811 20.6325 36.5884 20.5672 36.596C20.4327 36.6113 20.2981 36.6259 20.1635 36.6397C19.9617 36.6606 19.7603 36.6837 19.5589 36.7073C17.3615 36.9564 17.3615 36.9564 16.9504 36.6774C16.7562 36.3984 16.7204 36.1411 16.688 35.8112C16.6806 35.7477 16.6732 35.6843 16.6656 35.6189C16.6503 35.4844 16.6358 35.3499 16.6219 35.2152C16.6011 35.0135 16.5779 34.8121 16.5543 34.6107C16.3053 32.4133 16.3053 32.4133 16.5842 32.0021C16.8633 31.808 17.1205 31.7722 17.4504 31.7397C17.5139 31.7323 17.5774 31.725 17.6427 31.7174C17.7772 31.7021 17.9118 31.6875 18.0464 31.6737C18.2482 31.6528 18.4495 31.6297 18.651 31.6061C20.8483 31.357 20.8483 31.357 21.2595 31.636ZM19.9028 33.0043C19.6275 33.0289 19.3523 33.0553 19.0772 33.0819C18.9991 33.0888 18.921 33.0958 18.8406 33.103C18.7279 33.1141 18.7279 33.1141 18.6129 33.1255C18.5091 33.1352 18.5091 33.1352 18.4033 33.1452C18.1923 33.1745 18.1923 33.1745 17.9525 33.3589C17.9772 33.6342 18.0035 33.9093 18.0301 34.1844C18.0371 34.2625 18.0441 34.3406 18.0512 34.4211C18.0587 34.4962 18.0661 34.5713 18.0737 34.6488C18.0802 34.7179 18.0867 34.7871 18.0934 34.8584C18.1227 35.0693 18.1227 35.0693 18.3071 35.3091C18.5824 35.2845 18.8575 35.2581 19.1326 35.2315C19.2107 35.2246 19.2889 35.2176 19.3693 35.2104C19.482 35.1993 19.482 35.1993 19.597 35.1879C19.6662 35.1814 19.7353 35.1749 19.8066 35.1682C20.0175 35.1389 20.0175 35.1389 20.2573 34.9545C20.2327 34.6792 20.2064 34.4041 20.1798 34.129C20.1728 34.0509 20.1658 33.9728 20.1587 33.8923C20.1475 33.7796 20.1475 33.7796 20.1361 33.6646C20.1296 33.5955 20.1231 33.5263 20.1164 33.455C20.0872 33.2441 20.0872 33.2441 19.9028 33.0043Z" fill="black"/>
</g>
<defs>
<clipPath id="clip0_358_1036">
<rect width="45.3867" height="45.3867" fill="white" transform="translate(0.3125 0.47168)"/>
</clipPath>
</defs>
</svg>
