<svg width="46" height="46" viewBox="0 0 46 46" fill="none" xmlns="http://www.w3.org/2000/svg">
<path d="M32.3523 2.89434C33.2767 3.62564 33.9831 4.69134 34.1564 5.87402C34.2528 6.97714 34.1345 8.15999 33.4438 9.07082C33.2171 9.24586 33.0408 9.26486 32.7568 9.27927C32.5158 9.19651 32.5158 9.19651 32.2692 9.0632C32.1783 9.01463 32.0873 8.96607 31.9936 8.91603C31.8944 8.86038 31.7952 8.80473 31.693 8.7474C31.637 8.71599 31.5809 8.68458 31.5232 8.65222C31.1644 8.45053 30.8076 8.2455 30.452 8.03823C30.4287 8.10207 30.4054 8.16591 30.3814 8.23169C30.2717 8.48845 30.1419 8.70073 29.9859 8.93196C29.9305 9.01452 29.8751 9.09708 29.818 9.18214C29.7314 9.30975 29.7314 9.30975 29.6431 9.43994C29.5847 9.52673 29.5263 9.61352 29.4661 9.70294C29.3223 9.91655 29.1782 10.1299 29.0336 10.343C29.0909 10.3434 29.1481 10.3438 29.207 10.3441C29.467 10.347 29.7267 10.3533 29.9866 10.3596C30.0766 10.3602 30.1667 10.3607 30.2595 10.3612C30.9127 10.3805 30.9127 10.3805 31.229 10.6079C31.481 11.2227 31.1981 11.925 31.0393 12.5426C30.722 13.8263 30.5043 15.1366 30.452 16.4596C30.4491 16.5183 30.4462 16.5769 30.4432 16.6374C30.3641 18.4114 30.7569 20.0975 31.1667 21.8116C31.8928 24.8557 32.2083 27.5361 30.5818 30.3462C30.2446 30.8807 29.8207 31.3368 29.3882 31.7953C29.3392 31.8501 29.2902 31.9048 29.2397 31.9612C27.9316 33.3667 25.785 34.3193 23.8922 34.5434C23.7167 34.5434 23.5411 34.5434 23.3603 34.5434C23.3603 37.1176 23.3603 39.6919 23.3603 42.3442C24.3842 42.3442 25.408 42.3442 26.4629 42.3442C26.8175 42.6988 26.8175 42.6988 26.8646 42.8761C26.8637 42.9346 26.8628 42.9931 26.8618 43.0534C26.8627 43.1119 26.8637 43.1704 26.8646 43.2307C26.794 43.4966 26.6794 43.5935 26.4629 43.7625C26.2228 43.7998 26.0172 43.8161 25.7769 43.8166C25.7098 43.818 25.6426 43.8195 25.5734 43.821C25.3583 43.8253 25.1433 43.8272 24.9282 43.829C24.7874 43.8315 24.6465 43.8342 24.5056 43.837C23.1572 43.8619 21.8082 43.8589 20.4598 43.8328C20.3123 43.8302 20.1647 43.8284 20.0171 43.8272C19.8005 43.8253 19.584 43.8211 19.3674 43.8166C19.3017 43.8164 19.236 43.8163 19.1682 43.8162C18.8589 43.8074 18.6912 43.7852 18.4436 43.5929C18.2958 43.392 18.2593 43.2998 18.2632 43.0534C18.2623 42.9949 18.2613 42.9364 18.2604 42.8761C18.3075 42.6988 18.3075 42.6988 18.6621 42.3442C19.7152 42.3442 20.7683 42.3442 21.8533 42.3442C21.8533 39.7699 21.8533 37.1956 21.8533 34.5434C21.473 34.5141 21.0927 34.4849 20.7009 34.4547C18.7406 34.1088 17.0466 33.0927 15.6481 31.7067C15.5693 31.629 15.4904 31.5513 15.4092 31.4712C14.0459 30.0537 13.289 28.1409 13.2935 26.1774C13.2937 26.0755 13.2939 25.9737 13.2941 25.8687C13.3203 24.5956 13.5949 23.3698 13.8752 22.1329C13.8993 22.0258 13.9234 21.9187 13.9483 21.8084C13.9953 21.6 14.0424 21.3916 14.0895 21.1832C14.1233 21.0335 14.1233 21.0335 14.1578 20.8808C14.18 20.7827 14.2022 20.6846 14.225 20.5836C14.8967 17.5708 14.7322 14.6497 13.8638 11.6772C13.7498 11.278 13.7129 11.0131 13.9116 10.6401C14.2557 10.3276 14.5605 10.3758 15.0096 10.3884C15.1357 10.3893 15.1357 10.3893 15.2645 10.3903C15.5328 10.3928 15.8009 10.3983 16.0692 10.404C16.2512 10.4062 16.4332 10.4082 16.6153 10.41C17.0612 10.4149 17.507 10.4226 17.9529 10.4317C17.74 9.86676 17.527 9.30191 17.3139 8.7371C17.2414 8.54484 17.1689 8.35257 17.0965 8.16029C16.9925 7.88434 16.8884 7.60843 16.7842 7.33253C16.7517 7.24618 16.7192 7.15984 16.6857 7.07089C16.6556 6.99104 16.6254 6.91118 16.5943 6.82891C16.5678 6.75844 16.5412 6.68797 16.5138 6.61536C16.4477 6.43952 16.4477 6.43952 16.3573 6.26531C14.6606 6.23606 12.9639 6.20681 11.2158 6.17667C11.2158 5.70862 11.2158 5.24056 11.2158 4.75833C13.2928 4.75833 15.3698 4.75833 17.5097 4.75833C17.762 5.41653 18.0143 6.07472 18.2743 6.75286C18.3527 6.95746 18.4312 7.16207 18.512 7.37287C18.5761 7.54017 18.6402 7.70748 18.7043 7.87479C18.7361 7.95749 18.7678 8.04019 18.8005 8.1254C19.0831 8.86323 19.3604 9.60301 19.6372 10.343C20.5723 10.4135 21.5069 10.4667 22.4442 10.4992C22.8798 10.5148 23.3136 10.5358 23.7482 10.5704C25.5859 10.7725 25.5859 10.7725 27.2723 10.2037C28.1098 9.42113 28.6483 8.35819 29.1223 7.32906C28.8441 7.11659 28.5616 6.93809 28.257 6.76498C28.1577 6.70825 28.0585 6.65151 27.9562 6.59306C27.7492 6.47522 27.5421 6.35755 27.335 6.23986C25.7235 5.31834 25.7235 5.31834 25.5765 5.02427C25.5024 4.50576 25.6385 4.21961 25.9352 3.81266C27.5389 1.89786 30.2739 1.46541 32.3523 2.89434ZM27.438 4.40375C27.6591 4.65157 27.9036 4.79667 28.1919 4.95917C28.341 5.04376 28.341 5.04376 28.4932 5.13005C28.6013 5.19083 28.7094 5.2516 28.8176 5.31237C28.9847 5.40687 29.1517 5.50152 29.3187 5.59618C29.4336 5.6613 29.5486 5.72637 29.6635 5.79139C30.0636 6.01784 30.4622 6.24668 30.8599 6.47723C30.9132 6.50813 30.9665 6.53903 31.0215 6.57086C31.2776 6.7193 31.5335 6.86796 31.7893 7.01681C31.8804 7.06957 31.9714 7.12234 32.0653 7.1767C32.1857 7.24672 32.1857 7.24672 32.3086 7.31815C32.4692 7.42479 32.4692 7.42479 32.5795 7.41771C32.7923 6.56642 32.6434 5.77126 32.2138 5.01319C31.7472 4.32504 31.0957 3.78489 30.2747 3.60593C29.1363 3.48792 28.3292 3.70628 27.438 4.40375ZM15.5595 11.85C15.618 12.201 15.6765 12.5521 15.7368 12.9138C15.7991 13.2958 15.8596 13.6782 15.9196 14.0606C15.935 14.1561 15.9503 14.2516 15.9662 14.3499C16.2743 16.3225 16.2118 18.133 15.868 20.0947C15.816 20.4183 15.7774 20.7439 15.7368 21.0692C17.8137 21.0692 19.8907 21.0692 22.0306 21.0692C21.8327 20.3953 21.8327 20.3953 21.6038 19.7371C21.5749 19.6609 21.546 19.5847 21.5163 19.5062C21.4856 19.4261 21.4549 19.3461 21.4233 19.2637C21.3903 19.1771 21.3573 19.0904 21.3234 19.0011C21.2159 18.7189 21.108 18.4369 21.0001 18.1549C20.9253 17.9589 20.8505 17.7628 20.7758 17.5667C20.0478 15.6588 19.3118 13.7539 18.5734 11.85C17.5788 11.85 16.5842 11.85 15.5595 11.85ZM20.1691 11.85C20.4793 12.729 20.7889 13.6044 21.1227 14.4741C21.1604 14.5729 21.1982 14.6716 21.2371 14.7734C21.3573 15.0881 21.4779 15.4026 21.5985 15.7172C21.6817 15.9345 21.7649 16.1519 21.848 16.3693C22.0497 16.896 22.2517 17.4226 22.4538 17.9492C22.553 18.2078 22.6522 18.4664 22.7513 18.7251C22.88 19.0607 23.0089 19.3961 23.1381 19.7315C23.1826 19.847 23.227 19.9624 23.2713 20.078C23.3307 20.2328 23.3905 20.3875 23.4503 20.5422C23.4826 20.6258 23.5148 20.7094 23.5481 20.7956C23.6107 20.9761 23.6107 20.9761 23.7149 21.0692C23.8917 21.0775 24.0688 21.0796 24.2458 21.0792C24.4161 21.0792 24.4161 21.0792 24.5899 21.0792C24.7148 21.0788 24.8397 21.0783 24.9646 21.0778C25.0917 21.0777 25.2187 21.0775 25.3458 21.0775C25.6808 21.0771 26.0159 21.0762 26.3509 21.0753C26.6926 21.0744 27.0342 21.074 27.3759 21.0735C28.0467 21.0726 28.7174 21.071 29.3882 21.0692C29.3603 20.9008 29.3323 20.7324 29.3043 20.5639C29.2809 20.4233 29.2809 20.4233 29.2571 20.2798C29.2178 20.046 29.1771 19.8125 29.1355 19.5792C28.7163 17.1312 29.0194 14.7385 29.5277 12.3268C29.5734 12.108 29.5734 12.108 29.5655 11.85C26.4647 11.85 23.3639 11.85 20.1691 11.85ZM15.3822 22.5762C14.77 24.8208 14.4516 27.0057 15.5802 29.1405C16.7247 31.0521 18.4951 32.3216 20.6441 32.8781C22.868 33.3577 25.0598 33.0298 26.9948 31.7953C28.5927 30.7219 29.803 29.2359 30.2339 27.3285C30.4831 25.9152 30.3919 23.8744 29.7428 22.5762C25.0038 22.5762 20.2648 22.5762 15.3822 22.5762Z" fill="black"/>
<path d="M28.3246 26.7427C28.6488 26.9682 28.7513 27.1089 28.8343 27.4961C28.7545 28.7023 27.5337 29.9374 26.6892 30.7051C26.087 31.2097 25.2868 31.7243 24.5018 31.8343C24.1594 31.7822 24.0257 31.7087 23.8037 31.4409C23.7405 31.1633 23.7217 30.9169 23.8037 30.6431C24.0982 30.3581 24.424 30.1903 24.7899 30.0115C25.9446 29.3969 26.7245 28.4886 27.283 27.3133C27.5323 26.8236 27.7659 26.6514 28.3246 26.7427Z" fill="black"/>
</svg>
