<svg width="46" height="46" viewBox="0 0 46 46" fill="none" xmlns="http://www.w3.org/2000/svg">
<g clip-path="url(#clip0_358_1083)">
<path d="M23.2975 0.469769C23.3866 0.470182 23.4757 0.470594 23.5675 0.471019C24.8535 0.477987 26.1177 0.504425 27.3807 0.768949C27.4671 0.786561 27.5535 0.804173 27.6426 0.822319C30.0311 1.32196 32.2782 2.13363 34.4225 3.29536C34.4906 3.33207 34.5587 3.36879 34.6288 3.40662C34.9479 3.58416 35.2414 3.75972 35.5267 3.98966C36.3188 4.62631 36.9288 4.67905 37.924 4.61951C38.1815 4.60848 38.439 4.59968 38.6966 4.59146C38.7589 4.5892 38.8212 4.58694 38.8854 4.58462C39.6941 4.56246 40.74 4.56877 41.3868 5.1126C41.9538 5.80429 41.9392 6.86906 41.9048 7.71865C41.9009 7.81513 41.9009 7.81513 41.8969 7.91356C41.8943 7.97877 41.8917 8.04398 41.889 8.11117C41.8032 9.73532 41.8032 9.73532 42.552 11.1204C42.5941 11.1659 42.6362 11.2113 42.6796 11.2582C42.9153 11.5366 43.0808 11.8569 43.2539 12.1766C43.2905 12.2437 43.3272 12.3108 43.365 12.3799C44.5012 14.4903 45.2904 16.7629 45.7304 19.1187C45.7448 19.19 45.7592 19.2614 45.774 19.3349C46.2591 21.8162 46.2486 24.7999 45.7304 27.2741C45.704 27.4037 45.704 27.4037 45.677 27.5359C44.8037 31.711 42.9434 35.5321 40.0134 38.6457C39.8563 38.8161 39.7079 38.9857 39.5616 39.1647C39.3888 39.37 39.2253 39.5407 39.021 39.7122C38.7543 39.9389 38.496 40.1718 38.2398 40.4103C35.2917 43.0578 31.5586 44.7723 27.6965 45.5628C27.6328 45.5759 27.5691 45.589 27.5034 45.6024C26.2025 45.8497 24.9149 45.9206 23.5931 45.9177C23.3325 45.9174 23.072 45.9195 22.8115 45.9217C21.626 45.9257 20.4828 45.8188 19.3139 45.6238C19.1627 45.5988 19.1627 45.5988 19.0085 45.5732C18.7784 45.5319 18.5504 45.4859 18.3222 45.4354C18.1991 45.4082 18.1991 45.4082 18.0735 45.3804C15.1326 44.6966 12.3512 43.4173 9.91746 41.6347C9.86667 41.5978 9.81588 41.561 9.76354 41.523C9.09324 41.0332 8.47816 40.4999 7.87618 39.9293C7.69978 39.7626 7.51907 39.605 7.33115 39.4515C7.12876 39.2815 6.96128 39.1213 6.79269 38.9199C6.62061 38.717 6.44753 38.5187 6.26428 38.3257C2.82367 34.6958 0.632337 29.3496 0.588519 24.3439C0.587651 24.2614 0.586784 24.1788 0.585889 24.0937C0.57058 22.26 0.583235 20.4776 0.964225 18.6754C0.983694 18.5831 1.00316 18.4907 1.02322 18.3955C1.81728 14.7551 3.46516 11.4348 5.83975 8.56979C5.88186 8.51847 5.92397 8.46715 5.96735 8.41427C6.0928 8.26303 6.22057 8.11419 6.34946 7.96589C6.42397 7.87939 6.49847 7.79288 6.57523 7.70376C6.86856 7.46172 7.05866 7.42617 7.43538 7.41739C7.74299 7.58457 7.85142 7.69841 7.97279 8.02683C7.96232 8.55065 7.60772 8.84249 7.26917 9.20693C6.20343 10.3778 5.3464 11.6996 4.59871 13.0907C4.54975 13.1813 4.54975 13.1813 4.4998 13.2737C3.28467 15.5462 2.56423 17.9899 2.20527 20.537C2.18975 20.6457 2.17423 20.7545 2.15824 20.8665C2.10837 21.2726 2.09921 21.6757 2.0955 22.0845C2.09463 22.1636 2.09376 22.2427 2.09286 22.3242C2.07741 24.0906 2.08634 25.8071 2.47121 27.54C2.49213 27.6346 2.51306 27.7292 2.53462 27.8267C3.17977 30.6353 4.36504 33.389 6.10569 35.6954C6.14518 35.7485 6.18468 35.8015 6.22537 35.8561C6.81672 36.646 7.4609 37.378 8.14454 38.0889C8.18615 38.1324 8.22776 38.176 8.27063 38.2209C9.52198 39.5248 11.0013 40.6582 12.5768 41.5461C12.6467 41.5855 12.7166 41.6249 12.7885 41.6655C17.7861 44.4493 23.5713 45.2028 29.0976 43.6715C31.4843 42.973 33.8129 41.8949 35.8021 40.3937C35.8551 40.3542 35.9081 40.3147 35.9627 40.274C36.7526 39.6826 37.4847 39.0385 38.1955 38.3548C38.2608 38.2924 38.2608 38.2924 38.3275 38.2287C39.6314 36.9774 40.7648 35.4981 41.6527 33.9225C41.6921 33.8527 41.7315 33.7828 41.7721 33.7108C43.3822 30.8205 44.4889 27.5653 44.5074 24.2286C44.5083 24.1148 44.5083 24.1148 44.5093 23.9987C44.5305 21.6347 44.5305 21.6347 44.2234 19.2959C44.2053 19.2071 44.1873 19.1183 44.1686 19.0268C43.8219 17.3779 43.3172 15.8237 42.6278 14.2875C42.5932 14.2102 42.5585 14.1329 42.5228 14.0533C42.2412 13.4436 41.9098 12.8683 41.5641 12.2929C41.5462 12.3658 41.5283 12.4387 41.5099 12.5137C41.4431 12.7856 41.376 13.0573 41.3087 13.329C41.2797 13.4464 41.2508 13.5637 41.222 13.6811C41.1805 13.8504 41.1385 14.0196 41.0966 14.1888C41.059 14.3413 41.059 14.3413 41.0206 14.4968C40.833 15.1737 40.833 15.1737 40.5003 15.3955C40.1856 15.4241 39.9598 15.4313 39.6692 15.3013C39.4637 15.0562 39.4366 14.8201 39.4366 14.5091C39.4937 14.1815 39.5846 13.8649 39.6748 13.545C39.881 12.7702 40.0489 11.9991 40.1734 11.207C40.1875 11.1186 40.2016 11.0301 40.2161 10.939C40.3584 10.001 40.4275 9.06963 40.4227 8.12102C40.4226 8.03673 40.4224 7.95244 40.4222 7.8656C40.4187 7.29916 40.3983 6.73844 40.323 6.17635C36.2765 5.63424 31.3173 6.55745 28.0012 9.01302C27.623 9.31488 27.2773 9.64413 26.9375 9.98812C26.8786 10.0461 26.8198 10.104 26.7591 10.1637C25.5068 11.4835 25.0396 13.265 25.0572 15.0413C25.115 16.5081 25.6397 17.7745 26.4942 18.9414C28.3167 17.4802 29.9653 16.1137 30.2512 13.6854C30.3096 13.0858 30.3535 12.4882 30.3696 11.8859C30.3838 11.5515 30.4305 11.2711 30.572 10.9632C30.9018 10.7434 31.0682 10.7449 31.4584 10.7859C31.7214 10.9658 31.7984 11.0766 31.8694 11.3873C31.9016 11.6718 31.8902 11.9066 31.8521 12.1897C31.8398 12.284 31.8276 12.3783 31.8149 12.4754C31.8015 12.5724 31.7881 12.6694 31.7742 12.7694C31.7546 12.918 31.7546 12.918 31.7346 13.0696C31.7023 13.3131 31.6693 13.5566 31.6357 13.7999C31.7419 13.6919 31.7419 13.6919 31.8503 13.5817C32.5179 12.9033 33.1869 12.2263 33.8574 11.5507C34.202 11.2033 34.5461 10.8554 34.8891 10.5064C35.2201 10.1696 35.5525 9.83404 35.8858 9.49939C36.0126 9.37152 36.1391 9.24319 36.265 9.11438C36.4415 8.93396 36.6197 8.75528 36.7983 8.57691C36.85 8.52335 36.9016 8.46979 36.9548 8.41461C37.2905 8.08389 37.5269 7.95264 38.0182 7.94927C38.3293 8.11835 38.4358 8.22863 38.5501 8.56425C38.5501 8.96223 38.3708 9.18163 38.1108 9.4736C38.0453 9.53876 37.9797 9.60392 37.9122 9.67105C37.8377 9.74555 37.7632 9.82006 37.6864 9.89682C37.6063 9.97597 37.5262 10.0551 37.4437 10.1367C37.3615 10.2187 37.2792 10.3007 37.1945 10.3852C36.9767 10.6023 36.7584 10.8188 36.54 11.0353C36.3168 11.2566 36.0942 11.4785 35.8715 11.7003C35.4352 12.1347 34.9983 12.5686 34.561 13.0021C34.6455 12.99 34.6455 12.99 34.7316 12.9777C34.9886 12.9411 35.2458 12.9051 35.5029 12.8691C35.5914 12.8564 35.68 12.8437 35.7713 12.8307C36.947 12.6672 36.947 12.6672 37.298 12.919C37.4863 13.1794 37.4863 13.1794 37.5362 13.4952C37.4758 13.8646 37.4327 13.9364 37.1318 14.1545C36.8258 14.2394 36.516 14.2764 36.2013 14.3155C36.1104 14.3281 36.0195 14.3408 35.9258 14.3538C35.6354 14.394 35.3448 14.4323 35.0541 14.4703C34.7638 14.5087 34.4735 14.5476 34.1834 14.5877C34.003 14.6126 33.8224 14.6365 33.6418 14.6594C32.8959 14.7615 32.5203 15.0151 31.9941 15.5517C31.9455 15.6005 31.897 15.6493 31.8469 15.6996C31.693 15.8545 31.5397 16.0101 31.3864 16.1656C31.2817 16.2712 31.1769 16.3768 31.0722 16.4823C30.8163 16.7401 30.561 16.9984 30.306 17.2571C30.3905 17.245 30.3905 17.245 30.4766 17.2327C30.7336 17.1961 30.9908 17.1601 31.2479 17.1241C31.3364 17.1114 31.425 17.0988 31.5162 17.0857C32.6635 16.9261 32.6635 16.9261 33.043 17.1241C33.2719 17.3935 33.2809 17.5355 33.2815 17.8776C33.2041 18.1511 33.1066 18.2363 32.8768 18.4095C32.5673 18.4915 32.254 18.5231 31.9363 18.558C31.7467 18.5823 31.5572 18.6066 31.3677 18.6309C31.0698 18.6674 30.7718 18.7031 30.4737 18.7376C30.1852 18.7715 29.8973 18.8086 29.6093 18.8461C29.521 18.8554 29.4327 18.8647 29.3417 18.8742C28.6992 18.9601 28.3544 19.1828 27.9126 19.6505C27.8394 19.7218 27.7663 19.7931 27.691 19.8666C27.6251 19.9352 27.6251 19.9352 27.558 20.0051C28.9854 21.1168 30.6437 21.5674 32.4335 21.4234C34.2874 21.1863 36.0729 20.2502 37.2559 18.7879C37.5789 18.3611 37.8834 17.92 38.1633 17.4638C38.4512 17.0182 38.4512 17.0182 38.7502 16.9364C39.0694 16.919 39.2731 16.9345 39.5307 17.1297C39.6476 17.4334 39.6939 17.6521 39.6138 17.9663C39.397 18.4073 39.1656 18.8577 38.816 19.2073C38.809 19.3906 38.809 19.3906 38.8406 19.5993C38.8503 19.679 38.86 19.7587 38.87 19.8408C38.8814 19.9243 38.8929 20.0078 38.9047 20.0938C38.9155 20.1731 38.9264 20.2525 38.9376 20.3342C38.9606 20.4992 38.9838 20.664 39.0071 20.8289C39.5666 24.8965 38.6959 29.1723 36.1961 32.491C35.8659 32.9162 35.5296 33.3346 35.1815 33.7452C35.1278 33.8099 35.0741 33.8746 35.0188 33.9412C34.6619 34.3627 34.2749 34.721 33.8519 35.0749C33.7744 35.1425 33.6969 35.21 33.6171 35.2796C30.4248 38.0225 26.2535 39.3542 22.0609 39.0442C20.848 38.9341 19.677 38.7234 18.5161 38.3548C18.4482 38.3334 18.3803 38.3119 18.3104 38.2898C17.4414 38.0079 16.624 37.6492 15.8124 37.2301C15.7324 37.189 15.6524 37.1479 15.5699 37.1056C15.4954 37.0659 15.421 37.0262 15.3443 36.9853C15.2454 36.9327 15.2454 36.9327 15.1446 36.8791C14.9454 36.7421 14.8324 36.6091 14.7043 36.4046C14.66 36.1442 14.66 36.1442 14.7043 35.8727C14.9102 35.5942 15.0344 35.4472 15.3823 35.3928C15.7926 35.4435 16.0788 35.6237 16.4329 35.8284C17.8355 36.5999 19.3333 37.1078 20.9096 37.3797C21.0822 37.4095 21.0822 37.4095 21.2583 37.44C24.99 37.9886 28.8075 36.9818 31.8407 34.7647C32.3269 34.3888 32.7855 33.9907 33.2313 33.5679C33.3162 33.4887 33.4011 33.4096 33.4886 33.328C36.1163 30.8279 37.5506 27.2048 37.6854 23.6129C37.7051 22.6659 37.6222 21.7394 37.4863 20.8029C37.4106 20.8534 37.3348 20.9039 37.2568 20.956C37.208 20.9885 37.1592 21.0209 37.1089 21.0544C36.9629 21.1519 36.8172 21.2499 36.6716 21.348C34.7159 22.6486 32.5359 23.2576 30.1952 22.8307C28.8478 22.5411 27.5956 21.9896 26.4942 21.1575C25.0368 22.4783 24.1881 24.6481 24.0908 26.5868C24.0769 27.0544 24.0761 27.522 24.0765 27.9898C24.0766 28.2545 24.0754 28.519 24.0739 28.7836C24.0698 29.535 24.0676 30.2864 24.067 31.0378C24.0666 31.4995 24.0645 31.9612 24.0613 32.4229C24.0604 32.5982 24.0602 32.7735 24.0607 32.9488C24.0613 33.1932 24.0597 33.4375 24.0577 33.6819C24.0588 33.7899 24.0588 33.7899 24.0599 33.9001C24.0548 34.2504 24.0358 34.4172 23.8431 34.7206C23.6441 34.9105 23.5733 34.9583 23.303 34.953C23.2445 34.9542 23.186 34.9553 23.1257 34.9565C22.8288 34.8579 22.7537 34.7252 22.5938 34.4544C22.542 34.0917 22.5487 33.7315 22.5523 33.3657C22.5516 33.2589 22.551 33.1521 22.5504 33.042C22.5478 32.5859 22.5492 32.1298 22.5503 31.6737C22.5505 31.3402 22.5487 31.0067 22.5467 30.6731C22.5477 30.5718 22.5487 30.4706 22.5498 30.3663C22.5424 29.1714 22.1983 28.1959 21.4082 27.3018C20.9098 26.7918 20.9098 26.7918 20.2842 26.5753C20.0713 26.6719 19.9833 26.7794 19.8403 26.9638C18.7201 28.2872 17.0424 29.117 15.3249 29.3129C13.264 29.4404 11.2525 28.8811 9.65152 27.54C10.1543 29.5322 11.2513 31.2315 12.5768 32.7701C12.6414 32.8462 12.706 32.9223 12.7725 33.0007C12.9918 33.2559 13.2007 33.4821 13.4578 33.7009C13.6478 33.9313 13.6766 33.9975 13.696 34.2826C13.6406 34.6317 13.6406 34.6317 13.4578 34.8588C13.1025 35.0327 12.954 35.0191 12.5768 34.8976C12.3112 34.7184 12.0917 34.5053 11.8677 34.2771C11.8056 34.2139 11.7436 34.1507 11.6796 34.0856C9.63793 31.9056 8.17832 29.0793 7.71794 26.1272C7.58103 25.2806 7.25627 24.7351 6.74815 24.0585C5.46183 22.2793 4.17286 19.2265 4.33277 16.9912C4.47514 16.4738 4.66758 16.2017 5.12331 15.9056C6.47544 15.1585 8.38904 14.775 9.91746 14.775C9.93963 14.7118 9.9618 14.6486 9.98464 14.5835C11.2331 11.7294 14.6937 9.5227 17.4524 8.3925C20.1943 7.34371 23.0304 7.11961 25.9222 7.52785C26.0027 7.53893 26.0831 7.55001 26.166 7.56142C26.3276 7.58386 26.4891 7.60751 26.6504 7.63228C27.0973 7.69813 27.0973 7.69813 27.5227 7.58118C27.6115 7.50285 27.6115 7.50285 27.702 7.42293C29.495 6.0144 32.0122 5.3853 34.2064 4.93531C29.2982 2.03284 23.443 1.18821 17.9122 2.60835C15.0876 3.36997 12.4063 4.64569 10.1335 6.50323C9.89397 6.68568 9.81309 6.71085 9.49639 6.76363C9.20829 6.70823 9.20829 6.70823 8.99222 6.57526C8.83714 6.32713 8.77616 6.12794 8.79143 5.83332C9.00786 5.17711 9.97929 4.68858 10.5324 4.32587C10.6135 4.27248 10.6945 4.2191 10.7779 4.16409C13.0926 2.65596 15.6187 1.55481 18.3222 0.957322C18.3938 0.941467 18.4655 0.925612 18.5393 0.909276C18.7968 0.856646 19.0546 0.81182 19.3139 0.768949C19.4134 0.752433 19.4134 0.752433 19.5149 0.735583C20.7805 0.530652 22.0166 0.459133 23.2975 0.469769ZM17.2751 10.0768C17.2208 10.1012 17.1666 10.1256 17.1107 10.1508C15.5227 10.8753 14.1856 11.9172 12.948 13.1351C12.8844 13.1971 12.8208 13.2592 12.7552 13.3231C12.3362 13.7428 12.0005 14.181 11.6904 14.6864C11.7563 14.6899 11.8222 14.6934 11.8901 14.697C14.5162 14.8435 16.9606 15.1451 19.048 16.9025C19.1265 16.9618 19.1265 16.9618 19.2066 17.0223C20.3375 17.9053 21.1751 19.4471 21.4151 20.8512C21.5793 22.2073 21.5301 23.5846 21.0868 24.8806C21.0576 24.9684 21.0283 25.0562 20.9982 25.1466C21.0624 25.1926 21.1266 25.2387 21.1928 25.2861C21.9783 25.8527 21.9783 25.8527 22.2891 26.1217C22.4814 26.3177 22.4814 26.3177 22.6825 26.299C22.694 26.1908 22.694 26.1908 22.7057 26.0805C22.9895 23.7656 23.9267 21.8621 25.4305 20.0938C25.1992 19.683 25.1992 19.683 24.9526 19.2814C23.7982 17.4647 23.3743 15.2304 23.7573 13.1129C24.1121 11.6005 24.7682 10.2799 25.7851 9.10166C25.7558 9.04316 25.7266 8.98465 25.6964 8.92437C25.478 8.87997 25.2692 8.84848 25.0482 8.82465C24.981 8.81731 24.9138 8.80998 24.8445 8.80242C22.2283 8.54317 19.6624 8.98753 17.2751 10.0768ZM5.7511 17.2571C6.22562 20.7052 8.00661 24.4783 10.8039 26.6536C12.2166 27.6099 13.8691 28.1348 15.5811 27.834C16.7212 27.5513 17.638 27.076 18.5161 26.299C18.5667 26.2546 18.6174 26.2103 18.6695 26.1646C18.806 26.042 18.806 26.042 18.9593 25.8557C18.9593 25.768 18.9593 25.6802 18.9593 25.5898C18.3708 25.184 17.971 25.0913 17.2695 25.1964C17.1487 25.2112 17.1487 25.2112 17.0254 25.2263C16.7832 25.2565 16.5417 25.2899 16.3 25.3239C16.0966 25.3501 15.8931 25.3755 15.6895 25.4007C15.519 25.4222 15.3487 25.4453 15.1784 25.4686C14.7673 25.5137 14.3937 25.5351 13.9952 25.4125C13.9706 25.2874 13.949 25.1617 13.9287 25.0358C13.9102 24.9309 13.9102 24.9309 13.8913 24.8238C13.9065 24.6147 13.9065 24.6147 14.0256 24.4208C14.3818 24.1778 14.7477 24.1552 15.1697 24.105C15.2527 24.0939 15.3357 24.0828 15.4211 24.0714C15.6253 24.0443 15.8295 24.0186 16.034 23.9942C15.8873 23.8747 15.7392 23.757 15.5908 23.6396C15.5372 23.5951 15.4835 23.5507 15.4283 23.5049C14.585 22.8327 13.8431 22.5009 12.7666 22.605C12.2462 22.666 11.7302 22.7552 11.2147 22.8481C10.2559 23.0177 10.2559 23.0177 9.82882 22.9304C9.65233 22.7877 9.57431 22.7156 9.52444 22.4927C9.52433 22.4324 9.52421 22.3721 9.5241 22.3099C9.52238 22.2496 9.52067 22.1892 9.5189 22.1271C9.56288 21.9553 9.56288 21.9553 9.69793 21.8061C9.99894 21.6461 10.2982 21.6238 10.6322 21.5952C11.143 21.555 11.143 21.555 11.6017 21.3348C11.5425 21.3018 11.4833 21.2689 11.4222 21.2349C10.8384 20.9099 10.2555 20.5835 9.6733 20.2556C9.4947 20.1551 9.31597 20.0549 9.13701 19.9551C8.92744 19.838 8.71871 19.7196 8.51021 19.6007C8.44925 19.567 8.3883 19.5333 8.32549 19.4986C7.98304 19.3008 7.77067 19.131 7.61267 18.7641C7.63196 18.4361 7.64413 18.2894 7.87861 18.0549C8.58556 17.9454 9.05151 18.2671 9.64598 18.62C9.74434 18.6768 9.8427 18.7336 9.94404 18.7921C10.2316 18.9585 10.5179 19.1269 10.8039 19.2959C10.942 19.3768 11.0802 19.4576 11.2184 19.5383C11.456 19.6775 11.6929 19.8175 11.9297 19.958C12.6717 20.3969 13.4231 20.82 14.1725 21.2462C14.2163 21.1584 14.2163 21.1584 14.2611 21.0689C14.1795 20.8689 14.0931 20.6764 14.0007 20.4816C13.7881 20.0088 13.6311 19.6385 13.7292 19.1187C13.9258 18.8768 14.0472 18.8572 14.3553 18.8195C14.6554 18.8578 14.6964 18.8912 14.8816 19.1187C14.9621 19.2735 15.036 19.4318 15.1053 19.592C15.1465 19.6863 15.1876 19.7807 15.23 19.8779C15.2723 19.9765 15.3145 20.0752 15.3581 20.1769C15.3997 20.2725 15.4413 20.368 15.4841 20.4665C15.8248 21.2518 15.8248 21.2518 15.9711 21.6319C16.0076 21.726 16.0442 21.82 16.0818 21.9169C16.1291 22.0431 16.1291 22.0431 16.1773 22.1719C16.4235 22.6267 16.8731 22.8399 17.3107 23.0887C17.3639 23.119 17.4171 23.1494 17.472 23.1806C17.5838 23.2444 17.6958 23.3079 17.8079 23.3713C17.9781 23.4675 18.148 23.5643 18.3179 23.6612C18.7925 23.9312 19.2667 24.1967 19.7572 24.4374C20.3289 23.138 20.3176 21.7006 19.8652 20.3677C19.1699 18.6049 17.839 17.4524 16.1288 16.7093C15.6094 16.5033 15.0744 16.3867 14.527 16.282C14.4309 16.2621 14.3348 16.2422 14.2358 16.2217C11.707 15.7899 8.01327 15.8581 5.7511 17.2571Z" fill="black"/>
</g>
<defs>
<clipPath id="clip0_358_1083">
<rect width="45.3867" height="45.3867" fill="white" transform="translate(0.609375 0.50293)"/>
</clipPath>
</defs>
</svg>
