<svg width="47" height="46" viewBox="0 0 47 46" fill="none" xmlns="http://www.w3.org/2000/svg">
<g clip-path="url(#clip0_358_1085)">
<path d="M38.2264 6.15456C38.8114 6.46198 39.1832 6.82067 39.4674 7.41777C39.6756 8.1646 39.6951 8.95454 39.7402 9.72469C39.7531 9.94467 39.7667 10.1646 39.7806 10.3845C39.8148 10.93 39.8478 11.4756 39.8807 12.0211C39.9086 12.4842 39.937 12.9471 39.9663 13.4101C39.9797 13.6259 39.9923 13.8417 40.0049 14.0575C40.0132 14.1905 40.0216 14.3235 40.03 14.4565C40.0369 14.5719 40.0439 14.6873 40.051 14.8061C40.1096 15.3192 40.2428 15.7532 40.5073 16.1954C40.556 16.2777 40.6046 16.3599 40.6547 16.4447C40.7072 16.5319 40.7597 16.6191 40.8138 16.709C40.9256 16.8975 41.0373 17.0861 41.1489 17.2748C41.2364 17.4219 41.2364 17.4219 41.3256 17.572C41.6326 18.0903 41.9318 18.6133 42.2321 19.1356C42.3423 19.3272 42.4525 19.5187 42.5628 19.7101C42.6092 19.7908 42.6556 19.8715 42.7034 19.9546C42.7691 20.0676 42.7691 20.0676 42.836 20.1828C42.8804 20.2636 42.9247 20.3445 42.9704 20.4277C43.1548 20.7058 43.3248 20.7188 43.6449 20.7922C44.2306 20.9544 44.6147 21.184 45.0521 21.6011C45.1021 21.6475 45.152 21.6939 45.2035 21.7417C45.8691 22.4326 46.1001 23.3001 46.092 24.2363C46.0209 25.6235 45.3661 26.966 44.6976 28.1609C44.6506 28.2455 44.6506 28.2455 44.6027 28.3318C43.8986 29.5864 43.0321 30.6709 42.0382 31.7067C41.9576 31.791 41.8771 31.8752 41.7941 31.962C40.5554 33.2288 39.1227 34.2579 37.6059 35.1639C37.4672 35.2523 37.3286 35.3409 37.1904 35.4299C36.8967 35.6072 36.8967 35.6072 36.7194 35.6072C36.7118 35.6716 36.7041 35.7361 36.6962 35.8025C36.4922 37.2622 35.8105 38.4691 34.6806 39.4189C33.4 40.3393 32.1118 40.4469 30.5945 40.4399C30.4182 40.4404 30.2419 40.441 30.0655 40.4418C29.5901 40.4434 29.1146 40.4428 28.6392 40.4417C28.1395 40.4408 27.6399 40.4416 27.1403 40.4422C26.3016 40.4428 25.4628 40.442 24.6241 40.4403C23.657 40.4383 22.6899 40.439 21.7228 40.4409C20.8897 40.4425 20.0566 40.4428 19.2234 40.4418C18.7271 40.4413 18.2307 40.4412 17.7343 40.4424C17.2675 40.4434 16.8007 40.4427 16.3338 40.4406C16.1634 40.4402 15.9929 40.4403 15.8225 40.4411C14.0984 40.4483 12.7309 40.1301 11.4276 38.9203C10.6165 38.0551 9.94836 36.8275 9.94836 35.6072C9.88745 35.5849 9.82655 35.5626 9.76379 35.5396C7.15093 34.4308 4.68622 32.1154 3.03398 29.8452C2.99701 29.7954 2.96004 29.7455 2.92196 29.6942C1.63884 27.9487 0.312043 25.5216 0.640538 23.2854C0.846535 22.4202 1.36184 21.6938 2.09488 21.188C2.28647 21.0785 2.4781 20.9821 2.67939 20.8919C2.79184 20.8371 2.79184 20.8371 2.90655 20.7811C3.10621 20.7197 3.284 20.6905 3.49071 20.6662C3.65955 20.6463 3.65955 20.6463 3.83179 20.626C3.80272 20.521 3.77364 20.416 3.74369 20.3078C3.63497 19.9144 3.52735 19.5206 3.42005 19.1268C3.37366 18.9571 3.32697 18.7874 3.27998 18.6179C2.55241 15.9908 2.55241 15.9908 3.13509 14.9492C3.56396 14.3113 4.06405 14.0468 4.8069 13.8889C5.15968 13.8662 5.44366 13.8868 5.782 13.9776C5.77998 13.8879 5.77998 13.8879 5.77791 13.7964C5.76716 12.8875 5.82173 11.9844 5.88101 11.0777C5.89839 10.8079 5.91422 10.5379 5.93003 10.2679C5.94119 10.094 5.95244 9.92005 5.96379 9.74611C5.97046 9.62682 5.97046 9.62682 5.97726 9.50513C6.03496 8.67753 6.24212 7.92497 6.84575 7.32912C7.30541 7.01247 7.75493 6.78584 8.31949 6.77508C8.39011 6.7728 8.46073 6.77051 8.53349 6.76816C9.29672 6.85274 9.887 7.22024 10.5124 7.64215C10.597 7.69821 10.6816 7.75426 10.7688 7.81201C11.037 7.99001 11.3043 8.16927 11.5717 8.34855C11.7529 8.46902 11.9342 8.58941 12.1155 8.70971C12.4468 8.92999 12.778 9.15046 13.1086 9.37196C13.1747 9.41624 13.2407 9.46051 13.3088 9.50613C13.4926 9.63281 13.6712 9.7647 13.8488 9.89985C13.8265 9.76016 13.8265 9.76016 13.8038 9.61764C13.6826 8.80684 13.6027 8.15691 13.9928 7.40669C14.5054 6.78621 14.9904 6.39474 15.799 6.26537C16.6829 6.24917 17.5469 6.53626 18.3915 6.76435C18.5491 6.80631 18.7068 6.84821 18.8644 6.89005C19.1947 6.97787 19.5248 7.06621 19.8548 7.15497C20.2699 7.26661 20.6853 7.37738 21.1007 7.48783C21.8954 7.69911 22.6895 7.9123 23.4829 8.12812C23.8924 8.23949 24.3021 8.3498 24.7122 8.45881C24.9947 8.53431 25.2766 8.61173 25.5587 8.68894C25.6559 8.7144 25.7531 8.73987 25.8532 8.7661C26.4562 8.93407 26.9087 9.17611 27.4116 9.54527C27.4701 9.57452 27.5286 9.60378 27.5889 9.63391C27.6913 9.59186 27.7937 9.54981 27.8992 9.50649C28.508 9.26911 29.0509 9.29434 29.6555 9.53419C29.8668 9.62851 30.0752 9.7247 30.2815 9.82957C30.5085 9.92343 30.5085 9.92343 30.7048 9.83074C30.7683 9.78788 30.8318 9.74503 30.8973 9.70088C30.9702 9.65283 31.0431 9.60478 31.1182 9.55528C31.1962 9.50147 31.2742 9.44766 31.3546 9.39222C31.4779 9.31003 31.4779 9.31003 31.6036 9.22619C31.8676 9.04965 32.13 8.87091 32.3924 8.69205C32.5647 8.57625 32.7371 8.46059 32.9096 8.34509C33.4906 7.95531 34.0703 7.56347 34.6488 7.16976C34.8656 7.02228 35.0828 6.87544 35.3 6.72868C35.3947 6.66381 35.3947 6.66381 35.4913 6.59763C36.3361 6.02867 37.2326 5.7341 38.2264 6.15456ZM35.8451 8.14667C34.9514 8.79313 34.0241 9.38987 33.1016 9.99404C32.8325 10.1705 32.5636 10.3469 32.2947 10.5235C32.1286 10.6326 31.9625 10.7415 31.7963 10.8503C31.7222 10.8989 31.6481 10.9475 31.5718 10.9976C31.5064 11.0404 31.4411 11.0832 31.3738 11.1273C31.2275 11.2199 31.2275 11.2199 31.1347 11.3182C31.0864 12.1252 31.1617 12.9401 31.2178 13.7449C31.2257 13.8636 31.2334 13.9824 31.2412 14.1012C31.2749 14.5975 31.3121 15.0832 31.4007 15.5732C31.6863 15.5213 31.97 15.4621 32.2539 15.4014C32.334 15.387 32.4141 15.3725 32.4966 15.3576C32.9457 15.2577 33.204 15.1548 33.4672 14.7674C33.5494 14.6239 33.6288 14.4787 33.7055 14.3321C33.7855 14.1906 33.8656 14.0491 33.9458 13.9076C34.0645 13.6932 34.1822 13.4784 34.2976 13.2622C34.6218 12.6816 35.0217 12.2349 35.6058 11.9055C36.3404 11.7263 36.983 11.7332 37.6945 12.0274C37.9399 12.1939 38.1731 12.373 38.4037 12.5592C38.364 11.4466 38.3104 10.3349 38.2375 9.22393C38.2316 9.12156 38.2257 9.0192 38.2197 8.91373C38.213 8.81749 38.2063 8.72126 38.1994 8.62211C38.1939 8.53713 38.1885 8.45216 38.1828 8.36461C38.1113 7.98726 37.9625 7.75115 37.6557 7.52303C36.978 7.20897 36.3716 7.76098 35.8451 8.14667ZM15.4499 7.98288C15.1485 8.36654 15.1755 8.55415 15.2284 9.02413C15.2942 9.45782 15.4053 9.87637 15.522 10.2988C15.5447 10.3863 15.5674 10.4738 15.5909 10.564C15.6136 10.6474 15.6364 10.7308 15.6598 10.8168C15.6903 10.9295 15.6903 10.9295 15.7214 11.0445C15.7918 11.2601 15.7918 11.2601 16.0649 11.4068C16.0994 11.3426 16.1339 11.2784 16.1695 11.2122C16.5337 10.5828 16.8795 10.1596 17.5719 9.89985C18.3255 9.72565 19.0068 9.79675 19.6869 10.1668C20.2193 10.5539 20.5121 11.1844 20.8302 11.7454C20.988 12.022 21.1502 12.2959 21.3122 12.57C21.4845 12.8615 21.6557 13.1536 21.8269 13.4457C22.234 13.3054 22.5624 13.0888 22.9159 12.8494C22.9777 12.8081 23.0395 12.7667 23.1032 12.7241C23.3004 12.592 23.4972 12.4593 23.694 12.3265C23.8239 12.2394 23.9538 12.1522 24.0837 12.0651C24.3362 11.8958 24.5884 11.7263 24.8406 11.5567C25.3125 11.2393 25.7857 10.924 26.2592 10.609C26.0625 10.3848 25.9127 10.2973 25.6256 10.2214C25.5508 10.2012 25.476 10.1809 25.3989 10.1601C25.3171 10.1389 25.2353 10.1178 25.151 10.096C25.0647 10.0729 24.9783 10.0498 24.8893 10.026C24.6033 9.94973 24.317 9.87476 24.0306 9.79978C23.8317 9.747 23.6328 9.69415 23.434 9.64121C22.9098 9.50189 22.3853 9.36365 21.8608 9.22565C21.3284 9.0854 20.7963 8.94419 20.2642 8.80303C19.6657 8.64431 19.0673 8.48569 18.4686 8.32783C18.3772 8.30372 18.2859 8.27962 18.1917 8.25479C18.022 8.21002 17.8522 8.1653 17.6825 8.12064C17.3496 8.03283 17.0174 7.94406 16.6868 7.84833C16.2122 7.71342 15.8564 7.65426 15.4499 7.98288ZM7.64356 8.65881C7.47262 9.21057 7.42394 9.74588 7.39079 10.3206C7.38513 10.4102 7.37948 10.4997 7.37366 10.592C7.36189 10.7806 7.35043 10.9691 7.33928 11.1577C7.32229 11.4445 7.30434 11.7311 7.28621 12.0178C7.27484 12.2019 7.26353 12.3859 7.25228 12.57C7.24701 12.6548 7.24175 12.7395 7.23633 12.8269C7.20686 13.3297 7.19551 13.8285 7.20034 14.3321C7.83202 14.5866 8.47819 14.7604 9.136 14.9343C9.25382 14.9657 9.37163 14.9971 9.48943 15.0286C9.73479 15.094 9.98021 15.1591 10.2257 15.2241C10.5406 15.3075 10.8553 15.3914 11.17 15.4754C11.4125 15.5401 11.6551 15.6047 11.8978 15.6691C12.0139 15.7 12.1301 15.7309 12.2462 15.7619C12.4078 15.805 12.5695 15.8477 12.7311 15.8904C12.8691 15.927 12.8691 15.927 13.0098 15.9644C13.2196 16.0233 13.2196 16.0233 13.4055 16.0164C13.4399 15.9549 13.4742 15.8933 13.5096 15.8299C13.6687 15.5448 13.828 15.2598 13.9873 14.9748C14.0413 14.878 14.0953 14.7813 14.1509 14.6815C14.5159 14.0289 14.888 13.3811 15.2671 12.7365C14.8861 12.3166 14.4482 12.0264 13.9741 11.7188C13.8913 11.6645 13.8085 11.6102 13.7232 11.5542C13.4588 11.3808 13.194 11.2082 12.9291 11.0356C12.7544 10.9214 12.5798 10.807 12.4052 10.6926C12.1493 10.5251 11.8935 10.3575 11.6375 10.1902C11.1441 9.86752 10.6514 9.5439 10.1606 9.21735C10.1086 9.18281 10.0565 9.14827 10.0029 9.11268C9.71498 8.92055 9.43416 8.72086 9.15609 8.51476C8.62918 8.16547 8.08002 8.14533 7.64356 8.65881ZM27.8496 11.2361C27.7595 11.2949 27.7595 11.2949 27.6674 11.3548C27.4629 11.4888 27.2599 11.625 27.057 11.7614C26.9031 11.8638 26.7491 11.9661 26.595 12.0684C26.1807 12.3446 25.7679 12.623 25.3555 12.9023C25.099 13.076 24.8423 13.2494 24.5855 13.4227C24.4203 13.5343 24.255 13.646 24.0898 13.7577C24.0141 13.8088 23.9384 13.86 23.8603 13.9127C23.4442 14.1947 23.0324 14.4813 22.6247 14.7754C23.1039 15.6751 23.6187 16.5541 24.1317 17.4348C24.8103 17.3079 25.4773 17.1472 26.1456 16.9749C26.2502 16.948 26.3548 16.9212 26.4625 16.8935C26.6819 16.837 26.9012 16.7804 27.1205 16.7236C27.4572 16.6366 27.7942 16.5505 28.1312 16.4645C28.3447 16.4094 28.5582 16.3542 28.7718 16.299C28.8728 16.2733 28.9738 16.2476 29.0779 16.2212C29.1708 16.1969 29.2638 16.1727 29.3596 16.1477C29.4825 16.116 29.4825 16.116 29.608 16.0837C29.8201 16.0275 29.8201 16.0275 29.9823 15.8391C29.9992 15.664 29.9992 15.664 29.9809 15.4627C29.9761 15.3848 29.9713 15.307 29.9664 15.2268C29.9572 15.1002 29.9572 15.1002 29.9477 14.971C29.942 14.8842 29.9362 14.7974 29.9303 14.7079C29.918 14.5238 29.9051 14.3396 29.8918 14.1555C29.8717 13.8751 29.8533 13.5945 29.8352 13.3139C29.8229 13.135 29.8106 12.956 29.7981 12.777C29.7927 12.6935 29.7872 12.61 29.7816 12.524C29.7326 11.7073 29.7326 11.7073 29.3452 11.0135C28.7835 10.7014 28.3427 10.9019 27.8496 11.2361ZM17.5719 11.5841C17.4066 11.8163 17.4066 11.8163 17.2651 12.0807C17.2094 12.1797 17.1537 12.2786 17.0963 12.3806C17.0369 12.4882 16.9775 12.5957 16.9181 12.7033C16.8555 12.8152 16.7927 12.927 16.7298 13.0388C16.6005 13.2688 16.4715 13.499 16.3428 13.7293C16.0611 14.2322 15.7721 14.7309 15.4832 15.2297C15.3736 15.4193 15.2641 15.609 15.1546 15.7986C15.1003 15.8925 15.0461 15.9863 14.9902 16.083C14.8198 16.3781 14.6495 16.6732 14.4793 16.9683C14.4225 17.0669 14.3657 17.1654 14.3071 17.2669C14.1949 17.4615 14.0828 17.6561 13.9708 17.8507C13.7138 18.2968 13.4557 18.7422 13.194 19.1855C13.1481 19.2636 13.1022 19.3417 13.0549 19.4222C12.9698 19.5668 12.8842 19.7112 12.7981 19.8552C12.761 19.9184 12.7239 19.9816 12.6856 20.0467C12.6533 20.1012 12.6209 20.1557 12.5875 20.2118C12.5005 20.3731 12.5005 20.3731 12.5191 20.626C16.3805 20.626 20.2419 20.626 24.2204 20.626C24.0937 20.2462 23.9976 19.9886 23.801 19.6578C23.7282 19.5343 23.7282 19.5343 23.6539 19.4082C23.6013 19.3201 23.5487 19.232 23.4946 19.1412C23.3814 18.9494 23.2683 18.7576 23.1552 18.5657C23.0968 18.4668 23.0383 18.3678 22.9781 18.2659C22.6966 17.7875 22.4196 17.3064 22.1427 16.8253C22.0877 16.73 22.0328 16.6346 21.9761 16.5364C21.6949 16.0485 21.4141 15.5606 21.1333 15.0725C20.8579 14.5938 20.5815 14.1156 20.3047 13.6377C20.1408 13.3539 19.9781 13.0695 19.8154 12.785C19.7122 12.6063 19.6089 12.4276 19.5055 12.249C19.4586 12.1663 19.4118 12.0837 19.3635 11.9985C19.3195 11.923 19.2755 11.8475 19.2302 11.7697C19.1922 11.7036 19.1543 11.6375 19.1152 11.5694C18.9698 11.3803 18.8577 11.3129 18.6357 11.2295C18.1352 11.1749 17.9358 11.2446 17.5719 11.5841ZM35.5503 13.8717C35.0658 14.5917 35.0658 14.5917 34.8579 15.3959C34.9852 15.4788 35.1129 15.5613 35.2426 15.6407C35.502 15.8342 35.6603 16.1014 35.833 16.371C35.8915 16.4588 35.95 16.5465 36.0103 16.6369C36.034 16.5382 36.0578 16.4395 36.0823 16.3378C36.1875 16.0164 36.1875 16.0164 36.4535 15.8391C36.9973 15.7906 36.9973 15.7906 37.2402 15.9444C37.3697 16.153 37.4111 16.3027 37.4286 16.5483C37.3566 16.7921 37.3566 16.7921 37.2513 16.9915C36.9687 17.1328 36.6716 17.1269 36.3648 17.0802C36.1432 16.9029 36.1432 16.9029 36.0103 16.7256C36.0144 16.7795 36.0185 16.8333 36.0227 16.8888C36.0551 17.6743 35.8632 18.3764 35.6557 19.1246C35.6048 19.3121 35.5543 19.4998 35.5039 19.6875C35.4586 19.8558 35.4124 20.0238 35.3662 20.1918C35.2938 20.4332 35.2938 20.4332 35.3011 20.626C35.4766 20.626 35.6521 20.626 35.833 20.626C35.8255 20.5715 35.8181 20.517 35.8105 20.4608C35.8014 20.3892 35.7924 20.3175 35.7831 20.2437C35.7738 20.1728 35.7646 20.1018 35.7551 20.0287C35.7443 19.8282 35.7443 19.8282 35.833 19.5623C36.483 19.4539 36.483 19.4539 36.7582 19.5456C36.8967 19.6509 36.8967 19.6509 36.9854 19.8282C36.9854 20.0915 36.9854 20.3548 36.9854 20.626C38.4188 20.626 39.8522 20.626 41.329 20.626C40.988 19.9365 40.988 19.9365 40.6178 19.2686C40.57 19.1873 40.5223 19.1061 40.4731 19.0223C40.3977 18.8947 40.3977 18.8947 40.3207 18.7644C40.2104 18.5767 40.1002 18.3889 39.99 18.2011C39.9333 18.1045 39.8765 18.0079 39.8181 17.9083C39.5309 17.4175 39.2472 16.9247 38.9633 16.4319C38.9078 16.3361 38.8524 16.2402 38.7952 16.1414C38.5383 15.6968 38.2831 15.2516 38.0332 14.8031C37.9897 14.7259 37.9463 14.6487 37.9015 14.5691C37.822 14.4277 37.7434 14.2859 37.6657 14.1435C37.4309 13.7279 37.1997 13.4564 36.8081 13.1798C36.223 13.0428 35.8538 13.4106 35.5503 13.8717ZM4.36367 15.7505C4.09792 16.282 4.35786 16.9437 4.5046 17.4784C4.528 17.5658 4.5514 17.6533 4.57551 17.7434C4.62486 17.9272 4.67457 18.1109 4.72463 18.2946C4.80155 18.5768 4.87729 18.8593 4.95285 19.1419C5.00097 19.3206 5.04916 19.4993 5.09742 19.6779C5.13164 19.8052 5.13164 19.8052 5.16654 19.935C5.18783 20.0129 5.20912 20.0907 5.23106 20.171C5.25911 20.2742 5.25911 20.2742 5.28773 20.3794C5.32564 20.5377 5.32564 20.5377 5.42742 20.626C5.60149 20.6343 5.77587 20.6364 5.95014 20.6361C6.11784 20.6361 6.11784 20.6361 6.28894 20.6361C6.41187 20.6356 6.5348 20.6351 6.65773 20.6347C6.78281 20.6345 6.90789 20.6344 7.03298 20.6343C7.36277 20.6339 7.69256 20.6331 8.02236 20.6321C8.35865 20.6312 8.69495 20.6308 9.03125 20.6303C9.69154 20.6294 10.3518 20.6279 11.0121 20.626C11.0286 20.5673 11.0452 20.5087 11.0622 20.4482C11.1808 20.0383 11.2969 19.6541 11.508 19.2807C11.5709 19.168 11.5709 19.168 11.6351 19.0531C11.6781 18.9779 11.7212 18.9028 11.7656 18.8254C11.8087 18.7485 11.8518 18.6717 11.8961 18.5925C12.0642 18.2937 12.2334 17.9979 12.4166 17.708C12.5406 17.5198 12.5406 17.5198 12.5191 17.2575C11.6185 17.0137 10.7177 16.7709 9.81659 16.5293C9.39813 16.4171 8.97975 16.3045 8.56158 16.1912C8.15772 16.0818 7.75364 15.9733 7.34938 15.8654C7.1955 15.8241 7.04169 15.7825 6.88798 15.7407C6.67201 15.6819 6.45576 15.6242 6.23943 15.5668C6.17649 15.5494 6.11356 15.532 6.04872 15.514C5.42142 15.35 4.85442 15.2449 4.36367 15.7505ZM31.8342 16.898C31.6947 16.9346 31.5553 16.9711 31.4157 17.0075C31.049 17.1035 30.6826 17.2007 30.3162 17.2981C30.0222 17.376 29.7279 17.4531 29.4337 17.5301C27.9274 17.9245 26.4235 18.3253 24.9295 18.7644C24.9763 18.8613 25.023 18.9582 25.0712 19.058C25.099 19.1158 25.1269 19.1736 25.1556 19.2332C25.2134 19.3528 25.2716 19.4723 25.33 19.5917C25.3549 19.6444 25.3799 19.6971 25.4056 19.7513C25.4312 19.8042 25.4567 19.8572 25.483 19.9117C25.55 20.0941 25.55 20.0941 25.6387 20.626C27.5694 20.626 29.5001 20.626 31.4893 20.626C31.4454 20.3188 31.4454 20.3188 31.4007 20.0055C31.4949 19.7506 31.4949 19.7506 31.6666 19.5623C31.9806 19.453 32.1364 19.4502 32.4478 19.5678C32.6417 19.7395 32.6417 19.7395 32.7193 19.9999C32.7304 20.2714 32.7304 20.2714 32.6417 20.626C33.022 20.626 33.4023 20.626 33.7941 20.626C33.9088 20.221 34.0223 19.8158 34.135 19.4103C34.1734 19.2725 34.2121 19.1349 34.2511 18.9973C34.3073 18.7988 34.3624 18.6001 34.4174 18.4012C34.4349 18.3404 34.4523 18.2796 34.4703 18.217C34.5761 17.8292 34.6222 17.4816 34.5919 17.0802C34.4327 16.8361 34.3213 16.6789 34.06 16.5483C33.2839 16.482 32.5761 16.6996 31.8342 16.898ZM2.51318 22.8311C2.10436 23.3358 2.00847 23.7939 2.05887 24.4378C2.11315 24.6946 2.19335 24.9383 2.28049 25.1857C2.30428 25.2546 2.32808 25.3234 2.3526 25.3943C2.80201 26.6575 3.39922 27.7863 4.18637 28.8701C4.2223 28.9204 4.25822 28.9707 4.29523 29.0225C5.31097 30.4318 6.58758 31.6713 7.99815 32.6819C8.08278 32.743 8.08278 32.743 8.16912 32.8053C8.3477 32.9334 8.52721 33.0601 8.70732 33.186C8.75978 33.2229 8.81224 33.2597 8.8663 33.2977C8.97902 33.3747 9.09318 33.4497 9.20839 33.523C9.36595 33.6244 9.51973 33.7317 9.67149 33.8416C10.6004 34.4591 11.433 34.4593 12.5246 34.4382C12.771 34.4358 13.0173 34.4345 13.2637 34.4346C13.4156 34.4344 13.5676 34.4328 13.7195 34.4293C14.1301 34.4261 14.4054 34.4464 14.7352 34.7207C14.8472 35.0427 14.852 35.1893 14.7131 35.5019C14.5579 35.6958 14.5579 35.6958 14.292 35.7845C14.0832 35.7979 13.8741 35.8065 13.6649 35.8125C13.6043 35.8144 13.5437 35.8162 13.4812 35.8181C13.2879 35.8239 13.0947 35.8291 12.9014 35.8343C12.7702 35.8382 12.639 35.842 12.5078 35.8459C12.1866 35.8554 11.8653 35.8644 11.544 35.8731C11.6846 36.9053 12.174 37.5952 12.9893 38.2544C13.7802 38.8058 14.5685 38.9893 15.5268 38.9882C15.6306 38.9886 15.6306 38.9886 15.7365 38.989C15.9676 38.9897 16.1987 38.9899 16.4298 38.99C16.5958 38.9904 16.7618 38.9909 16.9279 38.9913C17.3785 38.9925 17.829 38.9931 18.2796 38.9935C18.5614 38.9937 18.8433 38.9941 19.1251 38.9945C20.0077 38.9957 20.8903 38.9965 21.773 38.9969C22.7902 38.9973 23.8073 38.9988 24.8245 39.0014C25.6118 39.0033 26.3992 39.0042 27.1865 39.0043C27.6562 39.0044 28.1259 39.005 28.5956 39.0065C29.0379 39.008 29.4801 39.0082 29.9224 39.0074C30.084 39.0073 30.2457 39.0077 30.4073 39.0086C31.8601 39.016 33.0878 38.8791 34.1819 37.8233C34.7076 37.2649 35.1238 36.6579 35.1238 35.8731C35.0296 35.8729 34.9355 35.8727 34.8385 35.8725C32.5487 35.8673 30.259 35.8605 27.9692 35.8522C26.862 35.8482 25.7547 35.8447 24.6474 35.8424C23.6824 35.8404 22.7174 35.8374 21.7525 35.8333C21.2414 35.8312 20.7303 35.8295 20.2192 35.829C19.7384 35.8285 19.2575 35.8267 18.7767 35.824C18.6 35.8232 18.4234 35.8229 18.2467 35.823C18.0058 35.8232 17.7649 35.8217 17.524 35.8198C17.4189 35.8205 17.4189 35.8204 17.3116 35.8211C16.9123 35.8159 16.6444 35.7736 16.3309 35.5185C16.2189 35.1966 16.2141 35.05 16.353 34.7373C16.5082 34.5434 16.5082 34.5434 16.7741 34.4548C17.0252 34.4475 17.274 34.4453 17.525 34.4473C17.6026 34.4476 17.6802 34.4478 17.7601 34.4481C18.0212 34.449 18.2823 34.4505 18.5434 34.452C18.7302 34.4528 18.917 34.4535 19.1038 34.4541C19.4028 34.4552 19.7017 34.4563 20.0007 34.4575C20.7436 34.4606 21.4865 34.462 22.2294 34.4624C22.3911 34.4625 22.3911 34.4625 22.5562 34.4626C23.0014 34.4629 23.4466 34.463 23.8918 34.4632C25.1543 34.4637 26.4167 34.4658 27.6792 34.4727C28.682 34.4782 29.6847 34.4801 30.6874 34.4781C31.2176 34.4772 31.7477 34.4779 32.2778 34.4829C32.7779 34.4876 33.2778 34.4876 33.7779 34.4842C33.9601 34.4838 34.1424 34.485 34.3247 34.488C35.6965 34.5096 36.5732 34.1731 37.6945 33.391C37.7862 33.3303 37.8779 33.2696 37.9724 33.207C38.1732 33.073 38.3664 32.9328 38.5588 32.7871C38.662 32.71 38.662 32.71 38.7673 32.6314C39.4056 32.1456 39.9923 31.6129 40.5636 31.0507C40.6973 30.9198 40.8331 30.7917 40.9699 30.6641C42.6133 29.0958 44.506 26.4073 44.6532 24.061C44.5576 23.3438 44.2817 22.8983 43.7311 22.4353C43.3101 22.1522 42.9297 22.1073 42.4319 22.1102C42.3649 22.1099 42.2978 22.1096 42.2287 22.1092C42.0033 22.1084 41.7779 22.1089 41.5525 22.1093C41.3895 22.109 41.2265 22.1085 41.0636 22.1081C40.6152 22.107 40.1668 22.107 39.7184 22.1072C39.235 22.1072 38.7517 22.1063 38.2683 22.1054C37.3211 22.104 36.3738 22.1035 35.4266 22.1034C34.6568 22.1033 33.887 22.1029 33.1172 22.1024C30.9356 22.1008 28.754 22.1 26.5724 22.1001C26.4841 22.1001 26.4841 22.1001 26.3941 22.1001C26.2752 22.1001 26.1563 22.1001 26.0374 22.1001C24.1871 22.1003 22.3369 22.0989 20.4866 22.0965C18.4081 22.0938 16.3296 22.0923 14.2511 22.0924C13.1504 22.0925 12.0498 22.092 10.9492 22.0901C10.0122 22.0885 9.07513 22.0881 8.13809 22.0893C7.6599 22.0899 7.18173 22.0899 6.70354 22.0883C6.26582 22.0869 5.82813 22.0872 5.39041 22.0887C5.23203 22.089 5.07365 22.0887 4.91527 22.0877C3.57439 22.0679 3.57439 22.0679 2.51318 22.8311Z" fill="black"/>
<path d="M38.8465 17.9658C39.0681 18.0988 39.0681 18.0988 39.201 18.3204C39.2712 18.6768 39.2561 18.9377 39.0681 19.2512C38.7546 19.4392 38.4937 19.4543 38.1373 19.3841C37.9157 19.2512 37.9157 19.2512 37.7827 19.0296C37.7126 18.6731 37.7276 18.4122 37.9157 18.0988C38.2291 17.9107 38.49 17.8957 38.8465 17.9658Z" fill="black"/>
<path d="M19.9644 16.1046C20.2192 16.2874 20.2192 16.2874 20.4076 16.5478C20.464 16.9052 20.4695 17.0812 20.258 17.3789C20.0231 17.5439 19.8972 17.6047 19.6098 17.6116C19.1099 17.4097 19.1099 17.4097 18.9893 17.1683C18.9641 16.9082 18.9453 16.7117 18.9893 16.4592C19.2773 16.1203 19.5263 16.0224 19.9644 16.1046Z" fill="black"/>
<path d="M25.7273 15.3955C25.9489 15.5285 25.9489 15.5285 26.0819 15.7501C26.152 16.1065 26.137 16.3674 25.9489 16.6809C25.6355 16.8689 25.3746 16.884 25.0182 16.8138C24.7965 16.6809 24.7965 16.6809 24.6636 16.4593C24.5934 16.1028 24.6085 15.8419 24.7965 15.5285C25.11 15.3404 25.3709 15.3254 25.7273 15.3955Z" fill="black"/>
<path d="M34.5036 10.2546C34.7417 10.4237 34.8346 10.5494 34.9413 10.8197C34.9488 11.1349 34.844 11.3185 34.6809 11.5843C34.4027 11.7234 34.1899 11.7041 33.8831 11.6729C33.6172 11.4956 33.6172 11.4956 33.4399 11.2297C33.4115 10.9736 33.443 10.763 33.5285 10.5205C33.796 10.1912 34.1002 10.2041 34.5036 10.2546Z" fill="black"/>
<path d="M16.3753 8.32092C16.6856 8.39294 16.6856 8.39294 16.8518 8.49267C17.0111 8.75811 17.0349 8.97174 17.0402 9.2794C16.8807 9.56155 16.7729 9.68905 16.4695 9.80573C16.2001 9.81231 16.0379 9.75658 15.7991 9.63398C15.5647 9.39951 15.5525 9.25283 15.5332 8.92482C15.722 8.50942 15.896 8.29524 16.3753 8.32092Z" fill="black"/>
<path d="M19.168 18.9419C19.4027 19.0906 19.43 19.1947 19.5115 19.4627C19.5251 19.8018 19.4773 19.9268 19.2567 20.183C18.9668 20.3279 18.8052 20.3771 18.4866 20.3104C18.2262 20.1486 18.1317 20.0235 18.0156 19.7398C18.0156 19.3931 18.0642 19.2539 18.2926 18.9918C18.6288 18.8091 18.8041 18.8408 19.168 18.9419Z" fill="black"/>
<path d="M28.6521 14.5984C28.8713 14.9273 28.8635 15.0958 28.8294 15.4849C28.7352 15.6954 28.7352 15.6954 28.5634 15.8395C28.2112 15.9373 28.0236 15.965 27.688 15.8118C27.4997 15.6622 27.4997 15.6622 27.411 15.4849C27.3598 14.9315 27.3598 14.9315 27.5717 14.6538C27.9675 14.3598 28.2069 14.4366 28.6521 14.5984Z" fill="black"/>
<path d="M12.0757 13.8002C12.2863 13.9442 12.2863 13.9442 12.4303 14.1547C12.4808 14.508 12.4898 14.6915 12.2807 14.9858C12.0458 15.1509 11.92 15.2117 11.6325 15.2185C11.1327 15.0166 11.1327 15.0166 11.012 14.7753C10.9714 14.2281 10.9714 14.2281 11.1283 13.9442C11.4285 13.6552 11.6967 13.6996 12.0757 13.8002Z" fill="black"/>
<path d="M32.9077 12.9134C33.1237 13.1017 33.1237 13.1017 33.2622 13.3566C33.2569 13.6666 33.2354 13.8795 33.0683 14.1433C32.833 14.2894 32.6521 14.3207 32.3758 14.3317C32.058 14.2089 31.958 14.1166 31.8051 13.8109C31.7474 13.49 31.7612 13.3663 31.9325 13.0907C32.2678 12.8113 32.4946 12.7727 32.9077 12.9134Z" fill="black"/>
<path d="M21.6048 18.8697C21.9151 18.9418 21.9151 18.9418 22.0813 19.047C22.2274 19.2823 22.2586 19.4633 22.2697 19.7396C22.1469 20.0573 22.0546 20.1574 21.7489 20.3102C21.4339 20.3669 21.3051 20.3364 21.0286 20.1828C20.7942 19.9483 20.782 19.8017 20.7627 19.4736C20.9515 19.0582 21.1255 18.8441 21.6048 18.8697Z" fill="black"/>
<path d="M10.8346 18.4977C11.1008 18.6799 11.1743 18.8059 11.2722 19.1127C11.2789 19.4373 11.2081 19.573 11.0118 19.8274C10.7409 19.9629 10.5128 19.9367 10.214 19.9161C10.0035 19.8163 10.0035 19.8163 9.85945 19.6501C9.7692 19.3536 9.75561 19.174 9.83729 18.8745C10.0748 18.447 10.3862 18.4505 10.8346 18.4977Z" fill="black"/>
<path d="M16.5076 17.1684C16.7283 17.4247 16.7761 17.5497 16.7625 17.8887C16.6482 18.2643 16.6482 18.2643 16.419 18.4095C16.055 18.5106 15.8798 18.5423 15.5436 18.3596C15.3151 18.0975 15.2666 17.9583 15.2666 17.6117C15.3827 17.3279 15.4772 17.2028 15.7375 17.041C16.0561 16.9743 16.2178 17.0235 16.5076 17.1684Z" fill="black"/>
<path d="M9.06108 16.7255C9.27161 16.8695 9.27161 16.8695 9.41566 17.08C9.46567 17.4301 9.4735 17.616 9.27161 17.9111C9.01119 18.0893 8.84481 18.1374 8.5292 18.1438C8.12451 17.9549 8.12451 17.9549 7.99732 17.7006C7.95679 17.1534 7.95679 17.1534 8.11367 16.8695C8.41381 16.5805 8.68209 16.6249 9.06108 16.7255Z" fill="black"/>
<path d="M12.2528 11.7613C12.4727 12.0911 12.4711 12.2575 12.4301 12.6478C12.2479 12.914 12.1219 12.9875 11.8151 13.0855C11.4905 13.0921 11.3547 13.0213 11.1004 12.8251C10.9633 12.551 10.9857 12.3291 11.0117 12.0272C11.3862 11.5366 11.6984 11.5597 12.2528 11.7613Z" fill="black"/>
<path d="M22.4471 10.5196C22.7422 10.7377 22.872 10.865 22.9402 11.2288C22.8764 11.5694 22.8009 11.7126 22.5358 11.938C22.1813 12.0215 21.917 11.9921 21.605 11.805C21.4178 11.493 21.3885 11.2287 21.472 10.8742C21.7601 10.5353 22.0091 10.4375 22.4471 10.5196Z" fill="black"/>
<path d="M9.23914 10.254C9.53422 10.4721 9.66402 10.5994 9.73223 10.9632C9.66837 11.3038 9.59292 11.447 9.32779 11.6723C8.9733 11.7559 8.70895 11.7265 8.39701 11.5394C8.20984 11.2274 8.1805 10.9631 8.26404 10.6086C8.55211 10.2697 8.8011 10.1719 9.23914 10.254Z" fill="black"/>
<path d="M27.8547 18.9416C28.0707 19.0912 28.0707 19.0912 28.2092 19.2962C28.267 19.6354 28.2372 19.7815 28.0597 20.0774C27.8267 20.2977 27.7308 20.3599 27.4114 20.3599C26.9116 20.1581 26.9116 20.1581 26.7909 19.9167C26.7296 19.2836 26.7296 19.2836 26.9737 18.9804C27.3163 18.8128 27.4913 18.8359 27.8547 18.9416Z" fill="black"/>
<path d="M30.6027 17.8774C30.8679 18.1028 30.9433 18.2459 31.0072 18.5866C30.9384 18.9532 30.8143 19.0785 30.5141 19.2957C30.1632 19.3511 29.9814 19.3498 29.6775 19.1627C29.4821 18.8502 29.4683 18.591 29.539 18.232C29.7866 17.8193 30.1574 17.7724 30.6027 17.8774Z" fill="black"/>
<path d="M18.6358 13.6226C18.8444 13.7616 18.8908 13.8595 18.9793 14.0935C18.9947 14.4252 18.9119 14.5915 18.7244 14.8636C18.4318 15.0163 18.2769 15.0605 17.9543 14.9855C17.7163 14.844 17.6051 14.7592 17.4834 14.509C17.4944 14.1942 17.505 13.976 17.6995 13.7223C18.0281 13.4857 18.245 13.5403 18.6358 13.6226Z" fill="black"/>
<path d="M26.3482 13.2676C26.6182 13.4297 26.7573 13.5412 26.88 13.8327C26.88 14.1459 26.7763 14.333 26.6141 14.5973C26.3288 14.74 26.0362 14.7389 25.7276 14.6859C25.5005 14.5031 25.5005 14.5031 25.373 14.2427C25.373 13.8921 25.4113 13.695 25.6113 13.4061C25.8833 13.2223 26.0255 13.2149 26.3482 13.2676Z" fill="black"/>
<path d="M9.23885 12.7359C9.49371 12.9188 9.49371 12.9188 9.68208 13.1792C9.73748 13.53 9.73616 13.7118 9.54911 14.0158C9.23658 14.2111 8.97733 14.2249 8.61833 14.1543C8.39672 14.0213 8.39672 14.0213 8.26375 13.7997C8.21017 13.5507 8.2052 13.3389 8.26375 13.0905C8.55182 12.7516 8.80081 12.6538 9.23885 12.7359Z" fill="black"/>
<path d="M37.2508 9.1018C37.4454 9.41437 37.5391 9.59924 37.4724 9.9661C37.3045 10.2179 37.1768 10.3167 36.8962 10.4315C36.6199 10.4204 36.439 10.3892 36.2037 10.2431C36.0366 9.97924 36.0151 9.76636 36.0098 9.45639C36.3468 8.90272 36.6643 8.85046 37.2508 9.1018Z" fill="black"/>
</g>
<defs>
<clipPath id="clip0_358_1085">
<rect width="45.3867" height="45.3867" fill="white" transform="translate(0.640625 0.50293)"/>
</clipPath>
</defs>
</svg>
