<svg width="47" height="46" viewBox="0 0 47 46" fill="none" xmlns="http://www.w3.org/2000/svg">
<g clip-path="url(#clip0_358_1117)">
<path d="M8.71049 0.461914C9.50019 0.485431 10.2748 0.578589 11.0562 0.687593C11.1976 0.706873 11.3391 0.72611 11.4805 0.745306C11.7751 0.78546 12.0697 0.826122 12.3642 0.867158C12.7394 0.91939 13.1148 0.970339 13.4902 1.02091C13.7817 1.06032 14.0731 1.10041 14.3645 1.14071C14.5027 1.15975 14.6411 1.17859 14.7794 1.1972C16.9528 1.49082 16.9528 1.49082 17.6347 2.1873C18.0802 2.78293 18.2748 3.36859 18.4031 4.09319C18.4214 4.1885 18.4396 4.28381 18.4585 4.382C18.5161 4.68436 18.5713 4.9871 18.6264 5.28991C18.6643 5.4902 18.7023 5.69046 18.7405 5.89069C18.9003 6.73532 19.0517 7.5809 19.1924 8.4289C19.2046 8.50237 19.2169 8.57585 19.2295 8.65156C19.2593 8.83114 19.2891 9.01074 19.319 9.19033C19.409 9.18992 19.4991 9.18951 19.592 9.18909C21.7857 9.17924 23.9794 9.17196 26.1731 9.16736C27.234 9.16508 28.2949 9.16197 29.3558 9.15689C30.2806 9.15247 31.2054 9.14961 32.1302 9.14863C32.6197 9.14805 33.1093 9.1467 33.5988 9.14347C34.06 9.14045 34.5211 9.13953 34.9822 9.1402C35.1511 9.14008 35.32 9.1392 35.4889 9.13749C37.2947 9.12016 37.2947 9.12016 38.0158 9.79178C38.5502 10.3494 38.5791 10.9438 38.5678 11.6872C38.5469 12.2477 38.5003 12.8049 38.4486 13.3632C38.437 13.4932 38.4254 13.6233 38.4139 13.7533C38.3824 14.1072 38.3502 14.4609 38.3179 14.8147C38.283 15.1975 38.2488 15.5805 38.2146 15.9634C38.1474 16.7122 38.0797 17.4609 38.0117 18.2096C37.9325 19.0824 37.8539 19.9554 37.7753 20.8283C37.635 22.3864 37.4941 23.9444 37.3529 25.5025C37.2161 27.0124 37.0797 28.5224 36.9438 30.0324C36.7956 31.679 36.6471 33.3255 36.4983 34.9721C36.4824 35.1478 36.4665 35.3236 36.4506 35.4993C36.4428 35.5858 36.435 35.6722 36.4269 35.7613C36.372 36.369 36.3172 36.9767 36.2625 37.5844C36.1958 38.3255 36.1288 39.0665 36.0615 39.8076C36.0272 40.1852 35.993 40.563 35.9591 40.9407C35.928 41.2871 35.8966 41.6335 35.8649 41.9799C35.8535 42.1045 35.8423 42.2292 35.8312 42.3538C35.606 44.8839 35.606 44.8839 35.0093 45.4465C34.2963 46.0401 33.4351 45.9517 32.5616 45.9457C32.3941 45.9461 32.2266 45.9468 32.0591 45.9476C31.6058 45.9492 31.1525 45.9481 30.6992 45.9464C30.224 45.9449 29.7489 45.9457 29.2737 45.9461C28.476 45.9465 27.6783 45.9451 26.8806 45.9426C25.9592 45.9398 25.0378 45.9398 24.1163 45.9413C23.2287 45.9427 22.3411 45.9422 21.4535 45.9406C21.0763 45.94 20.6991 45.9401 20.3219 45.9408C19.8775 45.9415 19.4332 45.9404 18.9888 45.938C18.826 45.9373 18.6632 45.9373 18.5004 45.938C18.2776 45.9387 18.055 45.9373 17.8322 45.9354C17.7683 45.9361 17.7043 45.9368 17.6384 45.9376C17.0883 45.9287 16.645 45.7381 16.2174 45.3928C15.5809 44.6324 15.535 43.7516 15.4528 42.7939C15.4406 42.6599 15.4283 42.5259 15.4159 42.3919C15.3823 42.0252 15.3499 41.6585 15.3176 41.2917C15.2826 40.8955 15.2465 40.4994 15.2105 40.1034C15.1403 39.3281 15.071 38.5527 15.0021 37.7773C14.9218 36.8742 14.8405 35.9711 14.7591 35.068C14.6139 33.4567 14.4697 31.8453 14.3259 30.2338C14.1865 28.6705 14.0464 27.1071 13.9057 25.5438C13.8971 25.4475 13.8884 25.3512 13.8795 25.252C13.862 25.058 13.8445 24.864 13.8271 24.67C13.8185 24.5743 13.8098 24.4786 13.801 24.38C13.7924 24.2845 13.7838 24.1891 13.7749 24.0907C13.6408 22.6004 13.5072 21.1101 13.3736 19.6198C13.3252 19.0798 13.2767 18.5399 13.2282 17.9999C13.1513 17.1435 13.0746 16.287 12.9983 15.4305C12.9635 15.0392 12.9285 14.6479 12.8933 14.2566C12.861 13.8983 12.8291 13.54 12.7973 13.1817C12.7858 13.0522 12.7742 12.9227 12.7625 12.7932C12.5656 10.619 12.5656 10.619 13.1359 9.87179C13.5953 9.42279 14.0815 9.17827 14.7287 9.18027C14.8014 9.18027 14.8741 9.18028 14.9491 9.18029C15.0268 9.18074 15.1044 9.1812 15.1844 9.18167C15.2646 9.1818 15.3448 9.18192 15.4274 9.18205C15.683 9.18255 15.9386 9.18366 16.1942 9.18479C16.3677 9.18523 16.5411 9.18564 16.7146 9.186C17.1395 9.18698 17.5644 9.18851 17.9893 9.19033C17.8673 8.54673 17.7448 7.90323 17.6216 7.25984C17.5644 6.961 17.5074 6.66213 17.4508 6.36318C17.3855 6.01848 17.3195 5.67393 17.2534 5.32938C17.2335 5.22344 17.2135 5.11749 17.193 5.00833C17.0308 3.83184 17.0308 3.83184 16.3936 2.89647C16.1164 2.80302 16.1164 2.80302 15.801 2.7543C15.7428 2.74378 15.6846 2.73326 15.6246 2.72241C15.0041 2.61335 14.3797 2.52933 13.7549 2.44908C13.5475 2.42235 13.3403 2.39487 13.1331 2.36718C12.5451 2.28866 11.9571 2.21074 11.3687 2.13495C11.0061 2.08818 10.6436 2.04 10.2813 1.99091C10.1441 1.97261 10.0069 1.95483 9.86967 1.9376C9.67843 1.91356 9.4875 1.88772 9.29655 1.86148C9.18816 1.84732 9.07977 1.83316 8.9681 1.81858C8.64382 1.73429 8.47369 1.62577 8.23821 1.38949C8.18842 1.09073 8.19731 0.930752 8.34548 0.665807C8.50415 0.50303 8.50415 0.50303 8.71049 0.461914ZM14.1072 10.7621C13.6672 11.5894 14.0629 13.1702 14.1468 14.0683C14.1722 14.3396 14.1966 14.6109 14.2209 14.8822C14.2368 15.0562 14.2526 15.2302 14.2686 15.4042C14.2759 15.4845 14.2832 15.5649 14.2907 15.6477C14.2978 15.7232 14.3049 15.7987 14.3122 15.8765C14.3183 15.9422 14.3244 16.0079 14.3307 16.0755C14.3595 16.3228 14.4025 16.5683 14.4434 16.8139C16.0816 16.8139 17.7198 16.8139 19.4076 16.8139C19.3349 16.0762 19.3349 16.0762 19.2208 15.3509C19.1919 15.1952 19.1919 15.1952 19.1625 15.0364C19.1419 14.9274 19.1213 14.8184 19.1001 14.7061C19.0681 14.5348 19.0681 14.5348 19.0355 14.36C18.9908 14.1202 18.9457 13.8804 18.9005 13.6406C18.8426 13.3335 18.7852 13.0262 18.7279 12.719C18.6731 12.4247 18.6179 12.1304 18.5627 11.8362C18.5318 11.6708 18.5318 11.6708 18.5003 11.5021C18.4714 11.3494 18.4714 11.3494 18.442 11.1935C18.4167 11.0591 18.4167 11.0591 18.3909 10.9219C18.3464 10.6879 18.3464 10.6879 18.2552 10.4314C17.7583 10.427 17.2615 10.4238 16.7646 10.4216C16.5956 10.4207 16.4267 10.4195 16.2577 10.418C16.0146 10.4158 15.7715 10.4148 15.5283 10.4141C15.453 10.4131 15.3778 10.4122 15.3002 10.4113C14.8308 10.4112 14.4619 10.4197 14.1072 10.7621ZM19.5849 10.4314C19.6283 10.9566 19.6748 11.4759 19.7717 11.9945C19.7909 12.0985 19.8102 12.2026 19.83 12.3098C19.8506 12.4186 19.8712 12.5274 19.8924 12.6396C19.9243 12.811 19.9243 12.811 19.9569 12.9859C20.0017 13.2256 20.0467 13.4652 20.092 13.7048C20.15 14.0121 20.2074 14.3194 20.2645 14.6268C20.3193 14.9211 20.3746 15.2153 20.4298 15.5095C20.4504 15.6199 20.471 15.7303 20.4922 15.8441C20.5114 15.9456 20.5307 16.0472 20.5505 16.1518C20.5673 16.2414 20.5842 16.331 20.6016 16.4233C20.6395 16.6363 20.6395 16.6363 20.7373 16.8139C26.0321 16.8139 31.3269 16.8139 36.7822 16.8139C36.8911 16.5962 36.8994 16.423 36.9216 16.1802C36.9305 16.0848 36.9393 15.9895 36.9485 15.8913C36.9577 15.7878 36.9669 15.6843 36.9765 15.5777C36.9862 15.4714 36.9959 15.3651 37.0059 15.2556C37.0264 15.0301 37.0467 14.8046 37.0669 14.5791C37.0977 14.2353 37.1292 13.8916 37.1608 13.5478C37.1807 13.3288 37.2005 13.1097 37.2202 12.8906C37.2297 12.7882 37.2391 12.6857 37.2488 12.5802C37.4033 11.5939 37.4033 11.5939 37.1368 10.6973C36.7212 10.4429 36.3715 10.3937 35.8948 10.3994C35.8248 10.3992 35.7549 10.3989 35.6828 10.3987C35.4492 10.3983 35.2157 10.3997 34.9821 10.4012C34.8144 10.4013 34.6466 10.4012 34.4789 10.4011C34.0239 10.401 33.569 10.4026 33.1141 10.4044C32.6385 10.4061 32.1629 10.4062 31.6873 10.4065C30.7869 10.4074 29.8866 10.4096 28.9862 10.4122C27.961 10.4152 26.9359 10.4167 25.9107 10.418C23.8021 10.4208 21.6935 10.4254 19.5849 10.4314ZM14.5321 18.0549C15.3325 27.0948 15.3325 27.0948 16.1391 36.1341C16.1961 36.769 16.2526 37.4039 16.3089 38.0389C16.3729 38.7594 16.4372 39.4799 16.5021 40.2004C16.5356 40.5725 16.5689 40.9446 16.6017 41.3168C16.6316 41.6571 16.6622 41.9973 16.6932 42.3374C16.7043 42.461 16.7153 42.5846 16.726 42.7082C16.7406 42.8767 16.7561 43.0452 16.7716 43.2136C16.78 43.3073 16.7884 43.4011 16.797 43.4977C16.8546 43.8801 16.9362 44.1837 17.1609 44.5018C17.446 44.7033 17.6978 44.698 18.0344 44.6937C18.1017 44.6943 18.169 44.6948 18.2384 44.6954C18.4641 44.6968 18.6898 44.6957 18.9155 44.6946C19.0773 44.6951 19.2391 44.6957 19.4008 44.6965C19.8404 44.6981 20.28 44.6974 20.7195 44.6963C21.1793 44.6954 21.6391 44.6963 22.0989 44.6968C22.8711 44.6975 23.6434 44.6966 24.4156 44.6949C25.3086 44.693 26.2016 44.6936 27.0946 44.6956C27.861 44.6972 28.6274 44.6974 29.3937 44.6965C29.8516 44.6959 30.3095 44.6959 30.7673 44.697C31.1979 44.698 31.6283 44.6973 32.0589 44.6953C32.2169 44.6948 32.375 44.695 32.533 44.6957C32.7487 44.6967 32.9643 44.6955 33.18 44.6937C33.2426 44.6945 33.3053 44.6953 33.3698 44.6961C33.648 44.6917 33.8557 44.6492 34.1097 44.5351C34.4169 44.1462 34.4267 43.7133 34.4774 43.2304C34.4871 43.1449 34.4968 43.0594 34.5068 42.9713C34.535 42.7046 34.5594 42.4377 34.5829 42.1705C34.5921 42.0693 34.6013 41.9681 34.6107 41.8639C34.6412 41.5279 34.6711 41.1919 34.701 40.8558C34.7227 40.6137 34.7446 40.3717 34.7665 40.1296C34.8196 39.5423 34.8722 38.9549 34.9247 38.3675C34.9858 37.683 35.0474 36.9985 35.109 36.3141C35.2189 35.0929 35.3284 33.8717 35.4376 32.6505C35.5436 31.4661 35.6499 30.2817 35.7565 29.0974C35.8912 27.6 36.0257 26.1026 36.16 24.6053C36.2028 24.1283 36.2456 23.6514 36.2886 23.1744C36.3408 22.5935 36.3929 22.0125 36.4447 21.4316C36.4712 21.1353 36.4978 20.839 36.5245 20.5427C36.5534 20.2215 36.582 19.9004 36.6106 19.5792C36.6191 19.4856 36.6276 19.3919 36.6364 19.2955C36.644 19.2092 36.6516 19.123 36.6594 19.0341C36.6661 18.9601 36.6727 18.886 36.6795 18.8096C36.6953 18.5585 36.6936 18.3065 36.6936 18.0549C29.3803 18.0549 22.067 18.0549 14.5321 18.0549Z" fill="black"/>
<path d="M27.1206 36.5819C27.73 37.0939 28.0422 37.728 28.1355 38.5121C28.1907 39.4193 28.0085 40.1459 27.3986 40.8505C26.836 41.3838 26.1288 41.714 25.3494 41.7283C24.5385 41.6828 23.9384 41.5077 23.3199 40.9699C23.2577 40.8968 23.1956 40.8237 23.1315 40.7483C23.041 40.6551 23.041 40.6551 22.9487 40.5599C22.4982 39.8914 22.3127 39.1539 22.4223 38.3549C22.583 37.6597 22.8778 37.156 23.3974 36.6706C23.4438 36.6268 23.4902 36.5831 23.538 36.538C24.6081 35.6584 26.0397 35.8732 27.1206 36.5819ZM23.9903 37.8562C23.6935 38.3179 23.6268 38.6899 23.7042 39.2257C23.8233 39.7062 24.1385 40.0491 24.5498 40.3051C25.0579 40.5061 25.4596 40.511 25.9675 40.3092C26.4196 40.0735 26.6825 39.7125 26.8546 39.2413C26.9208 38.7377 26.8828 38.3385 26.5887 37.9116C26.1881 37.5166 25.9047 37.2784 25.331 37.2634C24.7315 37.2697 24.4136 37.4214 23.9903 37.8562Z" fill="black"/>
<path d="M25.1144 19.6511C25.6189 19.9404 25.9769 20.3361 26.2668 20.8368C26.4384 21.5577 26.5083 22.2878 26.1186 22.9487C25.739 23.4778 25.2871 23.9226 24.6379 24.0834C23.8555 24.1775 23.2542 24.0856 22.599 23.6402C22.0921 23.2214 21.762 22.6837 21.6914 22.0245C21.6697 21.3215 21.823 20.7369 22.2832 20.1941C22.3582 20.1319 22.4332 20.0698 22.5104 20.0057C22.6173 19.9097 22.6173 19.9097 22.7265 19.8118C23.4071 19.3303 24.3668 19.3116 25.1144 19.6511ZM23.2196 21.0695C23.0092 21.3748 22.9536 21.5456 22.9536 21.9171C23.0883 22.3803 23.3601 22.5815 23.7514 22.8424C24.1824 22.8739 24.4787 22.811 24.8152 22.5377C25.1 22.1727 25.1293 21.8791 25.0811 21.4241C24.9252 21.0548 24.7397 20.8737 24.372 20.7149C23.8704 20.651 23.6016 20.7395 23.2196 21.0695Z" fill="black"/>
<path d="M29.9562 25.324C30.4455 25.7154 30.6756 26.1392 30.7513 26.7597C30.757 27.2696 30.6647 27.6893 30.3274 28.0818C29.8428 28.526 29.42 28.7435 28.7571 28.7258C28.2055 28.6422 27.7155 28.3822 27.38 27.9336C27.1087 27.4522 27.0687 27.0225 27.1196 26.4764C27.2971 25.9156 27.5735 25.587 28.0559 25.2576C28.673 24.9411 29.3584 24.9771 29.9562 25.324ZM28.4548 26.5374C28.3448 26.7392 28.3448 26.7392 28.3606 26.9695C28.4364 27.2008 28.4364 27.2008 28.6487 27.3574C28.891 27.4792 28.891 27.4792 29.1418 27.3795C29.2058 27.3448 29.2698 27.3101 29.3357 27.2743C29.4378 26.8673 29.4378 26.8673 29.3302 26.482C29.0118 26.3074 28.7328 26.2953 28.4548 26.5374Z" fill="black"/>
<path d="M23.1399 29.2326C23.5007 29.5097 23.6938 29.8175 23.8127 30.2555C23.8601 30.6197 23.8069 30.9268 23.6628 31.2635C23.3643 31.6449 23.0057 31.9261 22.5149 31.9979C22.0955 32.0163 21.8022 31.9438 21.4466 31.7067C21.0875 31.3515 20.9031 31.0356 20.8926 30.5266C20.8997 30.0878 20.9911 29.7752 21.3043 29.4514C21.8289 28.9853 22.5055 28.9036 23.1399 29.2326ZM22.2444 30.377C22.2444 30.4648 22.2444 30.5525 22.2444 30.643C22.3322 30.643 22.4199 30.643 22.5104 30.643C22.5104 30.5552 22.5104 30.4674 22.5104 30.377C22.4226 30.377 22.3348 30.377 22.2444 30.377Z" fill="black"/>
</g>
<defs>
<clipPath id="clip0_358_1117">
<rect width="45.3867" height="45.3867" fill="white" transform="translate(0.703125 0.50293)"/>
</clipPath>
</defs>
</svg>
