<svg width="47" height="46" viewBox="0 0 47 46" fill="none" xmlns="http://www.w3.org/2000/svg">
<g clip-path="url(#clip0_358_1123)">
<path d="M1.97139 16.0007C2.0442 16.0001 2.11701 15.9995 2.19202 15.9989C2.43355 15.9972 2.67508 15.9962 2.91661 15.9953C2.99902 15.9949 3.08144 15.9946 3.16635 15.9942C3.60253 15.9923 4.03872 15.9911 4.4749 15.9902C4.92563 15.9893 5.37631 15.9862 5.82702 15.9827C6.17341 15.9804 6.5198 15.9796 6.86621 15.9793C7.03236 15.9789 7.1985 15.9778 7.36465 15.9762C7.59724 15.974 7.82974 15.9741 8.06234 15.9747C8.13092 15.9736 8.19951 15.9725 8.27017 15.9713C8.59937 15.9745 8.78421 16.0053 9.0638 16.1852C9.36287 16.4922 9.36825 16.7309 9.36491 17.1456C9.31449 17.4664 9.14266 17.6014 8.89017 17.7893C8.58608 17.8907 8.3533 17.8886 8.03256 17.888C7.97286 17.888 7.91316 17.8881 7.85166 17.8881C7.65452 17.888 7.4574 17.8873 7.26026 17.8866C7.12351 17.8865 6.98675 17.8863 6.85 17.8862C6.49018 17.8859 6.13037 17.885 5.77056 17.884C5.40335 17.8831 5.03614 17.8827 4.66893 17.8823C3.9485 17.8813 3.22808 17.8798 2.50766 17.878C2.51525 18.715 2.5237 19.5521 2.53315 20.3892C2.53752 20.7781 2.54162 21.1671 2.54506 21.5561C2.56393 23.7626 2.56393 23.7626 2.6763 25.9659C2.6829 26.0577 2.68951 26.1495 2.69631 26.244C3.01082 30.0706 4.79328 33.5389 7.38319 36.3163C7.47952 36.4214 7.47952 36.4214 7.57779 36.5286C8.17716 37.1574 8.85054 37.6935 9.55851 38.1957C9.70629 38.3037 9.85018 38.4173 9.99004 38.5354C10.8046 39.1706 11.5087 39.1659 12.5066 39.1561C12.6728 39.1571 12.8389 39.1583 13.005 39.1599C13.4534 39.1631 13.9016 39.1619 14.35 39.1596C14.8209 39.1578 15.2917 39.1595 15.7626 39.1606C16.553 39.1619 17.3435 39.1602 18.1339 39.1568C19.0458 39.1529 19.9575 39.1542 20.8694 39.1581C21.6545 39.1613 22.4395 39.1618 23.2246 39.1599C23.6926 39.1588 24.1605 39.1586 24.6284 39.161C25.0685 39.1631 25.5085 39.1616 25.9486 39.1575C26.1094 39.1566 26.2702 39.1568 26.431 39.1584C27.4836 39.1678 28.0982 39.0565 28.9241 38.3552C29.0298 38.2781 29.1359 38.2017 29.2427 38.1263C29.9091 37.6149 30.532 37.0727 31.1403 36.4936C31.2074 36.4322 31.2744 36.3709 31.3436 36.3077C34.6383 33.1929 35.9914 28.6135 36.1171 24.2122C36.1408 23.2509 36.1492 22.2892 36.1577 21.3276C36.1614 20.9371 36.1658 20.5465 36.1703 20.1559C36.1787 19.3966 36.1862 18.6373 36.1931 17.878C36.0513 17.8783 36.0513 17.8783 35.9066 17.8787C33.6073 17.8846 31.3079 17.889 29.0085 17.8917C27.8965 17.8931 26.7846 17.895 25.6726 17.898C24.7035 17.9007 23.7344 17.9024 22.7653 17.903C22.2521 17.9033 21.7389 17.9041 21.2257 17.9061C20.7427 17.9079 20.2598 17.9084 19.7768 17.908C19.5995 17.9081 19.4222 17.9086 19.2448 17.9097C19.0028 17.911 18.7608 17.9107 18.5187 17.9099C18.4134 17.9111 18.4134 17.9111 18.306 17.9123C17.8816 17.9088 17.5897 17.8481 17.2229 17.612C16.9854 17.2558 16.9839 16.967 17.0456 16.5483C17.2046 16.2938 17.31 16.1501 17.5775 16.0164C17.8355 16.0071 18.0915 16.0033 18.3496 16.0034C18.4306 16.003 18.5115 16.0027 18.5949 16.0024C18.8677 16.0014 19.1405 16.001 19.4133 16.0007C19.6083 16.0002 19.8032 15.9996 19.9982 15.9989C20.5289 15.9974 21.0597 15.9965 21.5905 15.9957C21.9218 15.9953 22.2532 15.9947 22.5845 15.9942C23.561 15.9926 24.5375 15.9913 25.514 15.9906C25.6927 15.9905 25.8715 15.9904 26.0502 15.9902C26.1389 15.9902 26.1389 15.9902 26.2295 15.9901C27.1882 15.9894 28.1469 15.9871 29.1056 15.9842C30.0896 15.9813 31.0736 15.9797 32.0576 15.9794C32.6102 15.9792 33.1627 15.9784 33.7153 15.9762C34.2351 15.9741 34.7548 15.9738 35.2745 15.9747C35.4654 15.9747 35.6564 15.9741 35.8473 15.9729C36.1076 15.9714 36.3679 15.972 36.6282 15.9732C36.742 15.9717 36.742 15.9717 36.8581 15.9702C37.2158 15.9741 37.3912 15.9892 37.7006 16.1853C37.9814 16.4802 37.9767 16.6515 37.9747 17.0504C37.9744 17.1498 37.9741 17.2492 37.9738 17.3516C37.9731 17.4558 37.9723 17.5601 37.9716 17.6674C37.9712 17.7723 37.9708 17.8772 37.9704 17.9853C37.9693 18.245 37.9679 18.5047 37.966 18.7644C38.0592 18.7636 38.1525 18.7628 38.2485 18.762C39.1276 18.7548 40.0067 18.7495 40.8858 18.746C41.3377 18.7442 41.7896 18.7417 42.2416 18.7377C42.6778 18.7338 43.114 18.7317 43.5503 18.7308C43.7166 18.7301 43.8829 18.7288 44.0493 18.7269C44.2825 18.7244 44.5156 18.724 44.7489 18.7242C44.8517 18.7223 44.8517 18.7223 44.9566 18.7203C45.4167 18.7238 45.6794 18.8264 46.0328 19.119C46.1743 19.402 46.1353 19.7087 46.1357 20.0196C46.1362 20.0944 46.1366 20.1692 46.1371 20.2463C46.1384 20.4951 46.139 20.7439 46.1395 20.9927C46.14 21.1661 46.1405 21.3396 46.141 21.513C46.1419 21.8778 46.1424 22.2426 46.1427 22.6074C46.1432 23.0715 46.1454 23.5356 46.1479 23.9998C46.1496 24.3588 46.15 24.7179 46.1501 25.0769C46.1504 25.2478 46.1511 25.4187 46.1523 25.5895C46.1679 28.0322 45.5324 30.2267 43.7883 32.0042C43.7099 32.0815 43.6315 32.1589 43.5507 32.2386C43.4851 32.3041 43.4195 32.3696 43.352 32.437C41.4623 34.2194 39.0547 34.6696 36.5588 34.6431C36.4107 34.6422 36.2626 34.6414 36.1145 34.6407C35.7566 34.6388 35.3986 34.6357 35.0407 34.632C35.0017 34.7345 35.0017 34.7345 34.9619 34.8389C34.2963 36.4361 32.5282 37.9864 31.2289 39.0643C31.3335 39.0645 31.438 39.0646 31.5457 39.0647C32.5305 39.0662 33.5152 39.07 34.5 39.076C35.0063 39.0791 35.5126 39.0813 36.0189 39.0817C36.5075 39.0821 36.996 39.0846 37.4845 39.0886C37.671 39.0897 37.8574 39.0901 38.0438 39.0897C38.3049 39.0893 38.5659 39.0916 38.8269 39.0945C38.9427 39.0934 38.9427 39.0934 39.0607 39.0922C39.4457 39.0995 39.6045 39.1181 39.9201 39.3585C40.3006 39.88 40.1388 40.6839 40.0544 41.3002C39.7284 42.8235 38.8025 44.1121 37.5418 45.006C36.3938 45.7105 35.3283 45.9171 34.0052 45.9132C33.8831 45.9134 33.7611 45.9138 33.639 45.9142C33.3053 45.9151 32.9716 45.9149 32.6379 45.9145C32.2773 45.9143 31.9167 45.9151 31.5562 45.9158C30.8504 45.9169 30.1446 45.9171 29.4388 45.9169C28.8649 45.9167 28.2911 45.9169 27.7172 45.9172C27.5946 45.9173 27.5946 45.9173 27.4694 45.9174C27.3033 45.9175 27.1372 45.9176 26.9711 45.9177C25.4142 45.9187 23.8573 45.9185 22.3004 45.918C20.8772 45.9175 19.4541 45.9185 18.0309 45.9202C16.5684 45.9219 15.1059 45.9226 13.6434 45.9223C12.8228 45.9221 12.0022 45.9224 11.1816 45.9236C10.483 45.9247 9.78433 45.9248 9.08569 45.9237C8.72954 45.9232 8.3734 45.9231 8.01725 45.9242C7.69063 45.9251 7.36403 45.9248 7.03741 45.9236C6.86454 45.9233 6.69166 45.9242 6.51879 45.9252C4.83846 45.915 3.43387 45.2958 2.24172 44.1172C1.25551 43.0215 0.74037 41.7448 0.695961 40.2832C0.69289 40.2224 0.689819 40.1615 0.686655 40.0989C0.684035 39.7738 0.719118 39.6163 0.920199 39.3579C1.23967 39.1039 1.40155 39.0967 1.80605 39.0945C1.8675 39.0936 1.92895 39.0927 1.99227 39.0917C2.19423 39.0892 2.39606 39.0897 2.59804 39.0903C2.73852 39.0891 2.87899 39.0878 3.01947 39.0862C3.38832 39.0827 3.75713 39.0818 4.126 39.0815C4.50275 39.0806 4.87947 39.0773 5.25621 39.0742C5.99475 39.0685 6.73327 39.0655 7.47183 39.0643C7.43399 39.0291 7.39615 38.9938 7.35716 38.9574C7.18344 38.7955 7.00976 38.6335 6.83608 38.4715C6.77656 38.416 6.71704 38.3606 6.65571 38.3034C3.332 35.2029 0.908838 30.783 0.725688 26.1594C0.721448 25.9066 0.719735 25.654 0.719053 25.4012C0.718471 25.3058 0.717888 25.2104 0.717288 25.1122C0.715552 24.7992 0.714509 24.4862 0.713621 24.1732C0.71326 24.0659 0.712899 23.9587 0.712526 23.8481C0.710684 23.2815 0.709413 22.7148 0.708579 22.1482C0.707593 21.5628 0.704537 20.9775 0.701028 20.3922C0.698715 19.9417 0.697969 19.4912 0.69765 19.0407C0.697218 18.8248 0.696186 18.6089 0.694544 18.393C0.692393 18.0917 0.692465 17.7905 0.693083 17.4892C0.691947 17.4 0.690812 17.3109 0.689642 17.219C0.69255 16.8303 0.696613 16.6104 0.903559 16.2734C1.24015 15.9684 1.53728 16.0022 1.97139 16.0007ZM37.966 20.626C37.966 21.1818 37.966 21.7376 37.966 22.3103C38.0845 22.3116 38.2031 22.3128 38.3252 22.3142C38.7655 22.3193 39.2057 22.3262 39.646 22.3335C39.8364 22.3365 40.0269 22.339 40.2173 22.341C40.4913 22.3439 40.7652 22.3486 41.0392 22.3535C41.1242 22.3541 41.2091 22.3547 41.2967 22.3553C41.7318 22.3648 42.0489 22.3745 42.3983 22.6648C42.5011 22.8704 42.5003 22.9946 42.5041 23.2236C42.5055 23.3027 42.5069 23.3818 42.5084 23.4633C42.5124 23.8297 42.516 24.1961 42.518 24.5625C42.5195 24.7543 42.5219 24.9461 42.5253 25.1379C42.5531 26.7121 42.4528 27.9578 41.4232 29.2246C41.3428 29.3338 41.3428 29.3338 41.2608 29.4452C40.3917 30.4521 39.0809 30.9172 37.7919 31.0277C37.466 31.0511 37.1399 31.0697 36.8136 31.0862C36.7098 31.3335 36.6065 31.581 36.5034 31.8286C36.4738 31.899 36.4442 31.9694 36.4137 32.0419C36.3857 32.1093 36.3577 32.1768 36.3289 32.2462C36.3029 32.3084 36.2769 32.3706 36.2501 32.4347C36.1831 32.5929 36.1831 32.5929 36.1931 32.7705C38.4976 32.8326 40.3933 32.524 42.1992 30.964C43.6879 29.548 44.3037 27.7557 44.3562 25.738C44.3587 25.4104 44.3585 25.0829 44.3572 24.7553C44.3571 24.65 44.357 24.5447 44.3569 24.4361C44.3565 24.047 44.3552 23.6579 44.3541 23.2687C44.3513 21.9606 44.3513 21.9606 44.3485 20.626C42.2423 20.626 40.1361 20.626 37.966 20.626ZM37.966 24.1718C37.9587 24.49 37.9514 24.8081 37.9439 25.1358C37.9049 26.3392 37.7295 27.5083 37.5228 28.6928C37.4932 28.87 37.4636 29.0473 37.4342 29.2246C38.321 29.2211 39.0537 28.961 39.7334 28.3825C39.7937 28.3094 39.8541 28.2362 39.9162 28.1609C39.9912 28.0823 40.0662 28.0037 40.1434 27.9227C40.8149 27.0987 40.8172 26.0675 40.8082 25.0583C40.8064 24.7657 40.8046 24.4732 40.8027 24.1718C39.8666 24.1718 38.9305 24.1718 37.966 24.1718ZM2.68495 40.9259C2.85306 41.9345 3.39531 42.6872 4.19193 43.3193C5.32258 44.0419 6.44504 44.1447 7.76619 44.1397C7.8793 44.1399 7.99241 44.1402 8.10895 44.1405C8.41947 44.1412 8.72997 44.1409 9.04049 44.1403C9.37671 44.1399 9.71292 44.1405 10.0491 44.141C10.7064 44.1418 11.3637 44.1417 12.021 44.1411C12.5555 44.1407 13.0901 44.1407 13.6246 44.1409C13.739 44.1409 13.739 44.1409 13.8557 44.141C14.0107 44.141 14.1656 44.1411 14.3206 44.1411C15.7715 44.1416 17.2224 44.1411 18.6733 44.1401C19.9165 44.1393 21.1596 44.1395 22.4027 44.1403C23.8486 44.1412 25.2946 44.1416 26.7406 44.141C26.8949 44.141 27.0493 44.1409 27.2037 44.1409C27.3176 44.1408 27.3176 44.1408 27.4338 44.1408C27.9673 44.1406 28.5008 44.1409 29.0342 44.1413C29.6849 44.1418 30.3356 44.1417 30.9863 44.1407C31.3179 44.1403 31.6495 44.1401 31.981 44.1407C32.3414 44.1413 32.7017 44.1405 33.0621 44.1397C33.2173 44.1403 33.2173 44.1403 33.3756 44.1409C34.8079 44.1341 36.0319 43.9141 37.1184 42.9149C37.5831 42.4156 38.1433 41.6277 38.1433 40.9259C26.4421 40.9259 14.7408 40.9259 2.68495 40.9259Z" fill="black"/>
<path d="M24.2257 2.45381C24.7202 2.73374 24.7202 2.73374 24.8462 2.98568C24.9302 3.55343 24.8108 3.92841 24.5086 4.40887C24.227 4.8687 24.2695 5.39083 24.3143 5.911C24.4363 6.39598 24.6893 6.74516 25.0069 7.12434C26.0219 8.34051 26.3044 9.68218 26.1759 11.2298C25.9708 12.3939 25.3351 13.4273 24.4916 14.2437C24.2048 14.3871 23.9152 14.3835 23.6052 14.3324C23.3108 14.1805 23.1151 13.9885 22.9846 13.6786C22.9846 13.1138 23.1462 12.8264 23.5054 12.4043C24.0915 11.6978 24.2633 11.0246 24.2728 10.1158C24.1509 9.32797 23.7586 8.72509 23.2949 8.0939C22.4945 6.9537 22.2164 5.96989 22.3641 4.58131C22.5046 3.84334 22.8326 3.18883 23.3392 2.6311C23.6448 2.44378 23.867 2.41077 24.2257 2.45381Z" fill="black"/>
<path d="M19.4381 0.503023C19.7172 0.636773 19.8337 0.734775 19.9461 1.02451C20.0633 1.5833 19.8579 1.94051 19.5662 2.41064C19.3125 2.84604 19.2982 3.28935 19.3495 3.78292C19.5371 4.36203 19.8653 4.82747 20.2304 5.30652C21.07 6.45065 21.4558 7.70747 21.2588 9.13111C21.0439 10.2775 20.5647 11.1595 19.7927 12.027C19.7489 12.0774 19.7052 12.1278 19.6601 12.1797C19.4207 12.383 19.1197 12.391 18.8176 12.3816C18.4462 12.233 18.2693 12.0365 18.1084 11.6724C18.05 11.3868 18.0662 11.216 18.2092 10.9605C18.3492 10.7518 18.4947 10.5476 18.6403 10.3427C19.1445 9.5686 19.4569 8.89037 19.3495 7.94928C19.196 7.27826 18.8792 6.77937 18.4654 6.23765C17.6993 5.22058 17.3101 4.17572 17.3993 2.89646C17.53 2.04679 17.8381 1.27482 18.4021 0.619371C18.752 0.448468 19.0565 0.437343 19.4381 0.503023Z" fill="black"/>
<path d="M14.3855 2.45319C14.88 2.73313 14.88 2.73313 15.006 2.98507C15.0672 3.52728 15.0068 3.82058 14.7401 4.29814C14.445 4.84967 14.3647 5.29247 14.4741 5.91038C14.6824 6.55887 15.1135 7.06068 15.5244 7.59258C16.1266 8.43855 16.3671 9.3446 16.3634 10.3704C16.3648 10.4489 16.3662 10.5275 16.3677 10.6084C16.3687 11.9521 15.7247 13.0936 14.8287 14.0658C14.5372 14.3219 14.3355 14.378 13.9395 14.3639C13.6651 14.3133 13.5122 14.1734 13.3217 13.9772C13.1759 13.6855 13.1763 13.4048 13.2331 13.0907C13.3819 12.8039 13.5748 12.5534 13.765 12.2929C13.8647 12.1371 13.9627 11.9801 14.0586 11.822C14.1021 11.751 14.1457 11.68 14.1905 11.6069C14.5173 10.9906 14.4696 10.1485 14.3373 9.47838C14.1531 8.9525 13.819 8.54119 13.4745 8.11138C12.6285 7.04862 12.3823 5.91227 12.5239 4.58069C12.6623 3.87051 12.9674 3.1363 13.499 2.63048C13.8084 2.44833 14.0249 2.40993 14.3855 2.45319Z" fill="black"/>
<path d="M33.042 23.6729C33.3868 23.7584 33.505 23.8815 33.71 24.1718C33.7714 24.4909 33.7644 24.8009 33.7543 25.1248C33.7526 25.216 33.7509 25.3072 33.7491 25.4012C33.7263 26.1945 33.6331 26.9477 33.444 27.7177C33.4264 27.7901 33.4088 27.8625 33.3907 27.9371C32.7485 30.5053 31.5388 32.7116 29.7209 34.632C29.66 34.697 29.5991 34.7619 29.5363 34.8287C29.3019 35.0465 29.1527 35.069 28.8344 35.0753C28.4577 34.9667 28.2687 34.8847 28.0366 34.5656C27.9213 34.1908 27.9112 34.0334 28.0366 33.6569C28.2105 33.4401 28.3996 33.2429 28.5917 33.042C30.547 30.9284 31.6954 28.0017 31.8056 25.14C31.8295 24.6681 31.9048 24.2747 32.1587 23.8727C32.4562 23.6793 32.6933 23.682 33.042 23.6729Z" fill="black"/>
<path d="M26.3523 35.4299C26.6716 35.5885 26.8534 35.7898 26.9783 36.128C26.9711 36.4918 26.8906 36.7115 26.7069 37.0255C26.4048 37.2452 26.2325 37.2915 25.8592 37.2915C25.4809 37.1814 25.3349 37.085 25.1112 36.7596C25.0258 36.3459 25.0528 36.0553 25.2774 35.6959C25.6015 35.3909 25.9204 35.3594 26.3523 35.4299Z" fill="black"/>
<path d="M13.7642 16.0167C14.1193 16.2336 14.2667 16.3647 14.3903 16.7646C14.3838 17.1329 14.3307 17.3115 14.1188 17.6123C13.8163 17.8254 13.6417 17.8782 13.2711 17.8782C12.8929 17.7682 12.7469 17.6717 12.5232 17.3463C12.461 17.067 12.4585 16.8275 12.5232 16.5485C12.8968 16.0766 13.1667 15.9569 13.7642 16.0167Z" fill="black"/>
</g>
<defs>
<clipPath id="clip0_358_1123">
<rect width="45.3867" height="45.3867" fill="white" transform="translate(0.734375 0.50293)"/>
</clipPath>
</defs>
</svg>
