<svg width="47" height="46" viewBox="0 0 47 46" fill="none" xmlns="http://www.w3.org/2000/svg">
<path d="M14.0455 9.85435C14.1706 9.85352 14.1706 9.85352 14.2982 9.85268C14.5752 9.85127 14.8521 9.85238 15.129 9.8535C15.3286 9.85302 15.5281 9.85238 15.7277 9.85161C16.268 9.85 16.8083 9.85062 17.3486 9.85175C17.9149 9.85265 18.4811 9.85181 19.0474 9.85126C20.0591 9.85057 21.0708 9.85167 22.0825 9.85348C22.9984 9.85506 23.9144 9.85479 24.8303 9.85315C25.8958 9.85125 26.9613 9.85055 28.0269 9.8516C28.5902 9.85215 29.1535 9.85222 29.7169 9.85105C30.2466 9.85002 30.7763 9.85074 31.306 9.85279C31.5 9.85325 31.694 9.85312 31.8881 9.85234C32.1537 9.85136 32.4192 9.85259 32.6847 9.85435C32.7609 9.85356 32.837 9.85277 32.9155 9.85196C33.6836 9.86179 34.3601 10.1094 34.9223 10.6418C34.9925 10.7065 35.0627 10.7711 35.1349 10.8378C35.5234 11.2589 35.7524 11.6997 35.9293 12.2402C35.9611 12.3344 35.9611 12.3344 35.9935 12.4305C36.0622 12.6355 36.1295 12.8408 36.1966 13.0463C36.2317 13.1528 36.2317 13.1528 36.2674 13.2614C37.4798 16.952 38.3089 20.7651 38.5457 24.6478C38.5494 24.7079 38.5531 24.7679 38.5568 24.8297C38.887 30.4192 37.7603 36.2769 33.968 40.5806C32.5895 42.1076 30.9601 43.3099 28.8612 43.5848C28.5122 43.599 28.1634 43.5997 27.8143 43.6005C27.7092 43.6011 27.6042 43.6017 27.496 43.6023C27.1489 43.604 26.8017 43.6051 26.4546 43.6059C26.3344 43.6063 26.2141 43.6067 26.0939 43.607C25.5284 43.6087 24.9629 43.61 24.3974 43.6107C23.7483 43.6116 23.0992 43.6139 22.45 43.6175C21.9461 43.6202 21.4421 43.6215 20.9381 43.6218C20.6382 43.622 20.3384 43.6228 20.0385 43.625C18.3891 43.6357 16.9614 43.5763 15.4756 42.787C15.3687 42.7315 15.3687 42.7315 15.2596 42.6748C12.5003 41.136 10.6103 38.0335 9.53636 35.1635C9.51195 35.0985 9.48753 35.0336 9.46238 34.9667C8.62939 32.7102 8.20575 30.2514 8.18555 27.8478C8.18468 27.7614 8.18382 27.675 8.18293 27.586C8.16598 25.4469 8.23965 23.3616 8.56125 21.2461C8.57785 21.1362 8.59445 21.0264 8.61155 20.9132C9.06552 18.0032 9.81308 15.1339 10.7497 12.3427C10.7718 12.2746 10.7938 12.2066 10.8165 12.1364C11.1042 11.3129 11.7028 10.5568 12.4843 10.1498C13.0194 9.92698 13.4685 9.84836 14.0455 9.85435ZM12.2844 11.8496C11.9858 12.3947 11.7839 12.9476 11.5974 13.5394C11.5671 13.635 11.5368 13.7306 11.5057 13.8291C10.1435 18.1332 10.1435 18.1332 9.625 22.5757C9.89266 22.5231 10.1576 22.4624 10.4228 22.3985C10.4903 22.3843 10.5579 22.3701 10.6275 22.3555C10.8248 22.3019 10.9673 22.2545 11.132 22.1325C11.2114 21.9357 11.2416 21.7628 11.2608 21.5518C11.3938 20.956 11.9211 20.5172 12.336 20.1009C12.4334 20.0027 12.4334 20.0027 12.5327 19.9024C12.6697 19.7646 12.8068 19.627 12.9442 19.4896C13.1535 19.2799 13.3614 19.0688 13.5692 18.8576C13.7029 18.7235 13.8366 18.5894 13.9704 18.4554C14.032 18.3926 14.0936 18.3297 14.1571 18.2649C14.5994 17.8267 15.0381 17.4854 15.6917 17.4841C15.7519 17.4824 15.8121 17.4807 15.8742 17.479C16.5848 17.6197 17.0527 18.0723 17.5439 18.569C17.6112 18.6359 17.6784 18.7028 17.7477 18.7717C17.8888 18.9126 18.0295 19.054 18.1698 19.1958C18.384 19.4119 18.6 19.626 18.8163 19.84C18.9537 19.9777 19.091 20.1154 19.2282 20.2533C19.2925 20.3168 19.3567 20.3804 19.4229 20.4459C19.8492 20.8801 20.1406 21.2493 20.1998 21.8745C20.1912 22.1083 20.1825 22.342 20.1739 22.5757C21.0515 22.8829 21.0515 22.8829 21.9468 23.1963C21.9491 23.0573 21.9514 22.9184 21.9537 22.7752C21.9587 22.5905 21.9638 22.4058 21.9689 22.2212C21.9702 22.1299 21.9715 22.0386 21.9728 21.9445C21.9947 21.2556 22.0976 20.7485 22.595 20.2377C23.1942 19.8754 23.8001 19.8891 24.4815 19.8897C24.6285 19.8891 24.6285 19.8891 24.7785 19.8886C24.985 19.888 25.1915 19.888 25.398 19.8884C25.7132 19.8887 26.0283 19.8866 26.3434 19.8843C26.5446 19.8841 26.7458 19.8841 26.947 19.8842C27.0407 19.8833 27.1344 19.8825 27.231 19.8817C28.0816 19.887 28.6046 20.103 29.2157 20.7142C29.3416 20.6628 29.3416 20.6628 29.4699 20.6103C31.6382 19.7455 33.987 19.4157 36.2157 20.2848C36.3967 20.3629 36.5743 20.4487 36.7507 20.5369C36.7065 19.698 36.536 18.8936 36.3517 18.077C36.3363 18.0078 36.3208 17.9386 36.3049 17.8673C35.983 16.4331 35.5925 15.0256 35.155 13.6225C35.1297 13.5391 35.1043 13.4558 35.0782 13.3699C34.8058 12.4819 34.5448 11.6949 33.6885 11.2233C33.2739 11.0199 32.9152 11.0019 32.4591 11.0067C32.3779 11.0062 32.2967 11.0056 32.2131 11.0051C31.9425 11.0037 31.672 11.0048 31.4014 11.0059C31.2068 11.0054 31.0123 11.0048 30.8177 11.004C30.2902 11.0024 29.7627 11.003 29.2353 11.0041C28.6829 11.005 28.1305 11.0042 27.5781 11.0037C26.591 11.003 25.6041 11.0041 24.6171 11.0059C23.723 11.0075 22.829 11.0072 21.935 11.0055C20.8956 11.0036 19.8562 11.0029 18.8168 11.004C18.267 11.0045 17.7172 11.0046 17.1675 11.0034C16.6506 11.0024 16.1337 11.0031 15.6168 11.0052C15.4273 11.0057 15.2377 11.0055 15.0482 11.0047C14.7891 11.0038 14.5302 11.005 14.2711 11.0067C14.1964 11.006 14.1217 11.0052 14.0447 11.0044C13.3159 11.014 12.7505 11.2798 12.2844 11.8496ZM15.4111 18.6692C15.362 18.7163 15.3129 18.7635 15.2623 18.8121C15.2015 18.8696 15.1407 18.9271 15.0781 18.9864C15.0045 19.0593 14.9309 19.1321 14.8551 19.2072C14.7587 19.301 14.6622 19.3948 14.5656 19.4886C14.2889 19.7587 14.0146 20.0313 13.7412 20.3047C13.5681 20.4775 13.3944 20.6496 13.2207 20.8217C13.1108 20.9314 13.0009 21.0411 12.8911 21.1508C12.839 21.2023 12.7869 21.2537 12.7333 21.3067C12.4622 21.5423 12.4622 21.5423 12.373 21.8666C12.4782 21.8602 12.5833 21.8538 12.6916 21.8472C14.6497 21.7325 16.5519 21.7589 18.4761 22.1779C18.7314 22.2174 18.8717 22.2211 19.1101 22.1325C19.0639 21.7858 18.9878 21.6111 18.7418 21.3637C18.6829 21.3037 18.624 21.2437 18.5633 21.1818C18.4992 21.1185 18.4351 21.0551 18.3691 20.9898C18.3034 20.9238 18.2376 20.8577 18.1699 20.7896C18.0309 20.6503 17.8914 20.5115 17.7514 20.373C17.5374 20.1609 17.3254 19.947 17.1135 19.7328C16.9781 19.5977 16.8426 19.4626 16.707 19.3277C16.6436 19.2636 16.5803 19.1995 16.515 19.1335C16.4249 19.0452 16.4249 19.0452 16.3331 18.955C16.2808 18.903 16.2285 18.851 16.1746 18.7974C15.9344 18.6219 15.6848 18.5218 15.4111 18.6692ZM29.393 21.8666C29.3921 21.9193 29.3912 21.972 29.3903 22.0263C29.3807 22.5742 29.3705 23.1221 29.36 23.6699C29.3562 23.8745 29.3525 24.079 29.349 24.2836C29.3438 24.5773 29.3382 24.8711 29.3324 25.1648C29.331 25.2565 29.3295 25.3482 29.328 25.4427C29.3262 25.5279 29.3244 25.613 29.3226 25.7008C29.3212 25.7758 29.3198 25.8508 29.3184 25.9281C29.3044 26.1216 29.3044 26.1216 29.2157 26.3875C31.0164 27.1739 33.4694 26.819 35.2603 26.177C36.1411 25.8032 36.6954 25.413 37.1052 24.526C37.3308 23.8341 37.2517 23.0717 36.9494 22.4203C36.5293 21.6607 35.8982 21.2638 35.0659 21.0158C33.1593 20.5405 31.1138 20.9963 29.393 21.8666ZM23.2636 21.171C23.0708 21.467 23.0473 21.6202 23.0559 21.9708C23.0573 22.0734 23.0588 22.1759 23.0602 22.2816C23.0658 22.4409 23.0658 22.4409 23.0715 22.6034C23.0735 22.7114 23.0755 22.8193 23.0775 22.9305C23.0828 23.1965 23.09 23.4623 23.0992 23.7281C25.4811 25.2671 25.4811 25.2671 27.9927 26.0021C28.1517 25.9571 28.1517 25.9571 28.2406 25.8556C28.2512 25.7161 28.2557 25.5761 28.2577 25.4362C28.2592 25.3468 28.2606 25.2575 28.2621 25.1654C28.266 24.7559 28.2696 24.3464 28.2717 23.9369C28.2731 23.7206 28.2756 23.5044 28.279 23.2881C28.2838 22.9771 28.2857 22.6662 28.287 22.3552C28.2891 22.2584 28.2911 22.1616 28.2931 22.0619C28.2962 21.5472 28.2962 21.5472 28.076 21.0968C27.6633 20.9239 27.2825 20.9277 26.8389 20.9299C26.7462 20.9294 26.6534 20.9288 26.5578 20.9282C26.362 20.9276 26.1662 20.9279 25.9704 20.929C25.6709 20.9303 25.3717 20.9272 25.0722 20.9238C24.8818 20.9238 24.6913 20.9239 24.5009 20.9244C24.4115 20.9232 24.3221 20.922 24.23 20.9208C23.8226 20.9262 23.6062 20.9364 23.2636 21.171ZM9.53636 23.9054C8.31558 26.9585 9.68782 32.3723 10.8799 35.2341C11.7718 37.4196 11.7718 37.4196 13.3204 39.0805C13.3902 39.1238 13.4601 39.1671 13.532 39.2117C14.1128 39.4762 14.7146 39.5334 15.3461 39.5296C15.4538 39.53 15.4538 39.53 15.5636 39.5305C15.8019 39.5312 16.0401 39.5306 16.2783 39.5301C16.45 39.5303 16.6218 39.5306 16.7935 39.531C17.2584 39.5318 17.7232 39.5315 18.188 39.5309C18.6753 39.5305 19.1626 39.5309 19.6499 39.5312C20.4681 39.5315 21.2863 39.5311 22.1045 39.5302C23.0494 39.5293 23.9943 39.5296 24.9392 39.5306C25.7516 39.5314 26.564 39.5315 27.3764 39.531C27.8611 39.5307 28.3458 39.5307 28.8306 39.5313C29.2863 39.5318 29.7421 39.5314 30.1979 39.5304C30.3648 39.5302 30.5317 39.5302 30.6986 39.5306C30.9271 39.5311 31.1556 39.5305 31.3842 39.5296C31.4496 39.53 31.515 39.5304 31.5824 39.5308C32.4473 39.5244 33.1932 39.34 33.819 38.7162C34.2341 38.2549 34.5742 37.7874 34.878 37.2466C34.9453 37.1272 34.9453 37.1272 35.014 37.0054C36.7956 33.7515 37.4192 29.9775 37.3712 26.2989C37.1874 26.3888 37.0146 26.4775 36.8441 26.5911C34.7901 27.9605 31.8499 28.1146 29.4915 27.6644C29.3101 27.6258 29.13 27.5837 28.9498 27.5399C28.8906 27.5261 28.8315 27.5123 28.7705 27.4981C27.1455 27.1075 25.639 26.3565 24.186 25.5489C22.034 24.3555 19.7797 23.4108 17.3372 23.019C17.2764 23.0088 17.2156 22.9987 17.1529 22.9883C14.7512 22.6029 11.711 22.6797 9.53636 23.9054ZM14.5005 40.5709C15.9289 42.0064 17.6067 42.5239 19.6009 42.5341C19.6781 42.534 19.7553 42.534 19.8348 42.534C19.9191 42.5343 20.0034 42.5345 20.0903 42.5349C20.366 42.5357 20.6416 42.5359 20.9173 42.536C21.1113 42.5363 21.3052 42.5366 21.4992 42.5369C21.9047 42.5374 22.3103 42.5376 22.7158 42.5375C23.2319 42.5375 23.748 42.5387 24.264 42.5402C24.6645 42.5412 25.0649 42.5414 25.4653 42.5414C25.6554 42.5415 25.8455 42.5418 26.0356 42.5425C28.3481 42.5502 30.4766 42.3559 32.2297 40.6595C31.9553 40.5223 31.6659 40.5591 31.3648 40.5602C31.2929 40.5601 31.2211 40.5601 31.1471 40.56C30.9051 40.5598 30.6631 40.5603 30.4211 40.5608C30.2481 40.5608 30.0752 40.5608 29.9022 40.5608C29.4316 40.5607 28.9609 40.5613 28.4902 40.5619C27.9987 40.5624 27.5073 40.5625 27.0158 40.5626C26.0847 40.5629 25.1535 40.5636 24.2223 40.5645C23.1625 40.5655 22.1026 40.566 21.0427 40.5664C18.862 40.5673 16.6813 40.5689 14.5005 40.5709Z" fill="black"/>
<path d="M11.4869 4.31494C11.6489 4.32014 11.6489 4.32014 11.8415 4.40359C11.9057 4.55003 11.9687 4.69736 12.0213 4.84835C12.2296 5.43913 12.4469 5.78647 13.0121 6.08022C13.2984 6.21157 13.5854 6.33162 13.8803 6.44244C13.8803 6.5302 13.8803 6.61796 13.8803 6.70838C13.6626 6.81221 13.4446 6.91557 13.2266 7.01864C13.1646 7.04824 13.1027 7.07783 13.0389 7.10833C12.5707 7.3289 12.5707 7.3289 12.3733 7.3289C12.3572 7.3793 12.3411 7.42969 12.3245 7.48161C12.1838 7.91389 12.045 8.34016 11.8415 8.74724C11.7098 8.79112 11.7098 8.79112 11.5755 8.83588C11.3326 8.54889 11.2305 8.26797 11.1046 7.91618C10.9115 7.47732 10.7525 7.26782 10.3057 7.07573C10.1409 7.01526 9.97383 6.96124 9.80676 6.90749C9.53667 6.79703 9.53667 6.79703 9.41062 6.60623C9.38526 6.52516 9.38526 6.52516 9.35938 6.44244C9.52709 6.35498 9.69523 6.26834 9.86355 6.18205C9.95714 6.13371 10.0507 6.08537 10.1471 6.03557C10.3932 5.92413 10.6007 5.86086 10.8664 5.82192C10.8814 5.77256 10.8965 5.72319 10.9121 5.67233C11.0643 5.1929 11.2523 4.75989 11.4869 4.31494Z" fill="black"/>
<path d="M10.6892 24.4375C10.9939 24.443 10.9939 24.443 11.3097 24.5261C11.5422 24.8313 11.6092 25.0589 11.6115 25.4386C11.6126 25.53 11.6138 25.6214 11.6149 25.7156C11.6147 25.8133 11.6144 25.911 11.6141 26.0117C11.6146 26.1127 11.6151 26.2138 11.6155 26.3179C11.6161 26.5311 11.616 26.7444 11.6152 26.9576C11.6145 27.2847 11.617 27.6116 11.6198 27.9387C11.62 28.1459 11.6199 28.353 11.6197 28.5602C11.6207 28.6583 11.6217 28.7564 11.6227 28.8574C11.6218 28.9482 11.621 29.0391 11.6202 29.1327C11.6201 29.2526 11.6201 29.2526 11.6201 29.375C11.5757 29.579 11.5757 29.579 11.4157 29.7402C11.1188 29.9 10.9178 29.8444 10.6006 29.7563C10.119 29.0417 10.3181 27.7614 10.3182 26.9234C10.318 26.7076 10.3164 26.4917 10.3147 26.2759C10.3145 26.137 10.3143 25.9982 10.3142 25.8593C10.3136 25.7956 10.3129 25.7319 10.3123 25.6662C10.3144 25.1966 10.3465 24.7802 10.6892 24.4375Z" fill="black"/>
<path d="M36.6622 5.20115C37.007 5.32588 37.0849 5.4322 37.2716 5.74965C37.3852 6.13455 37.4161 6.41597 37.2827 6.79678C37.0434 7.08523 36.8505 7.30495 36.4697 7.3529C35.7767 7.38019 35.7767 7.38019 35.4599 7.11812C35.1281 6.76077 35.1206 6.52244 35.1234 6.04779C35.1747 5.6835 35.3324 5.53681 35.5985 5.2898C35.926 5.12603 36.304 5.17121 36.6622 5.20115Z" fill="black"/>
<path d="M29.7479 3.33984C29.8356 3.33984 29.9234 3.33984 30.0138 3.33984C30.0302 3.39332 30.0465 3.4468 30.0633 3.5019C30.2259 3.95211 30.2259 3.95211 30.5696 4.26959C30.7665 4.35488 30.961 4.42955 31.1662 4.49224C31.1662 4.60925 31.1662 4.72627 31.1662 4.84682C31.1127 4.86317 31.0593 4.87951 31.0042 4.89634C30.5539 5.05892 30.5539 5.05892 30.2365 5.40259C30.1512 5.59954 30.0765 5.79404 30.0138 5.99922C29.8459 5.97567 29.8459 5.97567 29.6592 5.91058C29.5751 5.76237 29.5751 5.76237 29.5096 5.57815C29.3037 5.11453 28.9551 4.95742 28.5068 4.75818C28.5955 4.49224 28.5955 4.49224 28.7437 4.41675C28.8045 4.39413 28.8653 4.3715 28.9279 4.34819C29.389 4.13755 29.5486 3.78819 29.7479 3.33984Z" fill="black"/>
<path d="M11.6642 30.9089C11.94 31.1663 12.0037 31.4512 12.0368 31.8178C12.0381 31.8854 12.0395 31.9529 12.0409 32.0225C12.0443 32.1241 12.0443 32.1241 12.0478 32.2278C12.0112 32.4648 11.9432 32.5399 11.7528 32.6818C11.4814 32.7157 11.3034 32.7319 11.0658 32.5876C10.7894 32.1592 10.7297 31.6743 10.7777 31.1748C10.9744 30.8161 11.2922 30.8624 11.6642 30.9089Z" fill="black"/>
<path d="M15.8687 3.31787C15.9729 3.32518 16.0772 3.3325 16.1845 3.34003C16.3618 3.60597 16.3618 3.60597 16.3397 3.83313C16.2732 4.0492 16.2732 4.0492 16.0959 4.22649C15.8798 4.25973 15.8798 4.25973 15.6527 4.22649C15.4864 4.0769 15.4864 4.0769 15.3867 3.87191C15.4255 3.45466 15.4378 3.34921 15.8687 3.31787Z" fill="black"/>
</svg>
