<svg width="47" height="46" viewBox="0 0 47 46" fill="none" xmlns="http://www.w3.org/2000/svg">
<g clip-path="url(#clip0_358_1131)">
<path d="M12.6443 1.12302C13.021 1.44948 13.2411 1.69933 13.2946 2.19958C13.3026 2.95289 13.2069 3.58885 12.9878 4.31012C12.898 4.57597 12.898 4.57597 12.9102 4.84615C12.9895 4.88168 13.0688 4.91722 13.1505 4.95384C15.0262 5.82333 16.1685 7.48025 16.9879 9.32831C17.0137 9.38632 17.0395 9.44433 17.066 9.5041C17.215 9.85445 17.2783 10.1344 17.3425 10.5195C21.4672 10.5195 25.5919 10.5195 29.8416 10.5195C29.8708 10.3732 29.9001 10.227 29.9302 10.0763C29.968 9.95078 30.0084 9.82604 30.0511 9.70215C30.0754 9.63142 30.0997 9.56069 30.1248 9.48782C30.2376 9.16624 30.3513 8.84496 30.4661 8.52409C30.526 8.35539 30.585 8.18638 30.6432 8.01706C30.7277 7.77119 30.815 7.52648 30.9029 7.28183C30.9406 7.16947 30.9406 7.16947 30.9791 7.05484C31.2769 6.247 31.9186 5.83393 32.6118 5.37248C32.7365 5.28807 32.8611 5.20358 32.9857 5.11901C33.051 5.07484 33.1162 5.03068 33.1835 4.98518C33.5419 4.74086 33.8967 4.49143 34.2517 4.24225C34.3261 4.19007 34.4006 4.1379 34.4772 4.08415C34.6292 3.97763 34.7811 3.87108 34.933 3.76452C35.3769 3.45323 35.8211 3.14243 36.2654 2.83166C36.6517 2.5614 37.0376 2.29075 37.4232 2.01952C37.5035 1.96313 37.5838 1.90673 37.6665 1.84863C37.8201 1.74072 37.9736 1.63269 38.127 1.52452C39.1948 0.774914 39.1948 0.774914 39.7699 0.85708C40.0303 1.03991 40.0303 1.03991 40.2132 1.30031C40.2683 1.64333 40.2706 1.83048 40.0826 2.12617C39.7766 2.45109 39.4291 2.68495 39.0608 2.93472C38.9001 3.04539 38.7394 3.15609 38.5787 3.26679C38.4557 3.3511 38.4557 3.3511 38.3301 3.43712C37.9513 3.69739 37.5753 3.96158 37.1992 4.22563C37.0515 4.32907 36.9037 4.43249 36.756 4.53589C36.6828 4.58708 36.6097 4.63827 36.5343 4.69102C35.8695 5.15641 35.8695 5.15641 35.6476 5.31158C35.5007 5.41453 35.354 5.5178 35.2076 5.62141C34.8265 5.89041 34.4424 6.15168 34.0498 6.40368C33.1701 6.9754 32.6025 7.34785 32.3237 8.39198C32.187 8.77085 32.0413 9.14618 31.8971 9.52222C31.8261 9.71189 31.7553 9.90164 31.6848 10.0915C31.6389 10.215 31.6389 10.215 31.5921 10.3411C31.5702 10.3999 31.5484 10.4588 31.5259 10.5195C31.7008 10.5167 31.7008 10.5167 31.8794 10.5139C32.315 10.5074 32.7507 10.5034 33.1863 10.5C33.3744 10.4982 33.5624 10.4958 33.7504 10.4927C34.0218 10.4884 34.293 10.4864 34.5644 10.4849C34.6475 10.483 34.7307 10.4812 34.8163 10.4793C35.4959 10.4791 35.9824 10.6714 36.5565 11.0237C36.9502 11.4283 37.2057 11.9107 37.2878 12.4697C37.2845 12.6985 37.2757 12.9221 37.2599 13.1499C37.2534 13.249 37.2534 13.249 37.2469 13.3501C37.1954 14.0997 37.112 14.8454 37.0264 15.5917C37.0089 15.7469 36.9914 15.9022 36.9739 16.0575C36.9367 16.3884 36.8992 16.7193 36.8615 17.0502C36.8018 17.5741 36.7428 18.098 36.6838 18.6219C36.5375 19.9219 36.3902 21.2218 36.243 22.5217C36.1282 23.535 36.0136 24.5483 35.8996 25.5616C35.8411 26.0819 35.7821 26.6022 35.7228 27.1224C35.686 27.446 35.6496 27.7696 35.6133 28.0933C35.5964 28.2428 35.5794 28.3923 35.5623 28.5417C35.5246 28.8694 35.4885 29.197 35.4579 29.5254C35.4263 29.8443 35.4263 29.8443 35.3845 30.0805C35.3408 30.4222 35.3837 30.5818 35.5848 30.8666C35.8235 31.1357 36.0744 31.385 36.3334 31.6342C36.431 31.731 36.5284 31.8279 36.6256 31.925C36.8349 32.1333 37.0453 32.3402 37.2568 32.5462C37.5914 32.8721 37.9232 33.2008 38.2546 33.5299C38.7793 34.0503 39.3058 34.5687 39.8331 35.0864C40.7772 36.0131 41.7187 36.9425 42.6585 37.8735C42.9883 38.1999 43.3191 38.5254 43.6507 38.85C43.857 39.0522 44.0627 39.2553 44.2681 39.4585C44.3633 39.5523 44.4589 39.6458 44.5547 39.739C44.6859 39.8666 44.8159 39.9953 44.9457 40.1243C45.0187 40.1959 45.0917 40.2675 45.1668 40.3413C45.4556 40.6937 45.6012 41.0392 45.6593 41.4957C45.5741 42.1897 45.2389 42.6059 44.7102 43.0466C43.3206 44.0983 41.8074 44.8244 40.1245 45.2687C40.0656 45.2846 40.0066 45.3005 39.9459 45.3169C37.9458 45.8304 35.6325 45.6773 33.6797 45.0429C33.3096 44.9699 33.0248 45.0741 32.7115 45.2687C32.2943 45.5159 32.0231 45.5461 31.5449 45.5483C31.4834 45.5487 31.4219 45.549 31.3585 45.5494C31.1519 45.5506 30.9453 45.5512 30.7388 45.5517C30.5908 45.5524 30.4429 45.5532 30.2949 45.5539C29.8085 45.5562 29.3221 45.5576 28.8357 45.5589C28.6681 45.5593 28.5005 45.5598 28.333 45.5603C27.6357 45.5622 26.9385 45.5639 26.2412 45.5649C25.2427 45.5663 24.2443 45.5692 23.2459 45.5743C22.5434 45.5777 21.841 45.5795 21.1386 45.5799C20.7193 45.5803 20.3001 45.5813 19.8808 45.5842C19.4859 45.5869 19.0911 45.5874 18.6962 45.5864C18.5518 45.5864 18.4073 45.5871 18.2629 45.5887C17.5337 45.5961 16.9207 45.5889 16.2777 45.1952C16.0955 45.0879 15.9557 45.0331 15.7469 45.0027C15.4478 45.0861 15.4478 45.0861 15.1319 45.2133C14.4797 45.463 13.9462 45.554 13.2537 45.5568C13.1786 45.5571 13.1035 45.5575 13.0261 45.5578C12.5196 45.5531 12.0884 45.4807 11.6055 45.3227C11.1742 45.2075 10.7917 45.33 10.3689 45.4484C8.85899 45.826 7.30885 45.421 5.99583 44.6482C3.2949 42.9027 1.65981 39.9882 0.957274 36.9027C0.577641 35.0436 0.51358 32.8077 1.1203 30.9967C1.13977 30.9354 1.15924 30.8741 1.1793 30.8109C1.767 28.9862 2.82591 27.687 4.5259 26.8082C4.57218 26.7862 4.61846 26.7643 4.66614 26.7417C4.59221 26.6859 4.51827 26.6302 4.4421 26.5727C4.18094 26.3748 3.92189 26.1743 3.66385 25.9723C3.53192 25.8694 3.39895 25.7678 3.26581 25.6665C2.85538 25.3345 2.6089 25.0764 2.54072 24.5401C2.53666 24.1659 2.58549 23.8817 2.83267 23.5899C3.27265 23.1825 3.6776 23.0785 4.26169 22.9909C4.34174 22.9771 4.42179 22.9633 4.50426 22.9491C4.73515 22.9102 4.96633 22.8752 5.19802 22.8413C5.30669 22.8241 5.41536 22.807 5.52732 22.7893C6.03802 22.7289 6.55294 22.7295 7.06659 22.7265C7.18656 22.7254 7.30652 22.7236 7.42646 22.721C9.0241 22.6861 10.353 23.1496 11.5805 24.171C11.639 24.2295 11.6975 24.288 11.7578 24.3482C11.8492 24.2457 11.8492 24.2457 11.9424 24.1412C12.023 24.0514 12.1037 23.9616 12.1844 23.8718C12.2245 23.8268 12.2645 23.7817 12.3058 23.7353C12.4982 23.5219 12.6696 23.3562 12.9102 23.1959C12.9333 22.9397 12.9333 22.9397 12.8995 22.6276C12.8946 22.5664 12.8898 22.5051 12.8848 22.442C12.7882 21.2983 12.6445 20.158 12.5121 19.0181C12.4753 18.7007 12.4391 18.3833 12.4029 18.0658C12.3916 17.9697 12.3802 17.8735 12.3685 17.7745C12.3081 17.2431 12.2783 16.7276 12.2897 16.1928C12.2312 16.1797 12.1728 16.1666 12.1126 16.1531C10.4237 15.7608 8.8916 14.8356 7.59146 13.7107C7.50044 13.637 7.50044 13.637 7.40758 13.5618C6.77683 13.0042 6.44962 12.2384 6.08448 11.4946C6.01283 11.5192 5.94118 11.5437 5.86736 11.569C5.72527 11.6172 5.72527 11.6172 5.5803 11.6663C5.43992 11.7142 5.43992 11.7142 5.2967 11.763C4.59364 11.9826 3.72194 12.1061 3.01269 11.8544C2.6116 11.6161 2.35547 11.3384 2.22388 10.882C1.95294 9.62161 2.50374 8.29208 3.15916 7.23959C3.75304 6.40456 4.76502 5.98581 5.72989 5.73261C5.41252 5.39495 5.08002 5.12859 4.6883 4.87939C4.60666 4.82672 4.60666 4.82672 4.52337 4.773C4.15926 4.5448 3.81387 4.40045 3.39947 4.28415C3.24781 4.22563 3.24781 4.22563 3.06497 4.02063C2.96557 3.73566 2.93815 3.55027 2.98187 3.25052C3.11484 3.0012 3.11484 3.0012 3.33645 2.80729C3.95126 2.62709 4.37714 2.78124 4.93208 3.07323C5.68875 3.51679 6.38917 4.01329 7.05958 4.58021C7.06518 4.52959 7.07078 4.47897 7.07655 4.42681C7.21446 3.51365 7.65595 2.62653 8.33871 1.99597C9.48709 1.17047 11.298 0.386375 12.6443 1.12302ZM9.27573 3.33917C8.70921 4.01243 8.52555 4.78272 8.56656 5.64396C9.40838 5.65599 10.0946 5.39915 10.7827 4.93479C11.3691 4.34936 11.68 3.57826 11.6858 2.75189C11.6803 2.65316 11.6748 2.55443 11.6692 2.45271C10.8207 2.41185 9.90284 2.77109 9.27573 3.33917ZM10.9101 6.55812C10.2982 6.88987 9.69685 7.03687 9.00979 7.15094C8.86195 7.17999 8.71416 7.20935 8.56656 7.23959C8.55251 7.32963 8.53845 7.41968 8.52397 7.51245C8.37545 8.40814 8.15658 9.21306 7.69118 10.0042C7.51335 10.4488 7.59858 10.839 7.76702 11.2778C8.11612 12.0212 8.60178 12.5626 9.26465 13.0404C9.34992 13.1023 9.34992 13.1023 9.43692 13.1655C10.2263 13.7227 11.0861 14.177 12.0238 14.4199C12.0176 14.3423 12.0176 14.3423 12.0114 14.2631C11.9935 14.0237 11.9781 13.7841 11.9628 13.5445C11.9564 13.4632 11.9499 13.3818 11.9432 13.298C11.9028 12.6218 11.9897 12.0343 12.3347 11.4426C12.382 11.3903 12.4293 11.338 12.4781 11.2841C12.524 11.2303 12.5699 11.1766 12.6173 11.1213C13.2561 10.6254 13.8992 10.5526 14.6887 10.5416C14.8291 10.5377 14.8291 10.5377 14.9724 10.5337C15.201 10.5275 15.4296 10.5228 15.6582 10.5195C15.5862 10.1138 15.4432 9.77243 15.2593 9.40587C15.2281 9.34354 15.1968 9.28122 15.1647 9.217C14.8579 8.62364 14.4853 8.11198 14.0626 7.59417C14.0172 7.53326 13.9719 7.47236 13.9251 7.40961C13.4869 6.84296 12.8127 6.42011 12.1124 6.26448C11.6158 6.22706 11.34 6.313 10.9101 6.55812ZM4.57749 8.0374C4.065 8.70619 3.75225 9.4934 3.77968 10.3422C4.64246 10.3988 5.42425 10.1746 6.10352 9.62368C6.65456 9.03887 6.95361 8.25668 6.98202 7.4612C6.97836 7.38807 6.9747 7.31493 6.97093 7.23959C6.11236 7.18329 5.19849 7.4024 4.57749 8.0374ZM13.5307 12.381C13.3299 13.2609 13.4903 14.2138 13.5701 15.1023C13.5881 15.3191 13.603 15.5361 13.6148 15.7532C13.6379 16.9448 13.6379 16.9448 14.1455 17.972C14.5465 18.2678 14.9809 18.4489 15.4517 18.6047C15.7576 18.7087 16.0424 18.8468 16.3342 18.9852C17.6268 19.5452 19.2998 19.6182 20.6224 19.1181C20.9006 19.0026 21.177 18.8831 21.4535 18.7636C22.4938 18.3159 23.4278 18.1231 24.5616 18.1098C24.6429 18.1085 24.7242 18.1073 24.8079 18.106C25.5332 18.1111 26.2108 18.2512 26.9163 18.409C27.2968 17.3867 27.6773 16.3644 28.0575 15.3421C28.2247 14.8926 28.3919 14.4432 28.5593 13.9939C28.6618 13.7186 28.7641 13.4432 28.8665 13.1678C28.9032 13.0693 28.9399 12.9708 28.9778 12.8694C29.0269 12.737 29.0269 12.737 29.077 12.602C29.1192 12.4887 29.1192 12.4887 29.1622 12.373C29.2259 12.2197 29.2259 12.2197 29.2211 12.1151C27.2277 12.1089 25.2342 12.1042 23.2408 12.1013C22.3153 12.1 21.3897 12.0981 20.4642 12.095C19.6576 12.0924 18.8511 12.0907 18.0445 12.0901C17.6173 12.0897 17.1901 12.0889 16.7629 12.087C16.361 12.0852 15.9591 12.0846 15.5572 12.085C15.4095 12.085 15.2618 12.0844 15.1142 12.0834C14.9128 12.0821 14.7115 12.0824 14.5102 12.0831C14.3974 12.0829 14.2846 12.0826 14.1685 12.0824C13.8646 12.1175 13.7399 12.161 13.5307 12.381ZM30.9053 12.1151C30.4626 13.2401 30.0365 14.3707 29.6185 15.5051C29.5199 15.7727 29.421 16.0403 29.3222 16.3078C28.9878 17.2132 28.6561 18.1194 28.3346 19.0295C29.8785 19.5822 31.5412 19.5927 33.0465 18.901C34.174 18.4431 34.174 18.4431 35.1603 17.7885C35.1842 17.6512 35.2028 17.513 35.2192 17.3746C35.2299 17.2864 35.2405 17.1982 35.2515 17.1073C35.2682 16.963 35.2682 16.963 35.2853 16.8158C35.297 16.7172 35.3087 16.6187 35.3207 16.5172C35.3454 16.3079 35.3699 16.0985 35.3943 15.8892C35.4314 15.5702 35.4694 15.2514 35.5075 14.9326C35.5314 14.7292 35.5552 14.5259 35.579 14.3226C35.5903 14.2277 35.6017 14.1327 35.6134 14.0349C35.6428 13.7793 35.6686 13.5237 35.6922 13.2675C35.6996 13.199 35.7071 13.1305 35.7147 13.06C35.7359 12.7406 35.6995 12.5703 35.5327 12.2951C35.1121 12.0283 34.7436 12.0598 34.2555 12.0718C34.1597 12.0725 34.064 12.0731 33.9653 12.0737C33.6599 12.0762 33.3547 12.0818 33.0495 12.0874C32.8422 12.0896 32.635 12.0917 32.4277 12.0935C31.9202 12.0984 31.4128 12.1058 30.9053 12.1151ZM21.6179 20.3094C19.908 21.0324 17.8637 21.1909 16.1015 20.5365C15.5791 20.316 15.0711 20.0674 14.568 19.8063C14.4178 19.7266 14.4178 19.7266 14.2399 19.7387C14.3013 20.9152 14.4323 22.0828 14.5622 23.2534C14.5863 23.4719 14.6103 23.6904 14.6343 23.909C14.706 24.5602 14.7781 25.2113 14.8504 25.8625C14.8845 26.1699 14.9185 26.4774 14.9525 26.7849C15.0658 27.8077 15.1791 28.8304 15.2929 29.8532C15.3002 29.9184 15.3074 29.9835 15.3149 30.0507C15.3222 30.116 15.3294 30.1814 15.3369 30.2487C15.3516 30.381 15.3664 30.5134 15.3811 30.6457C15.392 30.7442 15.392 30.7442 15.4032 30.8447C15.5218 31.9112 15.6396 32.9779 15.7569 34.0445C15.8777 35.1419 15.9992 36.2393 16.1215 37.3365C16.19 37.9517 16.2582 38.5669 16.3256 39.1823C16.3888 39.76 16.4531 40.3376 16.5181 40.9152C16.5418 41.1272 16.5651 41.3393 16.5881 41.5514C16.6194 41.8406 16.6521 42.1297 16.685 42.4188C16.6938 42.5029 16.7027 42.587 16.7118 42.6737C16.7631 43.1113 16.8198 43.4794 17.0766 43.8503C17.4082 44.048 17.7144 44.0496 18.0947 44.049C18.2691 44.0493 18.2691 44.0493 18.4469 44.0497C18.5751 44.0491 18.7032 44.0484 18.8314 44.0478C18.9669 44.0477 19.1023 44.0477 19.2377 44.0478C19.6049 44.0479 19.9721 44.0469 20.3393 44.0456C20.7232 44.0445 21.1071 44.0444 21.491 44.0442C22.2178 44.0436 22.9446 44.0422 23.6713 44.0404C24.4988 44.0384 25.3263 44.0375 26.1538 44.0366C27.8559 44.0347 29.5579 44.0316 31.2599 44.0276C31.0154 43.7735 30.7507 43.5917 30.4566 43.396C29.9138 43.0271 29.4296 42.6204 28.9551 42.1661C28.849 42.0699 28.849 42.0699 28.7408 41.9718C26.89 40.2328 25.6621 37.5965 25.4093 35.0744C25.3975 34.9588 25.3857 34.8431 25.3736 34.724C25.1126 31.6748 25.9526 28.5917 27.8595 26.1863C28.309 25.6653 28.5949 25.3588 29.2931 25.2901C30.1248 25.3188 30.6527 25.9097 31.1959 26.4688C31.2714 26.5451 31.3469 26.6213 31.4247 26.6998C31.6643 26.942 31.9026 27.1853 32.1408 27.4287C32.3815 27.6731 32.6225 27.9173 32.8636 28.1613C33.0133 28.313 33.1627 28.4649 33.3117 28.6171C33.4121 28.7192 33.4121 28.7192 33.5145 28.8234C33.5736 28.8837 33.6326 28.9441 33.6935 29.0063C33.81 29.1452 33.8101 29.1452 33.9193 29.1351C34.0468 28.0016 34.174 26.8681 34.3007 25.7346C34.3596 25.2082 34.4185 24.6818 34.4778 24.1555C34.535 23.6474 34.5919 23.1393 34.6485 22.6312C34.6701 22.4375 34.6919 22.2438 34.7138 22.0501C34.7445 21.7785 34.7747 21.5069 34.8049 21.2352C34.8186 21.1155 34.8186 21.1155 34.8325 20.9933C34.8788 20.572 34.9037 20.1625 34.8944 19.7387C34.4925 19.8619 34.1335 20.0258 33.7586 20.2151C32.0323 21.0375 30.1731 21.1072 28.3346 20.6251C28.1575 20.5946 27.9802 20.565 27.8027 20.5365C27.4121 21.4312 27.0798 22.3461 26.7456 23.2629C26.5694 23.7462 26.3923 24.2292 26.2154 24.7122C26.16 24.8634 26.16 24.8634 26.1035 25.0178C25.6958 26.1309 25.284 27.2425 24.8719 28.3539C24.7967 28.5569 24.7214 28.7598 24.6462 28.9627C24.5347 29.2636 24.4232 29.5645 24.3116 29.8654C23.9549 30.8277 23.5988 31.7903 23.243 32.753C23.1984 32.8737 23.1984 32.8737 23.1528 32.9968C22.788 33.9836 22.4241 34.9707 22.0611 35.9581C21.9982 36.1294 21.9352 36.3007 21.8722 36.4719C21.8514 36.5284 21.8307 36.5849 21.8093 36.643C21.7674 36.7569 21.7255 36.8708 21.6836 36.9847C21.5429 37.3671 21.4025 37.7495 21.2622 38.1319C21.1872 38.3358 21.1123 38.5397 21.0372 38.7435C21.0015 38.8405 20.9659 38.9375 20.9291 39.0374C20.6869 39.6932 20.4378 40.3459 20.1779 40.9948C20.0468 41.3049 20.0468 41.3049 20.0019 41.6342C19.6728 41.7439 19.3688 41.771 19.0268 41.7228C18.8052 41.5843 18.8052 41.5843 18.6722 41.3683C18.6045 40.7758 18.8083 40.2983 19.0171 39.7501C19.0536 39.6519 19.0901 39.5537 19.1277 39.4525C19.2274 39.1845 19.328 38.9169 19.429 38.6494C19.5356 38.3664 19.6411 38.0829 19.7466 37.7995C19.9218 37.3293 20.0975 36.8594 20.2737 36.3896C20.6296 35.4402 20.9808 34.4891 21.3323 33.5381C21.5161 33.0411 21.7004 32.5442 21.8846 32.0473C22.9382 29.2043 23.9875 26.3597 25.0355 23.5147C25.073 23.4127 25.1106 23.3107 25.1493 23.2056C25.2224 23.007 25.2955 22.8083 25.3685 22.6097C25.5336 22.1608 25.6994 21.7122 25.8677 21.2645C25.897 21.1861 25.9263 21.1076 25.9565 21.0269C26.0106 20.8826 26.0649 20.7384 26.1197 20.5944C26.2198 20.3265 26.2957 20.1158 26.2957 19.8273C24.6483 19.4084 23.1566 19.6554 21.6179 20.3094ZM5.83516 24.3372C5.77155 24.3441 5.70795 24.3511 5.64241 24.3582C5.2683 24.4037 4.93041 24.4823 4.57749 24.6142C5.26228 25.329 6.09281 25.8293 6.95985 26.2929C7.02199 26.3264 7.08412 26.3598 7.14814 26.3943C8.07957 26.8797 9.14229 27.006 10.1712 26.7663C10.4801 26.642 10.6509 26.5344 10.8492 26.2652C10.8814 25.9266 10.7952 25.7825 10.6054 25.5006C9.74792 24.5674 8.57632 24.3092 7.36465 24.2482C6.85016 24.2364 6.34576 24.2799 5.83516 24.3372ZM13.1761 25.1461C12.6263 25.9262 12.0695 26.8185 12.1124 27.8054C12.3175 27.7041 12.5225 27.6025 12.7274 27.5007C12.8151 27.4574 12.8151 27.4574 12.9045 27.4133C13.1924 27.2832 13.1924 27.2832 13.4421 27.0963C13.4363 26.8843 13.425 26.6759 13.4088 26.4647C13.4008 26.3493 13.3928 26.2338 13.3846 26.1149C13.3554 25.7888 13.3144 25.4695 13.2648 25.1461C13.2355 25.1461 13.2063 25.1461 13.1761 25.1461ZM29.3097 26.8303C28.0427 28.3441 27.235 30.1126 26.9163 32.0604C26.9047 32.1276 26.8932 32.1948 26.8813 32.2641C26.512 34.8834 27.2711 37.6033 28.8222 39.7228C30.5399 41.9028 32.8249 43.4776 35.6091 43.9085C38.5424 44.2518 41.263 43.5715 43.6492 41.816C43.7147 41.756 43.7802 41.696 43.8476 41.6342C43.8476 41.2674 43.6956 41.1724 43.4487 40.9084C43.3747 40.8285 43.3006 40.7487 43.2243 40.6664C43.1668 40.6055 43.1092 40.5446 43.0498 40.4818C43.0025 40.514 42.9552 40.5463 42.9065 40.5795C40.6772 42.0837 38.3653 42.8514 35.6559 42.4095C33.3943 41.9395 31.2971 40.7288 29.9444 38.8287C29.289 37.8119 28.8083 36.7796 28.5119 35.6063C28.4902 35.5206 28.4685 35.4349 28.4461 35.3466C27.9842 33.1132 28.4659 30.7033 29.6643 28.7805C29.8649 28.4803 30.0713 28.1853 30.2848 27.8941C30.1542 27.5904 29.9826 27.3933 29.7474 27.1628C29.6526 27.0688 29.6526 27.0688 29.5559 26.973C29.4228 26.8204 29.4228 26.8204 29.3097 26.8303ZM4.04562 29.0465C3.9846 29.1028 3.92358 29.1592 3.86071 29.2172C2.83235 30.2633 2.32861 31.9459 2.2727 33.3901C2.26584 33.5375 2.26584 33.5375 2.25885 33.6879C2.1826 36.8523 3.31478 39.9057 5.47943 42.2155C6.44298 43.2136 7.64692 43.9359 9.05931 44.0311C9.56571 44.023 10.0184 43.9159 10.478 43.7063C10.9175 43.5305 11.3282 43.4809 11.7755 43.6644C11.8428 43.6965 11.9101 43.7286 11.9794 43.7617C12.8753 44.1524 13.9385 44.0128 14.832 43.688C15.049 43.5787 15.1608 43.5143 15.3036 43.3185C15.3182 43.0524 15.3182 43.0524 15.2757 42.7459C15.2694 42.6875 15.2632 42.6291 15.2568 42.569C15.2355 42.3728 15.2121 42.1769 15.1888 41.981C15.1731 41.8406 15.1576 41.7003 15.1422 41.5599C15.0999 41.1782 15.0558 40.7968 15.0113 40.4154C14.9652 40.0168 14.9206 39.618 14.8759 39.2192C14.8005 38.5495 14.724 37.88 14.6469 37.2105C14.5379 36.2655 14.431 35.3204 14.3245 34.3751C14.2508 33.7213 14.1765 33.0676 14.1021 32.4139C14.084 32.2552 14.066 32.0964 14.048 31.9376C13.9966 31.4851 13.9449 31.0326 13.8927 30.5802C13.8769 30.4429 13.8612 30.3057 13.8456 30.1683C13.8244 29.9815 13.8028 29.7946 13.781 29.6078C13.769 29.5031 13.757 29.3984 13.7446 29.2904C13.7215 29.0506 13.7215 29.0506 13.6194 28.8692C13.2341 28.9945 12.8558 29.1327 12.4781 29.2792C12.3759 29.3187 12.2737 29.3583 12.1685 29.399C12.0915 29.4289 12.0145 29.4589 11.9351 29.4897C11.9338 29.5944 11.9326 29.6991 11.9313 29.8069C11.9271 29.9449 11.9229 30.083 11.9185 30.221C11.9177 30.3244 11.9177 30.3244 11.9169 30.4298C11.9029 30.7932 11.8929 30.9457 11.6404 31.2228C11.316 31.3985 11.1331 31.36 10.7827 31.2626C10.532 31.0872 10.4868 30.9343 10.4281 30.6421C10.4086 30.4429 10.3922 30.2434 10.3783 30.0437C10.3708 29.94 10.3634 29.8362 10.3558 29.7293C10.3504 29.6503 10.345 29.5712 10.3395 29.4897C10.2868 29.4703 10.2341 29.4509 10.1798 29.4308C9.76237 29.2711 9.3708 29.096 8.98209 28.8747C7.31839 27.941 5.54246 27.6421 4.04562 29.0465ZM31.4372 28.9578C30.5406 30.0743 30.0229 31.3531 29.8416 32.7696C31.6738 32.872 33.5032 32.8676 35.3376 32.8583C34.928 32.3668 34.4923 31.9113 34.0394 31.4597C33.9317 31.3518 33.9317 31.3518 33.8218 31.2417C33.671 31.0909 33.5201 30.9402 33.3692 30.7896C33.137 30.5579 32.9053 30.3257 32.6736 30.0934C32.5268 29.9468 32.3801 29.8001 32.2333 29.6535C32.1637 29.5837 32.0941 29.5139 32.0223 29.442C31.9584 29.3783 31.8944 29.3147 31.8286 29.2491C31.7721 29.1927 31.7156 29.1363 31.6574 29.0782C31.5447 28.9479 31.5447 28.9479 31.4372 28.9578ZM29.8416 34.3652C30.2412 36.487 30.2412 36.487 31.5259 38.177C32.0115 37.6934 32.497 37.2095 32.9822 36.7253C33.2074 36.5005 33.4328 36.2758 33.6583 36.0513C33.9173 35.7934 34.1759 35.5352 34.4345 35.277C34.516 35.196 34.5974 35.115 34.6813 35.0316C34.7559 34.957 34.8304 34.8825 34.9072 34.8057C34.9734 34.7398 35.0395 34.6738 35.1076 34.6059C35.259 34.4777 35.259 34.4777 35.249 34.3652C33.4645 34.3652 31.6801 34.3652 29.8416 34.3652ZM37.997 35.5176C37.997 37.3021 37.997 39.0865 37.997 40.925C38.4903 40.925 38.8605 40.8893 39.3212 40.7533C39.3857 40.7343 39.4503 40.7152 39.5169 40.6957C40.3841 40.4216 41.2629 39.9884 41.8974 39.3294C41.4022 38.8322 40.9068 38.3351 40.411 37.8384C40.1809 37.6078 39.9508 37.3771 39.7209 37.1462C39.4992 36.9236 39.2774 36.7012 39.0553 36.4789C38.9705 36.3939 38.8857 36.3087 38.8009 36.2236C38.6827 36.1047 38.5642 35.9861 38.4456 35.8675C38.3781 35.7998 38.3106 35.7321 38.241 35.6623C38.1102 35.5076 38.1102 35.5076 37.997 35.5176ZM36.1607 35.7476C36.0948 35.8138 36.0288 35.8799 35.9609 35.9481C35.8864 36.0226 35.8118 36.0971 35.735 36.1739C35.6541 36.2554 35.5731 36.3368 35.4896 36.4207C35.4071 36.5034 35.3246 36.586 35.2396 36.6711C35.0198 36.8913 34.8002 37.1117 34.5807 37.3322C34.3569 37.5569 34.1328 37.7814 33.9087 38.006C33.4688 38.4469 33.0291 38.888 32.5896 39.3294C33.3787 40.1446 34.4464 40.5305 35.5149 40.8364C35.5732 40.8548 35.6315 40.8732 35.6915 40.8921C35.9571 40.9412 36.2206 40.9269 36.49 40.925C36.4923 40.2958 36.4938 39.6666 36.4949 39.0373C36.4953 38.8235 36.4959 38.6097 36.4967 38.3958C36.4978 38.0875 36.4983 37.7793 36.4987 37.471C36.4991 37.3762 36.4996 37.2814 36.5001 37.1838C36.5001 36.6503 36.4711 36.1353 36.4014 35.6063C36.289 35.5962 36.289 35.5962 36.1607 35.7476Z" fill="black"/>
<path d="M20.639 22.892C21.2444 23.3825 21.5716 24.0455 21.6751 24.811C21.7108 25.6086 21.4869 26.3029 20.977 26.9198C20.323 27.5104 19.6679 27.7629 18.7872 27.7401C17.9415 27.6467 17.3051 27.2215 16.7705 26.5756C16.2978 25.9287 16.2884 25.2197 16.3674 24.4377C16.5361 23.7642 16.9762 23.184 17.5444 22.7912C18.5442 22.2106 19.6754 22.2465 20.639 22.892ZM18.1403 24.3491C17.9294 24.6175 17.9309 24.9029 17.9409 25.239C17.987 25.6006 18.152 25.794 18.4284 26.0167C18.7441 26.1531 18.9514 26.1639 19.2927 26.122C19.619 25.9589 19.7896 25.8183 19.9964 25.5181C20.1129 25.1684 20.0986 24.9697 20.0019 24.615C19.809 24.3157 19.6367 24.1026 19.2927 23.9945C18.7897 23.9386 18.5282 24.0244 18.1403 24.3491Z" fill="black"/>
<path d="M6.52783 29.5788C6.7439 29.7173 6.7439 29.7173 6.88241 29.9334C6.93152 30.1799 6.93232 30.396 6.88241 30.6425C6.70234 30.8919 6.54354 30.9894 6.26743 31.1245C5.67651 31.619 5.49243 32.5574 5.37543 33.3019C5.34987 33.6366 5.34595 33.9691 5.34773 34.3047C5.3479 34.4395 5.3479 34.4395 5.34808 34.5771C5.35537 35.1451 5.41557 35.6538 5.58043 36.1999C5.66713 36.491 5.69034 36.7251 5.64137 37.025C5.4645 37.2848 5.33746 37.4368 5.02327 37.5077C4.7343 37.5239 4.537 37.5036 4.30198 37.3308C4.08525 37.05 4.01528 36.7663 3.94048 36.4267C3.92591 36.3666 3.91134 36.3065 3.89633 36.2445C3.47417 34.4465 3.57014 32.4852 4.40033 30.8198C4.43301 30.7524 4.46569 30.685 4.49936 30.6155C4.91724 29.8518 5.66188 29.3813 6.52783 29.5788Z" fill="black"/>
<path d="M18.1404 29.8446C18.3797 30.0042 18.543 30.118 18.6722 30.3765C18.7084 30.7022 18.6943 30.8687 18.5337 31.1577C18.2507 31.4117 18.0747 31.4403 17.6971 31.4403C17.3803 31.2994 17.2707 31.1995 17.0766 30.9084C17.0315 30.5629 17.0474 30.4203 17.2428 30.1272C17.5356 29.8258 17.725 29.8039 18.1404 29.8446Z" fill="black"/>
<path d="M10.7826 10.5204C10.9987 10.6035 10.9987 10.6035 11.1372 10.7863C11.2547 11.1851 11.2817 11.4769 11.0873 11.8501C10.8224 12.0675 10.6818 12.116 10.3394 12.116C10.0577 12.0131 9.87142 11.9279 9.68006 11.6949C9.60498 11.3946 9.64419 11.1736 9.71884 10.875C9.9885 10.4543 10.3226 10.4467 10.7826 10.5204Z" fill="black"/>
<path d="M18.9385 33.5677C19.1983 33.7446 19.3503 33.8716 19.4212 34.1858C19.4379 34.4842 19.4045 34.6845 19.2432 34.9362C18.9554 35.1207 18.7477 35.1574 18.4066 35.1633C18.1453 35.0441 18.0039 34.9785 17.8747 34.7201C17.8137 34.0997 17.8137 34.0997 18.0576 33.745C18.3869 33.5208 18.5474 33.4979 18.9385 33.5677Z" fill="black"/>
<path d="M12.6279 8.26514C12.9297 8.27393 13.0017 8.30572 13.265 8.48675C13.4893 8.81612 13.5121 8.97659 13.4423 9.36767C13.2654 9.62745 13.1384 9.77945 12.8242 9.85037C12.5224 9.8673 12.3255 9.83466 12.0738 9.66685C11.9023 9.40615 11.8531 9.23678 11.8467 8.92444C12.0406 8.51819 12.1677 8.31794 12.6279 8.26514Z" fill="black"/>
</g>
<defs>
<clipPath id="clip0_358_1131">
<rect width="45.3867" height="45.3867" fill="white" transform="translate(0.765625 0.50293)"/>
</clipPath>
</defs>
</svg>
