<svg width="46" height="46" viewBox="0 0 46 46" fill="none" xmlns="http://www.w3.org/2000/svg">
<g clip-path="url(#clip0_358_911)">
<path d="M6.23912 0.416874C6.40538 0.41574 6.40538 0.41574 6.575 0.414582C6.69807 0.414644 6.82115 0.414726 6.94423 0.414826C7.07369 0.414295 7.20315 0.413692 7.33261 0.413021C7.68467 0.411453 8.03672 0.41104 8.38878 0.410927C8.60899 0.410801 8.82919 0.410422 9.0494 0.409952C9.81842 0.408311 10.5874 0.407588 11.3564 0.407727C12.0718 0.407834 12.7872 0.405968 13.5025 0.403163C14.1176 0.400838 14.7325 0.399894 15.3476 0.400007C15.7145 0.400052 16.0814 0.399556 16.4483 0.397671C16.7941 0.395943 17.1398 0.395948 17.4856 0.397231C17.6118 0.397415 17.738 0.397005 17.8643 0.395926C18.8207 0.388285 19.724 0.479557 20.4518 1.16083C20.5191 1.22139 20.5864 1.28195 20.6558 1.34435C20.8674 1.59298 20.8674 1.59298 20.9324 1.80754C21.0448 2.11777 21.143 2.26738 21.3992 2.47944C22.0513 2.66372 22.7772 2.59257 23.4473 2.58258C23.6608 2.58263 23.8743 2.58306 24.0878 2.58387C24.5475 2.58475 25.0072 2.58294 25.4669 2.57874C26.1326 2.57269 26.7981 2.57189 27.4638 2.57242C28.5451 2.57316 29.6263 2.57022 30.7076 2.56471C31.7556 2.55937 32.8036 2.55488 33.8516 2.55215C33.9161 2.55198 33.9806 2.55182 34.047 2.55164C34.7518 2.54984 35.4566 2.5485 36.1614 2.54783C36.2545 2.54774 36.2545 2.54774 36.3494 2.54765C36.5975 2.54742 36.8456 2.5472 37.0936 2.54704C37.8185 2.54658 38.5434 2.54469 39.2683 2.54016C39.7773 2.53703 40.2863 2.5356 40.7953 2.53476C41.0036 2.5341 41.212 2.53283 41.4203 2.53088C41.7053 2.5283 41.9902 2.52792 42.2752 2.52804C42.3571 2.52675 42.439 2.52546 42.5234 2.52412C43.3705 2.52925 44.0416 2.80972 44.6529 3.39152C45.2817 4.03211 45.5455 4.68055 45.5552 5.58204C45.5393 6.69642 45.1061 7.33198 44.3308 8.08629C43.6467 8.53179 42.9978 8.64832 42.193 8.64189C42.0473 8.64282 42.0473 8.64282 41.8987 8.64377C41.5804 8.64532 41.2622 8.6443 40.9439 8.6431C40.7217 8.64334 40.4994 8.64368 40.2772 8.64413C39.7534 8.64471 39.2297 8.64348 38.706 8.64159C38.2291 8.64007 37.7522 8.64115 37.2753 8.64288C36.7578 8.64468 36.2403 8.64449 35.7228 8.64345C35.5032 8.64322 35.2836 8.64351 35.064 8.64433C34.7576 8.64523 34.4513 8.64386 34.1449 8.64189C34.0089 8.64296 34.0089 8.64296 33.8701 8.64406C33.4786 8.63938 33.2528 8.635 32.9133 8.42693C32.6511 8.13639 32.6277 7.92773 32.6313 7.53572C32.6717 7.25467 32.8127 7.10505 33.0118 6.91173C33.216 6.80965 33.3325 6.8114 33.5596 6.81025C33.6373 6.80964 33.715 6.80903 33.795 6.8084C33.8804 6.80817 33.9658 6.80794 34.0538 6.8077C34.1886 6.80681 34.1886 6.80681 34.326 6.8059C34.5216 6.80466 34.7171 6.8036 34.9127 6.80272C35.2223 6.80126 35.5319 6.7992 35.8416 6.79696C36.7221 6.79068 37.6026 6.78537 38.4832 6.78082C39.0214 6.778 39.5595 6.77434 40.0977 6.77016C40.3028 6.76875 40.5079 6.76765 40.713 6.76689C41.0003 6.76581 41.2876 6.76367 41.5749 6.7613C41.6594 6.76125 41.7439 6.76119 41.831 6.76114C42.423 6.75468 42.9102 6.73353 43.3779 6.33553C43.606 6.02627 43.6243 5.72844 43.6033 5.35212C43.5302 4.98615 43.4032 4.85009 43.1175 4.60694C42.6168 4.42127 42.1584 4.40382 41.6281 4.40496C41.5422 4.40445 41.4562 4.40393 41.3676 4.40341C41.0804 4.4019 40.7933 4.40164 40.5061 4.40138C40.2999 4.40056 40.0937 4.39966 39.8875 4.39868C39.3282 4.39626 38.7689 4.39492 38.2096 4.39377C37.6842 4.39252 37.1587 4.39047 36.6333 4.38843C35.5929 4.3844 34.5524 4.38115 33.512 4.3784C32.5015 4.37572 31.4911 4.37267 30.4806 4.36914C30.4183 4.36892 30.356 4.3687 30.2917 4.36847C29.9791 4.36738 29.6664 4.36627 29.3537 4.36516C26.7613 4.35599 24.1689 4.34813 21.5765 4.341C21.5765 5.16009 21.5765 5.97918 21.5765 6.82309C21.8913 6.81794 22.2062 6.8128 22.5305 6.8075C22.8356 6.80405 23.1407 6.80136 23.4459 6.79874C23.6578 6.79651 23.8698 6.79349 24.0817 6.78965C24.3865 6.78427 24.6912 6.78176 24.996 6.7798C25.0906 6.77751 25.1853 6.77523 25.2828 6.77287C25.9427 6.77262 25.9427 6.77262 26.2882 7.03633C26.5302 7.37596 26.581 7.55583 26.5407 7.97548C26.2608 8.47003 26.2608 8.47003 26.0088 8.596C25.864 8.60206 25.7189 8.60249 25.574 8.60014C25.4834 8.59904 25.3929 8.59795 25.2996 8.59683C25.1522 8.59488 25.1522 8.59488 25.0019 8.59289C24.7948 8.59235 24.5877 8.59207 24.3806 8.59202C24.0533 8.59187 23.7263 8.59047 23.399 8.58477C23.0837 8.57968 22.7687 8.58024 22.4533 8.58181C22.3558 8.57889 22.2582 8.57598 22.1577 8.57298C21.8785 8.57731 21.6623 8.58988 21.3992 8.68465C21.2105 8.89406 21.0948 9.09334 20.9748 9.34781C20.6492 10.0247 20.0267 10.353 19.3604 10.6349C19.0521 10.7376 18.8118 10.7335 18.4867 10.7322C18.3988 10.732 18.3988 10.732 18.309 10.7318C18.122 10.7313 17.9351 10.7302 17.7481 10.729C17.6212 10.7286 17.4943 10.7282 17.3674 10.7278C17.0566 10.7269 16.7458 10.7253 16.4351 10.7235C16.4892 10.7889 16.5434 10.8543 16.5993 10.9216C16.6707 11.0082 16.7421 11.0948 16.8156 11.1841C16.8863 11.2695 16.9569 11.355 17.0297 11.4431C17.9519 12.6027 18.2783 13.8707 18.1193 15.3331C17.9272 16.3124 17.517 17.0666 16.8727 17.8152C16.1417 18.6729 16.0211 19.3649 15.9918 20.4746C16.0575 20.4768 16.1232 20.4791 16.1909 20.4815C17.6033 20.5575 19.1906 20.907 20.4342 21.6044C20.8462 21.7834 21.1163 21.6663 21.5242 21.5144C21.6311 21.4693 21.7379 21.4241 21.848 21.3776C22.4576 21.1276 23.0655 20.9073 23.704 20.7405C23.8033 20.7139 23.9026 20.6872 24.0049 20.6598C27.3265 19.9243 30.8162 20.6592 33.6601 22.4636C34.9235 23.288 34.9235 23.288 35.3804 23.8549C35.8399 24.4249 36.3836 24.5244 37.0653 24.6985C39.1893 25.257 40.9774 26.743 42.0828 28.6199C42.7243 29.7513 43.1049 30.8778 43.2061 32.1758C43.2602 32.1735 43.3143 32.1712 43.37 32.1688C43.6164 32.1595 43.8627 32.1538 44.1092 32.1481C44.1943 32.1444 44.2794 32.1407 44.367 32.1369C44.7634 32.13 45.0009 32.1359 45.3464 32.3424C45.583 32.7404 45.5701 33.0728 45.5552 33.5277C45.5536 33.6144 45.552 33.7012 45.5503 33.7905C45.447 37.2808 43.713 40.3781 41.2282 42.7413C39.0775 44.6405 36.197 45.8423 33.3201 45.8397C33.2273 45.84 33.1344 45.8403 33.0388 45.8405C32.7281 45.8413 32.4175 45.8414 32.1069 45.8416C31.8839 45.842 31.661 45.8424 31.438 45.8429C30.8324 45.8441 30.2269 45.8446 29.6213 45.845C29.2426 45.8453 28.8639 45.8457 28.4851 45.8461C27.4348 45.8471 26.3845 45.8481 25.3341 45.8484C25.267 45.8484 25.1998 45.8484 25.1306 45.8484C25.0296 45.8484 25.0296 45.8484 24.9266 45.8485C24.7902 45.8485 24.6538 45.8485 24.5175 45.8486C24.416 45.8486 24.416 45.8486 24.3125 45.8486C23.2181 45.849 22.1237 45.8505 21.0293 45.8526C19.9034 45.8547 18.7776 45.8558 17.6518 45.8559C17.0205 45.856 16.3894 45.8565 15.7582 45.8581C15.1637 45.8596 14.5693 45.8598 13.9748 45.859C13.7576 45.8589 13.5404 45.8593 13.3232 45.8602C9.5864 45.8744 6.35391 44.653 3.67005 42.0155C1.45849 39.8105 0.136637 36.7011 0.0909667 33.5831C0.0876529 33.4966 0.084339 33.4101 0.0809248 33.3209C0.0760694 32.9255 0.0856271 32.685 0.287996 32.3389C0.699397 32.0988 1.05907 32.1277 1.52592 32.1481C1.61271 32.1501 1.6995 32.1521 1.78892 32.1542C2.00242 32.1594 2.21564 32.1667 2.429 32.1758C2.43129 32.1037 2.43357 32.0316 2.43593 31.9573C2.58533 28.9387 3.98907 26.2518 6.06349 24.109C6.13068 24.0393 6.19787 23.9696 6.26709 23.8978C6.56681 23.5925 6.86529 23.2928 7.21588 23.0453C7.27439 23.0453 7.3329 23.0453 7.39317 23.0453C7.3397 22.9701 7.28622 22.8949 7.23112 22.8174C6.37431 21.5765 6.06809 20.348 6.28268 18.853C6.46762 17.9969 6.84187 17.297 7.44304 16.6628C8.02262 16.0461 8.39225 15.3067 8.36828 14.4466C8.30028 13.5654 7.89107 12.9117 7.29899 12.2748C6.90509 11.8499 6.50672 11.3228 6.50672 10.7235C6.45427 10.7286 6.40182 10.7338 6.34778 10.7391C5.96286 10.7611 5.76894 10.7648 5.44296 10.5407C5.22949 10.2271 5.17703 10.0387 5.17703 9.65976C5.31134 9.30383 5.39027 9.16301 5.7089 8.95059C5.99146 8.93951 5.99146 8.93951 6.24078 8.95059C6.24203 8.89894 6.24329 8.84729 6.24459 8.79407C6.29284 7.96459 6.60237 7.2574 7.03859 6.55715C6.92215 6.55589 6.80571 6.55463 6.68574 6.55334C6.53187 6.54918 6.37801 6.5449 6.22416 6.54053C6.10923 6.53976 6.10923 6.53976 5.99198 6.53897C5.60048 6.52547 5.40594 6.50609 5.0818 6.27009C4.90142 6.01141 4.85082 5.89308 4.85569 5.58204C4.85454 5.50891 4.8534 5.43578 4.85222 5.36043C4.93904 5.03358 5.09233 4.90617 5.35432 4.69558C5.60749 4.65663 5.80557 4.64327 6.05691 4.6523C6.12318 4.65293 6.18945 4.65355 6.25773 4.6542C6.46824 4.65667 6.67855 4.66223 6.889 4.66788C7.03218 4.67011 7.17537 4.67213 7.31855 4.67394C7.66854 4.67881 8.01838 4.68646 8.36828 4.69558C8.37009 4.55639 8.37137 4.41718 8.37243 4.27798C8.37359 4.1617 8.37359 4.1617 8.37477 4.04308C8.35654 3.38617 8.13536 2.87635 7.8364 2.30214C7.77428 2.30178 7.71215 2.30142 7.64814 2.30104C7.36547 2.29812 7.08297 2.29185 6.80035 2.28552C6.7026 2.28501 6.60484 2.28449 6.50412 2.28396C5.77856 2.26424 5.77856 2.26424 5.42461 2.00643C5.22258 1.70624 5.17703 1.51141 5.17703 1.14975C5.3966 0.567888 5.62999 0.418748 6.23912 0.416874ZM9.96391 2.2135C9.97593 2.26466 9.98796 2.31583 10.0004 2.36854C10.298 3.66474 10.345 4.99799 9.69797 6.20256C9.3999 6.66176 9.07564 7.0892 8.7007 7.48793C8.21365 8.04684 8.03397 8.77582 8.07014 9.50532C8.17891 10.3264 8.526 10.8401 9.06403 11.4398C9.89397 12.3786 10.2159 13.475 10.2298 14.7126C10.1546 15.8933 9.75268 16.8343 8.9888 17.7265C8.34878 18.4811 8.03462 19.101 8.06668 20.1099C8.17526 20.9501 8.56598 21.5021 9.14081 22.0962C9.94352 23.0471 10.2911 24.3203 10.2111 25.5488C10.0511 26.8082 9.5027 27.7916 8.65638 28.7242C8.20113 29.3185 8.04147 29.9271 8.06737 30.6716C8.14052 31.222 8.34607 31.7616 8.72286 32.1758C8.91901 32.2244 8.91901 32.2244 9.13666 32.2104C9.21579 32.2093 9.29492 32.2082 9.37645 32.207C9.45879 32.204 9.54112 32.201 9.62594 32.198C9.7093 32.1964 9.79266 32.1948 9.87855 32.1931C10.0844 32.189 10.29 32.1831 10.4958 32.1758C10.4766 32.0975 10.4574 32.0193 10.4376 31.9386C10.1081 30.5185 10.1763 29.3204 10.8504 28.0095C11.0401 27.7279 11.2507 27.4698 11.4709 27.2116C12.0242 26.5556 12.4355 25.8132 12.385 24.9287C12.2757 24.1426 11.9836 23.6413 11.4709 23.0453C10.5369 21.9385 10.1175 20.7749 10.2298 19.3222C10.3911 18.1228 10.9071 17.2054 11.7351 16.3394C12.2059 15.7912 12.3877 15.1128 12.376 14.402C12.3136 13.6629 12.0292 13.1423 11.5595 12.5851C10.703 11.547 10.1526 10.422 10.199 9.04062C10.3586 7.65679 10.8842 6.69703 11.8016 5.66688C12.2786 5.04537 12.4453 4.31732 12.3573 3.54319C12.2261 3.06313 12.0787 2.58529 11.7368 2.2135C11.5407 2.16489 11.5407 2.16489 11.323 2.17887C11.2043 2.18059 11.2043 2.18059 11.0832 2.18233C11.0009 2.1853 10.9186 2.18828 10.8337 2.19134C10.7504 2.19294 10.667 2.19454 10.5811 2.19618C10.3753 2.20036 10.1697 2.2062 9.96391 2.2135ZM13.8643 2.2135C13.8835 2.28332 13.9027 2.35314 13.9225 2.42507C14.2999 3.90151 14.1814 5.21538 13.4242 6.55126C13.1907 6.90315 12.9159 7.19667 12.625 7.50144C12.1204 8.08809 11.953 8.8115 12.0028 9.57111C12.1621 10.3853 12.5466 10.9911 13.1108 11.5878C13.9166 12.4847 14.1811 13.6714 14.1576 14.8459C14.0338 16.2483 13.4075 17.1664 12.5305 18.2134C12.0751 18.7982 11.9348 19.4753 12.0028 20.2086C12.1263 20.9116 12.4371 21.3562 12.8892 21.8929C13.8259 23.0535 14.2218 24.2152 14.1303 25.7047C13.9551 26.879 13.4143 27.7655 12.6479 28.6449C12.1555 29.2572 11.9276 29.9732 12.0028 30.7575C12.1129 31.2824 12.2524 31.7774 12.6233 32.1758C12.9283 32.2419 13.2217 32.226 13.5319 32.2091C13.6149 32.2067 13.6978 32.2043 13.7833 32.2018C13.9878 32.1955 14.1919 32.1868 14.3962 32.1758C14.3669 32.0661 14.3377 31.9564 14.3076 31.8434C14.1082 30.8396 14.0456 29.5736 14.4848 28.63C14.5195 28.5535 14.5541 28.4771 14.5898 28.3983C14.8291 27.919 15.1197 27.5197 15.471 27.1175C16.0891 26.3932 16.3292 25.7912 16.29 24.8321C16.1967 24.0219 15.8129 23.5324 15.2897 22.941C14.5133 22.0548 14.1664 20.992 14.1801 19.8208C14.1809 19.7394 14.1816 19.658 14.1824 19.5741C14.2134 18.3216 14.7108 17.3426 15.5652 16.4356C16.151 15.7929 16.3234 15.148 16.291 14.2842C16.2012 13.5255 15.856 13.0213 15.3734 12.4462C14.3246 11.1848 14.1052 9.93036 14.2189 8.33007C14.4068 7.31346 14.963 6.51872 15.6521 5.77423C16.189 5.13889 16.2889 4.47844 16.2834 3.66785C16.242 3.18054 16.0973 2.72307 15.7896 2.33688C15.5902 2.1754 15.4776 2.18267 15.2234 2.18753C15.1443 2.18838 15.0652 2.18924 14.9837 2.19012C14.9013 2.19235 14.819 2.19458 14.7342 2.19688C14.6091 2.19868 14.6091 2.19868 14.4816 2.20051C14.2758 2.20365 14.0701 2.20802 13.8643 2.2135ZM17.8534 2.2135C17.8662 2.26538 17.879 2.31726 17.8922 2.37071C18.2106 3.8433 18.1322 5.30203 17.308 6.59836C17.1131 6.86579 16.9003 7.11564 16.6844 7.36604C16.2466 7.87819 15.9918 8.25972 15.9918 8.95059C16.3593 8.95839 16.7268 8.96306 17.0944 8.96721C17.2492 8.97055 17.2492 8.97055 17.4072 8.97396C18.0852 8.97969 18.7351 8.97104 19.2856 8.53229C19.3445 8.45413 19.3445 8.45413 19.4047 8.37439C19.4458 8.32228 19.487 8.27018 19.5294 8.21649C19.708 7.93577 19.7267 7.69311 19.7292 7.36957C19.7301 7.28257 19.7309 7.19557 19.7318 7.10593C19.7322 7.01202 19.7326 6.91811 19.733 6.82135C19.7337 6.67624 19.7337 6.67624 19.7345 6.5282C19.7353 6.32335 19.7359 6.11851 19.7363 5.91366C19.7371 5.60082 19.7399 5.28803 19.7427 4.9752C19.7432 4.77615 19.7437 4.5771 19.744 4.37805C19.7451 4.28468 19.7462 4.19131 19.7474 4.09511C19.7454 3.45612 19.6727 3.05768 19.2052 2.59024C18.766 2.28613 18.3791 2.20361 17.8534 2.2135ZM22.8176 23.0453C22.8796 23.1057 22.9417 23.1662 23.0056 23.2285C23.1865 23.4085 23.3539 23.5954 23.5188 23.7901C23.6119 23.8946 23.705 23.9991 23.7982 24.1035C23.8423 24.1579 23.8863 24.2124 23.9317 24.2685C24.0866 24.4367 24.2057 24.5434 24.4132 24.6409C24.6832 24.6351 24.9229 24.5845 25.1861 24.5243C26.8663 24.1736 28.7728 24.4217 30.2981 25.1943C30.6124 25.2854 30.7617 25.2077 31.0616 25.0841C32.4728 24.6045 32.4728 24.6045 33.1005 24.4636C32.8245 24.1591 32.5204 23.9577 32.1642 23.76C32.0813 23.7137 32.0813 23.7137 31.9967 23.6664C29.2098 22.1272 25.7743 21.7316 22.8176 23.0453ZM17.4102 22.6021C17.4391 22.657 17.468 22.712 17.4978 22.7686C17.7502 23.2802 17.8653 23.6771 17.9088 24.2476C17.9668 24.5808 18.0102 24.8158 18.2767 25.0383C18.6943 25.2963 19.144 25.4872 19.5907 25.6885C20.7293 26.2492 21.5851 27.2468 22.2857 28.2754C22.3333 28.3446 22.381 28.4139 22.4301 28.4852C23.1552 29.6099 23.4413 30.8824 23.704 32.1758C24.3768 32.1758 25.0497 32.1758 25.7429 32.1758C25.638 30.0516 24.7762 27.8289 23.3494 26.2365C23.2876 26.1642 23.2258 26.0919 23.1621 26.0174C21.8097 24.4631 19.8429 22.9956 17.7647 22.6021C17.6477 22.6021 17.5307 22.6021 17.4102 22.6021ZM7.39317 25.4387C7.33855 25.4874 7.28393 25.5361 7.22766 25.5862C5.55546 27.1464 4.59897 29.5111 4.29057 31.7326C4.29057 31.8789 4.29057 32.0251 4.29057 32.1758C5.0219 32.1758 5.75322 32.1758 6.50672 32.1758C6.44821 31.8248 6.3897 31.4737 6.32942 31.1121C6.19663 29.4598 6.6591 28.2359 7.7256 26.9734C8.21797 26.3839 8.40678 25.8489 8.45693 25.0841C8.42584 24.831 8.42584 24.831 8.36828 24.6409C8.06487 24.6409 7.61004 25.2387 7.39317 25.4387ZM25.6542 26.2365C25.6993 26.3192 25.7443 26.4018 25.7907 26.4869C26.1872 27.2196 26.5563 27.9571 26.8953 28.7186C27.1242 28.4349 27.3483 28.148 27.5693 27.858C27.9231 27.3942 28.2817 26.9398 28.6682 26.5025C28.1966 26.3004 27.7855 26.2251 27.2731 26.2279C27.1312 26.2283 27.1312 26.2283 26.9865 26.2288C26.8888 26.2295 26.791 26.2302 26.6903 26.231C26.5411 26.2316 26.5411 26.2316 26.3889 26.2322C26.144 26.2333 25.8991 26.2347 25.6542 26.2365ZM29.6153 28.2006C28.6771 29.1948 27.6931 30.7418 27.6931 32.1758C28.3659 32.1758 29.0387 32.1758 29.7319 32.1758C29.8197 31.9418 29.9075 31.7078 29.9979 31.4667C30.6019 30.0857 31.3635 29.1807 32.7847 28.5967C33.8485 28.1937 35.2794 28.1752 36.3333 28.6068C37.761 29.3185 38.5849 30.2232 39.1284 31.7326C39.1869 31.8789 39.2454 32.0251 39.3057 32.1758C39.9785 32.1758 40.6514 32.1758 41.3446 32.1758C40.9699 30.204 40.1099 28.5358 38.4165 27.3751C35.5685 25.6064 32.0371 25.8046 29.6153 28.2006ZM17.7647 26.8571C17.74 26.9128 17.7152 26.9686 17.6896 27.026C17.4297 27.581 17.127 28.0131 16.701 28.4527C16.9512 28.6477 17.207 28.8106 17.4822 28.9679C18.6052 29.6414 19.1666 30.5153 19.6263 31.7326C19.6848 31.8789 19.7433 32.0251 19.8036 32.1758C20.4764 32.1758 21.1492 32.1758 21.8425 32.1758C21.6 30.8558 21.1927 29.7694 20.3355 28.7186C20.2798 28.6485 20.2242 28.5783 20.1668 28.506C19.5849 27.8086 18.8423 27.2628 18.0307 26.8571C17.9429 26.8571 17.8552 26.8571 17.7647 26.8571ZM33.0118 30.4915C32.9503 30.5291 32.8887 30.5667 32.8252 30.6055C32.2531 30.9908 31.8502 31.5036 31.6822 32.1758C33.5544 32.1758 35.4266 32.1758 37.3555 32.1758C36.9278 31.2135 36.4907 30.6143 35.5119 30.2125C34.6907 29.9941 33.7354 30.0261 33.0118 30.4915ZM15.9918 30.3143C15.9395 31.021 16.1309 31.5866 16.5237 32.1758C16.7566 32.1954 16.9677 32.2008 17.1996 32.1924C17.2622 32.1912 17.3249 32.19 17.3894 32.1888C17.5441 32.1857 17.6987 32.1809 17.8534 32.1758C17.4725 31.3412 17.025 30.8258 16.2578 30.3143C16.17 30.3143 16.0822 30.3143 15.9918 30.3143ZM1.98577 33.9487C2.06384 34.9023 2.06384 34.9023 2.25725 35.8214C2.28581 35.9277 2.28581 35.9277 2.31495 36.0362C2.75364 37.5867 3.51833 38.9272 4.55651 40.154C4.61753 40.227 4.67855 40.3 4.74142 40.3752C6.59744 42.5227 9.27287 43.7878 12.0861 44.0131C12.9738 44.0738 13.8616 44.0675 14.751 44.0672C14.9455 44.0675 15.1401 44.0678 15.3346 44.0681C15.8599 44.0689 16.3852 44.0691 16.9105 44.0692C17.2397 44.0693 17.5689 44.0695 17.898 44.0697C18.9899 44.0705 20.0818 44.0709 21.1737 44.0708C21.2323 44.0708 21.291 44.0708 21.3514 44.0708C21.4395 44.0708 21.4395 44.0708 21.5293 44.0708C22.4205 44.0708 23.3117 44.0714 24.2029 44.0726C25.2419 44.074 26.281 44.0747 27.3201 44.0747C27.8685 44.0746 28.417 44.0749 28.9655 44.0758C29.482 44.0767 29.9985 44.0767 30.5151 44.076C30.7031 44.076 30.8912 44.0762 31.0792 44.0767C32.003 44.0792 32.9183 44.0614 33.8386 43.9762C33.9124 43.9694 33.9862 43.9626 34.0622 43.9556C36.8129 43.6718 39.3233 42.2198 41.1316 40.1536C42.5145 38.4289 43.6494 36.202 43.6494 33.9487C29.9004 33.9487 16.1514 33.9487 1.98577 33.9487Z" fill="black"/>
<path d="M29.9985 6.82343C30.2428 7.01682 30.3917 7.16665 30.5304 7.44395C30.5835 7.91101 30.4643 8.14289 30.1758 8.5077C29.8693 8.66094 29.5358 8.63975 29.2007 8.59635C28.9463 8.43732 28.8026 8.33195 28.6688 8.06447C28.6173 7.43601 28.6173 7.43601 28.835 7.09491C29.1788 6.76125 29.5365 6.75001 29.9985 6.82343Z" fill="black"/>
</g>
<defs>
<clipPath id="clip0_358_911">
<rect width="45.3867" height="45.3867" fill="white" transform="translate(0.125 0.44043)"/>
</clipPath>
</defs>
</svg>
