<svg width="46" height="46" viewBox="0 0 46 46" fill="none" xmlns="http://www.w3.org/2000/svg">
<g clip-path="url(#clip0_358_914)">
<path d="M5.00012 2.63363C5.16026 2.63336 5.32041 2.63301 5.48056 2.6326C5.91956 2.63169 6.35856 2.63188 6.79756 2.63226C7.27144 2.63248 7.74531 2.63168 8.21919 2.63102C9.14714 2.62989 10.0751 2.62973 11.003 2.62993C11.7573 2.63009 12.5116 2.62994 13.2659 2.62956C13.3733 2.62951 13.4806 2.62945 13.5913 2.6294C13.8094 2.62929 14.0275 2.62918 14.2456 2.62908C16.291 2.62811 18.3363 2.6283 20.3817 2.62885C22.2526 2.6293 24.1235 2.62831 25.9944 2.62662C27.9158 2.6249 29.8372 2.62417 31.7586 2.6245C32.8372 2.62467 33.9158 2.62445 34.9943 2.6232C35.9125 2.62214 36.8307 2.62202 37.7488 2.62309C38.2172 2.62361 38.6855 2.62371 39.1539 2.62265C39.5829 2.62169 40.0119 2.62196 40.4409 2.6232C40.5959 2.62344 40.7508 2.62323 40.9057 2.62252C42.3126 2.61652 43.4974 2.79891 44.5587 3.78524C45.4383 4.73157 45.5836 5.76137 45.5793 7.00709C45.5799 7.141 45.5805 7.2749 45.5812 7.40881C45.5828 7.77055 45.5827 8.13227 45.5822 8.49401C45.5819 8.79689 45.5824 9.09977 45.583 9.40265C45.5842 10.1177 45.5841 10.8327 45.5831 11.5477C45.5821 12.2834 45.5833 13.019 45.5857 13.7546C45.5876 14.3881 45.5882 15.0215 45.5877 15.655C45.5874 16.0325 45.5876 16.41 45.5891 16.7875C45.5905 17.1427 45.5902 17.4979 45.5885 17.8531C45.5882 17.9828 45.5884 18.1125 45.5894 18.2422C45.5974 19.4542 45.3394 20.4544 44.4964 21.3555C43.5755 22.217 42.5363 22.4503 41.3105 22.453C41.1728 22.4544 41.1728 22.4544 41.0324 22.4557C40.7317 22.4585 40.431 22.46 40.1302 22.4615C39.9207 22.4631 39.7112 22.4649 39.5016 22.4667C38.9521 22.4712 38.4026 22.4747 37.853 22.478C37.2915 22.4816 36.7299 22.4861 36.1684 22.4906C35.068 22.4991 33.9676 22.5066 32.8672 22.5134C32.9223 22.5865 32.9775 22.6596 33.0344 22.7349C33.1073 22.8317 33.1802 22.9285 33.2531 23.0253C33.2894 23.0734 33.3257 23.1215 33.3631 23.171C34.4597 24.6289 35.1368 26.3267 35.5265 28.0981C35.5577 28.2368 35.5577 28.2368 35.5896 28.3782C35.9732 30.3549 35.8285 32.4671 35.2606 34.392C35.2428 34.4525 35.225 34.5131 35.2067 34.5755C34.3614 37.362 32.4947 39.9131 30.0305 41.4836C29.9791 41.517 29.9278 41.5504 29.8749 41.5847C26.9645 43.4579 23.4811 44.0334 20.1021 43.3452C18.381 42.9716 16.7278 42.2798 15.3153 41.2177C15.2047 41.1349 15.2047 41.1349 15.0919 41.0505C12.2535 38.8468 10.4806 35.8432 9.99651 32.2645C9.60057 28.7399 10.6221 25.4157 12.7445 22.6021C12.7738 22.5728 12.803 22.5436 12.8332 22.5134C12.7176 22.5129 12.6021 22.5124 12.483 22.5118C11.3914 22.5068 10.2998 22.5003 9.20826 22.4925C8.64714 22.4886 8.08602 22.4851 7.52488 22.4827C6.98286 22.4804 6.44086 22.4768 5.89885 22.4724C5.69257 22.4709 5.48629 22.4699 5.28 22.4693C4.98997 22.4684 4.7 22.466 4.40998 22.4631C4.32562 22.4632 4.24127 22.4634 4.15435 22.4635C2.99288 22.4474 1.99289 22.0874 1.14162 21.2963C0.262065 20.3499 0.116729 19.3201 0.121 18.0744C0.120493 17.9405 0.119876 17.8066 0.119156 17.6727C0.117573 17.311 0.117669 16.9492 0.118176 16.5875C0.118451 16.2846 0.117909 15.9817 0.117375 15.6789C0.116132 14.9638 0.116266 14.2488 0.117277 13.5338C0.118295 12.7981 0.117048 12.0625 0.114671 11.3269C0.112702 10.6935 0.11212 10.06 0.112639 9.42654C0.112937 9.04903 0.112731 8.67153 0.111199 8.29402C0.10982 7.93879 0.110186 7.5836 0.111846 7.22836C0.112171 7.09869 0.111904 6.96901 0.11097 6.83934C0.102916 5.62734 0.360996 4.62711 1.20395 3.72603C2.31014 2.6912 3.56499 2.63023 5.00012 2.63363ZM2.3337 4.88819C1.72977 5.59694 1.688 6.33893 1.69509 7.23568C1.69449 7.3645 1.6937 7.49332 1.69274 7.62214C1.69073 7.9696 1.6915 8.317 1.69291 8.66445C1.69404 9.02949 1.69299 9.39453 1.69229 9.75957C1.69149 10.3724 1.69254 10.9852 1.69466 11.598C1.69707 12.3047 1.69629 13.0113 1.69385 13.718C1.69183 14.3267 1.69156 14.9354 1.69271 15.5441C1.6934 15.9068 1.69351 16.2694 1.69203 16.6321C1.69075 16.9733 1.69166 17.3143 1.6942 17.6555C1.69478 17.78 1.69463 17.9046 1.69364 18.0291C1.68764 18.8662 1.77654 19.5395 2.3337 20.1933C3.00174 20.8287 3.81946 20.8692 4.69955 20.8706C4.80546 20.8718 4.91136 20.8729 5.02048 20.8742C5.30877 20.877 5.59703 20.8786 5.88533 20.8795C6.06596 20.8801 6.24657 20.881 6.42719 20.882C7.05874 20.8855 7.69027 20.8875 8.32183 20.8882C8.90835 20.8889 9.49477 20.8932 10.0813 20.8993C10.5868 20.9043 11.0923 20.9065 11.5979 20.9067C11.899 20.9069 12.2 20.9081 12.5011 20.9123C12.8372 20.9162 13.173 20.9156 13.5091 20.9139C13.6074 20.916 13.7058 20.9181 13.8071 20.9203C14.5742 20.9091 14.9412 20.6284 15.4926 20.12C15.7205 19.9598 15.9552 19.8163 16.1962 19.6768C16.2599 19.6398 16.3236 19.6029 16.3893 19.5648C17.6767 18.8376 19.0122 18.3801 20.4567 18.0811C20.5579 18.0593 20.659 18.0375 20.7632 18.015C23.6433 17.5 26.6048 18.1137 29.144 19.4995C29.2409 19.5517 29.3378 19.6039 29.4377 19.6577C30.1249 20.0425 30.1249 20.0425 30.3894 20.2897C30.9815 20.828 31.4042 20.9309 32.1913 20.9139C32.2973 20.9144 32.4034 20.9149 32.5126 20.9155C32.801 20.9162 33.0891 20.9138 33.3775 20.9098C33.6807 20.9063 33.9839 20.9067 34.2871 20.9066C34.796 20.9059 35.3048 20.9025 35.8136 20.8973C36.4002 20.8912 36.9866 20.8886 37.5732 20.8879C38.2004 20.8872 38.8275 20.8845 39.4547 20.881C39.6343 20.8801 39.8138 20.8795 39.9934 20.8789C40.3292 20.8775 40.665 20.8743 41.0008 20.8706C41.0993 20.8704 41.1978 20.8703 41.2993 20.8701C42.0813 20.8583 42.7821 20.7493 43.3666 20.1933C43.9706 19.4846 44.0123 18.7426 44.0053 17.8458C44.0059 17.717 44.0066 17.5882 44.0076 17.4594C44.0096 17.1119 44.0089 16.7645 44.0074 16.4171C44.0063 16.052 44.0074 15.687 44.0081 15.3219C44.0089 14.7091 44.0078 14.0963 44.0057 13.4835C44.0033 12.7768 44.0041 12.0702 44.0065 11.3635C44.0085 10.7548 44.0088 10.1461 44.0076 9.53744C44.0069 9.17474 44.0068 8.81207 44.0083 8.44938C44.0096 8.10824 44.0087 7.76718 44.0061 7.42606C44.0056 7.3015 44.0057 7.17693 44.0067 7.05237C44.0127 6.21527 43.9238 5.54205 43.3666 4.88819C42.575 4.13527 41.5504 4.21433 40.5352 4.21859C40.3764 4.21829 40.2176 4.21786 40.0588 4.21734C39.6235 4.21623 39.1882 4.21677 38.7529 4.2176C38.283 4.2182 37.8131 4.21727 37.3432 4.21654C36.4231 4.21536 35.5031 4.21561 34.583 4.21638C33.8352 4.21698 33.0875 4.21707 32.3397 4.21678C32.2332 4.21674 32.1268 4.21669 32.0171 4.21665C31.8009 4.21657 31.5847 4.21648 31.3685 4.21639C29.341 4.21564 27.3136 4.21651 25.2862 4.21794C23.5466 4.21912 21.8071 4.21892 20.0675 4.21769C18.0473 4.21627 16.0271 4.21571 14.007 4.21653C13.7915 4.21661 13.5761 4.21669 13.3607 4.21678C13.2017 4.21684 13.2017 4.21684 13.0395 4.2169C12.2926 4.21713 11.5458 4.21674 10.7989 4.21612C9.8887 4.21537 8.9785 4.21557 8.06831 4.21699C7.60393 4.21769 7.13956 4.21796 6.67519 4.21708C6.25 4.21629 5.82483 4.21673 5.39964 4.21814C5.24592 4.21844 5.0922 4.21829 4.93849 4.21764C3.5287 4.20121 3.5287 4.20121 2.3337 4.88819ZM14.872 22.6907C14.8122 22.7449 14.7523 22.799 14.6906 22.8548C13.2745 24.1859 12.3648 26.0693 11.8581 27.9208C11.828 28.0259 11.798 28.1311 11.767 28.2394C11.3564 29.9801 11.4274 32.0635 11.9467 33.7715C11.9653 33.8346 11.9838 33.8977 12.0029 33.9628C12.8773 36.8737 14.8945 39.248 17.5536 40.7025C20.1703 42.0801 23.2769 42.3767 26.1137 41.5461C28.9762 40.6235 31.4361 38.7017 32.8616 36.0319C33.2342 35.3042 33.5289 34.5573 33.7536 33.7715C33.7723 33.7063 33.7909 33.6412 33.8101 33.5741C34.6222 30.5847 34.0483 27.5301 32.5739 24.8663C31.1449 22.3901 28.6546 20.5461 25.9164 19.7817C25.7809 19.7461 25.6453 19.7111 25.5096 19.6768C25.4491 19.6611 25.3887 19.6455 25.3264 19.6294C21.5091 18.6855 17.6579 20.0659 14.872 22.6907Z" fill="black"/>
<path d="M31.0051 24.1979C31.538 24.5821 31.82 25.0728 31.9802 25.7049C32.093 26.4528 31.8781 27.0901 31.4705 27.7161C31.3022 27.889 31.1318 28.0443 30.9493 28.2015C30.5691 28.5327 30.2018 28.876 29.8361 29.223C29.3821 29.6521 28.9273 30.08 28.4676 30.5029C28.0559 30.8816 27.6462 31.2622 27.2376 31.6442C26.7786 32.0732 26.3181 32.5004 25.856 32.9261C25.4878 33.2656 25.1214 33.607 24.7555 33.949C24.2966 34.3779 23.8362 34.8051 23.3741 35.2307C23.0611 35.5192 22.7494 35.8092 22.4385 36.0999C22.2699 36.2574 22.1012 36.4147 21.9324 36.572C21.724 36.7662 21.5166 36.9613 21.3098 37.1572C21.2173 37.2439 21.1249 37.3306 21.0324 37.4173C20.9131 37.53 20.9131 37.53 20.7914 37.6451C20.2551 38.0896 19.7668 38.302 19.0711 38.3259C18.9859 38.3302 18.9006 38.3346 18.8128 38.339C17.9556 38.2094 17.3597 37.6566 16.7698 37.0616C16.6549 36.9477 16.6549 36.9477 16.5376 36.8314C16.3769 36.6714 16.2168 36.5108 16.0572 36.3497C15.8139 36.1047 15.5681 35.8624 15.322 35.6203C15.1655 35.4637 15.0091 35.3071 14.8528 35.1502C14.7799 35.0786 14.7069 35.007 14.6318 34.9332C14.0691 34.3591 13.7265 33.7883 13.6748 32.9739C13.7059 32.3359 13.9218 31.7763 14.3507 31.3007C14.8289 30.8694 15.3877 30.6542 16.0295 30.6303C16.9783 30.6806 17.4893 31.0737 18.1514 31.7328C18.2358 31.8159 18.3202 31.8991 18.4045 31.9822C18.6171 32.1932 18.8281 32.4055 19.0379 32.6193C19.3284 32.4904 19.5356 32.3296 19.7692 32.1151C19.8468 32.044 19.9244 31.973 20.0043 31.8997C20.4518 31.4843 20.8968 31.0662 21.3416 30.648C21.6506 30.3577 21.9615 30.0696 22.2735 29.7826C22.7043 29.3862 23.1321 28.9867 23.5588 28.5859C24.0336 28.14 24.5101 27.6963 24.9893 27.2552C25.3561 26.9173 25.7209 26.5773 26.0852 26.2368C26.1971 26.1324 26.3089 26.0281 26.4208 25.9238C26.6361 25.7229 26.8509 25.5215 27.0655 25.3199C28.2364 24.2231 29.3887 23.2824 31.0051 24.1979ZM28.7993 25.9532C28.6861 26.0676 28.5738 26.1829 28.4627 26.2995C28.2881 26.472 28.1103 26.6329 27.925 26.7936C27.5478 27.1209 27.1843 27.461 26.8221 27.8047C26.3681 28.2338 25.9133 28.6617 25.4536 29.0845C25.042 29.4632 24.6323 29.8439 24.2237 30.2259C23.8112 30.6114 23.3978 30.9958 22.9826 31.3783C22.5713 31.7573 22.1615 32.1378 21.7527 32.5196C21.6979 32.5707 21.6431 32.6218 21.5867 32.6744C21.2927 32.9489 20.9992 33.2239 20.7062 33.4995C20.6458 33.5562 20.5854 33.6129 20.5232 33.6713C20.4072 33.7802 20.2913 33.8892 20.1756 33.9985C20.1233 34.0475 20.071 34.0965 20.0171 34.1471C19.9713 34.1902 19.9254 34.2334 19.8782 34.2779C19.5822 34.5359 19.3581 34.6252 18.9632 34.6139C18.7273 34.5591 18.622 34.4708 18.444 34.3077C18.3826 34.2515 18.3212 34.1952 18.2579 34.1372C17.8434 33.7373 17.4438 33.3227 17.0465 32.9058C16.5723 32.4037 16.5723 32.4037 15.9353 32.1761C15.6757 32.2941 15.5157 32.4183 15.3148 32.6193C15.2398 32.903 15.2398 32.903 15.3148 33.2398C15.5196 33.5377 15.772 33.7819 16.0298 34.0342C16.1031 34.1078 16.1764 34.1815 16.2519 34.2574C16.4071 34.4127 16.5632 34.5672 16.7199 34.721C16.9592 34.9563 17.1954 35.1946 17.4313 35.4335C17.5827 35.584 17.7341 35.7344 17.8858 35.8847C17.9563 35.9559 18.0268 36.0272 18.0994 36.1006C18.5058 36.5085 18.5058 36.5085 19.0319 36.7041C19.3434 36.696 19.4266 36.6608 19.6418 36.4422C19.7318 36.3547 19.7318 36.3547 19.8236 36.2656C19.8861 36.2032 19.9486 36.1408 20.013 36.0765C20.1454 35.9577 20.2784 35.8395 20.4119 35.7219C20.8729 35.3063 21.325 34.8814 21.7772 34.4563C22.1497 34.1062 22.5234 33.7577 22.8995 33.4116C23.313 33.031 23.7245 32.6484 24.135 32.2647C24.594 31.8357 25.0546 31.4085 25.5167 30.9828C25.8849 30.6433 26.2512 30.3019 26.6171 29.9599C27.0756 29.5314 27.5354 29.1045 27.9972 28.6796C28.2613 28.4362 28.5243 28.1917 28.7862 27.946C28.8456 27.8902 28.9051 27.8345 28.9664 27.777C29.0814 27.6691 29.1962 27.5611 29.3109 27.4529C29.6005 27.1812 29.8965 26.9275 30.2073 26.68C30.3741 26.4525 30.385 26.3447 30.379 26.0595C30.2742 25.7241 30.1505 25.6191 29.8527 25.439C29.3706 25.439 29.1349 25.6322 28.7993 25.9532Z" fill="black"/>
<path d="M39.1603 8.77326C39.4898 9.12148 39.7062 9.46775 39.9183 9.90004C39.9587 9.98154 39.9587 9.98154 39.9999 10.0647C40.0845 10.2359 40.1682 10.4077 40.2518 10.5794C40.3095 10.6966 40.3673 10.8138 40.4251 10.9309C40.5657 11.216 40.7054 11.5015 40.8446 11.7872C40.8459 11.7144 40.8472 11.6415 40.8485 11.5664C40.8551 11.2355 40.8637 10.9047 40.8723 10.5739C40.8743 10.4592 40.8763 10.3445 40.8784 10.2264C40.8815 10.1158 40.8847 10.0053 40.8879 9.89138C40.8902 9.78971 40.8925 9.68805 40.8949 9.5833C40.937 9.27779 41.0164 9.10813 41.1992 8.86191C41.4591 8.70737 41.6113 8.68335 41.9139 8.6957C42.226 8.78867 42.3312 8.86999 42.5289 9.12785C42.5639 9.36067 42.5775 9.55644 42.5748 9.78905C42.5754 9.85511 42.576 9.92117 42.5766 9.98923C42.5782 10.2072 42.5772 10.4251 42.576 10.6431C42.5762 10.7948 42.5766 10.9465 42.577 11.0982C42.5775 11.4159 42.5768 11.7336 42.5751 12.0514C42.5731 12.4586 42.5743 12.8657 42.5764 13.2729C42.5777 13.5861 42.5773 13.8993 42.5763 14.2124C42.5761 14.3626 42.5764 14.5127 42.5772 14.6628C42.5781 14.8727 42.5767 15.0825 42.5748 15.2924C42.5755 15.3544 42.5762 15.4164 42.5769 15.4802C42.5718 15.7741 42.5468 15.9298 42.3678 16.167C42.0947 16.3662 41.8893 16.3909 41.5538 16.3968C41.1382 16.2148 40.9721 15.9472 40.7781 15.5547C40.7489 15.4978 40.7196 15.4408 40.6895 15.3822C40.3099 14.6359 39.9561 13.8763 39.6036 13.1169C39.6027 13.1978 39.6019 13.2788 39.6011 13.3621C39.5971 13.6637 39.5917 13.9651 39.5852 14.2666C39.5827 14.3969 39.5808 14.5272 39.5795 14.6574C39.5776 14.8452 39.5735 15.0328 39.5689 15.2205C39.5662 15.3897 39.5662 15.3897 39.5633 15.5624C39.5071 15.9139 39.4137 16.0619 39.1603 16.3082C38.768 16.4317 38.6082 16.4323 38.2406 16.2417C38.0079 16.0422 38.0079 16.0422 37.9193 15.7763C37.91 15.5707 37.9061 15.3649 37.905 15.1591C37.9046 15.0967 37.9041 15.0342 37.9037 14.9699C37.9024 14.7634 37.9018 14.5569 37.9013 14.3503C37.9008 14.2067 37.9003 14.0631 37.8998 13.9194C37.8988 13.6182 37.8983 13.317 37.898 13.0158C37.8975 12.6302 37.8954 12.2446 37.8929 11.859C37.8912 11.5622 37.8907 11.2655 37.8906 10.9687C37.8903 10.8266 37.8896 10.6844 37.8885 10.5423C37.887 10.3433 37.8871 10.1443 37.8877 9.94527C37.8872 9.77551 37.8872 9.77551 37.8867 9.60232C37.9217 9.28283 37.9951 9.11769 38.1852 8.86191C38.5009 8.61389 38.7878 8.66869 39.1603 8.77326Z" fill="black"/>
<path d="M10.7542 8.66238C10.8386 8.66056 10.923 8.65873 11.0099 8.65684C11.9118 8.65193 12.6241 8.81762 13.2824 9.45604C13.7316 9.99405 13.8696 10.5925 13.8412 11.2844C13.7293 12.058 13.2816 12.5831 12.7432 13.1168C12.7754 13.178 12.8077 13.2392 12.8409 13.3023C12.9869 13.5815 13.131 13.8616 13.2751 14.1418C13.3258 14.2381 13.3766 14.3344 13.4288 14.4335C13.8923 15.3411 13.8923 15.3411 13.807 15.8649C13.6684 16.1197 13.6684 16.1197 13.4524 16.3081C13.1313 16.4015 12.9327 16.4358 12.6182 16.314C12.2809 16.0448 12.1341 15.71 11.9454 15.3274C11.9069 15.2517 11.8684 15.1759 11.8287 15.0979C11.753 14.9484 11.6777 14.7987 11.603 14.6488C11.5188 14.48 11.4328 14.3122 11.3463 14.1446C11.0589 13.5862 11.0589 13.5862 11.0589 13.3828C10.9712 13.3828 10.8834 13.3828 10.793 13.3828C10.7948 13.4556 10.7967 13.5285 10.7986 13.6036C10.806 13.9344 10.8106 14.2652 10.8152 14.5961C10.8181 14.7108 10.8211 14.8255 10.8242 14.9436C10.8253 15.0542 10.8264 15.1647 10.8276 15.2786C10.8295 15.3803 10.8313 15.482 10.8332 15.5867C10.7841 15.9264 10.6815 16.0696 10.4384 16.3081C10.0883 16.4099 9.90391 16.435 9.56857 16.2859C9.37466 16.1308 9.37466 16.1308 9.19737 15.8649C9.17366 15.5835 9.17366 15.5835 9.17161 15.2314C9.17072 15.1351 9.17072 15.1351 9.16981 15.0369C9.16812 14.8247 9.16778 14.6124 9.16759 14.4001C9.16702 14.2525 9.16642 14.1049 9.1658 13.9573C9.16474 13.6477 9.16441 13.3382 9.16451 13.0286C9.16453 12.6323 9.16211 12.2359 9.15906 11.8396C9.15708 11.5346 9.15673 11.2297 9.15682 10.9247C9.15661 10.7786 9.15583 10.6325 9.15446 10.4864C9.15272 10.2818 9.15323 10.0774 9.1543 9.87282C9.15405 9.7565 9.15379 9.64018 9.15353 9.52033C9.20461 9.16622 9.29773 9.02065 9.55195 8.77319C9.94875 8.64092 10.3385 8.66457 10.7542 8.66238ZM10.793 10.2802C10.793 10.7775 10.793 11.2748 10.793 11.7872C11.4841 11.8033 11.4841 11.8033 12.034 11.5212C12.2429 11.2654 12.2429 11.2654 12.1947 10.945C12.114 10.5924 12.114 10.5924 11.8567 10.3688C11.6013 10.2837 11.4402 10.2708 11.1753 10.2746C11.0491 10.2765 10.923 10.2783 10.793 10.2802Z" fill="black"/>
<path d="M28.735 8.6639C28.8081 8.66319 28.8812 8.66247 28.9566 8.66173C29.1113 8.66051 29.2661 8.65956 29.4209 8.65886C29.6567 8.65733 29.8924 8.65344 30.1282 8.64953C30.2788 8.64863 30.4293 8.64788 30.5799 8.64728C30.65 8.64573 30.7201 8.64418 30.7923 8.64258C31.2577 8.64439 31.522 8.73094 31.8912 9.03961C31.9999 9.27416 32.0033 9.49257 31.9799 9.74878C31.8612 10.0145 31.7977 10.1501 31.5367 10.2807C31.3436 10.2882 31.1502 10.2901 30.957 10.2893C30.8416 10.289 30.7262 10.2887 30.6073 10.2884C30.4849 10.2877 30.3626 10.287 30.2402 10.2862C30.1172 10.2857 29.9941 10.2853 29.8711 10.285C29.5694 10.2839 29.2677 10.2823 28.9659 10.2807C28.9659 10.778 28.9659 11.2753 28.9659 11.7876C29.1474 11.7845 29.3289 11.7815 29.5158 11.7783C29.6921 11.7764 29.8685 11.7746 30.0448 11.773C30.1671 11.7717 30.2893 11.7699 30.4116 11.7676C30.5876 11.7643 30.7636 11.763 30.9397 11.7617C31.0455 11.7603 31.1514 11.7589 31.2604 11.7574C31.5626 11.7905 31.6833 11.8347 31.8912 12.0536C31.9843 12.438 32.0223 12.6479 31.8857 13.0176C31.6176 13.3116 31.3084 13.3736 30.9183 13.4034C30.8282 13.4025 30.7381 13.4015 30.6454 13.4006C30.5471 13.4 30.4488 13.3994 30.3476 13.3988C30.2463 13.3974 30.1451 13.3959 30.0408 13.3943C29.8858 13.3931 29.8858 13.3931 29.7277 13.3919C29.4738 13.3898 29.2199 13.3867 28.9659 13.3833C28.9659 13.8513 28.9659 14.3194 28.9659 14.8016C29.1474 14.7975 29.3289 14.7934 29.5158 14.7891C29.6921 14.7867 29.8685 14.7842 30.0448 14.7821C30.1671 14.7803 30.2893 14.7779 30.4116 14.7748C30.5876 14.7705 30.7636 14.7687 30.9397 14.767C31.0985 14.7642 31.0985 14.7642 31.2604 14.7613C31.5928 14.8098 31.6924 14.8903 31.8912 15.1562C31.9856 15.5021 32.0151 15.6933 31.8746 16.026C31.6971 16.2403 31.6188 16.3026 31.3594 16.3972C31.1045 16.4153 30.8584 16.4242 30.6035 16.4239C30.5302 16.4243 30.457 16.4246 30.3816 16.425C30.227 16.4255 30.0724 16.4256 29.9178 16.4252C29.6818 16.4249 29.4459 16.427 29.2099 16.4293C29.0594 16.4295 28.909 16.4295 28.7585 16.4294C28.6531 16.4306 28.6531 16.4306 28.5455 16.4319C28.0358 16.4276 27.7393 16.323 27.3703 15.954C27.3518 15.737 27.3443 15.53 27.3446 15.3129C27.344 15.2469 27.3434 15.1808 27.3427 15.1128C27.3411 14.8939 27.3407 14.675 27.3405 14.456C27.34 14.3041 27.3394 14.1521 27.3387 14.0002C27.3377 13.6814 27.3373 13.3626 27.3375 13.0438C27.3375 12.6352 27.3351 12.2267 27.332 11.8181C27.33 11.5042 27.3297 11.1903 27.3298 10.8763C27.3296 10.7257 27.3288 10.5751 27.3274 10.4244C27.3257 10.2137 27.3262 10.003 27.3272 9.79228C27.3262 9.73 27.3252 9.66773 27.3242 9.60357C27.328 9.30724 27.3513 9.15313 27.5337 8.915C27.9071 8.63896 28.2899 8.66803 28.735 8.6639Z" fill="black"/>
<path d="M18.7782 9.00129C19.295 9.38652 19.6716 9.83122 19.8347 10.4577C19.861 10.7716 19.8617 11.0844 19.8614 11.3992C19.8617 11.4895 19.8621 11.5797 19.8625 11.6727C19.863 11.8631 19.8631 12.0534 19.8627 12.2438C19.8624 12.5341 19.8645 12.8242 19.8667 13.1145C19.8669 13.2999 19.867 13.4853 19.8669 13.6708C19.8677 13.757 19.8685 13.8433 19.8694 13.9322C19.8641 14.7124 19.6553 15.2182 19.1203 15.7945C18.5913 16.2841 17.9756 16.4233 17.264 16.397C16.5065 16.2521 15.9812 15.8753 15.5174 15.2706C15.2113 14.7295 15.1978 14.1867 15.1984 13.5804C15.1981 13.4986 15.1977 13.4167 15.1973 13.3324C15.1968 13.16 15.1967 12.9876 15.1971 12.8152C15.1974 12.5534 15.1953 12.2916 15.1931 12.0298C15.1929 11.8615 15.1928 11.6932 15.1929 11.5249C15.1921 11.4476 15.1913 11.3703 15.1904 11.2906C15.1963 10.4953 15.3877 9.86447 15.9374 9.28107C16.7177 8.59539 17.871 8.48873 18.7782 9.00129ZM16.998 10.5464C16.7595 10.8739 16.7936 11.2492 16.7941 11.6375C16.7937 11.7087 16.7933 11.78 16.7929 11.8534C16.7924 12.0038 16.7924 12.1542 16.7928 12.3047C16.793 12.5342 16.791 12.7637 16.7887 12.9933C16.7885 13.1397 16.7884 13.2861 16.7885 13.4325C16.7877 13.5009 16.7869 13.5692 16.7861 13.6396C16.7895 14.042 16.8324 14.307 17.0867 14.6241C17.3357 14.7711 17.3357 14.7711 17.6185 14.8014C17.8782 14.6833 18.0381 14.5591 18.2391 14.3581C18.259 14.0888 18.2682 13.8278 18.2688 13.5582C18.2694 13.4787 18.27 13.3991 18.2706 13.3171C18.2715 13.1485 18.2719 12.98 18.2719 12.8114C18.2723 12.5536 18.2755 12.2959 18.2789 12.0381C18.2794 11.8744 18.2798 11.7108 18.2799 11.5471C18.2812 11.47 18.2825 11.3929 18.2838 11.3134C18.2833 10.8744 18.2833 10.8744 18.0696 10.5001C17.6487 10.2022 17.4336 10.2718 16.998 10.5464Z" fill="black"/>
<path d="M4.73209 8.66237C4.81722 8.66054 4.90235 8.65871 4.99006 8.65683C5.77147 8.65259 6.45447 8.79884 7.07012 9.30505C7.58743 9.87321 7.82716 10.4457 7.80734 11.2199C7.72488 11.845 7.44068 12.4216 6.98148 12.8509C6.36949 13.2339 5.82158 13.386 5.10122 13.3838C4.99037 13.3835 4.87953 13.3831 4.76533 13.3828C4.76672 13.4529 4.76812 13.5231 4.76955 13.5954C4.77509 13.9142 4.77854 14.233 4.78195 14.5518C4.78418 14.6622 4.78641 14.7727 4.7887 14.8865C4.78956 14.993 4.79042 15.0996 4.7913 15.2094C4.79269 15.3073 4.79409 15.4053 4.79552 15.5062C4.76139 15.8114 4.68158 15.9745 4.49939 16.2194C4.23949 16.374 4.08727 16.398 3.78469 16.3856C3.47256 16.2927 3.36738 16.2113 3.1697 15.9535C3.13469 15.7207 3.12113 15.5249 3.12382 15.2923C3.1232 15.2262 3.12258 15.1602 3.12194 15.0921C3.12038 14.8741 3.12141 14.6562 3.12261 14.4382C3.12237 14.2865 3.12203 14.1348 3.12158 13.9832C3.12106 13.6654 3.12182 13.3477 3.12348 13.03C3.1255 12.6227 3.12433 12.2156 3.12221 11.8084C3.12093 11.4952 3.12134 11.1821 3.12226 10.8689C3.12249 10.7188 3.1222 10.5686 3.12138 10.4185C3.12048 10.2086 3.12185 9.99885 3.12382 9.78897C3.12311 9.72697 3.12239 9.66498 3.12165 9.60111C3.12679 9.30568 3.15119 9.15188 3.33324 8.91468C3.75578 8.60171 4.22906 8.665 4.73209 8.66237ZM4.76533 10.2802C4.76533 10.7775 4.76533 11.2748 4.76533 11.7871C5.36399 11.7871 5.52324 11.7864 6.00637 11.5212C6.19201 11.2969 6.18452 11.1876 6.17258 10.8951C6.08291 10.5941 6.01025 10.5196 5.74044 10.3688C5.40909 10.2428 5.40909 10.2428 4.76533 10.2802Z" fill="black"/>
<path d="M22.7051 8.65743C22.776 8.65705 22.847 8.65667 22.92 8.65628C23.0696 8.65577 23.2191 8.65572 23.3686 8.65611C23.5964 8.65639 23.8242 8.65431 24.052 8.65206C24.1977 8.65186 24.3434 8.6518 24.4891 8.65189C24.5567 8.65107 24.6244 8.65026 24.694 8.64941C25.1175 8.65306 25.4075 8.71717 25.7748 8.95003C25.9363 9.20968 25.9535 9.35943 25.9411 9.66474C25.8491 9.97348 25.7612 10.0818 25.5089 10.2797C25.2416 10.3143 25.2416 10.3143 24.9549 10.3019C24.8593 10.2987 24.7638 10.2955 24.6654 10.2922C24.5927 10.2881 24.52 10.284 24.4452 10.2797C24.4457 10.3463 24.4463 10.4128 24.4469 10.4814C24.4523 11.11 24.4563 11.7386 24.4589 12.3673C24.4603 12.6904 24.4622 13.0136 24.4652 13.3367C24.4681 13.6488 24.4697 13.9609 24.4704 14.273C24.4711 14.4495 24.4732 14.626 24.4753 14.8024C24.4753 14.9106 24.4753 15.0189 24.4753 15.1304C24.4759 15.2252 24.4765 15.3201 24.4771 15.4179C24.4395 15.7347 24.3431 15.9467 24.1792 16.219C23.9196 16.3804 23.7698 16.3977 23.4645 16.3852C23.1555 16.2932 23.0482 16.2051 22.8495 15.9531C22.8069 15.695 22.8069 15.695 22.8093 15.392C22.8093 15.2785 22.8093 15.1649 22.8094 15.0479C22.8112 14.9244 22.813 14.8009 22.8149 14.6774C22.8156 14.5507 22.8161 14.424 22.8164 14.2973C22.8178 13.9644 22.8213 13.6316 22.8252 13.2988C22.8288 12.9589 22.8304 12.619 22.8322 12.2791C22.836 11.6126 22.8421 10.9462 22.8495 10.2797C22.7705 10.2838 22.6914 10.2879 22.6099 10.2922C22.5062 10.2954 22.4024 10.2986 22.2955 10.3019C22.1412 10.3081 22.1412 10.3081 21.9838 10.3143C21.6971 10.2797 21.6971 10.2797 21.4876 10.117C21.2981 9.8663 21.2602 9.70731 21.2539 9.39326C21.3576 9.09383 21.4231 8.91467 21.7055 8.75917C22.0398 8.66173 22.3599 8.65702 22.7051 8.65743Z" fill="black"/>
<path d="M35.3485 8.77409C35.5976 8.97607 35.6897 9.08852 35.7917 9.39461C35.801 9.59429 35.8049 9.79423 35.806 9.99412C35.8064 10.0547 35.8069 10.1153 35.8073 10.1777C35.8086 10.378 35.8092 10.5783 35.8097 10.7787C35.8102 10.9181 35.8107 11.0576 35.8112 11.197C35.8122 11.4895 35.8127 11.782 35.813 12.0745C35.8135 12.4486 35.8156 12.8226 35.8181 13.1967C35.8198 13.4849 35.8202 13.773 35.8204 14.0612C35.8206 14.199 35.8214 14.3369 35.8225 14.4748C35.824 14.6681 35.8239 14.8613 35.8233 15.0546C35.8236 15.1644 35.8239 15.2742 35.8243 15.3874C35.7881 15.7216 35.7009 15.935 35.5258 16.2203C35.2661 16.3818 35.1164 16.399 34.8111 16.3866C34.4989 16.2936 34.3938 16.2123 34.1961 15.9544C34.1611 15.7216 34.1475 15.5258 34.1502 15.2932C34.1496 15.2271 34.1489 15.1611 34.1483 15.093C34.1467 14.875 34.1478 14.6571 34.149 14.4391C34.1487 14.2874 34.1484 14.1358 34.148 13.9841C34.1474 13.6663 34.1482 13.3486 34.1498 13.0309C34.1519 12.6237 34.1507 12.2165 34.1486 11.8093C34.1473 11.4962 34.1477 11.183 34.1486 10.8698C34.1489 10.7197 34.1486 10.5696 34.1477 10.4194C34.1468 10.2095 34.1482 9.99977 34.1502 9.78988C34.1495 9.72789 34.1488 9.6659 34.148 9.60202C34.1532 9.3066 34.1776 9.15279 34.3596 8.9156C34.7056 8.65935 34.9429 8.66649 35.3485 8.77409Z" fill="black"/>
</g>
<defs>
<clipPath id="clip0_358_914">
<rect width="45.3867" height="45.3867" fill="white" transform="translate(0.15625 0.44043)"/>
</clipPath>
</defs>
</svg>
