<svg width="46" height="46" viewBox="0 0 46 46" fill="none" xmlns="http://www.w3.org/2000/svg">
<path d="M31.4799 6.8234C31.556 6.86157 31.632 6.89974 31.7104 6.93906C34.2557 8.22656 36.6641 9.85249 38.8375 11.6989C38.9323 11.7784 39.0272 11.8578 39.1221 11.9372C39.9411 12.6266 40.7254 13.3504 41.4969 14.0924C41.5599 14.1528 41.6229 14.2133 41.6878 14.2756C43.8872 16.3968 43.8872 16.3968 43.9969 17.9879C44.0137 19.1212 43.7746 20.0667 43.0128 20.932C41.9248 21.9836 40.2318 22.4689 38.8652 23.0456C38.6518 23.136 38.4384 23.2264 38.2251 23.3169C37.9051 23.4526 37.5851 23.5883 37.2651 23.7238C36.3439 24.1138 35.4241 24.507 34.5049 24.9016C34.3743 24.9577 34.2437 25.0137 34.113 25.0697C33.8263 25.1928 33.5395 25.3159 33.2528 25.439C33.252 25.502 33.2511 25.565 33.2503 25.6298C33.2455 25.919 33.2381 26.2081 33.2306 26.4973C33.2294 26.5963 33.2281 26.6953 33.2268 26.7973C33.2057 27.5178 33.108 28.0976 32.6354 28.6604C32.0175 29.1609 31.5741 29.3314 30.7707 29.2508C30.1758 29.0624 29.7123 28.7542 29.4133 28.1982C29.2551 27.8791 29.2223 27.5628 29.1751 27.212C29.0281 27.275 28.8811 27.3379 28.7341 27.4009C28.5981 27.4592 28.462 27.5176 28.326 27.5759C27.9249 27.7478 27.5238 27.9197 27.1227 28.0916C26.2689 28.4575 25.4152 28.8234 24.5613 29.189C22.5291 30.0591 20.4974 30.93 18.4679 31.8062C17.7304 32.1246 16.9928 32.4428 16.2552 32.7609C16.0576 32.8461 15.8601 32.9314 15.6625 33.0166C15.0474 33.2821 14.4322 33.5472 13.8168 33.8118C13.6224 33.8954 13.4281 33.9792 13.2339 34.063C12.9666 34.1784 12.6992 34.2933 12.4317 34.4082C12.352 34.4427 12.2723 34.4773 12.1901 34.5128C12.1176 34.5439 12.045 34.5749 11.9703 34.6069C11.8756 34.6477 11.8756 34.6477 11.779 34.6893C11.6232 34.7469 11.6232 34.7469 11.4459 34.7469C11.4487 34.8728 11.4487 34.8728 11.4515 35.0013C11.4576 35.3169 11.462 35.6324 11.4654 35.948C11.4671 36.0838 11.4695 36.2197 11.4726 36.3555C11.4923 37.2413 11.493 38.0396 10.9265 38.7716C10.2969 39.2828 9.76685 39.5028 8.94649 39.4756C8.28191 39.3941 7.78767 39.127 7.32143 38.6539C6.93637 38.1115 6.88124 37.6164 6.864 36.9686C6.86097 36.891 6.85795 36.8135 6.85483 36.7336C6.84758 36.5442 6.84179 36.3547 6.8363 36.1652C6.66379 36.1128 6.66379 36.1128 6.48172 36.0766C6.3331 36.2252 6.38124 36.4076 6.3805 36.6116C6.37987 36.7069 6.37925 36.8022 6.37861 36.9004C6.37824 37.0044 6.37787 37.1083 6.37749 37.2155C6.37543 37.4341 6.37329 37.6528 6.37108 37.8715C6.36798 38.2173 6.36537 38.5632 6.36418 38.909C6.3628 39.2421 6.35923 39.5751 6.35533 39.9081C6.3555 40.0108 6.35566 40.1135 6.35584 40.2193C6.34532 40.9191 6.24705 41.3971 5.78502 41.9455C5.16124 42.4752 4.63194 42.6951 3.80503 42.6665C3.10747 42.582 2.63372 42.3152 2.17997 41.7845C1.85607 41.2587 1.74375 40.763 1.74907 40.1519C1.74861 40.0846 1.74814 40.0173 1.74766 39.948C1.7465 39.7273 1.74726 39.5066 1.74816 39.2858C1.74798 39.1301 1.74773 38.9744 1.74739 38.8186C1.747 38.4923 1.74757 38.1659 1.74881 37.8396C1.75031 37.4266 1.74946 37.0136 1.74786 36.6006C1.74689 36.2785 1.74721 35.9565 1.7479 35.6345C1.74807 35.4825 1.74787 35.3306 1.74724 35.1787C1.74266 33.7628 1.87414 32.3415 2.28212 30.9794C2.31557 30.8658 2.31557 30.8658 2.3497 30.7498C3.10085 28.3084 4.52661 26.4288 6.26227 24.603C6.46505 24.3874 6.6579 24.164 6.85084 23.9397C7.07785 23.6818 7.31181 23.4305 7.54547 23.1786C7.83017 22.8716 8.11378 22.5646 8.3876 22.2478C8.7029 21.8833 9.0308 21.5309 9.35832 21.1774C9.76304 20.7402 10.1621 20.2982 10.5594 19.8544C11.0265 19.3334 11.4964 18.8153 11.9697 18.3C12.3595 17.8753 12.7453 17.4469 13.1302 17.0177C13.5973 16.4968 14.0672 15.9786 14.5404 15.4634C14.9303 15.0386 15.316 14.6102 15.7009 14.181C16.1681 13.66 16.6381 13.1416 17.1116 12.6263C17.4319 12.2773 17.749 11.9256 18.0652 11.5729C18.2169 11.405 18.3691 11.2379 18.5223 11.0715C18.5653 11.0247 18.6084 10.978 18.6527 10.9299C18.7744 10.7978 18.8963 10.6659 19.0182 10.5341C19.0936 10.4504 19.169 10.3668 19.2467 10.2806C19.2893 10.2339 19.3318 10.1872 19.3757 10.1391C19.4861 10.0137 19.5887 9.88155 19.69 9.74872C19.6474 9.48124 19.548 9.28234 19.4202 9.04544C18.9922 8.15385 19.0163 7.00938 19.2911 6.06991C19.6863 5.08187 20.3436 4.35281 21.3036 3.89324C24.3482 2.67307 28.8077 5.48211 31.4799 6.8234ZM21.0806 5.77627C20.5822 6.3765 20.4342 6.96042 20.4559 7.73514C20.525 8.2567 20.7616 8.73446 21.1083 9.1282C21.3345 9.24174 21.3345 9.24174 21.5993 9.32246C21.699 9.35625 21.7987 9.39005 21.9014 9.42487C22.0628 9.47822 22.0628 9.47822 22.2274 9.53265C22.4552 9.6106 22.6825 9.68995 22.9096 9.76984C22.9672 9.79008 23.0247 9.81031 23.084 9.83116C27.3975 11.3639 31.5422 13.884 35.0257 16.8404C35.1804 16.9716 35.335 17.1027 35.4898 17.2339C35.5916 17.3203 35.6933 17.407 35.7947 17.4939C36.0056 17.6737 36.2131 17.8388 36.444 17.9928C36.4581 17.9263 36.4721 17.8598 36.4866 17.7913C36.759 16.5965 37.2189 15.6696 38.2731 15.0041C38.7576 14.7411 39.267 14.6055 39.8126 14.5356C39.071 13.6137 38.1519 12.8896 37.219 12.1726C37.0717 12.059 36.9253 11.9443 36.7792 11.8291C34.9901 10.4248 33.0465 9.21478 31.0366 8.15309C30.9592 8.11211 30.8817 8.07113 30.8019 8.02891C25.9505 5.24954 25.9505 5.24954 21.0806 5.77627ZM20.931 10.4579C20.9942 10.7343 20.9942 10.7343 21.2136 10.8623C21.7878 11.3601 22.1379 12.0947 22.2018 12.8472C22.2175 13.59 22.2025 14.232 21.8175 14.8902C21.7809 14.9536 21.7443 15.017 21.7067 15.0824C21.2588 15.7605 20.4971 16.1855 19.7121 16.3639C18.7666 16.473 17.8476 16.3545 17.0638 15.7656C16.9637 15.6811 16.8639 15.5962 16.7646 15.5107C16.6769 15.4522 16.5891 15.3937 16.4987 15.3334C15.9733 15.9049 15.4499 16.4779 14.9315 17.0558C14.6982 17.3141 14.4628 17.5704 14.2272 17.8266C13.9632 18.1135 13.7011 18.4016 13.446 18.6964C13.1286 19.0625 12.799 19.417 12.4697 19.7724C12.065 20.2095 11.666 20.6515 11.2686 21.0954C10.8837 21.5247 10.498 21.9531 10.108 22.3778C10.0251 22.4681 9.94237 22.5584 9.85968 22.6488C9.66173 22.8651 9.46302 23.0805 9.26264 23.2946C9.19145 23.3715 9.12026 23.4484 9.04691 23.5276C8.98372 23.5952 8.92053 23.6627 8.85542 23.7323C8.69196 23.9396 8.60526 24.1265 8.52057 24.3753C8.60102 24.4594 8.68147 24.5435 8.76435 24.6302C9.43579 25.4337 9.49774 26.2897 9.4272 27.3009C9.38436 27.6768 9.26047 27.964 9.05245 28.2757C8.99606 28.3678 8.99606 28.3678 8.93852 28.4617C8.49051 29.1293 7.85331 29.5401 7.07835 29.7408C6.20957 29.8912 5.51019 29.7758 4.7088 29.4281C4.62104 29.3989 4.53328 29.3696 4.44286 29.3395C3.90799 30.3068 3.59141 31.3288 3.35695 32.4033C3.34249 32.468 3.32802 32.5327 3.31312 32.5994C3.09159 33.6758 3.09813 34.7851 3.09517 35.8795C3.09479 35.9749 3.09479 35.9749 3.09441 36.0723C3.09309 36.4075 3.09226 36.7428 3.09188 37.078C3.09139 37.4221 3.08924 37.7663 3.08674 38.1104C3.08508 38.3776 3.08462 38.6447 3.08449 38.9119C3.08422 39.0388 3.08352 39.1657 3.08235 39.2926C3.05895 40.2072 3.05895 40.2072 3.37911 41.0407C3.66588 41.2447 3.83082 41.3083 4.18246 41.3011C4.48416 41.2048 4.6596 41.0835 4.88609 40.8634C4.97499 40.5967 4.98627 40.4179 4.98731 40.1391C4.98793 40.0456 4.98856 39.9521 4.9892 39.8557C4.98957 39.7546 4.98994 39.6535 4.99032 39.5493C4.99238 39.3353 4.99451 39.1212 4.99672 38.9072C4.99983 38.5697 5.00244 38.2322 5.00363 37.8947C5.005 37.569 5.00857 37.2433 5.01248 36.9177C5.01231 36.8174 5.01214 36.7172 5.01197 36.614C5.02074 36.0444 5.06668 35.5681 5.41797 35.1015C5.82714 34.7531 6.30373 34.6353 6.8363 34.6582C7.33307 34.759 7.66694 34.9699 7.9887 35.3674C8.23104 35.8281 8.19975 36.3139 8.20841 36.8217C8.22251 37.2345 8.25308 37.5145 8.52057 37.8495C8.80548 38.0394 8.98061 38.1154 9.32393 38.1154C9.65478 38.0028 9.80818 37.8531 10.0276 37.5835C10.1085 37.3379 10.1275 37.1133 10.1288 36.8557C10.1294 36.7828 10.13 36.71 10.1307 36.6349C10.1312 36.5176 10.1312 36.5176 10.1318 36.3979C10.1338 36.2302 10.136 36.0625 10.1382 35.8948C10.1413 35.632 10.1439 35.3693 10.1451 35.1065C10.1525 33.7407 10.2615 32.6079 11.0913 31.467C11.1772 31.3902 11.2632 31.3134 11.3517 31.2343C11.5715 31.0304 11.5715 31.0304 11.5179 30.7079C11.5063 30.6471 11.4946 30.5864 11.4826 30.5237C11.3144 29.5653 11.4909 28.6976 12.0387 27.8934C12.5586 27.2543 13.3037 26.8504 14.1118 26.7272C15.119 26.6242 15.8607 26.7649 16.676 27.3893C16.8438 27.5766 16.9959 27.7647 17.14 27.9706C17.2919 28.1243 17.2919 28.1243 17.5204 28.0838C17.9219 27.9873 18.2806 27.8306 18.657 27.6632C18.7379 27.6278 18.8187 27.5924 18.902 27.556C19.1667 27.44 19.4311 27.3232 19.6955 27.2064C19.8801 27.1254 20.0648 27.0445 20.2494 26.9636C20.6237 26.7997 20.9979 26.6355 21.372 26.4712C22.2517 26.0849 23.1332 25.7027 24.0159 25.3234C24.147 25.2671 24.278 25.2107 24.409 25.1544C24.4729 25.127 24.5368 25.0995 24.6026 25.0712C25.0024 24.899 25.4007 24.7235 25.7981 24.5458C26.064 24.4272 26.3306 24.3101 26.5972 24.1933C26.7215 24.1384 26.8454 24.0828 26.9689 24.0265C27.7587 23.667 28.519 23.3835 29.3882 23.6405C29.8653 23.8315 30.1675 24.2009 30.4161 24.6412C30.5151 24.9477 30.5185 25.2403 30.5235 25.5609C30.526 25.6702 30.5285 25.7794 30.5311 25.892C30.5357 26.1219 30.5396 26.3518 30.5429 26.5817C30.547 26.7456 30.547 26.7456 30.5512 26.9128C30.5529 27.0127 30.5547 27.1125 30.5565 27.2154C30.597 27.5035 30.6583 27.6258 30.8593 27.8325C31.0676 27.9362 31.0676 27.9362 31.3026 27.9211C31.6258 27.7235 31.6258 27.7235 31.8018 27.4005C31.8355 27.2059 31.8461 27.0252 31.847 26.8277C31.8476 26.7525 31.8483 26.6773 31.8489 26.5998C31.8495 26.4788 31.8495 26.4788 31.85 26.3553C31.8521 26.1827 31.8542 26.0102 31.8564 25.8376C31.8595 25.5669 31.8621 25.2961 31.8633 25.0254C31.8647 24.7632 31.8683 24.5011 31.8722 24.2389C31.872 24.1592 31.8719 24.0796 31.8717 23.9976C31.8882 23.1284 32.2025 22.3451 32.8096 21.7159C33.4476 21.1903 34.2208 20.8997 34.9758 20.5857C35.1585 20.5092 35.341 20.4325 35.5234 20.3553C35.6871 20.286 35.8511 20.2175 36.0152 20.1491C36.2719 20.0467 36.2719 20.0467 36.444 19.8544C35.8082 19.2538 35.1727 18.66 34.4893 18.1133C34.294 17.9571 34.1007 17.7993 33.9083 17.6396C32.5747 16.5361 31.175 15.5407 29.7069 14.6242C29.653 14.5905 29.5991 14.5567 29.5435 14.522C26.9723 12.9227 23.9251 11.1073 20.931 10.4579ZM19.8673 11.6103C19.1356 12.4022 19.1356 12.4022 18.4229 13.2111C18.3092 13.3404 18.192 13.4667 18.0732 13.5913C17.974 13.6967 17.974 13.6967 17.8727 13.8043C17.8115 13.8678 17.7502 13.9313 17.6871 13.9968C17.5438 14.1696 17.5438 14.1696 17.5687 14.367C17.6677 14.5695 17.7637 14.649 17.9503 14.7738C18.004 14.8107 18.0577 14.8477 18.113 14.8857C18.5484 15.1414 19.0248 15.1223 19.5127 15.0675C20.1036 14.8891 20.4717 14.6223 20.7679 14.0806C20.9754 13.6194 21.0265 13.1425 20.8673 12.6571C20.685 12.2697 20.4629 11.9779 20.1332 11.6989C20.0454 11.6697 19.9577 11.6404 19.8673 11.6103ZM38.2589 16.82C37.8576 17.4277 37.6557 18.0625 37.7737 18.7906C37.89 19.1368 38.0531 19.4496 38.2267 19.7699C38.3056 19.943 38.3056 19.943 38.3388 20.2422C38.1547 20.7276 37.7815 20.8113 37.3243 21.0192C36.6712 21.31 36.0112 21.585 35.3512 21.8594C35.1456 21.9451 34.9404 22.0316 34.7352 22.1183C34.6729 22.1439 34.6107 22.1695 34.5466 22.1958C33.9904 22.4317 33.6188 22.6802 33.3525 23.2284C33.3143 23.3044 33.2762 23.3804 33.2369 23.4587C33.1371 23.6755 33.1371 23.6755 33.2528 23.9321C33.5238 23.8161 33.7948 23.7001 34.0658 23.5841C34.1947 23.5289 34.1947 23.5289 34.3262 23.4726C34.8076 23.2665 35.2888 23.0602 35.77 22.8536C35.9709 22.7673 36.1718 22.681 36.3727 22.5948C36.4741 22.5512 36.5756 22.5077 36.6801 22.4628C37.2713 22.2092 37.8632 21.9572 38.456 21.707C38.8127 21.5563 39.1691 21.4047 39.5254 21.253C39.6937 21.1816 39.8621 21.1106 40.0307 21.0401C40.2662 20.9415 40.501 20.8415 40.7357 20.7412C40.8041 20.713 40.8724 20.6848 40.9428 20.6557C41.6702 20.3414 42.1484 19.9211 42.4772 19.1964C42.7033 18.5771 42.6938 17.9926 42.472 17.3723C42.1693 16.7292 41.6566 16.161 40.9771 15.9075C39.8909 15.6653 38.9524 15.946 38.2589 16.82ZM28.0535 24.9996C27.9521 25.0427 27.8506 25.0858 27.7461 25.1302C27.6333 25.1796 27.5205 25.229 27.4077 25.2784C27.2871 25.3302 27.1665 25.3819 27.0459 25.4335C26.7064 25.5791 26.3677 25.7264 26.0291 25.874C25.7998 25.9738 25.5704 26.0733 25.341 26.1728C24.4882 26.5422 23.6358 26.9128 22.7839 27.2843C21.8596 27.6873 20.9344 28.088 20.0085 28.4875C19.7684 28.5911 19.5283 28.6948 19.2882 28.7985C18.5357 29.1235 17.783 29.4478 17.0298 29.7707C16.6756 29.9226 16.3215 30.0748 15.9675 30.227C15.8001 30.2989 15.6327 30.3706 15.4652 30.4422C13.2344 31.2711 13.2344 31.2711 11.7118 32.9739C11.7411 33.0325 11.7703 33.091 11.8005 33.1512C11.8685 33.1221 11.9365 33.093 12.0065 33.0629C12.1617 32.9964 12.3168 32.9299 12.472 32.8634C12.7994 32.7231 13.1269 32.5828 13.4543 32.4424C14.2217 32.1135 14.9892 31.7846 15.7568 31.456C16.27 31.2362 16.7833 31.0164 17.2965 30.7966C17.4024 30.7512 17.5083 30.7059 17.6174 30.6591C18.7532 30.1725 19.8887 29.6853 21.0231 29.1954C21.116 29.1553 21.2089 29.1152 21.3046 29.0739C21.7654 28.8749 22.226 28.6756 22.6866 28.4761C23.6423 28.0624 24.5999 27.6538 25.5609 27.2525C25.8969 27.1121 26.2327 26.971 26.5685 26.8299C26.8392 26.7163 27.1102 26.6034 27.3815 26.4914C27.6809 26.3678 27.9796 26.2426 28.2782 26.117C28.3681 26.0805 28.458 26.0439 28.5506 26.0062C28.632 25.9717 28.7134 25.9371 28.7973 25.9014C28.8685 25.8719 28.9397 25.8424 29.0131 25.8119C29.1888 25.7173 29.1888 25.7173 29.2492 25.5303C29.2717 25.2512 29.1706 25.1203 28.9978 24.9072C28.6241 24.7797 28.4093 24.8462 28.0535 24.9996ZM7.45682 25.3504C6.81889 25.9709 6.24804 26.632 5.69498 27.3283C5.65165 27.3825 5.60831 27.4367 5.56366 27.4925C5.3826 27.7226 5.24537 27.907 5.15203 28.1871C5.64582 28.4783 6.12349 28.6079 6.69156 28.5029C7.24833 28.3379 7.6326 28.0853 7.97208 27.6053C8.21064 27.1157 8.27069 26.5553 8.09916 26.0336C7.93478 25.6797 7.82603 25.5048 7.45682 25.3504ZM13.0415 28.8076C12.7409 29.194 12.7169 29.5748 12.6869 30.0486C12.7454 30.0779 12.8039 30.1071 12.8642 30.1373C13.1015 30.0501 13.3293 29.957 13.5602 29.8551C13.6288 29.8254 13.6975 29.7958 13.7682 29.7653C13.9879 29.6701 14.2073 29.5741 14.4266 29.478C14.5752 29.4134 14.7239 29.349 14.8726 29.2846C15.2377 29.1263 15.6023 28.9672 15.9668 28.8076C15.9668 28.7198 15.9668 28.6321 15.9668 28.5417C15.4725 28.0885 15.1045 27.9685 14.4439 27.9817C13.8472 28.0487 13.4264 28.3567 13.0415 28.8076Z" fill="black"/>
<path d="M22.9981 18.9456C23.6554 19.4803 24.072 20.1704 24.2114 21.0066C24.2897 22.0715 24.092 22.9188 23.4136 23.7546C22.8861 24.3498 22.153 24.7006 21.363 24.7727C20.3453 24.8242 19.5223 24.612 18.7209 23.9541C18.0446 23.3023 17.7486 22.5362 17.707 21.6105C17.7293 20.6676 18.0361 19.8083 18.7154 19.1451C19.9592 18.1105 21.6556 18.0186 22.9981 18.9456ZM19.5132 20.2975C19.2044 20.7753 19.0052 21.268 19.1091 21.8443C19.2547 22.4008 19.4495 22.8403 19.9571 23.1563C20.5018 23.4296 20.9974 23.5098 21.5867 23.3384C22.1174 23.1293 22.454 22.8542 22.7044 22.327C22.9388 21.7192 22.906 21.2382 22.6601 20.641C22.4122 20.1789 21.9539 19.8627 21.4565 19.7084C20.7313 19.5743 20.0304 19.7659 19.5132 20.2975Z" fill="black"/>
<path d="M28.1116 16.7511C28.4191 16.9705 28.7382 17.2065 28.9094 17.549C28.9494 18.1782 28.9494 18.1782 28.8208 18.4354C28.521 18.5853 28.2533 18.6045 27.9343 18.5241C27.5485 18.2767 27.2152 17.9835 27.0479 17.549C27.0594 17.2206 27.0706 17.0096 27.2805 16.7511C27.6044 16.6148 27.7747 16.6501 28.1116 16.7511Z" fill="black"/>
<path d="M14.0164 21.1838C14.378 21.4297 14.6605 21.7068 14.9028 22.0702C14.9575 22.4297 14.9312 22.5617 14.72 22.8625C14.4596 23.0454 14.4596 23.0454 14.1604 23.062C13.6552 22.8965 13.3337 22.5976 13.0413 22.1589C13.0038 21.8155 12.991 21.6167 13.1798 21.3223C13.4929 21.1216 13.6495 21.1165 14.0164 21.1838Z" fill="black"/>
<path d="M27.2252 20.5633C27.4515 20.7116 27.4881 20.8199 27.5743 21.0786C27.5817 21.4582 27.4645 21.6034 27.2252 21.893C26.916 22.1941 26.6845 22.3178 26.2501 22.3363C26.0165 22.2649 25.9252 22.1985 25.7792 22.0038C25.6912 21.7158 25.7163 21.5614 25.8069 21.2725C26.1833 20.7177 26.5294 20.3709 27.2252 20.5633Z" fill="black"/>
<path d="M17.031 17.9924C17.2083 18.0811 17.2083 18.0811 17.2969 18.2584C17.3504 18.6152 17.3776 18.8333 17.1899 19.1455C16.9592 19.4248 16.7519 19.6306 16.4104 19.7654C15.8699 19.7464 15.8699 19.7464 15.6182 19.5271C15.4863 19.2402 15.4635 19.1048 15.524 18.7903C15.9499 18.1858 16.2679 17.9113 17.031 17.9924Z" fill="black"/>
<path d="M10.0275 30.1369C10.2587 30.3373 10.291 30.4797 10.3544 30.7796C10.2636 31.2749 9.9846 31.5305 9.58432 31.8212C9.25744 31.932 9.25744 31.932 8.9638 31.9099C8.7034 31.7769 8.7034 31.7769 8.52057 31.5553C8.45408 31.2672 8.45408 31.2672 8.52057 30.9348C8.90419 30.3583 9.30471 29.9216 10.0275 30.1369Z" fill="black"/>
<path d="M12.5099 24.3745C12.7817 24.5512 12.8472 24.66 12.9254 24.9729C12.8148 25.4957 12.4123 25.8579 11.978 26.1474C11.6642 26.1875 11.5052 26.1847 11.2356 26.0144C11.0747 25.767 11.0191 25.573 11.0348 25.2762C11.2394 24.5824 11.8299 24.2385 12.5099 24.3745Z" fill="black"/>
<path d="M25.2748 14.8015C25.5466 14.9782 25.6121 15.0871 25.6903 15.3999C25.5797 15.9227 25.1772 16.2849 24.7429 16.5744C24.4473 16.5586 24.2123 16.5351 23.9506 16.3916C23.7876 16.0944 23.7687 15.8303 23.8564 15.5107C24.2271 14.9465 24.6006 14.6667 25.2748 14.8015Z" fill="black"/>
<path d="M16.4653 24.4355C16.8918 24.4409 17.1292 24.5698 17.4737 24.8178C17.6699 25.0549 17.6509 25.1748 17.6454 25.4882C17.5623 25.7929 17.5623 25.7929 17.3739 25.9702C17.0333 26.0887 16.8465 26.0662 16.4986 25.9702C16.1425 25.7929 15.9202 25.6395 15.7783 25.2611C15.7987 24.772 15.9836 24.4771 16.4653 24.4355Z" fill="black"/>
<path d="M5.71706 32.0815C6.08381 32.189 6.3404 32.3201 6.65892 32.5303C6.79596 32.8044 6.77359 33.0262 6.74757 33.3281C6.60906 33.5442 6.60906 33.5442 6.39298 33.6827C5.89378 33.7691 5.60922 33.6205 5.20527 33.3538C4.9972 33.1863 4.97679 33.0783 4.94141 32.8129C4.97465 32.5303 4.97465 32.5303 5.15748 32.2699C5.41788 32.0871 5.41788 32.0871 5.71706 32.0815Z" fill="black"/>
<path d="M31.48 18.7019C31.7622 18.8464 32.0521 19.0081 32.2778 19.2338C32.3294 19.8635 32.3294 19.8635 32.1338 20.1646C31.8501 20.3437 31.7233 20.355 31.3913 20.2975C31.0148 20.1135 30.7391 19.9398 30.5049 19.5884C30.5242 19.0474 30.5242 19.0474 30.7431 18.7961C31.0229 18.6675 31.173 18.6547 31.48 18.7019Z" fill="black"/>
</svg>
