<svg width="46" height="46" viewBox="0 0 46 46" fill="none" xmlns="http://www.w3.org/2000/svg">
<g clip-path="url(#clip0_358_937)">
<path d="M9.74781 12.635C10.3093 12.9788 10.6359 13.4468 10.8143 14.0755C10.9383 14.6542 10.8399 15.1598 10.5899 15.6877C10.3308 16.0735 10.0399 16.3735 9.61484 16.5742C9.55633 16.5742 9.49782 16.5742 9.43754 16.5742C9.4668 18.4171 9.49605 20.2601 9.52619 22.1589C9.81872 21.9541 10.1113 21.7493 10.4127 21.5383C10.8715 21.3089 11.2373 21.3044 11.7423 21.361C12.5207 21.7053 13.0516 22.6663 13.4266 23.3999C13.5653 23.8333 13.515 24.2253 13.338 24.6409C13.1108 24.9013 13.1108 24.9013 12.8947 25.0842C12.8655 25.1134 12.8362 25.1427 12.8061 25.1728C12.8959 25.1751 12.9857 25.1774 13.0783 25.1797C13.1981 25.1847 13.3179 25.1898 13.4377 25.195C13.4967 25.1962 13.5556 25.1975 13.6164 25.1988C14.0631 25.2207 14.3206 25.3395 14.6677 25.6161C15.0896 26.0836 15.1236 26.4389 15.1195 27.0493C15.1194 27.155 15.1194 27.155 15.1192 27.2628C15.1187 27.4877 15.1176 27.7126 15.1164 27.9375C15.116 28.09 15.1156 28.2425 15.1152 28.3951C15.1143 28.7689 15.1126 29.1427 15.1109 29.5165C15.5789 29.5165 16.047 29.5165 16.5292 29.5165C16.5215 29.1737 16.5215 29.1737 16.5136 28.8239C16.5102 28.6007 16.5075 28.3774 16.5049 28.1541C16.5027 27.9999 16.4996 27.8456 16.4958 27.6914C16.4904 27.4687 16.4879 27.2461 16.4859 27.0233C16.4825 26.9212 16.4825 26.9212 16.479 26.817C16.4787 26.2954 16.6315 25.9252 16.9724 25.5274C17.2661 25.3501 17.2661 25.3501 17.5043 25.2615C17.1195 24.7911 16.702 24.364 16.2679 23.9397C15.8302 23.5092 15.8302 23.5092 15.7923 23.1007C15.82 22.7794 15.82 22.7794 15.953 22.5633C16.1987 22.4097 16.3879 22.3615 16.6779 22.3673C17.1418 22.4969 17.4531 22.9244 17.7703 23.2669C17.8474 23.3473 17.9245 23.4276 18.004 23.5104C18.1937 23.7084 18.3816 23.908 18.5681 24.1091C18.5786 24.0314 18.5892 23.9537 18.6 23.8737C18.6221 23.7197 18.6221 23.7197 18.6446 23.5627C18.6659 23.4105 18.6659 23.4105 18.6876 23.2553C18.8307 22.5153 19.2142 21.9099 19.8091 21.4497C20.5941 20.9675 21.1234 21.0065 22.1139 21.0065C22.1432 19.5438 22.1724 18.0811 22.2026 16.5742C22.0563 16.5157 21.91 16.4572 21.7593 16.3969C21.2431 16.0695 20.9419 15.6569 20.7842 15.0672C20.6741 14.3568 20.8164 13.7938 21.2274 13.2056C21.6123 12.7822 22.0022 12.5261 22.581 12.4667C23.3136 12.4586 23.843 12.4827 24.3927 12.9909C24.8914 13.5296 25.0988 14.0817 25.0756 14.8151C24.98 15.4781 24.6419 15.9746 24.1303 16.3917C23.9755 16.4855 23.9755 16.4855 23.6209 16.5742C23.6209 18.3586 23.6209 20.1431 23.6209 21.9816C24.0881 21.5865 24.0881 21.5865 24.5074 21.145C24.7468 20.9579 24.9266 20.9556 25.2248 20.9729C25.3938 21.0065 25.3938 21.0065 25.6154 21.145C25.7988 21.4429 25.7914 21.6376 25.7484 21.9816C25.613 22.1783 25.613 22.1783 25.4825 22.3362C25.5477 22.3684 25.613 22.4006 25.6802 22.4338C26.5125 22.8626 26.8622 23.2644 27.2554 24.1091C27.3175 24.0387 27.3797 23.9683 27.4437 23.8958C28.0962 23.1833 28.0962 23.1833 28.4407 23.0567C28.7274 23.0475 28.9208 23.1222 29.1613 23.2725C29.3546 23.5866 29.361 23.7448 29.2942 24.1091C29.1119 24.3703 28.8959 24.5908 28.6737 24.8182C28.5544 24.9651 28.4356 25.1124 28.3191 25.2615C28.4617 25.33 28.4617 25.33 28.6072 25.4C28.969 25.5739 29.1445 25.8758 29.2942 26.2366C29.3387 26.4976 29.3359 26.7505 29.3289 27.0146C29.3284 27.0866 29.3279 27.1585 29.3273 27.2326C29.3254 27.4602 29.3209 27.6877 29.3164 27.9153C29.3146 28.0705 29.313 28.2257 29.3115 28.3809C29.308 28.7595 29.301 29.1378 29.2942 29.5165C29.7623 29.5165 30.2303 29.5165 30.7126 29.5165C30.7095 29.2923 30.7064 29.0681 30.7032 28.8371C30.7011 28.6188 30.6995 28.4005 30.698 28.1822C30.6966 28.0311 30.6948 27.8799 30.6925 27.7288C30.6893 27.5109 30.6878 27.2931 30.6866 27.0752C30.6852 27.0082 30.6838 26.9411 30.6824 26.872C30.6823 26.3882 30.7724 26.0142 31.1146 25.6476C31.493 25.3582 31.669 25.2499 32.142 25.2559C32.2227 25.2567 32.3033 25.2575 32.3864 25.2584C32.4794 25.2599 32.4794 25.2599 32.5741 25.2615C32.5449 25.1737 32.5156 25.0859 32.4855 24.9955C32.437 24.3911 32.5745 23.9459 32.8013 23.3888C32.8299 23.3119 32.8585 23.235 32.888 23.1558C33.0928 22.6432 33.3345 22.2709 33.8152 21.9816C34.7355 21.6439 35.5196 22.1765 36.3859 22.5134C36.3859 20.5535 36.3859 18.5935 36.3859 16.5742C36.2396 16.5157 36.0934 16.4572 35.9427 16.3969C35.3927 16.0152 35.1055 15.5466 34.9676 14.8899C34.9161 14.2331 35.0629 13.6538 35.4717 13.1336C35.9563 12.6266 36.3942 12.4753 37.0951 12.4521C37.7325 12.4739 38.136 12.5761 38.5989 13.0169C39.144 13.6065 39.2642 14.0701 39.2506 14.8695C39.1896 15.4921 38.8964 15.9056 38.4248 16.3082C38.0304 16.5742 38.0304 16.5742 37.8042 16.5742C37.8335 18.4171 37.8627 20.2601 37.8929 22.1589C38.3024 21.8956 38.712 21.6323 39.1339 21.361C39.9968 21.2532 39.9968 21.2532 40.4653 21.5048C40.7714 21.749 40.9708 22.0038 41.1894 22.3251C41.2271 22.3782 41.2647 22.4313 41.3035 22.4861C41.7145 23.0754 41.9792 23.5546 41.882 24.2864C41.7377 24.6685 41.5511 24.8922 41.2614 25.1728C41.3866 25.1778 41.3866 25.1778 41.5142 25.1829C41.6798 25.1916 41.6798 25.1916 41.8487 25.2005C41.9577 25.2057 42.0667 25.2108 42.1791 25.2161C42.6349 25.28 42.9306 25.4125 43.2393 25.7546C43.5063 26.1402 43.4891 26.4452 43.4862 26.9021C43.486 27.0139 43.486 27.0139 43.4859 27.1279C43.4854 27.3664 43.4842 27.6048 43.4831 27.8433C43.4827 28.0048 43.4823 28.1662 43.4819 28.3277C43.4809 28.724 43.4794 29.1202 43.4776 29.5165C43.5961 29.514 43.5961 29.514 43.717 29.5114C43.8207 29.5101 43.9244 29.5088 44.0313 29.5075C44.1854 29.505 44.1854 29.505 44.3427 29.5024C44.845 29.527 45.0957 29.707 45.4409 30.0729C45.7349 30.5318 45.6595 31.1149 45.6549 31.6384C45.6571 31.7492 45.6592 31.86 45.6613 31.9741C45.6605 32.5158 45.6571 32.9492 45.3176 33.3877C44.8378 33.7507 44.3721 33.8103 43.7914 33.8052C43.681 33.8058 43.681 33.8058 43.5685 33.8064C43.3221 33.8075 43.0756 33.8067 42.8292 33.8058C42.6507 33.8062 42.4723 33.8067 42.2938 33.8073C41.8033 33.8086 41.3129 33.8082 40.8224 33.8075C40.2935 33.8071 39.7646 33.8082 39.2357 33.8091C38.2594 33.8106 37.2831 33.8108 36.3068 33.8104C35.4048 33.8099 34.5028 33.81 33.6009 33.8105C33.4799 33.8106 33.3589 33.8106 33.2379 33.8107C33.0556 33.8108 32.8733 33.8109 32.691 33.811C30.9961 33.812 29.3011 33.8124 27.6062 33.8117C27.5104 33.8116 27.5104 33.8116 27.4126 33.8116C26.8937 33.8114 26.3749 33.8112 25.856 33.8109C23.832 33.81 21.8079 33.8108 19.7839 33.8128C17.5098 33.8151 15.2358 33.8163 12.9618 33.8157C12.7193 33.8156 12.4769 33.8155 12.2344 33.8155C12.1449 33.8154 12.1449 33.8154 12.0535 33.8154C11.1522 33.8152 10.2509 33.8159 9.34956 33.8171C8.32461 33.8184 7.29966 33.8185 6.27471 33.8169C5.75163 33.8162 5.22858 33.816 4.7055 33.8173C4.22678 33.8185 3.74809 33.8181 3.26936 33.8164C3.09608 33.8161 2.92279 33.8163 2.7495 33.8173C2.51404 33.8184 2.27869 33.8174 2.04324 33.8158C1.9422 33.8171 1.9422 33.8171 1.83912 33.8184C1.24654 33.8104 0.782401 33.6184 0.354109 33.2064C0.13818 32.6952 0.167299 32.1927 0.174046 31.644C0.172675 31.5324 0.171304 31.4209 0.169891 31.306C0.174187 30.2923 0.174187 30.2923 0.572953 29.8711C0.989112 29.5346 1.25804 29.4988 1.79218 29.5075C1.89589 29.5088 1.9996 29.5101 2.10645 29.5114C2.18546 29.5131 2.26447 29.5147 2.34587 29.5165C2.34401 29.4172 2.34216 29.318 2.34024 29.2157C2.33381 28.846 2.32975 28.4763 2.32639 28.1065C2.32461 27.9467 2.3222 27.787 2.31912 27.6272C2.3148 27.3971 2.3128 27.167 2.31124 26.9367C2.30941 26.8658 2.30758 26.7949 2.3057 26.7218C2.30551 26.251 2.39266 25.9922 2.70045 25.6161C2.97943 25.3459 3.22903 25.2985 3.60908 25.2448C3.70461 25.2308 3.80014 25.2167 3.89856 25.2023C3.97124 25.1925 4.04391 25.1828 4.11879 25.1728C4.09502 25.0814 4.07125 24.99 4.04676 24.8958C3.97176 24.3 4.24809 23.7614 4.47337 23.2226C4.5096 23.1353 4.54582 23.048 4.58314 22.9581C4.79917 22.4824 4.97764 22.217 5.44848 21.9816C6.38562 21.6692 6.99101 22.1481 7.93056 22.5134C7.95982 20.5535 7.98907 18.5935 8.01921 16.5742C7.84369 16.5157 7.66817 16.4572 7.48733 16.3969C7.02462 16.0003 6.63179 15.5263 6.57975 14.9027C6.56335 14.1662 6.60409 13.664 7.12132 13.1197C7.83693 12.4596 8.81826 12.216 9.74781 12.635ZM8.15772 14.0533C7.96567 14.3529 7.96931 14.5406 8.01921 14.8899C8.17669 15.1036 8.30428 15.2097 8.54 15.3276C8.8351 15.3363 9.01436 15.2222 9.26025 15.0672C9.42179 14.8565 9.4397 14.7558 9.42646 14.491C9.3279 14.2094 9.23837 14.0882 8.99432 13.9148C8.64504 13.8649 8.45731 13.8613 8.15772 14.0533ZM22.33 14.0976C22.1639 14.437 22.1911 14.618 22.2912 14.9785C22.3725 15.1632 22.3725 15.1632 22.5571 15.2445C22.8316 15.2793 23.0042 15.2997 23.2663 15.2445C23.5097 15.075 23.5097 15.075 23.6209 14.8012C23.6156 14.4939 23.5863 14.2793 23.4381 14.009C23.0378 13.7895 22.6699 13.824 22.33 14.0976ZM36.6186 14.0644C36.4551 14.297 36.3928 14.428 36.3859 14.7126C36.51 15.0264 36.6063 15.1321 36.9067 15.2888C37.1852 15.3595 37.1852 15.3595 37.4275 15.2223C37.6302 15.0713 37.6302 15.0713 37.8042 14.8899C37.8422 14.5482 37.8538 14.3467 37.6657 14.0533C37.3012 13.8196 36.9739 13.812 36.6186 14.0644ZM20.3133 23.0065C20.055 23.3797 20.0071 23.7546 20.0751 24.1977C20.2353 24.6118 20.4656 24.9099 20.8507 25.134C21.255 25.3057 21.6068 25.2916 22.0253 25.1728C22.4592 24.9682 22.6607 24.7215 22.8504 24.2936C22.9814 23.8993 22.9508 23.5971 22.812 23.2115C22.5843 22.8624 22.314 22.6135 21.9366 22.4248C21.22 22.3462 20.808 22.4583 20.3133 23.0065ZM10.4736 23.2337C9.77488 23.7363 9.06192 24.2142 8.33889 24.6812C8.26253 24.7312 8.18618 24.7812 8.10751 24.8328C8.03911 24.8771 7.97071 24.9214 7.90024 24.967C7.85174 25.0057 7.80324 25.0443 7.75327 25.0842C7.75327 25.1427 7.75327 25.2012 7.75327 25.2615C9.19899 25.4101 10.2271 25.3875 11.4027 24.4775C11.7548 24.2014 11.7548 24.2014 12.0083 23.8431C11.8945 23.6653 11.7799 23.4882 11.6648 23.3113C11.6324 23.2605 11.6001 23.2098 11.5668 23.1575C11.4822 23.0283 11.3911 22.9035 11.2991 22.7794C10.9781 22.7794 10.7265 23.0498 10.4736 23.2337ZM39.2413 22.9972C39.1389 23.0678 39.1389 23.0678 39.0345 23.1397C38.9613 23.1909 38.8881 23.242 38.8126 23.2946C38.7377 23.3464 38.6629 23.3981 38.5858 23.4514C38.4309 23.5586 38.276 23.6658 38.1213 23.7733C37.78 24.0101 37.4375 24.2451 37.0951 24.4803C36.9806 24.5591 36.8661 24.6379 36.7516 24.7168C36.5714 24.8404 36.3904 24.963 36.2086 25.0842C36.2086 25.1427 36.2086 25.2012 36.2086 25.2615C38.0163 25.4076 38.0163 25.4076 39.5727 24.6122C39.6161 24.5734 39.6596 24.5346 39.7044 24.4947C39.9438 24.2881 40.2045 24.1127 40.4636 23.9318C40.4198 23.8634 40.3761 23.7951 40.331 23.7247C40.2742 23.6358 40.2174 23.5469 40.1589 23.4553C40.1023 23.3669 40.0458 23.2784 39.9875 23.1873C39.8431 22.9567 39.8431 22.9567 39.7544 22.7794C39.5198 22.7794 39.4336 22.8637 39.2413 22.9972ZM5.98035 23.3113C5.90539 23.4959 5.83043 23.6806 5.7532 23.8708C5.71103 23.9747 5.66887 24.0786 5.62542 24.1856C5.50761 24.4621 5.50761 24.4621 5.62577 24.7296C5.79112 24.8198 5.79112 24.8198 5.98589 24.8792C6.05091 24.9015 6.11593 24.9237 6.18292 24.9467C6.23309 24.9628 6.28325 24.9789 6.33494 24.9955C6.36562 24.9169 6.36562 24.9169 6.39692 24.8366C6.58423 24.3828 6.76007 24.0754 7.13275 23.7545C6.75246 23.6082 6.37217 23.462 5.98035 23.3113ZM34.4357 23.3113C34.2602 23.7501 34.0847 24.1889 33.9038 24.6409C34.3426 24.8165 34.3426 24.8165 34.7903 24.9955C34.8232 24.8877 34.8561 24.7798 34.89 24.6686C35.0388 24.2641 35.2408 24.0901 35.5881 23.8431C35.3451 23.6812 35.1326 23.5828 34.8623 23.4775C34.7215 23.4226 34.5807 23.3678 34.4357 23.3113ZM24.5129 24.026C24.3017 24.2765 24.3017 24.2765 24.319 24.6022C24.4372 24.9633 24.5276 25.0832 24.8619 25.2615C25.2106 25.2686 25.3469 25.2137 25.6099 24.9844C25.774 24.7309 25.774 24.7309 25.7484 24.4083C25.6831 24.1119 25.6831 24.1119 25.5102 23.9373C25.1102 23.7535 24.8734 23.7729 24.5129 24.026ZM3.76421 26.6798C3.76421 27.6159 3.76421 28.552 3.76421 29.5165C5.05134 29.5165 6.33848 29.5165 7.66463 29.5165C7.57687 29.3995 7.48911 29.2824 7.39869 29.1619C7.33861 28.855 7.34358 28.5565 7.49288 28.2754C7.78529 28.1245 7.9596 28.1334 8.28515 28.1868C8.61203 28.4025 8.88803 28.6778 9.13612 28.98C9.44529 29.3333 9.66936 29.5594 10.1502 29.597C10.3153 29.5969 10.4804 29.5929 10.6453 29.5857C10.7767 29.5842 10.7767 29.5842 10.9106 29.5827C11.188 29.5787 11.465 29.5698 11.7423 29.5608C11.9313 29.5572 12.1202 29.554 12.3092 29.5511C12.7706 29.5439 13.2311 29.53 13.6925 29.5165C13.6925 28.5804 13.6925 27.6443 13.6925 26.6798C13.1075 26.6798 12.5224 26.6798 11.9196 26.6798C11.5642 27.2691 11.5642 27.2691 11.3878 27.9208C10.6771 28.0605 10.6771 28.0605 10.3628 27.8765C10.1317 27.4747 10.2155 27.1137 10.324 26.6798C9.21238 26.6798 8.10076 26.6798 6.95546 26.6798C6.75069 27.0601 6.54592 27.4404 6.33494 27.8322C6.069 28.0095 6.069 28.0095 5.7532 27.9873C5.44848 27.9208 5.44848 27.9208 5.27119 27.7436C5.252 27.347 5.26313 27.0666 5.35983 26.6798C4.83328 26.6798 4.30672 26.6798 3.76421 26.6798ZM17.9476 26.6798C17.9476 27.6159 17.9476 28.552 17.9476 29.5165C19.9075 29.5165 21.8675 29.5165 23.8868 29.5165C23.7991 29.2971 23.7991 29.2971 23.7095 29.0732C23.6698 28.7486 23.6674 28.603 23.8536 28.3308C24.1272 28.1436 24.2705 28.1325 24.596 28.1868C24.9506 28.5414 24.9506 28.5414 25.4825 29.5165C26.2723 29.5165 27.0621 29.5165 27.8759 29.5165C27.8759 28.5804 27.8759 27.6443 27.8759 26.6798C27.1923 26.6536 26.5106 26.6288 25.8269 26.6156C25.5085 26.6091 25.1906 26.6004 24.8724 26.5862C23.3768 26.4573 23.3768 26.4573 22.0395 26.9585C21.818 27.17 21.6393 27.3946 21.4617 27.6434C21.2718 27.9049 21.2391 27.9177 20.9 28.0085C20.6148 28.0095 20.4801 27.9986 20.2523 27.8322C20.1274 27.5822 20.1419 27.4005 20.1637 27.123C20.2515 26.9768 20.3392 26.8305 20.4296 26.6798C19.6105 26.6798 18.7915 26.6798 17.9476 26.6798ZM32.1309 26.6798C32.1309 27.6159 32.1309 28.552 32.1309 29.5165C32.6575 29.5604 32.6575 29.5604 33.1946 29.6051C33.4606 29.8711 33.4606 29.8711 33.4994 30.1758C33.4606 30.4916 33.4606 30.4916 33.3144 30.6858C33.0485 30.8904 32.9029 30.8907 32.5695 30.8912C32.4589 30.8922 32.3483 30.8932 32.2343 30.8943C32.1113 30.8936 31.9883 30.8929 31.8653 30.8922C31.7348 30.8927 31.6043 30.8934 31.4739 30.8942C31.1149 30.896 30.7559 30.8956 30.3968 30.8948C30.0099 30.8944 29.6229 30.896 29.2359 30.8973C28.5653 30.8994 27.8947 30.9002 27.2241 30.9001C26.2545 30.8999 25.2849 30.9017 24.3153 30.904C22.7423 30.9076 21.1693 30.9097 19.5962 30.9108C18.068 30.9118 16.5398 30.9136 15.0116 30.9164C14.9174 30.9166 14.8232 30.9168 14.7262 30.9169C14.2538 30.9178 13.7814 30.9187 13.309 30.9196C9.38867 30.9269 5.46837 30.9317 1.54806 30.9348C1.54806 31.4029 1.54806 31.8709 1.54806 32.3531C15.6481 32.3531 29.7481 32.3531 44.2754 32.3531C44.2754 31.8851 44.2754 31.417 44.2754 30.9348C44.1662 30.9339 44.0571 30.933 43.9446 30.932C42.9167 30.9234 41.8889 30.9143 40.861 30.9047C40.3326 30.8998 39.8041 30.8951 39.2757 30.8907C38.7659 30.8865 38.256 30.8819 37.7462 30.8769C37.5515 30.8751 37.3569 30.8735 37.1622 30.872C36.8899 30.8698 36.6176 30.8672 36.3453 30.8644C36.2645 30.8639 36.1837 30.8633 36.1005 30.8628C36.0262 30.8619 35.9518 30.8611 35.8753 30.8602C35.8109 30.8596 35.7465 30.859 35.6801 30.8585C35.4927 30.8457 35.3254 30.8085 35.1449 30.7575C35.0365 30.1074 35.0365 30.1074 35.1282 29.8323C35.2335 29.6938 35.2335 29.6938 35.4108 29.6051C35.5385 29.6009 35.6663 29.6023 35.794 29.6066C36.2385 29.6191 36.6827 29.6251 37.1274 29.6287C37.3192 29.6314 37.5109 29.6362 37.7026 29.6431C38.7252 29.728 38.7252 29.728 39.6446 29.3905C39.9171 29.0534 40.052 28.6791 40.1977 28.2754C40.468 28.1403 40.6978 28.1659 40.9955 28.1868C41.1672 28.2754 41.1672 28.2754 41.2614 28.4527C41.2869 28.8533 41.2704 29.1259 41.1728 29.5165C41.4653 29.5165 41.7578 29.5165 42.0592 29.5165C42.0592 28.5804 42.0592 27.6443 42.0592 26.6798C40.6573 26.4514 40.6573 26.4514 39.3421 26.8596C38.9565 27.3073 38.6833 27.8136 38.4408 28.3504C38.3361 28.5414 38.3361 28.5414 38.0702 28.7187C37.8697 28.7166 37.8697 28.7166 37.6546 28.6854C37.583 28.6756 37.5114 28.6658 37.4375 28.6556C37.383 28.6472 37.3285 28.6387 37.2724 28.63C37.1639 28.1713 37.149 27.9219 37.3832 27.5053C37.463 27.377 37.5443 27.2495 37.6269 27.123C37.7586 26.9036 37.7586 26.9036 37.8929 26.6798C37.103 26.6798 36.3132 26.6798 35.4994 26.6798C35.5287 26.7968 35.5579 26.9138 35.5881 27.0344C35.6183 27.3731 35.6318 27.5788 35.4607 27.8765C35.1167 28.0779 34.8152 27.9954 34.4357 27.9208C34.4138 27.8477 34.3918 27.7746 34.3692 27.6992C34.2436 27.3474 34.0709 27.0139 33.9038 26.6798C33.3188 26.6798 32.7337 26.6798 32.1309 26.6798Z" fill="black"/>
</g>
<defs>
<clipPath id="clip0_358_937">
<rect width="45.3867" height="45.3867" fill="white" transform="translate(0.21875 0.44043)"/>
</clipPath>
</defs>
</svg>
