<svg width="46" height="46" viewBox="0 0 46 46" fill="none" xmlns="http://www.w3.org/2000/svg">
<path d="M36.6832 11.3441C36.8695 11.353 37.0561 11.3561 37.2426 11.3567C37.3287 11.3571 37.3287 11.3571 37.4165 11.3576C37.5414 11.3583 37.6663 11.3587 37.7912 11.3591C37.9895 11.3597 38.1879 11.3611 38.3862 11.3627C38.9503 11.3674 39.5144 11.3716 40.0786 11.373C40.4236 11.3739 40.7687 11.3765 41.1138 11.3802C41.2446 11.3813 41.3755 11.3818 41.5064 11.3816C42.5504 11.3804 43.3761 11.5074 44.1568 12.2423C44.5639 12.6917 44.7604 13.1676 44.7618 13.7719C44.7622 13.8496 44.7626 13.9273 44.763 14.0074C44.763 14.1349 44.763 14.1349 44.763 14.2649C44.7633 14.3555 44.7636 14.4461 44.764 14.5395C44.765 14.844 44.7653 15.1485 44.7656 15.453C44.7662 15.671 44.7668 15.889 44.7674 16.1069C44.7691 16.7617 44.7701 17.4164 44.7708 18.0711C44.7712 18.3796 44.7717 18.6881 44.7722 18.9966C44.7737 20.0224 44.775 21.0481 44.7756 22.0739C44.7758 22.34 44.7759 22.6061 44.7761 22.8722C44.7762 22.9383 44.7762 23.0044 44.7762 23.0726C44.777 24.1437 44.7792 25.2148 44.7821 26.2858C44.785 27.386 44.7866 28.4862 44.7869 29.5864C44.7871 30.2039 44.7879 30.8214 44.7901 31.4389C44.7923 32.0199 44.7926 32.6009 44.7917 33.1819C44.7916 33.395 44.7922 33.6081 44.7934 33.8211C44.795 34.1124 44.7943 34.4036 44.7932 34.6948C44.7946 34.8208 44.7946 34.8208 44.7961 34.9494C44.7887 35.7161 44.5412 36.3442 44.0207 36.9122C43.3991 37.4627 42.7652 37.597 41.9555 37.5949C41.8887 37.5951 41.822 37.5953 41.7533 37.5955C41.5289 37.596 41.3046 37.5959 41.0803 37.5957C40.9181 37.596 40.756 37.5962 40.5938 37.5965C40.1476 37.5973 39.7014 37.5974 39.2552 37.5975C38.7742 37.5976 38.2932 37.5983 37.8122 37.5989C36.7601 37.6001 35.7081 37.6007 34.6561 37.601C33.9994 37.6013 33.3426 37.6017 32.6859 37.6021C30.868 37.6031 29.0501 37.6041 27.2321 37.6044C27.1158 37.6044 26.9994 37.6044 26.8795 37.6044C26.7629 37.6044 26.6462 37.6045 26.5261 37.6045C26.2897 37.6045 26.0533 37.6046 25.8169 37.6046C25.7583 37.6046 25.6997 37.6046 25.6394 37.6046C23.798 37.6049 21.9567 37.6062 20.1154 37.6082C18.0468 37.6105 15.9781 37.6118 13.9095 37.6119C12.8142 37.612 11.7189 37.6125 10.6236 37.6141C9.69096 37.6155 8.75838 37.6159 7.82579 37.6152C7.34992 37.6149 6.87407 37.6149 6.3982 37.6162C5.9625 37.6173 5.52682 37.6172 5.09112 37.6161C4.93358 37.616 4.77603 37.6162 4.61849 37.617C3.51736 37.6221 2.60255 37.5759 1.75668 36.7855C1.20063 36.1589 1.1098 35.5428 1.11186 34.727C1.1114 34.636 1.11093 34.5449 1.11046 34.4511C1.10913 34.1461 1.10906 33.8411 1.109 33.5361C1.10833 33.3174 1.10758 33.0987 1.10677 32.88C1.10482 32.2858 1.10404 31.6917 1.10359 31.0975C1.1033 30.7262 1.10272 30.355 1.10208 29.9837C1.10035 28.955 1.0989 27.9262 1.09864 26.8975C1.09862 26.8317 1.0986 26.7659 1.09859 26.6981C1.09856 26.5648 1.09852 26.4314 1.09849 26.2981C1.09847 26.2319 1.09846 26.1657 1.09844 26.0975C1.09843 26.0312 1.09841 25.965 1.09839 25.8967C1.09808 24.8231 1.09568 23.7495 1.09237 22.6759C1.08899 21.5726 1.08728 20.4693 1.08725 19.366C1.0872 18.7469 1.08645 18.1279 1.08388 17.5088C1.08148 16.9265 1.08137 16.3441 1.08279 15.7617C1.08295 15.5482 1.08235 15.3348 1.08094 15.1213C1.07913 14.8293 1.08007 14.5374 1.08167 14.2454C1.0805 14.1614 1.07933 14.0775 1.07812 13.9909C1.08667 13.3078 1.28803 12.7361 1.74612 12.22C2.33949 11.6433 3.05296 11.3924 3.87178 11.3929C3.95506 11.3947 4.03835 11.3965 4.12415 11.3984C4.25969 11.3992 4.25969 11.3992 4.39796 11.4C4.59259 11.4012 4.78722 11.4032 4.98184 11.4059C5.2905 11.41 5.59906 11.4113 5.90774 11.4118C6.78477 11.4137 7.66173 11.4189 8.5387 11.4294C9.07659 11.4356 9.61436 11.4375 10.1523 11.4368C10.3564 11.4373 10.5606 11.4395 10.7647 11.4434C11.8785 11.517 11.8785 11.517 12.8887 11.1484C13.1081 10.9294 13.2812 10.7112 13.4579 10.4576C18.3024 6.22458 31.5798 8.79243 36.6832 11.3441ZM13.4735 12.0889C12.7986 12.8948 12.3444 13.7264 12.3668 14.793C12.441 15.5365 12.7945 16.185 13.3693 16.6629C14.1093 17.2263 15.0401 17.3065 15.9293 17.4648C16.1125 17.4985 16.2956 17.5324 16.4787 17.5663C16.8802 17.6405 17.2819 17.7137 17.6837 17.7863C18.3002 17.8977 18.9165 18.0109 19.5326 18.1245C21.0439 18.4031 22.5557 18.6786 24.0676 18.9535C24.2686 18.9901 24.4696 19.0266 24.6706 19.0632C25.0096 19.1248 25.3487 19.1865 25.6877 19.2481C25.8906 19.285 26.0935 19.322 26.2964 19.3589C26.431 19.3833 26.5655 19.4078 26.7 19.4323C26.7664 19.4443 26.8327 19.4564 26.901 19.4688C27.233 19.5292 27.565 19.5895 27.897 19.6499C29.4034 19.9236 30.9093 20.1989 32.4145 20.4791C32.8654 20.5629 33.3165 20.6461 33.7676 20.7293C34.1586 20.8014 34.5494 20.8746 34.94 20.9487C35.2251 21.0025 35.5106 21.0546 35.796 21.1069C35.94 21.1349 35.94 21.1349 36.0869 21.1634C37.0631 21.339 37.8763 21.2838 38.722 20.7406C39.1191 20.4613 39.4972 20.1595 39.8744 19.8541C39.9359 19.8065 39.9974 19.7588 40.0607 19.7097C40.8359 19.0885 41.5346 18.1998 41.6716 17.194C41.7048 16.5012 41.4602 15.999 41.0241 15.4689C36.8431 11.0649 29.1622 9.97488 23.3811 9.81646C18.0095 9.66798 18.0095 9.66798 13.4735 12.0889ZM2.57666 13.0949C2.18573 13.6595 2.17408 14.2024 2.1774 14.8676C2.17712 14.953 2.17685 15.0385 2.17656 15.1265C2.17586 15.4121 2.17642 15.6976 2.17697 15.9831C2.17673 16.1882 2.17642 16.3932 2.17603 16.5983C2.17522 17.1547 2.17554 17.7111 2.1761 18.2675C2.17655 18.8499 2.17613 19.4324 2.17585 20.0149C2.17548 21.0557 2.17606 22.0966 2.17696 23.1375C2.17775 24.0804 2.17762 25.0234 2.1768 25.9663C2.17585 27.0623 2.1755 28.1582 2.17602 29.2541C2.1763 29.8339 2.17634 30.4137 2.17575 30.9935C2.17524 31.5387 2.1756 32.0839 2.17662 32.6291C2.17685 32.8291 2.17679 33.029 2.17639 33.229C2.17591 33.5022 2.17652 33.7754 2.1774 34.0486C2.17701 34.1275 2.17661 34.2064 2.1762 34.2877C2.17983 34.868 2.21083 35.4496 2.57666 35.9267C3.01884 36.3589 3.42241 36.4705 4.02794 36.4646C4.09452 36.465 4.1611 36.4654 4.2297 36.4659C4.45301 36.4669 4.67627 36.4661 4.89958 36.4653C5.06121 36.4656 5.22284 36.4661 5.38447 36.4667C5.82881 36.468 6.27313 36.4676 6.71747 36.467C7.1966 36.4665 7.67573 36.4677 8.15486 36.4686C9.09357 36.4701 10.0323 36.4702 10.971 36.4697C11.7338 36.4693 12.4966 36.4695 13.2595 36.4699C13.368 36.47 13.4765 36.4701 13.5882 36.4701C13.8086 36.4703 14.029 36.4704 14.2494 36.4705C16.317 36.4718 18.3846 36.4713 20.4522 36.4703C22.3445 36.4694 24.2369 36.4705 26.1292 36.4727C28.0715 36.4748 30.0137 36.4757 31.9559 36.4751C33.0467 36.4748 34.1374 36.475 35.2282 36.4765C36.1567 36.4778 37.0852 36.4779 38.0137 36.4763C38.4876 36.4756 38.9614 36.4754 39.4353 36.4767C39.869 36.478 40.3026 36.4776 40.7363 36.4758C40.8933 36.4755 41.0503 36.4758 41.2073 36.4767C41.4206 36.4779 41.6337 36.4768 41.847 36.4753C41.9081 36.4761 41.9692 36.477 42.0321 36.4779C42.5902 36.4695 42.9621 36.2634 43.3593 35.8769C43.7064 35.3112 43.712 34.6968 43.7087 34.0526C43.709 33.9674 43.7093 33.8822 43.7095 33.7945C43.7103 33.5104 43.7097 33.2264 43.7091 32.9424C43.7094 32.7382 43.7097 32.534 43.7101 32.3298C43.7109 31.7761 43.7106 31.2225 43.71 30.6688C43.7096 30.0891 43.71 29.5094 43.7103 28.9296C43.7106 27.8938 43.7101 26.8579 43.7091 25.8221C43.7084 24.8837 43.7085 23.9453 43.7093 23.007C43.7103 21.9161 43.7106 20.8253 43.7101 19.7344C43.7098 19.1574 43.7098 18.5804 43.7104 18.0034C43.7109 17.4609 43.7105 16.9184 43.7095 16.3759C43.7093 16.1769 43.7093 15.978 43.7097 15.779C43.7102 15.5071 43.7096 15.2353 43.7087 14.9635C43.7091 14.885 43.7095 14.8065 43.7099 14.7256C43.7062 14.1321 43.6775 13.5003 43.2596 13.0395C43.217 12.9903 43.1743 12.9412 43.1304 12.8906C42.7136 12.5424 42.2686 12.5612 41.7536 12.5678C41.6795 12.5681 41.6054 12.5683 41.529 12.5686C41.2932 12.5696 41.0575 12.5718 40.8218 12.5741C40.6616 12.575 40.5013 12.5758 40.341 12.5765C39.9491 12.5784 39.5572 12.5815 39.1653 12.5851C39.4483 12.814 39.7349 13.03 40.0347 13.2365C41.2554 14.0818 42.374 14.972 42.7111 16.4856C42.7462 16.8074 42.7505 17.1257 42.7495 17.4492C42.75 17.5382 42.7505 17.6271 42.7509 17.7187C42.7515 17.9054 42.7514 18.0922 42.7506 18.2789C42.7499 18.5622 42.7524 18.8453 42.7552 19.1285C42.7554 19.3112 42.7553 19.4938 42.7551 19.6765C42.7561 19.7598 42.7571 19.8431 42.7581 19.929C42.7478 20.9247 42.3979 21.6936 41.736 22.4248C41.6666 22.5024 41.5973 22.58 41.5258 22.66C40.5509 23.6928 39.397 24.352 38.1015 24.9069C38.2316 25.2557 38.3947 25.5712 38.5776 25.8952C38.6364 26 38.6952 26.1048 38.7541 26.2096C38.846 26.3726 38.938 26.5356 39.0301 26.6985C39.1196 26.8572 39.2087 27.0161 39.2979 27.175C39.3511 27.2692 39.4043 27.3634 39.459 27.4605C39.8268 28.1572 40.0111 28.7537 39.8266 29.5439C39.6386 30.0903 39.3829 30.4402 38.865 30.7113C38.3512 30.9615 37.8423 31.071 37.2825 31.1709C37.1777 31.1907 37.073 31.2105 36.965 31.2309C36.6806 31.2845 36.396 31.3368 36.1113 31.3886C35.812 31.4433 35.513 31.4995 35.2141 31.5556C34.6485 31.6614 34.0828 31.7659 33.517 31.8698C32.8744 31.9879 32.2321 32.1077 31.5899 32.2275C30.5907 32.4138 29.5913 32.5993 28.5917 32.7835C28.4939 32.8016 28.3961 32.8196 28.2953 32.8382C26.6134 33.1476 25.0108 33.3059 23.4999 32.3321C22.9167 31.8817 22.5123 31.2997 22.1452 30.6689C21.7109 30.8003 21.323 30.981 20.9208 31.1869C20.8559 31.2197 20.7911 31.2525 20.7242 31.2863C20.5181 31.3904 20.3122 31.495 20.1064 31.5997C19.8351 31.7377 19.5636 31.8752 19.292 32.0125C19.2304 32.0439 19.1689 32.0754 19.1056 32.1079C18.2554 32.5372 17.4275 32.6847 16.4792 32.4727C15.9363 32.2765 15.5475 31.9583 15.1422 31.5554C15.0692 31.4836 14.9962 31.4119 14.9209 31.3379C14.7273 31.1458 14.5356 30.9521 14.3444 30.7576C13.5793 31.0449 12.8271 31.353 12.0798 31.6838C11.8731 31.7745 11.6663 31.8652 11.4596 31.9558C11.1389 32.0968 10.8183 32.2379 10.498 32.3795C10.1852 32.5176 9.8721 32.6548 9.55891 32.7919C9.41636 32.8554 9.41636 32.8554 9.27092 32.9201C8.20326 33.3857 7.3455 33.562 6.21218 33.1898C5.72535 32.9752 5.40316 32.6421 5.03658 32.2645C4.94054 32.1729 4.84414 32.0816 4.74745 31.9906C3.79315 31.0831 3.00364 30.1027 2.87861 28.7416C2.83753 27.04 3.63124 25.8144 4.77065 24.6077C6.93519 22.5096 9.89339 20.9976 12.9261 20.9179C12.7102 20.7433 12.4978 20.5733 12.2668 20.4192C11.721 19.9134 11.3686 19.2084 11.3126 18.4652C11.3041 18.1807 11.3012 17.8967 11.3007 17.612C11.2998 17.4548 11.2998 17.4548 11.2989 17.2944C11.298 17.073 11.2976 16.8516 11.2976 16.6303C11.2972 16.2943 11.294 15.9584 11.2906 15.6225C11.2901 15.4066 11.2897 15.1907 11.2896 14.9748C11.2883 14.8756 11.287 14.7764 11.2857 14.6741C11.2893 14.0556 11.3905 13.5514 11.6089 12.9721C11.6951 12.7718 11.6951 12.7718 11.685 12.5851C10.6078 12.579 9.53051 12.5743 8.45323 12.5714C7.953 12.57 7.45278 12.5681 6.95256 12.5651C6.46975 12.5622 5.98695 12.5606 5.50414 12.5599C5.32 12.5594 5.13586 12.5585 4.95173 12.557C4.69368 12.5551 4.43567 12.5548 4.17761 12.555C4.1016 12.554 4.0256 12.553 3.94729 12.5521C3.36664 12.5551 2.99854 12.673 2.57666 13.0949ZM12.3942 17.372C12.3495 18.176 12.3482 18.8388 12.8793 19.4798C13.5058 20.0856 14.4497 20.1713 15.2738 20.3205C15.3677 20.3379 15.4616 20.3552 15.5583 20.3731C15.7553 20.4093 15.9522 20.4452 16.1492 20.481C16.4503 20.5357 16.7511 20.5914 17.0519 20.6473C17.2441 20.6825 17.4363 20.7176 17.6285 20.7527C17.7179 20.7693 17.8074 20.7859 17.8996 20.803C18.7227 20.9543 18.7227 20.9543 19.5305 20.7884C19.6029 20.7612 19.6753 20.7341 19.7498 20.7061C19.8254 20.6773 19.901 20.6484 19.979 20.6187C21.6893 19.9984 23.405 19.9338 25.0818 20.7153C25.7382 21.0354 26.3554 21.3753 26.7928 21.9791C27.2294 22.5684 27.6921 22.6802 28.392 22.8154C28.4979 22.838 28.6037 22.8607 28.7128 22.8839C29.0496 22.9551 29.3869 23.0224 29.7245 23.0897C29.9513 23.1375 30.1781 23.1855 30.4049 23.2337C30.6222 23.2792 30.8395 23.3244 31.0569 23.3695C31.1584 23.3905 31.2599 23.4116 31.3645 23.4332C32.0184 23.5633 32.5984 23.6273 33.2589 23.4997C33.3457 23.4836 33.4325 23.4676 33.5219 23.451C33.6125 23.4342 33.7032 23.4173 33.7966 23.3999C36.1808 22.984 36.1808 22.984 37.0378 23.5772C37.2594 23.7767 37.2594 23.7767 37.3923 23.9318C38.6987 23.6429 39.6569 22.8975 40.5836 21.9816C40.6881 21.8867 40.6881 21.8867 40.7948 21.7898C41.2563 21.3623 41.6038 20.9105 41.6681 20.2665C41.6693 20.0994 41.6595 19.9322 41.6473 19.7655C41.2329 20.1163 41.2329 20.1163 40.8319 20.4823C39.7171 21.5325 38.4529 22.3515 36.8782 22.3447C36.549 22.3304 36.2307 22.2709 35.9073 22.21C35.8321 22.1964 35.7568 22.1827 35.6793 22.1687C35.4272 22.1229 35.1753 22.0761 34.9234 22.0294C34.7402 21.9959 34.5569 21.9624 34.3737 21.9291C33.8712 21.8373 33.3689 21.7448 32.8666 21.6521C32.3337 21.5539 31.8008 21.4563 31.2679 21.3587C30.5788 21.2324 29.8898 21.106 29.2009 20.9793C27.5258 20.6714 25.8502 20.3666 24.1743 20.063C23.2394 19.8937 22.3046 19.7238 21.3699 19.5538C20.663 19.4252 19.956 19.297 19.2489 19.1693C18.6418 19.0597 18.0347 18.9495 17.4278 18.8386C17.1157 18.7816 16.8035 18.7249 16.4912 18.6688C16.1493 18.6075 15.8076 18.5449 15.4659 18.4822C15.3674 18.4647 15.2688 18.4472 15.1672 18.4292C14.3377 18.2752 13.4872 18.0793 12.7709 17.6158C12.6983 17.5696 12.6256 17.5235 12.5507 17.4759C12.4991 17.4416 12.4474 17.4073 12.3942 17.372ZM14.994 25.1663C14.4024 25.8652 13.8675 26.6397 13.9105 27.5971C13.931 27.765 13.9596 27.9318 13.9898 28.0982C14.0905 27.8977 14.1894 27.6968 14.2859 27.4943C15.9195 24.235 20.0261 22.6286 23.209 21.3611C23.209 21.3318 23.209 21.3026 23.209 21.2724C20.3597 20.5601 16.7936 23.1957 14.994 25.1663ZM15.1422 21.4497C15.5655 21.8292 16.0607 22.0736 16.5606 22.3362C16.9116 22.1168 16.9116 22.1168 17.2697 21.893C16.9441 21.6759 16.6339 21.6338 16.2558 21.5716C16.1881 21.5597 16.1204 21.5479 16.0507 21.5356C15.7385 21.4824 15.4613 21.4497 15.1422 21.4497ZM23.7852 22.3085C23.692 22.3437 23.5989 22.3789 23.5029 22.4152C20.7486 23.4786 16.5517 25.1406 15.2229 28.0504C15.015 28.6303 14.9878 29.1725 15.2125 29.7503C15.593 30.4953 16.0963 31.1938 16.9151 31.4667C17.5954 31.5462 18.0685 31.3951 18.6659 31.0834C18.7513 31.0407 18.8367 30.9981 18.9247 30.9541C19.1198 30.8565 19.3146 30.7582 19.5091 30.6592C19.8746 30.4737 20.2423 30.2929 20.6102 30.1122C21.2549 29.7954 21.8985 29.4766 22.5414 29.1562C22.9149 28.9702 23.2886 28.7845 23.6628 28.5996C24.0311 28.4176 24.3989 28.2348 24.7665 28.0513C24.9049 27.9825 25.0434 27.9139 25.1821 27.8456C26.5046 27.2063 26.5046 27.2063 27.3754 26.0593C27.5594 25.4529 27.5387 24.8172 27.2573 24.2473C26.9455 23.7691 26.5567 23.3493 26.1752 22.9262C26.0484 22.7825 25.9277 22.6352 25.8074 22.4861C25.5793 22.2207 25.3958 22.1062 25.0706 21.9816C24.5943 21.9816 24.2273 22.1413 23.7852 22.3085ZM5.47981 25.5275C5.42439 25.5761 5.36897 25.6248 5.31187 25.675C4.61735 26.3115 4.01579 27.2413 3.95552 28.1948C3.95758 28.2781 3.95963 28.3614 3.96175 28.4472C3.96335 28.5321 3.96495 28.617 3.9666 28.7045C3.96969 28.7993 3.96969 28.7993 3.97283 28.896C4.19729 28.6715 4.27975 28.4433 4.41052 28.1536C4.74425 27.4561 5.19584 26.9501 5.74575 26.4139C5.81603 26.3439 5.8863 26.2738 5.95871 26.2016C7.82478 24.4287 10.4988 23.2215 12.8817 22.3438C13.1157 22.2704 13.1157 22.2704 13.192 22.0703C10.2332 21.9036 7.57242 23.5627 5.47981 25.5275ZM13.4912 23.2559C13.3942 23.2959 13.2971 23.3359 13.1972 23.3771C12.8991 23.501 12.6022 23.6272 12.3055 23.7545C12.2173 23.7924 12.129 23.8302 12.038 23.8692C10.1571 24.6834 8.39036 25.6306 6.8095 26.9458C6.7486 26.9926 6.68769 27.0395 6.62494 27.0878C5.89146 27.6751 5.21544 28.5555 5.09233 29.5041C5.07212 30.384 5.35591 31.0404 5.95351 31.6852C6.35272 32.0552 6.80045 32.3554 7.35826 32.3775C7.66973 32.3471 7.93898 32.2494 8.22818 32.1368C8.28931 32.1134 8.35043 32.09 8.41341 32.0659C9.24748 31.7416 10.0639 31.3753 10.8817 31.0124C11.0435 30.9409 11.2054 30.8695 11.3673 30.7981C12.0647 30.4903 12.7614 30.1808 13.4579 29.8711C13.3798 29.6236 13.2994 29.3809 13.193 29.1439C12.725 28.0888 12.7765 27.0657 13.1477 25.9873C13.5634 25.0169 14.289 24.199 15.0536 23.4886C15.1445 23.3985 15.2351 23.3081 15.325 23.2171C15.4101 23.1321 15.4101 23.1321 15.4968 23.0454C14.8393 22.607 14.1473 22.9793 13.4912 23.2559ZM28.3505 23.9318C28.409 24.1658 28.4675 24.3999 28.5277 24.641C28.6849 24.601 28.8418 24.5602 28.9987 24.5191C29.0861 24.4965 29.1735 24.4739 29.2636 24.4505C29.5189 24.3822 29.5189 24.3822 29.7688 24.1978C29.599 24.1529 29.4291 24.1087 29.2591 24.0648C29.1645 24.0401 29.0698 24.0154 28.9724 23.99C28.6929 23.9193 28.6929 23.9193 28.3505 23.9318ZM35.1222 24.2674C34.9494 24.2936 34.9494 24.2936 34.7731 24.3205C34.6489 24.3404 34.5247 24.3604 34.4005 24.3806C34.3373 24.3907 34.2742 24.4008 34.209 24.4112C33.1021 24.5891 32.0085 24.803 30.9263 25.0989C30.7378 25.1503 30.5489 25.2001 30.3597 25.2486C30.0632 25.3256 29.7693 25.4089 29.4752 25.4942C29.3402 25.5285 29.3402 25.5285 29.2025 25.5634C28.9404 25.6447 28.7476 25.7171 28.5277 25.882C28.3902 26.1475 28.3126 26.3938 28.2445 26.6845C28.086 27.265 27.6815 27.6874 27.1814 28.004C26.4858 28.3876 25.7657 28.7304 25.052 29.0789C24.8959 29.1505 24.8959 29.1505 24.8046 29.2506C24.7559 29.7805 24.8784 30.1267 25.1149 30.5858C25.1466 30.6483 25.1782 30.7108 25.2109 30.7752C25.5165 31.3472 25.8663 31.7024 26.4889 31.91C27.179 31.9604 27.8318 31.8667 28.5074 31.7352C28.6067 31.7166 28.706 31.698 28.8083 31.6788C29.1336 31.6176 29.4586 31.5552 29.7837 31.4927C30.0111 31.4496 30.2386 31.4065 30.466 31.3634C30.9415 31.2734 31.4167 31.1826 31.8919 31.0913C32.4397 30.9862 32.9876 30.8821 33.5357 30.7787C34.0654 30.6786 34.5949 30.5779 35.1244 30.4768C35.3487 30.434 35.573 30.3914 35.7974 30.349C36.111 30.2896 36.4245 30.2294 36.7379 30.169C36.83 30.1517 36.9221 30.1344 37.017 30.1166C37.9344 29.9584 37.9344 29.9584 38.6777 29.45C38.8292 29.1219 38.8815 28.8922 38.8107 28.5414C38.6535 28.18 38.4563 27.8447 38.2566 27.5054C38.1729 27.36 38.1729 27.36 38.0875 27.2117C37.9163 26.9154 37.743 26.6203 37.5696 26.3253C37.4673 26.1486 37.3651 25.9719 37.2628 25.7951C37.1695 25.6356 37.076 25.4762 36.9824 25.3169C36.9395 25.2432 36.8966 25.1696 36.8524 25.0937C36.8119 25.0259 36.7713 24.9581 36.7296 24.8882C36.6948 24.8295 36.66 24.7707 36.6241 24.7101C36.434 24.4564 36.2471 24.3166 35.9441 24.2211C35.6565 24.1927 35.408 24.2237 35.1222 24.2674ZM23.209 30.0484C23.3265 30.621 23.7049 30.9694 24.0955 31.3781C24.1247 31.3196 24.154 31.2611 24.1841 31.2008C24.1219 31.0199 24.1219 31.0199 24.0234 30.824C23.8773 30.5111 23.754 30.2018 23.6522 29.8711C23.4891 29.8711 23.3512 29.975 23.209 30.0484Z" fill="black"/>
</svg>
