<svg width="46" height="46" viewBox="0 0 46 46" fill="none" xmlns="http://www.w3.org/2000/svg">
<g clip-path="url(#clip0_358_941)">
<path d="M29.9047 9.94869C30.4228 10.3061 30.7541 10.7473 30.9532 11.3445C30.9593 11.5273 30.9607 11.7102 30.9588 11.893C30.958 11.9893 30.9572 12.0857 30.9563 12.1849C30.9548 12.2955 30.9548 12.2955 30.9532 12.4083C31.0647 12.4393 31.1763 12.4704 31.2912 12.5025C32.5867 12.937 33.4549 13.8731 34.0558 15.0676C34.1202 15.3692 34.1202 15.3692 34.1445 15.5995C34.1938 15.6008 34.2432 15.602 34.2941 15.6033C34.8433 15.6377 35.2281 15.7753 35.6514 16.1314C36.0598 16.6258 36.2135 17.1082 36.1556 17.7436C36.1233 18.0104 36.0758 18.2653 36.006 18.5248C36.0804 18.5413 36.0804 18.5413 36.1563 18.5581C37.2776 18.8465 38.4625 19.552 39.2146 20.4384C39.5275 20.7077 39.6817 20.7058 40.0896 20.7025C40.1494 20.703 40.2093 20.7035 40.2709 20.7041C40.4616 20.7055 40.6521 20.7041 40.8428 20.7022C42.1973 20.6915 43.4297 20.8699 44.4669 21.8276C45.251 22.6531 45.6964 23.5682 45.6951 24.7093C45.6957 24.8201 45.6957 24.8201 45.6963 24.9332C45.6968 25.089 45.6968 25.2449 45.6964 25.4007C45.6961 25.6367 45.6982 25.8726 45.7005 26.1086C45.7056 27.4472 45.5117 28.4492 44.5787 29.4743C43.7677 30.2518 42.7715 30.696 41.6406 30.6842C41.5162 30.6847 41.3917 30.6854 41.2673 30.6861C41.0741 30.6865 40.8811 30.6859 40.6879 30.683C39.9393 30.6508 39.9393 30.6508 39.2518 30.8886C39.0987 31.0438 38.9713 31.2029 38.8427 31.3785C38.1203 31.9937 37.3 32.3941 36.4493 32.7968C36.3908 32.8261 36.3322 32.8553 36.272 32.8855C36.2336 33.1669 36.2336 33.1669 36.2221 33.4949C36.1916 34.1018 36.1916 34.1018 36.0947 34.3925C36.2023 34.3919 36.31 34.3913 36.4209 34.3907C37.4357 34.3853 38.4504 34.3813 39.4652 34.3787C39.9869 34.3773 40.5085 34.3754 41.0302 34.3724C41.5337 34.3695 42.0372 34.3679 42.5407 34.3672C42.7328 34.3667 42.9248 34.3658 43.1169 34.3643C43.386 34.3624 43.655 34.3621 43.9241 34.3623C44.0431 34.3608 44.0431 34.3608 44.1645 34.3594C44.7198 34.3621 45.0888 34.4663 45.5214 34.8355C45.7455 35.2411 45.7191 35.6233 45.7155 36.0795C45.7159 36.1742 45.7162 36.269 45.7166 36.3666C45.7168 36.5666 45.7161 36.7665 45.7147 36.9665C45.7128 37.2724 45.7146 37.5781 45.7169 37.8839C45.7167 38.0784 45.7162 38.2729 45.7155 38.4674C45.7162 38.5587 45.717 38.6501 45.7177 38.7442C45.7094 39.3772 45.7094 39.3772 45.5048 39.7169C45.0814 40.0973 44.7262 40.166 44.1719 40.1645C44.0885 40.1645 44.0051 40.1645 43.9192 40.1645C43.8304 40.164 43.7415 40.1636 43.65 40.1631C43.5122 40.1629 43.5122 40.1629 43.3717 40.1627C43.079 40.1622 42.7864 40.1611 42.4938 40.16C42.2951 40.1595 42.0964 40.1591 41.8977 40.1588C41.4112 40.1578 40.9248 40.1563 40.4383 40.1544C40.4402 40.2054 40.442 40.2563 40.444 40.3087C40.4514 40.5417 40.4559 40.7746 40.4605 41.0077C40.4635 41.0878 40.4664 41.1679 40.4695 41.2504C40.4769 41.7594 40.4335 42.0604 40.0837 42.4592C39.7398 42.6885 39.4531 42.6621 39.0541 42.6609C38.9761 42.6613 38.8981 42.6618 38.8178 42.6622C38.5594 42.6635 38.3011 42.6634 38.0428 42.6632C37.8634 42.6635 37.684 42.6639 37.5046 42.6643C37.1282 42.665 36.7519 42.665 36.3756 42.6645C35.8934 42.664 35.4112 42.6655 34.929 42.6675C34.5583 42.6689 34.1877 42.6689 33.817 42.6687C33.6392 42.6687 33.4615 42.6692 33.2837 42.6701C33.035 42.6712 32.7863 42.6706 32.5376 42.6695C32.4642 42.6702 32.3908 42.6709 32.3151 42.6716C31.91 42.6679 31.6266 42.6474 31.3078 42.3706C31.0419 41.8387 31.0419 41.8387 31.0419 40.1544C25.7178 40.1544 20.3937 40.1544 14.9083 40.1544C14.9083 40.7102 14.9083 41.2661 14.9083 41.8387C14.5873 42.4807 14.5873 42.4807 14.1991 42.6365C13.9374 42.6732 13.6793 42.6738 13.4153 42.6723C13.2983 42.6733 13.2983 42.6733 13.1789 42.6742C12.9215 42.6758 12.6642 42.6755 12.4068 42.675C12.2277 42.6754 12.0485 42.6758 11.8693 42.6764C11.4941 42.6772 11.1188 42.6769 10.7435 42.6761C10.2627 42.675 9.78195 42.6768 9.30112 42.6794C8.93123 42.681 8.56134 42.681 8.19144 42.6805C8.01416 42.6805 7.83688 42.681 7.6596 42.6821C7.41175 42.6835 7.164 42.6825 6.91614 42.681C6.843 42.6819 6.76986 42.6827 6.69451 42.6836C6.35104 42.6792 6.17247 42.6609 5.87283 42.4786C5.57445 42.1592 5.48894 41.9403 5.49452 41.5049C5.49509 41.4261 5.49566 41.3472 5.49625 41.266C5.49774 41.1844 5.49922 41.1028 5.50075 41.0187C5.50155 40.9358 5.50235 40.8528 5.50318 40.7673C5.50526 40.563 5.50817 40.3587 5.51183 40.1544C5.46082 40.1548 5.4098 40.1552 5.35724 40.1556C4.82516 40.1596 4.29308 40.1622 3.76099 40.1642C3.56254 40.1651 3.3641 40.1663 3.16566 40.1678C2.88004 40.17 2.59443 40.171 2.30881 40.1718C2.17622 40.1731 2.17622 40.1731 2.04096 40.1745C1.45784 40.1746 1.01366 40.1594 0.564282 39.75C0.50029 39.6787 0.436299 39.6074 0.370369 39.5339C0.341116 39.5047 0.311862 39.4754 0.281723 39.4453C0.27116 39.3121 0.266646 39.1785 0.264626 39.0449C0.263202 38.9597 0.261778 38.8744 0.260311 38.7866C0.256378 38.3951 0.252728 38.0035 0.250688 37.612C0.249222 37.4055 0.246805 37.1991 0.243416 36.9927C0.238557 36.6953 0.236621 36.398 0.235322 36.1006C0.233313 36.0086 0.231303 35.9166 0.229233 35.8219C0.231322 35.1054 0.231322 35.1054 0.494053 34.7808C0.975473 34.3407 1.41529 34.3693 2.03802 34.3814C2.11635 34.3822 2.19468 34.383 2.27539 34.3838C2.46776 34.3859 2.66011 34.3891 2.85245 34.3925C2.92603 33.3435 2.92603 33.3435 2.60522 32.3886C2.3993 32.2396 2.18928 32.12 1.966 31.999C1.03011 31.2314 0.384504 30.0751 0.260514 28.8671C0.244813 28.6421 0.236506 28.4183 0.231859 28.1928C0.229467 28.1214 0.227074 28.05 0.224609 27.9765C0.226966 27.6184 0.256136 27.3726 0.478752 27.0844C0.838414 26.753 1.14114 26.6583 1.62511 26.6571C1.76025 26.6562 1.76025 26.6562 1.89812 26.6552C2.04492 26.6556 2.04492 26.6556 2.19469 26.6559C2.29852 26.6555 2.40234 26.655 2.50932 26.6545C2.85259 26.6533 3.19584 26.6534 3.53911 26.6536C3.71739 26.6534 3.89567 26.6531 4.07394 26.6528C4.63433 26.6518 5.19472 26.6517 5.75511 26.6523C6.33253 26.6528 6.90993 26.6517 7.48734 26.6498C7.98377 26.6483 8.4802 26.6477 8.97663 26.648C9.27283 26.6482 9.56901 26.6478 9.86521 26.6467C10.1956 26.6456 10.526 26.6462 10.8564 26.6473C10.9541 26.6466 11.0517 26.6459 11.1524 26.6452C11.6423 26.6486 12.0069 26.6624 12.4262 26.9462C12.739 27.2843 12.8686 27.5062 12.8712 27.9736C12.8171 29.3504 12.4534 30.6157 11.5266 31.6763C11.3625 31.8217 11.3625 31.8217 11.1152 31.9672C10.8285 32.1375 10.6101 32.2813 10.3874 32.5309C10.3013 32.9053 10.2837 33.2389 10.2925 33.6206C10.2987 33.9492 10.2987 33.9492 10.2101 34.3925C13.779 34.3925 17.3478 34.3925 21.0249 34.3925C20.9956 34.2754 20.9664 34.1584 20.9362 34.0379C20.9302 33.8237 20.9287 33.6094 20.9307 33.3952C20.9315 33.2832 20.9323 33.1712 20.9331 33.0558C20.9346 32.9276 20.9346 32.9276 20.9362 32.7968C20.86 32.7879 20.7838 32.779 20.7053 32.7698C19.8574 32.5961 19.1044 32.0169 18.4541 31.4671C18.3689 31.3996 18.2836 31.3321 18.1958 31.2625C17.9064 31.0205 17.6723 30.7497 17.4402 30.4532C17.3768 30.3729 17.3768 30.3729 17.312 30.291C17.029 29.9209 16.8141 29.5464 16.6203 29.1236C16.4031 28.6593 16.2029 28.3857 15.8017 28.074C15.1136 27.5036 14.6043 26.6616 14.0803 25.9434C13.7341 25.4696 13.3805 25.0025 13.0216 24.5382C11.5952 22.6896 10.4404 20.7294 10.5304 18.3101C10.5938 17.8875 10.7754 17.6608 11.1052 17.406C11.4552 17.2397 11.7542 17.244 12.1371 17.2454C12.2115 17.2449 12.2859 17.2444 12.3626 17.2439C12.5197 17.2434 12.6769 17.2435 12.834 17.2442C13.0728 17.245 13.3113 17.2425 13.55 17.2396C13.7033 17.2395 13.8565 17.2395 14.0097 17.2398C14.0803 17.2388 14.1509 17.2378 14.2236 17.2368C14.9707 17.246 15.4668 17.5359 15.9876 18.057C16.0382 18.1094 16.0889 18.1619 16.141 18.216C16.1951 18.2705 16.2492 18.3251 16.3049 18.3814C16.4755 18.554 16.6449 18.7277 16.8142 18.9016C16.9305 19.0196 17.0468 19.1376 17.1632 19.2555C17.4467 19.5429 17.7291 19.8314 18.0109 20.1205C18.3225 20.0014 18.5411 19.886 18.7921 19.6661C19.1655 19.3664 19.5569 19.148 19.9833 18.9348C20.044 18.9042 20.1048 18.8735 20.1674 18.842C20.4811 18.6889 20.7638 18.5723 21.1135 18.5248C21.0997 18.4765 21.0859 18.4282 21.0716 18.3784C20.9115 17.7579 20.8703 17.1879 21.1689 16.6023C21.4626 16.143 21.9082 15.7367 22.4432 15.5995C22.7368 15.5884 22.7368 15.5884 22.9751 15.5995C22.9851 15.5359 22.9952 15.4722 23.0056 15.4066C23.2424 14.3874 24.0314 13.5125 24.881 12.9457C25.2969 12.6969 25.7003 12.5381 26.1663 12.4083C26.1617 12.315 26.1617 12.315 26.157 12.2199C26.1343 11.4242 26.2512 10.8443 26.7976 10.2458C27.7079 9.46791 28.8758 9.35467 29.9047 9.94869ZM28.0611 11.1506C27.9826 11.1953 27.9826 11.1953 27.9025 11.241C27.7352 11.3519 27.7352 11.3519 27.5847 11.6105C27.5847 11.786 27.5847 11.9615 27.5847 12.1423C28.2282 12.1423 28.8718 12.1423 29.5349 12.1423C29.591 11.6266 29.591 11.6266 29.3354 11.3667C28.9132 11.0212 28.5719 10.8502 28.0611 11.1506ZM24.7844 14.9766C24.6275 15.1877 24.6275 15.1877 24.4821 15.5995C27.1733 15.5995 29.8646 15.5995 32.6375 15.5995C32.192 14.7085 31.6168 14.0994 30.6645 13.7541C29.967 13.5369 29.2973 13.5179 28.5709 13.5219C28.4017 13.5192 28.4017 13.5192 28.2291 13.5165C26.8263 13.5172 25.7082 13.9086 24.7844 14.9766ZM22.4432 17.2838C22.3513 17.503 22.342 17.5995 22.4155 17.8267C22.5573 18.0293 22.6577 18.0788 22.8864 18.1702C23.1108 18.197 23.1108 18.197 23.3569 18.1934C23.4522 18.194 23.5475 18.1946 23.6457 18.1953C23.7498 18.195 23.854 18.1948 23.9612 18.1946C24.1263 18.1953 24.1263 18.1953 24.2946 18.196C24.5961 18.197 24.8975 18.1972 25.199 18.197C25.4508 18.1969 25.7026 18.1973 25.9544 18.1977C26.5485 18.1987 27.1426 18.1988 27.7367 18.1982C28.3493 18.1977 28.9619 18.1988 29.5745 18.2007C30.1007 18.2022 30.627 18.2028 31.1532 18.2025C31.4674 18.2023 31.7815 18.2026 32.0957 18.2038C32.4461 18.2051 32.7965 18.2043 33.1468 18.2033C33.3028 18.2043 33.3028 18.2043 33.4618 18.2053C33.5574 18.2047 33.653 18.2041 33.7514 18.2034C33.8756 18.2034 33.8756 18.2034 34.0024 18.2035C34.282 18.1632 34.4492 18.0701 34.6763 17.9043C34.7873 17.6968 34.7873 17.6968 34.765 17.4611C34.6665 17.2072 34.6665 17.2072 34.4104 17.0179C34.0414 16.9492 33.6745 16.9592 33.3002 16.9633C33.1865 16.9628 33.0727 16.9623 32.9555 16.9618C32.6438 16.9606 32.3321 16.9621 32.0204 16.9642C31.6942 16.9659 31.368 16.9654 31.0419 16.9652C30.4942 16.9652 29.9466 16.967 29.3989 16.9698C28.7656 16.9731 28.1322 16.9739 27.4989 16.9732C26.8897 16.9727 26.2806 16.9736 25.6714 16.9754C25.4121 16.9761 25.1528 16.9763 24.8934 16.9762C24.5316 16.9761 24.1697 16.9782 23.8078 16.9806C23.6999 16.9804 23.592 16.9801 23.4809 16.9798C23.3826 16.9808 23.2843 16.9819 23.183 16.9829C23.0974 16.9832 23.0118 16.9836 22.9236 16.9839C22.672 17.0237 22.5956 17.0838 22.4432 17.2838ZM11.983 18.7021C12.2276 21.0585 13.3593 22.6007 14.7645 24.4311C15.0226 24.7674 15.2784 25.1034 15.5215 25.4506C15.6129 25.5766 15.6129 25.5766 15.7061 25.7052C15.7354 25.7052 15.7646 25.7052 15.7948 25.7052C15.8098 25.5895 15.8249 25.4739 15.8405 25.3547C16.0127 24.0884 16.3087 23.0279 16.9039 21.8961C17.0126 21.6746 17.0912 21.5139 17.1244 21.2729C16.978 21.0544 16.835 20.8708 16.6611 20.6759C16.6109 20.6192 16.5606 20.5625 16.5088 20.5041C16.3435 20.3219 16.1752 20.1432 16.0053 19.9653C15.9483 19.9053 15.8914 19.8454 15.8327 19.7836C15.1769 19.1096 14.6011 18.575 13.6303 18.5232C13.0752 18.5199 12.5256 18.5887 11.983 18.7021ZM20.6703 20.1648C20.6113 20.1952 20.5522 20.2256 20.4914 20.257C18.9463 21.0899 17.893 22.4636 17.3876 24.1483C17.0192 25.6765 17.1876 27.233 17.9223 28.6305C18.1408 28.971 18.3794 29.2893 18.6314 29.6056C18.6742 29.6629 18.7169 29.7203 18.7609 29.7794C19.655 30.9215 21.1355 31.5703 22.5318 31.8217C22.9525 31.8605 23.3697 31.8699 23.7917 31.8675C23.99 31.8664 24.1883 31.8674 24.3866 31.8689C24.7353 31.8713 25.084 31.8718 25.4327 31.8717C25.9937 31.8715 26.5547 31.8727 27.1157 31.8766C27.3104 31.8775 27.505 31.8767 27.6997 31.8758C27.8191 31.8764 27.9384 31.877 28.0577 31.8777C28.1614 31.8776 28.265 31.8775 28.3719 31.8774C28.6792 31.914 28.8464 31.9902 29.0916 32.1763C29.1993 32.449 29.1914 32.5821 29.1083 32.8633C29.003 33.0628 29.003 33.0628 28.8257 33.1514C28.6211 33.1596 28.4163 33.1618 28.2115 33.1615C28.1168 33.1615 28.1168 33.1615 28.0202 33.1615C27.8111 33.1615 27.602 33.1608 27.3928 33.1601C27.248 33.1599 27.1032 33.1598 26.9583 33.1597C26.5768 33.1593 26.1953 33.1585 25.8138 33.1575C25.4246 33.1566 25.0354 33.1562 24.6462 33.1557C23.8823 33.1548 23.1184 33.1533 22.3546 33.1514C22.3519 33.2631 22.3493 33.3747 22.3466 33.4897C22.3444 33.5839 22.3444 33.5839 22.3421 33.68C22.3624 33.9742 22.5039 34.1872 22.7091 34.3925C22.8597 34.4019 23.0107 34.4052 23.1616 34.4061C23.2597 34.4069 23.3578 34.4076 23.4588 34.4084C23.6216 34.409 23.6216 34.409 23.7877 34.4095C23.9581 34.4106 23.9581 34.4106 24.1319 34.4117C24.5096 34.4141 24.8873 34.4154 25.265 34.4167C25.3949 34.4172 25.5247 34.4176 25.6546 34.4181C26.1947 34.42 26.7349 34.4217 27.275 34.4227C28.0499 34.4241 28.8247 34.4271 29.5995 34.4321C30.1439 34.4356 30.6882 34.4373 31.2326 34.4378C31.558 34.4381 31.8833 34.4392 32.2086 34.442C32.5716 34.4452 32.9344 34.4448 33.2974 34.4442C33.4054 34.4456 33.5134 34.4471 33.6247 34.4486C34.1846 34.4573 34.1846 34.4573 34.6559 34.1943C34.7674 33.9438 34.8034 33.7941 34.7871 33.5226C34.7839 33.4526 34.7807 33.3825 34.7775 33.3103C34.7733 33.2579 34.7692 33.2054 34.765 33.1514C34.5898 33.1528 34.5898 33.1528 34.4112 33.1542C33.9785 33.1574 33.5458 33.1595 33.1132 33.1611C32.9258 33.162 32.7384 33.1633 32.5511 33.1648C32.282 33.1669 32.0129 33.1679 31.7438 33.1687C31.6598 33.1696 31.5759 33.1706 31.4894 33.1715C31.3723 33.1715 31.3723 33.1715 31.2528 33.1715C31.1841 33.1719 31.1154 33.1723 31.0446 33.1727C30.8646 33.1514 30.8646 33.1514 30.5986 32.9741C30.5045 32.6212 30.5055 32.3509 30.5986 31.999C31.0053 31.8973 31.3978 31.8969 31.814 31.8948C31.9681 31.8927 32.1222 31.8906 32.2763 31.8884C32.5165 31.8853 32.7566 31.8827 32.9968 31.8815C34.9615 31.8697 36.6692 31.4588 38.1335 30.0488C39.2826 28.8555 39.9008 27.3515 39.9508 25.7052C39.8971 23.9369 39.1845 22.3874 37.9157 21.1489C37.4665 20.7543 36.9892 20.4494 36.4603 20.1759C36.4062 20.1473 36.352 20.1188 36.2962 20.0894C35.3701 19.6372 34.3845 19.5491 33.3685 19.5542C33.2526 19.5537 33.1367 19.5532 33.0172 19.5528C32.7029 19.5516 32.3887 19.552 32.0744 19.5529C31.7432 19.5535 31.412 19.5529 31.0808 19.5525C30.5249 19.552 29.9691 19.5526 29.4132 19.5539C28.7735 19.5554 28.1338 19.5549 27.494 19.5534C26.9416 19.5522 26.3892 19.5521 25.8368 19.5527C25.5083 19.5532 25.1797 19.5532 24.8512 19.5523C24.4845 19.5514 24.1178 19.5527 23.7511 19.5542C23.5909 19.5534 23.5909 19.5534 23.4275 19.5525C22.4643 19.5597 21.5309 19.7165 20.6703 20.1648ZM40.4383 22.1593C40.4736 22.2452 40.5089 22.3312 40.5453 22.4197C41.4366 24.6483 41.4669 26.757 40.527 28.9851C40.4977 29.0728 40.4685 29.1606 40.4383 29.251C42.0077 29.3146 42.0077 29.3146 43.3858 28.6305C44.0493 28.0047 44.3047 27.2006 44.348 26.3127C44.385 25.0363 44.3752 23.8935 43.488 22.8848C42.6915 22.1334 41.8133 22.1197 40.7756 22.1468C40.6086 22.153 40.6086 22.153 40.4383 22.1593ZM1.70006 28.0986C1.70006 29.1874 2.02282 29.9707 2.76381 30.7725C3.38797 31.3677 4.19275 31.8273 5.07384 31.836C5.14372 31.8369 5.21359 31.8377 5.28559 31.8386C5.36048 31.839 5.43537 31.8393 5.51252 31.8397C5.59059 31.8402 5.66866 31.8407 5.74909 31.8413C5.91436 31.8421 6.07962 31.8427 6.24489 31.843C6.49527 31.8439 6.74559 31.8466 6.99596 31.8494C8.31816 31.8573 9.26706 31.72 10.2766 30.8023C10.3424 30.7292 10.4082 30.656 10.476 30.5807C10.5884 30.46 10.5884 30.46 10.7032 30.3369C11.2483 29.6597 11.3167 28.972 11.4511 28.0986C8.23326 28.0986 5.01542 28.0986 1.70006 28.0986ZM4.27079 33.1514C4.27079 33.4732 4.27079 33.795 4.27079 34.1265C4.55869 34.4177 4.55869 34.4177 4.92888 34.4269C5.04736 34.4281 5.04736 34.4281 5.16823 34.4294C5.29581 34.4286 5.29581 34.4286 5.42596 34.4278C5.51349 34.428 5.60103 34.4283 5.69121 34.4285C5.87631 34.4287 6.0614 34.4282 6.24649 34.4271C6.53017 34.4257 6.81374 34.4271 7.09742 34.4288C7.27713 34.4286 7.45685 34.4283 7.63656 34.4278C7.72161 34.4283 7.80666 34.4288 7.89429 34.4294C7.97327 34.4286 8.05226 34.4277 8.13364 34.4269C8.20311 34.4267 8.27258 34.4264 8.34416 34.4262C8.57422 34.3834 8.65 34.3098 8.79173 34.1265C8.91775 33.7952 8.91775 33.7952 8.88038 33.1514C7.35921 33.1514 5.83805 33.1514 4.27079 33.1514ZM1.61141 35.8108C1.61141 36.7761 1.61141 37.7415 1.61141 38.7361C15.7114 38.7361 29.8115 38.7361 44.3387 38.7361C44.3387 37.7707 44.3387 36.8054 44.3387 35.8108C30.2387 35.8108 16.1387 35.8108 1.61141 35.8108ZM6.93017 40.1544C6.93017 40.5347 6.93017 40.915 6.93017 41.3068C9.0949 41.3068 11.2596 41.3068 13.49 41.3068C13.49 40.9265 13.49 40.5463 13.49 40.1544C11.3252 40.1544 9.1605 40.1544 6.93017 40.1544ZM32.4602 40.1544C32.4602 40.5347 32.4602 40.915 32.4602 41.3068C34.6249 41.3068 36.7897 41.3068 39.02 41.3068C39.02 40.9265 39.02 40.5463 39.02 40.1544C36.8553 40.1544 34.6905 40.1544 32.4602 40.1544Z" fill="black"/>
<path d="M12.3033 3.57035C12.7482 3.69898 13.0554 4.07922 13.3674 4.40627C13.4935 4.53808 13.6223 4.6666 13.7519 4.79496C14.8139 5.8671 15.4306 7.08911 15.4789 8.61228C15.4151 10.1796 14.7402 11.2381 13.7337 12.3797C13.0714 13.1482 12.9353 13.9512 12.9078 14.9342C12.8934 15.3062 12.8779 15.6206 12.6921 15.9533C12.3807 16.1609 12.2608 16.1746 11.8943 16.1306C11.6585 16.0118 11.6585 16.0118 11.451 15.776C11.3849 15.4523 11.3924 15.1357 11.4012 14.8064C11.4027 14.7144 11.4042 14.6225 11.4058 14.5277C11.444 13.2843 11.8206 12.0808 12.7419 11.1941C12.8182 11.1235 12.8182 11.1235 12.896 11.0514C13.5724 10.3735 13.8826 9.54997 13.9383 8.60882C13.9164 7.43026 13.3463 6.54558 12.5257 5.74306C12.4545 5.67518 12.3832 5.60731 12.3098 5.53737C12.1659 5.39812 12.0222 5.25869 11.8787 5.11908C11.8157 5.0588 11.7527 4.99852 11.6878 4.93642C11.4731 4.71528 11.4525 4.62197 11.4233 4.30741C11.451 3.98607 11.451 3.98607 11.584 3.77C11.8279 3.61753 12.0149 3.56383 12.3033 3.57035Z" fill="black"/>
<path d="M17.656 7.08959C17.8327 7.22971 17.91 7.33167 18.0106 7.53282C18.035 7.92568 18.0311 8.31939 18.0327 8.71292C18.0346 8.82085 18.0364 8.92878 18.0383 9.03998C18.045 10.6283 17.5987 11.8642 16.4972 13.0068C15.8859 13.6457 15.567 14.3281 15.4897 15.2118C15.4576 15.5477 15.3861 15.7713 15.1739 16.0428C14.921 16.1693 14.7453 16.159 14.4647 16.1315C14.2286 15.9853 14.2286 15.9853 14.0215 15.7769C13.8056 14.8234 14.1805 13.7127 14.6642 12.8904C14.9166 12.5388 15.208 12.2215 15.4942 11.8974C16.4508 10.7969 16.5303 9.70114 16.546 8.29151C16.5483 8.18786 16.5507 8.08422 16.5531 7.97744C16.5549 7.83658 16.5549 7.83658 16.5567 7.69289C16.5968 7.41191 16.6604 7.29051 16.8582 7.08959C17.1728 6.9847 17.3368 7.0098 17.656 7.08959Z" fill="black"/>
</g>
<defs>
<clipPath id="clip0_358_941">
<rect width="45.3867" height="45.3867" fill="white" transform="translate(0.28125 0.44043)"/>
</clipPath>
</defs>
</svg>
