<svg width="46" height="46" viewBox="0 0 46 46" fill="none" xmlns="http://www.w3.org/2000/svg">
<g clip-path="url(#clip0_358_945)">
<path d="M34.2621 10.6691C37.4981 13.6199 39.4739 17.6908 39.7595 22.0708C39.9663 26.6148 38.5062 30.9967 35.4577 34.3891C34.9412 34.9547 34.4212 35.5112 33.8202 35.9882C33.7 36.0868 33.7 36.0868 33.5774 36.1873C30.0882 39.0004 25.6156 40.2658 21.1715 39.8221C16.8088 39.321 12.7732 37.1714 9.97443 33.772C7.14839 30.1512 5.81755 25.6721 6.34155 21.093C6.69464 18.3316 7.69028 15.6278 9.35391 13.3835C9.40555 13.3118 9.40555 13.3118 9.45823 13.2386C10.2367 12.158 11.1453 11.1104 12.1906 10.2809C12.2707 10.2152 12.3508 10.1495 12.4333 10.0818C18.3965 5.27401 27.3588 5.07568 34.2621 10.6691ZM16.0024 9.48307C16.0901 9.54614 16.0901 9.54614 16.1796 9.6105C16.8879 10.2155 17.3974 10.8668 17.598 11.7879C17.607 11.918 17.612 12.0484 17.6137 12.1788C17.6148 12.2555 17.6159 12.3322 17.6171 12.4112C17.6178 12.4936 17.6184 12.576 17.6191 12.6608C17.6198 12.7465 17.6205 12.8323 17.6213 12.9206C17.6225 13.1022 17.6235 13.2838 17.6241 13.4654C17.6252 13.6498 17.627 13.8341 17.6296 14.0185C17.6483 15.333 17.644 16.4401 16.7115 17.4612C15.6688 18.4586 14.4407 18.469 13.077 18.525C13.0684 18.6171 13.0597 18.7092 13.0507 18.804C12.9379 19.8975 12.7321 20.8216 11.9246 21.6276C10.9879 22.3486 10.008 22.4655 8.85528 22.4863C8.74089 22.4893 8.62651 22.4924 8.50866 22.4955C8.22899 22.5027 7.94935 22.5089 7.66964 22.514C7.6228 24.5698 7.87251 26.6194 8.64475 28.5419C9.06539 28.1917 9.46002 27.8259 9.84244 27.4345C9.95423 27.321 10.066 27.2074 10.1778 27.0939C10.2361 27.0345 10.2944 26.9752 10.3545 26.914C10.6665 26.5965 10.98 26.2803 11.2932 25.9639C11.6902 25.5627 12.0867 25.1611 12.4819 24.7582C12.8028 24.4311 13.1249 24.1053 13.4479 23.7804C13.5702 23.6569 13.6919 23.533 13.8132 23.4086C15.0967 22.0926 15.0967 22.0926 16.1357 21.935C17.1678 21.9456 17.7521 22.2488 18.4844 22.9572C18.5404 23.0078 18.5964 23.0583 18.6541 23.1103C19.1485 23.571 19.531 24.1413 19.56 24.8347C19.5597 24.9428 19.5595 25.0509 19.5593 25.1623C19.5595 25.27 19.5597 25.3776 19.56 25.4885C19.5499 25.7506 19.5204 25.9829 19.4595 26.2371C19.5186 26.2642 19.5777 26.2913 19.6386 26.3192C20.5893 26.7913 21.4593 27.529 21.853 28.5419C22.0172 29.2074 21.9886 29.8475 21.7643 30.4921C21.8139 30.5097 21.8635 30.5273 21.9146 30.5455C22.473 30.7807 22.8778 31.1137 23.3046 31.5337C23.3573 31.5844 23.4099 31.6351 23.4642 31.6874C23.9545 32.1859 24.2817 32.7911 24.3378 33.4975C24.3217 34.5805 23.7775 35.2586 23.0314 35.9882C22.9671 36.0521 22.9027 36.116 22.8365 36.1819C22.633 36.3839 22.4286 36.585 22.2242 36.786C22.0852 36.9236 21.9463 37.0613 21.8075 37.1991C21.4687 37.5349 21.1293 37.8699 20.7892 38.2043C22.5683 39.1354 25.6821 38.3649 27.4972 37.8259C28.2395 37.5923 28.9508 37.2957 29.6538 36.9633C29.7417 36.9219 29.7417 36.9219 29.8312 36.8796C31.0908 36.2731 32.2448 35.4636 33.2575 34.5013C33.4432 34.3252 33.6341 34.1621 33.8313 33.9992C34.2693 33.6174 34.6172 33.1658 34.9726 32.7083C35.0385 32.625 35.1045 32.5417 35.1724 32.4559C37.6652 29.2348 38.7412 25.1579 38.2359 21.1234C37.7919 17.9282 36.3933 15.0125 34.1748 12.6743C34.0816 12.5642 33.9892 12.4535 33.8978 12.3419C33.607 12.0012 33.2799 11.7165 32.9337 11.4333C32.8527 11.3667 32.7717 11.3 32.6882 11.2314C27.944 7.45395 21.4221 6.68599 16.0024 9.48307ZM12.747 11.7799C12.5747 11.9381 12.399 12.0881 12.2183 12.2366C11.8821 12.524 11.55 12.837 11.3041 13.2062C11.3041 13.3232 11.3041 13.4402 11.3041 13.5608C11.4413 13.695 11.4413 13.695 11.6255 13.8046C12.3268 14.3002 12.7796 15.0165 12.9316 15.8664C12.9935 16.2785 13.0379 16.6918 13.077 17.1066C14.4599 17.194 14.4599 17.194 15.6554 16.5862C16.1835 16.016 16.2961 15.5459 16.2981 14.7862C16.2987 14.7079 16.2993 14.6295 16.2999 14.5488C16.3008 14.3833 16.3012 14.2178 16.3011 14.0523C16.3015 13.8008 16.3048 13.5493 16.3081 13.2978C16.3086 13.1365 16.309 12.9752 16.3092 12.8139C16.3104 12.7394 16.3117 12.665 16.313 12.5883C16.3085 11.994 16.146 11.5436 15.7714 11.0797C14.5081 10.0223 13.7984 10.8083 12.747 11.7799ZM10.2404 14.6245C9.07722 16.4743 7.80564 18.8442 7.84693 21.0957C8.18673 21.1035 8.5265 21.1082 8.86636 21.1123C9.00965 21.1156 9.00965 21.1156 9.15584 21.1191C9.92781 21.1261 10.5495 21.0365 11.1268 20.4752C11.7553 19.7031 11.6864 18.761 11.6809 17.8158C11.6816 17.6992 11.6822 17.5827 11.6829 17.4626C11.6827 16.2287 11.6827 16.2287 11.1268 15.1564C10.8571 14.8889 10.6184 14.7003 10.2404 14.6245ZM15.6634 23.5872C15.6018 23.6437 15.5401 23.7002 15.4766 23.7584C15.4161 23.8158 15.3555 23.8732 15.2932 23.9324C15.2407 23.9821 15.1882 24.0318 15.1341 24.083C14.9768 24.2344 14.8212 24.3874 14.6661 24.541C14.5788 24.6269 14.5788 24.6269 14.4898 24.7146C14.3001 24.9017 14.1108 25.0891 13.9216 25.2766C13.8566 25.341 13.7916 25.4054 13.7247 25.4717C13.3819 25.8116 13.0395 26.1519 12.6973 26.4923C12.4142 26.7739 12.1303 27.0546 11.8458 27.3347C11.5012 27.674 11.158 28.0145 10.8157 28.356C10.6852 28.4857 10.5542 28.615 10.4228 28.7438C10.2399 28.9233 10.0587 29.1044 9.8778 29.2859C9.82306 29.3389 9.76832 29.3919 9.71192 29.4465C9.42389 29.7295 9.42389 29.7295 9.3558 30.1113C9.47993 30.4025 9.63153 30.6719 9.79714 30.9409C9.83216 30.9986 9.86718 31.0563 9.90325 31.1158C10.2474 31.6734 10.6329 32.1938 11.0382 32.7083C11.4871 32.3322 11.9085 31.9394 12.3218 31.5248C12.3848 31.4619 12.4479 31.399 12.5129 31.3342C12.7194 31.1281 12.9256 30.9216 13.1318 30.7151C13.2757 30.5712 13.4197 30.4273 13.5637 30.2834C13.8644 29.9829 14.165 29.6821 14.4654 29.3813C14.8512 28.995 15.2373 28.6092 15.6235 28.2235C15.9204 27.9269 16.2171 27.6301 16.5137 27.3333C16.6561 27.1909 16.7985 27.0485 16.941 26.9062C17.1394 26.708 17.3376 26.5095 17.5356 26.311C17.6244 26.2224 17.6244 26.2224 17.7151 26.1321C17.7687 26.0782 17.8224 26.0242 17.8777 25.9687C17.9245 25.9218 17.9714 25.8749 18.0196 25.8267C18.2475 25.5758 18.2492 25.3344 18.2421 25.0027C18.164 24.393 17.5061 23.8764 17.0661 23.4891C16.5528 23.1805 16.1001 23.1839 15.6634 23.5872ZM17.2665 28.4987C17.2093 28.5559 17.1522 28.613 17.0933 28.6718C16.9058 28.8594 16.719 29.0476 16.5322 29.2359C16.4018 29.3666 16.2714 29.4972 16.1409 29.6279C15.7986 29.9708 15.4569 30.3143 15.1153 30.6579C14.7662 31.0088 14.4166 31.3592 14.067 31.7096C13.382 32.3966 12.6974 33.0842 12.0133 33.772C12.0833 33.8418 12.1533 33.9115 12.2254 33.9834C12.355 34.1134 12.4836 34.2446 12.6082 34.3794C13.1673 34.9753 13.8314 35.4292 14.4954 35.8995C14.9043 35.5571 15.2943 35.2028 15.6718 34.8261C15.7235 34.7748 15.7751 34.7236 15.8284 34.6708C15.9971 34.5034 16.1654 34.3356 16.3337 34.1678C16.3916 34.1102 16.4495 34.0526 16.5092 33.9932C16.8148 33.6889 17.1202 33.3843 17.4254 33.0795C17.7403 32.7651 18.0559 32.4516 18.3718 32.1382C18.6152 31.8964 18.858 31.6541 19.1007 31.4116C19.2169 31.2957 19.3333 31.18 19.4499 31.0645C19.6126 30.9033 19.7744 30.7413 19.9361 30.579C19.9842 30.5317 20.0324 30.4844 20.082 30.4357C20.4482 30.0653 20.6021 29.7984 20.6286 29.2788C20.5264 28.6291 19.8964 28.1299 19.4097 27.733C18.5009 27.2373 17.8932 27.8644 17.2665 28.4987ZM20.3803 32.0741C20.3191 32.1307 20.2578 32.1874 20.1948 32.2457C19.796 32.6313 19.4019 33.0211 19.0108 33.4143C18.9184 33.5069 18.826 33.5994 18.7336 33.6919C18.4926 33.9332 18.252 34.1747 18.0114 34.4163C17.7649 34.6637 17.5182 34.9109 17.2714 35.158C16.7891 35.6413 16.307 36.1249 15.8251 36.6087C16.1748 36.8758 16.5259 37.0471 16.9276 37.2237C16.9982 37.2548 17.0689 37.2858 17.1416 37.3178C18.105 37.8098 18.105 37.8098 19.0967 37.873C19.3095 37.7447 19.4681 37.5998 19.6452 37.4253C19.7508 37.3219 19.7508 37.3219 19.8585 37.2163C19.9713 37.1043 19.9713 37.1043 20.0863 36.99C20.1641 36.913 20.2419 36.836 20.322 36.7567C20.4863 36.5937 20.6504 36.4304 20.8142 36.2669C20.9819 36.0996 21.1502 35.9331 21.3193 35.7673C21.5631 35.5277 21.8055 35.2867 22.0476 35.0453C22.1231 34.9715 22.1987 34.8977 22.2765 34.8216C22.6638 34.4314 22.9367 34.1506 23.0054 33.5948C22.8598 33.0774 22.5813 32.7679 22.202 32.4091C22.13 32.3383 22.13 32.3383 22.0564 32.2661C21.7473 31.9657 21.5625 31.8075 21.1327 31.7775C20.791 31.7866 20.6302 31.8417 20.3803 32.0741Z" fill="black"/>
<path d="M40.4002 1.06546C40.9341 1.41249 41.3723 1.82505 41.8192 2.27611C41.9009 2.35753 41.9827 2.43894 42.0669 2.52283C42.2385 2.69391 42.4095 2.86561 42.58 3.03778C42.7962 3.25603 43.014 3.47265 43.2323 3.68883C43.4436 3.89852 43.6535 4.10957 43.8636 4.32051C43.9407 4.39691 44.0178 4.47331 44.0972 4.55202C45.1711 5.6423 45.7267 6.75382 45.7431 8.29157C45.7361 9.00666 45.6617 9.62972 45.3442 10.2806C45.2925 10.3896 45.2925 10.3896 45.2397 10.5008C44.678 11.5443 43.6997 12.385 42.8621 13.2059C42.9797 13.5826 43.1231 13.9408 43.2802 14.3021C45.3841 19.1496 45.7323 24.7601 44.0921 29.8048C44.0707 29.8709 44.0493 29.9369 44.0272 30.005C43.8318 30.5719 43.8318 30.5719 43.5713 30.7578C43.2472 30.8564 43.1001 30.8747 42.7901 30.7301C42.5962 30.5805 42.5962 30.5805 42.5076 30.4032C42.4658 29.8647 42.5931 29.4303 42.7513 28.9239C44.2912 23.7465 43.6978 18.0625 41.1249 13.3053C40.3487 11.9112 39.4368 10.6316 38.3745 9.44223C38.2597 9.31353 38.1465 9.18349 38.0334 9.05337C37.6927 8.66532 37.3465 8.303 36.9506 7.97127C36.7946 7.8398 36.6419 7.70449 36.4907 7.56751C32.4819 3.96062 27.0882 2.34633 21.7644 2.56837C17.1467 2.84994 12.7584 4.6883 9.31347 7.76519C9.18476 7.87993 9.05473 7.99318 8.92461 8.10631C8.53656 8.44702 8.17424 8.79319 7.8425 9.18911C7.71104 9.34508 7.57573 9.49781 7.43875 9.64896C3.81544 13.6766 2.25452 19.0365 2.43961 24.3753C2.46369 24.7304 2.4953 25.0846 2.52825 25.439C2.60044 26.4043 2.60044 26.4043 2.34542 26.7521C2.00743 26.8887 1.81355 26.8657 1.4645 26.7687C1.19994 26.5671 1.15094 26.3876 1.09884 26.0651C1.08581 25.9893 1.07278 25.9136 1.05936 25.8355C0.361364 20.1944 1.86595 14.3169 5.3528 9.80963C5.41531 9.73101 5.47781 9.6524 5.54221 9.57139C5.60563 9.49095 5.66905 9.4105 5.73439 9.32762C6.73561 8.08009 7.83052 6.92785 9.08805 5.93691C9.17558 5.86664 9.26311 5.79636 9.35329 5.72395C13.9335 2.10889 19.8366 0.514194 25.6205 1.16665C27.9383 1.45646 30.4621 2.02368 32.5193 3.17677C32.7448 3.30463 32.7448 3.30463 32.9306 3.2127C33.1162 3.09705 33.249 2.97861 33.3992 2.82011C33.4526 2.76473 33.506 2.70935 33.561 2.6523C33.6173 2.59352 33.6736 2.53474 33.7316 2.47418C35.5198 0.654586 38.0087 -0.418375 40.4002 1.06546ZM35.3272 3.0116C35.23 3.10782 35.1327 3.20396 35.0353 3.30004C34.7762 3.5567 34.5194 3.81549 34.2635 4.07535C34.6235 4.37338 35.0013 4.63437 35.3882 4.89532C35.9502 5.27879 36.4908 5.6756 37.0115 6.1142C37.0583 6.15314 37.1051 6.19208 37.1534 6.2322C38.13 7.04553 39.0407 7.88862 39.8336 8.88751C39.9568 9.04199 40.0826 9.19437 40.2118 9.34389C40.8854 10.1289 41.4239 11.0035 41.9757 11.8762C43.4804 10.6573 43.4804 10.6573 44.2805 8.95087C44.3576 7.97271 44.3242 7.08894 43.6902 6.2815C43.0466 5.5788 42.3824 4.89631 41.7121 4.21909C41.5738 4.07886 41.436 3.93806 41.2988 3.79673C39.9558 2.37123 39.9558 2.37123 38.129 1.83321C36.9072 1.82202 36.1948 2.13632 35.3272 3.0116Z" fill="black"/>
<path d="M2.53382 28.4028C2.85734 28.4648 2.93834 28.558 3.1488 28.8073C3.25917 29.0433 3.25917 29.0433 3.35241 29.3125C3.3876 29.4116 3.4228 29.5108 3.45906 29.6129C3.49563 29.7182 3.53219 29.8235 3.56987 29.932C4.59454 32.7811 6.11105 35.2088 8.20162 37.4059C8.24942 37.4563 8.29723 37.5066 8.34649 37.5585C9.89626 39.179 11.7145 40.4432 13.6977 41.4836C13.7794 41.5274 13.7794 41.5274 13.8629 41.5721C15.7782 42.5848 17.948 43.1926 20.0802 43.5225C20.1877 43.5396 20.1877 43.5396 20.2973 43.557C25.2958 44.3143 30.7224 42.95 34.83 40.0321C35.0886 39.8411 35.3419 39.6452 35.5932 39.4448C35.6727 39.3823 35.7523 39.3198 35.8342 39.2554C37.8929 37.6078 39.5253 35.6734 40.8631 33.4047C40.9171 33.3135 40.9171 33.3135 40.9721 33.2204C41.0412 33.1029 41.1097 32.9852 41.1774 32.867C41.3372 32.5939 41.4418 32.4431 41.7098 32.2645C41.9646 32.2257 41.9646 32.2257 42.2416 32.2645C42.5206 32.4707 42.6677 32.5943 42.7205 32.9432C42.6718 33.3482 42.506 33.6329 42.3026 33.982C42.2626 34.0519 42.2227 34.1218 42.1815 34.1939C41.1939 35.8951 39.9628 37.4044 38.6072 38.8243C38.5511 38.884 38.495 38.9438 38.4371 39.0054C37.9983 39.4609 37.5051 39.8486 37.0115 40.2426C36.9183 40.3193 36.8252 40.396 36.7321 40.4729C33.6962 42.9527 29.9679 44.4566 26.1081 45.0295C26.0375 45.04 25.9669 45.0505 25.8942 45.0613C21.8774 45.6272 17.0829 45.1044 13.4916 43.0914C13.2665 42.9638 13.2665 42.9638 13.0817 43.0541C12.8873 43.1758 12.7472 43.3045 12.5892 43.4706C12.5314 43.5304 12.4735 43.5902 12.4139 43.6519C12.3531 43.7152 12.2922 43.7786 12.2295 43.8438C11.1623 44.9284 10.025 45.8297 8.43847 45.8481C8.35665 45.8485 8.27483 45.849 8.19054 45.8495C8.07089 45.8522 8.07089 45.8522 7.94884 45.855C6.04377 45.8659 4.89399 44.6458 3.62596 43.3971C3.42138 43.1943 3.21719 42.9911 3.01323 42.7877C2.80442 42.5798 2.59468 42.3728 2.38492 42.1658C2.25005 42.0315 2.11523 41.8972 1.98047 41.7627C1.91869 41.7021 1.85691 41.6414 1.79325 41.5788C1.25745 41.0406 0.792589 40.4562 0.550365 39.7273C0.523283 39.6482 0.496201 39.569 0.468298 39.4874C0.130903 38.3887 0.162872 37.024 0.666713 35.9876C0.699166 35.917 0.731618 35.8464 0.765054 35.7736C1.31453 34.7323 2.31293 33.8748 3.1488 33.0623C3.03432 32.7097 2.9091 32.3651 2.76963 32.0217C2.71229 31.8797 2.71229 31.8797 2.6538 31.7348C2.57422 31.5386 2.49458 31.3424 2.41487 31.1462C1.73293 29.4561 1.73293 29.4561 1.81911 28.8959C2.0385 28.5926 2.16329 28.4709 2.53382 28.4028ZM3.94661 34.392C3.67325 34.6523 3.40253 34.9152 3.13218 35.1787C3.05556 35.2516 2.97894 35.3245 2.9 35.3996C2.12614 36.1587 1.71356 36.8922 1.69722 37.9821C1.69252 39.7827 3.1229 40.8609 4.29884 42.0491C4.43716 42.1893 4.57492 42.3301 4.71211 42.4714C6.05512 43.8969 6.05512 43.8969 7.88196 44.4349C8.94569 44.4447 9.6651 44.2494 10.45 43.4924C10.5657 43.3756 10.5657 43.3756 10.6837 43.2566C10.7809 43.1603 10.8782 43.0642 10.9756 42.9681C11.2347 42.7115 11.4916 42.4527 11.7475 42.1928C11.5645 41.999 11.3811 41.8515 11.1564 41.7087C11.0925 41.6675 11.0287 41.6264 10.9629 41.5839C10.8945 41.5399 10.8262 41.4958 10.7557 41.4504C8.22538 39.7876 6.12873 37.6211 4.49251 35.0775C4.32791 34.8227 4.16553 34.6014 3.94661 34.392Z" fill="black"/>
<path d="M22.4591 10.355C22.6119 10.3538 22.6119 10.3538 22.7677 10.3525C22.877 10.3521 22.9863 10.3517 23.099 10.3513C23.2123 10.3508 23.3257 10.3503 23.4425 10.3498C23.6823 10.3489 23.9222 10.3483 24.1621 10.348C24.4671 10.3475 24.7722 10.3454 25.0773 10.3429C25.3708 10.3408 25.6643 10.3407 25.9578 10.3402C26.0662 10.3391 26.1747 10.338 26.2864 10.3369C26.9841 10.3387 27.6982 10.3639 28.2754 10.7977C28.3211 10.8556 28.3668 10.9135 28.4139 10.9732C28.4615 11.0305 28.509 11.0877 28.558 11.1467C28.8798 11.6688 28.8812 12.1686 28.8745 12.7621C28.8742 12.8459 28.874 12.9298 28.8737 13.0162C28.8727 13.2826 28.8705 13.549 28.8682 13.8154C28.8673 13.9966 28.8665 14.1779 28.8658 14.3591C28.8639 14.8021 28.8608 15.2451 28.8572 15.6881C28.9682 15.714 29.0793 15.74 29.1937 15.7667C29.7513 15.8969 30.1355 16.1873 30.4528 16.6632C30.654 17.1339 30.6586 17.5691 30.6598 18.0722C30.6607 18.1981 30.6607 18.1981 30.6616 18.3265C30.6625 18.5036 30.663 18.6807 30.6629 18.8578C30.6633 19.1269 30.6665 19.3958 30.6699 19.6648C30.6704 19.8376 30.6708 20.0103 30.6709 20.183C30.6722 20.2626 30.6735 20.3421 30.6748 20.424C30.6705 21.0195 30.553 21.5723 30.1535 22.0344C29.7022 22.4395 29.2237 22.5355 28.6337 22.5396C28.5206 22.5407 28.4076 22.5418 28.2912 22.543C28.1689 22.5433 28.0466 22.5435 27.9243 22.5436C27.7976 22.5442 27.6708 22.5448 27.5441 22.5454C27.279 22.5464 27.0139 22.5468 26.7488 22.5467C26.4106 22.5466 26.0724 22.5491 25.7342 22.5521C25.4726 22.5541 25.211 22.5544 24.9494 22.5544C24.8248 22.5546 24.7002 22.5553 24.5756 22.5567C23.7768 22.5647 23.1792 22.5462 22.5581 21.9982C22.5178 21.9471 22.4774 21.8961 22.4359 21.8434C22.373 21.7665 22.373 21.7665 22.3088 21.6879C22.0635 21.3221 22.0989 20.9131 22.0889 20.4898C22.0868 20.4128 22.0848 20.3357 22.0827 20.2563C22.0785 20.0932 22.0744 19.9301 22.0706 19.767C22.0647 19.5183 22.0578 19.2697 22.0508 19.0211C22.0468 18.8625 22.0429 18.7038 22.039 18.5452C22.0369 18.4712 22.0348 18.3972 22.0326 18.321C22.0243 17.9334 22.0404 17.5769 22.1201 17.1951C22.0643 17.1895 22.0085 17.1839 21.9511 17.1781C21.4218 17.1024 21.0833 16.9548 20.6744 16.6133C20.1434 15.8481 20.2173 14.9019 20.2238 14.0107C20.2253 13.7768 20.2238 13.5432 20.2221 13.3093C20.2223 13.1584 20.2227 13.0075 20.2232 12.8566C20.2226 12.7879 20.2221 12.7192 20.2215 12.6483C20.2311 11.8945 20.4226 11.2563 20.9677 10.7239C21.4564 10.4286 21.8954 10.3589 22.4591 10.355ZM21.6768 12.1422C21.6416 12.4003 21.627 12.6241 21.6297 12.8819C21.6294 12.9533 21.6291 13.0248 21.6287 13.0984C21.6285 13.2492 21.6291 13.4 21.6306 13.5508C21.6325 13.7814 21.6306 14.0118 21.6284 14.2424C21.6286 14.3891 21.629 14.5358 21.6297 14.6825C21.629 14.7513 21.6283 14.8201 21.6276 14.891C21.6327 15.1873 21.6432 15.3779 21.8252 15.6176C22.0825 15.8162 22.217 15.8211 22.5394 15.8212C22.6415 15.822 22.7435 15.8229 22.8487 15.8237C22.9585 15.8227 23.0683 15.8217 23.1814 15.8207C23.2944 15.8208 23.4074 15.821 23.5238 15.8211C23.7626 15.8209 24.0014 15.8201 24.2402 15.8181C24.5463 15.8156 24.8523 15.8158 25.1583 15.8169C25.4504 15.8177 25.7426 15.8164 26.0347 15.8152C26.1447 15.8154 26.2546 15.8157 26.3679 15.8159C26.4697 15.8148 26.5715 15.8137 26.6763 15.8125C26.766 15.8121 26.8557 15.8116 26.9481 15.8111C27.1745 15.7935 27.1745 15.7935 27.3346 15.663C27.5216 15.3899 27.4784 15.0579 27.4773 14.7379C27.4777 14.6622 27.4782 14.5864 27.4787 14.5084C27.4792 14.3484 27.4791 14.1883 27.4784 14.0283C27.4776 13.7831 27.4802 13.5381 27.483 13.2929C27.4831 13.1374 27.4831 12.9819 27.4828 12.8265C27.4838 12.7531 27.4848 12.6796 27.4858 12.604C27.4906 12.2152 27.4906 12.2152 27.2899 11.9014C27.0378 11.762 26.8732 11.7534 26.5858 11.7518C26.4858 11.7507 26.3858 11.7496 26.2828 11.7484C26.1214 11.7488 26.1214 11.7488 25.9568 11.7492C25.846 11.7488 25.7351 11.7483 25.621 11.7478C25.3867 11.7472 25.1525 11.7472 24.9182 11.7481C24.6183 11.7491 24.3185 11.7473 24.0186 11.7448C23.732 11.7427 23.4455 11.7433 23.1589 11.7437C23.0513 11.7427 22.9437 11.7417 22.8329 11.7407C22.7329 11.7415 22.6329 11.7423 22.5299 11.7432C22.398 11.7432 22.398 11.7432 22.2635 11.7432C21.9644 11.8005 21.8596 11.9024 21.6768 12.1422ZM23.5384 17.2837C23.5283 17.5502 23.5238 17.8146 23.5235 18.0812C23.5232 18.1613 23.5229 18.2414 23.5226 18.324C23.5222 18.4938 23.522 18.6636 23.522 18.8335C23.5218 19.094 23.5202 19.3545 23.5185 19.615C23.5182 19.7796 23.518 19.9443 23.518 20.1089C23.5173 20.1872 23.5167 20.2656 23.516 20.3462C23.4969 20.7637 23.4969 20.7637 23.7157 21.0955C23.9433 21.1233 23.9433 21.1233 24.2117 21.1198C24.3155 21.1207 24.4194 21.1215 24.5264 21.1224C24.639 21.1223 24.7517 21.1222 24.8677 21.1221C25.0405 21.1227 25.0405 21.1227 25.2168 21.1233C25.4609 21.124 25.7049 21.1239 25.949 21.1235C26.2618 21.1229 26.5746 21.1244 26.8874 21.1265C27.1856 21.1281 27.4838 21.1278 27.782 21.1277C27.8944 21.1285 28.0069 21.1293 28.1228 21.1302C28.2269 21.1296 28.331 21.129 28.4383 21.1285C28.576 21.1286 28.576 21.1286 28.7165 21.1286C28.9468 21.1128 28.9468 21.1128 29.1084 20.982C29.2944 20.7075 29.2475 20.374 29.2439 20.0535C29.244 19.9776 29.244 19.9017 29.2441 19.8234C29.2439 19.663 29.243 19.5026 29.2415 19.3421C29.2394 19.096 29.2397 18.85 29.2403 18.6039C29.2398 18.4481 29.2392 18.2923 29.2384 18.1366C29.2385 18.0627 29.2386 17.9888 29.2386 17.9127C29.2509 17.5118 29.2509 17.5118 29.0344 17.1951C28.7983 17.1684 28.7983 17.1684 28.5193 17.1735C28.4114 17.1732 28.3034 17.173 28.1922 17.1727C28.0739 17.1733 27.9556 17.1739 27.8374 17.1746C27.7166 17.1747 27.5958 17.1748 27.4751 17.1747C27.2219 17.1749 26.9688 17.1756 26.7156 17.1768C26.3905 17.1783 26.0654 17.1787 25.7402 17.1786C25.4909 17.1786 25.2415 17.1791 24.9922 17.1797C24.8723 17.18 24.7523 17.1802 24.6324 17.1803C24.4652 17.1805 24.2979 17.1813 24.1307 17.1822C24.0353 17.1825 23.94 17.1829 23.8418 17.1832C23.6315 17.1709 23.6315 17.1709 23.5384 17.2837Z" fill="black"/>
<path d="M33.5548 23.3994C33.7266 23.4936 33.7266 23.4936 33.8208 23.6654C33.8827 24.0306 33.898 24.2398 33.7127 24.5629C33.0927 25.335 32.2729 25.5694 31.3366 25.7469C30.8265 25.85 30.5213 26.031 30.1974 26.4522C30.0699 26.8558 30.1142 27.1748 30.1551 27.5924C30.266 28.7593 30.2619 29.6607 29.4819 30.613C28.9669 31.1299 28.3988 31.2948 27.7042 31.4662C27.5727 31.5058 27.5727 31.5058 27.4386 31.5462C26.9519 31.6927 26.528 31.7945 26.0199 31.7321C25.7983 31.5936 25.7983 31.5936 25.6653 31.3775C25.6155 31.0728 25.6155 31.0728 25.6653 30.757C25.9886 30.348 26.3054 30.2242 26.8011 30.1254C26.9278 30.0967 27.0544 30.0677 27.181 30.0385C27.241 30.025 27.301 30.0115 27.3628 29.9975C27.9015 29.8718 28.2799 29.7348 28.5906 29.25C28.8392 28.753 28.6827 28.0063 28.5906 27.4771C28.5084 26.6061 28.7078 25.8654 29.2666 25.1834C29.905 24.5286 30.6432 24.3204 31.518 24.1545C32.0072 24.0557 32.2852 23.8712 32.6407 23.5158C32.9256 23.2308 33.184 23.3213 33.5548 23.3994Z" fill="black"/>
<path d="M35.8204 25.3062C36.136 25.3521 36.2684 25.3807 36.4797 25.6164C36.6029 25.9123 36.5698 26.0546 36.4797 26.3644C36.208 26.9274 35.694 27.2495 35.1323 27.4842C34.7515 27.6106 34.3614 27.7007 33.9685 27.782C33.4611 27.8949 33.162 28.0852 32.8563 28.5029C32.691 29.008 32.8027 29.491 32.8781 30.0085C32.9828 30.8206 32.8877 31.5251 32.43 32.2153C32.3133 32.3535 32.3133 32.3535 32.0474 32.5308C31.7489 32.5148 31.5163 32.4988 31.2606 32.3369C31.1068 32.0891 31.0776 31.9402 31.0723 31.6443C31.1299 31.5117 31.1913 31.3807 31.2551 31.251C31.5264 30.6388 31.3591 30.0662 31.2496 29.4282C31.1739 28.7166 31.3435 28.0384 31.7593 27.4558C32.4953 26.5606 33.2387 26.3601 34.3508 26.1344C34.7514 26.0224 34.9971 25.8664 35.2719 25.5555C35.5046 25.3505 35.5046 25.3505 35.8204 25.3062Z" fill="black"/>
<path d="M26.7284 26.5024C27.1091 26.7716 27.449 27.0849 27.7035 27.4775C27.7377 27.7964 27.741 28.0144 27.6094 28.3086C27.3482 28.5277 27.1545 28.5413 26.8171 28.5413C26.3425 28.3139 25.9462 27.9216 25.6647 27.4775C25.5835 27.1939 25.6043 27.0701 25.6647 26.7684C25.9867 26.3682 26.2521 26.349 26.7284 26.5024Z" fill="black"/>
<path d="M18.6616 18.4356C19.0814 18.7377 19.5445 19.0871 19.7254 19.588C19.7097 19.8852 19.6866 20.1176 19.5425 20.3803C19.3211 20.5017 19.1205 20.5429 18.8683 20.5354C18.373 20.3894 17.9295 19.9236 17.6602 19.4928C17.5564 19.2085 17.6133 18.9891 17.6865 18.7016C17.9627 18.3723 18.2536 18.3567 18.6616 18.4356Z" fill="black"/>
<path d="M36.8345 20.5631C37.0455 20.8081 37.1037 20.9341 37.0894 21.2581C36.9916 21.6112 36.8388 21.7589 36.5741 22.0091C36.4947 22.0856 36.4153 22.162 36.3335 22.2408C36.0934 22.453 36.0114 22.5078 35.6932 22.5355C35.4162 22.5133 35.4162 22.5133 35.2112 22.4247C35.0292 22.209 34.9642 22.0136 34.9404 21.7325C35.0063 21.3392 35.3158 21.0944 35.5935 20.829C35.6575 20.7577 35.7215 20.6864 35.7874 20.613C36.1433 20.3062 36.4211 20.3696 36.8345 20.5631Z" fill="black"/>
<path d="M23.7756 25.0845C24.1871 25.2087 24.1871 25.2087 24.3352 25.4391C24.442 25.7213 24.4349 25.8505 24.3352 26.1371C24.0469 26.5875 23.6891 27.0086 23.1828 27.212C22.8689 27.1989 22.6972 27.1562 22.4403 26.9737C22.2963 26.7687 22.2963 26.7687 22.2354 26.525C22.3289 26.083 22.6019 25.8388 22.9168 25.5277C22.9623 25.4793 23.0078 25.4308 23.0546 25.3809C23.3033 25.139 23.4251 25.0845 23.7756 25.0845Z" fill="black"/>
<path d="M33.0505 14.3687C33.3774 14.4462 33.3774 14.4462 33.599 14.6346C33.7561 14.9357 33.7708 15.0853 33.732 15.4213C33.5668 15.6609 33.5668 15.6609 33.3497 15.8867C33.2787 15.9621 33.2078 16.0376 33.1347 16.1153C32.8725 16.367 32.7296 16.4784 32.3635 16.5183C32.0477 16.4851 32.0477 16.4851 31.8372 16.3355C31.6737 16.1028 31.6114 15.9719 31.6045 15.6873C31.8885 15.1444 32.3858 14.4072 33.0505 14.3687Z" fill="black"/>
<path d="M33.9984 17.1057C34.2654 17.2844 34.485 17.4955 34.7075 17.7263C34.8172 17.8387 34.8172 17.8387 34.9292 17.9534C35.1002 18.2314 35.1157 18.3801 35.0621 18.7014C34.9292 18.9562 34.9292 18.9562 34.7075 19.1446C34.3841 19.2354 34.3015 19.2564 33.9984 19.1446C33.5772 18.8339 33.1281 18.4654 32.9488 17.9593C32.9352 17.672 33.0113 17.4795 33.1618 17.2387C33.4759 17.0454 33.6341 17.039 33.9984 17.1057Z" fill="black"/>
</g>
<defs>
<clipPath id="clip0_358_945">
<rect width="45.3867" height="45.3867" fill="white" transform="translate(0.3125 0.44043)"/>
</clipPath>
</defs>
</svg>
