<svg width="46" height="46" viewBox="0 0 46 46" fill="none" xmlns="http://www.w3.org/2000/svg">
<g clip-path="url(#clip0_358_1048)">
<path d="M22.8286 0.443616C23.0828 0.443895 23.3369 0.44181 23.591 0.439569C25.1278 0.43427 26.633 0.610741 28.1319 0.953611C28.2163 0.972573 28.3007 0.991535 28.3877 1.01107C30.0247 1.38732 30.0247 1.38732 30.3162 1.7071C30.4721 1.96763 30.4743 2.12327 30.4256 2.42181C30.2594 2.68221 30.2594 2.68221 29.9824 2.86504C29.343 2.89057 28.709 2.68778 28.0986 2.52154C23.1258 1.23262 17.6535 1.9252 13.1396 4.37202C12.9912 4.45947 12.8431 4.54764 12.6964 4.63796C12.765 4.63384 12.8335 4.62973 12.9042 4.62549C13.6638 4.59917 14.1301 4.70068 14.7076 5.19754C14.8956 5.36931 14.8956 5.36931 15.0985 5.33016C15.4516 5.23179 15.7894 5.10138 16.1314 4.97038C20.9291 3.17958 26.2766 3.28119 30.9815 5.34687C31.3955 5.53855 31.7975 5.75027 32.1985 5.96765C32.2567 5.99836 32.3149 6.02907 32.3749 6.06071C33.2927 6.54519 34.1284 7.10284 34.9465 7.74056C35.0749 7.84049 35.0749 7.84049 35.2059 7.94244C39.2942 11.2143 41.8446 15.8963 42.4449 21.0939C42.5139 21.7624 42.5163 22.4325 42.5147 23.104C42.5147 23.1769 42.5146 23.2498 42.5146 23.325C42.5064 26.5386 41.6357 29.3816 40.3539 32.2955C40.7635 32.705 41.173 33.1146 41.595 33.5365C42.9017 31.4306 43.7053 28.9793 44.0771 26.5335C44.0926 26.4337 44.1081 26.3339 44.1241 26.2311C44.2637 25.2434 44.2898 24.2668 44.2876 23.2702C44.2875 23.1867 44.2875 23.1031 44.2874 23.017C44.2838 21.6199 44.1938 20.2799 43.8998 18.91C43.8803 18.8181 43.8608 18.7263 43.8408 18.6317C43.5755 17.4162 43.2186 16.2491 42.7474 15.0982C42.7211 15.0332 42.6949 14.9681 42.6679 14.9011C41.2724 11.4814 38.8425 8.3033 35.833 6.14494C35.7387 6.07638 35.6444 6.00781 35.5473 5.93717C34.5269 5.21305 33.4429 4.59474 32.3519 3.98454C32.1099 3.84014 32.1099 3.84014 31.9326 3.66285C31.8731 3.04877 31.8731 3.04877 32.0711 2.73207C32.3734 2.54605 32.5543 2.56714 32.9077 2.5991C33.1772 2.69528 33.4221 2.82665 33.6722 2.96477C33.7447 3.00391 33.8171 3.04306 33.8917 3.08339C35.6657 4.06396 37.2995 5.27175 38.7583 6.67681C38.846 6.76087 38.846 6.76087 38.9354 6.84662C39.7765 7.65724 40.5513 8.48141 41.2404 9.42484C41.3165 9.52687 41.3925 9.62891 41.4686 9.73094C42.0038 10.4569 42.481 11.2106 42.9247 11.9956C42.9603 12.0583 42.996 12.121 43.0327 12.1855C44.3377 14.5035 45.1972 17.076 45.584 19.7078C45.5998 19.814 45.6155 19.9203 45.6317 20.0298C45.776 21.0781 45.7932 22.1191 45.789 23.176C45.7888 23.2642 45.7887 23.3524 45.7885 23.4432C45.784 24.727 45.7521 25.9808 45.4954 27.2427C45.4783 27.3311 45.4611 27.4196 45.4435 27.5108C44.7237 31.153 43.1839 34.4411 40.8858 37.3483C40.8138 37.4403 40.7418 37.5323 40.6677 37.6271C39.5441 39.0076 38.2531 40.296 36.8081 41.3374C36.7116 41.4097 36.6152 41.4822 36.519 41.5548C33.4128 43.8688 29.7376 45.2777 25.9046 45.7697C25.8455 45.7774 25.7864 45.7851 25.7254 45.7931C25.2187 45.8548 24.7188 45.8738 24.2086 45.8763C24.1247 45.8769 24.0408 45.8776 23.9544 45.8782C20.4843 45.8982 20.4843 45.8982 18.9903 45.5924C18.8577 45.5667 18.8577 45.5667 18.7226 45.5404C15.0802 44.8207 11.792 43.281 8.88463 40.9828C8.79264 40.9108 8.70065 40.8388 8.60588 40.7646C7.27705 39.6831 6.00799 38.4421 5.00278 37.0517C4.89079 36.8985 4.77504 36.7489 4.65837 36.5993C3.96032 35.6937 3.39411 34.7217 2.85671 33.7138C2.79789 33.6038 2.79789 33.6038 2.73789 33.4916C1.71698 31.55 1.03698 29.3967 0.640559 27.2427C0.619176 27.1362 0.619176 27.1362 0.597361 27.0276C0.076716 24.3659 0.169839 21.2899 0.729205 18.644C0.748674 18.5517 0.768142 18.4593 0.788201 18.3641C1.23941 16.2955 1.93777 14.2637 2.9879 12.4193C3.26775 11.9269 3.45047 11.5534 3.39724 10.9737C3.37218 10.3392 3.59188 9.63572 4.0091 9.1589C4.34347 8.86632 4.61349 8.79019 5.03961 8.72121C5.73877 8.5604 6.08074 8.07922 6.52019 7.55622C6.78954 7.247 7.08126 6.9601 7.37211 6.67127C7.42768 6.61537 7.48325 6.55946 7.54051 6.50186C7.7699 6.27292 7.98738 6.06414 8.25026 5.87311C8.49426 5.65431 8.52187 5.49995 8.57991 5.18091C8.71035 4.59109 8.87938 4.21411 9.38326 3.86231C9.83485 3.60223 10.3302 3.46619 10.8536 3.49716C11.4828 3.52995 11.8563 3.36996 12.3917 3.05341C14.6183 1.81844 17.0927 1.01904 19.6108 0.648891C19.717 0.633172 19.8232 0.617453 19.9326 0.601257C20.898 0.468255 21.855 0.441391 22.8286 0.443616ZM10.3805 5.03686C10.2842 5.07389 10.2842 5.07389 10.1859 5.11166C10.1368 5.13086 10.0877 5.15005 10.037 5.16983C9.9649 5.47108 9.92052 5.74661 9.94838 6.05629C10.1196 6.31127 10.3245 6.49278 10.5689 6.67681C10.9701 6.35075 11.313 6.01987 11.6327 5.61306C11.5187 5.49434 11.4041 5.37626 11.2892 5.25848C11.2254 5.19266 11.1616 5.12684 11.0959 5.05903C10.8311 4.82076 10.6895 4.91728 10.3805 5.03686ZM17.2173 6.14494C17.4982 6.48439 17.7828 6.80454 18.1021 7.10827C18.1632 7.16666 18.2242 7.22505 18.2872 7.28522C18.4126 7.4043 18.5389 7.52249 18.666 7.6398C18.9882 7.95079 19.1868 8.17078 19.2939 8.6111C19.342 8.81385 19.342 8.81385 19.4335 8.98161C19.5915 9.06421 19.5915 9.06421 19.7839 9.10315C20.3696 9.24625 20.7318 9.67163 21.1382 10.09C21.2722 10.2275 21.4086 10.3622 21.5454 10.4967C21.9411 10.8932 22.2827 11.2573 22.5098 11.7791C22.6631 12.1359 22.6631 12.1359 23.0306 12.2996C23.1219 12.3242 23.1219 12.3242 23.215 12.3494C23.6587 12.5405 23.9933 12.9448 24.3277 13.2861C24.4636 13.4244 24.6016 13.5601 24.7401 13.6958C25.1803 14.1348 25.5246 14.527 25.7432 15.1198C25.8118 15.3006 25.8118 15.3006 26.0414 15.4316C26.1188 15.4587 26.1961 15.4858 26.2759 15.5137C26.6907 15.6917 26.6907 15.6917 26.8188 15.9846C26.7858 16.3012 26.7369 16.4547 26.5252 16.6938C26.123 16.7988 25.809 16.7724 25.406 16.6827C25.308 16.6624 25.2099 16.642 25.1089 16.6211C24.776 16.4912 24.6647 16.3823 24.4863 16.0733C24.4807 15.9139 24.4807 15.9139 24.4749 15.7512C24.4303 15.2129 24.0128 14.8836 23.6443 14.525C23.5176 14.4009 23.3945 14.2731 23.2714 14.1452C22.8179 13.6946 22.4859 13.4072 21.8351 13.3585C21.5989 13.3162 21.5229 13.2531 21.3837 13.0593C21.3484 12.872 21.3484 12.872 21.3307 12.6573C21.219 12.028 20.8156 11.6779 20.3698 11.2476C20.2942 11.1693 20.2186 11.091 20.1408 11.0102C19.6765 10.5516 19.3143 10.3033 18.6647 10.197C18.399 10.1159 18.3269 10.0193 18.1925 9.77942C18.1563 9.60319 18.1563 9.60319 18.1381 9.41687C18.0194 8.82651 17.6146 8.45879 17.2007 8.04528C17.1213 7.96535 17.0419 7.88542 16.96 7.80307C16.4721 7.32912 16.4721 7.32912 15.8478 7.10654C15.5047 7.11076 15.5047 7.11076 15.193 7.18099C14.8081 7.21901 14.6761 7.09433 14.3807 6.85411C14.1499 6.64419 13.9269 6.42802 13.7041 6.20969C13.5161 6.03924 13.5161 6.03924 13.3351 6.0614C13.0464 6.18481 12.8548 6.39724 12.6396 6.61899C12.5929 6.66608 12.5462 6.71318 12.498 6.7617C12.3493 6.91193 12.2015 7.06306 12.0537 7.21423C11.9529 7.31638 11.852 7.41848 11.7511 7.52051C11.5041 7.77046 11.2579 8.02123 11.0121 8.27244C11.1329 8.59246 11.2347 8.78922 11.4886 9.02039C11.7693 9.27693 11.9853 9.53042 12.1645 9.86807C12.1368 10.1679 12.1368 10.1679 12.0759 10.4997C12.0384 10.9045 12.0942 11.1815 12.3227 11.5224C12.5362 11.7784 12.7594 12.0152 12.9956 12.2504C13.0726 12.3279 13.1496 12.4054 13.229 12.4852C13.7418 12.9646 14.1299 13.166 14.8239 13.2366C14.9117 13.2659 14.9994 13.2951 15.0898 13.3253C15.1442 13.5527 15.1442 13.5527 15.1865 13.8478C15.3367 14.5603 15.685 14.9346 16.2035 15.4251C16.3174 15.5419 16.3174 15.5419 16.4336 15.661C16.9398 16.1558 17.3148 16.359 18.0152 16.4279C18.1468 16.4717 18.1468 16.4717 18.2811 16.5165C18.3372 16.7457 18.3372 16.7457 18.3808 17.0422C18.5264 17.732 18.8412 18.0917 19.3449 18.5664C19.4513 18.6758 19.4513 18.6758 19.5599 18.7874C20.0103 19.2271 20.3762 19.4491 20.9983 19.5626C21.2377 19.6276 21.3289 19.6838 21.4724 19.8851C21.5075 20.0722 21.5075 20.0722 21.525 20.2867C21.637 20.9182 22.0446 21.2707 22.4918 21.7023C22.5681 21.7814 22.6444 21.8604 22.7231 21.9419C23.2311 22.4438 23.6015 22.6543 24.309 22.7217C24.3968 22.751 24.4845 22.7802 24.575 22.8104C24.695 23.0905 24.7526 23.3083 24.7491 23.6141C24.8245 24.1536 25.309 24.5142 25.6775 24.8769C25.7542 24.9572 25.831 25.0375 25.91 25.1202C26.4197 25.6291 26.7856 25.847 27.5003 25.913C27.588 25.9422 27.6758 25.9715 27.7662 26.0016C27.8211 26.2285 27.8211 26.2285 27.8639 26.5231C28.0139 27.2329 28.3535 27.6204 28.8632 28.118C28.9738 28.2382 28.9738 28.2382 29.0866 28.3608C29.5253 28.8003 29.5253 28.8003 30.1097 28.9515C30.4174 28.9281 30.4174 28.9281 30.7071 28.8704C30.9745 28.8361 31.062 28.8478 31.2788 28.999C31.383 29.095 31.383 29.095 31.4893 29.1929C31.7306 29.3905 31.7306 29.3905 31.9615 29.3654C32.2776 29.2535 32.4775 29.0583 32.7103 28.8262C32.7805 28.7574 32.7805 28.7574 32.8521 28.6873C32.9505 28.5903 33.0483 28.4929 33.1458 28.3951C33.2952 28.2458 33.447 28.0992 33.5992 27.9527C33.6946 27.858 33.7898 27.7632 33.8849 27.6682C33.9305 27.6247 33.9761 27.5812 34.0231 27.5364C34.1668 27.3956 34.1668 27.3956 34.326 27.154C34.3192 26.8125 34.2839 26.676 34.0601 26.4172C33.8156 26.0886 33.7908 25.7847 33.7941 25.3811C33.8164 25.2983 33.8386 25.2156 33.8615 25.1303C33.9116 24.8436 33.9116 24.8436 33.736 24.6208C33.4416 24.32 33.4416 24.32 33.1428 24.0235C33.0143 23.8976 32.8898 23.7687 32.7652 23.639C32.3092 23.1859 31.9748 22.8914 31.3198 22.8432C31.0837 22.8013 31.0079 22.7381 30.8688 22.5444C30.8339 22.3573 30.8339 22.3573 30.8165 22.1428C30.7044 21.51 30.2927 21.1583 29.8439 20.7272C29.7282 20.6086 29.7282 20.6086 29.6103 20.4876C29.1956 20.0793 28.8788 19.7985 28.2888 19.7332C28.1208 19.7078 28.1208 19.7078 27.8549 19.5416C27.5903 19.1282 27.5461 18.6872 27.5889 18.2008C27.7458 17.9247 27.8062 17.8607 28.1153 17.7686C28.4054 17.7568 28.5155 17.7558 28.7413 17.9348C28.7761 18.0189 28.8108 18.1031 28.8466 18.1897C29.024 18.4956 29.0437 18.4984 29.3539 18.6025C29.8933 18.8291 30.2714 19.2209 30.6741 19.6326C30.8018 19.7627 30.9317 19.8902 31.062 20.0177C31.4482 20.4029 31.7723 20.7559 31.9921 21.2611C32.147 21.6195 32.147 21.6195 32.5153 21.784C32.5762 21.8004 32.637 21.8168 32.6997 21.8337C33.1457 22.0271 33.4819 22.4369 33.8177 22.781C33.9547 22.921 34.0937 23.0588 34.233 23.1965C34.322 23.286 34.4108 23.3757 34.4995 23.4655C34.579 23.546 34.6585 23.6265 34.7404 23.7094C35.0973 24.1481 35.2484 24.5482 35.2069 25.1207C35.1922 25.6111 35.2592 25.8058 35.5671 26.1789C35.6811 26.486 35.6406 26.7553 35.614 27.0776C35.6116 27.5425 35.6679 27.7809 35.9731 28.1341C36.1164 28.2773 36.2629 28.4174 36.412 28.5547C36.4887 28.6298 36.5654 28.7049 36.6445 28.7823C36.8885 29.0199 37.1362 29.2532 37.3843 29.4865C37.5511 29.6476 37.7177 29.8089 37.884 29.9704C38.2907 30.3645 38.7005 30.755 39.1129 31.1431C40.7315 29.5764 41.0565 25.8782 41.0976 23.7641C41.1153 22.3978 41.0825 21.0488 40.7972 19.7078C40.7824 19.6362 40.7677 19.5647 40.7525 19.491C40.402 17.8367 39.8352 16.2287 39.0242 14.7436C38.995 14.7436 38.9657 14.7436 38.9356 14.7436C38.9281 14.7952 38.9206 14.8469 38.9129 14.9001C38.6989 16.3259 38.3945 17.5895 37.5232 18.768C37.4122 18.9061 37.4122 18.9061 37.4286 19.0872C36.9071 19.368 36.4877 19.4618 35.9002 19.4307C35.2017 19.2091 34.6574 18.5577 34.1542 18.0519C34.0784 17.9764 34.0026 17.901 33.9246 17.8232C33.7188 17.6181 33.5134 17.4125 33.3082 17.2068C33.0925 16.9907 32.8765 16.775 32.6605 16.5593C32.2982 16.1974 31.9364 15.8351 31.5748 15.4726C31.1572 15.0542 30.7391 14.6363 30.3206 14.2188C29.9603 13.8593 29.6003 13.4994 29.2406 13.1392C29.0262 12.9245 28.8116 12.71 28.5968 12.4958C28.3577 12.2571 28.1191 12.0178 27.8807 11.7784C27.8098 11.7079 27.739 11.6374 27.666 11.5648C27.601 11.4993 27.536 11.4338 27.469 11.3663C27.4127 11.3099 27.3563 11.2535 27.2983 11.1953C26.8934 10.7312 26.7721 10.2987 26.7911 9.69077C26.8549 9.45917 26.9431 9.28498 27.057 9.07025C27.0863 8.98249 27.1156 8.89473 27.1457 8.80432C27.3087 8.71026 27.3087 8.71026 27.5003 8.62702C27.6065 8.56786 27.7123 8.50806 27.8178 8.44765C29.0044 7.78246 30.1345 7.47098 31.4893 7.29733C29.9031 6.01529 27.4152 5.57124 25.4614 5.25848C25.3996 5.24855 25.3378 5.23862 25.2741 5.2284C24.5666 5.13301 23.8471 5.14821 23.1345 5.14767C23.0633 5.14761 22.9922 5.14755 22.9188 5.14749C20.9997 5.15005 18.9841 5.3346 17.2173 6.14494ZM8.78419 7.29907C8.70295 7.38077 8.62171 7.46247 8.53801 7.54665C8.49485 7.58994 8.45169 7.63323 8.40722 7.67782C8.26881 7.81673 8.13072 7.95593 7.99263 8.09515C7.8991 8.18912 7.80555 8.28308 7.71198 8.37701C7.48211 8.60786 7.25251 8.83899 7.02307 9.07025C7.33601 9.50408 7.33601 9.50408 7.78036 9.77076C7.85224 9.77362 7.92412 9.77648 7.99817 9.77942C8.11284 9.79605 8.11284 9.79605 8.22983 9.81301C8.70036 9.84501 9.01685 9.81371 9.3888 9.50794C9.7692 9.06781 9.77635 8.61623 9.74824 8.0529C9.66353 7.65075 9.52139 7.463 9.20632 7.20904C8.97416 7.06595 8.99945 7.09526 8.78419 7.29907ZM28.3867 9.69077C28.299 9.80779 28.2112 9.9248 28.1208 10.0454C28.5303 10.4549 28.9399 10.8644 29.3618 11.2864C29.5081 11.2169 29.6544 11.1474 29.8051 11.0759C30.9225 10.5747 31.9979 10.5021 33.1753 10.9079C34.1614 11.3279 34.905 12.0715 35.325 13.0576C35.717 14.1947 35.6546 15.2272 35.2125 16.3392C35.1247 16.5147 35.0369 16.6903 34.9465 16.8711C35.3561 17.2806 35.7656 17.6902 36.1876 18.1121C37.1205 17.1792 37.517 15.8712 37.5616 14.5663C37.5054 12.9716 36.8694 11.4486 35.7443 10.3113C34.5075 9.21494 33.0261 8.64069 31.3681 8.6852C30.3053 8.78577 29.2891 9.1153 28.3867 9.69077ZM5.18366 10.0841C4.90245 10.2794 4.84542 10.4709 4.78372 10.802C4.82381 11.1795 5.07956 11.3633 5.35472 11.6025C5.40797 11.6445 5.46122 11.6864 5.51608 11.7296C5.91731 11.4036 6.2602 11.0727 6.57984 10.6659C6.20564 10.2111 6.20564 10.2111 5.6823 9.99549C5.51662 10.0279 5.35038 10.0576 5.18366 10.0841ZM7.67025 11.5814C7.6211 11.6298 7.57195 11.6781 7.52131 11.7279C7.41743 11.8305 7.31379 11.9334 7.21038 12.0365C7.05155 12.1942 6.89116 12.3503 6.73064 12.5063C6.63006 12.6061 6.52958 12.7059 6.42921 12.8058C6.38083 12.8525 6.33245 12.8991 6.28261 12.9472C6.13303 13.0934 6.13303 13.0934 5.95931 13.3253C5.96449 13.7011 6.23607 13.9067 6.48565 14.1674C7.03124 14.7389 7.03124 14.7389 7.11171 15.0095C7.07885 15.2017 7.04554 15.3937 7.01198 15.5857C6.99541 16.2614 7.24987 16.5729 7.70648 17.0574C7.82618 17.1763 7.82618 17.1763 7.94831 17.2977C8.02605 17.3755 8.1038 17.4533 8.1839 17.5335C8.604 17.9272 8.93321 18.1964 9.51541 18.2614C9.68244 18.2894 9.68244 18.2894 9.94284 18.4723C10.1262 18.7335 10.1413 18.7943 10.1731 19.09C10.2974 19.6872 10.722 20.0433 11.1451 20.4557C11.2214 20.5352 11.2978 20.6147 11.3764 20.6965C11.8199 21.1371 12.1467 21.3945 12.779 21.4533C12.9623 21.4807 12.9623 21.4807 13.1895 21.6691C13.3169 21.9239 13.3169 21.9239 13.3142 22.2342C13.3756 22.7761 13.785 23.1083 14.1589 23.4722C14.2857 23.5963 14.4088 23.7241 14.5318 23.852C14.9853 24.3026 15.3173 24.59 15.9682 24.6387C16.2042 24.681 16.2804 24.7441 16.4195 24.9379C16.4531 25.1235 16.4531 25.1235 16.4694 25.3368C16.5846 25.9864 17.0247 26.3559 17.4833 26.7994C17.5638 26.8827 17.6444 26.966 17.7274 27.0519C18.1804 27.4997 18.5098 27.7809 19.1592 27.8209C19.3449 27.8632 19.3449 27.8632 19.4995 28.0212C19.6149 28.225 19.6418 28.3508 19.6634 28.581C19.7824 29.1762 20.2097 29.5309 20.6302 29.9408C20.7065 30.0203 20.7829 30.0998 20.8615 30.1817C21.305 30.6222 21.6318 30.8797 22.2641 30.9384C22.4475 30.9658 22.4475 30.9658 22.6746 31.1542C22.802 31.409 22.802 31.409 22.8 31.7182C22.8618 32.2608 23.263 32.6026 23.6343 32.9719C23.7602 33.0985 23.8806 33.229 24.0014 33.3604C24.4459 33.8248 24.4459 33.8248 25.0389 34.009C25.3209 33.9859 25.3209 33.9859 25.583 33.9258C25.8488 33.8862 25.9482 33.9168 26.1761 34.0518C26.305 34.1478 26.305 34.1478 26.4365 34.2457C26.6778 34.4433 26.6778 34.4433 26.9087 34.4182C27.2248 34.3063 27.4247 34.1111 27.6575 33.879C27.7043 33.8332 27.7511 33.7873 27.7993 33.7401C27.8977 33.6432 27.9955 33.5457 28.093 33.4479C28.2424 33.2986 28.3942 33.1521 28.5464 33.0055C28.6417 32.9109 28.737 32.816 28.832 32.7211C28.8776 32.6775 28.9232 32.634 28.9702 32.5892C29.114 32.4484 29.114 32.4484 29.2732 32.2068C29.2644 31.767 29.1177 31.5555 28.83 31.2317C28.6639 30.8996 28.7178 30.5255 28.8081 30.1743C28.8577 29.8973 28.8577 29.8973 28.6913 29.6817C28.4641 29.4503 28.2366 29.2199 28.0044 28.9934C27.9269 28.9128 27.8494 28.8321 27.7695 28.749C27.2568 28.2397 26.8879 28.0174 26.1706 27.9518C26.0828 27.9226 25.9951 27.8933 25.9046 27.8632C25.7846 27.583 25.727 27.3653 25.7305 27.0595C25.6552 26.52 25.1706 26.1594 24.8021 25.7966C24.7254 25.7164 24.6486 25.6361 24.5696 25.5534C24.06 25.0445 23.694 24.8265 22.9793 24.7606C22.8916 24.7313 22.8038 24.7021 22.7134 24.6719C22.6213 24.3648 22.5489 24.0737 22.5122 23.7555C22.3813 23.2785 21.9517 22.9583 21.6109 22.6165C21.5341 22.5354 21.4574 22.4543 21.3783 22.3708C20.9346 21.9231 20.6156 21.6535 19.975 21.6035C19.7368 21.5599 19.6635 21.4988 19.5221 21.3034C19.4657 21.0953 19.4657 21.0953 19.4217 20.8546C19.2639 20.2349 18.9193 19.8797 18.4695 19.4418C18.4 19.3681 18.3305 19.2944 18.2589 19.2185C17.759 18.7209 17.3579 18.5408 16.6574 18.4515C16.4195 18.3781 16.4195 18.3781 16.2979 18.1698C16.2422 17.9348 16.2422 17.9348 16.2391 17.61C16.1769 17.0405 15.7064 16.6857 15.317 16.306C15.2403 16.2261 15.1635 16.1462 15.0845 16.0639C14.5749 15.5578 14.2066 15.3419 13.4942 15.2755C13.3626 15.2316 13.3626 15.2316 13.2283 15.1868C13.1087 14.9077 13.0509 14.6884 13.052 14.3838C12.9763 13.8475 12.5221 13.477 12.159 13.1092C12.0792 13.0283 11.9994 12.9473 11.9172 12.864C11.3451 12.3186 11.3451 12.3186 10.598 12.1699C10.4233 12.189 10.2492 12.2136 10.0751 12.2383C9.71345 12.2659 9.60146 12.2077 9.32232 11.9845C9.20341 11.8726 9.08694 11.7582 8.97328 11.641C8.31489 11.0538 8.31489 11.0538 7.67025 11.5814ZM30.5142 12.2615C30.6373 12.5383 30.7802 12.7272 30.9937 12.9412C31.0552 13.0032 31.1167 13.0653 31.1801 13.1293C31.2465 13.1953 31.3129 13.2614 31.3813 13.3294C31.4495 13.3978 31.5177 13.4661 31.588 13.5366C31.732 13.6807 31.8763 13.8247 32.0207 13.9684C32.2426 14.1893 32.4635 14.4112 32.6843 14.6331C32.8243 14.773 32.9643 14.9127 33.1044 15.0525C33.1708 15.1192 33.2371 15.186 33.3056 15.2548C33.3671 15.3157 33.4286 15.3767 33.492 15.4395C33.5462 15.4936 33.6004 15.5476 33.6562 15.6033C33.7868 15.7377 33.7868 15.7377 33.9714 15.7187C34.2555 15.0915 34.3627 14.4971 34.1792 13.8197C33.859 13.0191 33.2702 12.4239 32.4921 12.0621C31.7802 11.9009 31.1752 11.9622 30.5142 12.2615ZM4.45233 12.7047C3.47175 14.6201 2.68323 16.5198 2.20848 18.6274C2.18699 18.7224 2.1655 18.8174 2.14336 18.9153C1.8427 20.3115 1.75959 21.6642 1.76525 23.0874C1.76542 23.1716 1.76558 23.2558 1.76574 23.3426C1.76972 24.5727 1.80945 25.7686 2.05889 26.9767C2.07363 27.0535 2.08838 27.1303 2.10356 27.2095C2.72036 30.3934 4.01376 33.4778 6.04796 36.0186C6.10487 36.0924 6.16177 36.1663 6.2204 36.2423C6.69189 36.8474 7.2038 37.4135 7.73223 37.9688C7.78004 38.0192 7.82785 38.0695 7.87711 38.1214C8.60563 38.8832 9.36646 39.5593 10.2143 40.185C10.265 40.2229 10.3158 40.2608 10.368 40.2998C13.1187 42.3498 16.3143 43.7045 19.6994 44.2627C19.7885 44.2776 19.7885 44.2776 19.8794 44.2927C24.1006 44.9708 28.4838 44.2268 32.337 42.4233C32.4061 42.391 32.4752 42.3586 32.5464 42.3254C32.9283 42.1405 33.1846 41.9668 33.5282 41.692C33.0894 41.2532 32.6506 40.8144 32.1985 40.3623C32.0665 40.4191 31.9345 40.4758 31.7986 40.5344C29.9535 41.3209 28.1451 41.9445 26.1706 42.3125C26.0002 42.3454 26.0002 42.3454 25.8264 42.379C25.0437 42.5028 24.2543 42.512 23.4634 42.5207C23.3334 42.5222 23.2034 42.5242 23.0735 42.5268C22.8892 42.5299 22.7051 42.5306 22.5209 42.5306C22.4129 42.5314 22.305 42.5321 22.1937 42.5328C21.8627 42.4816 21.7587 42.4011 21.561 42.1352C21.5167 41.8692 21.5167 41.8692 21.561 41.6033C21.7525 41.3514 21.856 41.2587 22.1715 41.206C22.2701 41.2064 22.3687 41.2068 22.4703 41.2072C22.5813 41.2062 22.6923 41.2052 22.8067 41.2042C22.8655 41.2043 22.9243 41.2044 22.9849 41.2045C25.2498 41.2032 29.1916 41.0186 30.9226 39.3375C30.9633 39.2954 31.0041 39.2533 31.0461 39.2099C30.579 38.7134 30.1074 38.2217 29.6323 37.7328C29.4715 37.5661 29.3116 37.3985 29.1529 37.2297C28.9239 36.9867 28.6913 36.7476 28.4577 36.5089C28.388 36.4333 28.3184 36.3577 28.2466 36.2798C27.9392 35.972 27.7305 35.7727 27.2907 35.7105C26.9839 35.709 26.9839 35.709 26.6927 35.738C26.3265 35.759 26.1349 35.6595 25.816 35.4867C25.4403 35.2938 25.1461 35.3042 24.7339 35.3378C23.9493 35.2479 23.4373 34.6731 22.9099 34.1387C22.7803 34.0079 22.6486 33.8793 22.5167 33.7507C21.8185 33.0572 21.8185 33.0572 21.6399 32.5652C21.5381 32.2869 21.5381 32.2869 21.3099 32.1119C21.1743 32.0612 21.0383 32.0112 20.9022 31.9618C20.4649 31.7514 20.1414 31.3843 19.8055 31.041C19.6778 30.9109 19.5479 30.7834 19.4176 30.6559C19.0314 30.2706 18.7073 29.9177 18.4875 29.4124C18.3324 29.0539 18.3324 29.0539 17.9639 28.8888C17.8726 28.8642 17.8726 28.8642 17.7795 28.8391C17.3358 28.6479 17.0012 28.2436 16.6668 27.9023C16.5309 27.7641 16.3928 27.6283 16.2544 27.4927C15.5227 26.7626 15.5227 26.7626 15.3489 26.2738C15.2601 26.0326 15.2169 25.9371 14.9969 25.7989C14.8451 25.7316 14.6928 25.6653 14.5402 25.5998C14.0954 25.3667 13.7595 25.0027 13.4114 24.6469C13.2835 24.5166 13.1534 24.3889 13.0229 24.2613C12.3351 23.575 12.3351 23.575 12.1611 23.086C12.071 22.8444 12.0262 22.7462 11.8056 22.6075C11.6539 22.5403 11.5018 22.474 11.3494 22.4085C10.9032 22.1752 10.5651 21.8117 10.2153 21.4557C10.0866 21.3252 9.95543 21.1976 9.8239 21.07C9.13066 20.3818 9.13066 20.3818 9.00894 19.8837C8.96757 19.6892 8.96757 19.6892 8.88463 19.5305C8.72652 19.4495 8.72652 19.4495 8.53316 19.4096C7.89578 19.255 7.49802 18.7318 7.06185 18.2728C6.97165 18.1799 6.88134 18.0872 6.79089 17.9946C6.57133 17.7692 6.35352 17.5422 6.13661 17.3143C5.94658 17.3851 5.94658 17.3851 5.89458 17.56C5.87492 17.6279 5.85526 17.6959 5.835 17.7659C5.81291 17.8419 5.79081 17.9179 5.76804 17.9963C5.74523 18.0784 5.72242 18.1605 5.69892 18.2451C5.67542 18.3287 5.65192 18.4123 5.62771 18.4984C5.48288 19.0271 5.35721 19.5559 5.26123 20.0956C5.25061 20.155 5.23999 20.2143 5.22905 20.2755C5.16756 20.6505 5.15267 21.0125 5.1615 21.392C5.22218 21.378 5.28286 21.3639 5.34537 21.3494C6.15177 21.2063 6.85535 21.2224 7.55494 21.658C7.68658 21.7019 7.68658 21.7019 7.82088 21.7466C7.91437 21.9031 7.91437 21.9031 7.99817 22.1012C8.02948 22.1702 8.06079 22.2392 8.09305 22.3104C8.1239 22.3803 8.15476 22.4502 8.18654 22.5223C8.21785 22.5931 8.24916 22.664 8.28142 22.737C8.30496 22.7904 8.3285 22.8439 8.35275 22.899C8.41926 22.9003 8.48576 22.9015 8.55429 22.9028C9.2958 22.9374 9.93599 23.0517 10.4699 23.6033C10.7425 23.9708 10.8582 24.2803 10.9179 24.7329C10.9669 25.0968 11.0175 25.2566 11.3113 25.4808C11.366 25.5211 11.4208 25.5613 11.4772 25.6027C11.839 25.9121 11.9614 26.3335 12.0208 26.7932C12.0453 27.4137 11.9369 27.8593 11.6327 28.3951C11.5834 28.4842 11.5342 28.5733 11.4834 28.6652C11.0783 29.3795 11.0783 29.3795 10.8148 29.6953C10.6284 29.8948 10.6284 29.8948 10.6686 30.1735C10.7337 30.4255 10.7337 30.4255 10.8404 30.6057C10.9645 30.8788 10.945 31.1134 10.9235 31.409C10.7462 31.675 10.7462 31.675 10.4526 31.7636C10.1257 31.7636 10.1257 31.7636 9.88744 31.5808C9.68244 31.3204 9.68244 31.3204 9.53086 31.0438C9.3498 30.7642 9.3498 30.7642 9.04348 30.7118C8.93393 30.7072 8.82437 30.7026 8.71149 30.6978C8.6237 30.693 8.6237 30.693 8.53414 30.6881C8.34812 30.6786 8.16218 30.6725 7.97601 30.6666C7.84949 30.6607 7.72299 30.6546 7.59649 30.6483C7.28723 30.6332 6.97794 30.6214 6.66848 30.6112C7.34362 32.1799 8.26503 33.5353 9.32786 34.8662C9.54337 34.8773 9.54337 34.8773 9.77109 34.7776C9.88144 34.5395 9.9588 34.3289 10.0315 34.0795C10.591 32.3501 10.591 32.3501 11.2926 31.9288C11.7787 31.7002 12.1289 31.661 12.6521 31.7304C12.9987 31.7727 13.1879 31.7713 13.4887 31.5919C13.9447 31.3251 14.3987 31.333 14.9126 31.409C15.3828 31.5623 15.7093 31.7284 16.0026 32.1334C16.223 32.4171 16.223 32.4171 16.5709 32.4236C16.6923 32.4162 16.8136 32.4066 16.9348 32.3952C17.4924 32.3705 17.9302 32.3621 18.3697 32.7387C18.8677 33.2154 19.0477 33.7409 19.0789 34.423C19.0475 35.0323 18.8044 35.5049 18.3697 35.93C18.0111 36.1844 17.6771 36.2854 17.2451 36.34C17.0411 36.3696 17.0411 36.3696 16.8628 36.4618C16.7204 36.6737 16.6281 36.8875 16.5293 37.1225C16.3193 37.5544 15.9886 37.8012 15.5521 37.983C15.1398 38.0907 14.7536 38.0567 14.3308 38.0377C13.9914 38.0597 13.7856 38.1533 13.4942 38.3234C13.8677 38.723 14.2872 38.9381 14.7685 39.1877C14.8588 39.2346 14.9491 39.2814 15.0421 39.3297C16.2854 39.9598 17.5888 40.4187 18.9421 40.7494C19.53 40.898 19.53 40.898 19.6994 41.1601C19.741 41.3318 19.741 41.3318 19.7438 41.5147C19.7465 41.575 19.7492 41.6353 19.7521 41.6975C19.6994 41.8692 19.6994 41.8692 19.505 42.016C18.7976 42.3549 17.7251 41.8302 17.029 41.5922C16.9241 41.5565 16.8191 41.5209 16.711 41.4841C14.7139 40.7935 12.8355 39.84 11.1894 38.5007C11.1103 38.4384 11.0313 38.3761 10.9498 38.312C9.11536 36.847 7.58201 35.1276 6.40254 33.0933C6.34667 33.0035 6.29079 32.9137 6.23322 32.8211C4.48475 29.936 3.72333 26.5239 3.721 23.1816C3.72092 23.0657 3.72092 23.0657 3.72082 22.9475C3.72225 21.7878 3.76648 20.6681 4.0091 19.5305C4.02384 19.4569 4.03859 19.3834 4.05377 19.3076C4.31612 18.0163 4.64979 16.6146 5.2603 15.44C5.35471 15.2742 5.35471 15.2742 5.33325 15.0649C5.22128 14.7514 5.02203 14.5522 4.80692 14.3004C4.63405 13.9564 4.61014 13.6801 4.61854 13.2976C4.62014 13.2028 4.62174 13.1081 4.62339 13.0105C4.62545 12.9388 4.62751 12.8672 4.62963 12.7934C4.57112 12.7641 4.51261 12.7349 4.45233 12.7047ZM5.51608 22.9877C5.38424 23.2514 5.38921 23.4019 5.42744 23.6968C5.54309 23.8695 5.54309 23.8695 5.68784 24.0403C5.98656 24.412 6.05556 24.6364 6.04796 25.1152C5.93831 25.4557 5.81839 25.6908 5.59365 25.9684C5.40952 26.2016 5.3462 26.3258 5.33879 26.6221C5.50048 26.9994 5.69795 27.135 6.04796 27.3313C6.25295 27.4643 6.25295 27.4643 6.40254 27.6859C6.41639 27.9347 6.4077 28.1787 6.39874 28.4276C6.40359 28.7253 6.46913 28.8835 6.66848 29.1042C7.18186 29.4709 7.92802 29.3811 8.53005 29.3702C8.43869 29.058 8.33879 28.8161 8.16438 28.5391C7.95238 28.1805 7.94323 27.9207 7.99817 27.5086C8.19209 27.2699 8.3159 27.248 8.61869 27.2039C8.95395 27.2528 9.0217 27.3422 9.23921 27.5973C9.34158 27.7785 9.4375 27.9635 9.52731 28.1513C9.57348 28.2468 9.61964 28.3423 9.66721 28.4408C9.70149 28.5134 9.73577 28.5861 9.77109 28.661C10.0453 28.4071 10.2327 28.1565 10.4138 27.8299C10.4599 27.7488 10.5061 27.6677 10.5537 27.5841C10.6708 27.2992 10.6872 27.1047 10.6575 26.7994C10.4769 26.5007 10.3393 26.3744 10.0259 26.2177C9.73997 26.0747 9.69855 26.0272 9.5938 25.7357C9.59207 25.5033 9.59207 25.5033 9.61042 25.2537C9.61311 24.9187 9.60437 24.7806 9.44421 24.478C9.04518 24.2597 8.72081 24.3009 8.27346 24.318C7.85914 24.317 7.61102 24.1961 7.32225 23.9074C7.16951 23.6435 7.05425 23.3694 6.93996 23.087C6.84005 22.8876 6.75635 22.7692 6.57984 22.6331C6.08465 22.5781 5.82873 22.5625 5.51608 22.9877ZM34.4586 28.963C34.368 29.0541 34.2777 29.1456 34.1875 29.2372C34.1414 29.2837 34.0953 29.3302 34.0478 29.3781C33.9335 29.4935 33.8195 29.6091 33.7055 29.7248C34.0463 30.1319 34.3989 30.5197 34.775 30.8944C34.8258 30.9454 34.8767 30.9963 34.929 31.0488C35.0948 31.2151 35.261 31.381 35.4272 31.5468C35.5432 31.663 35.6593 31.7792 35.7754 31.8953C36.0175 32.1376 36.2599 32.3797 36.5023 32.6218C36.8134 32.9324 37.1241 33.2434 37.4347 33.5545C37.6738 33.7939 37.9131 34.0331 38.1524 34.2722C38.2671 34.3869 38.3818 34.5016 38.4964 34.6164C38.6559 34.7762 38.8158 34.9356 38.9757 35.0951C39.0468 35.1665 39.0468 35.1665 39.1194 35.2393C39.4707 35.5888 39.4707 35.5888 39.9439 35.6917C40.2626 35.6894 40.2626 35.6894 40.4814 35.5255C40.6821 35.2124 40.6871 35.0558 40.6199 34.6889C40.1316 33.9773 39.4072 33.3748 38.7978 32.7664C38.6816 32.6502 38.5654 32.5339 38.4493 32.4177C38.2073 32.1755 37.9651 31.9336 37.7229 31.6917C37.4116 31.381 37.1008 31.0699 36.7901 30.7587C36.5511 30.5193 36.3118 30.2801 36.0724 30.041C35.9576 29.9262 35.8429 29.8114 35.7282 29.6966C35.5689 29.537 35.4093 29.3777 35.2496 29.2185C35.1781 29.1468 35.1781 29.1468 35.1053 29.0737C34.7986 28.7027 34.7986 28.7027 34.4586 28.963ZM30.2815 30.3896C30.2413 30.4335 30.2011 30.4774 30.1597 30.5226C30.2565 30.7683 30.3549 30.9989 30.481 31.2317C30.6239 31.5459 30.589 31.7825 30.5548 32.1219C30.5509 32.6273 30.643 32.8653 30.9772 33.2439C31.1476 33.414 31.3189 33.5793 31.4949 33.7433C31.5866 33.8328 31.678 33.9226 31.7692 34.0126C32.008 34.2471 32.2501 34.4779 32.4932 34.7081C32.7412 34.9443 32.986 35.1839 33.2311 35.4232C33.7111 35.8909 34.1947 36.3548 34.6806 36.8164C35.0434 36.6483 35.311 36.4064 35.6003 36.135C35.6515 36.0874 35.7026 36.0398 35.7553 35.9908C36.1027 35.6643 36.4223 35.3284 36.7195 34.9549C36.5869 34.6495 36.4115 34.442 36.1823 34.202C36.1079 34.1239 36.0336 34.0459 35.957 33.9654C35.6144 33.6114 35.2709 33.2584 34.9256 32.9071C34.7439 32.7218 34.564 32.5351 34.3854 32.3468C34.1688 32.1185 33.9494 31.8932 33.7278 31.6697C33.6041 31.5435 33.4832 31.4145 33.3624 31.2854C32.9221 30.8433 32.9221 30.8433 32.3433 30.6561C32.0408 30.6564 32.0408 30.6564 31.7569 30.6919C31.3652 30.7035 31.1041 30.5483 30.7736 30.3536C30.5441 30.2232 30.4787 30.2076 30.2815 30.3896ZM13.8987 32.9548C13.6715 33.1819 13.6715 33.1819 13.3668 33.2706C13.0066 33.2706 12.8337 33.1688 12.5191 33.0047C12.2424 33.0112 12.1161 33.0641 11.8931 33.2263C11.6045 33.5985 11.3667 34.0347 11.3667 34.5116C11.4215 34.5052 11.4762 34.4988 11.5326 34.4922C11.9181 34.45 12.3032 34.4136 12.6909 34.4008C12.7853 34.3974 12.7853 34.3974 12.8817 34.3939C13.1064 34.4325 13.1822 34.5076 13.3169 34.6889C13.3515 35.076 13.358 35.2478 13.1396 35.5754C12.973 35.6381 12.973 35.6381 12.7733 35.6789C12.7019 35.6941 12.6304 35.7092 12.5569 35.7248C12.4822 35.7395 12.4076 35.7542 12.3307 35.7693C12.2554 35.785 12.1801 35.8007 12.1025 35.8169C11.9166 35.8556 11.7303 35.8929 11.544 35.93C11.9964 36.6184 11.9964 36.6184 12.6465 37.0768C12.9465 37.0841 13.0778 36.9926 13.3169 36.8164C13.3553 36.7671 13.3937 36.7177 13.4333 36.6668C13.6523 36.4964 13.8497 36.5223 14.1203 36.5238C14.292 36.5505 14.292 36.5505 14.558 36.7278C14.9676 36.7111 14.9676 36.7111 15.3232 36.529C15.4733 36.3361 15.5114 36.1728 15.5663 35.9355C15.6501 35.6406 15.7018 35.4967 15.9043 35.2596C16.2187 35.0989 16.5162 35.0666 16.8628 35.0435C17.2499 35.0129 17.2499 35.0129 17.5609 34.8053C17.6923 34.535 17.7039 34.3656 17.6606 34.0684C17.5332 33.845 17.5332 33.845 17.306 33.7138C16.8932 33.6766 16.8932 33.6766 16.5082 33.8025C16.1015 33.8521 15.7902 33.8401 15.4167 33.664C15.1313 33.4051 15.0031 33.1666 14.8239 32.8274C14.4533 32.642 14.1915 32.662 13.8987 32.9548ZM29.4058 34.0158C29.3152 34.107 29.2248 34.1984 29.1347 34.29C29.0886 34.3365 29.0425 34.383 28.995 34.431C28.8807 34.5463 28.7666 34.6619 28.6527 34.7776C28.9935 35.1848 29.3461 35.5726 29.7222 35.9472C29.773 35.9982 29.8238 36.0492 29.8762 36.1017C30.042 36.2679 30.2082 36.4338 30.3743 36.5997C30.4904 36.7158 30.6065 36.832 30.7226 36.9481C30.9647 37.1904 31.207 37.4326 31.4495 37.6746C31.7606 37.9852 32.0713 38.2962 32.3819 38.6073C32.621 38.8467 32.8603 39.0859 33.0996 39.325C33.2143 39.4397 33.329 39.5544 33.4436 39.6692C33.6031 39.829 33.763 39.9885 33.9229 40.1479C33.994 40.2193 33.994 40.2193 34.0666 40.2922C34.4179 40.6416 34.4179 40.6416 34.8911 40.7445C35.2098 40.7422 35.2098 40.7422 35.4285 40.5783C35.6292 40.2652 35.6343 40.1086 35.5671 39.7417C35.0787 39.0301 34.3544 38.4276 33.745 37.8192C33.6288 37.703 33.5126 37.5868 33.3965 37.4705C33.1545 37.2284 32.9123 36.9864 32.67 36.7445C32.3588 36.4338 32.048 36.1227 31.7373 35.8115C31.4982 35.5721 31.259 35.3329 31.0196 35.0938C30.9048 34.9791 30.7901 34.8643 30.6754 34.7494C30.5161 34.5898 30.3565 34.4305 30.1967 34.2713C30.1253 34.1996 30.1253 34.1996 30.0525 34.1265C29.7458 33.7555 29.7458 33.7555 29.4058 34.0158ZM37.5704 36.0436C37.5232 36.0959 37.4761 36.1482 37.4276 36.2021C37.3486 36.2885 37.3486 36.2885 37.2681 36.3767C37.1858 36.4682 37.1858 36.4682 37.1017 36.5616C36.701 37.0057 36.295 37.4107 35.833 37.7915C35.9651 38.0674 36.1073 38.2696 36.315 38.4952C36.5432 38.7495 36.7355 38.995 36.8967 39.2985C37.2355 39.1113 37.4943 38.9011 37.768 38.6281C37.8461 38.5502 37.9243 38.4723 38.0048 38.392C38.0853 38.3108 38.1657 38.2297 38.2486 38.1461C38.3304 38.065 38.4122 37.9839 38.4965 37.9003C38.5742 37.8223 38.6519 37.7444 38.732 37.6641C38.803 37.5929 38.874 37.5217 38.9471 37.4484C39.1305 37.2643 39.1305 37.2643 39.2015 36.9937C39.1427 36.9541 39.0838 36.9144 39.0232 36.8736C38.3051 36.3819 38.3051 36.3819 38.0491 36.1128C37.9906 36.0525 37.9321 35.9921 37.8718 35.93C37.6883 35.91 37.6883 35.91 37.5704 36.0436Z" fill="black"/>
<path d="M22.1825 15.2753C22.3543 15.3694 22.3543 15.3694 22.4484 15.5412C22.4944 16.1014 22.409 16.4253 22.116 16.8986C22.0852 16.9523 22.0543 17.0061 22.0225 17.0615C21.8467 17.3574 21.6845 17.5833 21.3847 17.7573C21.1243 17.8017 21.1243 17.8017 20.8528 17.7573C20.598 17.569 20.598 17.569 20.4096 17.3141C20.3336 16.8062 20.5388 16.4746 20.7863 16.0509C20.839 15.9553 20.839 15.9553 20.8926 15.8577C21.23 15.2671 21.4824 15.1098 22.1825 15.2753Z" fill="black"/>
<path d="M31.4897 24.6716C31.7445 24.86 31.7445 24.86 31.9329 25.1148C31.9991 25.6013 31.8301 25.9165 31.6005 26.3282C31.5696 26.387 31.5388 26.4457 31.507 26.5063C31.3354 26.8219 31.1863 27.0647 30.8692 27.2423C30.6088 27.2866 30.6088 27.2866 30.3373 27.2423C30.0579 27.0358 29.9112 26.9122 29.8584 26.5629C29.9069 26.1612 30.0727 25.8806 30.2764 25.5359C30.3301 25.4402 30.3301 25.4402 30.3849 25.3427C30.666 24.8546 30.8766 24.5858 31.4897 24.6716Z" fill="black"/>
<path d="M26.437 29.7243C26.7163 29.9308 26.8631 30.0544 26.9159 30.4037C26.8674 30.8055 26.7015 31.086 26.4979 31.4308C26.4621 31.4945 26.4263 31.5583 26.3893 31.624C26.2137 31.9289 26.1165 32.095 25.8164 32.2951C25.5616 32.3338 25.5616 32.3338 25.2846 32.2951C25.0052 32.0886 24.8584 31.965 24.8057 31.6157C24.8541 31.2139 25.02 30.9334 25.2236 30.5886C25.2774 30.493 25.2774 30.493 25.3322 30.3954C25.6132 29.9073 25.8238 29.6385 26.437 29.7243Z" fill="black"/>
<path d="M10.6574 13.9455C10.9368 14.152 11.0836 14.2756 11.1363 14.6249C11.0879 15.0266 10.922 15.3072 10.7184 15.6519C10.6826 15.7157 10.6467 15.7794 10.6098 15.8451C10.4342 16.1501 10.337 16.3162 10.0369 16.5162C9.67913 16.5707 9.5475 16.5467 9.25019 16.3334C9.00972 16.001 9.01898 15.8576 9.06182 15.4525C9.16443 15.2048 9.29954 14.9852 9.4441 14.7599C9.47993 14.7008 9.51575 14.6417 9.55266 14.5807C9.85328 14.0963 10.0686 13.8631 10.6574 13.9455Z" fill="black"/>
<path d="M24.8743 18.3335C25.1956 18.3778 25.1956 18.3778 25.456 18.5662C25.6773 18.8746 25.6807 18.9803 25.6389 19.3529C25.534 19.5789 25.4295 19.7791 25.3009 19.9901C25.2693 20.0446 25.2377 20.0992 25.2051 20.1554C24.8166 20.8134 24.8166 20.8134 24.4089 20.9375C24.0786 20.9507 23.9474 20.8822 23.6886 20.6826C23.5506 20.4066 23.576 20.1907 23.6 19.8848C23.7045 19.6535 23.8061 19.4555 23.938 19.2421C23.9696 19.188 24.0012 19.1338 24.0337 19.078C24.4382 18.3981 24.4382 18.3981 24.8743 18.3335Z" fill="black"/>
<path d="M20.1426 23.4305C20.4279 23.5616 20.4844 23.6631 20.5969 23.9569C20.6545 24.572 20.1845 25.2277 19.8379 25.7076C19.5474 25.9697 19.3797 26.0152 18.9902 26.0013C18.7298 25.8739 18.7298 25.8739 18.547 25.6467C18.4921 25.088 18.5876 24.7606 18.8794 24.2893C18.9102 24.2355 18.9411 24.1818 18.9729 24.1264C19.2797 23.61 19.5236 23.3532 20.1426 23.4305Z" fill="black"/>
<path d="M17.1298 20.3281C17.3718 20.5312 17.3928 20.6514 17.4224 20.966C17.3915 21.3564 17.2629 21.619 17.0633 21.9459C17.0324 22.0001 17.0016 22.0543 16.9698 22.1101C16.7941 22.4081 16.6337 22.6357 16.332 22.8102C16.0716 22.8546 16.0716 22.8546 15.8001 22.8102C15.5452 22.6219 15.5452 22.6219 15.3569 22.367C15.2809 21.8591 15.4861 21.5274 15.7336 21.1038C15.7862 21.0082 15.7862 21.0082 15.8399 20.9106C16.1738 20.326 16.4338 20.151 17.1298 20.3281Z" fill="black"/>
<path d="M13.8492 17.1367C14.078 17.2993 14.1761 17.4205 14.2779 17.6807C14.2998 18.0622 14.1362 18.3236 13.96 18.6548C13.928 18.7182 13.896 18.7816 13.8631 18.847C13.4965 19.5575 13.4965 19.5575 13.1068 19.6909C12.8215 19.7112 12.6785 19.6735 12.4309 19.5302C12.2292 19.2882 12.1597 19.1625 12.1816 18.8459C12.2673 18.4998 12.4173 18.2165 12.5971 17.9124C12.6439 17.8294 12.6439 17.8294 12.6916 17.7448C12.9997 17.2134 13.2322 17.0718 13.8492 17.1367Z" fill="black"/>
<path d="M15.7105 8.89338C15.9654 9.08175 15.9654 9.08175 16.1538 9.33661C16.2297 9.84449 16.0245 10.1762 15.777 10.5998C15.7419 10.6636 15.7069 10.7273 15.6707 10.793C15.3649 11.3284 15.3649 11.3284 15.0014 11.4641C14.4608 11.4451 14.4608 11.4451 14.2091 11.2259C14.0843 10.9543 14.0879 10.7881 14.1149 10.489C14.2045 10.2495 14.3229 10.0306 14.4473 9.80754C14.4782 9.74875 14.509 9.68996 14.5408 9.62938C14.8294 9.09871 15.0773 8.79 15.7105 8.89338Z" fill="black"/>
<path d="M28.475 21.569C28.7244 21.7685 28.7409 21.8346 28.8074 22.1674C28.792 22.8328 28.3144 23.437 27.9431 23.9624C27.6721 24.0979 27.4441 24.0717 27.1453 24.0511C26.9348 23.9514 26.9348 23.9514 26.7907 23.7851C26.6511 23.35 26.7356 23.1041 26.9334 22.7153C26.9668 22.6533 27.0001 22.5914 27.0345 22.5275C27.0665 22.4645 27.0985 22.4014 27.1315 22.3365C27.4566 21.7105 27.7151 21.379 28.475 21.569Z" fill="black"/>
<path d="M22.969 26.5884C23.233 26.5965 23.3255 26.6159 23.5563 26.7601C23.7412 27.0606 23.7196 27.2461 23.6892 27.5967C23.6 27.8417 23.4799 28.0629 23.3513 28.2893C23.3197 28.3484 23.2881 28.4075 23.2555 28.4685C23.0976 28.7557 22.991 28.9192 22.7141 29.1037C22.4467 29.1334 22.2622 29.1533 22.005 29.1037C21.7778 28.9209 21.7778 28.9209 21.6504 28.6605C21.6761 28.1547 21.8322 27.8134 22.0881 27.3917C22.12 27.3368 22.152 27.2819 22.1849 27.2253C22.5357 26.6303 22.5357 26.6303 22.969 26.5884Z" fill="black"/>
<path d="M18.9904 12.0842C19.2241 12.2199 19.2483 12.3236 19.327 12.5811C19.3518 12.9947 19.2091 13.2487 19.0181 13.6078C18.9713 13.7024 18.9713 13.7024 18.9234 13.7988C18.7552 14.1257 18.6166 14.3876 18.2813 14.5663C17.9373 14.6093 17.7426 14.6167 17.4447 14.4333C17.2532 14.1269 17.2542 13.8509 17.3062 13.5026C17.4079 13.2488 17.5449 13.0274 17.694 12.7989C17.7306 12.7395 17.7671 12.68 17.8048 12.6187C18.1355 12.0912 18.3743 12.0161 18.9904 12.0842Z" fill="black"/>
<path d="M22.0037 6.60989C22.3879 6.7551 22.6526 7.06206 22.8915 7.38658C23.0106 7.75629 23.0246 7.90983 22.8638 8.26196C22.6802 8.49315 22.5925 8.52839 22.3042 8.5833C21.792 8.50741 21.4673 8.1235 21.1442 7.73701C20.9796 7.48765 20.9873 7.32427 21.0299 7.032C21.3181 6.6766 21.5387 6.53468 22.0037 6.60989Z" fill="black"/>
<path d="M20.1868 37.082C20.4971 37.1707 20.4971 37.1707 20.7187 37.359C20.8517 37.6139 20.8517 37.6139 20.8738 37.9075C20.71 38.3908 20.3389 38.8011 19.8766 39.0322C19.5173 39.0801 19.3857 39.0626 19.0898 38.8439C18.9014 38.589 18.9014 38.589 18.835 38.3397C18.9722 37.7564 19.5678 37.082 20.1868 37.082Z" fill="black"/>
<path d="M23.422 36.8164C23.7679 37.0815 24.0556 37.3835 24.2198 37.7915C24.2032 38.0616 24.1748 38.2529 24.0314 38.484C23.7521 38.6609 23.5771 38.6888 23.2447 38.6779C22.9762 38.5016 22.7581 38.2878 22.5355 38.0574C22.4604 37.9907 22.4604 37.9907 22.3838 37.9227C22.2696 37.7915 22.2696 37.7915 22.2363 37.4867C22.2706 37.1614 22.3035 37.0398 22.5355 36.8164C22.8847 36.7 23.065 36.7212 23.422 36.8164Z" fill="black"/>
<path d="M38.049 21.6968C38.1075 21.6949 38.1661 21.6929 38.2263 21.6909C38.5103 21.7802 38.6047 21.9411 38.7582 22.1899C38.7991 22.4728 38.7991 22.4728 38.7915 22.7716C38.7897 22.9199 38.7897 22.9199 38.788 23.0712C38.7596 23.3294 38.7202 23.4807 38.5809 23.6969C38.3437 23.8814 38.2159 23.8738 37.9105 23.8631C37.6058 23.7855 37.6058 23.7855 37.4562 23.6449C37.2937 23.346 37.3014 23.1046 37.3011 22.7661C37.2994 22.65 37.2977 22.5339 37.2959 22.4143C37.3399 22.1013 37.3399 22.1013 37.4974 21.8855C37.7039 21.74 37.7999 21.6963 38.049 21.6968Z" fill="black"/>
<path d="M25.489 6.69287C25.8159 6.7649 25.8159 6.7649 26.0375 6.90341C26.2308 7.21754 26.2373 7.37575 26.1705 7.74C25.9246 8.10165 25.6475 8.38418 25.284 8.62646C24.9439 8.66357 24.7422 8.6749 24.4474 8.49349C24.2942 8.24827 24.2314 8.05258 24.2463 7.76112C24.4116 7.23773 24.9244 6.72158 25.489 6.69287Z" fill="black"/>
</g>
<defs>
<clipPath id="clip0_358_1048">
<rect width="45.3867" height="45.3867" fill="white" transform="translate(0.374023 0.47168)"/>
</clipPath>
</defs>
</svg>
