<svg width="46" height="46" viewBox="0 0 46 46" fill="none" xmlns="http://www.w3.org/2000/svg">
<g clip-path="url(#clip0_358_1067)">
<path d="M22.2555 6.70513C22.9365 6.83665 23.5161 6.77834 24.1908 6.63242C25.7483 6.30452 26.8478 6.67299 28.2463 7.36513C28.7029 7.55701 29.151 7.57275 29.6393 7.58889C31.044 7.63727 31.8593 7.9694 32.9224 8.89843C33.5161 9.40812 34.1298 9.65109 34.8691 9.88531C34.9268 9.90373 34.9844 9.92214 35.0437 9.94112C35.2062 9.99231 35.3696 10.0409 35.533 10.0893C35.7977 10.1808 35.9887 10.3092 36.212 10.4771C36.7854 10.875 37.4625 11.0002 38.1303 11.1644C39.7394 11.5669 39.7394 11.5669 40.2966 11.9068C40.4379 12.1893 40.4193 12.4859 40.3853 12.7933C40.2855 12.9651 40.2855 12.9651 40.1193 13.0592C39.6726 13.1749 39.3706 13.1122 38.9337 12.9761C38.8233 12.9424 38.7129 12.9087 38.5992 12.874C38.5158 12.8474 38.4324 12.8207 38.3464 12.7933C38.3978 12.8259 38.4492 12.8585 38.5021 12.8921C38.7369 13.0414 38.971 13.1916 39.2052 13.3418C39.286 13.3931 39.3669 13.4443 39.4502 13.4971C39.863 13.7628 40.2445 14.0119 40.5626 14.3889C40.5626 14.4474 40.5626 14.5059 40.5626 14.5662C40.6124 14.5772 40.6622 14.5882 40.7135 14.5995C41.8882 14.8877 43.0089 15.3994 44.1084 15.8959C43.5054 15.1039 42.7851 14.6333 41.9394 14.1299C41.8036 14.0344 41.8036 14.0344 41.715 13.8571C41.6838 13.5203 41.6682 13.3125 41.8479 13.0205C42.0901 12.8691 42.2731 12.81 42.5602 12.8255C43.4268 13.0494 44.2018 13.7743 44.8176 14.3889C44.877 14.4473 44.9364 14.5057 44.9976 14.5659C45.8353 15.4479 45.8518 16.4255 45.837 17.5802C45.8365 17.6547 45.836 17.7291 45.8355 17.8059C45.8254 19.1131 45.72 20.3785 45.4381 21.6579C45.42 21.7404 45.402 21.8229 45.3834 21.908C44.8572 24.2168 43.8924 26.4673 42.5128 28.395C42.452 28.4801 42.3912 28.5653 42.3286 28.653C41.1408 30.2743 39.785 31.7186 38.1691 32.9159C38.0699 32.9913 37.9706 33.0667 37.8713 33.142C34.7364 35.4867 34.7364 35.4867 33.3823 35.4867C33.3823 35.6037 33.3823 35.7207 33.3823 35.8412C33.2807 36.8733 32.6217 37.9347 31.8403 38.59C30.0911 39.9462 27.9413 39.8718 25.8252 39.8656C25.6057 39.8658 25.3863 39.8661 25.1668 39.8664C24.71 39.8668 24.2532 39.8662 23.7964 39.865C23.2162 39.8635 22.636 39.8643 22.0558 39.8659C21.6036 39.8669 21.1513 39.8666 20.6991 39.8659C20.4854 39.8657 20.2717 39.8659 20.058 39.8666C15.6524 39.8767 15.6524 39.8767 13.9688 38.3233C13.4519 37.7429 12.8789 36.9549 12.7935 36.1597C12.749 35.705 12.749 35.705 12.4847 35.3549C12.274 35.2486 12.0638 35.1665 11.8413 35.0878C11.6792 35.0227 11.5174 34.957 11.3558 34.8907C11.2329 34.8413 11.2329 34.8413 11.1075 34.791C9.80518 34.2398 8.55047 33.4149 7.49764 32.4727C7.38332 32.1499 7.37846 32.0115 7.51427 31.6971C7.68471 31.4855 7.76947 31.3946 8.02952 31.3203C8.51548 31.347 8.80294 31.5587 9.17084 31.8522C9.79696 32.3307 10.4453 32.7252 11.1414 33.093C11.2971 33.1754 11.4517 33.2597 11.6062 33.3443C14.4606 34.8514 17.5735 35.2344 20.753 35.2356C20.9377 35.2359 21.1224 35.2362 21.307 35.2365C21.693 35.237 22.0789 35.2372 22.4649 35.2372C22.9541 35.2371 23.4432 35.2383 23.9324 35.2399C24.3138 35.2409 24.6952 35.241 25.0765 35.241C25.2566 35.2411 25.4366 35.2415 25.6167 35.2422C27.1801 35.2477 28.7475 35.1865 30.2796 34.8495C30.4121 34.8207 30.4121 34.8207 30.5473 34.7914C32.7234 34.2996 34.8426 33.4202 36.6621 32.1181C36.7503 32.0557 36.8384 31.9933 36.9291 31.9291C40.7044 29.1753 43.3062 25.1286 44.1084 20.5055C44.1502 20.1805 44.1826 19.8578 44.1971 19.5304C44.1431 19.5734 44.0892 19.6163 44.0336 19.6606C40.8348 22.1068 36.3748 22.7677 32.4958 23.3422C32.4141 23.3545 32.3325 23.3669 32.2484 23.3797C31.6007 23.4767 31.0184 23.5436 30.3683 23.4308C30.1351 23.234 30.1084 23.1166 30.0636 22.8158C30.1134 22.4671 30.204 22.346 30.4569 22.1011C30.7103 22.0321 30.9258 21.9911 31.1838 21.9633C31.2921 21.9491 31.2921 21.9491 31.4026 21.9346C31.5582 21.9143 31.7139 21.8947 31.8697 21.8759C32.2838 21.8255 32.6969 21.768 33.1101 21.7105C33.1935 21.699 33.2769 21.6875 33.3629 21.6757C36.0066 21.3044 38.6452 20.6482 41.1016 19.6001C41.3319 19.5058 41.5663 19.4277 41.8036 19.3531C41.564 18.9114 41.2452 18.6178 40.8791 18.2797C40.3338 17.6665 40.0583 16.8939 39.7604 16.14C39.4475 15.3705 39.0753 15.0252 38.363 14.6161C37.4024 14.0609 36.8274 13.4964 36.2096 12.5757C35.6561 11.7763 35.1274 11.512 34.2022 11.2531C33.1297 10.9308 32.376 10.4972 31.5809 9.70074C30.9097 9.17135 30.2493 9.10777 29.4153 9.07572C28.5529 9.02594 27.862 8.94175 27.0884 8.5383C27.0051 8.49728 26.9218 8.45626 26.836 8.41399C26.6863 8.33969 26.5374 8.26369 26.39 8.18511C25.7472 7.87735 25.0886 7.99053 24.4179 8.1394C23.3589 8.36136 22.4092 8.29535 21.3593 8.06703C20.5893 7.91088 20.0826 8.0331 19.3762 8.36101C19.2504 8.41843 19.2504 8.41843 19.122 8.47701C18.9594 8.5513 18.797 8.62636 18.6352 8.70244C18.202 8.89082 17.8174 9.0023 17.3443 9.02205C17.1969 9.03019 17.1969 9.03019 17.0465 9.0385C16.8429 9.04847 16.6393 9.05748 16.4356 9.0655C15.4729 9.12178 14.8107 9.43053 14.1128 10.0841C13.3794 10.7309 12.6237 11.073 11.6862 11.3307C10.6308 11.6263 10.1737 12.129 9.57147 13.0205C9.21615 13.5371 8.86365 13.9259 8.32316 14.2504C8.21289 14.3198 8.10266 14.3893 7.99247 14.4589C7.80155 14.5777 7.60973 14.693 7.41558 14.8065C6.59627 15.3163 6.35835 16.0554 6.04053 16.932C5.68787 17.8694 5.01709 18.4909 4.30639 19.1758C8.25131 21.3571 13.2112 21.9084 17.6511 22.2479C17.7267 22.2537 17.8024 22.2595 17.8804 22.2655C19.2159 22.3641 20.5462 22.3859 21.8849 22.3775C21.9794 22.3769 22.0738 22.3763 22.1712 22.3757C23.0444 22.3696 23.9175 22.3595 24.7907 22.3482C25.276 22.3421 25.7612 22.3381 26.2465 22.3354C26.5171 22.3332 26.7875 22.3285 27.058 22.3237C27.2218 22.3226 27.3856 22.3217 27.5494 22.321C27.6236 22.319 27.6979 22.3169 27.7744 22.3149C28.1263 22.316 28.2903 22.3307 28.5527 22.5746C28.7131 22.8625 28.7393 23.0176 28.684 23.3422C28.5185 23.5463 28.3865 23.6682 28.1521 23.7854C27.9295 23.8063 27.7089 23.8223 27.4857 23.8341C27.4185 23.8379 27.3512 23.8416 27.2819 23.8454C26.5462 23.8833 25.811 23.8901 25.0745 23.8921C24.9275 23.8927 24.7805 23.8933 24.6336 23.8939C24.1665 23.8957 23.6994 23.8961 23.2323 23.8962C23.1528 23.8962 23.0732 23.8963 22.9913 23.8963C20.693 23.8969 18.4043 23.8898 16.1178 23.6306C15.9087 23.6069 15.6994 23.5844 15.4901 23.562C10.9962 23.0744 5.96421 22.3446 2.17889 19.7077C2.04725 19.6199 2.04725 19.6199 1.91295 19.5304C2.44196 22.3778 3.2267 25.1172 4.92691 27.5085C4.99045 27.5979 5.05398 27.6873 5.11944 27.7793C5.39566 28.1564 5.67837 28.5231 5.98859 28.8728C6.03311 28.9235 6.07763 28.9741 6.1235 29.0262C6.20976 29.1234 6.29717 29.2196 6.38589 29.3145C6.6815 29.6467 6.77638 29.9018 6.78848 30.3452C6.6194 30.6563 6.50912 30.7628 6.1735 30.8771C5.77757 30.8771 5.55865 30.7053 5.27526 30.438C2.08775 26.8748 0.392951 22.3366 0.361649 17.5746C0.360715 17.5014 0.359781 17.4281 0.358819 17.3527C0.345153 15.9703 0.662565 15.145 1.60269 14.1285C3.36531 12.429 6.0448 11.6853 8.34117 11.063C8.42613 11.0397 8.51109 11.0164 8.59862 10.9925C8.7823 10.9437 8.9674 10.9003 9.15283 10.8587C9.42471 10.7626 9.58991 10.664 9.82183 10.4996C10.3469 10.1329 10.9223 9.97429 11.5286 9.78627C12.3312 9.52551 12.9303 9.13003 13.5643 8.57709C14.4809 7.81482 15.268 7.64377 16.4242 7.60596C17.2409 7.57134 17.905 7.39974 18.6338 7.03132C19.878 6.40923 20.903 6.41263 22.2555 6.70513ZM7.07554 12.9148C6.99163 12.9435 6.90772 12.9721 6.82127 13.0016C6.68711 13.0493 6.68711 13.0493 6.55024 13.098C6.45869 13.1303 6.36714 13.1626 6.27281 13.1958C5.49408 13.477 4.76471 13.8123 4.04045 14.2116C3.95715 14.2561 3.87385 14.3005 3.78802 14.3463C2.95485 14.8138 2.28337 15.4089 1.82431 16.2505C2.11042 16.2505 2.22194 16.201 2.47357 16.0753C2.58746 16.0194 2.58746 16.0194 2.70364 15.9624C2.8251 15.902 2.8251 15.902 2.949 15.8405C3.53881 15.5506 4.12076 15.2947 4.74408 15.087C5.23334 14.9189 5.50956 14.7499 5.7784 14.301C6.02812 13.9414 6.42413 13.7336 6.78848 13.5025C6.87887 13.4442 6.96925 13.3859 7.06238 13.3259C7.29532 13.1766 7.52902 13.0287 7.76358 12.882C7.45324 12.7785 7.3772 12.8116 7.07554 12.9148ZM41.449 16.4278C41.6914 16.9749 41.9613 17.3397 42.3964 17.7464C42.9481 18.2735 42.9481 18.2735 43.0447 18.4666C43.4887 18.336 43.7111 18.0877 44.0198 17.7575C43.9538 17.4618 43.9538 17.4618 43.6402 17.3229C43.5161 17.2618 43.3914 17.2017 43.2663 17.1425C43.2019 17.1113 43.1376 17.0801 43.0713 17.048C42.8856 16.9584 42.6993 16.8702 42.5128 16.7824C42.4263 16.7411 42.3398 16.6999 42.2506 16.6574C41.8659 16.4779 41.8659 16.4779 41.449 16.4278ZM3.62493 17.0262C3.53245 17.0724 3.53245 17.0724 3.43811 17.1196C3.04035 17.3202 2.65255 17.5334 2.26754 17.7575C2.34994 17.8596 2.43322 17.9611 2.51685 18.0622C2.56313 18.1188 2.60941 18.1753 2.65709 18.2336C2.80015 18.4006 2.80015 18.4006 3.06535 18.4666C3.10192 18.4237 3.13848 18.3807 3.17616 18.3364C3.5174 17.9404 3.87097 17.5702 4.25307 17.2131C4.40469 17.0371 4.44853 16.9207 4.48368 16.6937C4.17032 16.6937 3.89988 16.8863 3.62493 17.0262ZM14.3234 36.0185C14.3665 36.7081 14.9631 37.2142 15.4474 37.646C15.98 38.0226 16.5072 38.211 17.1502 38.299C17.2263 38.3098 17.3024 38.3206 17.3808 38.3317C18.3907 38.4612 19.4045 38.4503 20.4209 38.4473C20.6369 38.4475 20.853 38.4477 21.069 38.4481C21.5187 38.4485 21.9685 38.4479 22.4182 38.4466C22.99 38.4451 23.5618 38.446 24.1335 38.4476C24.5787 38.4486 25.0238 38.4483 25.469 38.4476C25.6796 38.4474 25.8903 38.4476 26.1009 38.4482C28.7786 38.5089 28.7786 38.5089 31.0664 37.315C31.603 36.7487 31.603 36.7487 31.7866 36.0185C31.6932 36.0373 31.6932 36.0373 31.5979 36.0564C31.3027 36.115 31.0073 36.172 30.7118 36.2291C30.614 36.2487 30.5162 36.2684 30.4154 36.2886C28.7626 36.6043 27.0993 36.6665 25.4207 36.6626C25.2334 36.6627 25.0461 36.6629 24.8588 36.6631C24.4697 36.6634 24.0805 36.663 23.6914 36.6622C23.1985 36.6612 22.7057 36.6617 22.2129 36.6628C21.8271 36.6635 21.4413 36.6632 21.0555 36.6628C20.8741 36.6627 20.6926 36.6628 20.5111 36.6632C18.8559 36.6662 17.212 36.5902 15.5921 36.2291C15.4053 36.1889 15.2184 36.149 15.0315 36.1093C14.9129 36.0831 14.9129 36.0831 14.792 36.0564C14.5801 36.0104 14.5801 36.0104 14.3234 36.0185Z" fill="black"/>
<path d="M30.1015 10.7828C30.593 11.1648 30.8658 11.6538 30.9904 12.2614C31.0549 12.9106 30.9674 13.511 30.5873 14.0524C30.0671 14.6738 29.5906 14.9708 28.7825 15.0808C28.1103 15.1232 27.5932 14.9785 27.074 14.5454C26.4877 13.9767 26.2499 13.4814 26.1758 12.6659C26.2379 11.9577 26.4915 11.3474 27.0013 10.8431C27.9975 10.1461 29.0837 10.1017 30.1015 10.7828ZM27.8878 11.9955C27.6967 12.282 27.6203 12.4533 27.6274 12.7988C27.723 13.0985 27.8502 13.2746 28.065 13.5025C28.3522 13.6461 28.6411 13.6412 28.9515 13.5911C29.2003 13.4723 29.2937 13.3653 29.4834 13.1479C29.5954 12.7855 29.5963 12.5976 29.4723 12.2393C29.287 11.9675 29.1653 11.8562 28.8629 11.7296C28.4535 11.6784 28.2092 11.7349 27.8878 11.9955Z" fill="black"/>
<path d="M11.6458 15.3158C12.172 15.6814 12.4997 16.1566 12.641 16.7826C12.7306 17.3933 12.5993 17.9366 12.2864 18.4669C11.8705 18.9477 11.372 19.3028 10.7292 19.381C10.0162 19.4128 9.48071 19.2495 8.93448 18.7882C8.35539 18.0933 8.2282 17.5853 8.29733 16.694C8.42936 16.1173 8.6998 15.7075 9.17271 15.3476C9.98671 14.8755 10.8229 14.8508 11.6458 15.3158ZM9.80431 16.7826C9.69158 17.1473 9.67074 17.317 9.84864 17.658C10.1379 17.9038 10.3128 17.9416 10.6908 17.935C11.0019 17.7659 11.1084 17.6556 11.2226 17.32C11.2226 16.9951 11.1545 16.8597 10.9567 16.6053C10.4904 16.2944 10.1817 16.3738 9.80431 16.7826Z" fill="black"/>
<path d="M22.1244 14.7436C22.6009 15.1534 22.9124 15.625 23.0109 16.2506C23.0319 16.8377 22.9115 17.365 22.5677 17.8462C22.1117 18.3336 21.6588 18.5713 20.988 18.6409C20.4037 18.6503 19.9177 18.4825 19.4651 18.1121C19.0124 17.6384 18.746 17.1834 18.7227 16.522C18.7469 15.8285 18.9708 15.3265 19.4651 14.8322C20.2812 14.2581 21.2776 14.1858 22.1244 14.7436ZM20.418 15.9514C20.2254 16.2128 20.1742 16.3687 20.1742 16.6938C20.2931 16.9606 20.2931 16.9606 20.5288 17.137C20.8391 17.2035 20.8391 17.2035 21.1493 17.137C21.3654 16.9778 21.4709 16.8507 21.587 16.6107C21.5953 16.3391 21.4851 16.1996 21.3266 15.9846C20.979 15.7529 20.7677 15.6988 20.418 15.9514Z" fill="black"/>
<path d="M36.6183 15.6471C37.0677 15.9729 37.4668 16.3345 37.5941 16.8913C37.6903 17.554 37.5689 18.0616 37.2166 18.6278C36.7997 19.0331 36.3879 19.2352 35.8111 19.2726C35.3242 19.2551 34.8981 19.1607 34.5247 18.8356C34.0055 18.2583 33.8684 17.8519 33.8806 17.0727C33.9437 16.5341 34.1971 16.2227 34.5849 15.8632C35.2075 15.4481 35.9046 15.405 36.6183 15.6471ZM35.3329 17.1375C35.2812 17.3553 35.2812 17.3553 35.3329 17.5807C35.5464 17.7458 35.5464 17.7458 35.7761 17.8466C35.9224 17.7004 36.0687 17.5541 36.2193 17.4034C36.1185 17.1737 36.1185 17.1737 35.9534 16.9602C35.6444 16.9074 35.5577 16.9126 35.3329 17.1375Z" fill="black"/>
<path d="M16.4964 11.4192C16.5974 11.4171 16.5974 11.4171 16.7004 11.415C17.0332 11.4174 17.198 11.4241 17.4691 11.6301C17.6302 11.8538 17.6864 11.985 17.6931 12.2613C17.5494 12.5704 17.4481 12.6906 17.1613 12.8819C16.86 12.9116 16.86 12.9116 16.5075 12.9151C16.3916 12.9176 16.2757 12.9201 16.1564 12.9227C15.7855 12.8761 15.6403 12.7998 15.3883 12.5273C15.3326 12.35 15.3326 12.35 15.3385 12.1727C15.3384 12.1142 15.3382 12.0557 15.3381 11.9954C15.5071 11.3987 15.972 11.4085 16.4964 11.4192Z" fill="black"/>
<path d="M29.882 17.6133C30.0535 17.6116 30.0535 17.6116 30.2283 17.6099C30.618 17.6819 30.7489 17.8034 30.9901 18.112C31.0455 18.3779 31.0455 18.3779 30.9901 18.6438C30.7489 18.9524 30.618 19.0739 30.2283 19.1459C30.1141 19.1448 29.9998 19.1436 29.882 19.1425C29.7106 19.1442 29.7106 19.1442 29.5358 19.1459C29.1461 19.0739 29.0152 18.9524 28.774 18.6438C28.7186 18.3779 28.7186 18.3779 28.774 18.112C29.1108 17.681 29.3418 17.6079 29.882 17.6133Z" fill="black"/>
<path d="M15.6551 16.8713C15.9542 17.0597 15.9542 17.0597 16.0983 17.3145C16.1537 17.5805 16.1537 17.5805 16.0983 17.8464C15.8558 18.1577 15.727 18.2772 15.3334 18.3454C15.2183 18.3434 15.1032 18.3415 14.9847 18.3395C14.8694 18.3396 14.7541 18.3397 14.6353 18.3398C14.3254 18.2896 14.3254 18.2896 14.11 18.1314C13.9639 17.9253 13.9204 17.8297 13.9209 17.5805C13.919 17.522 13.917 17.4635 13.915 17.4032C14.1464 16.6675 15.05 16.7883 15.6551 16.8713Z" fill="black"/>
<path d="M23.6312 10.3107C23.8513 10.4743 23.9622 10.5764 24.0329 10.8426C24.032 10.9011 24.0311 10.9596 24.0301 11.0199C24.031 11.0784 24.0319 11.1369 24.0329 11.1972C23.9622 11.4634 23.8513 11.5656 23.6312 11.7291C23.0886 11.8229 22.5628 11.8378 22.091 11.5407C21.9192 11.2367 21.8755 11.0968 21.9469 10.754C22.2928 10.1421 23.0083 10.2031 23.6312 10.3107Z" fill="black"/>
<path d="M33.6056 13.1034C33.7052 13.1024 33.8049 13.1015 33.9075 13.1006C34.235 13.1568 34.3405 13.2379 34.5364 13.5023C34.578 13.835 34.5835 14.0375 34.42 14.3333C34.1276 14.6149 33.7865 14.5898 33.4041 14.5861C33.1368 14.5589 32.9704 14.4683 32.7635 14.3001C32.6264 14.026 32.6488 13.8042 32.6748 13.5023C32.945 13.1347 33.1605 13.0993 33.6056 13.1034Z" fill="black"/>
</g>
<defs>
<clipPath id="clip0_358_1067">
<rect width="45.3867" height="45.3867" fill="white" transform="translate(0.40625 0.47168)"/>
</clipPath>
</defs>
</svg>
