<svg width="46" height="46" viewBox="0 0 46 46" fill="none" xmlns="http://www.w3.org/2000/svg">
<g clip-path="url(#clip0_358_1078)">
<path d="M30.8247 1.18456C30.9251 1.18071 30.9251 1.18071 31.0275 1.17677C31.3428 1.17316 31.5333 1.18435 31.7939 1.36913C31.9339 1.57672 31.9754 1.6743 31.9716 1.92143C31.973 2.00919 31.973 2.00919 31.9744 2.09872C31.902 2.37105 31.8011 2.46433 31.5727 2.6306C31.3118 2.70134 31.0487 2.72849 30.7804 2.75803C28.9825 3.00038 27.5764 3.894 26.3426 5.20133C26.4347 5.24327 26.5268 5.28521 26.6217 5.32841C28.0092 5.97863 29.0629 6.84835 29.6225 8.31363C30.097 9.68521 29.991 11.1008 29.3731 12.4094C29.2175 12.7219 29.0427 12.9777 28.8147 13.2398C28.7428 13.3227 28.7428 13.3227 28.6695 13.4073C28.6147 13.47 28.6146 13.47 28.5587 13.534C28.6443 13.5344 28.7299 13.5347 28.818 13.535C29.6278 13.5383 30.4376 13.5434 31.2474 13.5503C31.6637 13.5538 32.0799 13.5567 32.4962 13.5581C32.8985 13.5594 33.3008 13.5625 33.7032 13.5667C33.856 13.568 34.0089 13.5687 34.1617 13.5688C35.473 13.5701 36.5118 13.7576 37.512 14.6864C38.0973 15.4084 38.3051 16.1231 38.378 17.0372C38.3832 17.1005 38.3884 17.1637 38.3938 17.2289C38.4109 17.439 38.4272 17.6491 38.4435 17.8593C38.4557 18.011 38.468 18.1628 38.4803 18.3146C38.5136 18.7274 38.5463 19.1402 38.5787 19.5531C38.6134 19.9925 38.6488 20.4319 38.6841 20.8712C38.7514 21.7106 38.8182 22.55 38.8847 23.3894C38.9583 24.3179 39.0325 25.2462 39.1068 26.1746C39.2011 27.3529 39.2953 28.5311 39.3889 29.7094C39.3959 29.7981 39.4029 29.8868 39.4102 29.9782C39.4244 30.1564 39.4385 30.3347 39.4527 30.5129C39.4596 30.6006 39.4666 30.6883 39.4738 30.7787C39.4807 30.8659 39.4876 30.9531 39.4948 31.0429C39.5893 32.2334 39.6849 33.4237 39.7814 34.6139C39.8193 35.0815 39.8571 35.5491 39.8948 36.0167C39.9298 36.4494 39.9651 36.8821 40.0005 37.3148C40.0219 37.5776 40.0431 37.8404 40.0643 38.1033C40.0786 38.2799 40.0932 38.4566 40.1078 38.6332C40.1502 39.1629 40.1823 39.685 40.1713 40.2165C40.2554 40.2146 40.3395 40.2128 40.4261 40.2108C40.7387 40.2048 41.0512 40.2003 41.3638 40.197C41.499 40.1952 41.6341 40.1928 41.7693 40.1897C41.9638 40.1854 42.1583 40.1834 42.3529 40.1818C42.4698 40.18 42.5868 40.1781 42.7073 40.1762C43.008 40.2165 43.008 40.2165 43.2219 40.3829C43.5047 40.7611 43.4613 41.1324 43.4069 41.5849C43.226 42.7484 42.6452 43.7422 41.7005 44.4438C41.0045 44.9116 40.2852 45.1912 39.4459 45.1925C39.3327 45.1929 39.2195 45.1933 39.1028 45.1937C38.9769 45.1937 38.851 45.1937 38.7251 45.1937C38.5915 45.194 38.4579 45.1943 38.3244 45.1947C37.9568 45.1956 37.5892 45.1959 37.2216 45.1961C36.8254 45.1965 36.4292 45.1973 36.0329 45.1981C35.0758 45.1998 34.1187 45.2007 33.1616 45.2015C32.7109 45.2019 32.2602 45.2024 31.8096 45.2029C30.3116 45.2044 28.8136 45.2056 27.3156 45.2063C26.9268 45.2065 26.5381 45.2066 26.1494 45.2068C26.0044 45.2069 26.0044 45.2069 25.8566 45.2069C24.2911 45.2077 22.7256 45.2099 21.1601 45.2128C19.553 45.2157 17.946 45.2173 16.3389 45.2176C15.4365 45.2178 14.5341 45.2186 13.6317 45.2208C12.8633 45.2228 12.0949 45.2235 11.3264 45.2226C10.9344 45.2222 10.5424 45.2224 10.1504 45.2241C9.79126 45.2257 9.43219 45.2256 9.07308 45.2242C8.94339 45.224 8.81369 45.2244 8.68401 45.2254C7.73302 45.2327 6.98222 45.1181 6.26854 44.4527C5.67578 43.768 5.56347 42.8948 5.43113 42.0313C5.40916 41.8952 5.38706 41.7591 5.36484 41.6231C5.30575 41.2591 5.24845 40.8949 5.19155 40.5305C5.13252 40.1542 5.07205 39.7781 5.01171 39.402C4.91317 38.7863 4.81498 38.1706 4.71712 37.5548C4.70493 37.4782 4.69274 37.4016 4.68018 37.3226C4.61753 36.9284 4.55529 36.5342 4.49369 36.1398C4.43247 35.7481 4.37024 35.3566 4.30734 34.9651C4.284 34.8187 4.26102 34.6722 4.23845 34.5257C4.11942 33.7542 3.98064 33.0406 3.64921 32.327C2.89376 30.3721 2.79206 28.3608 3.60777 26.4102C4.38609 24.6554 5.71788 23.5017 7.46099 22.7532C7.91141 22.596 8.3361 22.488 8.81284 22.4707C9.23539 22.3791 9.34319 22.2169 9.60476 21.8886C10.6298 20.6211 12.2051 20.0142 13.7881 19.839C15.752 19.7452 17.4472 20.3804 18.906 21.6964C19.0736 21.8668 19.0736 21.8668 19.262 22.1604C19.5925 22.4694 19.8817 22.4939 20.3205 22.5666C21.6486 22.7909 22.7374 23.5077 23.6832 24.4375C23.7667 24.5193 23.7667 24.5193 23.8518 24.6027C25.1991 26.0294 25.5952 27.9024 25.5697 29.8054C25.536 30.7683 25.247 31.6529 24.8487 32.5268C24.6014 33.1181 24.505 33.7263 24.4059 34.356C24.3906 34.4512 24.3753 34.5464 24.3595 34.6445C24.3264 34.8504 24.2936 35.0564 24.2608 35.2624C24.209 35.5884 24.1567 35.9144 24.1042 36.2404C23.9741 37.0498 23.8448 37.8593 23.7155 38.6688C23.6062 39.3535 23.4965 40.0381 23.3863 40.7227C23.3348 41.0437 23.2838 41.3648 23.2328 41.6859C23.2012 41.8828 23.1695 42.0797 23.1378 42.2766C23.1238 42.3658 23.1098 42.4549 23.0954 42.5467C23.082 42.6293 23.0685 42.712 23.0547 42.7971C23.0377 42.904 23.0377 42.904 23.0203 43.013C22.9655 43.2707 22.8837 43.5139 22.7967 43.7623C24.9197 43.7549 27.0426 43.7464 29.1655 43.7368C30.1512 43.7324 31.137 43.7283 32.1227 43.7249C32.9821 43.722 33.8415 43.7184 34.7008 43.7142C35.1557 43.712 35.6105 43.71 36.0654 43.7088C36.4939 43.7077 36.9225 43.7057 37.351 43.7031C37.5079 43.7023 37.6648 43.7018 37.8216 43.7017C39.5046 43.7304 39.5046 43.7304 40.9612 42.9891C41.2454 42.6855 41.4323 42.4009 41.5988 42.0199C41.6304 41.9479 41.6619 41.8758 41.6945 41.8016C41.7184 41.7465 41.7423 41.6915 41.767 41.6348C41.6773 41.6351 41.5876 41.6355 41.4952 41.6358C39.315 41.6437 37.1348 41.6495 34.9546 41.6532C33.9002 41.655 32.8459 41.6575 31.7916 41.6616C30.8728 41.6651 29.954 41.6674 29.0353 41.6682C28.5486 41.6686 28.062 41.6697 27.5753 41.6723C27.1175 41.6747 26.6597 41.6754 26.2019 41.6749C26.0337 41.675 25.8654 41.6757 25.6972 41.6771C25.4679 41.6788 25.2387 41.6784 25.0093 41.6774C24.9424 41.6785 24.8755 41.6795 24.8066 41.6806C24.497 41.677 24.3336 41.6579 24.0853 41.4659C23.9377 41.2646 23.901 41.1722 23.9048 40.9256C23.9039 40.8671 23.903 40.8086 23.902 40.7483C23.9717 40.486 24.0929 40.3851 24.3037 40.2165C24.5716 40.1728 24.5716 40.1728 24.8915 40.1738C24.9505 40.1735 25.0094 40.1732 25.0702 40.1729C25.2676 40.1723 25.4648 40.1743 25.6622 40.1762C25.8038 40.1763 25.9453 40.1763 26.0868 40.1761C26.4711 40.176 26.8553 40.178 27.2395 40.1805C27.641 40.1827 28.0426 40.1829 28.4441 40.1834C29.2045 40.1845 29.9649 40.1874 30.7252 40.1909C31.5909 40.1949 32.4565 40.1968 33.3222 40.1986C35.1029 40.2023 36.8836 40.2086 38.6643 40.2165C38.6574 40.1446 38.6505 40.0727 38.6434 39.9986C38.4744 38.2326 38.3194 36.4661 38.1785 34.6976C38.164 34.5162 38.1495 34.3348 38.1349 34.1534C38.0896 33.5892 38.0446 33.025 37.9996 32.4608C37.9535 31.8817 37.907 31.3026 37.8605 30.7234C37.82 30.2206 37.7798 29.7177 37.7396 29.2148C37.7158 28.9168 37.692 28.6187 37.668 28.3207C37.6415 27.991 37.6153 27.6613 37.5891 27.3316C37.5812 27.2344 37.5734 27.1371 37.5653 27.0369C37.5318 26.6126 37.5018 26.1933 37.512 25.7672C36.8874 25.9531 36.4518 26.0925 36.0936 26.6536C36.0066 26.9148 35.9923 27.1338 35.9838 27.4068C35.9519 28.3294 35.7724 28.998 35.1206 29.6856C34.4889 30.2466 33.8744 30.3562 33.0405 30.3252C32.3381 30.2427 31.7829 29.9223 31.3067 29.4017C31.0057 28.9799 30.868 28.576 30.8285 28.0647C30.8194 27.9626 30.8194 27.9626 30.81 27.8585C30.7978 27.7175 30.7864 27.5765 30.7761 27.4354C30.7229 26.8717 30.5835 26.4263 30.1377 26.0442C29.6581 25.8523 29.2052 25.7924 28.7083 25.9556C28.3137 26.1281 28.1177 26.3782 27.9306 26.7628C27.8323 27.0604 27.8272 27.3088 27.8269 27.6222C27.8266 27.6823 27.8263 27.7423 27.8259 27.8041C27.8253 27.934 27.8251 28.0638 27.8252 28.1936C27.8253 28.3998 27.8242 28.606 27.8227 28.8122C27.8186 29.3983 27.8164 29.9844 27.8158 30.5705C27.8153 30.9297 27.8132 31.2889 27.81 31.648C27.8091 31.7841 27.8089 31.9202 27.8094 32.0563C27.8123 32.9331 27.7733 33.7012 27.229 34.424C27.1705 34.4779 27.112 34.5319 27.0517 34.5875C26.9932 34.6432 26.9347 34.699 26.8744 34.7564C26.614 34.9639 26.4121 35.0646 26.0822 35.1138C25.8107 35.075 25.8107 35.075 25.5558 34.8922C25.3675 34.6318 25.3675 34.6318 25.3121 34.3215C25.3813 33.9338 25.513 33.8173 25.8107 33.568C26.0795 33.3184 26.1598 33.1522 26.1775 32.7746C26.1781 32.6676 26.1787 32.5606 26.1793 32.4504C26.1797 32.3913 26.1802 32.3321 26.1806 32.2712C26.1816 32.1428 26.1823 32.0144 26.1829 31.8859C26.184 31.682 26.1857 31.478 26.1876 31.2741C26.1931 30.6942 26.1979 30.1143 26.2009 29.5344C26.2027 29.1794 26.2059 28.8245 26.2098 28.4695C26.211 28.3349 26.2118 28.2003 26.2121 28.0657C26.2147 26.9414 26.3006 26.0484 27.0794 25.1854C27.8246 24.5096 28.5503 24.2214 29.5781 24.2547C30.3894 24.3451 31.1629 24.7068 31.7091 25.3236C32.2216 26.0266 32.3431 26.7215 32.3876 27.5722C32.4169 28.0225 32.4741 28.2764 32.8137 28.6039C33.1216 28.7578 33.453 28.7459 33.7888 28.6925C34.0331 28.4991 34.182 28.3493 34.3207 28.072C34.3346 27.8801 34.3452 27.688 34.3539 27.4958C34.4217 26.5055 34.6489 25.6591 35.4014 24.9683C35.995 24.5138 36.6701 24.2602 37.4233 24.2602C37.3941 24.2017 37.3648 24.1432 37.3347 24.0829C37.3101 23.8492 37.2901 23.6167 37.2733 23.3824C37.2678 23.31 37.2623 23.2376 37.2566 23.163C37.2447 23.0055 37.2329 22.848 37.2212 22.6904C37.2026 22.4407 37.1834 22.191 37.1639 21.9413C37.1086 21.2313 37.0537 20.5213 37.0011 19.811C36.969 19.3768 36.9354 18.9426 36.9008 18.5086C36.8879 18.3434 36.8756 18.1782 36.8638 18.013C36.8472 17.781 36.8288 17.5492 36.8099 17.3174C36.8034 17.2159 36.8034 17.2159 36.7967 17.1124C36.7484 16.5582 36.573 16.0802 36.201 15.6595C36.1473 15.6199 36.0935 15.5804 36.0382 15.5397C35.9859 15.4988 35.9335 15.4578 35.8796 15.4157C35.2708 15.1269 34.5829 15.1036 33.9196 15.1072C33.7994 15.1067 33.7994 15.1067 33.6767 15.1063C33.4108 15.1056 33.1449 15.1062 32.879 15.1067C32.6873 15.1065 32.4956 15.1062 32.3039 15.1058C31.785 15.105 31.2662 15.1053 30.7473 15.1059C30.2034 15.1063 29.6595 15.1059 29.1155 15.1056C28.2022 15.1053 27.289 15.1057 26.3757 15.1066C25.321 15.1075 24.2662 15.1072 23.2115 15.1062C22.3047 15.1054 21.3979 15.1053 20.4911 15.1058C19.95 15.1061 19.409 15.1061 18.8679 15.1055C18.3592 15.105 17.8505 15.1054 17.3417 15.1064C17.1554 15.1066 16.9691 15.1065 16.7828 15.1062C16.5277 15.1057 16.2726 15.1063 16.0176 15.1072C15.908 15.1066 15.908 15.1066 15.7962 15.106C15.1299 15.1104 14.4103 15.1619 13.849 15.5507C13.7861 15.5923 13.7231 15.6339 13.6582 15.6768C13.2579 16.0599 13.1815 16.508 13.1232 17.0411C13.1126 17.1336 13.1126 17.1336 13.1018 17.2281C13.0578 17.6233 13.0303 18.0181 13.0069 18.4151C12.9751 18.8573 12.9201 19.1802 12.6911 19.562C12.4559 19.7636 12.3345 19.7392 12.0207 19.7226C11.716 19.6506 11.716 19.6506 11.5498 19.5509C11.2248 19.0093 11.3818 18.2626 11.4334 17.6672C11.4408 17.5709 11.4482 17.4747 11.4558 17.3756C11.5522 16.2094 11.7475 15.3027 12.6357 14.4759C13.3583 13.8746 14.1272 13.5974 15.0724 13.5944C15.1724 13.5931 15.1724 13.5931 15.2744 13.5917C15.4926 13.589 15.7109 13.5875 15.9291 13.586C16.0812 13.5843 16.2334 13.5826 16.3855 13.5808C16.7844 13.5763 17.1833 13.5727 17.5821 13.5694C17.9898 13.5659 18.3974 13.5613 18.8051 13.5569C19.6037 13.5483 20.4024 13.5409 21.2011 13.534C21.1529 13.4698 21.1046 13.4055 21.0549 13.3392C20.9914 13.2535 20.9279 13.1677 20.8624 13.0794C20.7996 12.995 20.7367 12.9106 20.672 12.8236C19.9023 11.6919 19.7406 10.3411 19.9601 9.01311C20.2943 7.60262 21.1201 6.50221 22.3258 5.71659C22.9065 5.38089 23.5634 5.1558 24.231 5.08117C24.5389 5.01081 24.6045 4.92635 24.7802 4.66946C24.8329 4.59701 24.8855 4.52456 24.9398 4.44992C25.0199 4.33919 25.0199 4.33919 25.1015 4.22623C26.4497 2.50377 28.6136 1.21303 30.8247 1.18456ZM22.5678 7.42129C21.8024 8.13853 21.3915 9.02797 21.3562 10.0769C21.3915 11.1269 21.8037 12.0104 22.5651 12.7321C23.5044 13.4678 24.478 13.6301 25.6334 13.534C26.5538 13.3504 27.2909 12.7994 27.8246 12.0375C28.362 11.1495 28.5516 10.215 28.3208 9.18624C27.9763 8.1742 27.3977 7.42721 26.4645 6.90776C25.1237 6.27911 23.7166 6.51238 22.5678 7.42129ZM11.1841 22.5759C11.2642 22.6028 11.3443 22.6296 11.4269 22.6573C11.5314 22.6944 11.636 22.7316 11.7437 22.7698C11.8476 22.8058 11.9514 22.8418 12.0585 22.8789C12.3707 23.0364 12.4668 23.1442 12.6025 23.4624C12.5914 23.7377 12.5553 23.921 12.4196 24.1605C12.1311 24.328 11.8578 24.3078 11.5387 24.2602C11.3549 24.2041 11.1721 24.1447 10.9902 24.0829C9.76383 23.6882 8.44877 23.9192 7.30586 24.4874C5.98845 25.277 5.15973 26.434 4.71296 27.8947C4.37653 29.3193 4.56045 30.5433 5.15619 31.8838C11.1823 31.8838 17.2085 31.8838 23.4173 31.8838C24.1315 30.4552 24.2624 29.0179 23.7943 27.4864C23.304 26.159 22.4388 25.1285 21.2011 24.4375C19.9104 23.8438 18.6412 23.7185 17.2938 24.1802C16.8991 24.3021 16.5321 24.3635 16.1483 24.1716C16.0078 23.8906 15.9966 23.5918 16.0596 23.2851C16.2696 22.9847 16.5846 22.9032 16.9184 22.7809C17.023 22.7422 17.1275 22.7034 17.2352 22.6635C17.3153 22.6346 17.3954 22.6057 17.478 22.5759C16.7093 21.7229 15.3993 21.3608 14.2867 21.3016C13.1811 21.3583 11.9124 21.6915 11.1841 22.5759ZM5.59942 33.3907C6.07934 36.5235 6.07934 36.5235 6.56856 39.6549C6.61044 39.9199 6.65161 40.185 6.69226 40.4502C6.74288 40.7803 6.79477 41.1101 6.84757 41.4399C6.86703 41.5628 6.88605 41.6858 6.90459 41.8089C7.04868 42.7975 7.04867 42.7975 7.63828 43.5684C8.02396 43.7974 8.42004 43.7732 8.85716 43.7678C9.07139 43.766 9.28562 43.7641 9.49984 43.7623C9.45346 42.7871 9.3398 41.8297 9.20211 40.8636C9.16588 40.6091 9.13032 40.3545 9.09492 40.0999C8.99433 39.377 8.8926 38.6543 8.79037 37.9317C8.72753 37.4871 8.66545 37.0425 8.60384 36.5977C8.58032 36.4291 8.5565 36.2606 8.53237 36.0921C8.49873 35.8572 8.46607 35.6222 8.43363 35.3871C8.4235 35.3182 8.41337 35.2493 8.40294 35.1782C8.35165 34.7983 8.34003 34.4726 8.43609 34.0999C8.63835 33.8752 8.75603 33.8383 9.05661 33.8007C9.3569 33.8383 9.45836 33.8966 9.67714 34.0999C9.74118 34.2706 9.74118 34.2706 9.7713 34.4822C9.78439 34.5695 9.79748 34.6569 9.81097 34.7469C9.83248 34.9093 9.83248 34.9093 9.85443 35.075C9.87388 35.2134 9.89341 35.3518 9.91302 35.4903C9.97172 35.9095 10.0281 36.3291 10.0839 36.7487C10.1213 37.03 10.159 37.3112 10.1968 37.5925C10.3041 38.3914 10.4109 39.1904 10.5175 39.9893C10.583 40.4796 10.6488 40.9699 10.7147 41.4601C10.7519 41.7375 10.7888 42.015 10.8256 42.2924C10.8483 42.4614 10.871 42.6303 10.8938 42.7992C10.904 42.8766 10.9141 42.954 10.9246 43.0337C10.9688 43.4095 10.9688 43.4095 11.0955 43.7623C11.9146 43.7623 12.7336 43.7623 13.5776 43.7623C13.5788 43.471 13.5801 43.1797 13.5815 42.8795C13.5859 41.9186 13.5918 40.9576 13.5985 39.9966C13.6024 39.4138 13.6059 38.831 13.6083 38.2482C13.6106 37.6861 13.6141 37.1239 13.6186 36.5618C13.6201 36.347 13.6211 36.1322 13.6217 35.9175C13.6225 35.6173 13.625 35.3172 13.6279 35.0171C13.6277 34.883 13.6277 34.883 13.6275 34.7462C13.6292 34.6237 13.6292 34.6237 13.6309 34.4987C13.6313 34.4277 13.6317 34.3567 13.6321 34.2835C13.675 34.0525 13.7478 33.9759 13.9321 33.834C14.2533 33.7362 14.4039 33.7186 14.7133 33.8561C14.9072 34.0113 14.9072 34.0113 14.9959 34.2772C15.0048 34.4077 15.0088 34.5385 15.0099 34.6693C15.0108 34.7494 15.0117 34.8296 15.0125 34.9122C15.0131 35 15.0136 35.0877 15.0141 35.1781C15.015 35.2706 15.0158 35.3632 15.0168 35.4585C15.0196 35.765 15.0217 36.0715 15.0239 36.378C15.0258 36.5903 15.0276 36.8026 15.0295 37.0149C15.0344 37.574 15.0388 38.1332 15.0431 38.6924C15.0475 39.2628 15.0525 39.8332 15.0574 40.4036C15.0669 41.5232 15.0758 42.6427 15.0845 43.7623C15.9036 43.7623 16.7227 43.7623 17.5666 43.7623C17.5912 43.5825 17.6157 43.4027 17.641 43.2175C17.724 42.6089 17.8072 42.0004 17.8904 41.3919C17.9406 41.0246 17.9908 40.6573 18.0409 40.29C18.1479 39.5062 18.2555 38.7225 18.3641 37.9389C18.425 37.4984 18.4843 37.0577 18.5425 36.6169C18.5809 36.3275 18.6201 36.0383 18.6596 35.749C18.6781 35.6122 18.6961 35.4753 18.7138 35.3383C18.7381 35.1496 18.7639 34.9611 18.7899 34.7726C18.8041 34.6659 18.8183 34.5591 18.8329 34.4491C18.8985 34.1794 18.9382 34.0802 19.1622 33.9226C19.5317 33.8131 19.7038 33.7928 20.0487 33.9725C20.5271 34.7947 20.0238 36.4283 19.896 37.3528C19.8722 37.527 19.8485 37.7013 19.8248 37.8756C19.7629 38.3304 19.7006 38.7853 19.6382 39.24C19.5378 39.9709 19.4379 40.7018 19.3384 41.4328C19.3037 41.6874 19.2686 41.942 19.2335 42.1965C19.2123 42.352 19.1911 42.5075 19.1698 42.6629C19.16 42.7335 19.1502 42.804 19.1401 42.8767C19.0995 43.1761 19.0736 43.4594 19.0736 43.7623C20.1294 43.822 20.1294 43.822 21.1125 43.4964C21.4035 43.1259 21.5233 42.8242 21.5979 42.3618C21.6076 42.3039 21.6173 42.246 21.6274 42.1863C21.6591 41.9954 21.6889 41.8042 21.7188 41.613C21.741 41.4772 21.7632 41.3415 21.7856 41.2057C21.8445 40.8471 21.9017 40.4883 21.9587 40.1295C22.0152 39.7749 22.0732 39.4206 22.131 39.0663C22.2328 38.4417 22.3332 37.8168 22.4329 37.1918C22.5084 36.7198 22.5854 36.2481 22.6631 35.7765C22.6942 35.5871 22.7252 35.3976 22.7563 35.2082C22.7852 35.0323 22.8145 34.8564 22.8438 34.6806C22.8696 34.5225 22.8696 34.5225 22.896 34.3613C22.9111 34.2697 22.9263 34.1781 22.9419 34.0837C22.9835 33.8027 22.9835 33.8027 22.974 33.3907C17.2404 33.3907 11.5068 33.3907 5.59942 33.3907Z" fill="black"/>
</g>
<defs>
<clipPath id="clip0_358_1078">
<rect width="45.3867" height="45.3867" fill="white" transform="translate(0.546875 0.50293)"/>
</clipPath>
</defs>
</svg>
