<svg width="24" height="25" viewBox="0 0 24 25" fill="none" xmlns="http://www.w3.org/2000/svg">
<g clip-path="url(#clip0_189_308)">
<path d="M19.0781 1.67311C19.2358 1.76771 19.2921 1.8337 19.3411 2.01094C19.3629 2.21425 19.3416 2.33409 19.2243 2.50423C19.1174 2.6236 19.0071 2.73505 18.8906 2.84499C18.828 2.90737 18.7655 2.96985 18.7031 3.03249C18.7553 3.03245 18.8075 3.03241 18.8613 3.03237C19.355 3.0322 19.8488 3.03352 20.3425 3.03625C20.5963 3.03761 20.8501 3.03846 21.1039 3.03812C21.3492 3.03781 21.5944 3.03887 21.8397 3.04086C21.9329 3.04138 22.0261 3.04141 22.1193 3.04094C22.6922 3.03843 23.1632 3.04616 23.6203 3.43669C24.0022 3.83993 24.0278 4.29308 24.0258 4.82515C24.0262 4.8968 24.0267 4.96846 24.0272 5.04011C24.0285 5.23372 24.0285 5.42732 24.0283 5.62094C24.0282 5.78307 24.0287 5.94521 24.0291 6.10734C24.0301 6.49017 24.0302 6.87298 24.0296 7.2558C24.029 7.64954 24.0302 8.04325 24.0322 8.43699C24.0339 8.77609 24.0344 9.11519 24.0341 9.45431C24.0339 9.65637 24.0342 9.85842 24.0355 10.0605C24.0367 10.2507 24.0365 10.4408 24.0353 10.631C24.035 10.7004 24.0353 10.7698 24.0361 10.8392C24.0411 11.3266 23.9685 11.7464 23.6372 12.126C23.2604 12.4869 22.8336 12.528 22.3328 12.5195C22.2731 12.5193 22.2133 12.519 22.1518 12.5187C21.9943 12.5179 21.8369 12.5162 21.6795 12.5141C21.5183 12.5122 21.3571 12.5113 21.1959 12.5104C20.8806 12.5083 20.5653 12.5052 20.25 12.5012C20.2515 12.5594 20.253 12.6175 20.2545 12.6773C20.2596 12.8954 20.2628 13.1134 20.2655 13.3315C20.2669 13.4254 20.2688 13.5194 20.2712 13.6133C20.2987 14.6944 20.2987 14.6944 19.8926 15.1682C19.531 15.512 19.1232 15.5758 18.6415 15.5726C18.5845 15.5729 18.5275 15.5733 18.4688 15.5736C18.3115 15.5744 18.1543 15.5744 17.9971 15.574C17.8271 15.5738 17.6572 15.5746 17.4872 15.5753C17.1546 15.5765 16.822 15.5767 16.4894 15.5765C16.2189 15.5763 15.9485 15.5765 15.678 15.5769C15.6394 15.5769 15.6009 15.577 15.5612 15.577C15.4828 15.5771 15.4045 15.5772 15.3262 15.5774C14.5922 15.5784 13.8583 15.5782 13.1243 15.5776C12.4536 15.5771 11.7829 15.5782 11.1122 15.58C10.4228 15.5818 9.73331 15.5826 9.04384 15.5822C8.65707 15.582 8.27032 15.5823 7.88355 15.5836C7.55426 15.5847 7.22499 15.5848 6.8957 15.5837C6.72787 15.5831 6.56007 15.583 6.39223 15.5842C6.20985 15.5854 6.02752 15.5844 5.84513 15.5832C5.79271 15.5839 5.74028 15.5846 5.68627 15.5853C5.27319 15.5797 4.90988 15.4599 4.59351 15.1852C4.27848 14.8541 4.19068 14.4653 4.19302 14.0218C4.19254 13.9742 4.19206 13.9265 4.19157 13.8775C4.19027 13.7211 4.19036 13.5649 4.19057 13.4085C4.19021 13.2991 4.1898 13.1896 4.18936 13.0802C4.18866 12.8511 4.18868 12.6221 4.18918 12.3931C4.18972 12.1007 4.18813 11.8084 4.18596 11.516C4.18457 11.29 4.18449 11.0641 4.18479 10.8381C4.18474 10.7303 4.18425 10.6226 4.1833 10.5149C4.17442 9.36439 4.17442 9.36439 4.57612 8.89709C4.93713 8.55266 5.34587 8.48919 5.82728 8.49242C5.91278 8.49188 5.91278 8.49188 6.00002 8.49134C6.15726 8.49054 6.31446 8.49057 6.4717 8.49098C6.64167 8.49121 6.81162 8.49036 6.98159 8.48966C7.31419 8.48847 7.64679 8.4883 7.97939 8.48852C8.24987 8.48868 8.52034 8.48852 8.79081 8.48812C8.82936 8.48807 8.86791 8.48801 8.90763 8.48795C8.98595 8.48784 9.06427 8.48772 9.14259 8.48761C9.87655 8.48659 10.6105 8.48679 11.3445 8.48737C12.0152 8.48785 12.6859 8.48679 13.3566 8.48501C14.046 8.48319 14.7355 8.48242 15.4249 8.48277C15.8117 8.48295 16.1985 8.48272 16.5852 8.48139C16.9145 8.48028 17.2438 8.48015 17.5731 8.48128C17.7409 8.48183 17.9087 8.48194 18.0766 8.48081C18.2589 8.4796 18.4413 8.48059 18.6237 8.48178C18.6761 8.48109 18.7285 8.4804 18.7825 8.47968C19.1956 8.48532 19.5589 8.60503 19.8753 8.87975C20.1873 9.20773 20.2785 9.59026 20.2683 10.0302C20.2681 10.0744 20.2678 10.1185 20.2675 10.164C20.2665 10.3035 20.2641 10.4429 20.2617 10.5823C20.2608 10.6775 20.2599 10.7727 20.2592 10.8678C20.2571 11.0998 20.2539 11.3318 20.25 11.5637C20.5778 11.5594 20.9056 11.5544 21.2334 11.5489C21.3448 11.5471 21.4562 11.5454 21.5677 11.544C21.7281 11.5418 21.8886 11.5391 22.049 11.5363C22.0986 11.5357 22.1482 11.5352 22.1993 11.5346C22.5721 11.5323 22.5721 11.5323 22.9219 11.4231C23.0532 11.1144 23.0292 10.7864 23.0285 10.4562C23.0287 10.3916 23.029 10.327 23.0292 10.2623C23.0299 10.0875 23.0299 9.91271 23.0298 9.7379C23.0297 9.5917 23.03 9.44551 23.0302 9.29932C23.0307 8.95436 23.0307 8.60939 23.0304 8.26443C23.0302 7.90904 23.0307 7.55366 23.0317 7.19827C23.0326 6.8926 23.0328 6.58694 23.0327 6.28128C23.0326 6.09895 23.0327 5.91663 23.0334 5.7343C23.034 5.56286 23.0339 5.39142 23.0333 5.21997C23.0331 5.12739 23.0336 5.03481 23.0342 4.94223C23.0361 4.52787 23.0361 4.52787 22.875 4.15749C22.6625 4.04415 22.4407 4.05085 22.2047 4.05309C22.1667 4.05308 22.1287 4.05307 22.0896 4.05305C21.9648 4.05312 21.84 4.05385 21.7152 4.05458C21.6284 4.05476 21.5416 4.05489 21.4548 4.05498C21.2268 4.05534 20.9989 4.05626 20.7709 4.0573C20.5381 4.05826 20.3052 4.05869 20.0724 4.05916C19.616 4.06016 19.1596 4.06176 18.7031 4.06374C18.7393 4.09933 18.7754 4.13492 18.8126 4.17159C18.8601 4.21864 18.9076 4.2657 18.9551 4.31276C18.9789 4.33617 19.0027 4.35959 19.0272 4.38371C19.2109 4.5662 19.3262 4.68474 19.333 4.9485C19.3283 5.12043 19.3157 5.18341 19.2246 5.33522C19.0096 5.46424 18.8526 5.48351 18.6094 5.42311C18.5023 5.34639 18.5023 5.34639 18.3946 5.2444C18.354 5.2062 18.3134 5.16801 18.2716 5.12866C18.2068 5.06558 18.2068 5.06558 18.1406 5.00124C18.1182 4.97945 18.0958 4.95766 18.0726 4.93521C17.9305 4.79683 17.7898 4.65708 17.6498 4.51651C17.5771 4.44353 17.5041 4.37081 17.4311 4.29811C17.3844 4.25137 17.3377 4.20462 17.291 4.15785C17.2285 4.09523 17.2285 4.09523 17.1647 4.03135C17.0222 3.88038 16.9514 3.77467 16.9365 3.56862C16.9446 3.35056 16.9975 3.2556 17.1469 3.09859C17.2043 3.03778 17.2043 3.03778 17.2629 2.97574C17.3051 2.93259 17.3472 2.88944 17.3906 2.84499C17.4124 2.82255 17.4343 2.80012 17.4567 2.77701C17.5951 2.63486 17.7348 2.49413 17.8754 2.35415C17.9483 2.28143 18.0211 2.20845 18.0938 2.13545C18.1405 2.08875 18.1873 2.04205 18.234 1.99538C18.2758 1.95368 18.3175 1.91199 18.3605 1.86903C18.5904 1.65206 18.7724 1.62783 19.0781 1.67311ZM5.2969 9.59499C5.1469 9.84025 5.13595 10.06 5.13807 10.3424C5.13783 10.3831 5.13758 10.4238 5.13733 10.4657C5.13671 10.5993 5.13712 10.7329 5.13759 10.8665C5.1375 10.9598 5.13736 11.0531 5.13719 11.1465C5.13698 11.3417 5.13728 11.537 5.13794 11.7323C5.13874 11.9821 5.13828 12.2319 5.13744 12.4817C5.13693 12.6744 5.13709 12.867 5.13745 13.0596C5.13755 13.1517 5.13743 13.2438 5.1371 13.3359C5.13675 13.4648 5.13729 13.5937 5.13807 13.7225C5.13779 13.7603 5.13751 13.7981 5.13721 13.837C5.13994 14.0814 5.16794 14.2591 5.2969 14.47C5.5807 14.6335 5.84216 14.6305 6.16411 14.6285C6.21813 14.6287 6.27216 14.6289 6.32783 14.6291C6.47717 14.6296 6.6265 14.6294 6.77585 14.629C6.93715 14.6287 7.09845 14.6292 7.25975 14.6296C7.57549 14.6302 7.89123 14.63 8.20697 14.6296C8.46362 14.6293 8.72026 14.6293 8.97691 14.6294C9.03173 14.6295 9.03173 14.6295 9.08766 14.6295C9.16191 14.6295 9.23616 14.6296 9.3104 14.6296C10.0064 14.63 10.7024 14.6296 11.3984 14.6288C11.9954 14.6282 12.5924 14.6283 13.1894 14.6289C13.8829 14.6297 14.5764 14.63 15.27 14.6296C15.3439 14.6295 15.4179 14.6295 15.4919 14.6294C15.5283 14.6294 15.5647 14.6294 15.6022 14.6294C15.8585 14.6292 16.1148 14.6294 16.371 14.6298C16.6834 14.6302 16.9958 14.6301 17.3082 14.6293C17.4676 14.6289 17.6269 14.6288 17.7863 14.6293C17.9591 14.6297 18.1319 14.6292 18.3047 14.6285C18.3549 14.6288 18.4052 14.6291 18.457 14.6294C18.7305 14.6273 18.9327 14.6078 19.1719 14.47C19.3219 14.2247 19.3328 14.0049 19.3307 13.7225C19.331 13.6819 19.3312 13.6412 19.3315 13.5993C19.3321 13.4657 19.3317 13.3321 19.3312 13.1985C19.3313 13.1052 19.3314 13.0118 19.3316 12.9185C19.3318 12.7232 19.3315 12.528 19.3309 12.3327C19.3301 12.0829 19.3305 11.8331 19.3314 11.5832C19.3319 11.3906 19.3317 11.198 19.3313 11.0054C19.3312 10.9133 19.3314 10.8212 19.3317 10.7291C19.332 10.6002 19.3315 10.4713 19.3307 10.3424C19.3311 10.2858 19.3311 10.2858 19.3316 10.228C19.3288 9.98354 19.3009 9.80585 19.1719 9.59499C18.8881 9.43143 18.6266 9.4345 18.3047 9.43651C18.2507 9.43629 18.1966 9.43607 18.141 9.43584C17.9916 9.43538 17.8423 9.43554 17.6929 9.43598C17.5316 9.4363 17.3703 9.43581 17.209 9.43542C16.8933 9.43479 16.5776 9.43493 16.2618 9.43534C16.0052 9.43565 15.7485 9.4357 15.4919 9.43554C15.4553 9.43552 15.4188 9.4355 15.3811 9.43548C15.3069 9.43543 15.2326 9.43539 15.1584 9.43534C14.4624 9.43494 13.7664 9.4354 13.0704 9.43616C12.4734 9.43679 11.8764 9.43668 11.2794 9.43603C10.5859 9.43528 9.89236 9.43498 9.19883 9.43541C9.12485 9.43546 9.05088 9.4355 8.97691 9.43554C8.92231 9.43558 8.92231 9.43558 8.86662 9.43561C8.61033 9.43573 8.35403 9.43553 8.09774 9.4352C7.78534 9.4348 7.47295 9.43491 7.16055 9.43566C7.00121 9.43603 6.84187 9.43617 6.68252 9.43571C6.50971 9.43532 6.33692 9.4358 6.16411 9.43651C6.08873 9.43603 6.08872 9.43603 6.01182 9.43555C5.73825 9.43771 5.5361 9.45714 5.2969 9.59499Z" fill="#243E62"/>
<path d="M1.60853 16.9768C1.69403 16.9763 1.69403 16.9763 1.78127 16.9758C1.93851 16.975 2.09571 16.975 2.25295 16.9754C2.42291 16.9756 2.59287 16.9748 2.76284 16.9741C3.09544 16.9729 3.42804 16.9727 3.76064 16.9729C4.03112 16.9731 4.30159 16.9729 4.57206 16.9725C4.61061 16.9725 4.64916 16.9724 4.68888 16.9724C4.7672 16.9723 4.84552 16.9722 4.92384 16.972C5.6578 16.971 6.39175 16.9712 7.12571 16.9718C7.79641 16.9723 8.4671 16.9712 9.1378 16.9694C9.82727 16.9676 10.5167 16.9668 11.2062 16.9672C11.593 16.9674 11.9797 16.9671 12.3665 16.9658C12.6958 16.9647 13.0251 16.9646 13.3543 16.9657C13.5222 16.9663 13.69 16.9664 13.8578 16.9652C14.0402 16.964 14.2225 16.965 14.4049 16.9662C14.4835 16.9652 14.4835 16.9652 14.5638 16.9641C14.9769 16.9697 15.3402 17.0895 15.6565 17.3642C15.9716 17.6953 16.0594 18.0841 16.057 18.5276C16.0575 18.5752 16.058 18.6229 16.0585 18.6719C16.0598 18.8283 16.0597 18.9845 16.0595 19.1409C16.0598 19.2503 16.0602 19.3598 16.0607 19.4692C16.0614 19.6983 16.0614 19.9273 16.0609 20.1563C16.0603 20.4487 16.0619 20.741 16.0641 21.0334C16.0655 21.2594 16.0655 21.4853 16.0653 21.7113C16.0653 21.8191 16.0658 21.9268 16.0667 22.0345C16.0756 23.185 16.0756 23.185 15.6739 23.6523C15.3129 23.9967 14.9042 24.0602 14.4228 24.057C14.3658 24.0573 14.3088 24.0577 14.25 24.0581C14.0928 24.0589 13.9356 24.0588 13.7783 24.0584C13.6084 24.0582 13.4384 24.059 13.2685 24.0597C12.9358 24.0609 12.6033 24.0611 12.2706 24.0609C12.0002 24.0607 11.7297 24.0609 11.4592 24.0613C11.4207 24.0613 11.3821 24.0614 11.3424 24.0614C11.2641 24.0616 11.1858 24.0617 11.1075 24.0618C10.3735 24.0628 9.63954 24.0626 8.90558 24.062C8.23488 24.0616 7.56419 24.0626 6.89349 24.0644C6.20402 24.0662 5.51456 24.067 4.82509 24.0666C4.43832 24.0664 4.05157 24.0667 3.6648 24.068C3.33551 24.0691 3.00624 24.0693 2.67695 24.0681C2.50912 24.0676 2.34131 24.0675 2.17348 24.0686C1.9911 24.0698 1.80877 24.0688 1.62638 24.0676C1.57396 24.0683 1.52153 24.069 1.46752 24.0697C1.05444 24.0641 0.691127 23.9444 0.374759 23.6697C0.0597275 23.3385 -0.0280671 22.9498 -0.025729 22.5062C-0.0262082 22.4586 -0.0266873 22.411 -0.027181 22.3619C-0.0284767 22.2056 -0.0283946 22.0493 -0.0281781 21.893C-0.0285429 21.7835 -0.0289494 21.6741 -0.0293955 21.5646C-0.0300935 21.3356 -0.0300689 21.1065 -0.0295743 20.8775C-0.0290315 20.5851 -0.0306176 20.2928 -0.032794 20.0004C-0.0341805 19.7744 -0.0342568 19.5485 -0.033965 19.3225C-0.0340129 19.2148 -0.0344995 19.107 -0.0354474 18.9993C-0.0443281 17.8488 -0.0443281 17.8488 0.357366 17.3815C0.71838 17.0371 1.12712 16.9736 1.60853 16.9768ZM1.07815 18.0794C0.928151 18.3247 0.917195 18.5445 0.919324 18.8269C0.919078 18.8675 0.918831 18.9082 0.918577 18.9501C0.917961 19.0837 0.918367 19.2173 0.918843 19.3509C0.918749 19.4442 0.918612 19.5376 0.918436 19.6309C0.918229 19.8262 0.918529 20.0214 0.919187 20.2167C0.919988 20.4665 0.919526 20.7163 0.918684 20.9662C0.918175 21.1588 0.918338 21.3514 0.918702 21.544C0.918796 21.6361 0.918682 21.7282 0.918354 21.8203C0.917995 21.9492 0.918543 22.0781 0.919324 22.207C0.919039 22.2447 0.918755 22.2825 0.918461 22.3214C0.921194 22.5659 0.949187 22.7435 1.07815 22.9544C1.36195 23.118 1.62341 23.1149 1.94536 23.1129C1.99938 23.1131 2.05341 23.1133 2.10908 23.1136C2.25842 23.114 2.40775 23.1139 2.5571 23.1134C2.7184 23.1131 2.8797 23.1136 3.041 23.114C3.35674 23.1146 3.67248 23.1145 3.98822 23.1141C4.24487 23.1137 4.50151 23.1137 4.75816 23.1139C4.81298 23.1139 4.81298 23.1139 4.86891 23.1139C4.94316 23.114 5.0174 23.114 5.09165 23.1141C5.78765 23.1145 6.48364 23.114 7.17963 23.1132C7.77663 23.1126 8.37363 23.1127 8.97063 23.1134C9.66416 23.1141 10.3577 23.1144 11.0512 23.114C11.1252 23.1139 11.1992 23.1139 11.2731 23.1139C11.3095 23.1138 11.3459 23.1138 11.3834 23.1138C11.6397 23.1137 11.896 23.1139 12.1523 23.1142C12.4647 23.1146 12.7771 23.1145 13.0895 23.1137C13.2488 23.1134 13.4082 23.1132 13.5675 23.1137C13.7403 23.1141 13.9131 23.1136 14.0859 23.1129C14.1362 23.1132 14.1864 23.1135 14.2382 23.1138C14.5118 23.1117 14.7139 23.0923 14.9531 22.9544C15.1031 22.7092 15.1141 22.4894 15.112 22.207C15.1122 22.1663 15.1125 22.1256 15.1127 22.0837C15.1133 21.9501 15.1129 21.8165 15.1124 21.6829C15.1125 21.5896 15.1127 21.4963 15.1129 21.4029C15.1131 21.2077 15.1128 21.0124 15.1121 20.8171C15.1113 20.5673 15.1118 20.3175 15.1126 20.0677C15.1131 19.875 15.113 19.6824 15.1126 19.4898C15.1125 19.3977 15.1126 19.3056 15.1129 19.2135C15.1133 19.0846 15.1127 18.9557 15.112 18.8269C15.1124 18.7702 15.1124 18.7702 15.1128 18.7124C15.1101 18.468 15.0821 18.2903 14.9531 18.0794C14.6693 17.9159 14.4079 17.9189 14.0859 17.9209C14.0319 17.9207 13.9779 17.9205 13.9222 17.9203C13.7729 17.9198 13.6235 17.92 13.4742 17.9204C13.3129 17.9207 13.1516 17.9202 12.9903 17.9198C12.6745 17.9192 12.3588 17.9194 12.0431 17.9198C11.7864 17.9201 11.5298 17.9201 11.2731 17.92C11.2366 17.92 11.2 17.9199 11.1624 17.9199C11.0881 17.9199 11.0139 17.9198 10.9396 17.9198C10.2436 17.9194 9.54765 17.9198 8.85166 17.9206C8.25466 17.9212 7.65766 17.9211 7.06066 17.9205C6.36713 17.9197 5.67361 17.9194 4.98008 17.9198C4.9061 17.9199 4.83213 17.9199 4.75816 17.92C4.70356 17.92 4.70356 17.92 4.64787 17.92C4.39158 17.9202 4.13528 17.92 3.87899 17.9196C3.56659 17.9192 3.2542 17.9193 2.9418 17.9201C2.78246 17.9205 2.62312 17.9206 2.46377 17.9201C2.29096 17.9198 2.11817 17.9202 1.94536 17.9209C1.86997 17.9205 1.86997 17.9205 1.79307 17.92C1.5195 17.9221 1.31735 17.9416 1.07815 18.0794Z" fill="#243E62"/>
<path d="M1.60853 0.0080993C1.69403 0.00756133 1.69403 0.00756133 1.78127 0.0070125C1.93851 0.00621567 2.09571 0.0062522 2.25295 0.00665443C2.42291 0.00688649 2.59287 0.00603972 2.76284 0.00533841C3.09544 0.00414524 3.42804 0.00397499 3.76064 0.00419469C4.03112 0.0043621 4.30159 0.00419733 4.57206 0.00379865C4.61061 0.00374285 4.64916 0.00368705 4.68888 0.00362956C4.7672 0.00351595 4.84552 0.00340213 4.92384 0.00328809C5.6578 0.00226921 6.39175 0.0024709 7.12571 0.00304292C7.79641 0.00352738 8.4671 0.0024726 9.1378 0.000689957C9.82727 -0.00112844 10.5167 -0.00190047 11.2062 -0.00154849C11.593 -0.00136947 11.9797 -0.00160009 12.3665 -0.00292798C12.6958 -0.00404714 13.0251 -0.00417413 13.3543 -0.0030414C13.5222 -0.00249085 13.69 -0.00238189 13.8578 -0.00351037C14.0402 -0.0047224 14.2225 -0.00373123 14.4049 -0.0025437C14.4835 -0.00358071 14.4835 -0.00358071 14.5638 -0.00463867C14.9769 0.00099723 15.3402 0.120711 15.6565 0.395422C15.9716 0.726597 16.0594 1.11532 16.057 1.55887C16.0575 1.60649 16.058 1.65411 16.0585 1.70318C16.0598 1.85951 16.0597 2.01579 16.0595 2.17213C16.0598 2.28158 16.0602 2.39103 16.0607 2.50048C16.0614 2.72952 16.0614 2.95855 16.0609 3.1876C16.0603 3.47997 16.0619 3.7723 16.0641 4.06467C16.0655 4.29064 16.0655 4.51659 16.0653 4.74257C16.0653 4.8503 16.0658 4.95804 16.0667 5.06577C16.0756 6.21627 16.0756 6.21627 15.6739 6.68356C15.3129 7.02799 14.9042 7.09146 14.4228 7.08823C14.3658 7.08859 14.3088 7.08895 14.25 7.08932C14.0928 7.09011 13.9356 7.09008 13.7783 7.08967C13.6084 7.08944 13.4384 7.09029 13.2685 7.09099C12.9358 7.09218 12.6033 7.09235 12.2706 7.09213C12.0002 7.09197 11.7297 7.09213 11.4592 7.09253C11.4207 7.09259 11.3821 7.09264 11.3424 7.0927C11.2641 7.09281 11.1858 7.09293 11.1075 7.09304C10.3735 7.09406 9.63954 7.09386 8.90558 7.09329C8.23488 7.0928 7.56419 7.09386 6.89349 7.09564C6.20402 7.09746 5.51456 7.09823 4.82509 7.09788C4.43832 7.0977 4.05157 7.09793 3.6648 7.09926C3.33551 7.10038 3.00624 7.1005 2.67695 7.09937C2.50912 7.09882 2.34131 7.09871 2.17348 7.09984C1.9911 7.10105 1.80877 7.10006 1.62638 7.09887C1.57396 7.09956 1.52153 7.10026 1.46752 7.10097C1.05444 7.09533 0.691127 6.97562 0.374759 6.70091C0.0597275 6.36973 -0.0280671 5.981 -0.025729 5.53746C-0.0262082 5.48984 -0.0266873 5.44221 -0.027181 5.39315C-0.0284767 5.23682 -0.0283946 5.08053 -0.0281781 4.9242C-0.0285429 4.81475 -0.0289494 4.7053 -0.0293955 4.59585C-0.0300935 4.36681 -0.0300689 4.13778 -0.0295743 3.90873C-0.0290315 3.61636 -0.0306176 3.32403 -0.032794 3.03166C-0.0341805 2.80569 -0.0342568 2.57973 -0.033965 2.35376C-0.0340129 2.24603 -0.0344995 2.13829 -0.0354474 2.03056C-0.0443281 0.880063 -0.0443281 0.880063 0.357366 0.412766C0.71838 0.0683422 1.12712 0.00486515 1.60853 0.0080993ZM1.07815 1.11066C0.928151 1.35593 0.917195 1.57571 0.919324 1.8581C0.919078 1.89877 0.918831 1.93944 0.918577 1.98134C0.917961 2.11495 0.918367 2.24854 0.918843 2.38215C0.918749 2.47548 0.918612 2.56881 0.918436 2.66214C0.918229 2.85742 0.918529 3.05269 0.919187 3.24796C0.919988 3.49779 0.919526 3.7476 0.918684 3.99742C0.918175 4.19005 0.918338 4.38267 0.918702 4.57529C0.918796 4.66739 0.918682 4.75949 0.918354 4.85158C0.917995 4.98048 0.918543 5.10934 0.919324 5.23823C0.919039 5.27598 0.918755 5.31373 0.918461 5.35263C0.921194 5.59711 0.949187 5.7748 1.07815 5.98566C1.36195 6.14922 1.62341 6.14616 1.94536 6.14415C1.99938 6.14437 2.05341 6.14459 2.10908 6.14481C2.25842 6.14527 2.40775 6.14511 2.5571 6.14467C2.7184 6.14435 2.8797 6.14485 3.041 6.14523C3.35674 6.14586 3.67248 6.14572 3.98822 6.14531C4.24487 6.145 4.50151 6.14495 4.75816 6.14511C4.81298 6.14514 4.81298 6.14514 4.86891 6.14517C4.94316 6.14522 5.0174 6.14526 5.09165 6.14531C5.78765 6.14571 6.48364 6.14525 7.17963 6.14449C7.77663 6.14387 8.37363 6.14397 8.97063 6.14462C9.66416 6.14538 10.3577 6.14567 11.0512 6.14524C11.1252 6.1452 11.1992 6.14515 11.2731 6.14511C11.3095 6.14509 11.3459 6.14506 11.3834 6.14504C11.6397 6.14492 11.896 6.14513 12.1523 6.14546C12.4647 6.14585 12.7771 6.14574 13.0895 6.14499C13.2488 6.14463 13.4082 6.14448 13.5675 6.14495C13.7403 6.14533 13.9131 6.14485 14.0859 6.14415C14.1362 6.14446 14.1864 6.14477 14.2382 6.1451C14.5118 6.14294 14.7139 6.12352 14.9531 5.98566C15.1031 5.7404 15.1141 5.52062 15.112 5.23823C15.1122 5.19756 15.1125 5.15689 15.1127 5.11499C15.1133 4.98138 15.1129 4.84779 15.1124 4.71418C15.1125 4.62085 15.1127 4.52752 15.1129 4.43419C15.1131 4.23891 15.1128 4.04364 15.1121 3.84837C15.1113 3.59854 15.1118 3.34873 15.1126 3.09891C15.1131 2.90628 15.113 2.71366 15.1126 2.52104C15.1125 2.42894 15.1126 2.33684 15.1129 2.24475C15.1133 2.11585 15.1127 1.98699 15.112 1.8581C15.1124 1.80147 15.1124 1.80147 15.1128 1.7437C15.1101 1.49922 15.0821 1.32153 14.9531 1.11066C14.6693 0.947107 14.4079 0.950173 14.0859 0.952183C14.0319 0.951963 13.9779 0.951744 13.9222 0.951518C13.7729 0.951055 13.6235 0.95122 13.4742 0.951656C13.3129 0.951975 13.1516 0.951483 12.9903 0.951097C12.6745 0.950472 12.3588 0.950606 12.0431 0.951014C11.7864 0.951332 11.5298 0.951375 11.2731 0.951222C11.2366 0.9512 11.2 0.951179 11.1624 0.951156C11.0881 0.951112 11.0139 0.951066 10.9396 0.95102C10.2436 0.950619 9.54765 0.95108 8.85166 0.951835C8.25466 0.952464 7.65766 0.952354 7.06066 0.951706C6.36713 0.950953 5.67361 0.950657 4.98008 0.951089C4.9061 0.951134 4.83213 0.951178 4.75816 0.951222C4.70356 0.951254 4.70356 0.951254 4.64787 0.951288C4.39158 0.951409 4.13528 0.951204 3.87899 0.950873C3.56659 0.950478 3.2542 0.950586 2.9418 0.951334C2.78246 0.951704 2.62312 0.951849 2.46377 0.951384C2.29096 0.951 2.11817 0.951481 1.94536 0.952183C1.86997 0.951712 1.86997 0.951712 1.79307 0.951232C1.5195 0.95339 1.31735 0.972812 1.07815 1.11066Z" fill="#243E62"/>
<path d="M2.66941 18.9625C2.7165 18.962 2.7636 18.9616 2.81212 18.9611C2.86295 18.9609 2.91378 18.9607 2.96615 18.9605C3.01846 18.9602 3.07077 18.96 3.12466 18.9597C3.23538 18.9592 3.34611 18.9589 3.45683 18.9588C3.62617 18.9583 3.79548 18.9568 3.96481 18.9554C4.07235 18.9551 4.1799 18.9548 4.28744 18.9546C4.33808 18.9541 4.38872 18.9535 4.4409 18.9529C4.88404 18.9542 4.88404 18.9542 5.06271 19.1106C5.16615 19.2658 5.16861 19.3152 5.17008 19.4959C5.17068 19.5458 5.17127 19.5957 5.17189 19.6471C5.172 19.701 5.1721 19.7549 5.17221 19.8105C5.17268 19.8936 5.17268 19.8936 5.17315 19.9784C5.17363 20.0958 5.17385 20.2131 5.17383 20.3305C5.17404 20.51 5.17574 20.6895 5.17752 20.869C5.17779 20.983 5.17798 21.0969 5.17807 21.2109C5.17874 21.2646 5.17941 21.3183 5.18011 21.3736C5.17797 21.7451 5.17797 21.7451 5.07015 21.9325C4.91611 22.061 4.7902 22.0698 4.59664 22.0713C4.526 22.072 4.526 22.072 4.45393 22.0727C4.4031 22.0729 4.35226 22.0731 4.29989 22.0733C4.22143 22.0737 4.22143 22.0737 4.14139 22.0741C4.03066 22.0745 3.91994 22.0748 3.80922 22.075C3.63988 22.0755 3.47057 22.0769 3.30124 22.0784C3.19369 22.0787 3.08615 22.079 2.9786 22.0791C2.90264 22.08 2.90264 22.08 2.82515 22.0809C2.382 22.0796 2.382 22.0796 2.20334 21.9231C2.0999 21.768 2.09744 21.7186 2.09597 21.5379C2.09537 21.488 2.09477 21.4381 2.09415 21.3867C2.09405 21.3328 2.09395 21.2789 2.09384 21.2233C2.09353 21.1679 2.09321 21.1125 2.09289 21.0553C2.09242 20.938 2.0922 20.8207 2.09221 20.7033C2.09201 20.5238 2.09031 20.3443 2.08853 20.1648C2.08825 20.0508 2.08807 19.9369 2.08798 19.8229C2.08731 19.7692 2.08663 19.7155 2.08594 19.6601C2.08807 19.2887 2.08807 19.2887 2.1959 19.1013C2.34994 18.9728 2.47584 18.964 2.66941 18.9625ZM3.04709 19.9544C3.04709 20.3256 3.04709 20.6969 3.04709 21.0794C3.4338 21.0794 3.82052 21.0794 4.21896 21.0794C4.21896 20.7081 4.21896 20.3369 4.21896 19.9544C3.83224 19.9544 3.44552 19.9544 3.04709 19.9544Z" fill="#243E62"/>
<path d="M6.88816 10.4781C6.93525 10.4776 6.98235 10.4772 7.03087 10.4767C7.0817 10.4765 7.13253 10.4763 7.1849 10.4761C7.23721 10.4759 7.28952 10.4756 7.34341 10.4753C7.45413 10.4749 7.56486 10.4746 7.67558 10.4744C7.84492 10.4739 8.01423 10.4725 8.18356 10.471C8.2911 10.4707 8.39865 10.4704 8.50619 10.4703C8.55683 10.4697 8.60747 10.4691 8.65965 10.4685C9.10279 10.4698 9.10279 10.4698 9.28146 10.6263C9.3849 10.7814 9.38736 10.8308 9.38883 11.0115C9.38943 11.0614 9.39002 11.1113 9.39064 11.1627C9.39075 11.2166 9.39085 11.2706 9.39096 11.3261C9.39143 11.4092 9.39143 11.4092 9.3919 11.4941C9.39238 11.6114 9.3926 11.7287 9.39258 11.8461C9.39279 12.0256 9.39449 12.2051 9.39627 12.3846C9.39654 12.4986 9.39673 12.6125 9.39682 12.7265C9.39749 12.7802 9.39816 12.8339 9.39886 12.8893C9.39672 13.2608 9.39672 13.2608 9.2889 13.4481C9.13486 13.5766 9.00895 13.5854 8.81539 13.5869C8.74475 13.5876 8.74475 13.5876 8.67268 13.5883C8.62185 13.5885 8.57101 13.5887 8.51864 13.5889C8.44018 13.5893 8.44018 13.5893 8.36014 13.5897C8.24941 13.5902 8.13869 13.5905 8.02797 13.5907C7.85863 13.5911 7.68932 13.5926 7.51999 13.594C7.41244 13.5943 7.3049 13.5946 7.19735 13.5948C7.12139 13.5956 7.12139 13.5956 7.0439 13.5965C6.60075 13.5952 6.60075 13.5952 6.42209 13.4388C6.31865 13.2836 6.31619 13.2343 6.31472 13.0535C6.31412 13.0036 6.31352 12.9537 6.3129 12.9023C6.3128 12.8484 6.3127 12.7945 6.31259 12.7389C6.31228 12.6835 6.31196 12.6281 6.31164 12.571C6.31117 12.4536 6.31095 12.3363 6.31096 12.2189C6.31076 12.0394 6.30906 11.8599 6.30728 11.6804C6.307 11.5665 6.30682 11.4525 6.30673 11.3385C6.30606 11.2848 6.30538 11.2311 6.30469 11.1758C6.30682 10.8043 6.30682 10.8043 6.41465 10.6169C6.56869 10.4884 6.69459 10.4796 6.88816 10.4781ZM7.26584 11.47C7.26584 11.8413 7.26584 12.2125 7.26584 12.595C7.65255 12.595 8.03927 12.595 8.43771 12.595C8.43771 12.2238 8.43771 11.8525 8.43771 11.47C8.05099 11.47 7.66427 11.47 7.26584 11.47Z" fill="#243E62"/>
<path d="M2.66941 1.99371C2.7165 1.99326 2.7636 1.99281 2.81212 1.99235C2.86295 1.99215 2.91378 1.99195 2.96615 1.99174C3.01846 1.99148 3.07077 1.99121 3.12466 1.99093C3.23538 1.99049 3.34611 1.99019 3.45683 1.99C3.62617 1.98955 3.79548 1.9881 3.96481 1.98662C4.07235 1.98631 4.1799 1.98606 4.28744 1.98588C4.33808 1.98531 4.38872 1.98473 4.4409 1.98413C4.88404 1.98545 4.88404 1.98545 5.06271 2.14189C5.16615 2.29705 5.16861 2.34641 5.17008 2.52712C5.17068 2.57703 5.17127 2.62694 5.17189 2.67837C5.172 2.73227 5.1721 2.78618 5.17221 2.84172C5.17268 2.92486 5.17268 2.92486 5.17315 3.00969C5.17363 3.12703 5.17385 3.24437 5.17383 3.36172C5.17404 3.54125 5.17574 3.72073 5.17752 3.90025C5.17779 4.0142 5.17798 4.12816 5.17807 4.24211C5.17874 4.29583 5.17941 4.34954 5.18011 4.40489C5.17797 4.77638 5.17797 4.77638 5.07015 4.96375C4.91611 5.09222 4.7902 5.10107 4.59664 5.10257C4.526 5.10324 4.526 5.10324 4.45393 5.10393C4.4031 5.10413 4.35226 5.10433 4.29989 5.10454C4.22143 5.10494 4.22143 5.10494 4.14139 5.10535C4.03066 5.10579 3.91994 5.1061 3.80922 5.10628C3.63988 5.10673 3.47057 5.10819 3.30124 5.10966C3.19369 5.10997 3.08615 5.11022 2.9786 5.1104C2.90264 5.11126 2.90264 5.11126 2.82515 5.11215C2.382 5.11083 2.382 5.11083 2.20334 4.95439C2.0999 4.79923 2.09744 4.74988 2.09597 4.56916C2.09537 4.51925 2.09477 4.46934 2.09415 4.41792C2.09405 4.36401 2.09395 4.3101 2.09384 4.25456C2.09353 4.19913 2.09321 4.1437 2.09289 4.0866C2.09242 3.96925 2.0922 3.85191 2.09221 3.73456C2.09201 3.55503 2.09031 3.37555 2.08853 3.19603C2.08825 3.08208 2.08807 2.96812 2.08798 2.85417C2.08731 2.80045 2.08663 2.74674 2.08594 2.69139C2.08807 2.3199 2.08807 2.3199 2.1959 2.13253C2.34994 2.00406 2.47584 1.99521 2.66941 1.99371ZM3.04709 2.98564C3.04709 3.35689 3.04709 3.72814 3.04709 4.11064C3.4338 4.11064 3.82052 4.11064 4.21896 4.11064C4.21896 3.73939 4.21896 3.36814 4.21896 2.98564C3.83224 2.98564 3.44552 2.98564 3.04709 2.98564Z" fill="#243E62"/>
<path d="M6.93487 21.0726C6.9931 21.0724 7.05132 21.0721 7.11132 21.0718C7.17596 21.0718 7.2406 21.0717 7.30525 21.0717C7.37324 21.0715 7.44122 21.0712 7.50921 21.071C7.694 21.0704 7.87879 21.0701 8.06358 21.0698C8.17902 21.0697 8.29445 21.0695 8.40989 21.0693C8.77102 21.0687 9.13215 21.0682 9.49329 21.068C9.91024 21.0678 10.3272 21.067 10.7441 21.0656C11.0664 21.0646 11.3887 21.0642 11.7109 21.0641C11.9034 21.064 12.0959 21.0638 12.2884 21.0629C12.4694 21.0622 12.6505 21.0621 12.8316 21.0625C12.898 21.0625 12.9644 21.0623 13.0308 21.0618C13.1216 21.0612 13.2123 21.0616 13.303 21.062C13.3538 21.0619 13.4046 21.0619 13.4569 21.0618C13.6146 21.0819 13.7011 21.1254 13.828 21.2199C13.9538 21.4084 13.9541 21.5607 13.9218 21.7824C13.8227 21.9464 13.7757 22.0029 13.5937 22.0636C13.5008 22.0682 13.4079 22.0699 13.315 22.0702C13.2276 22.0706 13.2276 22.0706 13.1385 22.071C13.0739 22.0711 13.0092 22.0711 12.9446 22.0712C12.8766 22.0714 12.8086 22.0716 12.7406 22.0719C12.5558 22.0725 12.371 22.0728 12.1862 22.073C12.0708 22.0731 11.9554 22.0733 11.8399 22.0735C11.4788 22.0742 11.1177 22.0746 10.7565 22.0748C10.3396 22.075 9.92263 22.0758 9.50568 22.0772C9.18342 22.0782 8.86117 22.0787 8.53891 22.0787C8.34642 22.0788 8.15393 22.0791 7.96144 22.0799C7.78037 22.0807 7.59932 22.0808 7.41826 22.0804C7.35184 22.0803 7.28542 22.0805 7.219 22.081C7.12826 22.0816 7.03751 22.0812 6.94677 22.0808C6.89601 22.0809 6.84525 22.081 6.79295 22.081C6.63521 22.0609 6.54877 22.0174 6.42178 21.923C6.29606 21.7344 6.29576 21.5821 6.32803 21.3605C6.48891 21.0942 6.63872 21.0735 6.93487 21.0726Z" fill="#243E62"/>
<path d="M6.93487 18.9633C6.9931 18.963 7.05132 18.9627 7.11132 18.9625C7.17596 18.9624 7.2406 18.9624 7.30525 18.9623C7.37324 18.9621 7.44122 18.9619 7.50921 18.9616C7.694 18.961 7.87879 18.9607 8.06358 18.9605C8.17902 18.9603 8.29445 18.9601 8.40989 18.9599C8.77102 18.9593 9.13215 18.9588 9.49329 18.9587C9.91024 18.9584 10.3272 18.9576 10.7441 18.9563C11.0664 18.9553 11.3887 18.9548 11.7109 18.9547C11.9034 18.9547 12.0959 18.9544 12.2884 18.9536C12.4694 18.9528 12.6505 18.9527 12.8316 18.9531C12.898 18.9531 12.9644 18.9529 13.0308 18.9525C13.1216 18.9519 13.2123 18.9522 13.303 18.9526C13.3538 18.9526 13.4046 18.9525 13.4569 18.9524C13.6146 18.9725 13.7011 19.016 13.828 19.1105C13.9538 19.2991 13.9541 19.4514 13.9218 19.673C13.8227 19.837 13.7757 19.8936 13.5937 19.9542C13.5008 19.9588 13.4079 19.9606 13.315 19.9608C13.2276 19.9612 13.2276 19.9612 13.1385 19.9616C13.0739 19.9617 13.0092 19.9617 12.9446 19.9618C12.8766 19.962 12.8086 19.9622 12.7406 19.9625C12.5558 19.9631 12.371 19.9634 12.1862 19.9636C12.0708 19.9638 11.9554 19.9639 11.8399 19.9642C11.4788 19.9648 11.1177 19.9653 10.7565 19.9654C10.3396 19.9656 9.92263 19.9665 9.50568 19.9678C9.18342 19.9688 8.86117 19.9693 8.53891 19.9694C8.34642 19.9694 8.15393 19.9697 7.96144 19.9705C7.78037 19.9713 7.59932 19.9714 7.41826 19.971C7.35184 19.971 7.28542 19.9712 7.219 19.9716C7.12826 19.9722 7.03751 19.9719 6.94677 19.9715C6.89601 19.9715 6.84525 19.9716 6.79295 19.9717C6.63521 19.9516 6.54877 19.9081 6.42178 19.8136C6.29606 19.625 6.29576 19.4727 6.32803 19.2511C6.48891 18.9848 6.63872 18.9641 6.93487 18.9633Z" fill="#243E62"/>
<path d="M11.1536 12.5883C11.2118 12.588 11.2701 12.5877 11.3301 12.5875C11.3947 12.5874 11.4594 12.5874 11.524 12.5873C11.592 12.5871 11.66 12.5869 11.728 12.5866C11.9128 12.586 12.0975 12.5857 12.2823 12.5855C12.3978 12.5853 12.5132 12.5851 12.6286 12.5849C12.9898 12.5843 13.3509 12.5838 13.712 12.5837C14.129 12.5834 14.5459 12.5826 14.9629 12.5813C15.2851 12.5803 15.6074 12.5798 15.9297 12.5797C16.1222 12.5797 16.3146 12.5794 16.5071 12.5786C16.6882 12.5778 16.8692 12.5777 17.0503 12.5781C17.1167 12.5781 17.1832 12.5779 17.2496 12.5775C17.3403 12.5769 17.4311 12.5772 17.5218 12.5776C17.5726 12.5776 17.6233 12.5775 17.6756 12.5774C17.8334 12.5975 17.9198 12.641 18.0468 12.7355C18.1725 12.9241 18.1728 13.0764 18.1405 13.298C18.0414 13.462 17.9944 13.5186 17.8124 13.5792C17.7196 13.5838 17.6266 13.5856 17.5337 13.5858C17.4464 13.5862 17.4464 13.5862 17.3573 13.5866C17.2926 13.5867 17.228 13.5867 17.1633 13.5868C17.0953 13.587 17.0273 13.5872 16.9594 13.5875C16.7746 13.5881 16.5898 13.5884 16.405 13.5886C16.2896 13.5888 16.1741 13.5889 16.0587 13.5892C15.6975 13.5898 15.3364 13.5903 14.9753 13.5904C14.5583 13.5906 14.1414 13.5915 13.7244 13.5928C13.4022 13.5938 13.0799 13.5943 12.7577 13.5944C12.5652 13.5944 12.3727 13.5947 12.1802 13.5955C11.9991 13.5963 11.8181 13.5964 11.637 13.596C11.5706 13.596 11.5042 13.5962 11.4377 13.5966C11.347 13.5972 11.2563 13.5969 11.1655 13.5965C11.1148 13.5965 11.064 13.5966 11.0117 13.5967C10.854 13.5766 10.7675 13.5331 10.6405 13.4386C10.5148 13.25 10.5145 13.0977 10.5468 12.8761C10.7077 12.6098 10.8575 12.5891 11.1536 12.5883Z" fill="#243E62"/>
<path d="M11.1536 10.4789C11.2118 10.4786 11.2701 10.4784 11.3301 10.4781C11.3947 10.478 11.4594 10.478 11.524 10.4779C11.592 10.4777 11.66 10.4775 11.728 10.4772C11.9128 10.4766 12.0975 10.4763 12.2823 10.4761C12.3978 10.476 12.5132 10.4758 12.6286 10.4756C12.9898 10.4749 13.3509 10.4745 13.712 10.4743C14.129 10.4741 14.5459 10.4733 14.9629 10.4719C15.2851 10.4709 15.6074 10.4704 15.9297 10.4703C16.1222 10.4703 16.3146 10.47 16.5071 10.4692C16.6882 10.4684 16.8692 10.4683 17.0503 10.4687C17.1167 10.4688 17.1832 10.4686 17.2496 10.4681C17.3403 10.4675 17.4311 10.4679 17.5218 10.4683C17.5726 10.4682 17.6233 10.4681 17.6756 10.468C17.8334 10.4882 17.9198 10.5316 18.0468 10.6261C18.1725 10.8147 18.1728 10.967 18.1405 11.1886C18.0414 11.3526 17.9944 11.4092 17.8124 11.4699C17.7196 11.4744 17.6266 11.4762 17.5337 11.4764C17.4464 11.4768 17.4464 11.4768 17.3573 11.4773C17.2926 11.4773 17.228 11.4774 17.1633 11.4774C17.0953 11.4776 17.0273 11.4779 16.9594 11.4781C16.7746 11.4787 16.5898 11.479 16.405 11.4792C16.2896 11.4794 16.1741 11.4796 16.0587 11.4798C15.6975 11.4804 15.3364 11.4809 14.9753 11.4811C14.5583 11.4813 14.1414 11.4821 13.7244 11.4834C13.4022 11.4845 13.0799 11.4849 12.7577 11.485C12.5652 11.485 12.3727 11.4853 12.1802 11.4862C11.9991 11.4869 11.8181 11.487 11.637 11.4866C11.5706 11.4866 11.5042 11.4868 11.4377 11.4873C11.347 11.4878 11.2563 11.4875 11.1655 11.4871C11.1148 11.4872 11.064 11.4872 11.0117 11.4873C10.854 11.4672 10.7675 11.4237 10.6405 11.3292C10.5148 11.1406 10.5145 10.9883 10.5468 10.7667C10.7077 10.5005 10.8575 10.4797 11.1536 10.4789Z" fill="#243E62"/>
<path d="M6.93487 1.99452C6.9931 1.99426 7.05132 1.99399 7.11132 1.99371C7.17596 1.99366 7.2406 1.9936 7.30525 1.99355C7.37324 1.99334 7.44122 1.9931 7.50921 1.99285C7.694 1.99223 7.87879 1.99193 8.06358 1.99172C8.17902 1.99159 8.29445 1.99139 8.40989 1.99118C8.77102 1.99054 9.13215 1.99009 9.49329 1.98991C9.91024 1.9897 10.3272 1.98888 10.7441 1.98752C11.0664 1.98651 11.3887 1.98603 11.7109 1.98597C11.9034 1.98592 12.0959 1.98564 12.2884 1.98481C12.4694 1.98403 12.6505 1.98393 12.8316 1.98434C12.898 1.98438 12.9644 1.98418 13.0308 1.98371C13.1216 1.98312 13.2123 1.98348 13.303 1.98388C13.3538 1.98381 13.4046 1.98374 13.4569 1.98367C13.6146 2.00378 13.7011 2.04727 13.828 2.14173C13.9538 2.33032 13.9541 2.48262 13.9218 2.70423C13.8227 2.86824 13.7757 2.92482 13.5937 2.98548C13.5008 2.99006 13.4079 2.99181 13.315 2.99207C13.2276 2.99247 13.2276 2.99247 13.1385 2.99288C13.0739 2.99294 13.0092 2.99299 12.9446 2.99304C12.8766 2.99325 12.8086 2.99349 12.7406 2.99374C12.5558 2.99436 12.371 2.99466 12.1862 2.99487C12.0708 2.995 11.9554 2.9952 11.8399 2.99541C11.4788 2.99605 11.1177 2.9965 10.7565 2.99668C10.3396 2.99689 9.92263 2.99771 9.50568 2.99907C9.18342 3.00008 8.86117 3.00056 8.53891 3.00062C8.34642 3.00067 8.15393 3.00095 7.96144 3.00178C7.78037 3.00256 7.59932 3.00266 7.41826 3.00225C7.35184 3.00221 7.28542 3.00241 7.219 3.00288C7.12826 3.00347 7.03751 3.00311 6.94677 3.00271C6.89601 3.00278 6.84525 3.00285 6.79295 3.00292C6.63521 2.98281 6.54877 2.93932 6.42178 2.84486C6.29606 2.65627 6.29576 2.50397 6.32803 2.28236C6.48891 2.01608 6.63872 1.99534 6.93487 1.99452Z" fill="#243E62"/>
<path d="M8.96416 4.10396C9.00464 4.1037 9.04512 4.10343 9.08683 4.10315C9.1311 4.1031 9.17537 4.10305 9.22099 4.10299C9.26772 4.10276 9.31446 4.10253 9.36261 4.10229C9.51747 4.1016 9.67232 4.10128 9.82718 4.10103C9.93467 4.10076 10.0422 4.10049 10.1496 4.10022C10.3751 4.09972 10.6006 4.09945 10.8261 4.09929C11.1151 4.09903 11.4041 4.0979 11.6932 4.09657C11.9152 4.0957 12.1373 4.09545 12.3593 4.09538C12.4659 4.09524 12.5725 4.09486 12.679 4.09425C12.8281 4.09345 12.9771 4.09353 13.1261 4.09384C13.1702 4.09341 13.2142 4.09297 13.2597 4.09253C13.4867 4.09398 13.6459 4.09966 13.828 4.25117C13.9538 4.43976 13.9541 4.59206 13.9218 4.81367C13.8227 4.97768 13.7757 5.03426 13.5937 5.09492C13.5276 5.09935 13.4613 5.10124 13.395 5.1015C13.3343 5.10191 13.3343 5.10191 13.2724 5.10232C13.2281 5.10237 13.1838 5.10242 13.1382 5.10247C13.0915 5.10271 13.0447 5.10294 12.9966 5.10318C12.8417 5.10387 12.6869 5.10418 12.532 5.10444C12.4245 5.10471 12.317 5.10498 12.2096 5.10525C11.9841 5.10575 11.7586 5.10602 11.5331 5.10618C11.2441 5.10644 10.9551 5.10757 10.666 5.1089C10.444 5.10977 10.2219 5.11002 9.99986 5.11009C9.8933 5.11023 9.78673 5.11061 9.68017 5.11122C9.53114 5.11202 9.38214 5.11193 9.23312 5.11163C9.18903 5.11206 9.14495 5.11249 9.09953 5.11294C8.87249 5.11148 8.71327 5.10581 8.53116 4.9543C8.40544 4.76571 8.40514 4.61341 8.43741 4.3918C8.57686 4.16098 8.70183 4.105 8.96416 4.10396Z" fill="#243E62"/>
<path d="M7.0779 4.15755C7.20899 4.25986 7.25459 4.32911 7.28279 4.493C7.29269 4.67301 7.27651 4.79061 7.19802 4.95442C7.0269 5.08798 6.87055 5.10884 6.65602 5.09505C6.48398 5.02184 6.4323 4.9704 6.3279 4.8138C6.29347 4.60002 6.30012 4.4379 6.41286 4.2513C6.61285 4.06845 6.82916 4.09379 7.0779 4.15755Z" fill="#243E62"/>
</g>
<defs>
<clipPath id="clip0_189_308">
<rect width="24" height="24" fill="white" transform="translate(0 0.0324707)"/>
</clipPath>
</defs>
</svg>
