<svg width="24" height="24" viewBox="0 0 24 24" fill="none" xmlns="http://www.w3.org/2000/svg">
<g clip-path="url(#clip0_172_265)">
<path d="M19.0781 1.64064C19.2358 1.73524 19.2921 1.80123 19.3411 1.97847C19.3629 2.18178 19.3416 2.30162 19.2243 2.47176C19.1174 2.59113 19.0071 2.70258 18.8906 2.81252C18.828 2.8749 18.7655 2.93738 18.7031 3.00002C18.7553 2.99998 18.8075 2.99994 18.8613 2.9999C19.355 2.99973 19.8488 3.00105 20.3425 3.00378C20.5963 3.00514 20.8501 3.00599 21.1039 3.00565C21.3492 3.00534 21.5944 3.0064 21.8397 3.00839C21.9329 3.00891 22.0261 3.00894 22.1193 3.00847C22.6922 3.00596 23.1632 3.01369 23.6203 3.40422C24.0022 3.80746 24.0278 4.26061 24.0258 4.79268C24.0262 4.86433 24.0267 4.93599 24.0272 5.00764C24.0285 5.20125 24.0285 5.39485 24.0283 5.58846C24.0282 5.7506 24.0287 5.91274 24.0291 6.07487C24.0301 6.45769 24.0302 6.84051 24.0296 7.22333C24.029 7.61707 24.0302 8.01078 24.0322 8.40451C24.0339 8.74362 24.0344 9.08272 24.0341 9.42183C24.0339 9.6239 24.0342 9.82595 24.0355 10.028C24.0367 10.2182 24.0365 10.4084 24.0353 10.5986C24.035 10.6679 24.0353 10.7373 24.0361 10.8067C24.0411 11.2942 23.9685 11.7139 23.6372 12.0935C23.2604 12.4545 22.8336 12.4955 22.3328 12.4871C22.2731 12.4868 22.2133 12.4865 22.1518 12.4863C21.9943 12.4854 21.8369 12.4837 21.6795 12.4816C21.5183 12.4797 21.3571 12.4789 21.1959 12.4779C20.8806 12.4759 20.5653 12.4727 20.25 12.4688C20.2515 12.5269 20.253 12.585 20.2545 12.6449C20.2596 12.8629 20.2628 13.0809 20.2655 13.299C20.2669 13.393 20.2688 13.4869 20.2712 13.5808C20.2987 14.6619 20.2987 14.6619 19.8926 15.1357C19.531 15.4796 19.1232 15.5433 18.6415 15.5401C18.5845 15.5404 18.5275 15.5408 18.4688 15.5412C18.3115 15.542 18.1543 15.5419 17.9971 15.5415C17.8271 15.5413 17.6572 15.5421 17.4872 15.5428C17.1546 15.544 16.822 15.5442 16.4894 15.544C16.2189 15.5438 15.9485 15.544 15.678 15.5444C15.6394 15.5444 15.6009 15.5445 15.5612 15.5446C15.4828 15.5447 15.4045 15.5448 15.3262 15.5449C14.5922 15.5459 13.8583 15.5457 13.1243 15.5451C12.4536 15.5447 11.7829 15.5457 11.1122 15.5475C10.4228 15.5493 9.73331 15.5501 9.04384 15.5497C8.65707 15.5495 8.27032 15.5498 7.88355 15.5511C7.55426 15.5522 7.22499 15.5524 6.8957 15.5512C6.72787 15.5507 6.56007 15.5506 6.39223 15.5517C6.20985 15.5529 6.02752 15.5519 5.84513 15.5507C5.79271 15.5514 5.74028 15.5521 5.68627 15.5528C5.27319 15.5472 4.90988 15.4275 4.59351 15.1528C4.27848 14.8216 4.19068 14.4329 4.19302 13.9893C4.19254 13.9417 4.19206 13.8941 4.19157 13.845C4.19027 13.6887 4.19036 13.5324 4.19057 13.3761C4.19021 13.2666 4.1898 13.1572 4.18936 13.0477C4.18866 12.8187 4.18868 12.5896 4.18918 12.3606C4.18972 12.0682 4.18813 11.7759 4.18596 11.4835C4.18457 11.2575 4.18449 11.0316 4.18479 10.8056C4.18474 10.6979 4.18425 10.5901 4.1833 10.4824C4.17442 9.33191 4.17442 9.33191 4.57612 8.86462C4.93713 8.52019 5.34587 8.45672 5.82728 8.45995C5.91278 8.45941 5.91278 8.45941 6.00002 8.45886C6.15726 8.45807 6.31446 8.4581 6.4717 8.45851C6.64167 8.45874 6.81162 8.45789 6.98159 8.45719C7.31419 8.456 7.64679 8.45583 7.97939 8.45605C8.24987 8.45621 8.52034 8.45605 8.79081 8.45565C8.82936 8.45559 8.86791 8.45554 8.90763 8.45548C8.98595 8.45537 9.06427 8.45525 9.14259 8.45514C9.87655 8.45412 10.6105 8.45432 11.3445 8.4549C12.0152 8.45538 12.6859 8.45432 13.3566 8.45254C14.046 8.45072 14.7355 8.44995 15.4249 8.4503C15.8117 8.45048 16.1985 8.45025 16.5852 8.44892C16.9145 8.4478 17.2438 8.44768 17.5731 8.44881C17.7409 8.44936 17.9087 8.44947 18.0766 8.44834C18.2589 8.44713 18.4413 8.44812 18.6237 8.44931C18.6761 8.44862 18.7285 8.44793 18.7825 8.44721C19.1956 8.45285 19.5589 8.57256 19.8753 8.84728C20.1873 9.17525 20.2785 9.55779 20.2683 9.99776C20.2681 10.0419 20.2678 10.086 20.2675 10.1315C20.2665 10.271 20.2641 10.4104 20.2617 10.5498C20.2608 10.645 20.2599 10.7402 20.2592 10.8354C20.2571 11.0674 20.2539 11.2993 20.25 11.5313C20.5778 11.5269 20.9056 11.5219 21.2334 11.5164C21.3448 11.5146 21.4562 11.513 21.5677 11.5115C21.7281 11.5093 21.8886 11.5066 22.049 11.5038C22.0986 11.5033 22.1482 11.5027 22.1993 11.5022C22.5721 11.4999 22.5721 11.4999 22.9219 11.3906C23.0532 11.0819 23.0292 10.754 23.0285 10.4238C23.0287 10.3591 23.029 10.2945 23.0292 10.2299C23.0299 10.055 23.0299 9.88024 23.0298 9.70543C23.0297 9.55923 23.03 9.41304 23.0302 9.26685C23.0307 8.92188 23.0307 8.57692 23.0304 8.23196C23.0302 7.87657 23.0307 7.52118 23.0317 7.16579C23.0326 6.86013 23.0328 6.55447 23.0327 6.24881C23.0326 6.06648 23.0327 5.88416 23.0334 5.70183C23.034 5.53038 23.0339 5.35895 23.0333 5.1875C23.0331 5.09492 23.0336 5.00234 23.0342 4.90976C23.0361 4.4954 23.0361 4.4954 22.875 4.12502C22.6625 4.01168 22.4407 4.01837 22.2047 4.02062C22.1667 4.02061 22.1287 4.0206 22.0896 4.02058C21.9648 4.02065 21.84 4.02137 21.7152 4.02211C21.6284 4.02229 21.5416 4.02242 21.4548 4.02251C21.2268 4.02287 20.9989 4.02379 20.7709 4.02483C20.5381 4.02579 20.3052 4.02622 20.0724 4.02669C19.616 4.02769 19.1596 4.02929 18.7031 4.03127C18.7393 4.06686 18.7754 4.10245 18.8126 4.13912C18.8601 4.18617 18.9076 4.23323 18.9551 4.28029C18.9789 4.3037 19.0027 4.32712 19.0272 4.35124C19.2109 4.53373 19.3262 4.65227 19.333 4.91603C19.3283 5.08796 19.3157 5.15094 19.2246 5.30275C19.0096 5.43177 18.8526 5.45104 18.6094 5.39064C18.5023 5.31392 18.5023 5.31392 18.3946 5.21193C18.354 5.17373 18.3134 5.13554 18.2716 5.09618C18.2068 5.03311 18.2068 5.03311 18.1406 4.96877C18.1182 4.94698 18.0958 4.92519 18.0726 4.90274C17.9305 4.76436 17.7898 4.62461 17.6498 4.48404C17.5771 4.41106 17.5041 4.33834 17.4311 4.26564C17.3844 4.2189 17.3377 4.17215 17.291 4.12538C17.2285 4.06276 17.2285 4.06276 17.1647 3.99888C17.0222 3.8479 16.9514 3.7422 16.9365 3.53615C16.9446 3.31809 16.9975 3.22313 17.1469 3.06612C17.2043 3.00531 17.2043 3.00531 17.2629 2.94326C17.3051 2.90012 17.3472 2.85697 17.3906 2.81252C17.4124 2.79008 17.4343 2.76765 17.4567 2.74454C17.5951 2.60239 17.7348 2.46166 17.8754 2.32168C17.9483 2.24896 18.0211 2.17598 18.0938 2.10298C18.1405 2.05628 18.1873 2.00958 18.234 1.96291C18.2758 1.92121 18.3175 1.87952 18.3605 1.83656C18.5904 1.61959 18.7724 1.59536 19.0781 1.64064ZM5.2969 9.56252C5.1469 9.80778 5.13595 10.0276 5.13807 10.31C5.13783 10.3506 5.13758 10.3913 5.13733 10.4332C5.13671 10.5668 5.13712 10.7004 5.13759 10.834C5.1375 10.9273 5.13736 11.0207 5.13719 11.114C5.13698 11.3093 5.13728 11.5045 5.13794 11.6998C5.13874 11.9496 5.13828 12.1994 5.13744 12.4493C5.13693 12.6419 5.13709 12.8345 5.13745 13.0271C5.13755 13.1192 5.13743 13.2113 5.1371 13.3034C5.13675 13.4323 5.13729 13.5612 5.13807 13.6901C5.13779 13.7278 5.13751 13.7656 5.13721 13.8045C5.13994 14.049 5.16794 14.2267 5.2969 14.4375C5.5807 14.6011 5.84216 14.598 6.16411 14.596C6.21813 14.5962 6.27216 14.5964 6.32783 14.5967C6.47717 14.5971 6.6265 14.597 6.77585 14.5965C6.93715 14.5962 7.09845 14.5967 7.25975 14.5971C7.57549 14.5977 7.89123 14.5976 8.20697 14.5972C8.46362 14.5968 8.72026 14.5968 8.97691 14.597C9.03173 14.597 9.03173 14.597 9.08766 14.597C9.16191 14.5971 9.23616 14.5971 9.3104 14.5972C10.0064 14.5976 10.7024 14.5971 11.3984 14.5963C11.9954 14.5957 12.5924 14.5958 13.1894 14.5965C13.8829 14.5972 14.5764 14.5975 15.27 14.5971C15.3439 14.597 15.4179 14.597 15.4919 14.597C15.5283 14.5969 15.5647 14.5969 15.6022 14.5969C15.8585 14.5968 16.1148 14.597 16.371 14.5973C16.6834 14.5977 16.9958 14.5976 17.3082 14.5968C17.4676 14.5965 17.6269 14.5963 17.7863 14.5968C17.9591 14.5972 18.1319 14.5967 18.3047 14.596C18.3549 14.5963 18.4052 14.5966 18.457 14.5969C18.7305 14.5948 18.9327 14.5754 19.1719 14.4375C19.3219 14.1923 19.3328 13.9725 19.3307 13.6901C19.331 13.6494 19.3312 13.6087 19.3315 13.5668C19.3321 13.4332 19.3317 13.2996 19.3312 13.166C19.3313 13.0727 19.3314 12.9794 19.3316 12.886C19.3318 12.6908 19.3315 12.4955 19.3309 12.3002C19.3301 12.0504 19.3305 11.8006 19.3314 11.5508C19.3319 11.3581 19.3317 11.1655 19.3313 10.9729C19.3312 10.8808 19.3314 10.7887 19.3317 10.6966C19.332 10.5677 19.3315 10.4388 19.3307 10.31C19.3311 10.2533 19.3311 10.2533 19.3316 10.1955C19.3288 9.95107 19.3009 9.77338 19.1719 9.56252C18.8881 9.39896 18.6266 9.40202 18.3047 9.40403C18.2507 9.40381 18.1966 9.4036 18.141 9.40337C17.9916 9.40291 17.8423 9.40307 17.6929 9.40351C17.5316 9.40383 17.3703 9.40334 17.209 9.40295C16.8933 9.40232 16.5776 9.40246 16.2618 9.40287C16.0052 9.40318 15.7485 9.40323 15.4919 9.40307C15.4553 9.40305 15.4188 9.40303 15.3811 9.40301C15.3069 9.40296 15.2326 9.40292 15.1584 9.40287C14.4624 9.40247 13.7664 9.40293 13.0704 9.40369C12.4734 9.40432 11.8764 9.40421 11.2794 9.40356C10.5859 9.40281 9.89236 9.40251 9.19883 9.40294C9.12485 9.40299 9.05088 9.40303 8.97691 9.40307C8.92231 9.40311 8.92231 9.40311 8.86662 9.40314C8.61033 9.40326 8.35403 9.40306 8.09774 9.40272C7.78534 9.40233 7.47295 9.40244 7.16055 9.40319C7.00121 9.40356 6.84187 9.4037 6.68252 9.40324C6.50971 9.40285 6.33692 9.40333 6.16411 9.40403C6.08873 9.40356 6.08872 9.40356 6.01182 9.40308C5.73825 9.40524 5.5361 9.42466 5.2969 9.56252Z" fill="#141522"/>
<path d="M1.60853 16.9443C1.69403 16.9437 1.69403 16.9437 1.78127 16.9432C1.93851 16.9424 2.09571 16.9424 2.25295 16.9428C2.42291 16.943 2.59287 16.9422 2.76284 16.9415C3.09544 16.9403 3.42804 16.9401 3.76064 16.9404C4.03112 16.9405 4.30159 16.9404 4.57206 16.94C4.61061 16.9399 4.64916 16.9398 4.68888 16.9398C4.7672 16.9397 4.84552 16.9396 4.92384 16.9394C5.6578 16.9384 6.39175 16.9386 7.12571 16.9392C7.79641 16.9397 8.4671 16.9386 9.1378 16.9368C9.82727 16.935 10.5167 16.9343 11.2062 16.9346C11.593 16.9348 11.9797 16.9346 12.3665 16.9332C12.6958 16.9321 13.0251 16.932 13.3543 16.9331C13.5222 16.9337 13.69 16.9338 13.8578 16.9326C14.0402 16.9314 14.2225 16.9324 14.4049 16.9336C14.4835 16.9326 14.4835 16.9326 14.5638 16.9315C14.9769 16.9372 15.3402 17.0569 15.6565 17.3316C15.9716 17.6628 16.0594 18.0515 16.057 18.495C16.0575 18.5427 16.058 18.5903 16.0585 18.6393C16.0598 18.7957 16.0597 18.952 16.0595 19.1083C16.0598 19.2177 16.0602 19.3272 16.0607 19.4366C16.0614 19.6657 16.0614 19.8947 16.0609 20.1238C16.0603 20.4161 16.0619 20.7085 16.0641 21.0008C16.0655 21.2268 16.0655 21.4528 16.0653 21.6787C16.0653 21.7865 16.0658 21.8942 16.0667 22.0019C16.0756 23.1524 16.0756 23.1524 15.6739 23.6197C15.3129 23.9641 14.9042 24.0276 14.4228 24.0244C14.3658 24.0247 14.3088 24.0251 14.25 24.0255C14.0928 24.0263 13.9356 24.0262 13.7783 24.0258C13.6084 24.0256 13.4384 24.0264 13.2685 24.0271C12.9358 24.0283 12.6033 24.0285 12.2706 24.0283C12.0002 24.0281 11.7297 24.0283 11.4592 24.0287C11.4207 24.0287 11.3821 24.0288 11.3424 24.0289C11.2641 24.029 11.1858 24.0291 11.1075 24.0292C10.3735 24.0302 9.63954 24.03 8.90558 24.0294C8.23488 24.029 7.56419 24.03 6.89349 24.0318C6.20402 24.0336 5.51456 24.0344 4.82509 24.034C4.43832 24.0339 4.05157 24.0341 3.6648 24.0354C3.33551 24.0365 3.00624 24.0367 2.67695 24.0355C2.50912 24.035 2.34131 24.0349 2.17348 24.036C1.9911 24.0372 1.80877 24.0362 1.62638 24.035C1.57396 24.0357 1.52153 24.0364 1.46752 24.0371C1.05444 24.0315 0.691127 23.9118 0.374759 23.6371C0.0597275 23.3059 -0.0280671 22.9172 -0.025729 22.4736C-0.0262082 22.426 -0.0266873 22.3784 -0.027181 22.3293C-0.0284767 22.173 -0.0283946 22.0167 -0.0281781 21.8604C-0.0285429 21.7509 -0.0289494 21.6415 -0.0293955 21.532C-0.0300935 21.303 -0.0300689 21.0739 -0.0295743 20.8449C-0.0290315 20.5525 -0.0306176 20.2602 -0.032794 19.9678C-0.0341805 19.7418 -0.0342568 19.5159 -0.033965 19.2899C-0.0340129 19.1822 -0.0344995 19.0744 -0.0354474 18.9667C-0.0443281 17.8162 -0.0443281 17.8162 0.357366 17.3489C0.71838 17.0045 1.12712 16.941 1.60853 16.9443ZM1.07815 18.0468C0.928151 18.2921 0.917195 18.5119 0.919324 18.7943C0.919078 18.8349 0.918831 18.8756 0.918577 18.9175C0.917961 19.0511 0.918367 19.1847 0.918843 19.3183C0.918749 19.4116 0.918612 19.505 0.918436 19.5983C0.918229 19.7936 0.918529 19.9888 0.919187 20.1841C0.919988 20.4339 0.919526 20.6838 0.918684 20.9336C0.918175 21.1262 0.918338 21.3188 0.918702 21.5114C0.918796 21.6035 0.918682 21.6956 0.918354 21.7877C0.917995 21.9166 0.918543 22.0455 0.919324 22.1744C0.919039 22.2121 0.918755 22.2499 0.918461 22.2888C0.921194 22.5333 0.949187 22.711 1.07815 22.9218C1.36195 23.0854 1.62341 23.0823 1.94536 23.0803C1.99938 23.0805 2.05341 23.0807 2.10908 23.081C2.25842 23.0814 2.40775 23.0813 2.5571 23.0808C2.7184 23.0805 2.8797 23.081 3.041 23.0814C3.35674 23.082 3.67248 23.0819 3.98822 23.0815C4.24487 23.0812 4.50151 23.0811 4.75816 23.0813C4.81298 23.0813 4.81298 23.0813 4.86891 23.0813C4.94316 23.0814 5.0174 23.0814 5.09165 23.0815C5.78765 23.0819 6.48364 23.0814 7.17963 23.0807C7.77663 23.08 8.37363 23.0801 8.97063 23.0808C9.66416 23.0815 10.3577 23.0818 11.0512 23.0814C11.1252 23.0814 11.1992 23.0813 11.2731 23.0813C11.3095 23.0812 11.3459 23.0812 11.3834 23.0812C11.6397 23.0811 11.896 23.0813 12.1523 23.0816C12.4647 23.082 12.7771 23.0819 13.0895 23.0812C13.2488 23.0808 13.4082 23.0806 13.5675 23.0811C13.7403 23.0815 13.9131 23.081 14.0859 23.0803C14.1362 23.0806 14.1864 23.0809 14.2382 23.0813C14.5118 23.0791 14.7139 23.0597 14.9531 22.9218C15.1031 22.6766 15.1141 22.4568 15.112 22.1744C15.1122 22.1337 15.1125 22.093 15.1127 22.0511C15.1133 21.9175 15.1129 21.7839 15.1124 21.6503C15.1125 21.557 15.1127 21.4637 15.1129 21.3703C15.1131 21.1751 15.1128 20.9798 15.1121 20.7845C15.1113 20.5347 15.1118 20.2849 15.1126 20.0351C15.1131 19.8424 15.113 19.6498 15.1126 19.4572C15.1125 19.3651 15.1126 19.273 15.1129 19.1809C15.1133 19.052 15.1127 18.9232 15.112 18.7943C15.1124 18.7376 15.1124 18.7376 15.1128 18.6799C15.1101 18.4354 15.0821 18.2577 14.9531 18.0468C14.6693 17.8833 14.4079 17.8863 14.0859 17.8883C14.0319 17.8881 13.9779 17.8879 13.9222 17.8877C13.7729 17.8872 13.6235 17.8874 13.4742 17.8878C13.3129 17.8881 13.1516 17.8876 12.9903 17.8873C12.6745 17.8866 12.3588 17.8868 12.0431 17.8872C11.7864 17.8875 11.5298 17.8875 11.2731 17.8874C11.2366 17.8874 11.2 17.8873 11.1624 17.8873C11.0881 17.8873 11.0139 17.8872 10.9396 17.8872C10.2436 17.8868 9.54765 17.8872 8.85166 17.888C8.25466 17.8886 7.65766 17.8885 7.06066 17.8879C6.36713 17.8871 5.67361 17.8868 4.98008 17.8872C4.9061 17.8873 4.83213 17.8873 4.75816 17.8874C4.70356 17.8874 4.70356 17.8874 4.64787 17.8874C4.39158 17.8876 4.13528 17.8874 3.87899 17.887C3.56659 17.8866 3.2542 17.8867 2.9418 17.8875C2.78246 17.8879 2.62312 17.888 2.46377 17.8875C2.29096 17.8872 2.11817 17.8876 1.94536 17.8883C1.86997 17.8879 1.86997 17.8879 1.79307 17.8874C1.5195 17.8895 1.31735 17.909 1.07815 18.0468Z" fill="#141522"/>
<path d="M1.60853 -0.0244935C1.69403 -0.0250314 1.69403 -0.0250314 1.78127 -0.0255803C1.93851 -0.0263771 2.09571 -0.0263406 2.25295 -0.0259383C2.42291 -0.0257063 2.59287 -0.0265531 2.76284 -0.0272544C3.09544 -0.0284475 3.42804 -0.0286178 3.76064 -0.0283981C4.03112 -0.0282307 4.30159 -0.0283954 4.57206 -0.0287941C4.61061 -0.0288499 4.64916 -0.0289057 4.68888 -0.0289632C4.7672 -0.0290768 4.84552 -0.0291906 4.92384 -0.0293047C5.6578 -0.0303236 6.39175 -0.0301219 7.12571 -0.0295499C7.79641 -0.0290654 8.4671 -0.0301202 9.1378 -0.0319028C9.82727 -0.0337212 10.5167 -0.0344932 11.2062 -0.0341413C11.593 -0.0339622 11.9797 -0.0341929 12.3665 -0.0355207C12.6958 -0.0366399 13.0251 -0.0367669 13.3543 -0.0356342C13.5222 -0.0350836 13.69 -0.0349747 13.8578 -0.0361031C14.0402 -0.0373152 14.2225 -0.036324 14.4049 -0.0351365C14.4835 -0.0361735 14.4835 -0.0361735 14.5638 -0.0372314C14.9769 -0.0315955 15.3402 0.0881184 15.6565 0.362829C15.9716 0.694004 16.0594 1.08273 16.057 1.52628C16.0575 1.5739 16.058 1.62152 16.0585 1.67059C16.0598 1.82691 16.0597 1.9832 16.0595 2.13953C16.0598 2.24898 16.0602 2.35843 16.0607 2.46788C16.0614 2.69693 16.0614 2.92596 16.0609 3.155C16.0603 3.44738 16.0619 3.7397 16.0641 4.03207C16.0655 4.25804 16.0655 4.484 16.0653 4.70998C16.0653 4.81771 16.0658 4.92545 16.0667 5.03318C16.0756 6.18367 16.0756 6.18367 15.6739 6.65097C15.3129 6.99539 14.9042 7.05887 14.4228 7.05564C14.3658 7.056 14.3088 7.05635 14.25 7.05672C14.0928 7.05752 13.9356 7.05748 13.7783 7.05708C13.6084 7.05685 13.4384 7.0577 13.2685 7.0584C12.9358 7.05959 12.6033 7.05976 12.2706 7.05954C12.0002 7.05937 11.7297 7.05954 11.4592 7.05994C11.4207 7.05999 11.3821 7.06005 11.3424 7.06011C11.2641 7.06022 11.1858 7.06033 11.1075 7.06045C10.3735 7.06147 9.63954 7.06127 8.90558 7.06069C8.23488 7.06021 7.56419 7.06126 6.89349 7.06305C6.20402 7.06486 5.51456 7.06564 4.82509 7.06529C4.43832 7.06511 4.05157 7.06534 3.6648 7.06666C3.33551 7.06778 3.00624 7.06791 2.67695 7.06678C2.50912 7.06623 2.34131 7.06612 2.17348 7.06725C1.9911 7.06846 1.80877 7.06747 1.62638 7.06628C1.57396 7.06697 1.52153 7.06766 1.46752 7.06838C1.05444 7.06274 0.691127 6.94303 0.374759 6.66831C0.0597275 6.33714 -0.0280671 5.94841 -0.025729 5.50486C-0.0262082 5.45724 -0.0266873 5.40962 -0.027181 5.36056C-0.0284767 5.20423 -0.0283946 5.04794 -0.0281781 4.89161C-0.0285429 4.78216 -0.0289494 4.67271 -0.0293955 4.56326C-0.0300935 4.33422 -0.0300689 4.10519 -0.0295743 3.87614C-0.0290315 3.58376 -0.0306176 3.29144 -0.032794 2.99907C-0.0341805 2.7731 -0.0342568 2.54714 -0.033965 2.32117C-0.0340129 2.21343 -0.0344995 2.1057 -0.0354474 1.99797C-0.0443281 0.84747 -0.0443281 0.84747 0.357366 0.380173C0.71838 0.0357494 1.12712 -0.0277276 1.60853 -0.0244935ZM1.07815 1.07807C0.928151 1.32333 0.917195 1.54312 0.919324 1.82551C0.919078 1.86618 0.918831 1.90685 0.918577 1.94875C0.917961 2.08236 0.918367 2.21594 0.918843 2.34956C0.918749 2.44289 0.918612 2.53622 0.918436 2.62955C0.918229 2.82483 0.918529 3.02009 0.919187 3.21537C0.919988 3.4652 0.919526 3.715 0.918684 3.96483C0.918175 4.15745 0.918338 4.35007 0.918702 4.5427C0.918796 4.6348 0.918682 4.72689 0.918354 4.81899C0.917995 4.94788 0.918543 5.07674 0.919324 5.20564C0.919039 5.24339 0.918755 5.28114 0.918461 5.32004C0.921194 5.56452 0.949187 5.74221 1.07815 5.95307C1.36195 6.11663 1.62341 6.11356 1.94536 6.11155C1.99938 6.11177 2.05341 6.11199 2.10908 6.11222C2.25842 6.11268 2.40775 6.11252 2.5571 6.11208C2.7184 6.11176 2.8797 6.11225 3.041 6.11264C3.35674 6.11326 3.67248 6.11313 3.98822 6.11272C4.24487 6.1124 4.50151 6.11236 4.75816 6.11251C4.81298 6.11255 4.81298 6.11255 4.86891 6.11258C4.94316 6.11263 5.0174 6.11267 5.09165 6.11272C5.78765 6.11312 6.48364 6.11266 7.17963 6.1119C7.77663 6.11127 8.37363 6.11138 8.97063 6.11203C9.66416 6.11278 10.3577 6.11308 11.0512 6.11265C11.1252 6.1126 11.1992 6.11256 11.2731 6.11251C11.3095 6.11249 11.3459 6.11247 11.3834 6.11245C11.6397 6.11233 11.896 6.11253 12.1523 6.11286C12.4647 6.11326 12.7771 6.11315 13.0895 6.1124C13.2488 6.11203 13.4082 6.11189 13.5675 6.11235C13.7403 6.11274 13.9131 6.11226 14.0859 6.11155C14.1362 6.11187 14.1864 6.11218 14.2382 6.1125C14.5118 6.11035 14.7139 6.09092 14.9531 5.95307C15.1031 5.70781 15.1141 5.48802 15.112 5.20564C15.1122 5.16497 15.1125 5.1243 15.1127 5.0824C15.1133 4.94878 15.1129 4.8152 15.1124 4.68159C15.1125 4.58826 15.1127 4.49493 15.1129 4.4016C15.1131 4.20632 15.1128 4.01105 15.1121 3.81577C15.1113 3.56595 15.1118 3.31614 15.1126 3.06632C15.1131 2.87369 15.113 2.68107 15.1126 2.48844C15.1125 2.39635 15.1126 2.30425 15.1129 2.21216C15.1133 2.08326 15.1127 1.9544 15.112 1.82551C15.1124 1.76888 15.1124 1.76888 15.1128 1.7111C15.1101 1.46663 15.0821 1.28894 14.9531 1.07807C14.6693 0.914514 14.4079 0.91758 14.0859 0.91959C14.0319 0.91937 13.9779 0.919151 13.9222 0.918925C13.7729 0.918462 13.6235 0.918627 13.4742 0.919064C13.3129 0.919382 13.1516 0.91889 12.9903 0.918504C12.6745 0.917879 12.3588 0.918014 12.0431 0.918421C11.7864 0.918739 11.5298 0.918782 11.2731 0.918629C11.2366 0.918607 11.2 0.918586 11.1624 0.918564C11.0881 0.918519 11.0139 0.918473 10.9396 0.918427C10.2436 0.918026 9.54765 0.918487 8.85166 0.919243C8.25466 0.919871 7.65766 0.919762 7.06066 0.919113C6.36713 0.918361 5.67361 0.918065 4.98008 0.918496C4.9061 0.918541 4.83213 0.918585 4.75816 0.918629C4.70356 0.918662 4.70356 0.918662 4.64787 0.918695C4.39158 0.918816 4.13528 0.918611 3.87899 0.91828C3.56659 0.917886 3.2542 0.917993 2.9418 0.918742C2.78246 0.919111 2.62312 0.919257 2.46377 0.918791C2.29096 0.918407 2.11817 0.918888 1.94536 0.91959C1.86997 0.919119 1.86997 0.919119 1.79307 0.918639C1.5195 0.920797 1.31735 0.94022 1.07815 1.07807Z" fill="#141522"/>
<path d="M2.66941 18.93C2.7165 18.9295 2.7636 18.9291 2.81212 18.9286C2.86295 18.9284 2.91378 18.9282 2.96615 18.928C3.01846 18.9278 3.07077 18.9275 3.12466 18.9272C3.23538 18.9268 3.34611 18.9265 3.45683 18.9263C3.62617 18.9258 3.79548 18.9244 3.96481 18.9229C4.07235 18.9226 4.1799 18.9223 4.28744 18.9222C4.33808 18.9216 4.38872 18.921 4.4409 18.9204C4.88404 18.9217 4.88404 18.9217 5.06271 19.0782C5.16615 19.2333 5.16861 19.2827 5.17008 19.4634C5.17068 19.5133 5.17127 19.5632 5.17189 19.6146C5.172 19.6686 5.1721 19.7225 5.17221 19.778C5.17268 19.8611 5.17268 19.8611 5.17315 19.946C5.17363 20.0633 5.17385 20.1807 5.17383 20.298C5.17404 20.4775 5.17574 20.657 5.17752 20.8365C5.17779 20.9505 5.17798 21.0644 5.17807 21.1784C5.17874 21.2321 5.17941 21.2858 5.18011 21.3412C5.17797 21.7127 5.17797 21.7127 5.07015 21.9C4.91611 22.0285 4.7902 22.0374 4.59664 22.0388C4.526 22.0395 4.526 22.0395 4.45393 22.0402C4.4031 22.0404 4.35226 22.0406 4.29989 22.0408C4.22143 22.0412 4.22143 22.0412 4.14139 22.0416C4.03066 22.0421 3.91994 22.0424 3.80922 22.0426C3.63988 22.043 3.47057 22.0445 3.30124 22.0459C3.19369 22.0462 3.08615 22.0465 2.9786 22.0467C2.90264 22.0475 2.90264 22.0475 2.82515 22.0484C2.382 22.0471 2.382 22.0471 2.20334 21.8907C2.0999 21.7355 2.09744 21.6862 2.09597 21.5054C2.09537 21.4555 2.09477 21.4056 2.09415 21.3542C2.09405 21.3003 2.09395 21.2464 2.09384 21.1908C2.09353 21.1354 2.09321 21.08 2.09289 21.0229C2.09242 20.9055 2.0922 20.7882 2.09221 20.6708C2.09201 20.4913 2.09031 20.3118 2.08853 20.1323C2.08825 20.0184 2.08807 19.9044 2.08798 19.7905C2.08731 19.7367 2.08663 19.683 2.08594 19.6277C2.08807 19.2562 2.08807 19.2562 2.1959 19.0688C2.34994 18.9403 2.47584 18.9315 2.66941 18.93ZM3.04709 19.9219C3.04709 20.2932 3.04709 20.6644 3.04709 21.0469C3.4338 21.0469 3.82052 21.0469 4.21896 21.0469C4.21896 20.6757 4.21896 20.3044 4.21896 19.9219C3.83224 19.9219 3.44552 19.9219 3.04709 19.9219Z" fill="#141522"/>
<path d="M6.88816 10.4456C6.93525 10.4452 6.98235 10.4447 7.03087 10.4443C7.0817 10.4441 7.13253 10.4439 7.1849 10.4436C7.23721 10.4434 7.28952 10.4431 7.34341 10.4428C7.45413 10.4424 7.56486 10.4421 7.67558 10.4419C7.84492 10.4415 8.01423 10.44 8.18356 10.4385C8.2911 10.4382 8.39865 10.438 8.50619 10.4378C8.55683 10.4372 8.60747 10.4366 8.65965 10.436C9.10279 10.4374 9.10279 10.4374 9.28146 10.5938C9.3849 10.749 9.38736 10.7983 9.38883 10.979C9.38943 11.0289 9.39002 11.0788 9.39064 11.1303C9.39075 11.1842 9.39085 11.2381 9.39096 11.2936C9.39143 11.3768 9.39143 11.3768 9.3919 11.4616C9.39238 11.5789 9.3926 11.6963 9.39258 11.8136C9.39279 11.9932 9.39449 12.1726 9.39627 12.3522C9.39654 12.4661 9.39673 12.5801 9.39682 12.694C9.39749 12.7477 9.39816 12.8014 9.39886 12.8568C9.39672 13.2283 9.39672 13.2283 9.2889 13.4157C9.13486 13.5441 9.00895 13.553 8.81539 13.5545C8.74475 13.5551 8.74475 13.5551 8.67268 13.5558C8.62185 13.556 8.57101 13.5562 8.51864 13.5564C8.44018 13.5568 8.44018 13.5568 8.36014 13.5573C8.24941 13.5577 8.13869 13.558 8.02797 13.5582C7.85863 13.5586 7.68932 13.5601 7.51999 13.5616C7.41244 13.5619 7.3049 13.5621 7.19735 13.5623C7.12139 13.5632 7.12139 13.5632 7.0439 13.5641C6.60075 13.5627 6.60075 13.5627 6.42209 13.4063C6.31865 13.2511 6.31619 13.2018 6.31472 13.0211C6.31412 12.9712 6.31352 12.9212 6.3129 12.8698C6.3128 12.8159 6.3127 12.762 6.31259 12.7065C6.31228 12.651 6.31196 12.5956 6.31164 12.5385C6.31117 12.4212 6.31095 12.3038 6.31096 12.1865C6.31076 12.0069 6.30906 11.8275 6.30728 11.6479C6.307 11.534 6.30682 11.42 6.30673 11.3061C6.30606 11.2524 6.30538 11.1986 6.30469 11.1433C6.30682 10.7718 6.30682 10.7718 6.41465 10.5844C6.56869 10.456 6.69459 10.4471 6.88816 10.4456ZM7.26584 11.4375C7.26584 11.8088 7.26584 12.18 7.26584 12.5625C7.65255 12.5625 8.03927 12.5625 8.43771 12.5625C8.43771 12.1913 8.43771 11.82 8.43771 11.4375C8.05099 11.4375 7.66427 11.4375 7.26584 11.4375Z" fill="#141522"/>
<path d="M2.66941 1.96124C2.7165 1.96079 2.7636 1.96034 2.81212 1.95988C2.86295 1.95968 2.91378 1.95948 2.96615 1.95927C3.01846 1.95901 3.07077 1.95874 3.12466 1.95846C3.23538 1.95802 3.34611 1.95771 3.45683 1.95753C3.62617 1.95708 3.79548 1.95562 3.96481 1.95415C4.07235 1.95384 4.1799 1.95359 4.28744 1.95341C4.33808 1.95284 4.38872 1.95226 4.4409 1.95166C4.88404 1.95298 4.88404 1.95298 5.06271 2.10942C5.16615 2.26458 5.16861 2.31393 5.17008 2.49465C5.17068 2.54456 5.17127 2.59447 5.17189 2.64589C5.172 2.6998 5.1721 2.75371 5.17221 2.80925C5.17268 2.89239 5.17268 2.89239 5.17315 2.97722C5.17363 3.09456 5.17385 3.2119 5.17383 3.32925C5.17404 3.50878 5.17574 3.68826 5.17752 3.86778C5.17779 3.98173 5.17798 4.09569 5.17807 4.20964C5.17874 4.26336 5.17941 4.31707 5.18011 4.37242C5.17797 4.74391 5.17797 4.74391 5.07015 4.93128C4.91611 5.05975 4.7902 5.0686 4.59664 5.0701C4.526 5.07077 4.526 5.07077 4.45393 5.07146C4.4031 5.07166 4.35226 5.07186 4.29989 5.07207C4.22143 5.07247 4.22143 5.07247 4.14139 5.07288C4.03066 5.07332 3.91994 5.07363 3.80922 5.07381C3.63988 5.07426 3.47057 5.07572 3.30124 5.07719C3.19369 5.0775 3.08615 5.07775 2.9786 5.07793C2.90264 5.07879 2.90264 5.07879 2.82515 5.07968C2.382 5.07836 2.382 5.07836 2.20334 4.92192C2.0999 4.76676 2.09744 4.71741 2.09597 4.53669C2.09537 4.48678 2.09477 4.43687 2.09415 4.38545C2.09405 4.33154 2.09395 4.27763 2.09384 4.22209C2.09353 4.16666 2.09321 4.11123 2.09289 4.05412C2.09242 3.93678 2.0922 3.81944 2.09221 3.70209C2.09201 3.52256 2.09031 3.34308 2.08853 3.16356C2.08825 3.04961 2.08807 2.93565 2.08798 2.8217C2.08731 2.76798 2.08663 2.71427 2.08594 2.65892C2.08807 2.28743 2.08807 2.28743 2.1959 2.10006C2.34994 1.97159 2.47584 1.96274 2.66941 1.96124ZM3.04709 2.95317C3.04709 3.32442 3.04709 3.69567 3.04709 4.07817C3.4338 4.07817 3.82052 4.07817 4.21896 4.07817C4.21896 3.70692 4.21896 3.33567 4.21896 2.95317C3.83224 2.95317 3.44552 2.95317 3.04709 2.95317Z" fill="#141522"/>
<path d="M6.93487 21.0403C6.9931 21.04 7.05132 21.0398 7.11132 21.0395C7.17596 21.0394 7.2406 21.0394 7.30525 21.0393C7.37324 21.0391 7.44122 21.0389 7.50921 21.0386C7.694 21.038 7.87879 21.0377 8.06358 21.0375C8.17902 21.0374 8.29445 21.0372 8.40989 21.037C8.77102 21.0363 9.13215 21.0359 9.49329 21.0357C9.91024 21.0355 10.3272 21.0347 10.7441 21.0333C11.0664 21.0323 11.3887 21.0318 11.7109 21.0317C11.9034 21.0317 12.0959 21.0314 12.2884 21.0306C12.4694 21.0298 12.6505 21.0297 12.8316 21.0301C12.898 21.0302 12.9644 21.03 13.0308 21.0295C13.1216 21.0289 13.2123 21.0293 13.303 21.0297C13.3538 21.0296 13.4046 21.0295 13.4569 21.0294C13.6146 21.0496 13.7011 21.093 13.828 21.1875C13.9538 21.3761 13.9541 21.5284 13.9218 21.75C13.8227 21.914 13.7757 21.9706 13.5937 22.0313C13.5008 22.0358 13.4079 22.0376 13.315 22.0378C13.2276 22.0382 13.2276 22.0382 13.1385 22.0387C13.0739 22.0387 13.0092 22.0388 12.9446 22.0388C12.8766 22.039 12.8086 22.0393 12.7406 22.0395C12.5558 22.0401 12.371 22.0404 12.1862 22.0406C12.0708 22.0408 11.9554 22.041 11.8399 22.0412C11.4788 22.0418 11.1177 22.0423 10.7565 22.0425C10.3396 22.0427 9.92263 22.0435 9.50568 22.0448C9.18342 22.0459 8.86117 22.0463 8.53891 22.0464C8.34642 22.0464 8.15393 22.0467 7.96144 22.0476C7.78037 22.0483 7.59932 22.0484 7.41826 22.048C7.35184 22.048 7.28542 22.0482 7.219 22.0487C7.12826 22.0492 7.03751 22.0489 6.94677 22.0485C6.89601 22.0486 6.84525 22.0486 6.79295 22.0487C6.63521 22.0286 6.54877 21.9851 6.42178 21.8906C6.29606 21.702 6.29576 21.5497 6.32803 21.3281C6.48891 21.0619 6.63872 21.0411 6.93487 21.0403Z" fill="#141522"/>
<path d="M6.93487 18.9309C6.9931 18.9307 7.05132 18.9304 7.11132 18.9301C7.17596 18.9301 7.2406 18.93 7.30525 18.93C7.37324 18.9297 7.44122 18.9295 7.50921 18.9293C7.694 18.9286 7.87879 18.9283 8.06358 18.9281C8.17902 18.928 8.29445 18.9278 8.40989 18.9276C8.77102 18.9269 9.13215 18.9265 9.49329 18.9263C9.91024 18.9261 10.3272 18.9253 10.7441 18.9239C11.0664 18.9229 11.3887 18.9224 11.7109 18.9224C11.9034 18.9223 12.0959 18.922 12.2884 18.9212C12.4694 18.9204 12.6505 18.9203 12.8316 18.9207C12.898 18.9208 12.9644 18.9206 13.0308 18.9201C13.1216 18.9195 13.2123 18.9199 13.303 18.9203C13.3538 18.9202 13.4046 18.9201 13.4569 18.9201C13.6146 18.9402 13.7011 18.9837 13.828 19.0781C13.9538 19.2667 13.9541 19.419 13.9218 19.6406C13.8227 19.8046 13.7757 19.8612 13.5937 19.9219C13.5008 19.9265 13.4079 19.9282 13.315 19.9285C13.2276 19.9289 13.2276 19.9289 13.1385 19.9293C13.0739 19.9293 13.0092 19.9294 12.9446 19.9294C12.8766 19.9297 12.8086 19.9299 12.7406 19.9301C12.5558 19.9308 12.371 19.9311 12.1862 19.9313C12.0708 19.9314 11.9554 19.9316 11.8399 19.9318C11.4788 19.9324 11.1177 19.9329 10.7565 19.9331C10.3396 19.9333 9.92263 19.9341 9.50568 19.9355C9.18342 19.9365 8.86117 19.937 8.53891 19.937C8.34642 19.9371 8.15393 19.9373 7.96144 19.9382C7.78037 19.939 7.59932 19.9391 7.41826 19.9386C7.35184 19.9386 7.28542 19.9388 7.219 19.9393C7.12826 19.9399 7.03751 19.9395 6.94677 19.9391C6.89601 19.9392 6.84525 19.9392 6.79295 19.9393C6.63521 19.9192 6.54877 19.8757 6.42178 19.7813C6.29606 19.5927 6.29576 19.4404 6.32803 19.2188C6.48891 18.9525 6.63872 18.9317 6.93487 18.9309Z" fill="#141522"/>
<path d="M11.1536 12.5559C11.2118 12.5557 11.2701 12.5554 11.3301 12.5551C11.3947 12.5551 11.4594 12.555 11.524 12.555C11.592 12.5547 11.66 12.5545 11.728 12.5543C11.9128 12.5536 12.0975 12.5533 12.2823 12.5531C12.3978 12.553 12.5132 12.5528 12.6286 12.5526C12.9898 12.5519 13.3509 12.5515 13.712 12.5513C14.129 12.5511 14.5459 12.5503 14.9629 12.5489C15.2851 12.5479 15.6074 12.5474 15.9297 12.5474C16.1222 12.5473 16.3146 12.547 16.5071 12.5462C16.6882 12.5454 16.8692 12.5453 17.0503 12.5457C17.1167 12.5458 17.1832 12.5456 17.2496 12.5451C17.3403 12.5445 17.4311 12.5449 17.5218 12.5453C17.5726 12.5452 17.6233 12.5451 17.6756 12.5451C17.8334 12.5652 17.9198 12.6087 18.0468 12.7031C18.1725 12.8917 18.1728 13.044 18.1405 13.2656C18.0414 13.4296 17.9944 13.4862 17.8124 13.5469C17.7196 13.5515 17.6266 13.5532 17.5337 13.5535C17.4464 13.5539 17.4464 13.5539 17.3573 13.5543C17.2926 13.5543 17.228 13.5544 17.1633 13.5544C17.0953 13.5547 17.0273 13.5549 16.9594 13.5551C16.7746 13.5558 16.5898 13.5561 16.405 13.5563C16.2896 13.5564 16.1741 13.5566 16.0587 13.5568C15.6975 13.5574 15.3364 13.5579 14.9753 13.5581C14.5583 13.5583 14.1414 13.5591 13.7244 13.5605C13.4022 13.5615 13.0799 13.562 12.7577 13.562C12.5652 13.5621 12.3727 13.5623 12.1802 13.5632C11.9991 13.564 11.8181 13.5641 11.637 13.5636C11.5706 13.5636 11.5042 13.5638 11.4377 13.5643C11.347 13.5649 11.2563 13.5645 11.1655 13.5641C11.1148 13.5642 11.064 13.5642 11.0117 13.5643C10.854 13.5442 10.7675 13.5007 10.6405 13.4063C10.5148 13.2177 10.5145 13.0654 10.5468 12.8438C10.7077 12.5775 10.8575 12.5567 11.1536 12.5559Z" fill="#141522"/>
<path d="M11.1536 10.4466C11.2118 10.4463 11.2701 10.446 11.3301 10.4457C11.3947 10.4457 11.4594 10.4456 11.524 10.4456C11.592 10.4454 11.66 10.4451 11.728 10.4449C11.9128 10.4443 12.0975 10.444 12.2823 10.4438C12.3978 10.4436 12.5132 10.4434 12.6286 10.4432C12.9898 10.4426 13.3509 10.4421 13.712 10.4419C14.129 10.4417 14.5459 10.4409 14.9629 10.4395C15.2851 10.4385 15.6074 10.4381 15.9297 10.438C16.1222 10.4379 16.3146 10.4377 16.5071 10.4368C16.6882 10.4361 16.8692 10.436 17.0503 10.4364C17.1167 10.4364 17.1832 10.4362 17.2496 10.4357C17.3403 10.4351 17.4311 10.4355 17.5218 10.4359C17.5726 10.4358 17.6233 10.4358 17.6756 10.4357C17.8334 10.4558 17.9198 10.4993 18.0468 10.5938C18.1725 10.7823 18.1728 10.9346 18.1405 11.1563C18.0414 11.3203 17.9944 11.3768 17.8124 11.4375C17.7196 11.4421 17.6266 11.4438 17.5337 11.4441C17.4464 11.4445 17.4464 11.4445 17.3573 11.4449C17.2926 11.445 17.228 11.445 17.1633 11.4451C17.0953 11.4453 17.0273 11.4455 16.9594 11.4458C16.7746 11.4464 16.5898 11.4467 16.405 11.4469C16.2896 11.447 16.1741 11.4472 16.0587 11.4474C15.6975 11.4481 15.3364 11.4485 14.9753 11.4487C14.5583 11.4489 14.1414 11.4497 13.7244 11.4511C13.4022 11.4521 13.0799 11.4526 12.7577 11.4526C12.5652 11.4527 12.3727 11.453 12.1802 11.4538C11.9991 11.4546 11.8181 11.4547 11.637 11.4543C11.5706 11.4542 11.5042 11.4544 11.4377 11.4549C11.347 11.4555 11.2563 11.4551 11.1655 11.4547C11.1148 11.4548 11.064 11.4549 11.0117 11.4549C10.854 11.4348 10.7675 11.3913 10.6405 11.2969C10.5148 11.1083 10.5145 10.956 10.5468 10.7344C10.7077 10.4681 10.8575 10.4474 11.1536 10.4466Z" fill="#141522"/>
<path d="M6.93487 1.96218C6.9931 1.96191 7.05132 1.96164 7.11132 1.96136C7.17596 1.96131 7.2406 1.96125 7.30525 1.96121C7.37324 1.96099 7.44122 1.96075 7.50921 1.9605C7.694 1.95989 7.87879 1.95958 8.06358 1.95938C8.17902 1.95924 8.29445 1.95905 8.40989 1.95884C8.77102 1.9582 9.13215 1.95774 9.49329 1.95756C9.91024 1.95735 10.3272 1.95653 10.7441 1.95517C11.0664 1.95416 11.3887 1.95368 11.7109 1.95362C11.9034 1.95357 12.0959 1.9533 12.2884 1.95246C12.4694 1.95169 12.6505 1.95158 12.8316 1.952C12.898 1.95203 12.9644 1.95183 13.0308 1.95137C13.1216 1.95077 13.2123 1.95113 13.303 1.95153C13.3538 1.95146 13.4046 1.9514 13.4569 1.95132C13.6146 1.97143 13.7011 2.01492 13.828 2.10938C13.9538 2.29797 13.9541 2.45027 13.9218 2.67188C13.8227 2.8359 13.7757 2.89247 13.5937 2.95313C13.5008 2.95771 13.4079 2.95946 13.315 2.95972C13.2276 2.96012 13.2276 2.96012 13.1385 2.96053C13.0739 2.96059 13.0092 2.96064 12.9446 2.96069C12.8766 2.9609 12.8086 2.96114 12.7406 2.96139C12.5558 2.96201 12.371 2.96231 12.1862 2.96252C12.0708 2.96266 11.9554 2.96285 11.8399 2.96306C11.4788 2.9637 11.1177 2.96415 10.7565 2.96433C10.3396 2.96454 9.92263 2.96537 9.50568 2.96672C9.18342 2.96774 8.86117 2.96821 8.53891 2.96827C8.34642 2.96832 8.15393 2.9686 7.96144 2.96944C7.78037 2.97021 7.59932 2.97031 7.41826 2.9699C7.35184 2.96986 7.28542 2.97007 7.219 2.97053C7.12826 2.97112 7.03751 2.97077 6.94677 2.97036C6.89601 2.97043 6.84525 2.9705 6.79295 2.97057C6.63521 2.95046 6.54877 2.90697 6.42178 2.81251C6.29606 2.62392 6.29576 2.47162 6.32803 2.25001C6.48891 1.98373 6.63872 1.96299 6.93487 1.96218Z" fill="#141522"/>
<path d="M8.96416 4.07149C9.00464 4.07123 9.04512 4.07096 9.08683 4.07068C9.1311 4.07063 9.17537 4.07058 9.22099 4.07052C9.26772 4.07029 9.31446 4.07006 9.36261 4.06982C9.51747 4.06913 9.67232 4.06881 9.82718 4.06855C9.93467 4.06828 10.0422 4.06801 10.1496 4.06774C10.3751 4.06725 10.6006 4.06698 10.8261 4.06681C11.1151 4.06656 11.4041 4.06543 11.6932 4.0641C11.9152 4.06322 12.1373 4.06298 12.3593 4.06291C12.4659 4.06277 12.5725 4.06239 12.679 4.06177C12.8281 4.06098 12.9771 4.06106 13.1261 4.06137C13.1702 4.06094 13.2142 4.0605 13.2597 4.06006C13.4867 4.06151 13.6459 4.06719 13.828 4.2187C13.9538 4.40729 13.9541 4.55959 13.9218 4.7812C13.8227 4.94521 13.7757 5.00178 13.5937 5.06245C13.5276 5.06687 13.4613 5.06877 13.395 5.06903C13.3343 5.06944 13.3343 5.06944 13.2724 5.06985C13.2281 5.0699 13.1838 5.06995 13.1382 5.07C13.0915 5.07024 13.0447 5.07047 12.9966 5.07071C12.8417 5.07139 12.6869 5.07171 12.532 5.07197C12.4245 5.07224 12.317 5.07251 12.2096 5.07278C11.9841 5.07327 11.7586 5.07355 11.5331 5.07371C11.2441 5.07397 10.9551 5.0751 10.666 5.07643C10.444 5.0773 10.2219 5.07755 9.99986 5.07762C9.8933 5.07776 9.78673 5.07814 9.68017 5.07875C9.53114 5.07955 9.38214 5.07946 9.23312 5.07916C9.18903 5.07959 9.14495 5.08002 9.09953 5.08047C8.87249 5.07901 8.71327 5.07334 8.53116 4.92183C8.40544 4.73324 8.40514 4.58094 8.43741 4.35933C8.57686 4.12851 8.70183 4.07253 8.96416 4.07149Z" fill="#141522"/>
<path d="M7.0779 4.12496C7.20899 4.22727 7.25459 4.29652 7.28279 4.4604C7.29269 4.64042 7.27651 4.75802 7.19802 4.92183C7.0269 5.05539 6.87055 5.07625 6.65602 5.06246C6.48398 4.98925 6.4323 4.93781 6.3279 4.78121C6.29347 4.56743 6.30012 4.40531 6.41286 4.21871C6.61285 4.03586 6.82916 4.0612 7.0779 4.12496Z" fill="#141522"/>
</g>
<defs>
<clipPath id="clip0_172_265">
<rect width="24" height="24" fill="white"/>
</clipPath>
</defs>
</svg>
