<svg width="22" height="17" viewBox="0 0 22 17" fill="none" xmlns="http://www.w3.org/2000/svg">
<path d="M8.00016 5.16667C7.26378 5.16667 6.66683 4.56971 6.66683 3.83333C6.66683 3.09695 7.26378 2.5 8.00016 2.5C8.73654 2.5 9.3335 3.09695 9.3335 3.83333C9.3335 4.56971 8.73654 5.16667 8.00016 5.16667Z" fill="black" fill-opacity="0.25"/>
<path d="M8.00016 9.83333C7.26378 9.83333 6.66683 9.23638 6.66683 8.5C6.66683 7.76362 7.26378 7.16667 8.00016 7.16667C8.73654 7.16667 9.3335 7.76362 9.3335 8.5C9.3335 9.23638 8.73654 9.83333 8.00016 9.83333Z" fill="black" fill-opacity="0.25"/>
<path d="M8.00016 14.5C7.26378 14.5 6.66683 13.903 6.66683 13.1667C6.66683 12.4303 7.26378 11.8333 8.00016 11.8333C8.73654 11.8333 9.3335 12.4303 9.3335 13.1667C9.3335 13.903 8.73654 14.5 8.00016 14.5Z" fill="black" fill-opacity="0.25"/>
<path d="M14.0002 5.16667C13.2638 5.16667 12.6668 4.56971 12.6668 3.83333C12.6668 3.09695 13.2638 2.5 14.0002 2.5C14.7365 2.5 15.3335 3.09695 15.3335 3.83333C15.3335 4.56971 14.7365 5.16667 14.0002 5.16667Z" fill="black" fill-opacity="0.25"/>
<path d="M14.0002 9.83333C13.2638 9.83333 12.6668 9.23638 12.6668 8.5C12.6668 7.76362 13.2638 7.16667 14.0002 7.16667C14.7365 7.16667 15.3335 7.76362 15.3335 8.5C15.3335 9.23638 14.7365 9.83333 14.0002 9.83333Z" fill="black" fill-opacity="0.25"/>
<path d="M14.0002 14.5C13.2638 14.5 12.6668 13.903 12.6668 13.1667C12.6668 12.4303 13.2638 11.8333 14.0002 11.8333C14.7365 11.8333 15.3335 12.4303 15.3335 13.1667C15.3335 13.903 14.7365 14.5 14.0002 14.5Z" fill="black" fill-opacity="0.25"/>
</svg>
