<svg width="24" height="25" viewBox="0 0 24 25" fill="none" xmlns="http://www.w3.org/2000/svg">
<path d="M12.75 11.0325C12.75 10.6182 12.4142 10.2825 12 10.2825C11.5858 10.2825 11.25 10.6182 11.25 11.0325V13.0325C11.25 13.4467 11.5858 13.7825 12 13.7825C12.4142 13.7825 12.75 13.4467 12.75 13.0325V11.0325Z" fill="#F1EAE1"/>
<path fill-rule="evenodd" clip-rule="evenodd" d="M13.7247 2.05957L16.1585 2.46519C17.3143 2.6578 18.2506 2.81384 18.9831 3.0319C19.7459 3.259 20.3761 3.57715 20.8613 4.14993C21.3465 4.72271 21.5568 5.39668 21.6554 6.18644C21.75 6.94478 21.75 7.89402 21.75 9.06572V14.9992C21.75 16.1709 21.75 17.1201 21.6554 17.8785C21.5568 18.6682 21.3465 19.3422 20.8613 19.915C20.3761 20.4878 19.7459 20.8059 18.9831 21.033C18.2506 21.2511 17.3143 21.4071 16.1586 21.5997L13.7247 22.0054C12.6915 22.1776 11.8373 22.32 11.155 22.3365C10.4394 22.3538 9.77599 22.2387 9.22247 21.7698C8.75523 21.374 8.52385 20.8595 8.40256 20.2825H7.94632C6.8135 20.2825 5.88774 20.2825 5.15689 20.1842C4.39294 20.0815 3.7306 19.8593 3.20191 19.3306C2.67321 18.8019 2.45093 18.1395 2.34822 17.3756C2.24996 16.6447 2.24998 15.719 2.25 14.5862V9.47877C2.24998 8.34595 2.24996 7.4202 2.34822 6.68935C2.45093 5.9254 2.67321 5.26306 3.20191 4.73437C3.7306 4.20567 4.39294 3.98339 5.15689 3.88068C5.88775 3.78242 6.81348 3.78244 7.94631 3.78246L8.40256 3.78246C8.52384 3.20542 8.75523 2.69088 9.22247 2.29507C9.77599 1.82617 10.4394 1.71116 11.155 1.72844C11.8373 1.74493 12.6916 1.88734 13.7247 2.05957ZM8.25 17.3675C8.24999 17.8836 8.24997 18.3556 8.26143 18.7825H8C6.80029 18.7825 5.97595 18.7809 5.35676 18.6976C4.75914 18.6173 4.46611 18.4734 4.26257 18.2699C4.05903 18.0664 3.91519 17.7733 3.83484 17.1757C3.7516 16.5565 3.75 15.7322 3.75 14.5325V9.53246C3.75 8.33275 3.7516 7.50841 3.83484 6.88922C3.91519 6.2916 4.05903 5.99857 4.26257 5.79503C4.46611 5.59149 4.75914 5.44765 5.35676 5.3673C5.97595 5.28406 6.80029 5.28246 8 5.28246H8.26143C8.24997 5.70937 8.24999 6.18136 8.25 6.69737V17.3675ZM11.1188 3.22801C10.5765 3.2149 10.3458 3.30937 10.192 3.4396C10.0383 3.56983 9.90719 3.78187 9.83097 4.31893C9.75179 4.87674 9.75 5.63543 9.75 6.7543V17.3106C9.75 18.4295 9.75179 19.1882 9.83097 19.746C9.90719 20.283 10.0383 20.4951 10.192 20.6253C10.3458 20.7555 10.5765 20.85 11.1188 20.8369C11.682 20.8233 12.4307 20.7003 13.5343 20.5164L15.8631 20.1283C17.0793 19.9256 17.9228 19.7836 18.5551 19.5954C19.1672 19.4131 19.4911 19.2119 19.7168 18.9454C19.9425 18.679 20.0878 18.3264 20.1669 17.6926C20.2486 17.038 20.25 16.1827 20.25 14.9497V9.11522C20.25 7.8822 20.2486 7.02686 20.1669 6.37228C20.0878 5.73847 19.9425 5.38594 19.7168 5.11949C19.4911 4.85304 19.1672 4.6518 18.5551 4.46954C17.9228 4.28132 17.0793 4.13936 15.8631 3.93665L13.5343 3.54852C12.4307 3.36458 11.682 3.24161 11.1188 3.22801Z" fill="#F1EAE1"/>
</svg>
