<svg width="16" height="16" viewBox="0 0 16 16" fill="none" xmlns="http://www.w3.org/2000/svg">
<path d="M2.18318 10.197C1.61656 9.46082 1.33325 9.09275 1.33325 7.99984C1.33325 6.90692 1.61656 6.53886 2.18318 5.80272C3.31456 4.33288 5.21199 2.6665 7.99992 2.6665C10.7878 2.6665 12.6853 4.33288 13.8167 5.80272C14.3833 6.53885 14.6666 6.90692 14.6666 7.99984C14.6666 9.09275 14.3833 9.46082 13.8167 10.197C12.6853 11.6668 10.7878 13.3332 7.99992 13.3332C5.21199 13.3332 3.31456 11.6668 2.18318 10.197Z" stroke="white"/>
<path d="M10 8C10 9.10457 9.10457 10 8 10C6.89543 10 6 9.10457 6 8C6 6.89543 6.89543 6 8 6C9.10457 6 10 6.89543 10 8Z" stroke="white"/>
</svg>
