<svg width="24" height="25" viewBox="0 0 24 25" fill="none" xmlns="http://www.w3.org/2000/svg">
<path d="M3.27489 15.5346C2.42496 14.4304 2 13.8783 2 12.239C2 10.5996 2.42496 10.0475 3.27489 8.94328C4.97196 6.73851 7.81811 4.23895 12 4.23895C16.1819 4.23895 19.028 6.73851 20.7251 8.94328C21.575 10.0475 22 10.5996 22 12.239C22 13.8783 21.575 14.4304 20.7251 15.5346C19.028 17.7394 16.1819 20.239 12 20.239C7.81811 20.239 4.97196 17.7394 3.27489 15.5346Z" stroke="#666666" stroke-opacity="0.25" stroke-width="1.5"/>
<path d="M15 12.239C15 13.8958 13.6569 15.239 12 15.239C10.3431 15.239 9 13.8958 9 12.239C9 10.5821 10.3431 9.23895 12 9.23895C13.6569 9.23895 15 10.5821 15 12.239Z" stroke="#666666" stroke-opacity="0.25" stroke-width="1.5"/>
</svg>
