<svg width="25" height="24" viewBox="0 0 25 24" fill="none" xmlns="http://www.w3.org/2000/svg">
<path fill-rule="evenodd" clip-rule="evenodd" d="M16.5 6.75C15.8096 6.75 15.25 7.30964 15.25 8C15.25 8.69036 15.8096 9.25 16.5 9.25C17.1904 9.25 17.75 8.69036 17.75 8C17.75 7.30964 17.1904 6.75 16.5 6.75ZM13.75 8C13.75 6.48122 14.9812 5.25 16.5 5.25C18.0188 5.25 19.25 6.48122 19.25 8C19.25 9.51878 18.0188 10.75 16.5 10.75C14.9812 10.75 13.75 9.51878 13.75 8Z" fill="#1C274C"/>
<path fill-rule="evenodd" clip-rule="evenodd" d="M12.4426 1.25H12.5574C14.8658 1.24999 16.6748 1.24998 18.0863 1.43975C19.531 1.63399 20.6711 2.03933 21.5659 2.93414C22.4607 3.82895 22.866 4.96897 23.0603 6.41371C23.25 7.82519 23.25 9.63423 23.25 11.9426V12.0574C23.25 14.3658 23.25 16.1748 23.0603 17.5863C22.866 19.031 22.4607 20.1711 21.5659 21.0659C20.6711 21.9607 19.531 22.366 18.0863 22.5603C16.6748 22.75 14.8658 22.75 12.5574 22.75H12.4426C10.1342 22.75 8.32519 22.75 6.91371 22.5603C5.46897 22.366 4.32895 21.9607 3.43414 21.0659C2.53933 20.1711 2.13399 19.031 1.93975 17.5863C1.74998 16.1748 1.74999 14.3658 1.75 12.0574V11.9426C1.74999 9.63423 1.74998 7.82519 1.93975 6.41371C2.13399 4.96897 2.53933 3.82895 3.43414 2.93414C4.32895 2.03933 5.46897 1.63399 6.91371 1.43975C8.32519 1.24998 10.1342 1.24999 12.4426 1.25ZM4.4948 20.0052C3.92514 19.4355 3.59825 18.6648 3.42637 17.3864C3.27289 16.2449 3.25296 14.7885 3.25038 12.8401L4.74546 11.5319C5.35958 10.9946 6.28515 11.0254 6.86216 11.6024L11.1519 15.8922C12.0968 16.8371 13.5843 16.9659 14.6776 16.1975L14.9758 15.988C15.834 15.3849 16.9951 15.4547 17.7747 16.1564L20.9983 19.0576C21.0334 19.0892 21.0706 19.1168 21.1095 19.1406C20.9478 19.4815 20.7487 19.7617 20.5052 20.0052C19.9355 20.5749 19.1648 20.9018 17.8864 21.0736C16.5864 21.2484 14.8782 21.25 12.5 21.25C10.1218 21.25 8.41356 21.2484 7.11358 21.0736C5.83517 20.9018 5.06445 20.5749 4.4948 20.0052ZM7.11358 2.92637C5.83517 3.09825 5.06445 3.42514 4.4948 3.9948C3.92514 4.56445 3.59825 5.33517 3.42637 6.61358C3.28124 7.69307 3.25552 9.05407 3.25098 10.8465L3.75771 10.4031C4.96613 9.34572 6.78741 9.40636 7.92282 10.5418L12.2125 14.8315C12.6421 15.261 13.3182 15.3196 13.8152 14.9703L14.1134 14.7607C15.5437 13.7555 17.4788 13.872 18.7782 15.0415L21.5522 17.5381C21.5596 17.4883 21.5667 17.4378 21.5736 17.3864C21.7484 16.0864 21.75 14.3782 21.75 12C21.75 9.62177 21.7484 7.91356 21.5736 6.61358C21.4018 5.33517 21.0749 4.56445 20.5052 3.9948C19.9355 3.42514 19.1648 3.09825 17.8864 2.92637C16.5864 2.75159 14.8782 2.75 12.5 2.75C10.1218 2.75 8.41356 2.75159 7.11358 2.92637Z" fill="#1C274C"/>
</svg>
