<svg width="24" height="25" viewBox="0 0 24 25" fill="none" xmlns="http://www.w3.org/2000/svg">
<path d="M2 12.2364C2 9.94796 2 8.80375 2.5192 7.85521C3.0384 6.90668 3.98695 6.31798 5.88403 5.1406L7.88403 3.89934C9.88939 2.65476 10.8921 2.03247 12 2.03247C13.1079 2.03247 14.1106 2.65476 16.116 3.89934L18.116 5.1406C20.0131 6.31798 20.9616 6.90668 21.4808 7.85521C22 8.80375 22 9.94796 22 12.2364V13.7574C22 17.6583 22 19.6088 20.8284 20.8206C19.6569 22.0325 17.7712 22.0325 14 22.0325H10C6.22876 22.0325 4.34315 22.0325 3.17157 20.8206C2 19.6088 2 17.6583 2 13.7574V12.2364Z" stroke="#F1EAE1" stroke-width="1.5"/>
<path d="M12 15.0325L12 18.0325" stroke="#F1EAE1" stroke-width="1.5" stroke-linecap="round"/>
</svg>
