<svg width="24" height="25" viewBox="0 0 24 25" fill="none" xmlns="http://www.w3.org/2000/svg">
<g clip-path="url(#clip0_189_299)">
<path d="M13.6129 0.0199242C13.6519 0.0197119 13.6909 0.0194995 13.731 0.0192806C13.8613 0.0186885 13.9916 0.0187639 14.1219 0.0188414C14.2155 0.0185608 14.3091 0.0182417 14.4026 0.0178872C14.6566 0.0170594 14.9105 0.0168393 15.1645 0.0167795C15.3232 0.0167128 15.4819 0.0165126 15.6406 0.0162641C16.1946 0.0153969 16.7485 0.0150139 17.3025 0.0150877C17.8185 0.015144 18.3345 0.0141549 18.8505 0.0126742C19.2939 0.0114476 19.7372 0.0109455 20.1805 0.0110054C20.4451 0.0110293 20.7098 0.0107632 20.9744 0.00976994C21.2234 0.00886101 21.4724 0.00885583 21.7213 0.00953713C21.8126 0.00963501 21.9038 0.00941463 21.995 0.00884708C22.8771 0.00371496 22.8771 0.00371494 23.2033 0.21996C23.2534 0.251276 23.2534 0.251276 23.3046 0.283225C23.6514 0.50848 23.8902 0.855265 24.0001 1.25121C24.0087 1.37632 24.0129 1.4964 24.0122 1.62139C24.0124 1.65799 24.0125 1.6946 24.0127 1.73231C24.0131 1.85514 24.0129 1.97796 24.0127 2.10079C24.0128 2.18967 24.0131 2.27855 24.0133 2.36744C24.0139 2.61184 24.0139 2.85623 24.0138 3.10063C24.0137 3.36415 24.0143 3.62767 24.0147 3.89119C24.0155 4.40753 24.0157 4.92387 24.0158 5.44021C24.0158 5.85986 24.016 6.2795 24.0163 6.69914C24.017 7.69498 24.0176 8.69082 24.0175 9.68665C24.0175 9.7185 24.0175 9.75035 24.0175 9.78316C24.0175 9.94457 24.0175 10.106 24.0175 10.2674C24.0175 10.3155 24.0175 10.3155 24.0175 10.3645C24.0175 10.4294 24.0175 10.4942 24.0175 10.559C24.0174 11.5676 24.0181 12.5762 24.0194 13.5848C24.0209 14.718 24.0217 15.8512 24.0216 16.9844C24.0216 17.5844 24.0218 18.1844 24.0228 18.7844C24.0237 19.2952 24.0239 19.806 24.0232 20.3169C24.0229 20.5775 24.0229 20.8381 24.0237 21.0988C24.0245 21.3374 24.0243 21.576 24.0235 21.8147C24.0234 21.901 24.0236 21.9873 24.0241 22.0736C24.0288 22.9017 24.0288 22.9017 23.8126 23.2356C23.7918 23.2691 23.7709 23.3026 23.7494 23.3371C23.5092 23.7061 23.1573 23.9299 22.7345 24.0325C22.6122 24.0409 22.495 24.0453 22.3729 24.0445C22.3202 24.0448 22.3202 24.0448 22.2665 24.045C22.149 24.0455 22.0315 24.0452 21.914 24.045C21.8289 24.0452 21.7437 24.0454 21.6586 24.0456C21.4247 24.0462 21.1909 24.0462 20.957 24.0461C20.7047 24.0461 20.4525 24.0466 20.2002 24.047C19.7059 24.0478 19.2117 24.0481 18.7175 24.0481C18.3157 24.0482 17.914 24.0484 17.5122 24.0487C16.3731 24.0495 15.2339 24.0499 14.0948 24.0498C14.0334 24.0498 13.9719 24.0498 13.9087 24.0498C13.8472 24.0498 13.7857 24.0498 13.7223 24.0498C12.7259 24.0498 11.7295 24.0507 10.7331 24.052C9.70996 24.0534 8.6868 24.054 7.66363 24.0539C7.08922 24.0539 6.51482 24.0541 5.94042 24.0551C5.45133 24.056 4.96225 24.0562 4.47316 24.0556C4.22369 24.0553 3.97423 24.0553 3.72476 24.0561C3.49619 24.0568 3.26762 24.0567 3.03905 24.0559C2.95656 24.0557 2.87407 24.0559 2.79158 24.0564C1.99597 24.0611 1.31779 23.8827 0.714976 23.3264C0.173657 22.7497 -0.0249679 22.0917 -0.0233054 21.3137C-0.0252994 21.2289 -0.0252994 21.2289 -0.0273337 21.1423C-0.028127 20.7774 0.0178079 20.4897 0.234507 20.1887C0.496106 19.9413 0.750206 19.799 1.11634 19.8078C1.16208 19.8087 1.20783 19.8095 1.25495 19.8104C1.30671 19.812 1.30671 19.812 1.35951 19.8137C1.36072 19.7801 1.36192 19.7464 1.36317 19.7117C1.44584 18.2031 2.07155 16.7582 2.95326 15.5481C2.98564 15.5033 3.01803 15.4585 3.0514 15.4124C3.58355 14.725 4.23906 14.0984 4.96888 13.6262C5.01048 13.5989 5.01048 13.5989 5.05293 13.5711C6.20779 12.8221 7.52584 12.3318 8.90638 12.2668C8.90638 11.942 8.90638 11.6171 8.90638 11.2825C8.7894 11.2863 8.67242 11.2902 8.55189 11.2942C8.2599 11.2977 8.05803 11.2927 7.82826 11.095C7.66675 10.9065 7.62777 10.6822 7.64076 10.4387C7.70252 10.2194 7.79371 10.0912 7.97181 9.94945C8.16188 9.84835 8.29733 9.82313 8.50972 9.82104C8.56293 9.82044 8.61614 9.81983 8.67096 9.81921C8.72853 9.81887 8.7861 9.81852 8.84541 9.81817C8.90466 9.81779 8.96392 9.81741 9.02497 9.81702C9.15056 9.81637 9.27613 9.81585 9.40172 9.8155C9.5618 9.81498 9.72185 9.81337 9.88193 9.81151C10.0354 9.80998 10.189 9.80977 10.3425 9.80938C10.3996 9.80856 10.4567 9.80774 10.5155 9.80689C10.8457 9.80773 11.0645 9.83615 11.3439 10.0168C11.5198 10.2153 11.591 10.4103 11.5783 10.6731C11.5035 10.9181 11.398 11.07 11.2033 11.2356C11.0268 11.2944 10.8624 11.2875 10.6788 11.2854C10.558 11.2844 10.4371 11.2835 10.3126 11.2825C10.3126 11.6073 10.3126 11.9321 10.3126 12.2668C10.3919 12.2697 10.4712 12.2726 10.5529 12.2756C10.8636 12.2983 11.1578 12.3619 11.4607 12.4333C11.5082 12.4443 11.5557 12.4553 11.6047 12.4666C11.7209 12.4936 11.8371 12.5207 11.9533 12.5481C11.9533 12.4903 11.9534 12.4324 11.9535 12.3728C11.9551 10.9993 11.9578 9.62572 11.9616 8.25216C11.9621 8.08301 11.9625 7.91386 11.963 7.74471C11.9631 7.6942 11.9631 7.6942 11.9633 7.64267C11.9647 7.0978 11.9655 6.55293 11.9661 6.00805C11.9666 5.44874 11.9679 4.88944 11.9699 4.33014C11.971 4.01607 11.9717 3.70202 11.9716 3.38795C11.9716 3.09227 11.9724 2.79661 11.9739 2.50093C11.9743 2.39249 11.9744 2.28404 11.9742 2.1756C11.9738 2.02732 11.9747 1.87909 11.9758 1.73082C11.9754 1.68809 11.9751 1.64536 11.9747 1.60134C11.9806 1.15761 12.1627 0.774847 12.4689 0.454335C12.8324 0.153556 13.1374 0.018012 13.6129 0.0199242ZM13.4533 1.53246C13.4108 1.65998 13.3999 1.73696 13.3983 1.8683C13.3976 1.90827 13.397 1.94824 13.3964 1.98941C13.396 2.03334 13.3955 2.07726 13.3951 2.12252C13.3944 2.16917 13.3938 2.21582 13.3931 2.26389C13.3911 2.42096 13.3894 2.57803 13.3877 2.7351C13.3863 2.84743 13.3849 2.95976 13.3835 3.07208C13.3714 4.09804 13.3644 5.12404 13.3588 6.15005C13.3581 6.28737 13.3573 6.4247 13.3565 6.56202C13.3563 6.59615 13.3561 6.63029 13.3559 6.66545C13.3527 7.21787 13.3463 7.77021 13.3387 8.32259C13.331 8.89005 13.3266 9.45747 13.3251 10.025C13.3242 10.3435 13.3218 10.6619 13.3157 10.9804C13.3102 11.2802 13.3086 11.5799 13.3101 11.8798C13.3099 11.9896 13.3083 12.0995 13.3052 12.2093C13.2708 12.7647 13.2708 12.7647 13.4889 13.2508C13.6904 13.4141 13.911 13.5228 14.148 13.6252C14.5752 13.8256 14.9428 14.195 15.2814 14.5168C15.3064 14.5403 15.3314 14.5638 15.3572 14.588C16.8356 15.9838 17.5882 17.8253 17.8595 19.8137C17.8913 19.8144 17.9231 19.815 17.9558 19.8157C18.2915 19.8329 18.5703 19.8912 18.8439 20.095C19.1714 20.4744 19.1829 20.8024 19.1867 21.2873C19.1887 21.3732 19.1887 21.3732 19.1908 21.4608C19.1932 21.8116 19.151 22.0962 19.025 22.4243C18.979 22.5278 18.979 22.5278 18.9845 22.6262C19.4213 22.6284 19.8581 22.63 20.2949 22.6311C20.4978 22.6316 20.7006 22.6322 20.9034 22.6333C21.0991 22.6343 21.2949 22.6349 21.4906 22.6351C21.5653 22.6353 21.64 22.6356 21.7146 22.6361C21.8192 22.6368 21.9238 22.6369 22.0284 22.6369C22.0879 22.6371 22.1475 22.6373 22.2088 22.6375C22.3515 22.6268 22.4319 22.6158 22.547 22.5325C22.6016 22.3686 22.6004 22.2219 22.5999 22.0515C22.6 21.9989 22.6 21.9989 22.6002 21.9452C22.6004 21.8266 22.6003 21.7081 22.6001 21.5896C22.6002 21.5042 22.6003 21.4187 22.6005 21.3333C22.6008 21.0977 22.6008 20.8622 22.6007 20.6266C22.6007 20.3729 22.6009 20.1192 22.6012 19.8654C22.6016 19.368 22.6017 18.8706 22.6017 18.3732C22.6017 17.9691 22.6018 17.565 22.602 17.1609C22.6024 16.0162 22.6026 14.8714 22.6026 13.7267C22.6026 13.6649 22.6026 13.6031 22.6026 13.5395C22.6026 13.4468 22.6026 13.4468 22.6026 13.3521C22.6025 12.3496 22.603 11.347 22.6037 10.3444C22.6043 9.31595 22.6047 8.28749 22.6046 7.25903C22.6046 6.68124 22.6047 6.10344 22.6052 5.52564C22.6057 5.03377 22.6058 4.54191 22.6054 4.05004C22.6053 3.79892 22.6053 3.54779 22.6057 3.29667C22.6061 3.067 22.606 2.83735 22.6056 2.60769C22.6055 2.52438 22.6056 2.44107 22.6059 2.35777C22.6062 2.24495 22.6059 2.13215 22.6055 2.01934C22.6058 1.98663 22.606 1.95392 22.6063 1.92022C22.605 1.75376 22.6004 1.62255 22.5001 1.48558C22.3345 1.43037 22.1852 1.43207 22.0129 1.43244C21.9773 1.43234 21.9417 1.43223 21.905 1.43212C21.7854 1.43182 21.6658 1.43186 21.5462 1.4319C21.4606 1.43176 21.3749 1.4316 21.2893 1.43142C21.0565 1.43101 20.8237 1.4309 20.5909 1.43087C20.3967 1.43083 20.2025 1.43065 20.0083 1.43049C19.5502 1.4301 19.0922 1.42999 18.6341 1.43002C18.1612 1.43005 17.6883 1.42956 17.2154 1.42882C16.8097 1.4282 16.404 1.42795 15.9983 1.42798C15.7559 1.42799 15.5134 1.42786 15.271 1.42736C15.043 1.42691 14.815 1.42691 14.5871 1.42725C14.5033 1.4273 14.4196 1.42719 14.3358 1.4269C14.2217 1.42654 14.1075 1.42676 13.9934 1.42712C13.9601 1.42688 13.9268 1.42664 13.8925 1.42639C13.7247 1.42757 13.5912 1.43092 13.4533 1.53246ZM5.53138 15.0325C5.4886 15.065 5.44582 15.0975 5.40174 15.131C3.97471 16.2522 3.03894 17.8669 2.81263 19.6731C2.81263 19.7195 2.81263 19.7659 2.81263 19.8137C7.29857 19.8137 11.7845 19.8137 16.4064 19.8137C16.2415 18.5772 15.8717 17.4327 15.0939 16.4387C15.0614 16.3959 15.0289 16.3531 14.9954 16.3091C13.8679 14.8741 12.2626 13.9621 10.4533 13.72C10.4113 13.7139 10.3694 13.7078 10.3262 13.7015C8.66115 13.494 6.8494 14.0011 5.53138 15.0325ZM1.40638 21.22C1.45828 21.8608 1.45828 21.8608 1.82533 22.3391C2.25649 22.6383 2.64092 22.6332 3.14874 22.6325C3.23485 22.6326 3.23485 22.6326 3.32271 22.6328C3.48148 22.633 3.64026 22.6331 3.79904 22.633C3.97051 22.633 4.14197 22.6333 4.31343 22.6335C4.64913 22.6339 4.98483 22.634 5.32053 22.634C5.59345 22.6341 5.86636 22.6342 6.13927 22.6343C6.91338 22.6347 7.68749 22.6349 8.4616 22.6349C8.52416 22.6349 8.52416 22.6349 8.58798 22.6349C8.62974 22.6349 8.6715 22.6349 8.71453 22.6349C9.39139 22.6349 10.0682 22.6353 10.7451 22.636C11.4405 22.6367 12.1358 22.637 12.8311 22.6369C13.2214 22.6369 13.6116 22.6371 14.0019 22.6376C14.3341 22.638 14.6663 22.6381 14.9985 22.6378C15.168 22.6376 15.3374 22.6376 15.5068 22.638C15.6906 22.6385 15.8745 22.6382 16.0584 22.6378C16.1383 22.6382 16.1383 22.6382 16.2198 22.6385C16.7044 22.6364 17.114 22.5863 17.4845 22.2512C17.7664 21.9191 17.7748 21.6736 17.8126 21.22C12.3986 21.22 6.98451 21.22 1.40638 21.22Z" fill="#F1EAE1"/>
<path d="M15.3239 10.5255C15.3969 10.525 15.3969 10.525 15.4713 10.5245C15.5249 10.5244 15.5784 10.5242 15.6336 10.5241C15.6899 10.5238 15.7461 10.5235 15.8041 10.5232C15.9909 10.5222 16.1778 10.5217 16.3646 10.5212C16.429 10.521 16.4933 10.5208 16.5576 10.5206C16.8599 10.5198 17.1622 10.5191 17.4645 10.5187C17.8133 10.5182 18.1621 10.517 18.511 10.5151C18.7806 10.5137 19.0503 10.513 19.32 10.5128C19.481 10.5127 19.642 10.5123 19.8031 10.5111C19.9828 10.5098 20.1626 10.51 20.3424 10.5104C20.4222 10.5095 20.4222 10.5095 20.5036 10.5085C20.7934 10.5105 20.9678 10.5244 21.1876 10.7199C21.3538 10.909 21.3894 11.0746 21.3852 11.3265C21.3629 11.5407 21.2708 11.6715 21.1144 11.8127C20.9525 11.9247 20.8712 11.9446 20.6763 11.9455C20.6277 11.9459 20.5791 11.9462 20.529 11.9466C20.4754 11.9467 20.4218 11.9468 20.3666 11.9469C20.2823 11.9474 20.2823 11.9474 20.1962 11.9479C20.0093 11.9488 19.8225 11.9493 19.6356 11.9498C19.5713 11.95 19.507 11.9502 19.4426 11.9504C19.1403 11.9513 18.838 11.952 18.5358 11.9523C18.1869 11.9528 17.8381 11.954 17.4893 11.9559C17.2196 11.9573 16.95 11.958 16.6803 11.9582C16.5193 11.9583 16.3582 11.9587 16.1972 11.9599C16.0174 11.9612 15.8377 11.961 15.6579 11.9607C15.5781 11.9616 15.5781 11.9616 15.4967 11.9625C15.2069 11.9606 15.0325 11.9466 14.8126 11.7511C14.6464 11.562 14.6109 11.3965 14.6151 11.1445C14.6374 10.9304 14.7295 10.7995 14.8859 10.6584C15.0477 10.5463 15.129 10.5264 15.3239 10.5255Z" fill="#F1EAE1"/>
<path d="M15.3239 7.713C15.3969 7.71249 15.3969 7.71249 15.4713 7.71198C15.5249 7.71185 15.5784 7.71173 15.6336 7.7116C15.6899 7.71129 15.7461 7.71098 15.8041 7.71066C15.9909 7.70974 16.1778 7.70919 16.3646 7.70872C16.429 7.70854 16.4933 7.70834 16.5576 7.70815C16.8599 7.70725 17.1622 7.70659 17.4645 7.7062C17.8133 7.70574 18.1621 7.7045 18.511 7.70261C18.7806 7.70119 19.0503 7.7005 19.32 7.70035C19.481 7.70024 19.642 7.69982 19.8031 7.69864C19.9828 7.69734 20.1626 7.69754 20.3424 7.69786C20.4222 7.69696 20.4222 7.69696 20.5036 7.69604C20.7934 7.69796 20.9678 7.71193 21.1876 7.90739C21.3538 8.09653 21.3894 8.26208 21.3852 8.51402C21.3629 8.72816 21.2708 8.85901 21.1144 9.00017C20.9525 9.11223 20.8712 9.13212 20.6763 9.13304C20.6277 9.13338 20.5791 9.13371 20.529 9.13406C20.4754 9.13419 20.4218 9.13431 20.3666 9.13444C20.2823 9.1349 20.2823 9.1349 20.1962 9.13537C20.0093 9.1363 19.8225 9.13685 19.6356 9.13731C19.5713 9.1375 19.507 9.1377 19.4426 9.13789C19.1403 9.13879 18.838 9.13945 18.5358 9.13984C18.1869 9.1403 17.8381 9.14153 17.4893 9.14343C17.2196 9.14484 16.95 9.14554 16.6803 9.14569C16.5193 9.1458 16.3582 9.14622 16.1972 9.1474C16.0174 9.1487 15.8377 9.1485 15.6579 9.14817C15.5781 9.14908 15.5781 9.14908 15.4967 9.14999C15.2069 9.14807 15.0325 9.13411 14.8126 8.93864C14.6464 8.74951 14.6109 8.58396 14.6151 8.33202C14.6374 8.11787 14.7295 7.98703 14.8859 7.84587C15.0477 7.73381 15.129 7.71392 15.3239 7.713Z" fill="#F1EAE1"/>
<path d="M7.5 15.5481C7.68772 15.6419 7.81213 15.744 7.92188 15.9231C7.99898 16.1544 7.99642 16.3573 7.91895 16.5852C7.7439 16.8449 7.49471 17.0057 7.24219 17.1858C6.86013 17.4633 6.61129 17.7537 6.35805 18.1494C5.99288 18.7187 5.99288 18.7187 5.71875 18.7824C5.45463 18.8034 5.28989 18.7917 5.0625 18.6418C4.90661 18.4773 4.78125 18.3152 4.78125 18.081C4.80452 17.8051 4.87818 17.6174 5.03027 17.3879C5.06137 17.3398 5.06137 17.3398 5.09309 17.2907C5.31454 16.9582 5.5753 16.6713 5.85938 16.3918C5.90191 16.3493 5.94445 16.3069 5.98828 16.2631C6.40147 15.8685 6.88911 15.4116 7.5 15.5481Z" fill="#F1EAE1"/>
<path d="M17.0879 3.49291C17.132 3.49231 17.1761 3.4917 17.2216 3.49109C17.2934 3.49057 17.2934 3.49057 17.3666 3.49004C17.4157 3.48966 17.4649 3.48928 17.5155 3.48889C17.6197 3.48824 17.7239 3.48774 17.8281 3.48737C17.9871 3.48656 18.1461 3.48451 18.3052 3.48244C18.4064 3.48196 18.5076 3.48156 18.6088 3.48125C18.68 3.48002 18.68 3.48002 18.7526 3.47876C19.0333 3.47962 19.192 3.50283 19.4064 3.68871C19.5726 3.87784 19.6081 4.04339 19.604 4.29533C19.5816 4.50948 19.4896 4.64032 19.3331 4.78148C19.1779 4.88896 19.0988 4.91354 18.9124 4.91575C18.8462 4.91665 18.8462 4.91665 18.7787 4.91758C18.7308 4.91792 18.683 4.91827 18.6337 4.91862C18.5845 4.919 18.5354 4.91938 18.4848 4.91977C18.3806 4.92042 18.2764 4.92092 18.1722 4.92129C18.0131 4.9221 17.8541 4.92415 17.6951 4.92622C17.5939 4.9267 17.4927 4.9271 17.3915 4.92741C17.344 4.92823 17.2965 4.92906 17.2476 4.9299C16.9669 4.92904 16.8083 4.90583 16.5939 4.71996C16.4277 4.53082 16.3922 4.36527 16.3963 4.11333C16.4187 3.89919 16.5107 3.76834 16.6671 3.62718C16.8224 3.5197 16.9015 3.49512 17.0879 3.49291Z" fill="#F1EAE1"/>
<path d="M9.41618 14.8773C9.45322 14.8759 9.49026 14.8745 9.52842 14.8731C9.82668 14.8699 9.98309 14.9569 10.2101 15.1526C10.3501 15.3221 10.3283 15.5405 10.3253 15.7485C10.307 15.934 10.255 16.0244 10.1252 16.1575C9.85733 16.3367 9.61605 16.3745 9.29899 16.3685C9.26056 16.3692 9.22213 16.3699 9.18253 16.3707C8.92733 16.369 8.78055 16.3259 8.57828 16.1575C8.39451 15.9544 8.36107 15.7886 8.37266 15.5232C8.40908 15.2907 8.50458 15.1347 8.69547 14.9915C8.93437 14.884 9.15795 14.8804 9.41618 14.8773Z" fill="#F1EAE1"/>
</g>
<defs>
<clipPath id="clip0_189_299">
<rect width="24" height="24" fill="white" transform="translate(0 0.0324707)"/>
</clipPath>
</defs>
</svg>
