<svg width="24" height="24" viewBox="0 0 24 24" fill="none" xmlns="http://www.w3.org/2000/svg">
<g clip-path="url(#clip0_174_475)">
<path d="M13.6129 -0.0125465C13.6519 -0.0127588 13.6909 -0.0129712 13.731 -0.0131901C13.8613 -0.0137822 13.9916 -0.0137068 14.1219 -0.0136294C14.2155 -0.0139099 14.3091 -0.014229 14.4026 -0.0145835C14.6566 -0.0154113 14.9105 -0.0156314 15.1645 -0.0156912C15.3232 -0.0157579 15.4819 -0.0159581 15.6406 -0.0162066C16.1946 -0.0170738 16.7485 -0.0174568 17.3025 -0.017383C17.8185 -0.0173267 18.3345 -0.0183158 18.8505 -0.0197965C19.2939 -0.0210231 19.7372 -0.0215252 20.1805 -0.0214653C20.4451 -0.0214414 20.7098 -0.0217075 20.9744 -0.0227008C21.2234 -0.0236097 21.4724 -0.0236149 21.7213 -0.0229336C21.8126 -0.0228357 21.9038 -0.0230561 21.995 -0.0236236C22.8771 -0.0287557 22.8771 -0.0287558 23.2033 0.187489C23.2534 0.218806 23.2534 0.218806 23.3046 0.250755C23.6514 0.476009 23.8902 0.822794 24.0001 1.21874C24.0087 1.34385 24.0129 1.46393 24.0122 1.58892C24.0124 1.62552 24.0125 1.66212 24.0127 1.69984C24.0131 1.82267 24.0129 1.94549 24.0127 2.06832C24.0128 2.1572 24.0131 2.24608 24.0133 2.33497C24.0139 2.57936 24.0139 2.82376 24.0138 3.06816C24.0137 3.33168 24.0143 3.5952 24.0147 3.85872C24.0155 4.37506 24.0157 4.8914 24.0158 5.40774C24.0158 5.82738 24.016 6.24703 24.0163 6.66667C24.017 7.66251 24.0176 8.65835 24.0175 9.65418C24.0175 9.68603 24.0175 9.71788 24.0175 9.75069C24.0175 9.9121 24.0175 10.0735 24.0175 10.2349C24.0175 10.283 24.0175 10.283 24.0175 10.3321C24.0175 10.3969 24.0175 10.4617 24.0175 10.5265C24.0174 11.5352 24.0181 12.5438 24.0194 13.5524C24.0209 14.6856 24.0217 15.8188 24.0216 16.952C24.0216 17.552 24.0218 18.1519 24.0228 18.7519C24.0237 19.2628 24.0239 19.7736 24.0232 20.2844C24.0229 20.545 24.0229 20.8057 24.0237 21.0663C24.0245 21.305 24.0243 21.5436 24.0235 21.7822C24.0234 21.8685 24.0236 21.9548 24.0241 22.0411C24.0288 22.8692 24.0288 22.8692 23.8126 23.2031C23.7918 23.2366 23.7709 23.2701 23.7494 23.3046C23.5092 23.6736 23.1573 23.8974 22.7345 24C22.6122 24.0084 22.495 24.0128 22.3729 24.0121C22.3202 24.0123 22.3202 24.0123 22.2665 24.0125C22.149 24.013 22.0315 24.0128 21.914 24.0125C21.8289 24.0127 21.7437 24.0129 21.6586 24.0132C21.4247 24.0137 21.1909 24.0137 20.957 24.0136C20.7047 24.0136 20.4525 24.0141 20.2002 24.0146C19.7059 24.0153 19.2117 24.0156 18.7175 24.0157C18.3157 24.0157 17.914 24.0159 17.5122 24.0162C16.3731 24.017 15.2339 24.0174 14.0948 24.0174C14.0334 24.0174 13.9719 24.0174 13.9087 24.0174C13.8472 24.0174 13.7857 24.0174 13.7223 24.0173C12.7259 24.0173 11.7295 24.0182 10.7331 24.0195C9.70996 24.0209 8.6868 24.0215 7.66363 24.0214C7.08922 24.0214 6.51482 24.0217 5.94042 24.0227C5.45133 24.0235 4.96225 24.0237 4.47316 24.0231C4.22369 24.0228 3.97423 24.0228 3.72476 24.0236C3.49619 24.0243 3.26762 24.0242 3.03905 24.0234C2.95656 24.0232 2.87407 24.0234 2.79158 24.0239C1.99597 24.0287 1.31779 23.8502 0.714976 23.2939C0.173657 22.7172 -0.0249679 22.0593 -0.0233054 21.2812C-0.0252994 21.1964 -0.0252994 21.1964 -0.0273337 21.1099C-0.028127 20.7449 0.0178079 20.4572 0.234507 20.1562C0.496106 19.9089 0.750206 19.7666 1.11634 19.7754C1.16208 19.7762 1.20783 19.7771 1.25495 19.7779C1.30671 19.7796 1.30671 19.7796 1.35951 19.7812C1.36072 19.7476 1.36192 19.7139 1.36317 19.6792C1.44584 18.1706 2.07155 16.7257 2.95326 15.5156C2.98564 15.4708 3.01803 15.4261 3.0514 15.3799C3.58355 14.6926 4.23906 14.066 4.96888 13.5937C5.01048 13.5665 5.01048 13.5665 5.05293 13.5386C6.20779 12.7896 7.52584 12.2993 8.90638 12.2344C8.90638 11.9095 8.90638 11.5847 8.90638 11.25C8.7894 11.2539 8.67242 11.2577 8.55189 11.2617C8.2599 11.2652 8.05803 11.2602 7.82826 11.0625C7.66675 10.8741 7.62777 10.6497 7.64076 10.4062C7.70252 10.187 7.79371 10.0587 7.97181 9.91698C8.16188 9.81588 8.29733 9.79066 8.50972 9.78857C8.56293 9.78797 8.61614 9.78736 8.67096 9.78674C8.72853 9.7864 8.7861 9.78605 8.84541 9.7857C8.90466 9.78532 8.96392 9.78494 9.02497 9.78455C9.15056 9.7839 9.27613 9.78338 9.40172 9.78303C9.5618 9.78251 9.72185 9.7809 9.88193 9.77904C10.0354 9.77751 10.189 9.7773 10.3425 9.77691C10.3996 9.77608 10.4567 9.77526 10.5155 9.77442C10.8457 9.77526 11.0645 9.80368 11.3439 9.98436C11.5198 10.1828 11.591 10.3778 11.5783 10.6406C11.5035 10.8857 11.398 11.0376 11.2033 11.2031C11.0268 11.2619 10.8624 11.255 10.6788 11.2529C10.558 11.252 10.4371 11.251 10.3126 11.25C10.3126 11.5748 10.3126 11.8997 10.3126 12.2344C10.3919 12.2373 10.4712 12.2402 10.5529 12.2432C10.8636 12.2658 11.1578 12.3294 11.4607 12.4008C11.5082 12.4118 11.5557 12.4228 11.6047 12.4342C11.7209 12.4611 11.8371 12.4883 11.9533 12.5156C11.9533 12.4578 11.9534 12.3999 11.9535 12.3404C11.9551 10.9668 11.9578 9.59325 11.9616 8.21969C11.9621 8.05054 11.9625 7.88139 11.963 7.71224C11.9631 7.66173 11.9631 7.66173 11.9633 7.6102C11.9647 7.06533 11.9655 6.52045 11.9661 5.97558C11.9666 5.41627 11.9679 4.85697 11.9699 4.29766C11.971 3.9836 11.9717 3.66954 11.9716 3.35548C11.9716 3.0598 11.9724 2.76414 11.9739 2.46846C11.9743 2.36002 11.9744 2.25157 11.9742 2.14313C11.9738 1.99485 11.9747 1.84662 11.9758 1.69834C11.9754 1.65562 11.9751 1.61289 11.9747 1.56887C11.9806 1.12514 12.1627 0.742376 12.4689 0.421864C12.8324 0.121085 13.1374 -0.0144587 13.6129 -0.0125465ZM13.4533 1.49999C13.4108 1.62751 13.3999 1.70449 13.3983 1.83583C13.3976 1.8758 13.397 1.91577 13.3964 1.95694C13.396 2.00087 13.3955 2.04479 13.3951 2.09005C13.3944 2.1367 13.3938 2.18335 13.3931 2.23142C13.3911 2.38849 13.3894 2.54556 13.3877 2.70263C13.3863 2.81496 13.3849 2.92728 13.3835 3.03961C13.3714 4.06557 13.3644 5.09157 13.3588 6.11758C13.3581 6.2549 13.3573 6.39223 13.3565 6.52955C13.3563 6.56368 13.3561 6.59781 13.3559 6.63298C13.3527 7.1854 13.3463 7.73774 13.3387 8.29012C13.331 8.85758 13.3266 9.425 13.3251 9.99252C13.3242 10.3111 13.3218 10.6294 13.3157 10.9479C13.3102 11.2478 13.3086 11.5474 13.3101 11.8473C13.3099 11.9571 13.3083 12.067 13.3052 12.1768C13.2708 12.7322 13.2708 12.7322 13.4889 13.2183C13.6904 13.3817 13.911 13.4903 14.148 13.5927C14.5752 13.7931 14.9428 14.1625 15.2814 14.4844C15.3064 14.5079 15.3314 14.5314 15.3572 14.5556C16.8356 15.9513 17.5882 17.7929 17.8595 19.7812C17.8913 19.7819 17.9231 19.7826 17.9558 19.7833C18.2915 19.8005 18.5703 19.8588 18.8439 20.0625C19.1714 20.4419 19.1829 20.7699 19.1867 21.2549C19.1887 21.3407 19.1887 21.3407 19.1908 21.4284C19.1932 21.7791 19.151 22.0637 19.025 22.3918C18.979 22.4954 18.979 22.4954 18.9845 22.5937C19.4213 22.5959 19.8581 22.5976 20.2949 22.5986C20.4978 22.5991 20.7006 22.5997 20.9034 22.6008C21.0991 22.6018 21.2949 22.6024 21.4906 22.6026C21.5653 22.6028 21.64 22.6031 21.7146 22.6037C21.8192 22.6043 21.9238 22.6044 22.0284 22.6044C22.0879 22.6046 22.1475 22.6048 22.2088 22.605C22.3515 22.5943 22.4319 22.5833 22.547 22.5C22.6016 22.3361 22.6004 22.1894 22.5999 22.019C22.6 21.9664 22.6 21.9664 22.6002 21.9127C22.6004 21.7942 22.6003 21.6757 22.6001 21.5571C22.6002 21.4717 22.6003 21.3863 22.6005 21.3008C22.6008 21.0653 22.6008 20.8297 22.6007 20.5942C22.6007 20.3404 22.6009 20.0867 22.6012 19.8329C22.6016 19.3356 22.6017 18.8382 22.6017 18.3408C22.6017 17.9367 22.6018 17.5325 22.602 17.1284C22.6024 15.9837 22.6026 14.8389 22.6026 13.6942C22.6026 13.6324 22.6026 13.5707 22.6026 13.507C22.6026 13.4143 22.6026 13.4143 22.6026 13.3197C22.6025 12.3171 22.603 11.3145 22.6037 10.3119C22.6043 9.28348 22.6047 8.25502 22.6046 7.22656C22.6046 6.64876 22.6047 6.07097 22.6052 5.49317C22.6057 5.0013 22.6058 4.50944 22.6054 4.01757C22.6053 3.76644 22.6053 3.51532 22.6057 3.26419C22.6061 3.03453 22.606 2.80488 22.6056 2.57522C22.6055 2.49191 22.6056 2.4086 22.6059 2.3253C22.6062 2.21248 22.6059 2.09968 22.6055 1.98687C22.6058 1.95416 22.606 1.92145 22.6063 1.88775C22.605 1.72129 22.6004 1.59008 22.5001 1.45311C22.3345 1.3979 22.1852 1.3996 22.0129 1.39997C21.9773 1.39987 21.9417 1.39976 21.905 1.39965C21.7854 1.39935 21.6658 1.39939 21.5462 1.39943C21.4606 1.39929 21.3749 1.39913 21.2893 1.39895C21.0565 1.39854 20.8237 1.39843 20.5909 1.3984C20.3967 1.39835 20.2025 1.39818 20.0083 1.39802C19.5502 1.39763 19.0922 1.39752 18.6341 1.39755C18.1612 1.39758 17.6883 1.39709 17.2154 1.39635C16.8097 1.39573 16.404 1.39548 15.9983 1.39551C15.7559 1.39552 15.5134 1.39539 15.271 1.39489C15.043 1.39444 14.815 1.39444 14.5871 1.39478C14.5033 1.39483 14.4196 1.39472 14.3358 1.39443C14.2217 1.39407 14.1075 1.39429 13.9934 1.39465C13.9601 1.39441 13.9268 1.39417 13.8925 1.39392C13.7247 1.3951 13.5912 1.39845 13.4533 1.49999ZM5.53138 15C5.4886 15.0325 5.44582 15.065 5.40174 15.0985C3.97471 16.2197 3.03894 17.8344 2.81263 19.6406C2.81263 19.687 2.81263 19.7334 2.81263 19.7812C7.29857 19.7812 11.7845 19.7812 16.4064 19.7812C16.2415 18.5447 15.8717 17.4002 15.0939 16.4062C15.0614 16.3635 15.0289 16.3207 14.9954 16.2766C13.8679 14.8416 12.2626 13.9296 10.4533 13.6875C10.4113 13.6814 10.3694 13.6753 10.3262 13.669C8.66115 13.4616 6.8494 13.9687 5.53138 15ZM1.40638 21.1875C1.45828 21.8283 1.45828 21.8283 1.82533 22.3066C2.25649 22.6058 2.64092 22.6007 3.14874 22.6C3.23485 22.6002 3.23485 22.6002 3.32271 22.6003C3.48148 22.6006 3.64026 22.6006 3.79904 22.6006C3.97051 22.6005 4.14197 22.6008 4.31343 22.601C4.64913 22.6014 4.98483 22.6015 5.32053 22.6016C5.59345 22.6016 5.86636 22.6017 6.13927 22.6018C6.91338 22.6022 7.68749 22.6025 8.4616 22.6024C8.52416 22.6024 8.52416 22.6024 8.58798 22.6024C8.62974 22.6024 8.6715 22.6024 8.71453 22.6024C9.39139 22.6024 10.0682 22.6028 10.7451 22.6035C11.4405 22.6042 12.1358 22.6045 12.8311 22.6045C13.2214 22.6045 13.6116 22.6046 14.0019 22.6051C14.3341 22.6055 14.6663 22.6056 14.9985 22.6053C15.168 22.6051 15.3374 22.6051 15.5068 22.6055C15.6906 22.606 15.8745 22.6057 16.0584 22.6053C16.1383 22.6057 16.1383 22.6057 16.2198 22.6061C16.7044 22.604 17.114 22.5538 17.4845 22.2187C17.7664 21.8866 17.7748 21.6411 17.8126 21.1875C12.3986 21.1875 6.98451 21.1875 1.40638 21.1875Z" fill="#141522"/>
<path d="M15.3239 10.4931C15.3969 10.4926 15.3969 10.4926 15.4713 10.4921C15.5249 10.492 15.5784 10.4919 15.6336 10.4917C15.6899 10.4914 15.7461 10.4911 15.8041 10.4908C15.9909 10.4899 16.1778 10.4893 16.3646 10.4889C16.429 10.4887 16.4933 10.4885 16.5576 10.4883C16.8599 10.4874 17.1622 10.4867 17.4645 10.4863C17.8133 10.4859 18.1621 10.4847 18.511 10.4828C18.7806 10.4813 19.0503 10.4807 19.32 10.4805C19.481 10.4804 19.642 10.48 19.8031 10.4788C19.9828 10.4775 20.1626 10.4777 20.3424 10.478C20.4222 10.4771 20.4222 10.4771 20.5036 10.4762C20.7934 10.4781 20.9678 10.4921 21.1876 10.6875C21.3538 10.8767 21.3894 11.0422 21.3852 11.2942C21.3629 11.5083 21.2708 11.6392 21.1144 11.7803C20.9525 11.8924 20.8712 11.9123 20.6763 11.9132C20.6277 11.9135 20.5791 11.9139 20.529 11.9142C20.4754 11.9143 20.4218 11.9145 20.3666 11.9146C20.2823 11.9151 20.2823 11.9151 20.1962 11.9155C20.0093 11.9165 19.8225 11.917 19.6356 11.9175C19.5713 11.9177 19.507 11.9178 19.4426 11.918C19.1403 11.9189 18.838 11.9196 18.5358 11.92C18.1869 11.9205 17.8381 11.9217 17.4893 11.9236C17.2196 11.925 16.95 11.9257 16.6803 11.9258C16.5193 11.926 16.3582 11.9264 16.1972 11.9276C16.0174 11.9288 15.8377 11.9287 15.6579 11.9283C15.5781 11.9292 15.5781 11.9292 15.4967 11.9301C15.2069 11.9282 15.0325 11.9143 14.8126 11.7188C14.6464 11.5297 14.6109 11.3641 14.6151 11.1122C14.6374 10.898 14.7295 10.7672 14.8859 10.626C15.0477 10.514 15.129 10.4941 15.3239 10.4931Z" fill="#141522"/>
<path d="M15.3239 7.68065C15.3969 7.68014 15.3969 7.68014 15.4713 7.67963C15.5249 7.6795 15.5784 7.67938 15.6336 7.67925C15.6899 7.67894 15.7461 7.67863 15.8041 7.67832C15.9909 7.67739 16.1778 7.67684 16.3646 7.67638C16.429 7.67619 16.4933 7.67599 16.5576 7.6758C16.8599 7.6749 17.1622 7.67424 17.4645 7.67385C17.8133 7.67339 18.1621 7.67216 18.511 7.67026C18.7806 7.66885 19.0503 7.66815 19.32 7.668C19.481 7.66789 19.642 7.66747 19.8031 7.66629C19.9828 7.66499 20.1626 7.66519 20.3424 7.66552C20.4222 7.66462 20.4222 7.66462 20.5036 7.6637C20.7934 7.66562 20.9678 7.67958 21.1876 7.87505C21.3538 8.06418 21.3894 8.22973 21.3852 8.48167C21.3629 8.69582 21.2708 8.82666 21.1144 8.96782C20.9525 9.07989 20.8712 9.09977 20.6763 9.10069C20.6277 9.10103 20.5791 9.10137 20.529 9.10171C20.4754 9.10184 20.4218 9.10196 20.3666 9.10209C20.2823 9.10255 20.2823 9.10255 20.1962 9.10303C20.0093 9.10395 19.8225 9.1045 19.6356 9.10497C19.5713 9.10515 19.507 9.10535 19.4426 9.10554C19.1403 9.10644 18.838 9.1071 18.5358 9.10749C18.1869 9.10795 17.8381 9.10919 17.4893 9.11108C17.2196 9.1125 16.95 9.11319 16.6803 9.11334C16.5193 9.11345 16.3582 9.11387 16.1972 9.11505C16.0174 9.11635 15.8377 9.11615 15.6579 9.11583C15.5781 9.11673 15.5781 9.11673 15.4967 9.11765C15.2069 9.11573 15.0325 9.10176 14.8126 8.9063C14.6464 8.71716 14.6109 8.55161 14.6151 8.29967C14.6374 8.08553 14.7295 7.95468 14.8859 7.81352C15.0477 7.70146 15.129 7.68157 15.3239 7.68065Z" fill="#141522"/>
<path d="M7.5 15.5156C7.68772 15.6095 7.81213 15.7115 7.92188 15.8906C7.99898 16.1219 7.99642 16.3249 7.91895 16.5527C7.7439 16.8124 7.49471 16.9733 7.24219 17.1533C6.86013 17.4309 6.61129 17.7213 6.35805 18.1169C5.99288 18.6862 5.99288 18.6862 5.71875 18.75C5.45463 18.7709 5.28989 18.7592 5.0625 18.6093C4.90661 18.4448 4.78125 18.2827 4.78125 18.0485C4.80452 17.7727 4.87818 17.5849 5.03027 17.3554C5.06137 17.3073 5.06137 17.3073 5.09309 17.2582C5.31454 16.9257 5.5753 16.6388 5.85938 16.3593C5.90191 16.3169 5.94445 16.2744 5.98828 16.2306C6.40147 15.8361 6.88911 15.3792 7.5 15.5156Z" fill="#141522"/>
<path d="M17.0879 3.46044C17.132 3.45984 17.1761 3.45923 17.2216 3.45861C17.2934 3.45809 17.2934 3.45809 17.3666 3.45757C17.4157 3.45719 17.4649 3.45681 17.5155 3.45642C17.6197 3.45577 17.7239 3.45527 17.8281 3.4549C17.9871 3.45409 18.1461 3.45204 18.3052 3.44997C18.4064 3.44949 18.5076 3.44909 18.6088 3.44878C18.68 3.44754 18.68 3.44754 18.7526 3.44629C19.0333 3.44715 19.192 3.47036 19.4064 3.65623C19.5726 3.84537 19.6081 4.01092 19.604 4.26286C19.5816 4.477 19.4896 4.60785 19.3331 4.74901C19.1779 4.85649 19.0988 4.88107 18.9124 4.88328C18.8462 4.88418 18.8462 4.88418 18.7787 4.8851C18.7308 4.88545 18.683 4.8858 18.6337 4.88615C18.5845 4.88653 18.5354 4.88691 18.4848 4.8873C18.3806 4.88795 18.2764 4.88845 18.1722 4.88882C18.0131 4.88963 17.8541 4.89168 17.6951 4.89375C17.5939 4.89423 17.4927 4.89463 17.3915 4.89494C17.344 4.89576 17.2965 4.89658 17.2476 4.89743C16.9669 4.89657 16.8083 4.87336 16.5939 4.68748C16.4277 4.49835 16.3922 4.3328 16.3963 4.08086C16.4187 3.86671 16.5107 3.73587 16.6671 3.59471C16.8224 3.48723 16.9015 3.46265 17.0879 3.46044Z" fill="#141522"/>
<path d="M9.41618 14.8448C9.45322 14.8434 9.49026 14.8421 9.52842 14.8407C9.82668 14.8374 9.98309 14.9245 10.2101 15.1202C10.3501 15.2897 10.3283 15.508 10.3253 15.716C10.307 15.9015 10.255 15.992 10.1252 16.1251C9.85733 16.3042 9.61605 16.342 9.29899 16.336C9.26056 16.3367 9.22213 16.3374 9.18253 16.3382C8.92733 16.3365 8.78055 16.2934 8.57828 16.1251C8.39451 15.9219 8.36107 15.7561 8.37266 15.4908C8.40908 15.2582 8.50458 15.1022 8.69547 14.959C8.93437 14.8515 9.15795 14.8479 9.41618 14.8448Z" fill="#141522"/>
</g>
<defs>
<clipPath id="clip0_174_475">
<rect width="24" height="24" fill="white"/>
</clipPath>
</defs>
</svg>
