<svg width="16" height="17" viewBox="0 0 16 17" fill="none" xmlns="http://www.w3.org/2000/svg">
<path d="M8.00016 5.16667C7.26378 5.16667 6.66683 4.56971 6.66683 3.83333C6.66683 3.09695 7.26378 2.5 8.00016 2.5C8.73654 2.5 9.3335 3.09695 9.3335 3.83333C9.3335 4.56971 8.73654 5.16667 8.00016 5.16667Z" fill="#1C274C"/>
<path d="M8.00016 9.83333C7.26378 9.83333 6.66683 9.23638 6.66683 8.5C6.66683 7.76362 7.26378 7.16667 8.00016 7.16667C8.73654 7.16667 9.3335 7.76362 9.3335 8.5C9.3335 9.23638 8.73654 9.83333 8.00016 9.83333Z" fill="#1C274C"/>
<path d="M8.00016 14.5C7.26378 14.5 6.66683 13.903 6.66683 13.1667C6.66683 12.4303 7.26378 11.8333 8.00016 11.8333C8.73654 11.8333 9.3335 12.4303 9.3335 13.1667C9.3335 13.903 8.73654 14.5 8.00016 14.5Z" fill="#1C274C"/>
</svg>
