<svg width="24" height="25" viewBox="0 0 24 25" fill="none" xmlns="http://www.w3.org/2000/svg">
<g clip-path="url(#clip0_174_450)">
<path d="M7.79704 0.662562C7.90828 0.662436 8.01952 0.662254 8.13076 0.662019C8.36318 0.661743 8.59558 0.662141 8.828 0.66302C9.12451 0.664088 9.42099 0.663473 9.7175 0.66235C9.94701 0.66167 10.1765 0.66189 10.406 0.662374C10.5153 0.662498 10.6246 0.662349 10.7338 0.661909C11.5232 0.659431 12.1626 0.677824 12.7967 1.20309C12.8265 1.22653 12.8563 1.24998 12.887 1.27413C13.2619 1.60333 13.4469 2.07873 13.4999 2.56246C13.5262 2.56215 13.5526 2.56184 13.5797 2.56152C13.8566 2.55838 14.1334 2.55628 14.4102 2.55474C14.5133 2.55404 14.6163 2.55308 14.7193 2.55186C15.8075 2.53925 16.5884 2.69066 17.4081 3.46444C18.0814 4.15824 18.2415 5.00673 18.2408 5.93554C18.2409 6.00264 18.2411 6.06975 18.2412 6.13685C18.2416 6.32083 18.2417 6.50481 18.2417 6.68879C18.2418 6.88738 18.2422 7.08598 18.2425 7.28457C18.2431 7.71866 18.2434 8.15275 18.2436 8.58684C18.2437 8.85806 18.2439 9.12929 18.2442 9.40051C18.2447 10.1519 18.2452 10.9034 18.2454 11.6548C18.2454 11.7029 18.2454 11.751 18.2454 11.8005C18.2454 11.8487 18.2454 11.8968 18.2454 11.9465C18.2455 12.0441 18.2455 12.1417 18.2455 12.2394C18.2455 12.2878 18.2455 12.3362 18.2455 12.3861C18.2457 13.1704 18.2465 13.9547 18.2476 14.739C18.2487 15.5449 18.2493 16.3508 18.2494 17.1567C18.2494 17.6089 18.2497 18.0611 18.2505 18.5133C18.2513 18.8985 18.2515 19.2836 18.2511 19.6688C18.2509 19.8651 18.251 20.0614 18.2516 20.2577C18.2522 20.4378 18.2522 20.618 18.2516 20.7981C18.2515 20.8932 18.252 20.9884 18.2526 21.0836C18.2478 21.9939 17.9896 22.7724 17.3757 23.4475C16.503 24.2813 15.5454 24.3406 14.3976 24.336C14.2709 24.3362 14.1443 24.3364 14.0176 24.3368C13.7108 24.3374 13.404 24.337 13.0972 24.3363C12.7393 24.3355 12.3813 24.3357 12.0233 24.3359C11.3844 24.3362 10.7454 24.3355 10.1065 24.3343C9.48762 24.3332 8.86877 24.3329 8.24992 24.3334C7.57446 24.3339 6.89901 24.334 6.22355 24.3333C6.15144 24.3332 6.07932 24.3332 6.0072 24.3331C5.97173 24.3331 5.93626 24.333 5.89971 24.333C5.65066 24.3328 5.40161 24.3329 5.15256 24.3331C4.84884 24.3333 4.54513 24.333 4.24141 24.3321C4.08669 24.3316 3.93197 24.3315 3.77724 24.3317C3.60905 24.332 3.44087 24.3314 3.27268 24.3306C3.20035 24.3311 3.20035 24.3311 3.12655 24.3315C2.32286 24.3245 1.62586 24.0206 1.06022 23.4572C0.402906 22.7666 0.16461 22.0278 0.169503 21.0838C0.169341 21.0149 0.169118 20.946 0.168839 20.8771C0.168255 20.6892 0.168539 20.5013 0.168977 20.3134C0.169296 20.1101 0.168803 19.9069 0.168417 19.7037C0.167793 19.3062 0.167927 18.9086 0.168335 18.5111C0.168653 18.1879 0.168695 17.8647 0.168543 17.5415C0.168521 17.4954 0.168499 17.4493 0.168477 17.4018C0.168432 17.3082 0.168386 17.2146 0.16834 17.121C0.16794 16.2441 0.1684 15.3671 0.169156 14.4902C0.169784 13.7384 0.169675 12.9867 0.169027 12.2349C0.168274 11.361 0.167978 10.4871 0.16841 9.61325C0.168454 9.51999 0.168499 9.42673 0.168543 9.33347C0.168564 9.28759 0.168586 9.2417 0.168608 9.19443C0.16873 8.87177 0.168525 8.54911 0.168194 8.22645C0.167798 7.83301 0.167907 7.43957 0.168655 7.04612C0.169023 6.84555 0.169171 6.64498 0.168704 6.4444C0.168283 6.2605 0.168519 6.07662 0.169264 5.89272C0.16942 5.82649 0.169343 5.76025 0.169 5.69401C0.164822 4.82044 0.418331 4.04578 1.03111 3.40621C1.62793 2.83439 2.38234 2.53563 3.20402 2.54873C3.27628 2.54903 3.27628 2.54903 3.35 2.54933C3.50185 2.55011 3.65368 2.55188 3.80552 2.55368C3.90931 2.55438 4.0131 2.55502 4.11689 2.5556C4.36956 2.55714 4.62221 2.55948 4.87486 2.56246C4.88398 2.51424 4.88398 2.51424 4.89329 2.46504C4.90554 2.40175 4.90554 2.40175 4.91804 2.33718C4.92605 2.29536 4.93407 2.25354 4.94233 2.21045C5.06613 1.6606 5.48224 1.2472 5.93742 0.951869C6.55438 0.648092 7.11985 0.659841 7.79704 0.662562ZM6.28111 2.28121C6.10824 2.57385 6.06401 2.8392 6.07017 3.17477C6.06945 3.21444 6.06872 3.25411 6.06798 3.29498C6.07011 3.64153 6.16965 3.8836 6.39244 4.14743C6.67639 4.38405 6.90982 4.4114 7.26592 4.41027C7.31245 4.41067 7.35898 4.41107 7.40692 4.41148C7.56034 4.41257 7.71374 4.41262 7.86717 4.41256C7.97412 4.4129 8.08106 4.41326 8.18801 4.41364C8.41206 4.41427 8.6361 4.41435 8.86015 4.41407C9.14682 4.4138 9.43345 4.41523 9.7201 4.41713C9.94096 4.41834 10.1618 4.41847 10.3827 4.4183C10.4883 4.41838 10.594 4.41883 10.6997 4.41967C10.8476 4.42071 10.9956 4.42025 11.1435 4.41943C11.1869 4.42005 11.2303 4.42067 11.2749 4.42131C11.6306 4.41672 11.8553 4.29685 12.1083 4.05075C12.3596 3.64123 12.389 3.18905 12.306 2.71939C12.2155 2.40433 12.0402 2.1742 11.7596 2.00582C11.5851 1.93753 11.436 1.90044 11.2486 1.89963C11.2115 1.89936 11.1744 1.8991 11.1361 1.89882C11.0958 1.89877 11.0555 1.89872 11.014 1.89866C10.9498 1.89831 10.9498 1.89831 10.8843 1.89796C10.7428 1.89727 10.6013 1.89695 10.4598 1.89669C10.3612 1.89642 10.2626 1.89615 10.1641 1.89588C9.95732 1.89539 9.75056 1.89512 9.54381 1.89495C9.27954 1.8947 9.01528 1.89357 8.75102 1.89224C8.54733 1.89136 8.34365 1.89112 8.13996 1.89105C8.04257 1.89091 7.94519 1.89053 7.84781 1.88991C7.71118 1.88911 7.57457 1.8892 7.43794 1.88951C7.39811 1.88907 7.35828 1.88864 7.31724 1.8882C6.91709 1.89096 6.56159 1.98116 6.28111 2.28121ZM1.72307 4.55795C1.38347 5.02631 1.39916 5.55566 1.39953 6.10944C1.39941 6.17506 1.39926 6.24068 1.3991 6.3063C1.39873 6.48619 1.39864 6.66607 1.39861 6.84596C1.39852 7.04014 1.39817 7.23433 1.39785 7.42851C1.39722 7.85291 1.39693 8.27731 1.39673 8.7017C1.3966 8.96683 1.3964 9.23196 1.39619 9.49709C1.39562 10.2316 1.39513 10.966 1.39497 11.7005C1.39496 11.7475 1.39495 11.7945 1.39494 11.8429C1.39493 11.8899 1.39492 11.937 1.39491 11.9856C1.39489 12.081 1.39487 12.1764 1.39485 12.2718C1.39484 12.3191 1.39483 12.3665 1.39482 12.4152C1.39463 13.182 1.39381 13.9488 1.39272 14.7156C1.39161 15.5034 1.39103 16.2911 1.39097 17.0789C1.39093 17.521 1.39066 17.9631 1.38981 18.4052C1.38909 18.7817 1.38885 19.1581 1.38923 19.5346C1.38942 19.7265 1.38938 19.9185 1.38872 20.1104C1.38812 20.2864 1.38818 20.4624 1.38874 20.6384C1.38888 20.7316 1.38832 20.8248 1.38774 20.918C1.39122 21.5534 1.51417 22.1145 1.95396 22.5898C2.42349 23.032 2.98929 23.1083 3.61066 23.1059C3.6856 23.1062 3.6856 23.1062 3.76206 23.1065C3.92837 23.107 4.09467 23.1068 4.26098 23.1066C4.38067 23.1068 4.50036 23.107 4.62005 23.1073C4.91075 23.1079 5.20145 23.108 5.49216 23.1079C5.7286 23.1078 5.96503 23.1079 6.20147 23.1081C6.2352 23.1081 6.26893 23.1081 6.30368 23.1082C6.37221 23.1082 6.44075 23.1083 6.50928 23.1083C7.15111 23.1088 7.79295 23.1087 8.43478 23.1085C9.02106 23.1082 9.60734 23.1087 10.1936 23.1096C10.7966 23.1105 11.3997 23.1109 12.0027 23.1108C12.3408 23.1107 12.6789 23.1108 13.0171 23.1114C13.3351 23.1121 13.6531 23.1119 13.9712 23.1113C14.0877 23.1112 14.2041 23.1114 14.3206 23.1117C14.4801 23.1122 14.6395 23.1118 14.799 23.1113C14.8447 23.1116 14.8903 23.1119 14.9373 23.1123C15.5013 23.1079 16.0331 22.9742 16.4546 22.5834C16.9097 22.0916 16.9827 21.5857 16.9811 20.9367C16.9813 20.8693 16.9815 20.8019 16.9818 20.7345C16.9824 20.5497 16.9823 20.3649 16.9822 20.1801C16.9822 19.9807 16.9827 19.7812 16.9832 19.5817C16.984 19.1911 16.9842 18.8005 16.9843 18.4099C16.9843 18.0923 16.9845 17.7747 16.9848 17.4571C16.9856 16.5564 16.9861 15.6556 16.986 14.7549C16.986 14.7064 16.986 14.6578 16.986 14.6078C16.986 14.5349 16.986 14.5349 16.986 14.4605C16.9859 13.6729 16.9868 12.8853 16.9881 12.0978C16.9895 11.2887 16.9901 10.4797 16.9901 9.67072C16.99 9.21665 16.9903 8.76258 16.9913 8.30852C16.9922 7.92189 16.9924 7.53528 16.9917 7.14865C16.9914 6.9515 16.9914 6.75436 16.9922 6.5572C16.993 6.37648 16.9928 6.19577 16.992 6.01504C16.9919 5.94991 16.992 5.88477 16.9926 5.81963C16.9971 5.21549 16.8781 4.74103 16.453 4.29684C16.0166 3.89786 15.5557 3.77322 14.9784 3.77664C14.9149 3.77674 14.9149 3.77674 14.8502 3.77684C14.7155 3.7771 14.5808 3.77769 14.4461 3.77828C14.3546 3.77852 14.2631 3.77873 14.1716 3.77893C13.9477 3.77944 13.7238 3.78025 13.4999 3.78121C13.4822 3.84241 13.4822 3.84241 13.4642 3.90483C13.4402 3.98594 13.4402 3.98594 13.4156 4.06869C13.4 4.12205 13.3844 4.17542 13.3683 4.2304C13.1583 4.83222 12.7511 5.17866 12.1978 5.45645C11.8481 5.59336 11.5105 5.62322 11.1376 5.62221C11.0675 5.62257 11.0675 5.62257 10.9959 5.62294C10.8424 5.62359 10.6889 5.62355 10.5354 5.62344C10.4279 5.62362 10.3205 5.62382 10.213 5.62405C9.98818 5.6244 9.76336 5.62438 9.53853 5.62414C9.25142 5.62387 8.96432 5.62466 8.67721 5.62575C8.45539 5.62644 8.23357 5.62648 8.01174 5.62633C7.90593 5.62636 7.80012 5.6266 7.69431 5.62707C7.54594 5.62766 7.39759 5.62733 7.24921 5.62679C7.20614 5.62715 7.16307 5.62751 7.1187 5.62788C6.4776 5.62275 5.96217 5.40865 5.49943 4.97213C5.24284 4.70648 5.10556 4.44396 4.98417 4.09524C4.97356 4.06496 4.96295 4.03468 4.95202 4.00348C4.92612 3.92945 4.90046 3.85534 4.87486 3.78121C4.61899 3.77653 4.36315 3.77315 4.10725 3.77091C4.02047 3.76998 3.93369 3.76871 3.84692 3.76707C2.96435 3.75085 2.32239 3.85853 1.72307 4.55795Z" fill="#141522"/>
<path d="M22.7754 2.92281C23.3184 3.35524 23.6934 3.88224 23.8125 4.57808C23.8274 4.78959 23.8286 5.00079 23.8298 5.21277C23.8305 5.2772 23.8312 5.34162 23.832 5.40605C23.8339 5.58248 23.8352 5.75891 23.8365 5.93534C23.8376 6.08689 23.8391 6.23844 23.8406 6.38999C23.8545 7.83456 23.8611 9.27923 23.8664 10.7239C23.8671 10.9124 23.8678 11.1009 23.8685 11.2894C23.8688 11.3597 23.8688 11.3597 23.8691 11.4314C23.8721 12.1855 23.8785 12.9396 23.8863 13.6937C23.8943 14.4715 23.8988 15.2492 23.9002 16.027C23.901 16.4623 23.9033 16.8974 23.9096 17.3326C23.9361 19.231 23.9099 20.8489 23.0342 22.5841C22.8982 22.8548 22.7843 23.134 22.6732 23.4157C22.5112 23.8158 22.273 24.0552 21.8795 24.2332C21.5394 24.3666 21.1128 24.3788 20.7715 24.2392C20.2712 23.9756 20.0292 23.5836 19.8362 23.0716C19.8197 23.0285 19.8032 22.9855 19.7861 22.9411C19.7334 22.8036 19.6812 22.666 19.629 22.5283C19.5946 22.4385 19.5603 22.3488 19.5259 22.259C19.3439 21.7837 19.3439 21.7837 19.2843 21.6196C19.2359 21.4967 19.185 21.3819 19.1273 21.2636C18.7889 20.5322 18.791 19.8107 18.7982 19.0225C18.7996 18.8299 18.7987 18.6372 18.7981 18.4445C18.7974 18.0686 18.7986 17.6927 18.8005 17.3167C18.8027 16.8782 18.8028 16.4397 18.8028 16.0011C18.8029 15.2186 18.8048 14.4361 18.8078 13.6536C18.8106 12.8954 18.8123 12.1372 18.8126 11.379C18.8126 11.3322 18.8126 11.2854 18.8126 11.2372C18.8127 11.1905 18.8127 11.1438 18.8127 11.0957C18.8127 11.0017 18.8128 10.9076 18.8128 10.8136C18.8128 10.7672 18.8129 10.7208 18.8129 10.6731C18.8132 9.94852 18.8146 9.22398 18.8161 8.49945C18.8167 8.23748 18.8171 7.9755 18.8173 7.71353C18.8178 7.29827 18.8187 6.88302 18.8205 6.46777C18.8214 6.27821 18.822 6.08865 18.822 5.89909C18.822 5.72533 18.8227 5.55159 18.8239 5.37783C18.8243 5.28576 18.8241 5.19368 18.8239 5.10161C18.8306 4.36839 19.0585 3.71951 19.5711 3.18373C20.4521 2.38449 21.7824 2.24473 22.7754 2.92281ZM20.625 3.96871C20.5835 3.99578 20.5419 4.02285 20.4991 4.05074C20.3185 4.22638 20.189 4.43297 20.1094 4.67183C20.1094 4.88839 20.1094 5.10496 20.1094 5.32808C20.9293 5.32808 21.7491 5.32808 22.5938 5.32808C22.5938 4.82059 22.5397 4.43189 22.1719 4.06246C21.7202 3.7185 21.1086 3.62905 20.625 3.96871ZM20.1094 6.59371C20.1094 10.9095 20.1094 15.2253 20.1094 19.6718C20.9293 19.6718 21.7491 19.6718 22.5938 19.6718C22.5938 15.3561 22.5938 11.0403 22.5938 6.59371C21.774 6.59371 20.9541 6.59371 20.1094 6.59371ZM20.3907 20.9375C20.6557 21.6897 20.6557 21.6897 20.9327 22.4375C20.9433 22.4668 20.954 22.4961 20.965 22.5263C20.9964 22.6123 21.029 22.6977 21.0618 22.7832C21.0803 22.8328 21.0989 22.8825 21.1181 22.9337C21.1779 23.0587 21.1779 23.0587 21.3126 23.0868C21.3487 23.089 21.3848 23.0913 21.4219 23.0937C21.5532 22.8389 21.6681 22.5836 21.7713 22.3162C21.7856 22.2795 21.7999 22.2428 21.8146 22.205C21.8445 22.1282 21.8743 22.0514 21.9039 21.9746C21.9496 21.8566 21.9955 21.7388 22.0416 21.621C22.0706 21.5461 22.0997 21.4712 22.1287 21.3963C22.1425 21.3611 22.1562 21.3258 22.1704 21.2895C22.2409 21.1185 22.2409 21.1185 22.2657 20.9375C21.6469 20.9375 21.0282 20.9375 20.3907 20.9375Z" fill="#141522"/>
<path d="M8.74823 7.84071C8.78542 7.84057 8.82261 7.84044 8.86092 7.8403C8.93895 7.8402 9.01699 7.84046 9.09502 7.84105C9.21373 7.8418 9.33237 7.84105 9.45108 7.84016C9.52734 7.84025 9.60361 7.84043 9.67987 7.84071C9.71494 7.84042 9.75001 7.84014 9.78614 7.83984C10.0741 7.84365 10.2997 7.90189 10.5176 8.10255C10.6145 8.2703 10.6551 8.41747 10.6406 8.60938C10.5802 8.81946 10.5001 8.95101 10.3213 9.07813C10.1545 9.13045 10.0175 9.13543 9.84375 9.12501C9.84375 9.24876 9.84375 9.37251 9.84375 9.50001C9.87904 9.50351 9.91433 9.50702 9.95068 9.51063C10.8673 9.6241 11.7429 10.0501 12.4219 10.6719C12.4618 10.708 12.5018 10.7442 12.5429 10.7814C13.3433 11.5412 13.9322 12.6793 13.9733 13.7962C13.9725 13.8492 13.9725 13.8492 13.9717 13.9033C13.9713 13.9395 13.9708 13.9757 13.9704 14.013C13.9696 14.053 13.9696 14.053 13.9688 14.0938C14.0171 14.0967 14.0654 14.0996 14.1152 14.1025C14.3202 14.1455 14.453 14.2079 14.5781 14.375C14.6734 14.5906 14.6854 14.7483 14.6221 14.9756C14.4989 15.1782 14.3812 15.2844 14.1563 15.3594C14.0251 15.3641 13.8951 15.3661 13.764 15.366C13.7032 15.3662 13.7032 15.3662 13.6412 15.3664C13.505 15.3668 13.3688 15.3669 13.2325 15.3669C13.135 15.3672 13.0376 15.3674 12.9401 15.3676C12.6749 15.3683 12.4098 15.3686 12.1446 15.3688C11.979 15.3689 11.8134 15.3691 11.6478 15.3693C11.1299 15.3699 10.612 15.3704 10.0941 15.3706C9.49591 15.3708 8.89768 15.3716 8.29944 15.373C7.8373 15.374 7.37515 15.3745 6.91301 15.3745C6.63686 15.3746 6.36072 15.3748 6.08457 15.3757C5.82483 15.3765 5.5651 15.3766 5.30535 15.3761C5.21 15.3761 5.11465 15.3763 5.0193 15.3768C4.88916 15.3774 4.75904 15.3771 4.62889 15.3766C4.59114 15.377 4.55339 15.3774 4.51449 15.3778C4.28791 15.3758 4.13428 15.3429 3.9375 15.2188C3.79451 15.0607 3.73715 14.9363 3.72656 14.7266C3.73715 14.5168 3.79451 14.3924 3.9375 14.2344C4.11338 14.1245 4.1967 14.0938 4.40625 14.0938C4.41232 14.0163 4.41232 14.0163 4.41852 13.9372C4.5121 12.8771 4.84897 11.9649 5.53125 11.1406C5.56213 11.1026 5.593 11.0646 5.62482 11.0255C6.34481 10.1751 7.36107 9.70311 8.4375 9.50001C8.48391 9.50001 8.53031 9.50001 8.57813 9.50001C8.57813 9.37626 8.57813 9.25251 8.57813 9.12501C8.49401 9.13081 8.49401 9.13081 8.4082 9.13673C8.19738 9.13635 8.08365 9.07671 7.92188 8.93751C7.77376 8.76471 7.75615 8.60563 7.76532 8.38508C7.79155 8.21411 7.85017 8.12452 7.96875 8.00001C8.23714 7.87838 8.45574 7.83833 8.74823 7.84071ZM6.54822 11.8676C6.02213 12.5008 5.67188 13.2612 5.67188 14.0938C7.99219 14.0938 10.3125 14.0938 12.7031 14.0938C12.7031 13.2314 12.3921 12.4857 11.8125 11.8438C11.786 11.814 11.7596 11.7843 11.7323 11.7537C11.1078 11.0911 10.2281 10.7282 9.32862 10.7C8.25133 10.6862 7.28345 11.0675 6.54822 11.8676Z" fill="#141522"/>
<path d="M7.15519 17.1756C7.21591 17.1753 7.27662 17.175 7.33918 17.1748C7.40565 17.1749 7.47212 17.1751 7.53859 17.1753C7.60923 17.1752 7.67986 17.175 7.7505 17.1748C7.94168 17.1744 8.13285 17.1746 8.32403 17.1749C8.52444 17.1751 8.72486 17.1749 8.92527 17.1747C9.26178 17.1746 9.59829 17.1748 9.9348 17.1752C10.3234 17.1757 10.712 17.1756 11.1007 17.1751C11.4348 17.1746 11.7689 17.1746 12.103 17.1748C12.3024 17.175 12.5017 17.175 12.7011 17.1747C12.8885 17.1744 13.076 17.1746 13.2634 17.1751C13.3321 17.1753 13.4007 17.1752 13.4694 17.175C13.5634 17.1748 13.6574 17.1751 13.7513 17.1756C13.8038 17.1756 13.8563 17.1756 13.9104 17.1757C14.1615 17.1951 14.3398 17.2336 14.5255 17.4072C14.6381 17.5827 14.672 17.6826 14.672 17.8906C14.602 18.108 14.5221 18.2614 14.3439 18.4062C14.1871 18.4585 14.0691 18.4594 13.9038 18.46C13.8733 18.4602 13.8428 18.4603 13.8114 18.4605C13.7089 18.461 13.6065 18.4612 13.504 18.4614C13.4307 18.4617 13.3573 18.462 13.2839 18.4623C13.0427 18.4633 12.8016 18.4638 12.5604 18.4643C12.4774 18.4644 12.3944 18.4646 12.3113 18.4648C11.9212 18.4657 11.5311 18.4664 11.141 18.4668C10.6908 18.4672 10.2405 18.4685 9.79033 18.4704C9.44227 18.4718 9.09422 18.4725 8.74617 18.4726C8.53831 18.4727 8.33048 18.4732 8.12263 18.4743C7.92702 18.4754 7.73143 18.4756 7.53582 18.4752C7.46414 18.4751 7.39247 18.4754 7.3208 18.4761C6.64411 18.4818 6.64411 18.4818 6.37514 18.2656C6.25241 18.1007 6.22371 17.9742 6.23451 17.7734C6.27076 17.5447 6.34295 17.4352 6.51576 17.2812C6.73362 17.2049 6.92514 17.1757 7.15519 17.1756Z" fill="#141522"/>
<path d="M6.96542 19.6125C6.99639 19.6123 7.02736 19.6121 7.05927 19.6119C7.16298 19.6113 7.26668 19.6114 7.37038 19.6114C7.44477 19.6112 7.51916 19.6108 7.59354 19.6105C7.79557 19.6097 7.9976 19.6094 8.19963 19.6094C8.3683 19.6093 8.53698 19.6089 8.70565 19.6086C9.10363 19.6078 9.5016 19.6076 9.89957 19.6077C10.3101 19.6077 10.7205 19.6068 11.131 19.6053C11.4835 19.604 11.8359 19.6035 12.1884 19.6036C12.3989 19.6036 12.6094 19.6034 12.8199 19.6024C13.0179 19.6015 13.2159 19.6015 13.4139 19.6021C13.4865 19.6022 13.5591 19.602 13.6317 19.6014C13.7309 19.6007 13.8301 19.6012 13.9294 19.6019C13.9849 19.6018 14.0404 19.6018 14.0976 19.6017C14.2844 19.6303 14.3852 19.6946 14.5315 19.8126C14.6839 20.0682 14.6931 20.2352 14.6252 20.5157C14.5211 20.6808 14.4312 20.7735 14.2502 20.8438C14.1093 20.8559 14.1093 20.8559 13.9413 20.8563C13.9103 20.8566 13.8793 20.8568 13.8474 20.857C13.7437 20.8576 13.64 20.8575 13.5363 20.8574C13.4619 20.8577 13.3876 20.858 13.3132 20.8584C13.1111 20.8592 12.9091 20.8594 12.7071 20.8595C12.5384 20.8596 12.3697 20.8599 12.2011 20.8603C11.8031 20.861 11.4051 20.8612 11.0071 20.8612C10.5967 20.8611 10.1862 20.8621 9.7757 20.8636C9.42323 20.8648 9.07076 20.8653 8.71828 20.8653C8.50779 20.8652 8.29731 20.8655 8.08682 20.8665C7.88882 20.8674 7.69084 20.8674 7.49285 20.8667C7.42025 20.8666 7.34765 20.8669 7.27505 20.8674C7.17579 20.8681 7.07659 20.8677 6.97733 20.867C6.89408 20.8671 6.89408 20.8671 6.80916 20.8671C6.6229 20.8387 6.52182 20.7726 6.37523 20.6563C6.22842 20.4527 6.21718 20.2926 6.25438 20.0524C6.30285 19.8749 6.39707 19.7652 6.54983 19.6667C6.69237 19.6111 6.81241 19.613 6.96542 19.6125Z" fill="#141522"/>
<path d="M4.7139 17.17C4.74765 17.1693 4.78141 17.1686 4.81619 17.168C5.10369 17.1706 5.32915 17.2312 5.54886 17.4278C5.6532 17.6124 5.68677 17.7727 5.6719 17.9844C5.61608 18.1647 5.52689 18.2838 5.36886 18.3907C5.13931 18.4772 4.9308 18.4755 4.68753 18.4737C4.61919 18.4751 4.61919 18.4751 4.54947 18.4765C4.2676 18.4763 4.10537 18.4524 3.89065 18.2657C3.75629 18.1044 3.72414 17.9634 3.7341 17.7528C3.7623 17.5819 3.82019 17.456 3.93753 17.3282C4.18649 17.1768 4.42914 17.1741 4.7139 17.17Z" fill="#141522"/>
<path d="M4.68457 19.6015C4.73481 19.6008 4.78506 19.6001 4.83682 19.5993C5.12856 19.6008 5.31143 19.6141 5.53125 19.8125C5.67806 20.0161 5.6893 20.1762 5.6521 20.4164C5.60328 20.5951 5.50892 20.7061 5.35271 20.802C5.15082 20.884 4.92882 20.859 4.71387 20.8584C4.64095 20.8595 4.64095 20.8595 4.56656 20.8607C4.12153 20.861 4.12153 20.861 3.9375 20.7031C3.80577 20.55 3.73782 20.4319 3.72949 20.2314C3.75598 19.9931 3.82265 19.8893 3.97815 19.7136C4.20521 19.5766 4.42454 19.5978 4.68457 19.6015Z" fill="#141522"/>
</g>
<defs>
<clipPath id="clip0_174_450">
<rect width="24" height="24" fill="white" transform="translate(0 0.5)"/>
</clipPath>
</defs>
</svg>
