<svg width="44" height="44" viewBox="0 0 44 44" fill="none" xmlns="http://www.w3.org/2000/svg">
<path fill-rule="evenodd" clip-rule="evenodd" d="M18.418 13.2509C18.6987 12.6592 19.3016 12.25 20 12.25H24C24.6984 12.25 25.3013 12.6592 25.582 13.2509C26.2655 13.2559 26.7983 13.2872 27.2738 13.4731C27.842 13.6952 28.3362 14.0727 28.6999 14.5624C29.0668 15.0565 29.2391 15.6898 29.4762 16.5614L30.2181 19.2827L30.4985 20.124C30.5065 20.1339 30.5144 20.1438 30.5222 20.1539C31.4231 21.3076 30.9941 23.0235 30.1362 26.4553C29.5905 28.638 29.3176 29.7293 28.5039 30.3647C27.6901 31.0001 26.5652 31.0001 24.3153 31.0001H19.6846C17.4348 31.0001 16.3098 31.0001 15.496 30.3647C14.6823 29.7293 14.4094 28.638 13.8638 26.4553C13.0058 23.0235 12.5768 21.3076 13.4777 20.1539C13.4856 20.1438 13.4935 20.1338 13.5015 20.1239L13.7819 19.2827L14.5238 16.5614C14.7609 15.6898 14.9332 15.0565 15.3001 14.5624C15.6638 14.0727 16.158 13.6952 16.7262 13.4731C17.2017 13.2872 17.7345 13.2559 18.418 13.2509ZM18.4195 14.7523C17.7576 14.759 17.492 14.7843 17.2722 14.8702C16.9663 14.9898 16.7002 15.193 16.5043 15.4567C16.3282 15.6939 16.2249 16.0252 15.934 17.0921L15.3644 19.1809C16.3845 19.0001 17.7775 19.0001 19.6846 19.0001H24.3153C26.2224 19.0001 27.6155 19.0001 28.6356 19.1809L28.066 17.0921C27.7751 16.0252 27.6718 15.6939 27.4957 15.4567C27.2998 15.193 27.0337 14.9898 26.7278 14.8702C26.508 14.7843 26.2424 14.759 25.5805 14.7523C25.2992 15.3423 24.6972 15.75 24 15.75H20C19.3028 15.75 18.7008 15.3423 18.4195 14.7523Z" fill="#8C8C6E"/>
</svg>
