<svg width="24" height="25" viewBox="0 0 24 25" fill="none" xmlns="http://www.w3.org/2000/svg">
<circle cx="12" cy="12.0325" r="3" stroke="#F1EAE1" stroke-width="1.5"/>
<path d="M13.7654 2.18471C13.3978 2.03247 12.9319 2.03247 12 2.03247C11.0681 2.03247 10.6022 2.03247 10.2346 2.18471C9.74457 2.3877 9.35522 2.77705 9.15223 3.2671C9.05957 3.49081 9.0233 3.75097 9.00911 4.13046C8.98826 4.68815 8.70226 5.20436 8.21894 5.4834C7.73564 5.76243 7.14559 5.75201 6.65219 5.49123C6.31645 5.31377 6.07301 5.21509 5.83294 5.18349C5.30704 5.11425 4.77518 5.25676 4.35436 5.57967C4.03874 5.82185 3.80577 6.22537 3.33983 7.0324C2.87389 7.83944 2.64092 8.24295 2.58899 8.63738C2.51976 9.16327 2.66227 9.69513 2.98518 10.116C3.13256 10.308 3.3397 10.4695 3.66119 10.6715C4.1338 10.9685 4.43789 11.4743 4.43786 12.0325C4.43783 12.5906 4.13375 13.0964 3.66118 13.3933C3.33965 13.5953 3.13248 13.7568 2.98508 13.9489C2.66217 14.3697 2.51966 14.9016 2.5889 15.4275C2.64082 15.8219 2.87379 16.2254 3.33973 17.0325C3.80568 17.8395 4.03865 18.243 4.35426 18.4852C4.77508 18.8081 5.30694 18.9506 5.83284 18.8814C6.07289 18.8498 6.31632 18.7511 6.65204 18.5737C7.14547 18.3129 7.73556 18.3025 8.2189 18.5815C8.70224 18.8606 8.98826 19.3768 9.00911 19.9345C9.02331 20.314 9.05957 20.5741 9.15223 20.7978C9.35522 21.2879 9.74457 21.6772 10.2346 21.8802C10.6022 22.0325 11.0681 22.0325 12 22.0325C12.9319 22.0325 13.3978 22.0325 13.7654 21.8802C14.2554 21.6772 14.6448 21.2879 14.8477 20.7978C14.9404 20.5741 14.9767 20.314 14.9909 19.9344C15.0117 19.3768 15.2977 18.8606 15.781 18.5815C16.2643 18.3024 16.8544 18.3128 17.3479 18.5736C17.6836 18.7511 17.927 18.8497 18.167 18.8813C18.6929 18.9506 19.2248 18.808 19.6456 18.4851C19.9612 18.243 20.1942 17.8394 20.6601 17.0324C21.1261 16.2254 21.3591 15.8219 21.411 15.4274C21.4802 14.9015 21.3377 14.3697 21.0148 13.9489C20.8674 13.7568 20.6602 13.5953 20.3387 13.3933C19.8662 13.0963 19.5621 12.5905 19.5621 12.0324C19.5621 11.4743 19.8662 10.9686 20.3387 10.6717C20.6603 10.4696 20.8675 10.3081 21.0149 10.116C21.3378 9.6952 21.4803 9.16334 21.4111 8.63744C21.3592 8.24302 21.1262 7.83951 20.6602 7.03247C20.1943 6.22544 19.9613 5.82192 19.6457 5.57974C19.2249 5.25683 18.693 5.11432 18.1671 5.18356C17.9271 5.21516 17.6837 5.31383 17.3479 5.49127C16.8545 5.75206 16.2644 5.76249 15.7811 5.48343C15.2977 5.20438 15.0117 4.68813 14.9909 4.13041C14.9767 3.75095 14.9404 3.4908 14.8477 3.2671C14.6448 2.77705 14.2554 2.3877 13.7654 2.18471Z" stroke="#F1EAE1" stroke-width="1.5"/>
</svg>
