<svg width="44" height="44" viewBox="0 0 44 44" fill="none" xmlns="http://www.w3.org/2000/svg">
<rect opacity="0.8" x="0.5" y="0.5" width="43" height="43" rx="21.5" stroke="#243E62"/>
<path d="M22 12C19.38 12 17.25 14.13 17.25 16.75C17.25 19.32 19.26 21.4 21.88 21.49C21.96 21.48 22.04 21.48 22.1 21.49C22.12 21.49 22.13 21.49 22.15 21.49C22.16 21.49 22.16 21.49 22.17 21.49C24.73 21.4 26.74 19.32 26.75 16.75C26.75 14.13 24.62 12 22 12Z" fill="#243E62"/>
<path d="M27.08 24.15C24.29 22.29 19.74 22.29 16.93 24.15C15.66 25 14.96 26.15 14.96 27.38C14.96 28.61 15.66 29.75 16.92 30.59C18.32 31.53 20.16 32 22 32C23.84 32 25.68 31.53 27.08 30.59C28.34 29.74 29.04 28.6 29.04 27.36C29.03 26.13 28.34 24.99 27.08 24.15Z" fill="#243E62"/>
</svg>
