<svg width="70" height="52" viewBox="0 0 70 52" fill="none" xmlns="http://www.w3.org/2000/svg">
<path d="M69.2528 47.3789C67.8907 50.0372 65.6393 51.0178 62.8757 51.0248C56.2274 51.0416 49.579 51.0255 42.9306 51.0249C31.1074 51.024 19.2842 51.0256 7.461 51.0242C2.63435 51.0236 0.00690827 48.405 0.00833292 43.6036C0.00913614 40.8963 -0.0030289 38.1889 0.0146869 35.4816C0.0341629 32.5061 1.25433 30.2543 4.05998 29.0319C4.59036 28.8008 4.77418 28.4824 4.76784 27.9373C4.74952 26.3611 4.74064 24.7842 4.76974 23.2083C4.78142 22.5753 4.55284 22.214 3.96681 21.9463C1.27715 20.7179 0.0428577 18.5419 0.0195002 15.6412C-0.00340543 12.7969 -0.00537602 9.95231 0.00963196 7.108C0.0327101 2.73368 2.69317 0.0457158 7.06165 0.0156057C11.071 -0.0120348 15.0808 0.0026248 19.0904 0.0169361C20.6898 0.0226437 22.2392 0.278507 23.5622 1.26772C24.014 1.60553 24.4095 1.55383 24.8934 1.35545C30.1783 -0.811058 35.2005 -0.275256 39.9237 2.91408C40.4991 3.30261 40.8542 3.0921 41.2904 2.7866C43.8961 0.961567 46.8298 0.0151161 49.9727 0.0526156C54.7807 0.109983 58.8174 1.97783 61.8578 5.78791C64.1704 8.68593 65.2028 12.0318 65.2184 15.7086C65.2352 19.6496 65.2427 23.5908 65.2159 27.5316C65.2104 28.3351 65.3975 28.8022 66.2112 29.1756C68.6951 30.3154 69.8978 32.3991 69.9604 35.0772C70.0333 38.194 69.9869 41.3139 69.9677 44.4323C69.9615 45.4346 69.7313 46.4016 69.2528 47.3789ZM42.7228 19.8005C43.0403 18.8204 43.4435 17.8753 43.9428 16.9755C44.3946 16.1613 45.1222 15.8503 46.024 15.9924C46.9322 16.1355 47.51 16.6813 47.6775 17.587C47.7638 18.0538 47.771 18.5398 47.7715 19.0172C47.7801 27.3454 47.7799 35.6736 47.7877 44.0018C47.7891 45.4132 48.2749 45.9884 49.5388 45.9924C54.097 46.0067 58.6553 46.0044 63.2135 45.9852C64.352 45.9804 64.9405 45.392 64.9471 44.2838C64.9651 41.2679 64.9516 38.2518 64.9592 35.2359C64.961 34.5186 64.7228 33.9068 64.0271 33.6809C63.556 33.5279 63.0132 33.5783 62.502 33.5695C60.8054 33.5402 60.2293 32.9681 60.2279 31.2607C60.2238 25.9142 60.2506 20.5675 60.2158 15.2212C60.1862 10.6795 57.133 6.68855 52.8058 5.42706C48.5107 4.17491 43.9329 5.91402 41.4312 9.74831C40.5875 11.0415 40.481 11.0311 39.5809 9.69778C37.582 6.73704 34.7772 5.08899 31.2212 5.04633C27.4254 5.00078 24.4276 6.65646 22.3578 9.89362C22.1838 10.1657 22.0823 10.6217 21.6494 10.5135C21.1504 10.3888 21.3058 9.92916 21.3121 9.56378C21.3269 8.70723 21.3479 7.85042 21.3405 6.99395C21.329 5.66799 20.7103 5.02249 19.3997 5.0186C15.2528 5.00628 11.1057 5.00693 6.9588 5.0183C5.54798 5.02217 5.03422 5.53997 5.02779 6.93884C5.01646 9.40641 5.05002 11.8744 5.01808 14.3416C4.9894 16.5571 4.83192 17.7366 7.88832 17.4881C9.01426 17.3966 9.73486 18.1733 9.7409 19.2489C9.76439 23.4301 9.76525 27.6114 9.74186 31.7925C9.73618 32.8087 9.0946 33.4399 8.08 33.5451C7.63884 33.5908 7.18984 33.5577 6.74457 33.5676C5.57071 33.5935 5.03877 34.0859 5.03203 35.2556C5.01465 38.2715 5.01635 41.2876 5.03631 44.3035C5.04347 45.3854 5.59993 45.98 6.68139 45.9844C11.8564 46.0054 17.0317 46.0046 22.2067 45.9788C23.2176 45.9738 23.8033 45.3496 23.81 44.3538C23.8303 41.3037 23.8235 38.2533 23.8175 35.2031C23.8157 34.288 23.3577 33.7548 22.4456 33.5608C20.4105 33.1279 19.8699 32.4486 19.8719 30.3912C19.8762 26.1073 19.8844 21.8233 19.8944 17.5393C19.8951 17.2319 19.8847 16.9164 19.9476 16.6191C20.0343 16.2094 20.3175 15.9731 20.7526 15.9637C21.1423 15.9553 21.4374 16.148 21.5339 16.5084C21.6295 16.8653 21.6585 17.2487 21.6599 17.6207C21.6711 20.6709 21.6489 23.7214 21.688 26.7712C21.6958 27.3801 21.3059 28.4254 22.2938 28.4467C23.3765 28.4699 22.9964 27.3786 23.0039 26.7449C23.0413 23.5923 23.0186 20.439 23.0132 17.2859C23.0122 16.6685 23.0639 16.0418 23.8409 15.9851C24.7286 15.9203 24.7776 16.5871 24.7775 17.245C24.7768 20.5009 24.7761 23.7568 24.7823 27.0127C24.783 27.3525 24.7772 27.7074 24.8701 28.0276C24.959 28.3339 25.2214 28.5423 25.582 28.4939C25.8956 28.4517 26.0613 28.2299 26.0975 27.9348C26.1349 27.63 26.1426 27.3201 26.1427 27.0124C26.144 23.9964 26.1357 20.9804 26.1448 17.9645C26.1462 17.5231 26.1995 17.0774 26.2751 16.6418C26.3474 16.226 26.6199 15.9745 27.0593 15.9676C27.486 15.9609 27.802 16.1802 27.9106 16.578C27.9988 16.9011 28.0004 17.254 28.0008 17.5937C28.0051 20.6782 28 23.7627 27.9997 26.8472C27.9996 27.1554 28.0013 27.4645 28.0238 27.7716C28.0506 28.1385 28.1748 28.4676 28.6032 28.4937C29.0761 28.5226 29.2682 28.1864 29.3322 27.7882C29.3807 27.4863 29.3692 27.1733 29.3694 26.8653C29.3712 23.7465 29.3693 20.6277 29.3708 17.5089C29.3709 17.2352 29.3518 16.9543 29.4048 16.6893C29.4943 16.2421 29.7758 15.951 30.2555 15.9472C30.7446 15.9433 31.007 16.2554 31.0996 16.6955C31.1552 16.9597 31.1399 17.2409 31.1401 17.5145C31.1425 21.9014 31.1459 26.2882 31.1407 30.6751C31.1386 32.4398 30.4785 33.2116 28.7191 33.5488C27.5531 33.7723 27.2159 34.1481 27.2104 35.3497C27.197 38.2628 27.1953 41.176 27.2095 44.0891C27.2163 45.4783 27.7494 45.9944 29.1584 45.9962C33.5796 46.002 38.0008 45.9993 42.4219 45.9902C43.806 45.9874 44.3759 45.4315 44.3806 44.0815C44.3906 41.2026 44.3911 38.3237 44.3828 35.4448C44.3791 34.2023 44.0671 33.8188 42.8387 33.5446C41.9888 33.3548 41.3285 32.9478 41.3054 32.0104C41.2052 27.9308 41.1456 23.8507 42.7228 19.8005Z" fill="#F1EAE1"/>
</svg>
