<svg width="178" height="36" viewBox="0 0 178 36" fill="none" xmlns="http://www.w3.org/2000/svg">
<path d="M41.4353 33.814C40.6203 35.4046 39.2733 35.9913 37.6198 35.9954C33.6419 36.0055 29.664 35.9958 25.6862 35.9955C18.6121 35.9949 11.5381 35.9959 4.46406 35.9951C1.57618 35.9947 0.00413335 34.4279 0.00498575 31.5552C0.00546633 29.9354 -0.00181225 28.3154 0.00878746 26.6957C0.0204404 24.9153 0.750488 23.568 2.42916 22.8367C2.7465 22.6984 2.85648 22.5079 2.85269 22.1817C2.84173 21.2387 2.83642 20.2952 2.85383 19.3523C2.86082 18.9735 2.72405 18.7574 2.37342 18.5972C0.764146 17.8622 0.0256426 16.5603 0.0116674 14.8247C-0.00203753 13.123 -0.00321658 11.421 0.00576299 9.71916C0.0195711 7.10192 1.61138 5.49366 4.22512 5.47565C6.62402 5.45911 9.02315 5.46788 11.4221 5.47644C12.3791 5.47986 13.3061 5.63294 14.0977 6.22481C14.3681 6.42693 14.6047 6.39599 14.8942 6.2773C18.0563 4.98104 21.0611 5.30162 23.8871 7.20986C24.2314 7.44233 24.4438 7.31637 24.7048 7.13359C26.2639 6.04163 28.0192 5.47535 29.8997 5.49779C32.7764 5.53211 35.1916 6.64968 37.0107 8.92932C38.3944 10.6633 39.0121 12.6652 39.0215 14.8651C39.0315 17.223 39.036 19.5811 39.0199 21.939C39.0166 22.4197 39.1286 22.6992 39.6154 22.9226C41.1016 23.6046 41.8212 24.8513 41.8587 26.4537C41.9023 28.3185 41.8745 30.1852 41.863 32.051C41.8593 32.6507 41.7216 33.2293 41.4353 33.814ZM25.5619 17.3134C25.7519 16.7269 25.9931 16.1615 26.2918 15.6231C26.5621 15.1359 26.9975 14.9499 27.5371 15.0349C28.0805 15.1205 28.4261 15.447 28.5263 15.9889C28.578 16.2682 28.5823 16.559 28.5826 16.8447C28.5878 21.8276 28.5877 26.8105 28.5923 31.7935C28.5931 32.6379 28.8838 32.982 29.64 32.9844C32.3673 32.993 35.0946 32.9916 37.8219 32.9801C38.5031 32.9773 38.8552 32.6252 38.8591 31.9621C38.8699 30.1577 38.8618 28.3531 38.8663 26.5486C38.8674 26.1195 38.7249 25.7534 38.3086 25.6182C38.0268 25.5267 37.702 25.5569 37.3962 25.5516C36.3811 25.5341 36.0363 25.1918 36.0355 24.1702C36.0331 20.9713 36.0491 17.7723 36.0283 14.5735C36.0106 11.8561 34.1838 9.46819 31.5947 8.71342C29.0249 7.96424 26.2859 9.00478 24.7891 11.2989C24.2843 12.0727 24.2206 12.0664 23.682 11.2687C22.486 9.49721 20.8079 8.51115 18.6803 8.48562C16.4091 8.45837 14.6155 9.449 13.3771 11.3859C13.273 11.5487 13.2123 11.8215 12.9532 11.7567C12.6547 11.6821 12.7477 11.4071 12.7514 11.1885C12.7603 10.676 12.7729 10.1634 12.7684 9.65092C12.7616 8.85758 12.3914 8.47136 11.6072 8.46903C9.12603 8.46166 6.64478 8.46205 4.16358 8.46885C3.31947 8.47117 3.01207 8.78098 3.00823 9.61795C3.00145 11.0943 3.02152 12.571 3.00241 14.0472C2.98525 15.3728 2.89103 16.0785 4.71974 15.9298C5.39341 15.875 5.82455 16.3397 5.82817 16.9833C5.84222 19.485 5.84274 21.9868 5.82874 24.4884C5.82534 25.0964 5.44147 25.474 4.83442 25.537C4.57047 25.5643 4.30182 25.5445 4.0354 25.5504C3.33307 25.5659 3.0148 25.8606 3.01076 26.5604C3.00036 28.3649 3.00138 30.1695 3.01332 31.9739C3.0176 32.6213 3.35054 32.977 3.9976 32.9797C7.09393 32.9923 10.1904 32.9918 13.2867 32.9763C13.8915 32.9733 14.242 32.5999 14.246 32.004C14.2581 30.1791 14.2541 28.354 14.2505 26.529C14.2494 25.9815 13.9754 25.6624 13.4296 25.5464C12.212 25.2874 11.8885 24.881 11.8898 23.65C11.8923 21.0868 11.8972 18.5236 11.9032 15.9604C11.9036 15.7765 11.8974 15.5877 11.935 15.4099C11.9869 15.1647 12.1563 15.0233 12.4167 15.0177C12.6499 15.0127 12.8264 15.128 12.8841 15.3436C12.9413 15.5571 12.9587 15.7865 12.9595 16.0091C12.9662 17.8341 12.9529 19.6593 12.9763 21.484C12.981 21.8483 12.7477 22.4738 13.3388 22.4865C13.9866 22.5004 13.7592 21.8475 13.7637 21.4683C13.7861 19.5821 13.7725 17.6954 13.7693 15.8088C13.7686 15.4394 13.7996 15.0644 14.2644 15.0305C14.7956 14.9917 14.8249 15.3907 14.8249 15.7843C14.8244 17.7324 14.824 19.6805 14.8277 21.6285C14.8281 21.8318 14.8247 22.0442 14.8803 22.2358C14.9334 22.419 15.0905 22.5437 15.3062 22.5147C15.4938 22.4895 15.593 22.3568 15.6146 22.1803C15.637 21.9979 15.6416 21.8124 15.6417 21.6283C15.6425 19.8238 15.6375 18.0193 15.643 16.2148C15.6438 15.9507 15.6756 15.6841 15.7209 15.4234C15.7641 15.1747 15.9272 15.0242 16.1901 15.02C16.4454 15.016 16.6344 15.1472 16.6994 15.3853C16.7522 15.5785 16.7532 15.7897 16.7534 15.993C16.756 17.8385 16.7529 19.684 16.7527 21.5295C16.7527 21.7139 16.7537 21.8989 16.7672 22.0826C16.7832 22.3021 16.8575 22.499 17.1139 22.5147C17.3968 22.5319 17.5117 22.3308 17.55 22.0925C17.5791 21.9119 17.5722 21.7246 17.5723 21.5403C17.5734 19.6743 17.5722 17.8083 17.5731 15.9422C17.5732 15.7784 17.5618 15.6104 17.5935 15.4519C17.647 15.1842 17.8155 15.0101 18.1024 15.0078C18.3951 15.0055 18.5521 15.1922 18.6075 15.4555C18.6408 15.6136 18.6316 15.7819 18.6317 15.9456C18.6331 18.5703 18.6352 21.1951 18.6321 23.8198C18.6308 24.8757 18.2359 25.3374 17.1832 25.5392C16.4856 25.6729 16.2838 25.8978 16.2805 26.6167C16.2725 28.3597 16.2715 30.1027 16.28 31.8457C16.284 32.6768 16.603 32.9856 17.4461 32.9867C20.0913 32.9902 22.7366 32.9886 25.3819 32.9832C26.21 32.9815 26.551 32.6489 26.5538 31.8411C26.5598 30.1186 26.5601 28.3961 26.5551 26.6736C26.5529 25.9302 26.3662 25.7008 25.6312 25.5367C25.1227 25.4232 24.7276 25.1796 24.7138 24.6187C24.6539 22.1779 24.6182 19.7366 25.5619 17.3134Z" fill="#F1EBE2"/>
<line x1="54.5344" y1="20.2941" x2="54.5344" y2="36" stroke="white" stroke-width="0.872549"/>
<path d="M90.9161 21.844C91.9401 21.844 92.8441 22.044 93.6281 22.444C94.4281 22.844 95.0521 23.46 95.5001 24.292C95.9481 25.108 96.1721 26.164 96.1721 27.46V34.804H93.1721V27.844C93.1721 26.708 92.9241 25.86 92.4281 25.3C91.9321 24.74 91.2201 24.46 90.2921 24.46C89.6361 24.46 89.0521 24.604 88.5401 24.892C88.0441 25.18 87.6521 25.604 87.3641 26.164C87.0921 26.724 86.9561 27.436 86.9561 28.3V34.804H83.9561V27.844C83.9561 26.708 83.7081 25.86 83.2121 25.3C82.7161 24.74 82.0041 24.46 81.0761 24.46C80.4201 24.46 79.8361 24.604 79.3241 24.892C78.8281 25.18 78.4361 25.604 78.1481 26.164C77.8761 26.724 77.7401 27.436 77.7401 28.3V34.804H74.7401V21.988H77.5961V25.396L77.0921 24.388C77.5241 23.556 78.1481 22.924 78.9641 22.492C79.7961 22.06 80.7401 21.844 81.7961 21.844C82.9961 21.844 84.0361 22.14 84.9161 22.732C85.8121 23.324 86.4041 24.22 86.6921 25.42L85.5161 25.012C85.9321 24.052 86.6201 23.284 87.5801 22.708C88.5401 22.132 89.6521 21.844 90.9161 21.844ZM106.053 34.972C104.629 34.972 103.381 34.692 102.309 34.132C101.253 33.556 100.429 32.772 99.8372 31.78C99.2612 30.788 98.9732 29.66 98.9732 28.396C98.9732 27.116 99.2532 25.988 99.8132 25.012C100.389 24.02 101.173 23.244 102.165 22.684C103.173 22.124 104.317 21.844 105.597 21.844C106.845 21.844 107.957 22.116 108.933 22.66C109.909 23.204 110.677 23.972 111.237 24.964C111.797 25.956 112.077 27.124 112.077 28.468C112.077 28.596 112.069 28.74 112.053 28.9C112.053 29.06 112.045 29.212 112.029 29.356H101.349V27.364H110.445L109.269 27.988C109.285 27.252 109.133 26.604 108.813 26.044C108.493 25.484 108.053 25.044 107.493 24.724C106.949 24.404 106.317 24.244 105.597 24.244C104.861 24.244 104.213 24.404 103.653 24.724C103.109 25.044 102.677 25.492 102.357 26.068C102.053 26.628 101.901 27.292 101.901 28.06V28.54C101.901 29.308 102.077 29.988 102.429 30.58C102.781 31.172 103.277 31.628 103.917 31.948C104.557 32.268 105.293 32.428 106.125 32.428C106.845 32.428 107.493 32.316 108.069 32.092C108.645 31.868 109.157 31.516 109.605 31.036L111.213 32.884C110.637 33.556 109.909 34.076 109.029 34.444C108.165 34.796 107.173 34.972 106.053 34.972ZM122.231 21.844C123.255 21.844 124.167 22.044 124.967 22.444C125.783 22.844 126.423 23.46 126.887 24.292C127.351 25.108 127.583 26.164 127.583 27.46V34.804H124.583V27.844C124.583 26.708 124.311 25.86 123.767 25.3C123.239 24.74 122.495 24.46 121.535 24.46C120.831 24.46 120.207 24.604 119.663 24.892C119.119 25.18 118.695 25.612 118.391 26.188C118.103 26.748 117.959 27.46 117.959 28.324V34.804H114.959V21.988H117.815V25.444L117.311 24.388C117.759 23.572 118.407 22.948 119.255 22.516C120.119 22.068 121.111 21.844 122.231 21.844ZM136.813 34.972C135.725 34.972 134.765 34.772 133.933 34.372C133.101 33.956 132.453 33.332 131.989 32.5C131.525 31.652 131.293 30.588 131.293 29.308V21.988H134.293V28.9C134.293 30.052 134.549 30.916 135.061 31.492C135.589 32.052 136.333 32.332 137.293 32.332C137.997 32.332 138.605 32.188 139.117 31.9C139.645 31.612 140.053 31.18 140.341 30.604C140.645 30.028 140.797 29.316 140.797 28.468V21.988H143.797V34.804H140.941V31.348L141.445 32.404C141.013 33.236 140.381 33.876 139.549 34.324C138.717 34.756 137.805 34.972 136.813 34.972Z" fill="white"/>
<path d="M150.404 34.916C149.592 34.916 148.869 34.7526 148.234 34.426C147.6 34.09 147.1 33.628 146.736 33.04C146.382 32.452 146.204 31.7846 146.204 31.038C146.204 30.282 146.382 29.6146 146.736 29.036C147.1 28.448 147.6 27.9906 148.234 27.664C148.869 27.328 149.592 27.16 150.404 27.16C151.198 27.16 151.888 27.328 152.476 27.664C153.064 27.9906 153.498 28.462 153.778 29.078L152.084 29.988C151.888 29.6333 151.641 29.372 151.342 29.204C151.053 29.036 150.736 28.952 150.39 28.952C150.017 28.952 149.681 29.036 149.382 29.204C149.084 29.372 148.846 29.61 148.668 29.918C148.5 30.226 148.416 30.5993 148.416 31.038C148.416 31.4766 148.5 31.85 148.668 32.158C148.846 32.466 149.084 32.704 149.382 32.872C149.681 33.04 150.017 33.124 150.39 33.124C150.736 33.124 151.053 33.0446 151.342 32.886C151.641 32.718 151.888 32.452 152.084 32.088L153.778 33.012C153.498 33.6186 153.064 34.09 152.476 34.426C151.888 34.7526 151.198 34.916 150.404 34.916ZM159.573 27.16C160.17 27.16 160.702 27.2813 161.169 27.524C161.645 27.7573 162.018 28.1213 162.289 28.616C162.56 29.1013 162.695 29.7266 162.695 30.492V34.804H160.511V30.828C160.511 30.2213 160.376 29.7733 160.105 29.484C159.844 29.1946 159.47 29.05 158.985 29.05C158.64 29.05 158.327 29.1246 158.047 29.274C157.776 29.414 157.562 29.6333 157.403 29.932C157.254 30.2306 157.179 30.6133 157.179 31.08V34.804H154.995V24.416H157.179V29.358L156.689 28.728C156.96 28.224 157.347 27.8366 157.851 27.566C158.355 27.2953 158.929 27.16 159.573 27.16ZM164.675 34.804V27.272H166.859V34.804H164.675ZM165.767 26.222C165.365 26.222 165.039 26.1053 164.787 25.872C164.535 25.6386 164.409 25.3493 164.409 25.004C164.409 24.6586 164.535 24.3693 164.787 24.136C165.039 23.9026 165.365 23.786 165.767 23.786C166.168 23.786 166.495 23.898 166.747 24.122C166.999 24.3366 167.125 24.6166 167.125 24.962C167.125 25.326 166.999 25.6293 166.747 25.872C166.504 26.1053 166.177 26.222 165.767 26.222ZM169.712 34.916C169.338 34.916 169.016 34.79 168.746 34.538C168.484 34.2766 168.354 33.9453 168.354 33.544C168.354 33.1426 168.484 32.8206 168.746 32.578C169.016 32.326 169.338 32.2 169.712 32.2C170.094 32.2 170.416 32.326 170.678 32.578C170.939 32.8206 171.07 33.1426 171.07 33.544C171.07 33.9453 170.939 34.2766 170.678 34.538C170.416 34.79 170.094 34.916 169.712 34.916Z" fill="#E8D415"/>
</svg>
