<svg width="84" height="62" viewBox="0 0 84 62" fill="none" xmlns="http://www.w3.org/2000/svg">
<path d="M83.1033 56.8546C81.4689 60.0447 78.7672 61.2214 75.4509 61.2298C67.4729 61.25 59.4947 61.2306 51.5167 61.2299C37.3288 61.2287 23.141 61.2308 8.95321 61.229C3.16122 61.2283 0.00828993 58.0859 0.00999951 52.3244C0.0109634 49.0756 -0.00363468 45.8266 0.0176243 42.578C0.0409955 39.0073 1.50519 36.3052 4.87198 34.8383C5.50843 34.561 5.72901 34.1789 5.72141 33.5247C5.69943 31.6333 5.68877 29.741 5.72368 27.85C5.73771 27.0903 5.46341 26.6568 4.76018 26.3356C1.53259 24.8614 0.0514292 22.2503 0.0234003 18.7694C-0.00408651 15.3563 -0.00645123 11.9428 0.0115583 8.5296C0.0392522 3.28042 3.2318 0.054859 8.47397 0.0187268C13.2853 -0.0144417 18.097 0.00314976 22.9085 0.0203233C24.8278 0.0271725 26.687 0.334208 28.2747 1.52127C28.8169 1.92664 29.2914 1.8646 29.8721 1.62654C36.214 -0.973269 42.2406 -0.330307 47.9085 3.4969C48.599 3.96314 49.025 3.71052 49.5484 3.34392C52.6753 1.15388 56.1958 0.0181394 59.9673 0.0631388C65.7369 0.13198 70.5808 2.3734 74.2293 6.94549C77.0045 10.4231 78.2433 14.4382 78.2621 18.8503C78.2823 23.5795 78.2913 28.3089 78.259 33.038C78.2525 34.0021 78.477 34.5626 79.4534 35.0107C82.4341 36.3785 83.8774 38.8789 83.9525 42.0926C84.04 45.8328 83.9842 49.5767 83.9612 53.3188C83.9538 54.5215 83.6776 55.6819 83.1033 56.8546ZM51.2673 23.7606C51.6484 22.5844 52.1322 21.4504 52.7313 20.3706C53.2735 19.3935 54.1467 19.0204 55.2288 19.1909C56.3187 19.3626 57.012 20.0175 57.2129 21.1044C57.3165 21.6645 57.3252 22.2478 57.3257 22.8206C57.3361 32.8145 57.3359 42.8083 57.3453 52.8022C57.3469 54.4959 57.9299 55.186 59.4466 55.1908C64.9164 55.2081 70.3864 55.2053 75.8562 55.1822C77.2225 55.1765 77.9286 54.4704 77.9365 53.1405C77.9581 49.5215 77.942 45.9022 77.951 42.2831C77.9532 41.4224 77.6674 40.6881 76.8325 40.4171C76.2672 40.2335 75.6159 40.294 75.0024 40.2834C72.9665 40.2482 72.2751 39.5618 72.2735 37.5129C72.2686 31.0971 72.3007 24.681 72.2589 18.2655C72.2235 12.8154 68.5596 8.02625 63.367 6.51247C58.2128 5.0099 52.7195 7.09682 49.7175 11.698C48.705 13.2498 48.5772 13.2374 47.497 11.6373C45.0984 8.08445 41.7327 6.10679 37.4655 6.05559C32.9105 6.00093 29.3131 7.98775 26.8293 11.8723C26.6206 12.1989 26.4988 12.746 25.9792 12.6162C25.3804 12.4665 25.5669 11.915 25.5745 11.4765C25.5922 10.4487 25.6175 9.42051 25.6086 8.39274C25.5948 6.80159 24.8524 6.02698 23.2797 6.02231C18.3033 6.00753 13.3269 6.00831 8.35056 6.02196C6.65758 6.02661 6.04106 6.64797 6.03335 8.32661C6.01975 11.2877 6.06002 14.2493 6.02169 17.2099C5.98728 19.8686 5.7983 21.284 9.46599 20.9858C10.8171 20.8759 11.6818 21.8079 11.6891 23.0987C11.7173 28.1161 11.7183 33.1337 11.6902 38.151C11.6834 39.3704 10.9135 40.1278 9.696 40.2541C9.16661 40.309 8.62781 40.2693 8.09348 40.2811C6.68486 40.3122 6.04653 40.9031 6.03844 42.3067C6.01758 45.9258 6.01962 49.5451 6.04357 53.1642C6.05216 54.4625 6.71991 55.176 8.01767 55.1813C14.2277 55.2065 20.438 55.2056 26.648 55.1746C27.8611 55.1685 28.564 54.4195 28.572 53.2245C28.5963 49.5644 28.5882 45.904 28.581 42.2437C28.5789 41.1456 28.0292 40.5057 26.9347 40.2729C24.4926 39.7535 23.8439 38.9384 23.8463 36.4695C23.8515 31.3287 23.8613 26.1879 23.8733 21.0472C23.8742 20.6783 23.8617 20.2997 23.9371 19.943C24.0411 19.4513 24.381 19.1677 24.9031 19.1565C25.3708 19.1464 25.7249 19.3776 25.8407 19.8101C25.9553 20.2383 25.9902 20.6984 25.9918 21.1448C26.0053 24.8051 25.9786 28.4657 26.0256 32.1254C26.0349 32.8561 25.5671 34.1105 26.7526 34.136C28.0518 34.1639 27.5956 32.8544 27.6047 32.0939C27.6496 28.3108 27.6223 24.5268 27.6159 20.7431C27.6146 20.0022 27.6767 19.2502 28.609 19.1821C29.6743 19.1044 29.7332 19.9046 29.733 20.694C29.7322 24.6011 29.7313 28.5082 29.7388 32.4152C29.7396 32.823 29.7327 33.2489 29.8441 33.6331C29.9508 34.0007 30.2657 34.2508 30.6984 34.1926C31.0747 34.1421 31.2736 33.8759 31.317 33.5218C31.3618 33.156 31.3711 32.7841 31.3713 32.4148C31.3728 28.7957 31.3628 25.1765 31.3738 21.5574C31.3754 21.0277 31.4394 20.4929 31.5302 19.9701C31.6168 19.4712 31.9439 19.1694 32.4712 19.1611C32.9832 19.153 33.3623 19.4162 33.4927 19.8936C33.5985 20.2813 33.6005 20.7048 33.601 21.1125C33.6061 24.8139 33.5999 28.5153 33.5996 32.2167C33.5995 32.5865 33.6016 32.9574 33.6285 33.3259C33.6607 33.7662 33.8097 34.1611 34.3239 34.1925C34.8913 34.2271 35.1218 33.8237 35.1986 33.3458C35.2569 32.9835 35.2431 32.608 35.2433 32.2383C35.2455 28.4958 35.2431 24.7532 35.2449 21.0107C35.2451 20.6822 35.2222 20.3451 35.2858 20.0272C35.3931 19.4905 35.731 19.1412 36.3066 19.1366C36.8935 19.1319 37.2084 19.5065 37.3195 20.0346C37.3863 20.3517 37.3679 20.6891 37.3681 21.0174C37.3709 26.2816 37.3751 31.5459 37.3688 36.8102C37.3663 38.9278 36.5742 39.8539 34.4629 40.2586C33.0638 40.5267 32.6591 40.9777 32.6525 42.4196C32.6363 45.9153 32.6344 49.4112 32.6514 52.907C32.6596 54.5739 33.2993 55.1932 34.9901 55.1955C40.2955 55.2024 45.6009 55.1991 50.9063 55.1883C52.5672 55.1849 53.2511 54.5178 53.2567 52.8978C53.2687 49.4432 53.2694 45.9884 53.2593 42.5338C53.255 41.0428 52.8806 40.5826 51.4064 40.2535C50.3866 40.0258 49.5942 39.5374 49.5665 38.4125C49.4463 33.517 49.3747 28.6208 51.2673 23.7606Z" fill="#1C375E"/>
</svg>
